<svg width="48" height="48" viewBox="0 0 48 48" fill="none" xmlns="http://www.w3.org/2000/svg">
<g id="Risorsa 1" clip-path="url(#clip0_698_212)">
<g id="Livello 2">
<g id="Livello 1">
<path id="Vector" d="M24 0C19.2533 0 14.6131 1.40758 10.6663 4.04473C6.71954 6.68188 3.64341 10.4302 1.8269 14.8156C0.0103989 19.201 -0.464881 24.0266 0.461164 28.6822C1.38721 33.3377 3.67299 37.6141 7.02945 40.9706C10.3859 44.327 14.6623 46.6128 19.3178 47.5388C23.9734 48.4649 28.799 47.9896 33.1844 46.1731C37.5698 44.3566 41.3181 41.2805 43.9553 37.3337C46.5924 33.3869 48 28.7468 48 24C48 17.6348 45.4714 11.5303 40.9706 7.02944C36.4697 2.52856 30.3652 0 24 0ZM30.75 15.18C30.1386 14.8366 29.4512 14.651 28.75 14.64C28.3622 14.5953 27.9696 14.6596 27.6164 14.8256C27.2631 14.9917 26.9631 15.2529 26.75 15.58C26.3743 16.4277 26.2162 17.3557 26.29 18.28V18.65H30.79L29.79 24.89H26.24V38.89H20.24V24.89H17.24V18.65H20.24C20.24 16.71 20.24 15.27 20.24 14.78C20.34 11.07 24 9.83 27.39 10.05C28.5445 10.0746 29.6842 10.3155 30.75 10.76V15.18Z" fill="white"/>
</g>
</g>
</g>
<defs>
<clipPath id="clip0_698_212">
<rect width="47.98" height="47.98" fill="white"/>
</clipPath>
</defs>
</svg>
