<?xml version="1.0" encoding="utf-8"?>
<!-- Generator: Adobe Illustrator 24.3.0, SVG Export Plug-In . SVG Version: 6.00 Build 0)  -->
<svg version="1.1" id="Layer_1" xmlns="http://www.w3.org/2000/svg" xmlns:xlink="http://www.w3.org/1999/xlink" x="0px" y="0px"
	 viewBox="0 0 120 90" style="enable-background:new 0 0 120 90;" xml:space="preserve">
<style type="text/css">
	.st0{fill:#ffffff;}
	.st1{fill:#ffffff;}
</style>
<path class="st1" d="M105.6,7.97c-0.72-3.26-3.67-5.63-7.01-5.63H26.91c-3.34,0-6.29,2.37-7.01,5.63l-5.61,25.4v0.22
	c0,4.9,2.6,9.2,6.48,11.6v34.55c0,3.94,3.21,7.15,7.15,7.15h69.9c3.94,0,7.15-3.21,7.15-7.15V45.04c3.75-2.43,6.24-6.65,6.24-11.45
	v-0.22L105.6,7.97z M37.51,33.47v0.13c0,5.28-4.29,9.57-9.57,9.57c-5.21,0-9.46-4.18-9.57-9.36l5.51-24.95
	c0.31-1.41,1.59-2.44,3.04-2.44h13.93L37.51,33.47z M60.72,33.59c0,5.28-4.29,9.57-9.57,9.57c-5.24,0-9.51-4.23-9.57-9.45l3.37-27.3
	h15.77V33.59z M64.79,33.59V6.41h15.77l3.37,27.3c-0.06,5.22-4.33,9.45-9.57,9.45C69.08,43.16,64.79,38.87,64.79,33.59z
	 M83.02,77.43c-6.31,0-11.41-5.1-11.41-11.41c0-6.31,5.1-11.41,11.41-11.41c3.08,0,5.66,1.12,7.65,2.98l-3.1,2.98
	c-0.85-0.82-2.33-1.76-4.55-1.76c-3.9,0-7.08,3.23-7.08,7.21c0,3.98,3.18,7.21,7.08,7.21c4.52,0,6.21-3.24,6.47-4.92h-6.47v-3.91
	h10.78c0.1,0.57,0.18,1.14,0.18,1.89C93.97,72.8,89.6,77.43,83.02,77.43z M97.57,43.16c-5.28,0-9.57-4.29-9.57-9.57v-0.13
	L84.66,6.41h13.93c1.45,0,2.72,1.03,3.04,2.44l5.51,24.95C107.02,38.98,102.77,43.16,97.57,43.16z"/>
</svg>
