<?xml version="1.0" encoding="UTF-8" standalone="no"?>
<!DOCTYPE svg PUBLIC "-//W3C//DTD SVG 1.1//EN" "http://www.w3.org/Graphics/SVG/1.1/DTD/svg11.dtd">
<!-- Created with Vectornator (http://vectornator.io/) -->
<svg height="100%" stroke-miterlimit="10" style="fill-rule:nonzero;clip-rule:evenodd;stroke-linecap:round;stroke-linejoin:round;" version="1.1" viewBox="0 0 90 90" width="100%" xml:space="preserve" xmlns="http://www.w3.org/2000/svg" xmlns:vectornator="http://vectornator.io" xmlns:xlink="http://www.w3.org/1999/xlink">
<defs/>
<clipPath id="ArtboardFrame">
<rect height="90" width="90" x="0" y="0"/>
</clipPath>
<g clip-path="url(#ArtboardFrame)" id="Untitled" vectornator:layerName="Untitled">
<path d="M45.1141-1.75432e-15C20.1978-1.75432e-15 0 20.1475 0 44.9991C0 69.8525 20.1978 90 45.1141 90C70.0289 90 90.2281 69.8527 90.2281 44.9991C90.2281 20.1475 70.0289-1.75432e-15 45.1141-1.75432e-15ZM45.641 71.3191C31.0997 71.3191 19.3217 59.5411 19.3217 44.9998C19.3217 30.4587 31.0997 18.6807 45.641 18.6807C52.7476 18.6807 58.6848 21.296 63.2424 25.5402L55.8222 32.9591L55.8222 32.9423C53.0593 30.3102 49.5559 28.9617 45.641 28.9617C36.9559 28.9617 29.8992 36.2979 29.8992 44.9839C29.8992 53.6679 36.9562 61.0219 45.641 61.0219C53.5205 61.0219 58.8825 56.5146 59.9858 50.3297L45.641 50.3297L45.641 40.0649L70.3969 40.0649C70.7262 41.8246 70.906 43.6674 70.906 45.5919C70.9062 60.6269 60.8406 71.3191 45.641 71.3191Z" fill="#ffffff" fill-rule="evenodd" opacity="1" stroke="none" vectornator:layerName="path"/>
</g>
</svg>
