<svg width="49" height="48" viewBox="0 0 49 48" fill="none" xmlns="http://www.w3.org/2000/svg">
<g id="Risorsa 3" clip-path="url(#clip0_698_216)">
<g id="Livello 2">
<g id="Livello 1">
<path id="Vector" d="M24.9805 19.5C24.0924 19.498 23.2237 19.7594 22.4843 20.2512C21.7448 20.7429 21.1677 21.4428 20.8261 22.2625C20.4844 23.0822 20.3935 23.9848 20.5648 24.8561C20.7361 25.7275 21.162 26.5285 21.7885 27.1578C22.415 27.7872 23.2141 28.2166 24.0847 28.3918C24.9553 28.567 25.8583 28.48 26.6795 28.142C27.5007 27.804 28.2032 27.2301 28.6982 26.4928C29.1932 25.7556 29.4585 24.888 29.4605 24C29.4605 22.81 28.9891 21.6684 28.1495 20.8251C27.3099 19.9817 26.1705 19.5053 24.9805 19.5Z" fill="white"/>
<path id="Vector_2" d="M24.9805 0C20.2337 0 15.5936 1.40758 11.6468 4.04473C7.70001 6.68188 4.62387 10.4302 2.80737 14.8156C0.990868 19.201 0.515588 24.0266 1.44163 28.6822C2.36768 33.3377 4.65346 37.6141 8.00992 40.9706C11.3664 44.327 15.6428 46.6128 20.2983 47.5388C24.9539 48.4649 29.7795 47.9896 34.1649 46.1731C38.5503 44.3566 42.2986 41.2805 44.9357 37.3337C47.5729 33.3869 48.9805 28.7468 48.9805 24C48.9805 17.6348 46.4519 11.5303 41.951 7.02944C37.4502 2.52856 31.3457 0 24.9805 0ZM36.7905 30.78C36.7892 31.4099 36.6636 32.0333 36.4211 32.6146C36.1785 33.1959 35.8237 33.7237 35.3769 34.1677C34.9301 34.6117 34.4002 34.9632 33.8174 35.2021C33.2346 35.441 32.6104 35.5626 31.9805 35.56H17.9805C16.7136 35.5574 15.4993 35.0529 14.6034 34.1571C13.7076 33.2612 13.2031 32.0469 13.2005 30.78V17.2C13.2031 15.934 13.7079 14.7208 14.604 13.8265C15.5002 12.9322 16.7145 12.43 17.9805 12.43H31.9805C33.2465 12.43 34.4608 12.9322 35.3569 13.8265C36.2531 14.7208 36.7578 15.934 36.7605 17.2L36.7905 30.78Z" fill="white"/>
<path id="Vector_3" d="M31.9802 14.4297H17.9802C17.2446 14.4297 16.539 14.7212 16.018 15.2404C15.4969 15.7596 15.2028 16.4641 15.2002 17.1997V30.7797C15.2028 31.5162 15.4966 32.2218 16.0173 32.7425C16.5381 33.2633 17.2437 33.5571 17.9802 33.5597H31.9802C32.7167 33.5571 33.4223 33.2633 33.943 32.7425C34.4638 32.2218 34.7576 31.5162 34.7602 30.7797V17.1997C34.7575 16.4641 34.4635 15.7596 33.9424 15.2404C33.4214 14.7212 32.7158 14.4297 31.9802 14.4297ZM24.9802 30.4797C23.6957 30.4817 22.4396 30.1025 21.3708 29.3901C20.302 28.6777 19.4686 27.6642 18.9761 26.4779C18.4837 25.2916 18.3543 23.9859 18.6044 22.726C18.8545 21.4661 19.4728 20.3088 20.3811 19.4006C21.2893 18.4923 22.4466 17.874 23.7065 17.6239C24.9664 17.3738 26.2721 17.5032 27.4584 17.9956C28.6447 18.4881 29.6582 19.3215 30.3706 20.3903C31.083 21.4591 31.4622 22.7152 31.4602 23.9997C31.4549 25.7167 30.7705 27.3618 29.5564 28.5759C28.3423 29.79 26.6972 30.4744 24.9802 30.4797ZM31.4002 19.4197C31.0699 19.4197 30.747 19.3217 30.4724 19.1382C30.1978 18.9547 29.9837 18.6939 29.8573 18.3888C29.7309 18.0836 29.6978 17.7478 29.7623 17.4239C29.8267 17.0999 29.9858 16.8024 30.2193 16.5688C30.4529 16.3353 30.7504 16.1762 31.0744 16.1118C31.3983 16.0473 31.7341 16.0804 32.0393 16.2068C32.3444 16.3332 32.6052 16.5473 32.7887 16.8219C32.9723 17.0965 33.0702 17.4194 33.0702 17.7497C33.0702 17.9698 33.0267 18.1878 32.9421 18.3911C32.8576 18.5944 32.7337 18.7789 32.5775 18.9341C32.4214 19.0893 32.2361 19.2121 32.0323 19.2954C31.8286 19.3788 31.6103 19.421 31.3902 19.4197H31.4002Z" fill="white"/>
</g>
</g>
</g>
<defs>
<clipPath id="clip0_698_216">
<rect width="47.98" height="47.98" fill="white" transform="translate(0.980469)"/>
</clipPath>
</defs>
</svg>
