<svg width="48" height="48" viewBox="0 0 48 48" fill="none" xmlns="http://www.w3.org/2000/svg">
<g id="Risorsa 2" clip-path="url(#clip0_698_222)">
<g id="Livello 2">
<g id="Livello 1">
<path id="Vector" d="M24 0C19.2533 0 14.6131 1.40758 10.6663 4.04473C6.71954 6.68188 3.64341 10.4302 1.8269 14.8156C0.0103989 19.201 -0.464881 24.0266 0.461164 28.6822C1.38721 33.3377 3.67299 37.6141 7.02945 40.9706C10.3859 44.327 14.6623 46.6128 19.3178 47.5388C23.9734 48.4649 28.799 47.9896 33.1844 46.1731C37.5698 44.3566 41.3181 41.2805 43.9553 37.3337C46.5924 33.3869 48 28.7468 48 24C48 17.6348 45.4714 11.5303 40.9706 7.02944C36.4697 2.52856 30.3652 0 24 0ZM19.76 32.82H14.76V17.55H19.76V32.82ZM17.28 16.82C16.7247 16.82 16.1818 16.6554 15.7199 16.3471C15.258 16.0388 14.8979 15.6005 14.6849 15.0876C14.4719 14.5748 14.4157 14.0103 14.5233 13.4655C14.6309 12.9207 14.8975 12.4199 15.2895 12.0266C15.6815 11.6332 16.1813 11.3648 16.7257 11.2552C17.2701 11.1457 17.8348 11.1999 18.3484 11.411C18.8621 11.6222 19.3016 11.9808 19.6116 12.4416C19.9216 12.9024 20.088 13.4447 20.09 14C20.0847 14.7418 19.7863 15.4514 19.2599 15.9741C18.7335 16.4967 18.0218 16.79 17.28 16.79V16.82ZM35.52 32.82H31.21V23.59C31.2101 23.2911 31.1506 22.9952 31.035 22.7196C30.9194 22.444 30.7501 22.1942 30.5369 21.9847C30.3237 21.7752 30.071 21.6103 29.7933 21.4997C29.5157 21.389 29.2188 21.3347 28.92 21.34C28.3037 21.3582 27.7187 21.6159 27.2892 22.0584C26.8598 22.5009 26.6197 23.0934 26.62 23.71V32.82H22.13V17.55H26.53V20.4C26.53 18.72 29.53 16.73 33.47 18.3C34.1845 18.6424 34.7345 19.2535 35 20C35.3571 20.8266 35.5344 21.7197 35.52 22.62V32.82Z" fill="white"/>
</g>
</g>
</g>
<defs>
<clipPath id="clip0_698_222">
<rect width="47.98" height="47.98" fill="white"/>
</clipPath>
</defs>
</svg>
