<svg width="2650" height="2650" viewBox="0 0 2650 2650" fill="none" xmlns="http://www.w3.org/2000/svg" preserveAspectRatio="xMidYMid meet">
<g style="mix-blend-mode:multiply" transform="scale(10)">
<rect width="265" height="265" rx="132.5" fill="#0038FF"/>
<rect width="140.45" height="265" fill="#0038FF"/>
<path d="M20.335 210.342L20.335 181.543H31.4597C34.4263 181.543 36.9591 182.061 39.0581 183.097C41.1571 184.104 42.7664 185.671 43.8859 187.798C45.0333 189.897 45.607 192.612 45.607 195.943C45.607 199.245 45.0333 201.96 43.8859 204.087C42.7664 206.214 41.1571 207.795 39.0581 208.831C36.9591 209.838 34.4263 210.342 31.4597 210.342H20.335ZM25.0367 206.312H31.4177C32.901 206.312 34.2164 206.116 35.3639 205.724C36.5393 205.332 37.5189 204.73 38.3025 203.919C39.1141 203.107 39.7158 202.086 40.1076 200.854C40.5274 199.595 40.7373 198.112 40.7373 196.404V195.523C40.7373 193.788 40.5274 192.304 40.1076 191.073C39.7158 189.814 39.1141 188.778 38.3025 187.966C37.5189 187.155 36.5393 186.553 35.3639 186.161C34.2164 185.769 32.901 185.574 31.4177 185.574H25.0367V206.312Z" fill="white"/>
<path d="M51.0412 210.342V181.543H55.743V210.342H51.0412Z" fill="white"/>
<path d="M75.617 210.846C71.0551 210.846 67.5428 209.642 65.08 207.235C62.6451 204.828 61.4277 201.064 61.4277 195.943C61.4277 192.584 62.0014 189.814 63.1489 187.631C64.2963 185.42 65.9615 183.768 68.1445 182.677C70.3275 181.585 72.9862 181.04 76.1207 181.04C77.9959 181.04 79.731 181.25 81.3263 181.669C82.9495 182.089 84.3629 182.733 85.5663 183.6C86.7977 184.44 87.7353 185.504 88.379 186.791C89.0506 188.078 89.3865 189.604 89.3865 191.367H84.6007C84.6007 190.275 84.3768 189.338 83.9291 188.554C83.5093 187.743 82.9075 187.071 82.1239 186.539C81.3683 186.007 80.4727 185.63 79.4372 185.406C78.4297 185.154 77.3522 185.028 76.2047 185.028C74.6095 185.028 73.1821 185.238 71.9227 185.657C70.6913 186.077 69.6558 186.721 68.8162 187.589C67.9766 188.456 67.3469 189.548 66.9271 190.863C66.5073 192.178 66.2974 193.732 66.2974 195.523V196.404C66.2974 198.867 66.6472 200.868 67.3469 202.408C68.0745 203.947 69.138 205.08 70.5374 205.808C71.9647 206.508 73.6999 206.857 75.7429 206.857C77.674 206.857 79.2972 206.578 80.6126 206.018C81.928 205.458 82.9355 204.633 83.6352 203.541C84.3349 202.422 84.6847 201.036 84.6847 199.385V198.965H74.9873V195.061H89.3865V210.342H85.9861L85.5243 206.899C84.7407 207.823 83.8451 208.579 82.8376 209.166C81.83 209.726 80.7246 210.146 79.5211 210.426C78.3457 210.706 77.0443 210.846 75.617 210.846Z" fill="white"/>
<path d="M95.9321 210.342V181.543H100.634V210.342H95.9321Z" fill="white"/>
<path d="M114.505 210.342V185.574H104.975V181.543H128.82V185.574H119.207V210.342H114.505Z" fill="white"/>
<path d="M126.401 210.342L137.693 181.543H143.696L155.031 210.342H149.993L147.433 203.667H133.789L131.228 210.342H126.401ZM135.3 199.679H145.879L142.647 191.241C142.563 190.989 142.437 190.639 142.269 190.191C142.101 189.744 141.919 189.254 141.723 188.722C141.555 188.19 141.373 187.659 141.178 187.127C141.01 186.567 140.856 186.063 140.716 185.616H140.464C140.296 186.147 140.086 186.777 139.834 187.505C139.582 188.232 139.33 188.932 139.079 189.604C138.855 190.275 138.659 190.821 138.491 191.241L135.3 199.679Z" fill="white"/>
<path d="M158.738 210.342V181.543H163.44V206.27H177.797V210.342H158.738Z" fill="white"/>
<path d="M20.335 247.73V218.932H35.4898C37.5329 218.932 39.2261 219.296 40.5694 220.024C41.9128 220.751 42.9203 221.773 43.592 223.088C44.2637 224.375 44.5995 225.887 44.5995 227.622C44.5995 229.553 44.1657 231.232 43.2981 232.66C42.4305 234.087 41.1991 235.136 39.6039 235.808L45.607 247.73H40.4855L35.028 236.606H25.0367V247.73H20.335ZM25.0367 232.66H35.112C36.6233 232.66 37.7847 232.212 38.5963 231.316C39.436 230.421 39.8558 229.175 39.8558 227.58C39.8558 226.6 39.6738 225.775 39.31 225.103C38.9462 224.403 38.4144 223.872 37.7148 223.508C37.0151 223.144 36.1475 222.962 35.112 222.962H25.0367V232.66Z" fill="white"/>
<path d="M50.6312 247.73V218.932H55.333L55.333 247.73H50.6312Z" fill="white"/>
<path d="M62.1512 247.73L62.1512 218.932H66.853V243.658H81.2102V247.73H62.1512Z" fill="white"/>
<path d="M86.298 247.73V218.932H90.9998V247.73H86.298Z" fill="white"/>
<path d="M99.3758 247.73V218.932H121.709V222.962H104.078V230.98H119.862V235.01H104.078V243.7H121.961V247.73H99.3758Z" fill="white"/>
<path d="M137.287 247.73L126.666 218.932H131.745L138.882 239.041C139.022 239.376 139.162 239.768 139.302 240.216C139.442 240.664 139.581 241.098 139.721 241.517C139.861 241.909 139.987 242.259 140.099 242.567H140.309C140.421 242.259 140.547 241.909 140.687 241.517C140.827 241.126 140.967 240.72 141.107 240.3C141.247 239.88 141.387 239.474 141.527 239.083L148.579 218.932H153.491L142.828 247.73H137.287Z" fill="white"/>
<path d="M158.738 247.73V218.932H163.44V247.73H158.738Z" fill="white"/>
</g>
</svg>
