<?xml version="1.0" encoding="UTF-8"?>
<svg id="uuid-afa57675-4e33-4fb5-9319-971876998593" data-name="Livello 7" xmlns="http://www.w3.org/2000/svg" viewBox="0 0 400 400">
  <defs>
    <style>
      .uuid-94672372-a3f2-4eb4-a3ae-51e7f3ad2d35 {
        fill: #232a56;
      }
    </style>
  </defs>
  <path class="uuid-94672372-a3f2-4eb4-a3ae-51e7f3ad2d35" d="m327.65,240.04c-5.24-5.94-7.73-13.45-11.52-20.21-.47-.85-.52-1.78-.39-2.73-.47-.11-.95-.22-1.42-.32-.55-.71-1.08-.72-1.59.04-1.33.36-.78,1.78-1.42,2.53-.01,0-.02,0-.03,0,0,0,0,0,0,.01-2.06-1.12-2.31-3.64-3.91-5.12-1.02-4.02-4.08-6.78-6.21-10.12-1.59.68-2.47.2-2.89-1.54-.29-1.23-.79-2.33,1.07-2.56-.15-.32-.3-.64-.46-.96-.03-.17-.06-.33-.1-.5.14-.49.02-.91-.36-1.25-.85-3.15-1.95-6.21-2.35-9.52-.37-3.03-.86-6.22-3.3-8.54-.35-2.48,2.53-4.57.82-7.57-.4,1.73-.76,3.11-1.55,4.36-.67,1.06-.8,2.27.24,3.3-.04.18-.08.37-.12.55.58,3.19,1.57,6.31,1.57,9.6,1.23,3.33,2.46,6.65,3.69,9.98-1.55,2.43.03,4.67.45,6.97-.2,1.9.74,3.47,1.44,5.11.15.74.29,1.48.44,2.22,1.74.88,2.41,2.56,3.26,4.11-.85-1.55-1.53-3.24-3.26-4.11.45,2.05.91,4.11,1.36,6.16-.2,1.99.46,3.79,1.2,5.57.14.04.28.08.43.13.65,2,1.2,4.01,1.3,6.13.13,1.72-.63,3.52.44,5.15.08.59.15,1.17.23,1.76-.46,1.35-.34,2.65.39,3.88,1.69-.92,1.21-2.34.87-3.74-.33-1.93-.29-3.9-.46-5.84-.22-2.52.21-5.25-1.62-7.43.53-2.09-1.02-4.06-.38-6.16h.23s.23-.03.23-.03c1.41,1.14,2.32,2.66,2.74,4.37.66,2.69,2.13,4.91,3.54,7.21,1.26,2.06,2.52,2.49,4.3.76,1.02-1.1.3-2.02-.32-2.93-1.39-2.02-2.8-4.02-4.2-6.03h0c.93.05,1.85.09,2.77.14,1.84,3.48,3.84,6.86,6.31,9.94.26.33.32.82.47,1.24.68,1.1,1.36,2.21,2.05,3.31.55.86.86,1.84-.1,2.48-3.84,2.53-3.43,6.88-4.59,10.55-.38,3.79.88,7.49.57,11.28-1.19,2.38-2.39,4.75-3.58,7.13h0c-2.02.69-4.05,1.38-6.07,2.07-.88-.9-.86-2.23-1.49-3.23-.53-.85-1.08-1.61-2.04-.28-.77,1.08-.45,2.05.24,2.78.97,1.03,1.03,3.28,3.31,2.7,2.54-.49,5.21-.71,6.72-3.31v-.06c.16-.12.24-.27.25-.47,2-1.54,2.98-3.74,3.89-5.99,2.55-4.31,1.97-9.11,2.14-13.8.98-1.69.93-3.59,1.07-5.44.07-.98.11-1.9,1.18-2.3,1.19-.45,1.63.59,2.26,1.22.99.99,1.95,2.02,2.98,2.96.44.41.99,1.05,1.68.4.48-.45.25-1.06.03-1.57-.67-1.55-1.29-3.15-2.42-4.43Zm-18.59-20.04c-.13-.04-.26-.07-.38-.07.13,0,.25.03.38.07Zm-.42-.08c-.28,0-.54.1-.78.37.24-.27.51-.37.78-.37Zm-.79.37s-.03.04-.04.06c.01-.02.03-.04.04-.06Zm.79,2.18c.27.16.58.24.89.26-.32-.02-.62-.1-.89-.26Zm.64-2.39c.57.27,1.14.8,1.6,1.14-.45-.34-1.02-.87-1.6-1.14Z"/>
  <path class="uuid-94672372-a3f2-4eb4-a3ae-51e7f3ad2d35" d="m156.17,125.48c-3.21,5.26-6.74,10.32-10.06,15.51-1.27,1.98-3.01,3.72-3.69,6.43,2.07-1.37,3.09-3.16,4.23-4.86,5.85-8.7,11.25-17.68,16.57-26.71,10.92-18.81,23.33-37.05,30.37-57.79h0c1.43-2.67,1.38-5.75,2.32-8.56.19-.55-.16-1.19-.8-1.24-.6-.04-.58.59-.66,1.03-.56,2.93-1.12,5.86-1.69,8.79-3.18,6.12-5.12,12.88-8.46,18.9-9.03,16.35-18.65,32.41-28.13,48.5Z"/>
  <path class="uuid-94672372-a3f2-4eb4-a3ae-51e7f3ad2d35" d="m175.43,67.76c-17.61,20.26-36.88,38.73-59.24,54.3,1.87.59,2.73-.39,3.56-1,16.81-11.79,32.09-25.55,45.93-40.71,3.98-4.32,8.35-8.33,11.63-13.28-.74-.07-1.29.36-1.88.69Z"/>
  <path class="uuid-94672372-a3f2-4eb4-a3ae-51e7f3ad2d35" d="m129.49,85.73c-3,1.16-4.37,4.02-6.43,6.16.2.22.41.44.61.66,2.38-1.94,4.17-4.54,6.79-6.21,15-12.55,30.15-25.2,47.69-34.12,3.96-2.01,7.64-4.73,12.14-5.61,0-.45-.02-.9-.03-1.35-3.25.46-5.81,2.5-8.71,3.78-19.46,8.84-35.98,22.86-52.07,36.69Z"/>
  <path class="uuid-94672372-a3f2-4eb4-a3ae-51e7f3ad2d35" d="m228.44,40.68c7.53-5.71,14.81-11.7,21.78-18.08h0c4.71-3.23,8.69-7.24,12.43-11.52-5.17,3.09-9.14,7.58-13.58,11.52-4.32,3.39-8.66,6.77-12.97,10.18-6.66,5.27-13.27,10.62-21.5,13.34-.5.17-1.28.09-1.09.91.19.8.93.39,1.42.37,2.4-.08,4.46-1.23,6.54-2.25,1.33-.65,2.4-.98,3.82.16,1.89,1.52,4.21,2.34,6.74,2.12.19.07.37.14.56.22.39.07.79.14,1.18.21,3.39.88,6.83,1.61,10.31,1.05,2.91-.46,5.79-1.02,8.74-1.11,5.61.56,10.96-.79,16.3-2.24,2.96.31,5.73-.21,8.37-1.33-.04-.25-.09-.49-.13-.74-2.73.21-5.47.41-8.2.62-6.29,1.48-12.76,1.32-19.12,2.23-4.12-.19-8.23-.38-12.35-.58-2.96-.48-6.03-.49-8.72-2.14-.75-.46-2.14-.03-2.35-1.13-.21-1.1,1.14-1.31,1.81-1.82Z"/>
  <path class="uuid-94672372-a3f2-4eb4-a3ae-51e7f3ad2d35" d="m225.04,60.36c.29-.3.58-.6.88-.91-.53-1.45-1.53-2.61-2.48-3.79.96,1.18,1.95,2.34,2.49,3.79.94.48,1.88.95,2.82,1.43,0,0,0,0,0,0,.58,1.11,1.16,2.23,1.74,3.34,1.03.62,2.24,1.06,3.07,1.89,3.72,3.75,8.5,5.59,13.21,7.57.97.39,1.95.79,2.92,1.18,3.61,2.64,7.96,3.18,12.12,4.26,4.4,2.39,9.25,3.32,14.06,4.37.2.26.41.28.65.05.72.1,1.44.21,2.17.31-.04-.43-.08-.86-.12-1.29-2.46-.45-4.87-1.06-7.3-1.64-3.07-.73-5.61-2.98-8.89-2.97-2.97-1-5.92-2.05-8.91-3-.22-.1-.44-.2-.65-.3-.49-.15-.99-.29-1.48-.44,0,0,0,0,0,0-.26-.4-.64-.52-1.1-.49,0,0-.09-.04-.09-.04-.31-.49-.71-.8-1.32-.69-.5-.12-1-.24-1.5-.36-.73-2.47-3.98-1.76-5.12-3.87-.48-.01-.83-.23-1.23-.53-3.71-2.82-7.44-5.6-11.17-8.38-2.6-2.64-4.97-5.42-6.75-8.73-.54-1.01-1.44-.31-1.86.59-.95.76-2.09.86-3.24.95h0c-1.27-1.14-2.68-2.05-4.3-2.6,0,0,0,.01,0,.02-.21-.17-.43-.34-.64-.51-1.48-1.06-2.79-2.51-4.88-2.23-.51.07-1.21-.19-1.39.54-.15.63.34,1.09.82,1.31,1.48.68,2.66,1.63,3.23,3.21-.05.37-.11.74-.16,1.11,1.2.95,2.81-.42,3.98.71,0,0,0,0,0,0,.42.51.84,1.02,1.26,1.53.86-.05,1.27.64,1.84,1.1,6.92,5.51,9.03,13.37,10.45,21.56.33,1.94.7,3.85,1.72,5.56,1.8,8.73,2.07,17.67,3.46,26.46-.68,4.26,1.53,8.3.99,12.56.88-4.21.5-8.4-.16-12.58-.21-4.99-1.52-9.9-1.06-14.95.37-4.09-1.32-7.75-2.63-11.48-.52-4.25-2.18-8.37-1.74-12.89,1.45.64,1.25,2.19,2.33,2.73.3-.24.6-.48.9-.72-.79-2.63-2.49-4.75-3.88-7.04-1.01-1.91-2.01-3.81-3.02-5.72Zm3.98.46c.18-.04.34-.11.46-.21-.12.11-.28.17-.46.21Zm-14.1-8s-.04.04-.05.07c.02-.03.03-.05.05-.07Zm.03-.04c.09-.1.21-.15.35-.14-.15-.01-.26.04-.35.14Zm3.02,1.38c-.5-.02-.9-.24-1.26-.53.36.29.76.51,1.26.53.38.39.76.77,1.14,1.16-.38-.39-.76-.77-1.14-1.16Zm5.42,4.3c-.57-.61-1.2-1.15-2.03-1.48-.74.02-1.37-.09-1.78-.52.41.42,1.05.54,1.78.52.83.33,1.46.87,2.03,1.48.28.31.55.63.82.95-.27-.32-.54-.65-.82-.95Z"/>
  <path class="uuid-94672372-a3f2-4eb4-a3ae-51e7f3ad2d35" d="m136,369.33c.52-.64.1-1.24-.12-1.81-1.28-3.34-2.59-6.66-3.89-9.99-.42-1.76-.69-3.61-2.72-5,.38,2.04.87,3.6,1.94,4.93,1.14,4.05,2.56,7.99,4.18,11.87.2,8.93,2.63,17.58,3.96,26.38.22,1.32.81,2.27,1.98,2.28,1.52.01.88-1.44.83-2.18-.61-9.16-2.97-17.93-6.17-26.49Z"/>
  <path class="uuid-94672372-a3f2-4eb4-a3ae-51e7f3ad2d35" d="m300.85,114.84c-4.29-1.28-8.97-1.09-13.15-3.06-2.95-1.17-5.9-2.32-8.47-4.26-.64-.28-1.28-.56-1.92-.85-1.52-1.9-4.04-2.63-5.36-4.82.41,1.88,1,3.56,2.48,4.75,3.25,2.81,6.86,4.98,11.04,6.1.56.11,1.26.71,1.43-.45,0,0,.14.19.15.2-.09.71.43.86.94,1.03.28.12.56.25.84.37,6.69,3.46,14.15,2.88,21.27,3.96,6.12.93,12.33,1.32,18.54,1.29.25.04.5.09.76.13.48.03.95.07,1.43.1.2-.29.4-.57.59-.86-1.56-.15-3.05-.6-4.64-.7-5.95-.36-11.85-1.29-17.72-2.33-2.74-.03-5.38.22-8.19-.62Z"/>
  <path class="uuid-94672372-a3f2-4eb4-a3ae-51e7f3ad2d35" d="m302.28,85.86c2.53.93,4.86,2.38,7.28,2.56,4.52.34,9.12.5,13.58-.94.94-.3,2.17-.01,2.18-1.56,0-1.52-1.08-1.79-2.23-1.97-2.04-.36-3.9-1.16-5.64-2.28-.66,0-1.32,0-1.98,0l1.91,3.62h0c-.01.25-.03.5-.04.75-.88-.03-1.76-.05-2.63-.08-.24-.03-.47-.06-.71-.1l-2.07-.03c-.2.21-.37.23-.53.1.16.13.33.11.53-.1-.23-.03-.45-.05-.68-.08-2.25-.12-4.56.35-6.72-.67-.64.23-1.45-.23-2.24.78Z"/>
  <path class="uuid-94672372-a3f2-4eb4-a3ae-51e7f3ad2d35" d="m312.97,257.44c1.04-3.41,1.47-6.96,1.66-10.48.13-2.42,1.96-4.54.83-7.52-2.88,2.97-4.06,6.34-4.15,9.98-.09,3.59.19,7.14-3.77,9.03-.5.24-.84.7-.75,1.37.08.6.48.71.96.8,2.08.41,4.59-1.11,5.23-3.18Z"/>
  <path class="uuid-94672372-a3f2-4eb4-a3ae-51e7f3ad2d35" d="m279.3,327.01s0-.01,0-.02c0,0-.01,0-.02,0,0,0,.02.02.02.02Z"/>
  <path class="uuid-94672372-a3f2-4eb4-a3ae-51e7f3ad2d35" d="m285.01,303.91c-.14-.77-.97-1.35-.6-2.26-.19-.21-.37-.43-.56-.64-.48-3.07-1.43-5.94-3.49-8.35-.97-3.63-3.1-6.73-4.61-10.11-.85-3.3-2.41-6.21-4.55-8.81-.04,3.94,2.94,6.54,4.09,9.93.97,3.44,3.06,6.36,4.47,9.59.28,1.57,1.73,2.64,1.81,4.32.06,1.35,1.23,2.99.09,3.95-1.12.94-2.25-.86-3.5-1.05-.02,1.74,1.52,2.18,2.53,3.06,1.18,1.97,2.04,4.27,1.27,6.32-.52,1.37-1.66,2.55-1.85,4.2-.2,1.72-.62,3.4-.95,5.11.05,2.61.11,5.22.16,7.83,1.25.14,1.35-.79,1.68-1.68.96-2.58.35-5.25.62-7.86-.07-.35.08-.57.42-.66l.32-.99c-.93-2.59.22-4.17,2.5-5.2.02-.73.04-1.46.06-2.19.03-.75.07-1.51.1-2.26,0-.75,0-1.5.01-2.25Z"/>
  <path class="uuid-94672372-a3f2-4eb4-a3ae-51e7f3ad2d35" d="m210.26,41.27c-1.02.41-2.06.79-3.07,1.24-.64.28-1.67.5-1.34,1.43.39,1.11,1.23.31,1.82.05.84-.36,1.62-.85,2.42-1.29,8.58-4.81,15.71-11.54,23.13-17.87,1.82-1.55,3.78-3.03,5.18-5.06-.28-.04-.57-.08-.85-.13-1.11-.04-1.6.91-2.23,1.53-7.7,7.53-16.44,13.75-25.08,20.1h0Z"/>
  <path class="uuid-94672372-a3f2-4eb4-a3ae-51e7f3ad2d35" d="m193.16,130.38c2.4-2.92,10.57-27.83,12.39-37.29-.32-.01-.64-.02-.96-.04-2.63,8.66-5.22,17.34-7.93,25.97-1.15,3.66-2.74,7.18-3.5,11.36Z"/>
  <path class="uuid-94672372-a3f2-4eb4-a3ae-51e7f3ad2d35" d="m287.58,173.32c-2.57-8.02-5.86-15.74-9.41-23.36-.38-2.3-.31-4.78-2.84-7.01-.09,2.98,1.52,4.89,1.8,7.09.21,9.22,6.66,15.65,10.45,23.28Z"/>
  <path class="uuid-94672372-a3f2-4eb4-a3ae-51e7f3ad2d35" d="m225.86,129.18c.35-.05.71-.11,1.06-.17,0-.7.02-1.39.03-2.09-.39-.31-.48-.73-.42-1.2.18-3.43-.74-6.8-.29-10.3.3-2.37-.41-4.91-1.69-7.12-.5-3-.09-6.09-.88-9.07-.09-.93-.09-1.9-1.25-2.23-.68-7.18-3.15-13.99-5.12-20.89,1.11-.68-.16-1.52.16-2.26-2.18-6.1-4.7-12.05-7.41-17.93-.49-.8-.99-1.6-1.48-2.4-.58-.71-.83-2.37-2.04-1.59-.94.61.19,1.61.65,2.39.33.55.67,1.15.82,1.77,1.73,7.12,6.23,13.08,8.38,20.02h0c1.97,7.42,3.41,14.94,4.6,22.52.43,4.5.87,8.99,1.3,13.49-.68,1.57-.15,3.08.25,4.59-1.24,3.54-.37,7.17-.47,10.76v8.5c1.17-2.69,2.06-5.45,1.44-8.49.07-.39.15-.78.22-1.17v-6.97l.78-.09c.25,2.35.5,4.7.75,7.06.29.94-.28,2.05.6,2.86Zm-2.2-16.95c0,1.3-.02,2.6-.01,3.91-.01-1.3,0-2.6.01-3.91.45-.41.54-.91.53-1.42,0-.17-.02-.33-.03-.5.01.17.03.34.03.5.01.52-.08,1.01-.53,1.42Z"/>
  <path class="uuid-94672372-a3f2-4eb4-a3ae-51e7f3ad2d35" d="m77.04,177.05c.11-.48.62-1.14-.17-1.41-.63-.22-1.05.31-1.26.85-1.02,6.13-1.97,12.31-2.76,18.48-.69,5.8-2.45,11.32-3.81,16.96.2.19.4.39.61.58,2.53-5.71,3.12-12.03,4.22-18.15.92-5.77,1.85-11.59,3.17-17.31Z"/>
  <path class="uuid-94672372-a3f2-4eb4-a3ae-51e7f3ad2d35" d="m325.26,207.81c-.57-1.39-1.42-1.49-2.56-.82-1.46.86-.57,1.72.08,2.46,2.81,3.17,4.89,6.84,7.16,10.38.5.79,1,1.58,1.53,2.35.3.42.78.61,1.22.33.25-.16.33-.59.43-.78-.56-1.99-1.33-3.67-2.19-5.35-1.57-3.08-4.34-5.35-5.67-8.57Z"/>
  <path class="uuid-94672372-a3f2-4eb4-a3ae-51e7f3ad2d35" d="m296.06,241.27c-.84.34-.35,1.31-.28,2.01.63,5.71,4.9,9.51,7.21,14.38.93-.66.92-1.26.85-2.1-.19-2.35-2.26-3.88-2.58-6.01-.41-2.75-1.98-4.81-3.25-7.07-.43-.76-1.07-1.57-1.96-1.21Z"/>
  <path class="uuid-94672372-a3f2-4eb4-a3ae-51e7f3ad2d35" d="m267.57,62.19c.03.57.05,1.14.08,1.71,1.05.22,2.09.17,3.12-.06,8.42-1.19,16.84-2.41,25.26-3.61,2.37.29,4.54-.07,6.56-2-2.48-.29-4.45.7-6.53,1.02-2.41-.47-4.81-.16-7.15.36-7.04,1.57-14.15,2.37-21.35,2.57Z"/>
  <path class="uuid-94672372-a3f2-4eb4-a3ae-51e7f3ad2d35" d="m310.72,190.01c.16.92.79,1.44,1.55,1.84,3.53,3.76,6.4,8.17,11.15,11.92-1.1-3.87-3.57-5.8-5.4-8.16-1.6-1.13-2.44-2.88-3.52-4.43-.73-1.27-1.53-2.48-2.67-3.43-4.52-6.02-9.03-12.04-13.55-18.06-.88,1.24-.16,2.32.46,3.28,3.76,5.84,7.76,11.51,11.97,17.03Z"/>
  <path class="uuid-94672372-a3f2-4eb4-a3ae-51e7f3ad2d35" d="m151.84,299.45c0-.74-.01-1.48-.02-2.22,0,0,0,0,0,0l.27-.05c-.7-1.29-1.39-2.58-2.09-3.87l-.41-.67c-.13-.81-.29-1.62.34-2.32.09-.77.86-1.35.59-2.22.23-.74-.07-1.61.57-2.24.96-4.32,3.38-8.23,3.75-12.73-3.03,4.61-3.96,10-5.88,15.01-2.35,3.07-1.86,6.93-2.84,10.38-.3,1.05-.98,2.09.03,3.12-.36,2.46-.72,4.92-1.09,7.37-.5,2.26-1.12,4.5-1.46,6.78-.18,1.5-2.12,8.13.27,8.29.7-.09.64-.9.5-1.34-.58-1.81.18-3.4.67-5.05.9-3.02,1.39-6.12,1.63-9.27-.17-1.32.09-2.58.53-3.82.23-.65.55-1.21,1.3-1.25.9-.04.94.69,1.07,1.33.35,1.63.7,3.25,1.06,4.88.33.01.67.02,1,.03,1.25-3.36.79-6.75.19-10.15Z"/>
  <path class="uuid-94672372-a3f2-4eb4-a3ae-51e7f3ad2d35" d="m272.01,53.35c-.41-.33-.84-.34-1.3-.12-.3-.02-.61-.04-.91-.06-.23,0-.46-.02-.7-.03-.53.04-1.06.09-1.59.13-.97.04-1.95.1-2.92.15-3.89-.04-7.72.97-11.63.69-2.98-.22-5.96-.39-8.94-.51-.61-.02-1.72-.45-1.65.72.05.83.96.95,1.77.94,1.96-.03,3.92.02,5.88.04.2,0,.41.01.61.02.54,0,1.08,0,1.62,0,.19.24.41.28.65.07,1.46.04,2.92.07,4.37.11.41-.05.83-.09,1.24-.14.92-.03,1.84-.05,2.76-.1,4.7.33,9.34-.56,14.03-.65,4.93.44,9.69-.57,14.46-1.66-4.86-1.06-9.65.11-14.47.17-1.09.07-2.19.15-3.28.22Z"/>
  <path class="uuid-94672372-a3f2-4eb4-a3ae-51e7f3ad2d35" d="m62.64,203.4c.85,0,.88-.81.87-1.48-.08-4.85,1.37-9.38,2.79-13.94,1.78-5.69,3.38-11.44,5.06-17.16h0c2.73-5.85,5-11.88,7.08-17.99,5.23-9.64,9.06-20.11,14.62-29.64.3-.53.22-1.26.32-1.9h0c2.75-2.31,3.94-5.54,5.24-8.71-1.87,2.82-4.49,5.18-5.33,8.62-1.29.76-1.81,2.08-2.43,3.34-2.83,5.77-5.76,11.5-8.47,17.33-1.67,3.61-3.8,7.02-4.84,10.92-2.96,5.76-5.16,11.8-6.83,18.05-1.22,1.8-2.04,3.78-2.46,5.9-.85,4.23-2.29,8.26-3.75,12.3-1.5,4.14-1.99,8.53-2.63,12.87-.09.61-.2,1.5.74,1.51Z"/>
  <path class="uuid-94672372-a3f2-4eb4-a3ae-51e7f3ad2d35" d="m340.99,195.91c-3.36-4.28-6.41-8.85-11.75-10.93-1.39-1.77-2.85-.51-4.72-.42,1.17,1.51,2.33,2.15,3.64,2.58,3.96,3.37,8.08,6.5,12.83,8.76Z"/>
  <path class="uuid-94672372-a3f2-4eb4-a3ae-51e7f3ad2d35" d="m297.27,109.87c4.18,0,8.08,1.08,11.77,3.01.52-.11,1.28.1,1.49-.48.27-.74-.52-.85-.99-1.05-1.96-.82-4.01-1.39-6.02-2.04-4.11-1.35-8.5-1.83-12.37-3.93-.47-.61-1.06-.92-1.85-.72-.36-.09-.73-.19-1.09-.29-2.67-2.28-5.89-3.7-8.88-5.44-2.2-1.28-4.17-3.14-6.84-3.55-.87-.68-1.79-1.31-2.61-2.05-4.01-3.66-9.43-5.39-13.07-9.58-.38-.43-1.13-.5-1.52-.02-.48.59.2.97.54,1.38,4.27,5.07,9.59,8.86,15.12,12.38,4.82,3.76,10.28,6.24,16.06,8.08,3.29,1.74,7.07,2.31,10.25,4.3Z"/>
  <path class="uuid-94672372-a3f2-4eb4-a3ae-51e7f3ad2d35" d="m143.04,334.92c.87.74,1.86,1.42,1.39,2.82h0c-2.52-.37-2.63,1.82-3.45,3.26-1.88,1.7-1.44,4.63-3.31,6.33.08.91.16,1.82.25,2.73.3.03.61.06.91.09.82-1.15,1.32-2.41,1.63-3.81.25-1.16.69-2.6,2.41-1.27.07,3.01.39,5.99,1.26,8.88-.88,4.07.01,13.01,1.77,14.81-.39-5.13-1.1-9.9-.94-14.71.16-4.7-.35-9.46,1.23-14.04-.38-1.09.32-1.9.69-2.8-.14-.94-.29-1.88-.43-2.83,0,0,0,0,0,0l.29-.57c.67-3.21,1.33-6.43,2-9.64-.47,0-.93.01-1.4.02-.95,3.05-1.91,6.1-2.86,9.14-1.16-.1-1.06.96-1.43,1.58Z"/>
  <path class="uuid-94672372-a3f2-4eb4-a3ae-51e7f3ad2d35" d="m102.27,287.03c1.05-1.88.11-3.18-1.33-4.25-1.77-1.32-3.49-2.69-5-4.31-.08-.36-.17-.73-.25-1.09.22-.22.01-.28-.13-.5-.51-1.97-1.01-3.93-1.52-5.9-1.24,2.85.33,5.1,1.16,7.5.23,3.89,5.07,4.81,5.5,8.57-.68.65-1.27,1.37-1.51,2.3-.89,3.44-.82,6.98-1.03,10.49-.07,1.21.71,1.63,1.86,1.18.79-3.54,1.58-7.08,2.37-10.62-.04-1.12-.09-2.24-.13-3.36Z"/>
  <path class="uuid-94672372-a3f2-4eb4-a3ae-51e7f3ad2d35" d="m82.41,250.08c3.67-4.06,5.33-9.35,7.69-14.21.71-.64.93-1.51,1.08-2.4.58-1.51,1.15-3.02,1.73-4.53.15-1.51-.58-3.11.47-4.53-3.1.28-3.51,2.98-4.48,5.12-.32.72.04,1.66-.49,2.38-.22,1.08-.44,2.16-.66,3.25v.02c-.37.27-.58.62-.47,1.09-1.91,4.44-3.83,8.88-5.74,13.32.3.17.59.34.89.51Z"/>
  <path class="uuid-94672372-a3f2-4eb4-a3ae-51e7f3ad2d35" d="m263.84,287.15c2.12,4.22,4,8.04,5.95,11.82.51,1,1.25,1.88,1.12,3.1.11.24.22.48.33.71.09.37.17.74.26,1.11.73.29,1.06.87,1.17,1.61.84,1.09.05,3.14,2.07,3.53,0,0,.25-.07.25-.07h.26c.15-.96-.07-1.83-.51-2.7-2.82-5.59-5.93-11.05-8.26-16.88-.41-1.03-.88-1.94-2.65-2.24Z"/>
  <path class="uuid-94672372-a3f2-4eb4-a3ae-51e7f3ad2d35" d="m209.52,261.83c-3.94.98-6.33,4.42-8.4,7.62-1.74.68-3.47,1.36-5.45,2.14,2.48,1.15,4.01-.13,5.51-1.51,3.07-1.97,5.92-4.31,9.7-4.93,4.47-1.15,2.15-4.13-1.37-3.32Z"/>
  <path class="uuid-94672372-a3f2-4eb4-a3ae-51e7f3ad2d35" d="m331.53,200.21c-.5-.55-1.13-.59-1.1-.59-1.17-.34-1.48.04-1.62.35-.13.28-.1.89.09,1.02,3.18,2.21,5.17,5.62,8.11,8.06.52.44,1.3,1.11,1.95.27.51-.65-.16-1.23-.58-1.69-2.27-2.49-4.58-4.94-6.84-7.43Z"/>
  <path class="uuid-94672372-a3f2-4eb4-a3ae-51e7f3ad2d35" d="m179.28,380.6s-.01-.01-.02-.02c0,.01,0,.03,0,.04l.02-.02Z"/>
  <path class="uuid-94672372-a3f2-4eb4-a3ae-51e7f3ad2d35" d="m293.84,248.09c-1.45.15-1.11,1.91-.99,3.07.83,4.31,2.96,8.26,4.96,12.11.63-.11.56-.72.79-1.11-1.72-3.81-2.13-8.08-4.12-11.79-.39-.73.66-2.41-.64-2.28Z"/>
  <path class="uuid-94672372-a3f2-4eb4-a3ae-51e7f3ad2d35" d="m232.55,358.07h0c-.01-.4-.03-.8-.04-1.21-.29-2.57-.43-5.19-1.87-7.46.16,2.53-1.29,5.28.96,7.47.03.41.06.81.09,1.22-.28,7.46.36,14.95-.9,22.42.94-1.91,2.13-3.65,2.07-5.72-.16-5.57,1.11-11.17-.31-16.72Z"/>
  <path class="uuid-94672372-a3f2-4eb4-a3ae-51e7f3ad2d35" d="m137.14,321.96c-1.03,4.51-2.14,9.01-3.02,13.55-.29,1.49-1.27,3.02-.37,4.64.32-.13.64-.26.96-.39.57-2.51,1.09-5.05,1.62-7.56.71-3.35,2.81-6.5,1.9-10.16-.36-.03-.72-.06-1.08-.08Z"/>
  <path class="uuid-94672372-a3f2-4eb4-a3ae-51e7f3ad2d35" d="m302.88,240.06c-.47-3.32-1.14-6.61-1.74-9.91-1.09-.14-1.23.59-1.23,1.39,0,3.59.29,7.19,1.41,10.59.52,1.57,1.02,3.57,3.1,4.25.5-1.3-.57-2.24-.43-3.35-.85-.81-.96-1.84-1.12-2.97Z"/>
  <path class="uuid-94672372-a3f2-4eb4-a3ae-51e7f3ad2d35" d="m221.85,283.78c-1.88-2.51-2.76-5.55-4.55-8.12-1.41-2.04-3.07-3.95-4.2-6.17-.44-.86-.57-2.08-1.77-1.49-1.46.72-.46,1.94.17,2.51,4.21,3.85,6.01,9.54,10.35,13.27Z"/>
  <path class="uuid-94672372-a3f2-4eb4-a3ae-51e7f3ad2d35" d="m186.2,91.27c-.24.27-.57.51-.72.83-4.37,9.51-9.69,18.5-15.02,27.47-5.84,8.84-11.68,17.67-17.51,26.51.17.18.33.36.5.54,1.19-.33,1.73-1.38,2.37-2.28,5.72-7.99,11.05-16.23,15.93-24.76,5.76-9.07,11.12-18.36,15.41-28.23,3.01-5.85,5.97-11.72,7.83-18.07.13-.13.16-.28.08-.44.13-.4.26-.81.39-1.21.85-2.23,1.78-4.43,2.22-6.79,2.03-4.77,2.67-9.79,2.98-14.85l-.81-.16c-1.01,5.02-2.02,10.04-3.03,15.06-.78,2.25-2.14,4.29-2.46,6.71-2.72,6.56-5.45,13.13-8.17,19.69Z"/>
  <path class="uuid-94672372-a3f2-4eb4-a3ae-51e7f3ad2d35" d="m215.02,168.25c3.15-2.43,6.96-16.04,6.9-22.8-.22,0-.43,0-.65,0-1.22,2.37-1.14,5.05-1.76,7.57-1.2,4.93-2.06,9.94-4.49,15.22Z"/>
  <path class="uuid-94672372-a3f2-4eb4-a3ae-51e7f3ad2d35" d="m234.99,278.48c.22.43.38,1.12,1.14,1,.33-.31.18-.62.14-.99-.36-3.14-2.83-5.48-3.2-8.61-1.87-1.26-1.85-4.22-4.35-4.92-.16.09-.33.13-.5.12.1.54.05,1.19.33,1.6,2.55,3.72,4.43,7.79,6.46,11.79Z"/>
  <path class="uuid-94672372-a3f2-4eb4-a3ae-51e7f3ad2d35" d="m228.19,265.08s0,0,.01,0h0s-.01,0-.01,0Z"/>
  <path class="uuid-94672372-a3f2-4eb4-a3ae-51e7f3ad2d35" d="m265.64,108.5c3.51,2.48,6.99,5.06,11.22,6.24,0,0,0,0,0,0,3.74,3.1,8.28,4.6,12.69,6.36,1.97,1.04,4.15,1.71,6.04,2.79,2.79,1.6,6.18,1.29,8.78,3.21.71.53,1.59,1.54,2.34.44.61-.9-1.08-.9-1.22-1.68-5.15-1.28-9.9-3.7-14.92-5.36-4.24-2.42-8.49-4.8-13.08-6.51-5.27-2.89-10.17-6.39-15.24-9.6-1.37-1.82-2.27-4.14-4.92-4.56-3.69-4.96-7.45-9.86-10.55-15.25,1.31,9.28,6.21,16.45,12.62,22.76,1,2.3,3.5,3.26,4.73,5.35,1.94.3,2.51,2.66,4.45,2.96h0c2.67,2.04,4.85,4.83,8.36,5.61,1.26,1.38,2.95,2.06,4.57,2.85.37.01.74.02,1.11.03.19.03.38.06.56.09.57.11,1.13.22,1.7.33.35.15.7.29,1.06.44.08.16.21.26.38.29,0,0-.05-.07-.05-.07.8.47,1.59.99,2.57,1.02,8.02,3.29,16.66,4.15,25.1,5.65,2.29.42,4.52.74,6.83.54h4.7c-1.52-1.57-3.17-.82-4.76-.78-3.27-.99-6.86-.3-10.01-1.94-7.21-.04-13.9-2.46-20.64-4.62l-4.04-1.66c-.39-.17-.77-.34-1.16-.5-2.51-.57-4.16-2.92-6.75-3.31-3.16-2.11-6.33-4.23-9.49-6.34-2.88-2.15-6.12-3.85-8.36-6.8-.66-1.2-2.23-1.73-2.39-3.29-.5-.49-.6-1.05-.6-1.62,0-.29.03-.58.05-.87-.02.29-.05.58-.05.87,0,.57.1,1.13.6,1.62,1.57-.51,2.57.96,3.94,1.14-.19,2.73,2.28,3.1,3.82,4.19Z"/>
  <path class="uuid-94672372-a3f2-4eb4-a3ae-51e7f3ad2d35" d="m234.79,268.94c2.38,3.53,4.59,7.16,6.63,11.11,1.1-3.13-1.36-5.17-1.61-7.73-.76-.81-1.09-1.76-.92-2.87-1.66-2.61-2.9-2.76-4.09-.51Z"/>
  <path class="uuid-94672372-a3f2-4eb4-a3ae-51e7f3ad2d35" d="m115.8,123.1c-5.94,3.73-11.8,7.41-18.15,11.4,4.12-.23,17.3-8.73,18.15-11.4Z"/>
  <path class="uuid-94672372-a3f2-4eb4-a3ae-51e7f3ad2d35" d="m128.42,304.35c1.51-4.39,2.37-9,4.57-13.15.28-.53.28-1.07-.07-1.76-1.49.62-1.8,1.91-2.11,3-1.09,3.93-3.23,7.53-3.75,11.63-.08.65-1.45,1.6,0,2.02,1.11.32,1.12-1,1.37-1.73Z"/>
  <path class="uuid-94672372-a3f2-4eb4-a3ae-51e7f3ad2d35" d="m184.48,274.26c-.89-.07-1.16.84-1.18,1.61-.04,2.51-.66,5.05-.49,7.46.16,2.25-1.36,4.65.71,7.41.24-3.49,1.68-6.07,1.36-9.02-.21-1.94.02-3.92.01-5.88,0-.56.61-1.49-.42-1.58Z"/>
  <path class="uuid-94672372-a3f2-4eb4-a3ae-51e7f3ad2d35" d="m95.03,236.29c1.41-.55,1.34,1.54,2.56,1.48.64-1.78-1.15-2.48-1.56-3.75,0-.47-.11-.87-.59-1.07l-.17.02c.06,0,.17-.02.17-.02.01-.35.02-.7.04-1.05-.42.28-.38.66-.25,1.07,0,0-.16-.06-.16-.06-2.72,3.95-4.23,8.25-3.88,13.11,2.07-2.94,3.22-6.23,3.84-9.73Z"/>
  <path class="uuid-94672372-a3f2-4eb4-a3ae-51e7f3ad2d35" d="m327.09,162.32h-.02c-1.86-2.2-3.77-4.37-6.96-4.44,2.04,2.2,3.74,4.67,6.24,6.32,2.83,4.37,8,5.69,11.65,9.05-3.51-3.8-6.6-7.98-10.91-10.92Z"/>
  <path class="uuid-94672372-a3f2-4eb4-a3ae-51e7f3ad2d35" d="m185.22,377.15c2.65,3.87,2.08,8.55,4.09,12.59.25-.03.49-.05.74-.08-.98-5.42-1.96-10.85-2.97-16.42-2.22.57-2.43,3.05-1.85,3.9Z"/>
  <path class="uuid-94672372-a3f2-4eb4-a3ae-51e7f3ad2d35" d="m317.39,217.41s0,0,0,0c1.33,3.13,2.92,6.11,5.06,8.76.87,2.6,2.89,4.16,5.32,6.2-.12-2.96-.33-5.3-1.58-7.43-1.16-3.29-2.55-6.45-4.8-9.16-.2-.01-.39-.02-.59-.04-.05.1-.13.14-.25.12.3,3.41,3.34,5.75,3.63,9.12h0c-.55-.05-1.1-.1-1.66-.16,0,0,0,0,0,0-.73-2.88-2.06-5.45-3.9-7.76-.19-.21-.37-.43-.56-.64l-.23.02s-.23-.03-.23-.03c0,0,0,0,0,0-.04-.34-.08-.68-.11-1.02-1.87-4.65-5.2-8.47-7.33-12.97-.34-.96-.54-2.01-1.05-2.87-3.06-5.13-6.07-10.28-8.09-15.95-.09-.26-.24-.53-.43-.71-1.89-2.13-2.09.92-1.14,2.17,3.82,5.85,5.89,12.63,9.79,18.44,2.21,4.15,4.43,8.3,6.63,12.45-.04.38-.07.76-.11,1.14.21-.05.42-.1.63-.16.33.16.66.32.99.48Z"/>
  <path class="uuid-94672372-a3f2-4eb4-a3ae-51e7f3ad2d35" d="m287.2,242.14c-3.3-5.55-5.86-11.58-10.45-16.28,3.07,5.7,6.16,11.38,10.45,16.28Z"/>
  <path class="uuid-94672372-a3f2-4eb4-a3ae-51e7f3ad2d35" d="m141.13,299.49c.02.15.01.3-.03.45,0,.39.02.77.03,1.16-.48,5.21-2.75,10.05-3.15,15.28.1.42.19.84.29,1.26,2.13-4.39,2.88-9.19,3.8-13.91.22-1.13,1.11-2.47.11-3.73,2.73-4.21,2.09-9.27,3.69-13.77-3.14,3.9-3.62,8.69-4.73,13.25Z"/>
  <path class="uuid-94672372-a3f2-4eb4-a3ae-51e7f3ad2d35" d="m207.82,378.42c-1.45-6.12-3.25-11.49-4.21-17.37-1.46,3.01,1.1,13.82,4.21,17.37Z"/>
  <path class="uuid-94672372-a3f2-4eb4-a3ae-51e7f3ad2d35" d="m249.46,344.88c.29,5.67.59,11.33.88,17,2.22-5.76,1.37-11.44.06-17.1-.31.03-.63.06-.94.09Z"/>
  <path class="uuid-94672372-a3f2-4eb4-a3ae-51e7f3ad2d35" d="m326.95,201.4c-2.92-5.36-7.72-9.23-11.21-14.12-.5,2.69,1.41,4.21,2.85,5.97,3.12,2.37,5.26,5.72,8.37,8.16Z"/>
  <path class="uuid-94672372-a3f2-4eb4-a3ae-51e7f3ad2d35" d="m302.27,170.31c-.95.15-1.11.64-.48,1.32,3.95,4.21,6.61,9.51,11.08,13.28.25-1.27-.48-2.15-1.25-2.94-1.68-1.74-3.15-3.61-4.56-5.58-1.5-2.09-2.68-4.46-4.79-6.08Z"/>
  <path class="uuid-94672372-a3f2-4eb4-a3ae-51e7f3ad2d35" d="m307.24,139.37c2.04.64,4.11,1.05,6.26.98-.08-.28-.17-.56-.25-.84-1.22-.26-2.45-.53-3.67-.79-5.06-1.1-9.98-2.64-14.77-4.64-.58-.24-1.38-.61-1.76.09-.41.73.38,1.36.89,1.47,4.51.97,8.55,3.64,13.3,3.73,0,0,0,0,0,0Z"/>
  <path class="uuid-94672372-a3f2-4eb4-a3ae-51e7f3ad2d35" d="m113.1,107.8c7.1-6.14,14.63-11.71,22.37-17.01.99-.22,1.68-.92,2.41-1.56,11.77-6.89,23.09-14.47,34.45-22.02.41-.06.82-.12,1.23-.18,1.6-1.52,3.57-2.31,5.66-2.84.43-.51.86-1.02,1.29-1.53,1.9-1.87,4.88-2.44,6.06-5.16-.38-.05-.77-.1-1.15-.16-2.06,1.54-4.12,3.08-6.19,4.62-2.75,1.51-5.62,2.84-7.94,5.04-6.51,3.57-12.72,7.63-18.93,11.7-5.05,3.31-10.66,5.75-15.22,9.82-1.08.58-2.16,1.16-3.24,1.74-2.68,1.84-5.47,3.55-8.02,5.56-4.75,3.73-9.74,7.2-13.76,11.8-4.44,3.06-8.6,6.37-10.34,11.8,3.26-4.38,7.78-7.52,11.31-11.64Z"/>
  <path class="uuid-94672372-a3f2-4eb4-a3ae-51e7f3ad2d35" d="m188.89,286.06c.47.63.25,2.32,1.63,1.72.9-.39.28-1.5.04-2.28-.86-2.81-1.04-5.7-.18-8.48.29-.93.41-1.39-.4-1.69-.87-.33-1.49.23-1.58,1.08-.17,1.57-.21,3.15-.3,4.54.4,1.83-.31,3.65.79,5.1Z"/>
  <path class="uuid-94672372-a3f2-4eb4-a3ae-51e7f3ad2d35" d="m159.75,288.86c-.21.52-.35,1.2.32,1.42.72.24.94-.45,1.05-.99,1.02-4.73,3.74-8.85,4.78-13.57h0c.82-1.1,1.44-2.26,1.41-3.96-1.98.9-2.1,2.41-2.08,3.99-2.58,4.05-3.74,8.71-5.49,13.11Z"/>
  <path class="uuid-94672372-a3f2-4eb4-a3ae-51e7f3ad2d35" d="m278.71,142.64s-.03,0-.05,0c0,.01.01.02.02.03l.03-.03Z"/>
  <path class="uuid-94672372-a3f2-4eb4-a3ae-51e7f3ad2d35" d="m298.21,289.78c-.04-.32-.08-.63-.11-.95-1.02-3.8-2.03-7.61-3.05-11.41,0-.38,0-.75,0-1.13-.37-.35-.73-.7-1.1-1.04-1.94,1-.33,2.57-.61,3.84,1.15.58,1.18,1.82,1.56,2.82.98,2.58,1,5.44,2.32,7.92.33-.02.66-.03.98-.05Z"/>
  <path class="uuid-94672372-a3f2-4eb4-a3ae-51e7f3ad2d35" d="m84.87,234.53s0,0-.01,0c0,0,0,0,0,0,0,0,.01-.01.01-.01Z"/>
  <path class="uuid-94672372-a3f2-4eb4-a3ae-51e7f3ad2d35" d="m84.86,234.53c.01-.18.03-.35.06-.53.18,0,.36,0,.55-.01.04-.33.07-.65.11-.98.18-.17.36-.33.53-.5-.01-.24-.02-.47-.03-.71,0,0,0,0,0,0,.19,0,.37.02.56.03,0,0,.03-.06.03-.06.13-1.13.83-2.18.51-3.38,1.3-2.07,2.6-4.15,3.9-6.22l1.01-4.49c.66-3.33,3.38-5.5,4.72-8.45.27-.03.54-.05.81-.08.27-.02.55-.04.82-.05,2.2,1.13,3.51,2.96,4.3,5.28,1.4,4.12,2.74,8.26,4.63,12.19.62,2.72,1.85,5.28,3.55,7.48.13.26.26.51.42.75,1.08,1.75,2.68,3.13,4.56,3.96,3.49,1.73,8.13,1.89,11.88,2.16.78.23,1.55.39,2.32.35.61-.03,1.21-.03,1.82-.03,2.37.18,4.73.32,7.11.41,2.71.2,5.41.35,8.11.05,1.72-.05,3.44-.14,5.16-.29,4.37-.39,8.7-1.15,12.9-2.4.17-.05.28-.16.35-.28.43-.17.84-.37,1.22-.59.68-.35,1.32-.74,1.93-1.16.86-.48,1.63-1.08,2.3-1.8.53-.45,1.03-.93,1.49-1.46.13-.14.17-.3.16-.45.31-.38.61-.78.89-1.18.17-.23.32-.46.47-.7,2.32-3.6,3.68-7.9,4.4-12.19,1.47-4.8,1.99-10.01,4.92-14.08,1.62-2.19,8.24-2.02,11.03-.38.6,1.04,1.14,2.13,1.82,3.12.1.14.2.28.31.42.75,1.47,1.55,2.93,2.38,4.36,2.33,5.21,5.11,10.27,9.03,14.28,2.53,3.24,5.66,5.89,9.65,6.8.16.04.32.06.48.1.77.27,1.57.5,2.4.65.08.01.2-.02.32-.07,1.04.23,2.09.36,3.15.39,2.77.33,5.56.37,8.34.14.66-.01,1.33-.02,1.99-.05.02,0,.06-.01.1-.03,2.24-.04,4.47-.17,6.7-.37,1.05-.02,2.09-.07,3.13-.16.39.12.76.05,1.12-.11,1.96-.23,3.9-.58,5.83-1.08.05-.01.08-.04.12-.06,6.28-1.43,12.09-4.04,17.16-8.43,1.2-1.04,1.93-2.37,2.58-3.89,2.75-6.46,2.87-13.47,4.27-20.2,1.2-5.78,2.67-7.88,8.35-9.48,2.34-.66,5.11.02,6.99-2.15,1.16-3.58.83-3.97-2.66-3.53-1.36.17-2.77.02-4.15.02-2.82.49-5.53-.43-8.29-.68-1.33-2.35-3.05-1.19-4.72-.54-2.21-.12-4.42-.24-6.63-.36-.63-.79-1.44-.53-2.23-.41-.74,0-1.49-.01-2.23-.02-.18.16-.4.3-.65.43-.25.13-.54.24-.84.34-.31.1-.63.17-.97.24-.34.06-.68.11-1.02.13-.34.03-.68.03-1.01.02.33.01.67,0,1.01-.02.34-.03.69-.07,1.02-.13.34-.06.66-.14.97-.24.31-.1.59-.21.84-.34.25-.13.48-.27.65-.43-.56-.09-1.13-.18-1.69-.26-1.71.26-3.41.52-5.12.77l.07-.13c-.22-.72-.43-1.44-.65-2.16-.66-1.59-.67-3.83-3.37-3.35-2.6-.59-5.14.33-7.67.57-5.88.58-11.71,1.74-17.56,2.66-7.28.17-14.26,3.97-21.75,1.82-.67-.19-1.52.28-1.76,1.07-.34,1.07.58,1.48,1.28,1.9,2.21,1.33,4.46,2.62,7.21,4.24-1.47.44-2.92.93-4.36,1.48-.92.29-1.84.61-2.74.98-.17.07-.22.12-.2.16-.35.11-.7.23-1.04.36-.36.12-.73.24-1.09.37-.07,0-.13.02-.16.02-.17.06-.34.14-.52.2-.07.02-.13.05-.2.07-.08.03-.13.05-.16.07-.36.14-.71.29-1.06.44-1.08.41-2.19.69-3.33.78-.02.02-.04.04-.06.06-.69,0-1.38.06-2.07.13-.84.15-1.67.27-2.51.36-.43.05-.86.07-1.28.11-.96.11-1.91.17-2.87.15-.87.09-1.75.15-2.61.04,0,0-.01,0-.02,0-.28-.04-.56-.09-.84-.17-.19.02-.37.05-.56.07-1.71-.09-1.9-1.17-1.64-2.54.61-3.2,1.24-6.39,1.82-9.6.2-1.09,1.51-2.76.07-3.13-1.23-.32-.92,1.8-1.31,2.83-1.46,3.88-.39,8.49-3.41,11.91h0c-4.48-.78-8.95-1.55-13.43-2.33-1.75-2.73,1.01-2.79,2.21-3.77,2.54-.39,5.08-1.59,7.68.19-.26-1.46-1.1-2.04-2.41-2.03-1.76.01-3.51.05-5.27.07-1.51.05-3.05-.17-4.55-.07-.08-.03-.17-.04-.27-.03-4.04.44-8.01,1.32-11.87,2.59-2.16-.54-4.16-.16-5.41,1.06-5.03-.05-10.05.47-14.96,1.53,0,0-.02,0-.02,0-.04,0-.08.02-.12.02-.12.02-.24.04-.36.07-1.9.33-3.77.79-5.6,1.35-1.09.1-2.14.34-3.01,1.06-1.14.44-2.26.92-3.35,1.46-.14.06-.27.12-.41.18-1.64.63-3.26,1.35-4.84,2.18-.5.22-1,.46-1.5.69-1.6.51-3.22.9-4.9,1-4.13.25-8.17,1.52-12.38,1-1.57-.19-3.58-.51-3.43,2.22-1.31,2.44-2.61,4.89-3.92,7.33-2.45,3.63-4.77,7.34-6.73,11.27h0c-.07.13-.1.28-.1.43-1.91,1.84-3.27,4.23-6.02,5.18-2.88,1-5.66,2.29-8.49,3.45-1.19-.05-2.4-.2-4,.37,1.56,1.01,2.79.82,4.01.65,5.19-1.79,10.85-2.61,14.74-7.12h0c1.75-1,3.77-1.67,4.95-3.83-1.3.12-2.34.21-3.38.3,1.9-3.32,3.81-6.64,5.71-9.96,1.43-2.19,2.86-4.38,3.8-6.84.05,0,.09,0,.14-.01.81.66,1.61,1.32,2.42,1.99.54.55,1.09,1.07,1.76,1.45.35.29.7.58,1.05.86-2.6,4.32-6.63,7.26-10.49,10.53,1.06.57,1.67,0,2.33-.25,1.14-1.06,2.28-2.12,3.42-3.18,1.48-1.38,1.55-.15,1.7.93-.75,1.16-.56,2.94-2.29,3.44.23,2.74-2.25,4.28-2.93,6.61-1.67.96-2.64,2.59-3.78,4.06-4.68,5.47-9.42,10.88-14.13,16.32h0c-2.35,2.38-5.15,4.37-6.51,7.58.18.17.35.34.53.51,2.18-2.51,4.36-5.01,6.54-7.52,4.11-4.35,8.22-8.7,12.33-13.05.56-.93,1.13-1.86,1.69-2.79.82-.05,1.11.41,1.12,1.15-.87.86-.87,2.38-2.17,2.92-.01.76-.3,1.36-.74,2.01-2.06,3.04-4.03,6.14-6.03,9.21-1.37,1.1-2.38,2.46-3.19,4.47,2.27-.79,2.83-2.5,3.62-4.02,3.59-3.9,5.91-8.69,9.09-12.89.01-.46-.04-.95.53-1.16Zm126.18-8.36c.46.44.93.86,1.42,1.27-.5-.39-.97-.81-1.42-1.27Zm.49-36.55s0,0,0,0c0,0,.01,0,.02,0,0,0,0,0-.01,0Zm-.28-.37s0,0,0,0c-.01.03-.03.05-.04.08,0,0-.01,0-.02,0,.02-.03.03-.05.05-.08Zm1.49.07s-.01,0-.02,0c-.05,0-.11.01-.16.02.06,0,.12-.02.18-.03Zm4.47-1.51s0,0-.01,0c0,0,.02,0,.03,0,0,0,0,0-.01,0Zm-9.13,3.21s-.09,0-.13,0c.32-.11.65-.22.97-.33-.28.12-.56.22-.84.33Zm6.56-2.12c-.07.02-.14.04-.21.06.07-.02.14-.04.21-.06Zm24.78,4.54h0c-.04.64-.37,1.21-.65,1.79.75.55,1.14,1.65,2.32,1.53,2.48.8,2.71,1.48,1.14,3.35-1.49,1.77-3.28,1.57-5,.56-1.39-.81-2.75-1.88-1.09-3.7.75-.78,1.57-1.43,2.63-1.74.27-.58.61-1.15.65-1.79Zm-5.62,2.16c.16-.04.31-.07.46-.08-.15.01-.31.04-.46.08Zm-1.75.62h0c.12-.04.23-.08.35-.12-.12.04-.23.09-.35.12Zm-2.58.57c-.07,2.16.63,4.29,1.97,5.98.03.05.05.09.08.14-1.36.17-2.72.33-4.08.5-.32,0-.64-.01-.97-.02-.75,0-1.5.01-2.25.02-.19.02-.38.03-.57.05-.93.24-1.85.49-2.78.73h0c-.48.02-.94.08-1.4.17-1.25.16-2.5.32-3.76.48-.07-.18-.1-.42-.05-.77.32-2.19,5.01-6.51,7.27-6.73,2.17-.21,4.35-.37,6.53-.54Zm-2.8,8.37c.1,0,.2.01.3.02-.21,0-.42.01-.62.02.11-.01.22-.02.33-.03Zm29.57-8.92c0,.37,0,.73.01,1.1-1.51.67-2.99,1.41-4.54,1.98-.94.34-2.39,1.1-2.7-.48-.43-3.76,4.9-2.4,7.23-2.59Zm14.48,3.83s.1-.04.14-.06c0,.04,0,.08,0,.12-.05-.02-.09-.04-.14-.06Zm-8.45-11.83c7.47,1.28,8.87,4.39,8.6,11.51-.45-.11-.88-.25-1.32-.39,0-.03-.01-.05-.06-.07-.79-.3-1.58-.6-2.37-.91-.47-.22-.94-.46-1.39-.72-.49-.36-.98-.72-1.47-1.08-.99-.93-1.97-1.87-2.96-2.8-.04-.04-.14-.05-.24-.04-1.03-.86-2.26-1.15-3.72-.76-3.47-1.01-6.92-.94-10.35-.47-2.05.12-4.11.24-6.16.36-.4-.36-.94-.07-1.44-.01-.74.03-1.49.06-2.23.08-.03,0-.05.02-.08.03-2.69-.03-5.38-.16-8.07-.38-.19-.15-.4-.15-.61-.03-.14.03-.28.12-.34.22-.72-.04-1.44-.08-2.17-.12-1.77-.25-2.01,1.06-2.32,2.3-5.8,1.5-7.3,8.13-12.34,10.7-.4.16-.9.31-.86.8.05.63.58.39.97.36.93-.01,1.85-.02,2.78-.04.19,0,.38-.02.57-.02.15,0,.3,0,.45-.01.07.03.16.05.28.02.07-.01.14-.02.22-.04.06,0,.11,0,.17,0,.2-.05.41-.09.61-.13.6-.11,1.19-.22,1.79-.32.11-.02.22-.04.33-.06,1-.17,2-.32,3-.46,2.52-.07,5.05-.15,7.57-.22.1,0,.2.02.3.03,1.92.37,3.87.56,5.81.54,1.39.16,2.79.24,4.2.13,4.87-.12,9.12-2.1,13.09-4.7,2.98-1.95,5.56-2.94,9.1-.65,1.98,1.28,5.01.94,7.56,1.33.19.05.38.1.57.15.92.67,1.24,1.59,1.15,2.7-.45,5.69-.67,11.43-3.2,16.71-1.12,2.35-3.27,3.53-5.57,4.26-4.4,1.39-8.85,2.62-13.3,3.82-4.9,1.32-9.97.72-14.96,1.13,0-.09-.07-.16-.29-.14-3.9.33-8.44.57-12.66-.09-2.93-.85-5.7-2.31-8.1-4.23-3.59-3.18-6.49-7.07-8.52-11.42-.09-.25-.18-.51-.26-.76.03-.04.05-.08.03-.12-2.26-5.71-2.67-11.98-1.2-17.94.35-.19.7-.38,1.09-.55,7.81-3.37,15.61-6.24,24.31-6.39,5.21-.09,10.41-1.91,15.61-1.86,6.08.12,12.48-1.4,18.4.76Zm-11.19-4.8c-1.82-.01-3.63.71-5.45.51-.44,1.12-1.19,1.09-1.97.97-.14-.02-.28-.05-.43-.07.14.02.28.05.43.07.78.13,1.53.16,1.97-.97,1.83.2,3.63-.52,5.45-.51Zm-16.74.25c-1.52.59-3.3.73-4.99.81-.36.64-1.33.26-1.85.64.52-.37,1.49,0,1.85-.64,1.69-.08,3.47-.21,4.99-.81Zm-121.33,50.71h0c.11-.09.22-.16.34-.22-.12.06-.24.13-.34.22Zm1.61-.42c-.3,0-.59.01-.86.07.27-.06.56-.07.86-.07h0Zm2.35,2.25c-.07-.09-.15-.19-.22-.28.14.1.28.19.42.28-.07,0-.13,0-.2,0Zm62.08-39.41c-.33.04-.66.06-1,.07.33,0,.67-.02,1-.07Zm-5.42,2.87c2.68,3.98,4.06,8.19,2.5,13.02-1.74,5.41-3.18,10.92-5.11,16.26-.43,1.19-1.02,2.21-1.73,3.12-3.04,2.72-6.76,4.6-10.79,5.41-2.07.28-4.08.96-6.16,1.15-.1.03-.2.05-.31.07-3.21.25-6.46.25-9.66.13-4.39-.16-8.78-.5-13.15-.97-4.05-.43-8.97-.51-12.25-3.26-3.24-2.71-4.64-6.87-6.67-10.47,0,0,0-.02,0-.02,0-.06,0-.11-.02-.17-1.38-4.47-2.82-9.14-2.17-13.87.31-2.26,1.18-4.46,2.57-6.2.09,0,.19-.03.28-.1.63-.42,1.27-.82,1.92-1.2,1.21-.58,2.39-1.24,3.57-1.9,1.39-.66,2.82-1.24,4.27-1.74,2.9-.52,5.8-1.01,8.71-1.46,8.29-.42,16.46-2.44,24.8-1.83,2.92.22,5.82.61,8.73.92,3.54,1.07,7.28,1.47,10.65,3.12Zm-11.79-6.15c.1.97,1.14,1.58,1.19,2.57-.05-.99-1.09-1.6-1.19-2.57-.68.05-1.31-.08-1.9-.3.59.22,1.22.35,1.9.3Zm-62.6,13.41c-.69.05-1.36.14-1.97.56h0c.61-.42,1.29-.51,1.97-.56Z"/>
  <path class="uuid-94672372-a3f2-4eb4-a3ae-51e7f3ad2d35" d="m226.2,352.16c-2.65,4.03-1.5,8.68-2.39,12.99.31.06.62.12.93.17,2.15-4.22.72-8.79,1.47-13.16Z"/>
  <path class="uuid-94672372-a3f2-4eb4-a3ae-51e7f3ad2d35" d="m140.7,150.62c-.26-.23-.51-.47-.77-.7-3.55,4.03-6.9,8.24-9.95,12.68.2.17.41.34.61.5,3.37-4.16,6.74-8.32,10.11-12.48Z"/>
  <path class="uuid-94672372-a3f2-4eb4-a3ae-51e7f3ad2d35" d="m190.21,96.56c-.39.83-1,1.61-.8,2.63,1.11-.47,1.71-1.61,2.01-2.5.8-2.39,2.11-3.91,4.65-4.23,0-2.09-2.09-3.22-2.32-5.34-.22,3.62-2.13,6.43-3.54,9.43Z"/>
  <path class="uuid-94672372-a3f2-4eb4-a3ae-51e7f3ad2d35" d="m233.74,11.83s0,.02,0,.04c0,0,.02,0,.02-.01l-.02-.02Z"/>
  <path class="uuid-94672372-a3f2-4eb4-a3ae-51e7f3ad2d35" d="m190.03,371.51c-.47-1.65-.7-3.38-2.09-4.75-.4,1.16-.07,2.02.24,2.92.62,1.76,1.49,3.52,1.64,5.34.14,1.73.78,2.56,2.3,2.95.59.14,1.18.28,1.77.42.76-.09,1.53-.19,2.88-.36-4.76-1.28-5.45-1.95-6.75-6.53Z"/>
  <path class="uuid-94672372-a3f2-4eb4-a3ae-51e7f3ad2d35" d="m213.23,372.74c-.26-5.2-1.16-10.3-2.37-15.76-.81,2.56.49,11.41,2.37,15.76Z"/>
  <path class="uuid-94672372-a3f2-4eb4-a3ae-51e7f3ad2d35" d="m126.44,342.85c-1.69.22-1.65-2.86-3.87-1.96,1.47,1.81,2.31,3.84,3.03,5.97,1.44,4.29,1.52,4.27,3.85,4.46-1.65-2.67-3.55-5.17-3.01-8.47Z"/>
  <path class="uuid-94672372-a3f2-4eb4-a3ae-51e7f3ad2d35" d="m83.72,112.16c1.87-3.76,3.73-7.52,5.6-11.27-.14-.16-.28-.33-.43-.49l.43.49c6.39-10.65,12.97-21.16,21.51-30.27,2.19-2.18,4.39-4.36,6.58-6.53,1.73-1.56,3.46-3.11,5.18-4.67,7.89-6.21,16.46-11.25,25.74-15.06,1.38-.3,2.8-.52,3.89-1.56.17-.02.33-.07.48-.16.51.19.96.16,1.28-.35.76-.19,1.51-.37,2.27-.56.19.24.33.18.43-.08,9.58-1.61,19.06-4.51,28.97-1.77-1.54-2-3.67-2.1-5.75-2.35-.44-.37-.87-.38-1.26.08-1.08-.03-2.15-.07-3.23-.1-.4-.36-.83-.39-1.27-.07-.73.04-1.45.1-2.18.16.4-.03.79-.06,1.19-.09-.45-.33-.87-.34-1.25.1-.34.03-.68.05-1.01.07-.42-.42-.82-.39-1.19.06-5.14.68-10.21,1.67-15.14,3.35-.24-.24-.38-.1-.51.12-.38.08-.76.17-1.14.25-.45-.18-.78.01-1.05.36,0,0-.06.02-.06.02-.09.14-.16.26-.21.38.04-.12.12-.24.21-.38-1.34-.14-2.35.65-3.44,1.23-9.74,3.03-18.08,8.5-25.89,14.92h0c-1.77,1.82-4.08,3.04-5.57,5.17-2.41,2.09-4.78,4.22-6.71,6.79-8.72,8.96-15.93,19.01-21.52,30.21h0c-2.08,3.57-4.62,6.93-5.62,11.04-.13.34-.25.69-.38,1.03-2.15,5.28-5.28,10.22-6.37,15.87.24-.05.47-.09.71-.14,1.77-5.46,5.1-10.26,6.72-15.78Z"/>
  <path class="uuid-94672372-a3f2-4eb4-a3ae-51e7f3ad2d35" d="m243.7,355.79c.16-.48.08-.9-.33-1.23-.04-2.42.23-4.87-.67-7.21,2.68-7.58-1.94-14.17-2.91-21.28-2.34.19-2.47,1.44-1.78,3.42,1.28,3.65,3.4,7.02,3.74,11,.49.12.74.33.84.62-.1-.29-.35-.5-.84-.62-.13,2.1-2.3.57-2.98,1.68-.57.12-1.12.28-1.07,1.02.3,3.79-.73,7.66.72,11.37-.41,1.94-.18,3.83.42,5.69,1.1-1.78.29-3.73.52-5.59.04-2.42.08-4.85.12-7.27.27-.21.08-.39,0-.64,0-.73,0-1.47,0-2.2.58-.33.17-1.57,1.39-1.43.64,1.35-.17,2.92.56,4.25,0,0,.16,0,.16,0-.03.55-.06,1.09-.09,1.64-.02.75-.02,1.5-.03,2.26-.42.37-.46.76-.09,1.19,0,.36-.02.71-.03,1.07-.38.46-.27.84.17,1.18.05.18.1.36.15.54-.03,2.45.06,4.92-.63,7.32-.23.38-.45.75-.68,1.13,1.02,1.63.67,3.44.7,5.2.01.6-.33,1.51.62,1.59.78.07,1.03-.74,1.05-1.4.09-2.96.26-5.91,1.08-8.78,0-.56,0-1.11,0-1.67-.04-.11-.09-.18-.12-.24.04.06.08.14.12.24,0-.19,0-.38,0-.57-.03-.75-.06-1.5-.1-2.26Zm-1.55,3.23c.02-.43.05-.86.06-1.29,0,.43-.04.86-.06,1.29Z"/>
  <path class="uuid-94672372-a3f2-4eb4-a3ae-51e7f3ad2d35" d="m296.94,155.66c2.79,4.11,6.97,6.82,10.36,10.31h0c1.36,2.63,3.57,4.28,6.19,5.47,2.58,2.64,5.61,4.58,9.03,5.94,2.32.93,4.56,1.86,6.46,3.68,1.34,1.28,3.17,2.21,5.19,2.41-2.7-2.37-5.32-4.99-8.48-6.39-3.06-1.36-6.13-2.59-8.88-4.54-.15-.21-.31-.42-.46-.64-.91-.87-1.82-1.74-2.73-2.62,0,0,0,0,0,0-.25-.38-.49-.77-.74-1.16-1.78-1.04-3.55-2.08-5.33-3.12-2.05-4.11-6.14-6.31-8.99-9.68-.87-3.3-4.64-5.07-5.79-8.22-.57.01-1.14.03-1.71.04-.12,1.26,1.42,1.9,1.16,3.21,2.14,1.25,2.7,3.92,4.72,5.28Z"/>
  <path class="uuid-94672372-a3f2-4eb4-a3ae-51e7f3ad2d35" d="m111.92,274.26c-.8-.13-1.08.72-1.03,1.37.27,3.85-1.39,7.49-1.23,11.32.38.02.75.04,1.13.06.59-3.65,1.17-7.3,1.78-10.95.13-.76.37-1.64-.64-1.8Z"/>
  <path class="uuid-94672372-a3f2-4eb4-a3ae-51e7f3ad2d35" d="m259.6,63.12c-1.66.2-2.76-.96-4.01-1.71-2.33-1.4-4.79-2.38-8.21-3.21,3.87,5.29,8.79,7.53,13.89,9.49l.15.12.19-.02c.28.1.56.2.84.3,2.65,2.02,5.66,3.3,8.79,4.36,0,0,0,0,0,0,1.55.66,3.1,1.32,4.65,1.99,1.94,1.1,4.08,1.65,6.21,2.24.35.06.7.13,1.05.19.38.06.77.11,1.15.17,4.52,1.72,9.22,2.75,13.99,3.45,2.08.64,4.16,1.27,6.24,1.91.96-.39,2.89.84,2.66-1.58-2.95-.42-5.9-.85-8.85-1.27h0c-4.57-1.56-9.37-2.15-14.01-3.4-2.89-.56-5.38-2.42-8.39-2.57-1.11-1.13-2.56-1.51-4.03-1.88-2.02-.98-4.04-1.96-6.06-2.94h0c-.25-.45-.66-.6-1.14-.61l-2.82-1.66c0-.17-.04-.32-.13-.46.1-1.11.89-1.17,1.75-1.2,1.45-.05,2.84-.38,4.18-.93-.03-.57-.05-1.14-.08-1.71-2.71-.14-5.36.25-7.97.93Z"/>
  <path class="uuid-94672372-a3f2-4eb4-a3ae-51e7f3ad2d35" d="m173.78,131.94c2.55-4.48,6.12-8.44,7.17-13.75-2.47,4.54-5.64,8.68-7.17,13.75Z"/>
  <path class="uuid-94672372-a3f2-4eb4-a3ae-51e7f3ad2d35" d="m227,376.76c0-1.39.03-2.79-.01-4.18-.02-.62-.37-1.04-1.04-1.05-.65-.01-1.06.32-1.13.96-.31,2.79.64,5.48.68,8.25,0,.41.43.85.98.75.62-.11.56-.67.57-1.11.03-1.21,0-2.42,0-3.62-.02,0-.04,0-.06,0Z"/>
  <path class="uuid-94672372-a3f2-4eb4-a3ae-51e7f3ad2d35" d="m176.64,354c-1.69,5.07.58,9.57,2.12,14.17-.32,1.97,1.28,3.76.56,5.77-2.88-.03-3.04-4.03-6.32-4.09-1.92-.04-3.82-1.97-6.15-1.58-.38-.57-.76-1.14-1.15-1.71,1.59-7.16,1.89-14.33.11-21.51-.29-.03-.58-.05-.88-.08.02.6.04,1.21.06,1.81,0,.19,0,.38-.01.57.01.56.02,1.12.03,1.68-.01.19-.02.39-.03.58-.48,3.26.43,6.47.3,9.74-.21,5-.08,5.01-4.45,3.15-.19.63-.39.96-.6,1.06.22-.1.42-.43.6-1.06-.16-.86-.33-1.72-.49-2.58,1.44-2.42.02-5.1.72-7.59.63-4.85.69-9.78,1.9-14.56-.16-.05-.31-.1-.47-.15.16.05.31.1.47.15.02-.43.04-.87.06-1.3-.25.36-.51.71-.76,1.07h0c-.51.06-1.02.12-1.53.18-.07.62-.14,1.25-.2,1.87,0,1.59-.02,3.17-.03,4.76-.07.25-.15.51-.22.76-.03.94-.07,1.87-.1,2.81-.25.1-.15.31-.14.52-.45,1.28-.38,2.58-.21,3.89-.75,1.86.37,3.95-.73,5.76,0,.39,0,.78.01,1.17-.05.92-.1,1.84-.15,2.76.04.19.07.38.11.57-.63.76-.73,1.51.04,2.24-.66.96-.81,1.9-.35,3.07.82,2.11,1.43,4.3,2.14,6.46.4,1.97,1.55,3.58,2.59,6,.31-2.49-.17-4.01-1.21-5.39-.85-3.39-1.8-6.76-2.7-10.14,2.28-1.22,3.72-.13,4.85,1.79.07.53.15,1.06.23,1.58,1.61,6.31,4.48,12.01,7.61,17.58.23-.11.46-.22.69-.33-2.2-5.37-4.4-10.74-6.61-16.11,1.17-.31,2.18.07,3.13.73,3.79,2.63,8.61,4.3,9.27,9.9.03.22.32.41.5.61.12-1.85-1.32-3.7.02-5.54h0c1.04.42,1.97,1.42,3.57.59-2.29-2.46-2.08-5.84-3.53-8.61-1.41-4.23-1.87-8.66-2.68-13.03Z"/>
  <path class="uuid-94672372-a3f2-4eb4-a3ae-51e7f3ad2d35" d="m222.43,272.42c-1.47-1.8-2.91-3.62-4.41-5.39-.41-.49-.98-1-1.66-.36-.68.64-.2,1.18.26,1.67,2.34,2.51,4.69,5.02,7.04,7.53.31-1.41-.93-2.26-1.22-3.46Z"/>
  <path class="uuid-94672372-a3f2-4eb4-a3ae-51e7f3ad2d35" d="m116.62,282.32c.23-.6.53-1.44-.25-1.7-.93-.32-1.43.66-1.42,1.3.07,3.48-1.88,6.65-1.47,10.16.19.15.37.3.56.46,1.6-3.22,1.3-6.91,2.58-10.21Z"/>
  <path class="uuid-94672372-a3f2-4eb4-a3ae-51e7f3ad2d35" d="m173.36,133.04c-2.55,4.36-6.39,7.9-8.02,12.84,2.34-4.49,6.98-7.53,8.02-12.84Z"/>
  <path class="uuid-94672372-a3f2-4eb4-a3ae-51e7f3ad2d35" d="m294.68,147.98c1.13,1.43,2.11,2.96,3.87,3.71,3.86,5.39,9.63,8.64,14.41,13.04,4.66,1.6,8.58,4.76,13.26,6.3,2.62,1.79,5.26,3.54,8.8,2.78-2.7-1.12-5.41-2.24-8.11-3.36-7.9-4.55-15.75-9.12-22.42-15.42-1.39-1.27-2.86-2.37-4.42-3.4h0c-2.25-2.1-3.49-5.31-6.73-6.32-1.03-.32-2.34-1.26-2.82.74.18.38.36.76.54,1.13.57-.01,1.14-.03,1.71-.04,1.23-1.1,1.52.35,1.92.85Z"/>
  <path class="uuid-94672372-a3f2-4eb4-a3ae-51e7f3ad2d35" d="m278.99,205.54c3.17,1.84,6.66,2.7,10.2,3.44-3.1-2.02-6.19-4.1-10.2-3.44Z"/>
  <path class="uuid-94672372-a3f2-4eb4-a3ae-51e7f3ad2d35" d="m303.98,283.13c-1.07-.42-1.02-1.32-1.16-2.28-.61-4.18-.37-8.58-2.86-12.33-1.67,0-1.03,1.18-.95,1.98.11,1.19.36,2.37.54,3.55,1.1.59,1.13,1.5,1.07,2.44.05-.94.03-1.86-1.07-2.44-1.52.36-2.06-.99-2.95-1.71-.13-.04-.25-.08-.38-.12.13.04.25.08.38.12-.16-.19-.32-.39-.48-.58,0,0,.01,0,.02,0-.17-.75-.34-1.5-.51-2.25-.48-1.9-.98-3.8-1.45-5.71-.16-.68-.45-1.45-1.16-1.36-.98.12-.53.97-.44,1.58.39,2.82,1.4,5.4,2.92,7.79.18.2.35.4.53.6-.06,1.71.45,2.97,2.27,3.55.83.26,1.51.98,2.26,1.48-.15,2.38.55,4.59,1.3,6.79-.02,1.51-.03,3.01-.05,4.52,0,0-.15-.06-.15-.06-1.11,2.6.08,5.64-1.53,8.15-.97,5.79-2.48,11.56-2.78,17.39-.47,9.05-.16,18.15-.05,27.23.01.97.15,2.61,2,2.38,1.06-.8.79-1.76.33-2.74-.02-.35-.05-.7-.07-1.04.61-1.14.5-2.33.23-3.52.13-2.44-.97-4.68-1.01-7.16-.11-6.91.44-13.78,1.39-20.58.61-4.35.54-8.85,2.13-13.08.92-2.45,1.81-4.95,2.16-7.58h0c.38-1.03.69-2.09,1.16-3.07,1.01-2.08-.17-2.12-1.67-1.93Z"/>
  <path class="uuid-94672372-a3f2-4eb4-a3ae-51e7f3ad2d35" d="m293.12,197.57c-.28,0-.55.02-.83.03-.47-.26-.91-.27-1.31.13-.34.02-.68.05-1.02.07h0c-.4-.41-.8-.4-1.2-.01-.34,0-.69,0-1.03-.01-.21-.25-.43-.31-.68-.07-.52-.03-1.04-.05-1.55-.08-.41-.37-.83-.38-1.26-.04-.73.09-1.46.19-2.19.28-.13-.11-.29-.16-.46-.13-.27-.29-.5-.22-.7.09-1.29.3-2.36.94-3.23,2.05,1.32.55,2.6.32,3.87.2,1.94-.02,3.88-.31,5.76-.58,1.97-.28,4.12.03,5.95-1.08-.03-.25-.07-.5-.1-.75.03.25.07.5.1.75.7,0,1.34-.09,1.54-1.04-.58.07-1.12.13-1.66.19h0Z"/>
  <path class="uuid-94672372-a3f2-4eb4-a3ae-51e7f3ad2d35" d="m115.2,306.08c-1.08,2.98.1,6.31-1.43,9.26-.28.54.23,1.33,1.01,1.38.95.06.89-.74.94-1.38.12-1.93-.21-3.93.83-5.73-.55-1.14.62-2.93-1.34-3.53Z"/>
  <path class="uuid-94672372-a3f2-4eb4-a3ae-51e7f3ad2d35" d="m259.07,302.28c.05.79.09,1.5,1.08,1.63.34-3.58.4-7.17-.07-10.74.53-2.24-.82-4.34-.51-6.58.08-.59-.45-1.08-1.02-1.09-.81,0-.62.74-.67,1.25-.05.46-.05.93-.07,1.39,0,.19-.01.38-.02.57.04.37.08.75.12,1.12.81.61.53,1.47.51,2.27.13.39.27.78.4,1.17-.13-.07-.26-.1-.41-.07.22,3.03.45,6.07.64,9.1Z"/>
  <path class="uuid-94672372-a3f2-4eb4-a3ae-51e7f3ad2d35" d="m153.83,285.62c2.87-3.2,4.48-7.22,6.9-10.75-3.58,2.76-5.03,6.87-6.9,10.75Z"/>
  <path class="uuid-94672372-a3f2-4eb4-a3ae-51e7f3ad2d35" d="m157.51,319.92c-.87-.05-1.25.81-1.22,1.6.12,2.63-.87,5.18-.5,7.82.14,2.36-.33,4.61-1,6.86-.68,2.28-2.39,4.17-2.46,6.67-.29.15-.12.35-.08.6-.05.34-.11.68-.16,1.01-.31.57-.63,1.15-.94,1.72.02,1.43.11,2.8,2.17,2.11,0-.55,0-1.1.01-1.65.72.07,1.5.16,1.68-.8.18-.92-.36-1.5-1.13-1.89,1.26-4.04,2.53-8.08,3.77-12.12.35-1.16.69-2.34.01-3.51.1-2.24.24-4.48.3-6.72.02-.59.97-1.61-.44-1.69Z"/>
  <path class="uuid-94672372-a3f2-4eb4-a3ae-51e7f3ad2d35" d="m92.82,269.05c-.1-3.84-1.3-7.49-1.87-11.25-.93-2.6-.98-5.54-2.95-7.74-.39-.44-.79-.89-1.39-.41-.65.52-.28.94.22,1.32,2.3,1.69,2.06,4.59,3.22,6.83,1.07,3.82.06,8.21,2.95,11.54.18-.11-.21-.19-.19-.28Z"/>
  <path class="uuid-94672372-a3f2-4eb4-a3ae-51e7f3ad2d35" d="m253.99,299.41c.8,2.15-.82,4.68,1.03,6.68.13-.81.08-2.25.42-2.34,2.35-.67,1.19-2.46,1.47-3.82.68-3.23-1.48-.68-2.92-.51Z"/>
  <path class="uuid-94672372-a3f2-4eb4-a3ae-51e7f3ad2d35" d="m213.51,283.58s0,.03.01.05l.02-.02s-.02-.02-.03-.03Z"/>
  <path class="uuid-94672372-a3f2-4eb4-a3ae-51e7f3ad2d35" d="m213.51,283.58c-.62-3.36-2.49-6-4.8-8.39.34,3.52,1.96,6.3,4.8,8.39Z"/>
  <path class="uuid-94672372-a3f2-4eb4-a3ae-51e7f3ad2d35" d="m81.36,275.15c-.35.26-.48.63-.17.93.37.36.93.34,1.3.05,2.26-1.74,4.8-3.17,6.43-5.6-.2-.23-.39-.45-.59-.68-2.32,1.77-4.64,3.54-6.97,5.3Z"/>
  <path class="uuid-94672372-a3f2-4eb4-a3ae-51e7f3ad2d35" d="m199.38,285.63c.76-.12.65-.78.65-1.11-.46-1.95-.8-3.7-1.31-5.39-.2-.66-.71-1.59-1.56-1.25-.82.32-.47,1.32-.37,2.01.23,1.66,1.96,2.77,1.67,4.66-.08.54.14,1.2.92,1.08Z"/>
  <path class="uuid-94672372-a3f2-4eb4-a3ae-51e7f3ad2d35" d="m290.51,285.23c-.99,2.39,1.32,3.74,1.78,5.67,1.01.91,1.08,2.15,1.15,3.38-.39,1.63-2.52,2.55-2.2,5.19,1.55-1.94,2.67-3.35,2.96-5.24.66-3.68-1.86-6.14-3.42-8.96-.03-.05-.17-.04-.26-.06Z"/>
  <path class="uuid-94672372-a3f2-4eb4-a3ae-51e7f3ad2d35" d="m170.13,360.34c.6.12.67.6.74,1.08,1.09-.76.37-1.85.52-2.78-.14-.33-.34-.41-.03-.64.17-2.41-.47-4.82.02-7.23-.1-.33-.3-.42.03-.61-.11-.42-.13-1.06-.76-.84-.6.2-.46.91-.6,1.42-.09.21-.18.41-.27.62,0,.72,0,1.43,0,2.15.33.22.33.44,0,.67,0,.33,0,.67.01,1,.49.42.48.84,0,1.26.01.51.02,1.03.03,1.54.37.34.43.75.23,1.2.03.39.05.79.08,1.18Z"/>
  <path class="uuid-94672372-a3f2-4eb4-a3ae-51e7f3ad2d35" d="m169.74,274.68c-1.28,2.87-2.12,5.88-2.84,8.94-1.15,2.01-1.49,4.14-1.15,6.39.8-1.69,1.77-3.3,1.76-5.2.76-1.9,1.51-3.79,2.27-5.69-.47-1.38,2.66-4.53-.04-4.44Z"/>
  <path class="uuid-94672372-a3f2-4eb4-a3ae-51e7f3ad2d35" d="m288.37,296.62c.05-1.48-.92-2.61-1.29-3.95-.02-1.55-.04-3.1-.05-4.65-1.98-4.27-2.09-8.88-2.52-13.44-.34-2.18-2.07-3.92-1.94-6.27.02-.42-.4-.88-.87-.81-.26.04-.61.5-.65.8-.12.81-.1,1.6.14,2.44.61,2.2,1.02,4.45,1.52,6.68.73,3.35,1.88,6.63,1.71,10.13.17.32.35.58.54.78-.19-.19-.37-.45-.54-.78-.84,2.11.5,3.78,1.11,5.6.15.03.29.07.44.1.49,2.43.87,4.89,1.88,7.17.23.52.36,1.48,1.26,1.12,1.09-.43.24-1.15-.06-1.53-.85-1.05-.78-2.21-.65-3.41Z"/>
  <path class="uuid-94672372-a3f2-4eb4-a3ae-51e7f3ad2d35" d="m320.73,114.32c-3.32-2.07-6.26-2.58-9.08-1.67,4.01,1.93,6.98,2.53,9.08,1.67Z"/>
  <path class="uuid-94672372-a3f2-4eb4-a3ae-51e7f3ad2d35" d="m165.65,258.34c.41-3.21,2.3-5.89,3.1-8.93-2.78,2.36-3.98,5.28-3.1,8.93Z"/>
  <path class="uuid-94672372-a3f2-4eb4-a3ae-51e7f3ad2d35" d="m275.31,325.23c-.13-.65-.51-.92-1.09-1.03.38-1.82-1.15-2.97-1.56-4.51,0,0,0,0,0,0,.35-.56-.08-1.05-.15-1.57-.13-1-.22-2.4-1.5-2.14-1.81.38-.74,2.65-.19,3.73.23.19.45.37.68.56.29,2.45-.56,4.78-.75,7.18-.04.56-.07,1.29-.67,1.4-.72.14-1.15-.57-1.35-1.15-.65-1.9-1.19-3.83-1.78-5.76-.74-.89-.45-2.34-1.63-2.99.04.18.07.35.09.52-.02-.17-.06-.35-.09-.52-.45-1.24-.89-2.48-1.34-3.73.1-.85-.25-1.4-1.1-1.6,0,0-.04-.04-.04-.04-.14-.74-.44-1.47-1.13-1.79-2.47-1.15-2.38-3.15-1.84-5.32-.97-.16-1.66.49-2.46.84.01.31.02.62.03.93.14.25.27.51.41.76-.28,3.12,2.71,3.78,4.17,5.59h0c-.55,2.14,2.19,3.05,1.9,5.1.27.34.53.69.8,1.03.22-.09.37-.2.48-.33-.11.13-.26.24-.48.33.29,1.18.57,2.36.86,3.53.32.73.63,1.45.95,2.18,1.12,1.25.82,2.85,1.07,4.32.31.3.61.59.92.89.77,2.25.55,4.58.55,6.89,0,1.55.38,2.74,2.29,2.97.18-3.96-.33-7.92,1.09-11.68,1.56-2.85,6.09.8,6.82-2.8-2.04,1.03-3.48.66-3.97-1.79Zm-3.04,4.1c-.75-.03-1.23.68-1.96.86.73-.18,1.21-.9,1.96-.86.38-1.08,1.16-2,1.62-3.05-.46,1.05-1.23,1.98-1.62,3.05Z"/>
  <path class="uuid-94672372-a3f2-4eb4-a3ae-51e7f3ad2d35" d="m279.3,327.01s-.02-.02-.02-.02c0,.01,0,.02,0,.03,0,0,.02,0,.03-.01Z"/>
  <path class="uuid-94672372-a3f2-4eb4-a3ae-51e7f3ad2d35" d="m289.49,160.67c.9,2.75.34,6.06,3.13,8.15-2.02-2.65-.33-5.84-1.38-8.6.38-1.73-.82-3.05-1.17-4.6-.08-1.12-.15-2.25-.23-3.37-.69-2.08-1.39-4.16-2.08-6.23.02-1.59-1.01-2.7-1.8-3.91-.86-3.11-1.65-6.15-4.09-8.61-1.5-1.51.12-1.67,1.33-1.62,3.31.62,6.29,2.63,9.91,2.18-3.68-1.87-7.35-3.74-11.03-5.61-.76-.52-1.52-1.04-2.28-1.56-5.68-2.56-11.22-5.36-15.59-9.96-.79-.83-1.59-.79-2.5-.81,1.35,2.54,3.66,4.17,5.7,6.05,2.67,1.22,4.88,3.06,6.82,5.25,1.91.03,2.57,1.39,3.37,2.86,2.35,4.33,4.85,8.57,7.3,12.84,1.73,3.62,1.59,7.82,3.48,11.4.18.19.33.41.5.61-.17-.2-.33-.42-.5-.61-.06,2.13-.64,4.36,1.1,6.17Z"/>
  <path class="uuid-94672372-a3f2-4eb4-a3ae-51e7f3ad2d35" d="m321.09,149.58c-1.42-2.16-2.08-4.77-4.17-6.45-.48.27-.58.74-.68,1.22.74,2.56,2.34,4.31,4.85,5.23Z"/>
  <path class="uuid-94672372-a3f2-4eb4-a3ae-51e7f3ad2d35" d="m211.37,384.71c.27-3.39,1.33-6.73.65-10.17-.96,3.34-1.78,6.68-.65,10.17Z"/>
  <path class="uuid-94672372-a3f2-4eb4-a3ae-51e7f3ad2d35" d="m288.36,262.98c-.18-.79-.21-1.97-1.34-1.65-.84.23-.4,1.22-.27,1.94.38,2.09.7,4.2,1.04,6.3l1.03-.04c.25-2.21.03-4.39-.46-6.54Z"/>
  <path class="uuid-94672372-a3f2-4eb4-a3ae-51e7f3ad2d35" d="m305.54,146.7c2.54,2.9,4.62,6.23,7.89,8.44,1.14,1.23,2.28,2.46,3.89,4.2-.22-2.44-1.28-3.44-2.55-4.31-1.78-2.05-3.56-4.1-5.34-6.15-.14-.19-.27-.39-.41-.58-.19-.38-.38-.76-.57-1.14-.03-.65-.37-1.05-.99-1.22,0,0-.02-.04-.02-.04-.37-1.38-2.39-4.75-4.07-3.57-.88.65-.47,1.54.1,2.18.67.74,1.03,1.79,2.07,2.18Z"/>
  <path class="uuid-94672372-a3f2-4eb4-a3ae-51e7f3ad2d35" d="m219.83,370c.5-.64.46-1.24-.11-1.81-.86-2.91-1.23-5.9-1.38-8.91.33-1.55.1-2.96-.98-4.42-.67,1.69.16,3,.2,4.36.07,1.11.13,2.21.2,3.32.08.21.15.43.23.64.03,2.66.45,5.27,1.21,7.81.1,2.28-.21,4.31-1.82,6.21-1.34,1.58-1.44,3.61.39,6.08.21-2.92.09-5.2,1.56-7.05,1.29-1.62,1.35-3.39.53-5.24,0-.33-.01-.67-.02-1Z"/>
  <path class="uuid-94672372-a3f2-4eb4-a3ae-51e7f3ad2d35" d="m243.87,14.65c4.73-3.21,8.13-7.58,10.71-12.65-3.55,4.22-7.48,8.09-11.2,12.14-2.53,1.2-4.04,3.49-5.81,5.5.28.04.57.08.85.12,2.03-1.48,4.11-2.9,5.46-5.12Z"/>
  <path class="uuid-94672372-a3f2-4eb4-a3ae-51e7f3ad2d35" d="m284.89,308.42c-.02.73-.04,1.46-.06,2.19,1.78,1.99-1.04,3.39-.66,5.2,3.5-.6,2.34-3.56,2.85-5.67-.93-.29-1.54-1-2.13-1.72Z"/>
  <path class="uuid-94672372-a3f2-4eb4-a3ae-51e7f3ad2d35" d="m147.84,153.96c-3.24,3.11-5.75,6.76-7.91,10.67-1.38,1.26-2.55,2.67-3.93,4.84,2.46-1.14,3.85-2.31,4.51-4.26,3.3-3.05,5.34-7.06,7.97-10.61,2.05-2.41,3.86-4.97,4.97-7.98-.17-.18-.33-.36-.5-.54-1.7,2.63-3.4,5.25-5.1,7.88Z"/>
  <path class="uuid-94672372-a3f2-4eb4-a3ae-51e7f3ad2d35" d="m74.17,147.12c.08-.31.15-.62.23-.93,5.96-12.58,12.05-25.18,19.01-37.28,3.41-4.78,6.98-9.46,9.61-14.75l-.14-.14c-1.1.11-1.47,1.02-1.96,1.79-2.56,4.04-5.1,8.09-7.66,12.14-1.03.84-1.72,1.93-2.35,3.1-3.29,6.09-6.78,12.07-9.86,18.26-2.65,5.33-5.67,10.54-7.06,16.44,0,0,0,0,0,0-.14.05-.25.13-.34.25-1.23,3.28-2.46,6.55-3.68,9.83.23.08.45.16.68.24,1.61-2.8,2.75-5.8,3.53-8.95Z"/>
  <path class="uuid-94672372-a3f2-4eb4-a3ae-51e7f3ad2d35" d="m80.6,208.15c2.12-2.37,3.84-4.97,4.85-7.99.07-.14.11-.3.12-.46,2.29-3.14,3.91-6.67,5.64-10.13,1.13-1.64,2.73-3.08,2.33-5.42-.86,1.48-2.29,2.62-2.53,4.45-2.33,3.37-4.58,6.8-5.76,10.79,0,0,0,0,0,0-.2.25-.4.5-.6.75-1.4,2.64-3.5,4.93-4.05,8.01Z"/>
  <path class="uuid-94672372-a3f2-4eb4-a3ae-51e7f3ad2d35" d="m251.37,294.35c-1.17-2.94-1-6.11-1.51-9.16-.47.01-.93.02-1.4.03.6,3.3.81,6.68,2.11,9.82.27-.23.53-.46.8-.69Z"/>
  <path class="uuid-94672372-a3f2-4eb4-a3ae-51e7f3ad2d35" d="m128.2,341.21c.26-1.93.65-3.84.98-5.76.46-1.31.77-2.69,1.41-3.91,1.87-3.56,2.44-7.54,3.76-11.27h0c.77-.47,1.48-.98.5-1.88-.63-.58-1.1-1.23-1.28-2.08,1.28-4.85,2.55-9.69,3.83-14.54.58-1.38,1.18-2.77.97-5.08-1.34,1.9-1.86,3.33-1.72,5.01,0,0-.02.02-.02.02-.13.18-.27.36-.4.55-.84,2.73-1.71,5.44-2.49,8.18-.7,2.47-1.88,4.85-1.56,7.53.3.02.51-.04.66-.16-.15.12-.35.18-.66.16-.37,1.43-1.54,2.32-2.32,3.47-3,2.12-4.97,7.3-3.85,10.28,1.1-1.71.63-3.91,1.86-5.51.86-1.22,1.72-2.44,2.57-3.67.53.01,1.06.02,1.58.04,0,0,0,0,0,0-.61,1.55-.73,3.33-2.11,4.51-.63,2.8-1.26,5.6-1.89,8.4-.76,2.39-1.46,4.79-1.54,7.32,1.18.13,1.58-.51,1.73-1.62Zm4.62-21.02c.11-.09.24-.14.42-.16-.18.02-.31.07-.42.16Z"/>
  <path class="uuid-94672372-a3f2-4eb4-a3ae-51e7f3ad2d35" d="m126.47,342.83s-.01,0-.02,0h0s0,.01,0,.02c0,0,.02,0,.03,0,0,0,0-.01,0-.02Z"/>
  <path class="uuid-94672372-a3f2-4eb4-a3ae-51e7f3ad2d35" d="m267.61,330.75c-.25-1.46.05-3.07-1.07-4.32-.55,1.05-2.73.3-2.47,2.25-.57.03-1.14.06-1.71.09-.43-1.21-.62-2.63-2.31-2.78-.2.12-.4.24-.6.36.07,1.02.06,2.15.55,2.67-.49-.52-.48-1.65-.55-2.67,0,0,0,0,0,0,.2-.12.4-.24.6-.36-.21-.69-.55-1.14-1.2-.99.31-.14.48-.39.39-.82-.46-2.16-.86-4.33-1.44-6.45-.47-1.71-1.28-2.48-3.53-3.44,3.17,3.35,1.96,7.37,3.8,10.49-1.84.08-2.51-1.32-3.19-2.63-1.14-2.18-2.96-3.59-4.89-4.9.12,1.37,1.23,1.89,1.82,2.81,1.36,2.11,3.55,4,2.16,6.98.47.01.93.03,1.39.04.84,0,1.68,0,2.52,0,.49,2.71,2.39,4.79,3.27,7.33.1.75.2,1.49.31,2.24-.04,1.13-.09,2.25-.13,3.38-.05,2.39-.11,4.78-.16,7.17-.13.08-.26.14-.41.17.06.18.12.36.18.55-.18.75-.36,1.51-.55,2.26-.85,1.37-.96,2.96-1.32,4.47-.14.56.07,1.2.77,1.25.5.04.9-.4.83-.91-.23-1.76,1.4-3.07,1.12-4.83,2.16-5.04,2.39-10.49,3.42-15.78.76-1.03.52-2.23.57-3.38.61-.08,1.22-.16,1.83-.24Zm-8.94-5.7c-.07.03-.14.05-.22.09,0,0,.04-.04.04-.04.06-.01.12-.03.17-.05Z"/>
  <path class="uuid-94672372-a3f2-4eb4-a3ae-51e7f3ad2d35" d="m67.13,166.94l.78.13c.55-2.9,1.1-5.8,1.65-8.7-.25-.02-.5-.03-.75-.05.2,2.99-2.5,5.54-1.68,8.62Z"/>
  <path class="uuid-94672372-a3f2-4eb4-a3ae-51e7f3ad2d35" d="m107.24,265.37c-.61,0-.81.65-.88,1.23-.18,1.52.72,3.1-.21,4.59.03.58.06,1.15.09,1.73-.21.95-.43,1.89-.64,2.84-.08,2.25.54,4.55-.49,6.73-2.35,1.98-.6,4.18-.33,6.3-.15.89-.31,1.77-1.18,2.28-1.5,2.95-.18,6.26-1.17,9.28-.14.43-.17.91-.26,1.36.23.61-.27,1.64.68,1.79,1.78.06,1.57-2.82,1.84-4.06.4-2.65.79-5.3,1.19-7.95.08-.72.16-1.45.25-2.17-.25-.19-.37-.69-.64-.83.27.14.4.64.64.83-.33-1.89,1.16-3.91-.44-5.7,2.39-3.47.84-7.53,1.64-11.24.23-1.91.87-3.78.62-5.74-.07-.53.03-1.28-.7-1.28Z"/>
  <path class="uuid-94672372-a3f2-4eb4-a3ae-51e7f3ad2d35" d="m149.59,346.19c-.59-2.5.91-4.88.39-7.38.5-1.88.81-3.78.66-5.74-.18-2.52.44-4.88,1.06-7.32.91-3.6,1.97-7.33.6-11.11.25-1.74-.59-3.34-.66-5.04-.33-.01-.67-.02-1-.03-.6,1.65-1.2,3.3-1.79,4.95.29.31.58.61.87.92.73-.43,1.27-.22,1.67.48,0,0,0,0,0,0,.07.47.13.94.2,1.41h0c-.25.26-.27.53-.03.81,0,.67-.02,1.33-.02,2,0,0,0,0,0,0-.15.58-.3,1.16-.45,1.74-.53,2.07-.78,4.22-1.8,6.14,0,0,0,0,0,0-.51.58-.45,1.21-.17,1.87,0,.72.02,1.44.02,2.16.04.11.09.2.13.29-.04-.09-.09-.18-.13-.29,0,.23.02.45.03.68-.09.36-.18.72-.27,1.08.08.17.13.34.16.52.17.11.25.21.25.32,0-.11-.08-.21-.25-.32,0,.21,0,.42,0,.63-.06.94-.12,1.87-.19,2.81,0,0,.18-.07.18-.07-.14.37-.28.75-.41,1.12.14.45.12.86-.28,1.18-.11,1.52-.22,3.04-.33,4.56.1.74.2,1.48.3,2.22.51,0,1.01-.05,1.28-.59Z"/>
  <path class="uuid-94672372-a3f2-4eb4-a3ae-51e7f3ad2d35" d="m160.71,108.24c-1.53,1.49-3.06,2.98-4.58,4.46-.45.27-1.27.79-.82,1.1.8.56,1.13-.48,1.55-1.02,1.9-.86,2.96-2.65,4.39-4.01,2.4-1.47,4.59-3.15,5.81-5.79-2.43,1.41-4.45,3.27-6.36,5.26Z"/>
  <path class="uuid-94672372-a3f2-4eb4-a3ae-51e7f3ad2d35" d="m153.41,355.17c-.52,0-1.04-.32-1.56-.5.68-2.72-1.94-4.15-2.5-6.39-.35.25-.69.49-1.04.74.91,1.94,1.37,4.09,2.74,5.81.06,1.39,1.23,2.09,1.9,3.11.88-.14,2.28.77,2.48-.68.14-1.01-.55-2.11-2.03-2.09Z"/>
  <path class="uuid-94672372-a3f2-4eb4-a3ae-51e7f3ad2d35" d="m203.95,276.93c-.17-.54-.46-1.06-1.16-.87-.42.11-.5.58-.38.91.74,2.16-.04,4.63,1.56,7.08-.25-2.66.7-4.87-.01-7.12Z"/>
  <path class="uuid-94672372-a3f2-4eb4-a3ae-51e7f3ad2d35" d="m173.6,276.77c-.76.06-1.04.57-1.16,1.24.03,1.02.07,2.04.08,3.06.01.79.24,1.73,1,1.79,1.2.09.65-1.04.73-1.66.11-.82.09-1.66.12-2.5,2.08-1.96,2.56-1.89,3.71.71.97,2.19,1.87,4.4,3.04,7.17-.04-4.31-1.2-7.53-3.61-10.27-.24-.78-.41-1.61-.76-2.34-.35-.73-.28-2.1-1.65-1.72-1.22.34-.88,1.41-.73,2.31-.23.4-.47.8-.7,1.2-.02.34-.05.69-.07,1.03.27.17.41.39.5.63-.09-.24-.24-.46-.5-.63Zm.67,1.41c-.04-.24-.07-.48-.14-.7.07.22.11.46.14.7Z"/>
  <path class="uuid-94672372-a3f2-4eb4-a3ae-51e7f3ad2d35" d="m93.42,194.52c2.11-2.56,2.89-4.83,2.82-7.41-.84,2.24-2.81,4.04-2.82,7.41Z"/>
  <path class="uuid-94672372-a3f2-4eb4-a3ae-51e7f3ad2d35" d="m206.91,37.9c3.5-2.14,6.38-5.05,9.43-7.74,1.64-1.45,3.65-2.61,4.56-4.78l1.06-1.13c.49-.24,1.08-.38,1.44-.75,3.22-3.19,6.39-6.43,9.58-9.65.55-.55.75-1.23.75-1.99-3.31,1.55-4.85,4.93-7.34,7.32-1.58,1.51-4.1,2.38-4.44,5.05h0c-.86-.09-1.52.15-1.73,1.09-4.79,4.12-9.58,8.24-14.38,12.36-2.03.94-4.06,1.89-6.09,2.83,3.05.66,5.2-.75,7.15-2.62Z"/>
  <path class="uuid-94672372-a3f2-4eb4-a3ae-51e7f3ad2d35" d="m220.92,246.33c-1.43-4.6-6.35-7.35-10.12-5.26,3.85,1.15,7.71,1.94,9.49,5.88,1.06,2.55,1.15,5.34,1.75,8.01.49-3.02.2-5.9-1.12-8.63Z"/>
  <path class="uuid-94672372-a3f2-4eb4-a3ae-51e7f3ad2d35" d="m202.38,374.71c-.89-.12-1.23.6-1.15,1.46-.06.94-.12,1.87-.17,2.81.08.52.15,1.05.23,1.57-.03.74-.15,1.48-.07,2.21.12,1.24-.52,2.58.47,3.68.07.08.6-.05.67-.2.6-1.31.62-2.64-.02-3.95-.04-2.02-.02-4.02.54-6,.14-.48.41-1.47-.48-1.59Z"/>
  <path class="uuid-94672372-a3f2-4eb4-a3ae-51e7f3ad2d35" d="m143.29,134.9c-1.88,1.21-3.62,2.59-4.99,4.4-5.1,4.07-10.2,8.14-15.29,12.22-7.28,5.83-14.44,11.83-23.47,14.88-1.93.25-3.84.55-5.79,2,3.03.51,5.26-.72,7.59-1.41,10.17-3.15,18.05-10.63,26.06-17.29,3.84-3.25,8.1-6.02,11.39-9.92h0c2-1.15,3.59-2.68,4.5-4.89Z"/>
  <path class="uuid-94672372-a3f2-4eb4-a3ae-51e7f3ad2d35" d="m173.27,368.24c-1.58-2.13-.81-4.38-2.49-5.93.24,1.95-1.15,4.51,2.49,5.93Z"/>
  <path class="uuid-94672372-a3f2-4eb4-a3ae-51e7f3ad2d35" d="m117.95,295.2c-.97,2.46-1.78,4.74-1.65,7.26.88-.06,1.21-.79,1.66-1.37,0-.51-.02-1.03-.03-1.54-.32-.28-.32-.56,0-.84-.22-1.1,1.28-2.13,0-3.51Z"/>
  <path class="uuid-94672372-a3f2-4eb4-a3ae-51e7f3ad2d35" d="m191.66,277.12c.74,1.6,1.4,3.04,2.35,5.11.69-4.05.43-4.58-2.35-5.11Z"/>
  <path class="uuid-94672372-a3f2-4eb4-a3ae-51e7f3ad2d35" d="m188.22,269.02c-2.33-1.49-4.77-2.78-6.86-4.64-1.98-1.77-4.06-1.4-6.06.07-.51.37-1.38.77-1.17,1.4.21.62,1.04.98,1.83.88,2.11-.27,3.98.43,5.9,1.2,1.85.75,3.87,1.1,5.81,1.62,2.04,1.08,4.16,1.84,6.99,1.93-2.13-1.92-4.43-1.8-6.44-2.46Z"/>
  <path class="uuid-94672372-a3f2-4eb4-a3ae-51e7f3ad2d35" d="m138.22,356.54c.25-.06.51-.12.76-.18,0-.56,0-1.12,0-1.67.12-.22.25-.43.37-.65.25-1.35-.43-2.58-.51-3.88-.3-.03-.61-.06-.91-.09-.17,2.17-.69,4.36.3,6.47Z"/>
  <path class="uuid-94672372-a3f2-4eb4-a3ae-51e7f3ad2d35" d="m194.43,107.13c.86-2.75,2.74-5.08,3.29-7.96,2.88-5.9,5.32-11.95,6.2-18.52.02-.19.05-.39.07-.58.06-.27.12-.55.19-.82l.26-.87c.2-.77.4-1.54.59-2.3-.04-1.28-.07-2.57-.11-3.85.04,1.28.07,2.57.11,3.85,1.06-1.78,1.68-3.6.53-5.58-.02-.36-.04-.71-.06-1.07h0c.17-1.01.34-2.01-.21-2.97.01-.31.03-.63.04-.94.03-.25.07-.5.1-.75-.19-3.02-.8-5.94-1.94-9.02-.85.94-.43,1.81-.58,2.56-.51,2.55,1.02,5.13-.13,7.66.26,2.08.52,4.17.78,6.25-.17,1.5-.89,2.9-.72,4.45h0c-.32.07-.5.24-.43.6-.06.38-.11.75-.17,1.13-.69,6.65-2.86,12.91-4.99,19.18-1.04,2.86-2.73,5.47-3.27,8.53-1.39,1.34-1.53,3.31-2.88,5.28,2.55-.81,2.67-2.72,3.32-4.24Z"/>
  <path class="uuid-94672372-a3f2-4eb4-a3ae-51e7f3ad2d35" d="m125.22,312.4c1.02.22,1.73-.1,1.99-1.17-.07-1.17-.15-2.33-.2-3.5-.04-1.03-.62-.51-1.07-.41-1.37,1.07.31,2.81-.88,3.92.05.39.1.77.15,1.16Z"/>
  <path class="uuid-94672372-a3f2-4eb4-a3ae-51e7f3ad2d35" d="m221.92,136.67c-.82,3.38-.38,6.12-.66,8.78.22,0,.44,0,.65,0-.07-2.66,1.35-5.29,0-8.78Z"/>
  <path class="uuid-94672372-a3f2-4eb4-a3ae-51e7f3ad2d35" d="m208.65,275.1s0,.02,0,.02c.02.02.04.04.06.06,0-.03,0-.06-.01-.09-.02,0-.03,0-.05,0Z"/>
  <path class="uuid-94672372-a3f2-4eb4-a3ae-51e7f3ad2d35" d="m207.11,272.34c-.41-.06-1.11-.05-.99.6.25,1.36.87,2.43,2.53,2.17-.16-1.12.16-2.53-1.54-2.76Z"/>
  <path class="uuid-94672372-a3f2-4eb4-a3ae-51e7f3ad2d35" d="m95.42,261.19c.27,1.74.98,3.27,2.18,4.7.77-2.3-.77-3.7-1.51-5.36-1.26-3.13-1.61-6.47-2.18-9.78-1.02,3.71-.51,7.18,1.51,10.43h0Z"/>
  <path class="uuid-94672372-a3f2-4eb4-a3ae-51e7f3ad2d35" d="m253.48,327.19c-.79.17-1.57.33-2.36.5-1.18-1.28-1.7-3.39-4.22-3.33.89,5.01,5,7.59,7.58,11.2,0,0,0,0,0,0,.09.95.19,1.9.28,2.85.22,1.92.4,3.84.67,5.75.17,1.17.29,2.47,1.91,2.61-.28-2.44-.73-4.86-.55-7.33.66-.81,3.31.79,2.36-1.08-1.04-2.05-1.47-4.67-3.58-6.15.03-.6.06-1.2.09-1.8,1.32-1.24-.4-2.21-.29-3.34-.46-.01-.93-.03-1.39-.04-.18.01-.34.06-.48.16Z"/>
  <path class="uuid-94672372-a3f2-4eb4-a3ae-51e7f3ad2d35" d="m280.82,85.79c1.44,2.85,3.98,4.43,6.69,5.81.54.37,1.03.85,1.61,1.09,6.47,2.59,13.02,4.95,19.95,5.95,2.16.31,4.39,1.12,6.66-.15-5.99-1.31-11.62-3.51-17.32-5.55-.49-.55-1.1-.59-1.76-.44-.16-.03-.33-.06-.49-.09,0,0,0,0,0,0,.01-.49-.18-.86-.59-1.13-.59.13-1.28-.06-1.7.55-.36-.04-.71-.08-1.07-.12,0,0,0,0,0,0-.2-.13-.4-.26-.6-.39l-1.72-1.11c0-.19,0-.38,0-.57-1.02-1.2-2.75-.87-3.89-1.8-1.89-.26-3.12-1.61-4.48-2.76,0,0,0,0,0,0-.06-.51-.12-1.01-.18-1.52-1.3.24-2.03-1.41-3.38-1.02.04.43.08.86.12,1.29.72.65,1.44,1.3,2.15,1.94Z"/>
  <path class="uuid-94672372-a3f2-4eb4-a3ae-51e7f3ad2d35" d="m199,375.47c-.02-1.72-.98-3.1-1.67-4.57-.38-3.83-2.17-7.3-2.73-11.16-.87.77-1.59,1.47-1.2,2.61,1.1,3.26,2.23,6.51,3.34,9.77h0c.56,1.5,1.12,3,1.68,4.5-.38,2.2,2.02,1.29,2.63,2.38.06-.94.12-1.87.17-2.81-.89.21-1.61-.09-2.23-.71Z"/>
  <path class="uuid-94672372-a3f2-4eb4-a3ae-51e7f3ad2d35" d="m196.16,84.63c-.17.43-.34.85-.51,1.28-.23.03-.46.06-.69.09.23.03.46.05.69.08.71.75,1.46,1.05,2.33.23.07-.41.14-.81.22-1.22-.35-1.12-.41-2.25-.23-3.4-1.2.61-.69,2.28-1.81,2.94Z"/>
  <path class="uuid-94672372-a3f2-4eb4-a3ae-51e7f3ad2d35" d="m187.03,107.61c.2-.54-.02-1.23.58-1.63.1-.37.19-.74.29-1.1,0-.19.01-.38.02-.56-2.12.36-2.33,2.26-2.23,3.67.07,1.02.84-.3,1.34-.37Z"/>
  <path class="uuid-94672372-a3f2-4eb4-a3ae-51e7f3ad2d35" d="m276.13,311.27c-.39,1.46.4,2.65.89,3.91,1.28-1.51.83-3.48-.89-3.91Z"/>
  <path class="uuid-94672372-a3f2-4eb4-a3ae-51e7f3ad2d35" d="m133.88,152.41c-1.99,1.52-3.42,2.48-4.52,3.85-4.95,3.51-9.89,7.02-14.84,10.53-4.66,2.88-9.29,5.8-13.98,8.61-1.56.93-3.68,1.21-4.84,2.45-1.66,1.77-3.59,2.83-5.68,3.78-.96.16-1.91.32-2.87.49-.45-2.68,1.41-4.57,2.29-6.79,1.83-4.62,3.15-9.39,4.41-14.2.86-3.26,1.78-6.65,5.66-7.76,4.1-.53,7-3.56,10.62-5.1,5.97-2.84,11.5-6.43,16.99-10.11,6.91-4.63,12.64-10.74,19.39-15.56.72-.52,1.22-1.35,1.83-2.04,2.11-1.71,4.44-3.22,5.84-5.6-.18-.19-.36-.37-.54-.56-1.97,1.88-3.94,3.76-5.91,5.64-7.32,5.25-13.72,11.65-21.38,16.41-5.57,3.58-11.16,7.12-16.74,10.68-.23.15-.46.3-.69.46,0,0-.04,0-.04,0-3.29,1.79-6.58,3.57-9.87,5.36-3,1.02-2.94,1.01-2.5-2.08.2-1.37,1.16-2.69.63-4.45-1.24.9-1.38,1.98-1.6,3.05-4.63,20.78-12.81,40.52-21.89,59.7h0c-.65,2.32-1.79,4.35-3.49,6.15-.68-.99-.31-1.95-.51-2.82-.2-.19-.4-.39-.61-.58-.65,3.23-1.29,6.47-1.94,9.7,2.26-4.06,6.79-6.72,7.12-11.87.4-.5.93-.94,1.19-1.5,3.36-7.13,6.57-14.32,9.45-21.66.22-.34.43-.68.65-1.02,1.35-.64,3-.73,3.94-2.14,3.69-1.27,6.7-3.79,10.1-5.61,5.5-2.93,10.54-6.58,15.6-10.18,5.56-3.33,10.56-7.45,15.67-11.41,1.25-.74,2.35-1.6,3.06-3.81Z"/>
  <path class="uuid-94672372-a3f2-4eb4-a3ae-51e7f3ad2d35" d="m178.76,137.2c1.63-1.92,3.06-3.95,3.91-6.35,2.79-5.33,5.59-10.66,8.74-16.68-1.93.9-3.06,1.48-3.4,2.68-1.33,4.76-4.39,8.73-6,13.35-1.2,2-2.68,3.85-3.46,6.09-.97,1.38-1.92,2.76-2.15,4.53,1.33-.86,2.18-2.02,2.36-3.63Z"/>
  <path class="uuid-94672372-a3f2-4eb4-a3ae-51e7f3ad2d35" d="m118.18,173.88c-.06.1.23.63.34.62,1.41-.11,2.27-1.14,3.2-2.03.13-.12.19-.31.28-.47,2.84-1.74,4.84-4.25,6.45-7.12-2.57,2.15-5.31,4.12-7.06,7.09-1.2.42-2.48.72-3.22,1.91Z"/>
  <path class="uuid-94672372-a3f2-4eb4-a3ae-51e7f3ad2d35" d="m314.77,81.72c-.23-.01-.45-.02-.68-.03-.2,0-.39.01-.59.02-.74-.03-1.49-.06-2.23-.09-.46.12-.87.03-1.19-.35-.35.02-.69.03-1.04.05,1.69,3.22,3.76,1.11,5.72.41Z"/>
  <path class="uuid-94672372-a3f2-4eb4-a3ae-51e7f3ad2d35" d="m235.96,95.74c-.01,1.65.49,2.99,2.15,3.65.53,2.39,2.16,4.26,3.02,6.49,1.7.85,2.9,2.12,3.36,4.02,1.09.05,1.48.99,2.12,1.63,4.67,4.66,9.4,9.25,15.28,12.42.26.14.53.28.79.41,1.59,2.04,4.02,3.08,5.81,4.89,0,.95.27,1.8.85,2.58,2.48,3.32,4.93,6.67,7.4,10.01.48.66,1.18.79,1.92.79-2.02-4.16-5.51-7.29-7.89-11.2-.58-.78-1.16-1.55-1.74-2.33.07-2.27-2.2-2.59-3.25-3.93-.86-.45-1.71-.9-2.57-1.34h0c-.05-.16-.15-.27-.31-.33-7.83-9.06-21.05-14.74-23.07-27.71.02-.45.18-.96.04-1.35-2.67-7.1-4.35-14.57-7.91-21.33-.3.24-.6.48-.9.72,1.98,6.03,5.47,11.54,6.12,18.02.78,1.31,1.56,2.62,2.35,3.93h0c-.23.4-.46.79-.69,1.19-.95-.41-1.9-.82-2.85-1.24Z"/>
  <path class="uuid-94672372-a3f2-4eb4-a3ae-51e7f3ad2d35" d="m336.6,119.45c-1.72-1.24-3.46-1.11-5.2-.97-.2.29-.4.57-.59.86,1.85.52,3.72,0,5.79.11Z"/>
  <path class="uuid-94672372-a3f2-4eb4-a3ae-51e7f3ad2d35" d="m299.49,293.89c.19-1.56-1.01-2.69-1.28-4.11-.33.02-.66.03-.98.05.12,1.71.72,3.15,2.26,4.06Z"/>
  <path class="uuid-94672372-a3f2-4eb4-a3ae-51e7f3ad2d35" d="m281.03,145.1c-.74-.83-1.08-2.12-2.31-2.42.29,1.32.73,2.47,2.31,2.42Z"/>
  <path class="uuid-94672372-a3f2-4eb4-a3ae-51e7f3ad2d35" d="m278.71,142.64s-.03.03-.03.03c.02,0,.03.01.04.01,0-.01,0-.03-.01-.04Z"/>
  <path class="uuid-94672372-a3f2-4eb4-a3ae-51e7f3ad2d35" d="m206.26,89.67c.57-3.95,1.14-7.9,1.79-12.39-2.73,3.6-2.29,7.22-2.56,10.7-.04.19-.08.37-.12.56-.05.35-.1.7-.15,1.05-.21,1.15-.42,2.3-.64,3.45.32.01.64.02.96.04.24-1.14.48-2.28.72-3.42Z"/>
  <path class="uuid-94672372-a3f2-4eb4-a3ae-51e7f3ad2d35" d="m159.97,335.48c.19,1.37.38,2.74.57,4.11.07-.63.14-1.25.2-1.87-.06-.81.33-1.78-.77-2.23Z"/>
  <path class="uuid-94672372-a3f2-4eb4-a3ae-51e7f3ad2d35" d="m148.37,316.33c-.09.47-.19.94-.28,1.4-.07.28-.14.57-.21.85.26,1.91-.96,3.68-.55,5.61l1.4-.02c.33-2.91.66-5.83.99-8.74-.29-.31-.58-.61-.87-.92v.03c-.86.4-.85,1.04-.48,1.78Z"/>
  <path class="uuid-94672372-a3f2-4eb4-a3ae-51e7f3ad2d35" d="m193.78,284.93s.36-.17.35-.21c-.11-.4-.26-.79-.46-1.36-.33.73-.4,1.2.11,1.57Z"/>
  <path class="uuid-94672372-a3f2-4eb4-a3ae-51e7f3ad2d35" d="m213.54,283.61s-.02.02-.02.02l.19.14c-.03-.08-.08-.15-.16-.16Z"/>
  <path class="uuid-94672372-a3f2-4eb4-a3ae-51e7f3ad2d35" d="m214.14,284.1c-.15-.11-.29-.22-.44-.34.08.19.1.46.44.34Z"/>
  <path class="uuid-94672372-a3f2-4eb4-a3ae-51e7f3ad2d35" d="m121.97,339.14c.15.05.3.07.45,0-.08,0-.17-.01-.25-.02-.06,0-.13.02-.19.03Z"/>
  <path class="uuid-94672372-a3f2-4eb4-a3ae-51e7f3ad2d35" d="m211.13,101.54c.04.94.08,1.89.12,2.83.44.76.83.79,1.15-.08.77-3.34.37-6.72.37-10.09-.04-.26-.08-.53-.12-.79-.14-1.77-.28-3.53-.42-5.3-.04-.3.01-.79-.15-.88-.46-.25-.76.06-.89.54,0,0-.07.12-.07.12-.08.25-.16.49-.24.74.03,3.87.06,7.74.09,11.61-.25.47-.26.91.15,1.3Z"/>
  <polygon class="uuid-94672372-a3f2-4eb4-a3ae-51e7f3ad2d35" points="184.84 109.73 185.06 109.66 184.84 109.6 184.84 109.73"/>
  <path class="uuid-94672372-a3f2-4eb4-a3ae-51e7f3ad2d35" d="m266.27,53.33c.42-.02.83-.04,1.25-.05-.43-.33-.85-.34-1.25.05Z"/>
  <polygon class="uuid-94672372-a3f2-4eb4-a3ae-51e7f3ad2d35" points="80.22 209.82 80.13 209.57 80.03 209.82 80.22 209.82"/>
  <path class="uuid-94672372-a3f2-4eb4-a3ae-51e7f3ad2d35" d="m315.76,217.08s-.01,0-.02,0c0,0,0,0,0,.01,0,0,.01,0,.02,0,0,0,0-.02,0-.02Z"/>
  <path class="uuid-94672372-a3f2-4eb4-a3ae-51e7f3ad2d35" d="m258.52,55.36c-.41.05-.83.09-1.24.14.46.37.87.31,1.24-.14Z"/>
  <path class="uuid-94672372-a3f2-4eb4-a3ae-51e7f3ad2d35" d="m275.26,298.43c-1.24-1.46-1.83-3.44-3.9-5.04.68,3.45,2.51,5.69,3.75,8.19.7,2.49,2.65,4.56,2.51,7.34.4.17.81.71,1.23.36.76-.64.55-1.57.2-2.29-.89-1.81-1.91-3.56-2.88-5.34-.08-.75-.16-1.51-.24-2.27l-.22.05c.21-.5-.1-.76-.45-1.01Z"/>
  <path class="uuid-94672372-a3f2-4eb4-a3ae-51e7f3ad2d35" d="m101.76,119.53h0s.02-.06.03-.09c-.02.02-.03.04-.05.06h0c-.07.14-.14.27-.21.41.08-.13.15-.26.23-.39Z"/>
  <path class="uuid-94672372-a3f2-4eb4-a3ae-51e7f3ad2d35" d="m103.43,262.77c-.05-.58-.1-1.15-.16-1.73.32-2.34-.42-4.52-.97-6.73-.19-3.24-1.41-6.17-2.72-9.07-.57-2.17-.61-4.53-2.38-6.3.92,2.04.05,4.48,1.6,6.36.67,2.82,1.35,5.65,2.02,8.47.1.33.2.66.29,1-.17.2-.03.39.06.59.21,1.35.91,2.61.66,4.03-.24,3.59-.37,7.17.41,10.71h0c-.48.21-.45.64-.45,1.06.68.01,1.42.12,1.61-.83.12-.04.2-.01.27.09-.03-2.15-.07-4.31-.1-6.46.4-.45.29-.84-.14-1.19Z"/>
  <path class="uuid-94672372-a3f2-4eb4-a3ae-51e7f3ad2d35" d="m125.71,319.64c.19-.36.38-.73.57-1.09,2.62-2.59,3.47-6.12,4.87-9.35.25-.58.44-1.41-.45-1.64-.8-.21-1.11.45-1.3,1.13-.26.93.15,2.17-1.18,2.61-.3.66-.5,1.41-.94,1.97-.74.96-.29,5.28-3.05,1.2-.08-.12-.68.12-1.04.19,0,1.51,0,3.02,0,4.53-1.27,2.98-.76,6.32-1.91,9.33-.45.49-.9.97-1.36,1.46-.09.72-.19,1.44-.28,2.16.33,1.86-.7,4.05,1.69,5.95.2-3.05.36-5.67.53-8.29,1.15-3.17,3.17-6.01,3.51-9.49.11-.22.22-.45.34-.67Z"/>
  <path class="uuid-94672372-a3f2-4eb4-a3ae-51e7f3ad2d35" d="m250.5,343.44c-1.32-2.8-.8-5.89-1.14-9.05-2.27,2.29-1.9,7.8.4,9.62.81.55.73-.07.74-.57Z"/>
  <path class="uuid-94672372-a3f2-4eb4-a3ae-51e7f3ad2d35" d="m264.6,53.42c.22-.01.45-.02.67-.04-.24-.26-.46-.23-.67.04Z"/>
  <path class="uuid-94672372-a3f2-4eb4-a3ae-51e7f3ad2d35" d="m222.54,81.17c-.51-3.49-1.4-6.88-2.84-10.1-1.04-2.6-1-5.59-2.79-7.93-.74-1.89-1.49-3.78-2.24-5.67-1.15-.45-1.17-2.32-2.76-2.21,1.48,2.99,2.97,5.97,4.45,8.96h0c.76,2.81,1.52,5.61,2.27,8.42.15.03.3.08.44.13,0,0,0,0,0,0-.08.25-.16.51-.24.76.11.18.09.34-.06.48,1.28.8,1.27,2.21,1.54,3.45.69,3.16.64,6.49,2.19,9.45.35,1.63,1.27,3.11,1.17,4.86-.06,1,.56,1.29,1.47,1.1-.3-2.89-1.26-5.6-2.24-8.3-.11-.91-.21-1.83-.32-2.74.26-.23.04-.4-.06-.65Zm-3.35-8.47s.09-.05.12-.08c-.03.03-.08.05-.12.08Z"/>
  <path class="uuid-94672372-a3f2-4eb4-a3ae-51e7f3ad2d35" d="m141.1,299.94c.04-.15.05-.3.03-.45-.3.12-.16.13-.03.45Z"/>
  <path class="uuid-94672372-a3f2-4eb4-a3ae-51e7f3ad2d35" d="m164.67,368.2c-.03-.2-.06-.41-.1-.61-.28.25-.05.33.1.61Z"/>
  <path class="uuid-94672372-a3f2-4eb4-a3ae-51e7f3ad2d35" d="m161.86,373.27c.05.2.1.4.15.59.22-.25-.03-.38-.15-.59Z"/>
  <path class="uuid-94672372-a3f2-4eb4-a3ae-51e7f3ad2d35" d="m233.74,11.83s.02.02.02.02c.04-.07.07-.13.11-.2-.04.06-.09.12-.13.17Z"/>
  <path class="uuid-94672372-a3f2-4eb4-a3ae-51e7f3ad2d35" d="m261.28,55.26c-.19,0-.39.02-.58.03.21.26.4.23.58-.03Z"/>
  <path class="uuid-94672372-a3f2-4eb4-a3ae-51e7f3ad2d35" d="m179.28,380.6s-.02.02-.02.02c.07.03.13.07.19.1-.06-.04-.12-.08-.18-.12Z"/>
  <path class="uuid-94672372-a3f2-4eb4-a3ae-51e7f3ad2d35" d="m289.92,276.85c-.02-.49-.04-.97-.07-1.46-1.87-1.68-.66-3.92-1.04-5.87-.34.01-.68.03-1.03.04-.03,1.48-.07,2.97-.1,4.45.91.75.45,1.84.69,2.76-.09.89-.29,2.12.92,2.08,1.05-.03.56-1.26.63-2Z"/>
  <path class="uuid-94672372-a3f2-4eb4-a3ae-51e7f3ad2d35" d="m253.46,296.54c2.08,1.15,1.52-.61,1.7-1.55.11-.09.23-.14.37-.13,0-.75,0-1.5,0-2.25-.35.03-.71.06-1.06.09h0c-.06-.05-.12-.08-.19-.1.07.01.13.04.19.1.35-.03.71-.06,1.06-.09,0-.55,0-1.11,0-1.66-.05-.15-.12-.25-.14-.33.02.08.09.18.14.33l.03-.58c.65-5.78-2.96-10.71-5.01-15.78-.12-.23-.24-.46-.36-.69,0,0,0-.05,0-.05,0,0,0,0,0,0-.55-1.35-1.1-2.72-2.93-2.64-1.01,1.87,1.05,2,1.66,2.95.55,2.27,2.38,4.09,2.3,6.59,1.84,3.74,2.46,7.77,2.83,11.86h0c-1.14,1.16-.81,2.55-.6,3.92Z"/>
  <path class="uuid-94672372-a3f2-4eb4-a3ae-51e7f3ad2d35" d="m241.48,349.63c0-.21,0-.42.01-.64-.3.2-.09.36-.01.64Z"/>
  <path class="uuid-94672372-a3f2-4eb4-a3ae-51e7f3ad2d35" d="m252.79,74.66c.22.1.44.2.65.3-.13-.3-.33-.43-.65-.3Z"/>
  <path class="uuid-94672372-a3f2-4eb4-a3ae-51e7f3ad2d35" d="m226.87,219.24c2.31.19,4.69.78,6.92.44,5.53-.85,10.94-2.26,15.72-5.41,3.87-2.56,7.63-5.3,11.83-7.34.69-.33,1.54-.73,1.27-2.2-3.28,1.96-6.55,3.67-9.54,5.76-6.75,4.71-13.93,7.83-22.35,7.2-1.21-.09-2.42-.04-3.64-.03-1.23-.1-1.51,1.51-.2,1.58Z"/>
  <path class="uuid-94672372-a3f2-4eb4-a3ae-51e7f3ad2d35" d="m205.69,204.12s0-.03,0-.05c-.01,0-.02.02-.03.02l.02.02Z"/>
  <path class="uuid-94672372-a3f2-4eb4-a3ae-51e7f3ad2d35" d="m209.74,197.75c-1.71,1.88-3.65,3.62-4.04,6.33,2.26-1.53,2.94-4.06,4.04-6.33Z"/>
  <polygon class="uuid-94672372-a3f2-4eb4-a3ae-51e7f3ad2d35" points="205.69 204.12 205.67 204.1 205.58 204.2 205.69 204.12"/>
  <path class="uuid-94672372-a3f2-4eb4-a3ae-51e7f3ad2d35" d="m140.51,205.81c-.72.42-1.8.46-1.81,1.66-.46,2.28.27,4.29,1.34,6.24.5.18.8.5.97.94-.16-.44-.47-.76-.97-.94-1.42.41-3.28-1-4.32,1.03,0,0,0,0,0,0-.26.14-.52.29-.77.43-2.84-.89-5.74-1.31-8.71-.93.38.71.98.97,1.72,1.17.05.1.13.18.26.24,2.42,1.1,4.91,1.95,7.5,2.54.1.02.19.02.27,0,.14.05.28.1.42.15.44.26.9.44,1.41.46.16.05.32.1.48.15,2.21.63,4.31.77,6.43.48.49,0,.97-.08,1.44-.26.67-.15,1.34-.33,2.02-.56,6.8-2.33,13.59-4.39,20.57-6.05.85,0,1.69-.04,2.5-.36-.45,2.24-2.79,3.08-3.68,5.01-3.28,3.7-6.76,7.19-10.69,10.3,1.6.16,2.75-.53,3.77-1.59,2.02-2.08,4.22-4.02,6.1-6.22,1.99-2.32,4.44-4.29,5.75-7.17,1.49-2,.44-3.47-1.01-4.85-2.15-2.74-4.85-4.54-8.38-4.89-7.97-2.33-15.34-.14-22.58,3.02Zm9.71-1.3c-.43,0-.88.17-1.26.52.38-.35.83-.52,1.26-.52Zm-1.93,1.43c.17-.36.39-.65.63-.87-.24.23-.46.51-.63.87,1.19.89,1.65,2.07.93,3.39-.57,1.04-1.31,2.02-2.73,2.11-2.01.12-2.58-1.4-3.29-2.79,1.17-1.9,2.73-3.05,5.08-2.7Zm-11.82,8.99c-.12-.04-.26-.06-.39-.09.13.03.27.05.39.09Zm34.52-6.16h0s0,0,0,0c0,0,0,0,0,0Zm-12.99-4.69c1.47.11,2.97-.08,4.39.46,0,0,0,0,0,0,.71.47,1.42.94,2.14,1.41,0,0,0,0,0,0,.42.58.96.89,1.59,1.01,1.26.79,2.39,1.8,3.29,2.99-1.36,1.42-3.51.79-5.17,1.46-2.19.89-4.56,1.32-6.86,1.95-.3.4-.59.8-.89,1.19h0c.3-.4.59-.8.89-1.19-1.29.33-2.58.66-3.87.99-.43.08-.85.16-1.28.24-1.57.7-3.15,1.4-4.72,2.1-.07.3-.15.6-.22.9-.58.19-1.17.35-1.76.49-1.49.23-2.98.09-4.47-.41,0,0,0,0,0,0-.9-.87-.69-1.71.06-2.54h0c1.86.08,3.71.17,5.57.25.27.44.55.87.82,1.31,1.57-.7,3.15-1.4,4.72-2.1-.04-.74-.09-1.47-.13-2.21,1.8-1.63,2.92-3.66,3.53-6-.21-1.82.59-2.44,2.38-2.3Z"/>
  <path class="uuid-94672372-a3f2-4eb4-a3ae-51e7f3ad2d35" d="m122.28,222.69c-.42-.03-1.01-.13-1.12.49-.1.56.38.89.79,1.02,1.33.43,2.69.77,4.03,1.15,1.7.08,3.4.16,5.09.24,0-.15,0-.3,0-.45-1.9-.45-3.8-.89-5.7-1.34-.89-.76-1.97-1.03-3.1-1.12Z"/>
  <path class="uuid-94672372-a3f2-4eb4-a3ae-51e7f3ad2d35" d="m161.49,218.29s0,0,0,0c1.5-.07,2.68-.71,3.84-2.23-1.93.09-2.97,1.05-4.05,1.96-2.16.48-3.84,1.88-5.68,2.96-3.06,2.02-6.4,3.42-9.85,4.6-1.04-.12-2.08-.19-2.79.79-.08.12.08.62.23.68.88.34,2.17-.16,2.89-.65,4.07-.47,7.43-2.55,10.71-4.81,1.68-.94,3.43-1.77,4.69-3.3Z"/>
  <path class="uuid-94672372-a3f2-4eb4-a3ae-51e7f3ad2d35" d="m167.43,215.78c.03-.66.04-1.31-.84-1.43-.2.38-.64.84-.54,1.13.22.66.88.35,1.38.3Z"/>
  <path class="uuid-94672372-a3f2-4eb4-a3ae-51e7f3ad2d35" d="m179.59,307.92c5.54,1.36,11.24,1.77,16.88,1.29,9.76-.1,19.42-1.87,28.21-6.33.12.02.24,0,.37-.06,2.09-1.01,4.06-2.25,5.88-3.67.77-.5,1.49-1.07,2.17-1.68,2.08-1.38,3.99-2.96,5.74-4.73,3.4-2.84,5.84-6.59,8.3-10.38,1,.91,1.33,1.81,1.31,2.86.47-.01.93-.02,1.4-.03.02-.16.07-.31.17-.44-.86-4.45-2.73-8.49-5.06-12.33.01-.18.01-.37,0-.55-1.32-.55-1.34-2.96-3.43-2.4-.89.81-1.78.89-2.66-.01-.17,1.11.16,2.06.92,2.87.6-.18,1.2-.35,1.8-.53,0,0,0,0,0,0,.18.19.37.37.55.56.68.83,1.19,1.82,2.2,2.34.78,2.67,3.81,5.23-.64,6.07-.04,0-.07,0-.11.01-.13-.15-.33-.24-.59-.15-1.16.42-2.31.84-3.47,1.26-.51.14-1.03.29-1.54.43-.16.05-.27.14-.34.25-1.24.45-2.48.9-3.72,1.35-.12-.14-.27-.26-.49-.33-1.78-3.54-3.55-7.08-5.33-10.62-.66-.83-1.32-1.66-1.98-2.49-1.04-1.63-2.09-3.25-3.13-4.87-2.88,1.52.62,4.37,1.55,6.09.25.22.5.44.74.66h0c.45.83.75,1.76,1.57,2.34,1.53,2.99,3.93,5.5,4.91,8.8,0,.42.33.82.57,1.22-12.86,1.64-25.55,4.35-38.37,6.23-.61.03-1.22.05-1.83.08-1.3.05-2.65-1.28-3.89.08h0c-2.82.15-5.63.3-8.45.45-3.95-.07-7.8.37-11.6,1.8.29.44.62.72.96.89.07.22.26.39.57.38,10.05-.52,20.07-1.43,30.05-2.7.15-.02.29-.04.44-.06,7.32-.94,14.62-2.07,21.88-3.42.61-.11,1.21-.24,1.82-.36,2.89-.22,5.78-.43,8.67-.65,0-.11,0-.22-.03-.33.02.1.03.21.03.33.76-.2,1.53-.41,2.29-.61.27.26.53.51.8.77-.64,2.08.19,4.39-.93,6.4-.04.03-.07.07-.11.1-.11.02-.22.06-.31.16-.21.24-.44.47-.66.7-.13.12-.27.23-.4.34-1.55.9-3.43,1.29-4.55,2.84-.76.44-1.51.89-2.27,1.33-.2.15-.41.3-.61.46-2.68,1.44-5.39,2.82-8.18,3.73-1.34.24-2.7.27-4.09.2-7.38-2.28-15.1-.69-22.38,1.45-1.39.14-2.75.38-4.09.82-3.18,1.04-6.5.95-9.19-.29-5.92-2.73-11.59-6.07-16.62-10.34,2.06-.51,4.33-.4,6.23-2.15-1.28,0-2.05-1.06-3.32-.31-1.07.64-2.48-.12-3.33-.73-2.31-1.64-5.05-2.28-7.47-3.65-.03.57-.06,1.14-.08,1.71.62,1.86,1.24,3.73,1.86,5.59.18-.03.35.02.49.14,1.29-.08,2.59-.32,3.84.26.35,1.49,1.49,2.32,2.66,3.07,6.23,4.32,11.19,7.17,17.08,8.26.07.09.17.16.32.2Zm13.72-1.31c-.6.15-1.18.36-1.69.7h0c.51-.34,1.09-.55,1.69-.7.6-.55,1.3-.46,2-.37-.7-.09-1.39-.18-2,.37Zm7.19-2.16s-.03,0-.04,0c.03,0,.05,0,.08-.01-.01,0-.02,0-.04.02Zm-2.75.49s0,0-.01,0c0,0-.02,0-.03,0,.01,0,.02,0,.04,0Z"/>
  <path class="uuid-94672372-a3f2-4eb4-a3ae-51e7f3ad2d35" d="m125.08,213.74c.1-.01.19-.03.29-.04,0-.08.02-.15.03-.23,1.07-.85,2.21-1.62,3.42-2.27,3.19-.78,6.34-1.69,9.06-3.73-4.79-.49-9.02.89-12.74,3.9.22.09.44.17.66.26h0c-.22-.09-.44-.17-.66-.26-.93.28-1.51,1.01-2.11,1.7-1.02,1.24-2.19,2.38-2.73,3.93-.23.31-.47.61-.68.93-.04.05-.05.11-.07.16-.61.6-1.21,1.24-1.33,2.34,1.06-.32,1.6-.91,1.95-1.6.19,0,.39-.07.52-.27,1.22-1.82,2.71-3.43,4.38-4.82Z"/>
</svg>