<?xml version="1.0" encoding="UTF-8"?>
<svg id="Livello_23" data-name="Livello 23" xmlns="http://www.w3.org/2000/svg" viewBox="0 0 595.28 841.89">
  <defs>
    <style>
      .cls-1 {
        fill: #354f9d;
      }
    </style>
  </defs>
  <path class="cls-1" d="m338.97,437.25c-2.59,12.5-4.03,25.9.81,38.05.04.09.38-.02.35-.09-4.84-12.14-3.4-25.53-.82-38.02.02-.09-.32-.03-.34.06Z"/>
  <path class="cls-1" d="m334.78,356.2c2.4.84,4.89,1.81,7.35,2.48,1.23.31,2.47.64,3.74.74.44.04.87.03,1.31.01.08,0,.15.02.23.03.03,0,.08-.02.11-.04.06,0,.13,0,.19-.01.3-.03.61-.07.91-.11.28-.04.57-.04.84-.12.1-.03.14-.11.14-.19,0-.12-.07-.34-.2-.36-.05-.01-.1,0-.16,0-.59.1-1.17.19-1.76.27-.64.08-1.29.12-1.93.04-.01,0-.03,0-.04,0-1.26-.17-2.51-.38-3.75-.67-1.24-.29-2.47-.65-3.68-1.03-.78-.25-1.56-.52-2.33-.79-4.4-1.54-8.77-3.17-13.45-3.6-.05,0-.2.08-.11.08,4.36.4,8.47,1.85,12.57,3.29Z"/>
  <path class="cls-1" d="m325.06,348.69c4.33.9,8.79,2.25,12.87,3.98,3.62,1.54,6.98,3.88,11.01,4.13.04,0,.2-.07.11-.07-4.17-.26-7.63-2.76-11.39-4.3-3.97-1.62-8.25-2.94-12.45-3.81-.04,0-.19.06-.14.07Z"/>
  <path class="cls-1" d="m421.19,377.53c1.86-.92,3.54-2.17,4.96-3.68.07-.08-.1-.09-.14-.04-1.4,1.49-3.06,2.72-4.89,3.63-.11.05-.01.13.07.09Z"/>
  <path class="cls-1" d="m245.88,377.72c.06.15.31.16.5.09.04-.02.07-.03.1-.05.02-.13.05-.26,0-.35-1.72-3.52-3.99-6.74-6.77-9.5,0,0,0-.01-.01-.01-2.57-2.56-5.69-4.86-9.4-5.24-3.87-.39-6.85,1.59-8.94,4.71-.66.99-1.27,2.03-1.81,3.11-1.1,1.96-1.88,4.13-2.64,6.23-.05.15.13.19.33.16.05,0,.09-.02.14-.03.12-.04.23-.11.26-.2,1.18-3.3,2.42-6.75,4.9-9.32,2.84-2.95,6.63-3.6,10.47-2.36,5.97,1.93,10.74,6.93,12.87,12.76Z"/>
  <path class="cls-1" d="m258.26,389.75c.2-.13-.11-.16-.21-.09-4.06,2.68-5.45,7.7-4.8,12.34.87,6.15,4.64,11.32,7.4,16.72.06.11.4,0,.35-.09-2.5-4.9-5.79-9.53-7.07-14.97-1.18-5-.24-10.89,4.33-13.91Z"/>
  <path class="cls-1" d="m362.23,454.12c.65-.77,1.42-1.42,2.27-1.95.85-.43,1.7-.85,2.56-1.26.47-.18.93-.35,1.4-.49,2.55-.78,5.2-1.19,7.72-2.04,2.1-.71,4.1-1.7,5.97-2.88,4.02-2.52,7.48-5.78,10.97-8.96,3.92-3.57,7.97-6.99,12.17-10.22,4.94-3.8,10.07-7.34,15.37-10.63.41-.26-.22-.34-.45-.2-9.42,5.85-18.33,12.52-26.57,19.95-3.83,3.45-7.54,7.11-11.93,9.86-2.34,1.46-4.83,2.58-7.49,3.29-2.11.56-4.26.98-6.33,1.65-.1-.04-.25-.05-.38.02-.27.13-.54.26-.81.39-.03.01-.07.02-.11.04-.63.25-1.26.57-1.88.94-.33.17-.67.33-1,.5-1.09.57-1.88,1.41-2.47,2.48-.02.04-.03.07-.05.11-1.49,2-2.09,4.45-.66,6.99.13.24.83,0,.72-.19-.03-.05-.04-.1-.07-.15.13-.06.23-.14.19-.24-.7-2.08-.56-4.41.46-6.36.12-.23.25-.44.39-.65Z"/>
  <path class="cls-1" d="m433.5,440.03c-.27-.07-.55-.14-.83-.21-.04-.01-.09,0-.14.01-5.65-1.19-11.32-2.9-14.54-8.08-.11-.17-.79.1-.73.2,3.29,5.27,9.12,7.01,14.87,8.2.02.01.04.03.09.04,9.36,2.29,18.46,6.48,26.9,11.06.17.09.72-.13.64-.28h0l-.02-.02s-.02-.02-.04-.03c-.05-.03-.11-.06-.16-.09-7.37-4.52-14.75-8.58-23.31-10.27-.9-.18-1.81-.35-2.73-.53Zm17.12,6.25c.23.12.45.24.67.37-.23-.11-.45-.22-.68-.33.01-.01.01-.03.01-.04Z"/>
  <path class="cls-1" d="m475.65,470.6c.95-.97,1.96-2.02,2.49-3.29,0,0-.09-.03-.3-.08-.19-.06-.46-.13-.83-.21-.02-.01-.04-.01-.07-.02-.76-.15-1.88-.32-3.4-.39-.06-.01-.13-.01-.2-.01-.02-.01-.04-.01-.06,0-.77-.02-1.53-.01-2.29.02-3.05.12-6.09.5-9.12.84-3.41.38-6.82.77-10.25.81-3.67.05-7.33-.23-10.98-.63-7.18-.78-14.34-2-21.59-2.09-7.3-.08-14.6.83-21.86,1.52-1.76.17-3.51.33-5.27.49-1.76.17-3.53.34-5.29.5-.88.09-1.76.17-2.65.26-1.72.16-3.45.32-5.18.45-1.75.12-3.49.29-5.23.49-.57.06-1.14.13-1.71.2-.06.01-.12.02-.15.06-.08.08.02.2.08.25.17.16.35.33.52.5.94.9,1.86,1.82,2.78,2.74.02.02.03.03.05.05,6.92,7.25,12.72,15.64,20.94,21.54.09.07.4-.07.32-.13-8.83-6.33-14.85-15.54-22.49-23.13,2.7,1.97,5.09,4.4,7.77,6.39,3.93,2.92,8.2,5.35,12.59,7.5,4.54,2.23,9.27,4.16,14.1,5.68,2.79.88,5.62,1.57,8.46,2.26,4.23,1.03,8.49,1.93,12.77,2.76,4.55.88,9.21,1.48,13.85,1.05,1.62-.15,3.28-.36,4.94-.64,0,0,.03,0,.07-.01.1-.02.29-.06.55-.1.59-.11,1.53-.3,2.61-.52.37-.08.74-.16,1.12-.25,1.74-.39,3.62-.86,4.82-1.33.03-.01.06-.02.09-.03,2.29-1.68,4.17-3.89,5.46-6.43.49-.74.88-1.54,1.22-2.36.06-.12.11-.23.16-.34,0-.01,0-.02,0-.03.1-.25.2-.49.3-.74.03-.06.06-.14.1-.23.13-.29.34-.73.58-1.21,0-.02.01-.04.02-.05.29-.59.62-1.25.92-1.84.31-.63.57-1.15.67-1.36.01,0,.02-.02.02-.03,0,0,0-.01,0-.03,0,0,0,.02,0,.03.01-.02.02-.03.02-.04h0s0-.02.02-.03c1.45-2.42,3.58-4.29,5.67-6.15.97-.86,1.94-1.72,2.84-2.65Zm-18.36,23.35c-4.37,1.49-9.2,2.39-13.8,2.82-4.91.45-9.84-.25-14.64-1.23-5.11-1.04-10.19-2.19-15.25-3.45-1.94-.48-3.86-1.04-5.76-1.66-1.65-.54-3.42-1.02-4.88-1.99-1.68-1.07-3.26-2.34-5.13-3.09-.71-.29-1.51-.35-2.24-.56-2.01-.57-3.91-1.8-5.04-3.58-.95-1.51-1.36-3.3-1.4-5.06-.03-1.09.08-2.17.29-3.24.16-.81.31-2.23,1.28-2.51.24-.07.5-.03.75,0,1.84.26,3.73.29,5.57.6,3.83.39,7.66.79,11.49,1.19.4.08.8.15,1.2.23,6.49,1.2,13,2.3,19.57,2.96,4.79.48,9.73.93,14.61.84,1.19,1.16,2.24,2.48,2.82,4.05.79,2.15.33,4.31-.14,6.48-.23,1.09-.47,2.18-.7,3.27-.13.6-.24,1.21-.39,1.8-.24.99-1.09.98-1.91.98-2.48,0-4.97-.13-7.44-.36-.18-.02-.35.25-.12.27,2.74.25,5.59.5,8.35.35.76-.04,1.18-.29,1.41-1.03.42-1.34.6-2.79.9-4.17,0-.02.01-.05.02-.07.51,1.36,1.1,2.68,1.81,3.94.01.02.04.02.06.03,0,.02.03.03.09.04,2.47.09,4.95-.14,7.35-.72.61-.15,1.26-.31,1.76-.69l-.52,3.57Zm1.04-5.02c-.27,1.37-1.4,1.75-2.63,2.04-2.24.52-4.53.71-6.82.63-.8-1.41-1.47-2.89-2-4.42,0,0,0,0,0,0,.42-1.86.86-3.77.57-5.65h0c.39-1.28,1.48-2.24,2.42-3.13,1.1-1.04,2.43-2.02,4-2.06.07,0,.39-.14.23-.14-1.52.04-2.87.78-4.01,1.75-.62.53-1.21,1.11-1.76,1.71-.38.41-.73.85-.98,1.35-.05-.2-.09-.4-.15-.6-.54-1.63-1.57-3.01-2.77-4.22,2.27-.06,4.52-.22,6.75-.58,1.39-.22,2.77-.44,4.14-.69,2.05.53,2.28,3.02,2.43,4.81.19,2.16.37,4.33.55,6.49.08.89.22,1.82.05,2.7Zm4.77-1.93s-.03.02-.05.02c-.01.01-.03.02-.04.02-.12.04-.24.08-.36.1-.4.09-.85.12-1.24.15-.22.02-.44.04-.67.05-.19.01-.38.03-.56.04h-.18c-.06,0-.13,0-.19-.01-.03.01-.06.02-.09.02,0,0,0,.01-.02.01,0,0,0-.01-.01-.01-.01.01-.02,0-.02,0h-.01s-.18.01-.18.01c-.27,0-.52-.01-.75-.04-.12-2.62-.45-5.26-.67-7.88-.01-.16-.03-.33-.05-.5,0,0,.01,0,.01-.01.19-.79.55-1.53,1.07-2.16.57-.69,1.3-1.15,2.1-1.53.06-.03.09-.06.04-.1-.05-.04-.2.02-.24.04-.82.39-1.58.87-2.18,1.57-.38.45-.68.96-.9,1.5-.22-1.45-.71-2.93-2.1-3.44,2.01-.37,4-.83,5.97-1.44,1.71,2.36,2.4,5.24,2.47,8.13.02.77,0,1.54-.05,2.31-.02.37-.04.77-.07,1.16-.27.66-.56,1.32-.9,1.93-.04.03-.09.05-.14.07Zm1.45-3.01s0,0,0,0c0,0,0,0,0,0,0,0,0,0,0,0Zm2.26-5.86c-.03.23-.07.45-.12.67-.1.28-.21.56-.32.84l-1.69,3.83c-.04.06-.08.11-.11.16.22-3.6-.26-7.34-2.43-10.33.25-.08.5-.15.75-.24,1.24-.42,2.47-.9,3.68-1.4-.1,1.04.09,2.05.24,3.09.15,1.12.17,2.26.01,3.38Zm-3.17-5.86c-3.73,1.35-7.49,2.04-11.39,2.67-7.16,1.16-14.45.69-21.65.01-12.22-1.15-24.12-4.2-36.28-5.7-3.62-.44-7.25-.67-10.88-.65,3.49-.33,6.99-.66,10.48-.99,7.34-.69,14.7-1.61,22.07-1.8,7.28-.18,14.46.87,21.66,1.74,6.76.81,13.45,1.23,20.25.57,3.57-.35,7.13-.84,10.7-1.12,2.09-.16,4.28-.3,6.41-.06-3.63,2.09-7.43,3.91-11.37,5.33Z"/>
  <path class="cls-1" d="m471.18,486.66c-.42,3.71-.74,7.76-1.98,11.3-1.22,3.47-4.45,5.85-7.63,7.44-6.63,3.31-14.21,3.38-21.46,3.43-.19,0-.27.25-.03.24,7.57-.05,15.55-.15,22.38-3.86,2.76-1.5,5.57-3.62,6.83-6.59.72-1.7.99-3.58,1.31-5.39.38-2.19.68-4.39.93-6.59.02-.17-.33-.12-.35.03Z"/>
  <path class="cls-1" d="m517.95,328.89c-.34-.13-.69-.24-1.03-.35-.32-.21-.67-.38-1.02-.53,0,0,0-.02-.01-.03l-.58-.38c.2-.03.41-.2.38-.32.92-.44,1.54-1.43.35-1.85-.33-.11-.65-.2-.98-.27.03-.02.07-.03.09-.05.11-.13.06-.3-.1-.36-.45-.17-.91-.28-1.38-.36-.01-.03-.03-.07-.04-.1.09.03.18.07.27.1.06.02.17,0,.23,0,.09-.02.19-.04.28-.09.08-.04.24-.13.09-.18-.03-.01-.06-.02-.09-.03.09-.02.18-.07.23-.14.11-.13.07-.3-.1-.36-.12-.04-.25-.06-.37-.1-.01-.02-.03-.05-.06-.07-.14-.09-.29-.14-.44-.21.07-.03.14-.06.18-.11.1-.12.07-.26-.07-.32.08-.04.23-.15.07-.2-.18-.05-.37-.09-.55-.13.15-.41,0-.85-.53-.98-.18-.04-.36-.07-.53-.1-.93-1.87-1.91-3.71-2.89-5.55-.25-.5-.53-.99-.79-1.48-1.57-2.97-3.14-5.98-3.91-9.27-.28-1.19-.48-2.44-.86-3.59-.72-2.89-1.46-5.78-2.23-8.67-.77-2.89-1.58-5.77-2.43-8.64-.85-2.87-1.75-5.72-2.72-8.55-.96-2.82-1.99-5.63-3.09-8.4-1.1-2.76-2.27-5.5-3.54-8.19-.35-.75-.73-1.48-1.09-2.22.02-.04.03-.07.04-.1.57-2.94,1.95-5.71,3.28-8.4,1.98-3.98,4.02-8.1,3.48-12.83-.96-8.47-7.98-14.13-13.78-18.68.44-1.99.74-4.1.32-6.1-.58-2.83-2.73-4.53-4.8-6.17l-7.33-5.8-.02-.02-1.02-.88c.57-1.04,1.34-2.66,1.44-3.91l-.02.05c.18-.93.22-1.88.11-2.83,0,0-.01-.01-.02-.04-.1-.27-.78-1.91-2.07-3.72-.11-.16-.23-.32-.35-.48-1-1.33-2.26-2.59-3.75-3.74-2.92-2.26-6.25-3.85-9.42-5.3-13.47-6.14-31.37-13.64-50.31-17.07-7.41-1.34-15.79-2.86-23.6-1.14-6.88-3.8-14.88-5.25-22.68-4.15-.05,0-.1.02-.15.04h0c-26.78-11.06-55.99-16.04-84.92-14.55-8.16.42-16.28,1.36-24.33,2.8l-1.92.57-.37,1.36h.02c-6.88,22.99-12.69,46.48-17.31,69.99h0c-10.06,6.91-18.93,15.11-25.2,25.68-6.04,10.18-9.81,21.48-13.51,32.66-2.15,6.5-4.29,13-6.84,19.36-.14.36.58.31.68.05,8.65-21.64,12.8-46.25,29.14-63.9,4.64-5.01,9.98-9.28,15.59-13.16-.65,3.36-1.28,6.7-1.89,10.05-4.69,25.97-8.97,53.76-8.46,81.07.3,15.86,2.38,30.59,6.19,43.81h0s.06.19.06.19c.03.1.06.22.09.32.01.03.03.04.04.06l.15.48c-.25.08-.5.16-.75.26-7.22,2.85-12.72,9.53-14.32,17.28-1-3.91-2-7.9-2.82-11.92-.87-4.27-1.53-8.6-1.76-12.95-.13-2.34-.08-4.67.06-7.01.08-.07.14-.16.14-.29l-.05-.96c.44-5.6,1.45-11.16,2.46-16.6l.32-1.75c.9-4.9,1.89-9.95,2.94-15,.03-.11-.01-.23-.1-.31-.22-.19-.65-.06-.7-.04-.29.09-.38.25-.41.36-1.7,8.19-3.46,16.99-4.84,25.99,0-.08-.03-.16-.04-.24l-.3-6.25c-.05-.98-.1-1.96-.16-2.95-.21-3.93-.43-7.99-.26-11.97.44-9.93,4.85-18.56,9.11-25.69l.08-.15-.07-.13c-.1-.16-.31-.17-.37-.17-.22-.01-.64.06-.79.31-4.23,7.09-8.63,15.67-9.16,25.52-.15,2.94-.08,5.92.06,8.86-1.23-9.02-2.06-18.19-1.1-27.22.79-7.44,2.75-14.48,4.57-20.38,2.12-6.86,4.16-12.33,6.44-17.19,3.24-6.91,6.97-12.57,11.41-17.31.22-.24.17-.48.02-.62-.23-.21-.74-.23-1,.04-9.33,9.97-14.21,22.78-17.41,32.82-1.84,5.76-3.86,12.62-4.91,19.81-.92,6.36-.99,13.17-.21,21.43.6,6.31,1.54,12.69,2.45,18.87.13.84.25,1.69.38,2.54l.36,7.41c-.19,2.25-.26,4.34-.22,6.33.07,4,.55,8.28,1.44,13.1.92,4.9,2.78,12.06,4.01,16.85-.45,5.68.99,11.07,2.9,17.39.69,2.28,1.35,4.63,1.99,6.91h0c.64,5.43-3.83,9.75-6.46,14.01-2.65,4.29-4.66,8.96-5.99,13.82-1.35,4.92-2,10.04-1.9,15.14.1,5.47,1.24,10.73,2.61,16,1.64,6.3,3.36,12.72,2.48,19.28-.04.25.69.11.72-.11,1.5-11.21-4.24-21.79-4.98-32.85-.72-10.75,1.93-21.72,7.51-30.93,2.26-3.74,5.96-7.51,6.67-11.97.84,2.96,1.69,5.96,2.64,8.93-1.61,1.49-2.91,3.22-4.07,5.05-1.91,2.44-3.56,5.07-4.51,8.02-1.03,3.19-.89,6.33-.05,9.35-.53.93-.97,1.89-1.35,2.87,0,.01,0,.02-.01.04-2.7,5.79-3.28,12.27-1.82,18.56,1.82,7.83,5.96,15.5,4.41,23.75-.03.16.68.05.71-.13,1.5-7.97-2.27-15.37-4.18-22.91-1.25-4.93-1.31-9.96-.08-14.73.8-1.99,1.7-3.96,2.87-5.71.56,1.52,1.27,3,2.08,4.44,2.84,5.07,6.19,9.8,8.75,15.03,1.22,2.47,2.33,5,3.32,7.57.09.22.17.44.25.65,1.06,2.79,1.99,5.63,2.78,8.51,1.76,6.41,2.84,12.98,3.25,19.61.01.21.74.07.72-.2-.6-9.8-2.7-19.5-6.24-28.66,2.87-4.39,5.43-9,7.64-13.78.14.06.28.11.42.15.84.31,1.71.47,2.55.47.26,0,.52,0,.77-.04,1.69-.19,3.21-1.11,4.31-2.64.03-.06.07-.11.1-.17.72-1.08,1.1-2.35,1.1-3.66,0-.06,0-.13,0-.19,1.9,1.32,3.63,2.88,5.36,4.4,2.22,1.96,4.48,3.95,7.1,5.37,2.98,1.61,6.24,2.06,9.58,2.17,3.29.1,6.92-.43,8.96-3.31,0,0,0-.01,0-.02,8.24,12.69,8.12,28.56,14.04,42.21,1.59,3.66,3.61,7.1,6.23,10.12.04.04.2-.02.16-.07-10.02-11.59-10.41-27.68-15.15-41.57-1.35-3.95-3.08-7.76-5.41-11.23,0,0-.02,0-.03,0,.22-.03.46-.16.4-.29-.64-1.35-.41-2.88-.32-4.32.1-1.59.21-3.19.31-4.78.02-.28-.71-.14-.72.1-.11,1.66-.21,3.31-.32,4.97-.09,1.41-.3,2.92.33,4.24.04.08.14.1.25.1-.05.01-.08.04-.07.07.07.11.13.22.2.33-.18-.04-.5.03-.59.15-1.53,2.15-4.05,2.85-6.58,2.92-2.27.06-4.66-.09-6.87-.62-3.59-.86-6.58-3.11-9.33-5.47-2.5-2.14-4.87-4.44-7.62-6.25-.02-.13-.05-.27-.08-.39-.06-.3-.15-.6-.39-.8-.37-.31-.98-.26-1.36.1-.01.01-.01.02-.01.02,0,0,0,0,0,0,0,0,0-.02.01-.02-.15-.08-.29-.16-.44-.23-2.86-1.5-5.89-2.64-8.4-4.72-.19-.16-.87.12-.67.28,2.64,2.19,5.82,3.35,8.81,4.95.1.05.21.1.31.16.02.01.05.03.07.04-.04.06-.06.13-.08.2-.11.35-.12.74-.13,1.12,0,.47-.03.91-.21,1.25-.48.93-1.43,1.66-2.47,1.92-.79.2-1.58.16-2.31-.04-.14-.04-.28-.09-.41-.14.04-.09.08-.17.11-.26.71-1.68,1.38-3.37,2-5.09.1-.25-.63-.17-.72.09-.59,1.62-1.21,3.22-1.88,4.8-.03.07-.06.15-.09.22-.8-.39-1.5-.96-2.01-1.57-1.49-1.79-2.05-4.3-1.59-7.08.2-1.22.58-2.46,1.13-3.68.04-.1.14-.26.25-.44.39-.64.87-1.45.64-1.96-.07-.14-.22-.32-.56-.38-.6-.09-1.45.34-1.87.66-.4.29-.7.63-.93.99-.03.04-.05.09-.08.13,0-.13-.03-.24-.09-.34-.04-.06-.09-.13-.13-.19-3.98-5.78-6.73-12.32-8.98-19.05-.09-.27-.18-.55-.27-.82.04-.04.08-.09.12-.13.1-.11-.03-.15-.21-.14-.05-.14-.09-.29-.14-.44-1.12-3.46-2.13-6.97-3.12-10.44h0c-.02-.08-.04-.15-.06-.22-.04-.13-.07-.27-.11-.4-.79-2.77-1.61-5.63-2.47-8.37-2.81-9.05-4.88-20.58,4.23-29.57,5.1-5.04,11.8-7.28,17.9-6,3.6.77,6.96,2.8,9.73,5.89h.01l.18-.16s-.02-.06-.02-.11c0-.11.03-.27.05-.39.06-.29.12-.58-.03-.75-3.31-3.7-7.6-5.84-12.11-6.21.06-.09.04-.16.03-.19-9.22-25.07-6.63-52.2-3.48-75.66,2.84-21.2,6.78-42.47,11.75-63.42,0,0,0,0,0,0l.1.03c.08.03.17.04.28.04.24,0,.52-.07.67-.2,9.19-8.07,19.56-14.56,30.82-19.27.26-.11.41-.27.43-.47v-.3s-.19-.13-.19-.13c-.2-.15-.54-.18-.81-.06-1.54.65-3.06,1.33-4.57,2.04-1.14-.92-2.36-1.69-3.64-2.35-4.11-2.49-8.83-3.88-13.67-3.97-.15,0-.82.27-.47.28,3.17.06,6.28.7,9.21,1.83,2.55,1.36,5.1,2.91,7.12,4.91-9.04,4.41-17.45,9.97-25.04,16.6,0,0,0,0,0,0,1.08-4.5,2.2-8.98,3.37-13.44,3.76-14.32,8.07-28.73,12.82-42.82,13.82,4.76,29.46,10.15,44.02,14.44,13.43,3.97,27.9,7.76,42.69,8.65,8.13.48,15.83.02,22.89-1.36,4.18,12.25,15.09,21.89,33.37,29.44,4.67,1.93,9.46,3.61,14.1,5.24.03.01.06.02.1.02.26,0,.7-.22.74-.33l.04-.12-.12-.04c-14.66-5.15-31.28-10.99-41.56-24.03-2.58-3.28-4.54-6.89-5.81-10.74,1.87-3.86,1.94-8.03.23-11.43,4.96-3.37,11.97-2.71,16.48,1.23t0-.02c3.31,2.68,7.05,4.33,11,5.48.09.03.18.05.27.08,1.36.39,2.75.72,4.15,1.02.08.02.17.04.25.06,1.6.34,3.22.65,4.84.94.08.02.17.03.25.05,1.38.25,2.77.5,4.14.77h.01c.08.01.16.03.24.05,2.96.58,5.88,1.25,8.66,2.22,1.51.53,2.99,1.15,4.42,1.87,0,0,0,0,.01,0h.01s.01.02.02.02c0,0,0,0,0,0h0s0,0,.01,0c1.36.68,2.66,1.44,3.93,2.27h0s.06.09.14.12c.02.01.05.02.07.03,6.65,4.46,11.86,11,14.06,18.81,1.85,6.56,1.56,13.64-1.11,19.93-.07.17.63.1.72-.11,4.63-10.9,1.99-23.67-5.69-32.49-1.18-1.36-2.46-2.62-3.82-3.78,5.02,2.48,10.6,3.82,15.27,7.01,4.45,7.5,2.6,16.83.74,24.81-.08.32.66.22.73-.07,1.88-8.09,3.76-17.06-.74-24.65,1.78.6,3.47,1.4,5.05,2.4h.02s3.17,2.71,3.17,2.71v.04c.92,7.42-.6,14.98-4.29,21.48-.2.36.54.37.7.09,3.58-6.32,5.11-13.63,4.42-20.85,2.45,2.05,5.58,3.13,8.76,3.13.2,0,.39-.01.59-.02.7-.02,1.41-.1,2.11-.24.07,0,.13-.04.17-.07.22-.04.35-.07.35-.07l7.98,6.32c2,1.57,4.06,3.2,4.6,5.8.37,1.81.13,3.7-.27,5.58-.1.05-.18.11-.23.16-.12.15-.1.34.05.45.01.01.03.02.04.03-.13.57-.27,1.13-.42,1.69l-.19.76c-.78,3.14-1.72,6.28-2.64,9.32l-.02.08c-.06.21.05.4.26.46.06.02.13.03.2.03.29,0,.66-.15.74-.43l.02-.06c.97-3.21,1.96-6.52,2.77-9.83l.13-.54c.06-.22.11-.45.17-.68,5.56,4.38,11.95,9.83,12.84,17.72.51,4.56-1.4,8.41-3.43,12.49-1.12,2.24-2.25,4.54-2.95,6.97-.7-1.37-1.43-2.73-2.19-4.07-1.46-2.59-3.02-5.12-4.7-7.58-.7-1.03-1.43-2.03-2.17-3.03,1.07.02,2.19-.67,2.99-1.28,1.51-1.16,2.94-2.43,4.28-3.79.3-.31-.41-.32-.59-.14-1.1,1.12-2.26,2.17-3.48,3.16-.93.75-2.41,2.1-3.68,1.38-.68-.91-1.4-1.79-2.11-2.68,2.34-.22,4.52-1.65,5.56-3.79.17-.36-.56-.35-.69-.07-.96,1.99-3.05,3.34-5.26,3.36-.09-.11-.17-.22-.26-.33-4.2-5.05-8.96-9.63-14.27-13.51-.25-.19-.89.17-.55.42,5.41,3.96,10.12,8.56,14.28,13.61,0,.01-.02.02-.03.04-.07.16.06.28.22.29.02,0,.05,0,.07,0,4.8,5.87,8.83,12.35,12.27,19.18-.03.12-.06.24-.08.35-.02.12.02.24.11.32.09.08.22.11.34.11,0,0,.01,0,.02,0,4.47,9.03,7.93,18.62,10.72,28.17.03.12.07.24.1.35.98,3.36,1.9,6.74,2.78,10.14.44,1.7.87,3.39,1.29,5.09.42,1.69.93,3.39,1.25,5.1.29,1.56,1.01,3.09,1.68,4.52.69,1.47,1.46,2.91,2.22,4.35,1.12,2.13,2.27,4.24,3.34,6.38-.15-.01-.29-.03-.44-.04-1.54-.93-3.55-.22-5.15.15-1.11.26-2.22.52-3.32.77-.51.12-1.08.19-1.58.39-.17.07-.32.16-.43.29-.24.06-.47.12-.71.18,0,0,0,0,0-.01-.04-.15-.32-.09-.41-.07-.46.11-.92.25-1.37.39,2-1.01,4.14-1.72,6.36-2.1.13-.02.4-.09.41-.27,0-.16-.19-.21-.32-.19-3.25.55-6.34,1.76-9.1,3.55-.34.16-.66.35-.99.52-.07.03-.13.05-.2.08-1.01.45-1.99.97-2.94,1.53,1.23-.95,2.58-1.75,4.03-2.35.13-.05.27-.22.18-.36-.1-.15-.35-.1-.49-.05-1.83.76-3.53,1.82-5.02,3.12-.08-.12-.28-.19-.47-.07-1.98,1.19-3.69,2.75-5.06,4.58-1.04,1.12-1.91,2.38-2.61,3.74-.12.17-.25.33-.37.5-.12.17-.13.33-.09.48-.09.21-.18.42-.26.64l-.04.04s-.05.05-.06.08c-.02.02-.02.05-.01.08,0,.02.02.02.03.03-.07.18-.14.37-.2.55,0,0,0,0,0,0-.05.13-.11.25-.15.38-.02.05,0,.08.02.11-.12.34-.21.69-.27,1.05-.03.17.04.3.15.39-.09.28-.01.58.36.84,2.48,1.71,5.49.39,7.76-1.03,2.69-1.69,5.11-3.77,7.78-5.5,1.82-1.18,3.72-2.23,5.68-3.18.1,0,.2-.03.28-.08.09-.07.18-.12.27-.19.11-.05.22-.1.33-.15,3.47-.79,7.09-1.54,10.63-1.19.21.06.42.13.63.19-.09.01-.18.04-.25.06-.03.01-.33.15-.22.21l1.18.61c.2.71.38,1.42.52,2.14.92,4.61.19,8.93-1.25,13.35-1.42,4.33-2.92,8.65-4.39,12.97-.28-.03-.56-.06-.85-.08-.02-.01-.04-.02-.06-.03-2.34-1.69-5.25-2.62-8-3.31-.46-.11-.92-.2-1.37-.28.03-.04.04-.07-.03-.09-.39-.08-.78-.11-1.18-.09-.55-.07-1.1-.12-1.65-.15,0,0-.02,0-.03,0,.01,0,.03,0,.04,0,.36,0,.72-.02,1.08-.03.13,0,.3-.09.32-.23.02-.15-.15-.19-.27-.19-.32,0-.63.02-.94.02,0,0,.03-.01.04-.02.08-.11-.07-.13-.15-.13-.99-.02-1.98.06-2.96.21-.45-.04-.9-.08-1.35-.09-7.24-.15-14.2,2.51-20.37,6.1-.17-3.34-.05-6.68.53-10.01.03-.16-.68-.04-.71.13-.61,3.49-.71,6.99-.5,10.48,0,.06,0,.12.01.18.24,4.13.88,8.25,1.57,12.33,1.2,7.13,2.4,14.27,4.13,21.3,1.71,6.95,3.95,13.8,7.2,20.19,2.97,5.82,7,11.65,6.89,18.46-.1,6.98-4.33,13.8-10.7,16.73-.44.2.24.16.41.08,5.2-2.39,9.03-7.18,10.44-12.71,1.66-6.53-.84-12.55-3.9-18.24-1.72-3.22-3.44-6.42-4.84-9.8-1.43-3.44-2.62-6.98-3.63-10.56-2.01-7.09-3.34-14.34-4.59-21.59-.87-5.06-1.83-10.19-2.21-15.34.17,0,.34-.02.52-.06v.02s-.07.05-.07.08c.25,1.93.69,3.84,1.33,5.69-.12.11-.23.21-.31.29-.21.19-.32.3-.32.3l.99-.16.11-.02c2.89-.45,5.82-.63,8.75-.47,2.85.16,5.64.71,8.46,1.11,4.11.58,8.21.35,12.3-.11,1.13.06,2.26.12,3.38.18.14,0,.32-.04.38-.18.06-.12-.05-.22-.17-.22-.33-.02-.65-.04-.98-.05.57-.03,1.14-.05,1.71-.07.04,0,.09-.01.14-.02.09.33.18.65.26.98-.04.03-.08.06-.06.11,1.87,6.09.32,12.96-4.01,17.64-.14.15.19.18.28.08,2.83-3.06,4.49-7.03,4.8-11.13.12,1.87.1,3.75-.06,5.62,0,0,0,0,0,0-.03.04-.06.09-.06.14-.29,8.97,2.72,17.48,4.47,26.16.96,4.74,1.4,9.51.97,14.34-.43,4.75-1.52,9.41-2.71,14.02-4.93,19.05-10.09,38.08-17.85,56.21-7.57,17.7-17,34.48-25.13,51.92-1.8,3.86-3.58,7.8-6.16,11.22-2.39,3.18-5.47,5.72-9,7.56-6.78,3.52-14.61,4.46-22.15,4.62-18.16.37-36.36-2.59-53.84-7.34-2.32-.63-4.63-1.29-6.93-1.98-.32-.1-.85.37-.41.5,18.09,5.41,36.57,8.84,55.47,9.34,7.48.2,15.16-.1,22.36-2.33,7.24-2.24,13.15-6.56,17.08-13.08,2.23-3.69,3.87-7.68,5.76-11.54,2.16-4.43,4.39-8.83,6.61-13.23,4.52-8.97,9.06-17.93,13.26-27.05,4.16-9.05,7.94-18.26,11.08-27.71,3.11-9.34,5.73-18.84,8.27-28.36,2.54-9.54,5.75-19.36,5.15-29.35-.54-9.12-3.96-17.73-5.17-26.75-.32-2.39-.46-4.8-.39-7.21,0-.1-.04-.16-.11-.2.38-4.48-.02-8.98-1.19-13.32.21-.01.41-.03.62-.03.11.01.33-.04.38-.14.06-.12-.05-.13-.14-.14-.11,0-.22,0-.33,0,.03-.02.07-.03.09-.05.09-.09-.09-.1-.14-.1-.08.01-.15.01-.23.01.06-.02.14-.05.2-.08,0-.01.07-.04.07-.08-.02-.08-.29,0-.31,0-.03.01-.06.02-.09.02.04-.02.08-.05.11-.07.04-.03.1-.08.11-.14,0-.05-.02-.1-.07-.13-.12-.06-.3-.03-.41.05-.02,0-.03.02-.05.03.23-1.48.57-2.94.99-4.38.01.02.03.04.07.04.55.07,1.11.13,1.66.19.13.02.3-.03.41-.11h.02s.01-.01.01-.01l.49-.16-.53-.05c.06,0,.11,0,.17.01.14,0,.3-.03.41-.11.03-.02.08-.05.07-.09-.01-.04-.07-.05-.1-.05-.04,0-.07,0-.11-.01.09-.02.3-.06.33-.17.02-.04-.01-.05-.05-.07.14-.03.27-.07.4-.12.08-.04.24-.15.15-.25-.09-.1-.28-.06-.39-.02-.03.02-.07.03-.11.04.05-.01-.02.01-.03.02-.07.02-.13.03-.2.05-.01,0-.02,0-.03.01-.03,0-.06.01-.09.01-.07.01-.14.02-.2.02h-.05s-.07.01-.07.01t.01-.01c.36-.05.71-.13,1.06-.26.05-.02.24-.1.16-.19-.07-.08-.3,0-.37.02-.25.1-.52.15-.78.19,0-.05-.02-.1-.05-.14.19,0,.39-.02.58-.04.11,0,.3-.08.32-.21.02-.06-.02-.1-.07-.12,0-.02.02-.04,0-.06-.08-.08-.3,0-.38.02-.03.01-.07.02-.1.03-.34.02-.68.04-1.01.06-.06,0-.11-.02-.16-.03.56-.01,1.11-.06,1.66-.18.09-.02.28-.1.25-.22-.02-.12-.25-.08-.32-.06-.22.05-.44.06-.65.09.02-.01.04-.03.06-.04.11-.02.22-.04.33-.06.1-.01.3-.06.33-.19.03-.11-.16-.12-.23-.11.23-.3.18-.59-.37-.64-.43-.04-.84-.11-1.26-.19.04,0,.08.01.12.01.05,0,.12,0,.18-.03.09-.01.18,0,.27-.01.1-.01.31-.07.33-.19.02-.13-.17-.13-.25-.12-.08.01-.16.01-.25.02-.02-.01-.04-.02-.06-.02-.18-.02-.36-.04-.54-.07.08-.02.16-.06.19-.14.06-.12-.05-.2-.17-.21h-.06c.07-.08.06-.16-.06-.18-.08,0-.16-.02-.24-.03,1.53-4.51,3.13-9.02,4.58-13.55,1.33-4.15,1.98-8.26,1.19-12.59-.15-.79-.33-1.57-.54-2.34.09-.05.22-.13.14-.17-.07-.04-.15-.08-.22-.12,0-.02-.01-.04-.02-.07.15.07.3.12.44.2.1.06.22.05.33.03.16.1.32.2.49.31.15.09.39.04.52-.05.11-.08.2-.24.05-.33l-.45-.28c.11-.02.22-.07.31-.12.21-.04.44-.16.42-.24.22-.08.43-.22.26-.28Zm-289.42,100.82c.24-.45.54-.85,1-1.18.39-.29,1-.57,1.39-.57.03,0,.07,0,.1.01.15.02.17.07.18.09.13.27-.37,1.1-.61,1.49-.12.21-.23.38-.28.5-.57,1.25-.96,2.53-1.17,3.8-.48,2.92.13,5.58,1.71,7.48.71.86,1.62,1.5,2.59,1.88.2.08.4.15.6.2.87.25,1.78.28,2.62.07,1.18-.29,2.25-1.12,2.79-2.16.24-.45.25-.97.27-1.47,0-.12,0-.24.01-.35v-.06c.01-.17.03-.34.07-.49.05-.2.13-.37.25-.52h.01c.2-.22.55-.27.73-.12.11.1.17.27.21.44.01.03.01.05.02.08.01.06.02.11.03.17.02.12.05.24.06.36.01.06.02.13.02.2.01.07.01.14.02.21.07,1.33-.28,2.64-1.01,3.73v.02s-.07.09-.12.17c-.99,1.37-2.38,2.22-3.93,2.39-1,.12-2.04-.02-3.05-.38-.14-.04-.28-.09-.41-.16-.06-.02-.12-.05-.18-.08-.13-.06-.27-.12-.4-.19-.67-.32-1.32-.76-1.93-1.28-2.34-2.03-3.55-5.44-3.16-8.89.13-1.18.44-2.45.95-3.87l.03-.11c.08-.21.15-.42.23-.62.11-.28.22-.54.36-.79Zm-7.09-11.55c.18.42.37.85.56,1.29,1.49,3.48,3.16,7.39,5.51,10.22.09.12.2.24.3.36h.01s0,.03-.01.04c-.12.29-.23.58-.34.88l-.04.11c-.51,1.46-.83,2.76-.97,3.98-.4,3.62.87,7.19,3.34,9.33.64.56,1.33,1.01,2.04,1.36-2.11,4.64-4.57,9.1-7.33,13.38-.58-1.48-1.2-2.95-1.86-4.4-2.32-5.1-5.18-9.82-8.14-14.55-1.59-2.53-3.15-5.21-4.14-8.05-.2-.57-.38-1.15-.53-1.74-.51-2.01-.69-4.09-.36-6.24.56-3.58,2.29-6.74,4.45-9.62,1.35-1.62,2.81-3.16,4.47-4.4.9,2.73,1.9,5.43,3.04,8.05Zm162.57-253.44s.08.06.12.09c0,0,0,0,0,0-.04-.03-.07-.06-.11-.09Zm-6.14-2.6c-.37-.43-.74-.86-1.11-1.3.22.08.42.18.64.27,0,0,0,0,0,0,.28.42.63.8,1.02,1.11-.18-.04-.37-.06-.55-.09Zm-3.75-.11c-.65-.94-1.31-1.89-1.96-2.83.21.05.41.11.61.17.63.87,1.26,1.75,1.88,2.62-.18.01-.35.03-.53.05Zm-105.99-16.7c.18-.71,1.07-1.11,1.72-1.36,4.99-1.83,11.1-1.4,16.48-1.03l1.43.1c22.47,1.51,42.21,5.17,58.68,10.86l.47.16c5.26,1.81,14.07,4.85,16.24,10.2.31.77.49,1.59.56,2.45-.13-.25-.27-.5-.45-.74-2.8-4.04-7.5-6.16-12.16-7.87-9.31-3.39-18.97-6.13-28.71-8.15-.04,0-.09-.02-.13-.03-.04-.01-.07-.01-.12-.02-.04,0-.08-.02-.13-.03h-.01s-.07-.04-.1-.02c-2.44-.51-5.03-1-7.68-1.43-.09-.03-.18-.04-.25-.05-.04,0-.08-.01-.12-.02-.09-.09-.18-.18-.28-.28-.05-.05-.18,0-.13.07.06.06.11.11.17.17-.19-.03-.38-.06-.57-.1l-.58-.09c-1.22-.2-2.45-.39-3.66-.56-.09-.02-.17-.04-.24-.04h-.01c-3.03-.45-5.72-.82-8.21-1.11-.07-.01-.16-.02-.21-.02-1.17-.14-2.46-.28-3.98-.43-.06,0-.12-.01-.19-.02-3.17-.3-5.99-.5-8.63-.62-.06,0-.11,0-.19-.01-1-.04-1.89-.07-2.68-.08-.08-.01-.15-.01-.23-.01-.02,0-.05,0-.07,0l-.21-.21s-.16.02-.14.05l.15.15c-1.99-.04-3.99-.04-5.94,0-.07,0-.15,0-.19.01-.02,0-.03,0-.05,0-.07-.07-.15-.15-.22-.22-.04-.04-.17.02-.13.06l.17.17c-.43.01-.85.03-1.28.04-.07,0-.15,0-.19.01-.02,0-.04,0-.06,0-.01-.01-.02-.02-.03-.03-.02-.03-.13.02-.13.04-.5.02-1,.04-1.5.08h-.1s-.01,0-.01,0c-.05.01-.11.02-.14.03,0,0,0,0-.01,0-.05-.05-.1-.11-.16-.16-.05-.04-.19.02-.13.07.04.04.08.08.12.12-.82.15-4.37.84-5.38,1.44-.32-.45-.61-1.03-.48-1.56Zm21.97,12.21c-3.94-3.94-7.88-7.88-11.82-11.82,1.03-.02,2.06-.03,3.1-.03l11.9,11.9s.18-.01.13-.06l-11.83-11.83c.88,0,1.77.01,2.65.03.06,0,.12,0,.21.01.02,0,.04,0,.06,0,3.86,3.86,7.73,7.73,11.59,11.59.03.03.16-.02.14-.05-3.84-3.84-7.69-7.69-11.53-11.53.74.01,1.54.04,2.41.07.09.01.15.01.23.01.02,0,.04,0,.06,0,5.3,5.3,10.61,10.6,15.9,15.9-4.43-1.27-8.83-2.66-13.18-4.18Zm-2.51-11.71c1.32.06,2.7.15,4.14.25,0,0,0,0,0,0,5.19,5.19,10.38,10.38,15.57,15.57.03.04.17-.02.13-.06-5.17-5.17-10.34-10.34-15.5-15.5,1.27.09,2.57.2,3.96.34.09,0,.16.02.23.02.03,0,.06,0,.09,0,6.06,6.06,12.13,12.11,18.19,18.16-3.64-.85-7.26-1.8-10.85-2.83-5.33-5.32-10.65-10.64-15.97-15.97Zm27.08,18.86c-6.09-6.06-12.15-12.12-18.24-18.2,1.35.13,2.55.27,3.67.4.06,0,.11.01.17.02.03,0,.07,0,.1.01,6.3,6.26,12.58,12.52,18.89,18.79-1.53-.32-3.06-.66-4.59-1.02Zm-46.07-17.41l.19-.16c.07.08.04.19.01.22.34-.34,4.1-1.21,5.49-1.43.04-.02.07-.02.09,0l.05-.02c2.45,2.46,4.9,4.9,7.35,7.35.05.05.18-.01.13-.06-2.43-2.43-4.87-4.88-7.3-7.31.51-.03,1.03-.06,1.58-.08.05-.01.09-.01.15-.01.02,0,.04,0,.05,0,3.41,3.33,6.84,6.66,10.25,10,.03.02.16-.03.14-.05-3.41-3.32-6.8-6.64-10.2-9.96.43-.02.86-.03,1.31-.04.04-.01.08-.01.12-.01h.03s.03,0,.05,0c3.91,3.91,7.81,7.81,11.72,11.72-3.38-1.17-6.74-2.41-10.07-3.72-10.07-3.72-11.14-6.44-11.14-6.44Zm50.93,18.49c-6.31-6.27-12.63-12.55-18.94-18.82,2.41.28,4.99.63,7.92,1.07.05,0,.1.01.19.03.04,0,.07.01.11.02,4.27,4.28,8.54,8.54,12.82,12.81.05.05.18-.01.13-.06-4.24-4.25-8.48-8.48-12.73-12.72,1.13.16,2.24.34,3.35.51l.58.1c.3.05.61.1.93.16.07.01.14.02.23.04.04,0,.07.01.11.02,2.63,2.63,5.26,5.25,7.89,7.89.05.05.19-.02.13-.07l-7.78-7.78c2.63.43,5.17.91,7.56,1.41.04,0,.09.02.13.03.04.01.07.01.12.02.04,0,.08.02.13.03.92.93,1.85,1.86,2.77,2.78.05.05.19-.01.14-.06-.89-.89-1.78-1.78-2.67-2.67,9.6,2.01,19.12,4.72,28.27,8.06,4.59,1.68,9.21,3.76,11.93,7.68.37.53.84,1.12,1,1.78,0,0,0,.01,0,.02.05.18-.01.38-.11.54-.06.12-.14.23-.23.33-.18.23-.39.43-.61.61-.02.02-.04.03-.06.04-.01,0-.03,0-.04.02,0,0,0,0-.01.01-.08.03-.16.06-.24.09-.18.07-.37.13-.56.18-.37.09-.75.14-1.13.18-.83.09-1.67.1-2.51.08-.23-.01-.45-.01-.68-.02-1.18-.04-2.37-.08-3.55-.12-3.64-.12-7.28-.34-10.91-.66-7.96-.71-15.87-1.92-23.68-3.56Zm43.99,3.21h0s-.02.04-.03.05c.02-.01.03-.03.03-.05Zm-.59.55s-.09.05-.11.06c0,0,0,0,0,0,.04-.02.08-.04.12-.06Zm7.54-10.7s0,0,0,0c0,0,0,0,0,0,.73,1.11,1.46,2.22,2.19,3.34.02.04.16-.02.14-.04-.72-1.09-1.43-2.18-2.15-3.27,0,0,0,0,0,0,.16.02.31.05.46.08.74,1.07,1.49,2.13,2.23,3.2-.61.1-1.23.23-1.83.41-.74-1.27-1.48-2.54-2.22-3.82.38,0,.78.04,1.17.1Zm.85.15s0,0,0,0c.21.05.42.1.61.16.67.97,1.34,1.94,2.02,2.91-.15.02-.3.04-.45.07-.73-1.04-1.45-2.09-2.18-3.13Zm3.46,2.96l-1.79-2.5s0,0,0,0c.24.08.48.17.72.25,0,0,0,0,0,0,.52.76,1.04,1.51,1.56,2.27-.17,0-.34,0-.51.02.01-.01.02-.03,0-.04Zm-6.9,2.21s0,0,0,0l-.04-.06-.64-1.19-.02-.04c.15.17.31.35.46.52.07.08.14.15.21.23.03.04.2.18.2.23.03.03.05.06.08.07.04.01.08-.01.09-.04,0-.03-.02-.06-.04-.08-.35-.41-.72-.8-1.07-1.21-.16-.19-.21-.48-.28-.73s-.13-.51-.14-.78c0-.07,0-.13.01-.2.7.95,1.38,1.9,2.06,2.85-.25.14-.6.29-.87.44Zm1-.5c-.7-.99-1.42-1.97-2.13-2.96t-.03-.01c.01-.11.04-.22.07-.33.83,1.04,1.64,2.07,2.45,3.11-.12.07-.24.13-.36.19Zm.49-.25c-.84-1.08-1.68-2.14-2.52-3.21t0-.02c.06-.11.12-.24.19-.36.81,1.21,1.68,2.36,2.6,3.47-.09.04-.18.08-.26.12Zm.4-.19c-.96-1.12-1.85-2.31-2.65-3.54.08-.12.17-.22.27-.31.89,1.24,1.77,2.49,2.66,3.73-.09.04-.19.08-.28.12Zm.41-.17c-.9-1.27-1.79-2.52-2.68-3.78.09-.08.18-.14.29-.2.87,1.29,1.75,2.59,2.62,3.88-.08.03-.16.06-.23.1Zm.37-.15c-.88-1.31-1.76-2.61-2.64-3.91.14-.06.29-.12.46-.16.85,1.31,1.69,2.62,2.55,3.93-.13.05-.25.09-.37.14Zm.51-.18c-.84-1.3-1.69-2.61-2.54-3.92.12-.03.24-.04.37-.05.08-.01.16-.01.24-.01.75,1.29,1.5,2.59,2.24,3.87-.1.03-.21.07-.31.11Zm4.39-.75s0,0,0,0c-.5-.73-1-1.46-1.51-2.18.25.08.49.17.73.25.6.21,1.19.44,1.78.69.4.47.8.93,1.2,1.4-.27-.04-.54-.07-.82-.09,0,0,.02,0,.03,0,.02,0,.06-.03.04-.06-.09-.11-.17-.23-.26-.34,0-.01-.03-.01-.04-.01-.02,0-.04,0-.06.01-.02,0-.06.03-.04.06.09.11.17.23.26.34,0,0,0,0,0,0-.44-.04-.88-.05-1.32-.05Zm3.23.34s0-.01,0-.02c-.38-.28-.7-.63-.98-1.01,1.04.49,2.04,1.04,3.02,1.64.35.13.69.29,1.03.45-.34-.16-.68-.31-1.03-.45-.66-.26-1.34-.46-2.03-.61Zm4.99,2.2c-.21-.15-.42-.29-.64-.43.22.14.43.28.64.43Zm-.93-.61c-.25-.15-.5-.28-.76-.41.26.13.51.27.76.41Zm5.41,3.68s-.06-.03-.09-.06c0,0-.01-.01-.02-.02,0,0-.02-.01-.03-.02-.13-.07-.22-.21-.31-.31-.12-.13-.23-.27-.34-.41-.36-.48-.63-1.03-.88-1.58-.2-.44-.26-.91.2-1.21.2-.12.44-.19.67-.26.06-.02.48-.17.51-.14,2.33,2.33,4.67,4.67,6.99,7-2.34-.77-4.6-1.73-6.7-2.99Zm6.98,3.08l-7.12-7.12c.91-.22,2.01-.4,2.67-.5,0,.01,0,.03,0,.04,2.92,2.92,5.85,5.85,8.77,8.77-1.46-.34-2.9-.73-4.32-1.19Zm8.61,2.09c-1.35-.25-2.7-.53-4.04-.84-2.96-2.96-5.91-5.92-8.87-8.88.19-.03.33-.05.38-.05,1.11-.09,2.21-.13,3.33-.13,3.35,3.35,6.71,6.71,10.06,10.06-.29-.05-.57-.11-.86-.16Zm1.1.2l-10.1-10.1c1.17,0,2.34.04,3.51.13,3.57,3.58,7.15,7.15,10.72,10.73-1.38-.25-2.75-.5-4.13-.76Zm17.34,4.53s-.06-.03-.09-.04c0,0,0,0,0,0l-12.38-12.38s-.18.01-.13.06c4.06,4.06,8.11,8.11,12.17,12.17,0,0,0,0,0,0-4-1.76-8.24-2.71-12.52-3.53-3.59-3.58-7.18-7.18-10.77-10.76.06,0,.13,0,.19.01,1.31.1,2.62.26,3.93.46,2.93,2.93,5.86,5.86,8.8,8.8.02.02.15-.03.14-.05-2.9-2.9-5.8-5.8-8.71-8.71,1.07.16,2.13.36,3.2.57,0,0,0,0,.01,0,0,0,0,.01,0,.02l9.96,9.96s.18-.02.13-.06c-3.29-3.29-6.58-6.58-9.87-9.87,0,0,0,0,0,0,4,.82,7.96,1.96,11.81,3.12,6.48,1.95,12.83,4.32,19.12,6.84,2.45.99,4.91,1.96,7.36,2.96h-.12c-.06,0-.16.09-.06.09h.4c3.65,1.5,7.27,3.06,10.78,4.81,4.08,2.04,8.13,4.62,10.77,8.42-.91,1.24-2.59,1.07-4.02.95-1.73-.14-3.46-.42-5.17-.76-3.42-.68-6.76-1.69-10.05-2.83-6.55-2.27-13.02-4.77-19.46-7.32,0,0,0,0,0,0,0,0,0-.02,0-.02-4.77-4.77-9.53-9.53-14.3-14.3-.03-.03-.17.02-.13.06,4.72,4.72,9.43,9.43,14.15,14.15-1.63-1.07-3.35-2-5.12-2.81Zm83.55,180.27c-.71-.31-1.41-.63-2.11-.95.72.27,1.43.59,2.11.95Zm-10.76-3.58s0,0,0,0c-.01,0-.03,0-.04,0,.02,0,.03,0,.05,0Zm13.21,13.01c-2.86.58-5.76.77-8.67.88-1.29.05-2.57.07-3.85.06-1.78-.11-3.55-.32-5.34-.61-.16-.02-.32-.05-.48-.07,2.36-1.72,3.56-4.5,3.33-7.26,0-1.15-.25-2.36-.82-3.32,2.93.35,5.79,1.16,8.45,2.44,2.8,1.36,5.35,2.69,8.43,3.23-.46,1.52-.81,3.07-1.05,4.65Zm5.95-39.59c-.11-.01-.22-.02-.33-.02.11,0,.21,0,.32,0,0,0,0,.01,0,.02Zm-1.42-2.73c.12,0,.23.04.34.05.01.03.02.05.03.07-.2,0-.4-.02-.6-.01.08-.03.15-.07.22-.11Zm-5.51.04c1.2-.12,2.4-.11,3.6.06-1.2,0-2.42.12-3.57.3-.34.05-.67.14-1.01.2.26-.13.52-.27.79-.39.13-.06.19-.12.19-.17Zm-20.55,4.72c.69-.69,1.45-1.31,2.25-1.87-.2.2-.4.4-.59.62-.55.42-1.09.85-1.62,1.3,0-.02-.02-.04-.05-.05Zm.25,6.55s-.04.04-.06.06c.88-.9,1.8-1.76,2.75-2.58,4.76-3.7,10.1-6.58,15.8-8.46.32-.07.64-.13.96-.18-.5.24-.99.49-1.48.74-2.21.55-4.35,1.35-6.38,2.35-2.76,1.36-5.32,3.06-7.76,4.94-1.31,1.01-2.58,2.06-3.83,3.13Zm11.68-6.27c-1.17.64-2.32,1.32-3.44,2.04-.39.21-.79.41-1.18.63-.14.08-.19.18-.18.26-1.01.67-2,1.37-2.97,2.1-.27.2-.54.4-.81.6,1.62-1.38,3.29-2.71,5.02-3.95,2.28-1.39,4.6-2.7,6.95-3.95.63-.25,1.26-.49,1.9-.69.9-.28,1.88-.52,2.88-.67-2.81,1.01-5.55,2.21-8.17,3.63Zm6.02-.51c.1-.04.19-.09.29-.13.19-.08.38-.16.58-.24.08.06.28.08.44.03,1.3-.46,2.64-.73,4-.85.02,0,.03.01.05.02.16.03.32.05.48.08,0,.01.01.03.04.04.06.03.14.03.23,0,.25.04.5.09.75.13-2.29.05-4.59.44-6.85.92Zm7.02-1.61c-.25,0-.5.01-.75.03-.01,0-.02,0-.03,0,.48-.07.97-.12,1.46-.16-.23.03-.45.08-.67.14Zm-2.55-.12c1.23-.36,2.49-.58,3.71-.49-1.24.08-2.49.27-3.71.49Zm5.37.95s-.05-.02-.08-.03c-.03-.03-.05-.05-.08-.08-.02-.02-.05-.04-.08-.04-.04-.01-.07-.02-.11-.02-.05,0-.09,0-.14.02-.32-.09-.63-.17-.95-.25.47.05.94.13,1.41.22.02.06.04.12.06.18,0,0-.01,0-.02,0Zm1.33.22s0,0,0,0c-.01,0-.04,0-.05,0-.14-.03-.28-.04-.41-.07-.01-.04-.02-.08-.04-.12.36.09.71.17,1.06.28.04.02.07.05.11.07-.22-.06-.44-.1-.66-.15Z"/>
  <path class="cls-1" d="m472.57,357.12c.15,0,.37-.07.49-.17.37-.31.75-.61,1.14-.9.08,0,.17,0,.22-.04.35-.29.72-.56,1.08-.83,2.33-1.45,4.74-2.77,7.21-3.95,2.54-.99,5.18-1.73,7.85-2.29.45-.09.89-.18,1.35-.27.79-.05,1.59-.05,2.39-.03,1.71.03,3.42.08,5.12.29,2.91.36,5.75,1.26,7.98,3.22.14.12.77-.16.68-.24-2.53-2.23-5.85-3.08-9.14-3.36-1.53-.13-3.13-.25-4.72-.25,5.19-.7,10.57-.42,14.99,2.73.11.08.42-.08.27-.18-4.99-3.54-11.2-3.5-17-2.48-1.14.08-2.27.24-3.36.54-.27.07-.33.17-.23.21-1.31.31-2.61.68-3.89,1.09,2.62-1.14,5.31-2.12,8.06-2.94.44-.13.31-.65-.14-.52-7.1,2.12-13.83,5.3-19.98,9.43-.24.16-.13.32.05.39-.2.16-.4.31-.59.47-.13.11.12.1.17.11Z"/>
  <path class="cls-1" d="m390.06,563.93c-12.36,8.24-24.92,16.64-34.68,27.99-5.42,6.31-10.12,13.28-15.03,19.98-5.1,6.95-10.19,13.91-15.29,20.86-5.78,7.89-11.56,15.78-17.35,23.67-.19.26.54.2.67,0,10.05-13.71,20.09-27.41,30.14-41.12,4.94-6.73,9.73-13.6,14.89-20.17,4.71-6,10.19-11.29,16.12-16.08,6.68-5.4,13.83-10.17,20.97-14.93.41-.27-.22-.35-.45-.2Z"/>
  <path class="cls-1" d="m334.54,220.37c-9.21-1.11-18.18-6.79-25.24-15.99-1.69-2.2-3.2-4.48-4.55-6.73-.03-.06-.07-.12-.11-.18-1.04-1.62-4.21-6.03-5.4-7.67-.14-.2-.26-.37-.34-.47l-.1-.14c4.29,8.72,9.88,18.55,18.89,25.25,4.23,3.15,8.7,5.26,13.3,6.29,2.64.59,5.32.79,7.93.79,2.83,0,5.58-.24,8.12-.5.91-.1,1.82-.2,2.73-.3.54,0,1.11-.12,1.64-.18.57-.06,1.14-.12,1.71-.18,1.13-.11,2.25-.21,3.38-.29,1-.07,2-.13,3.01-.16.07,0,.14,0,.21,0,3.17-.09,6.65-.07,9.6,1.23-1.38-.87-2.93-1.43-4.53-1.74-1.38-.27-2.79-.36-4.19-.35-3.47.04-6.91.42-10.36.8-5.15.57-10.47,1.16-15.7.52Z"/>
  <path class="cls-1" d="m250.21,362.75c3.53,1.18,7.2,1.9,10.93,2.07,3.41.15,6.96-.02,10.19-1.2,5.8-2.12,9.56-7.38,12.95-12.25.26-.38-.41-.52-.61-.23-3.21,4.62-6.74,9.67-12.16,11.84-3.24,1.3-6.91,1.46-10.36,1.29-3.59-.18-7.12-.88-10.52-2.02-.32-.11-.85.36-.41.5Z"/>
  <path class="cls-1" d="m286.73,344.16c-5.08,2.09-8.65,6.33-12.79,9.76-5.28,4.36-11.9,6.27-18.65,4.7-.23-.05-.85.29-.45.39,6.01,1.4,12.41.2,17.49-3.31,5.08-3.51,8.86-8.85,14.69-11.25.47-.19.04-.42-.28-.29Z"/>
  <path class="cls-1" d="m266.38,336.12c4.28,1.52,8.73,2.46,13.26,2.82.27.02.77-.36.28-.4-16.37-1.32-31.33-10.65-39.67-24.8-2.26-3.82-3.99-7.93-5.19-12.2-.07-.25-.79-.05-.72.19,4.46,15.88,16.49,28.86,32.04,34.39Z"/>
  <path class="cls-1" d="m300.95,311.65c-8.17,2.24-17.12,5.33-19.93,13.79-.03.08,0,.19.13.24.04.01.1.02.17.02.24,0,.59-.1.65-.29,2.7-8.13,11.28-11.1,19.11-13.24.33-.09.4-.26.37-.38-.03-.12-.18-.22-.51-.13Z"/>
  <path class="cls-1" d="m226.64,225.93c.3-.24-.42-.18-.57-.06-9.93,7.89-16.79,18.8-21.92,30.26-2.87,6.41-5.25,13.02-7.58,19.65-2.21,6.31-4.32,12.7-7.46,18.61-3.5,6.59-8.42,12.2-14.65,16.34-.31.21.41.16.57.06,5.15-3.41,9.51-7.86,12.82-13.08,3.52-5.57,5.84-11.77,8.02-17.96,4.58-13.03,9.04-26.28,16.62-37.94,3.89-5.97,8.56-11.44,14.15-15.88Z"/>
  <path class="cls-1" d="m275.49,191.63v.24s.17.12.17.12c.1.07.24.09.39.09.22,0,.45-.06.53-.1,8.64-4.04,16.82-9.06,24.37-14.89-1.3,2.9-2.04,6.04-2.12,9.26,0,.18.72.07.72-.19.08-3.43.92-6.8,2.42-9.85.04-.03.09-.07.13-.1l.19-.17-.05-.25c.82-1.57,1.8-3.06,2.96-4.41.19-.22-.53-.16-.67,0-1.08,1.26-2,2.64-2.79,4.09-.27,0-.62.08-.76.2-6.87,5.44-14.31,10.16-22.15,14.09-.75-1.09-1.61-2.06-2.54-2.96-2.3-2.84-5.65-4.7-8.85-6.43-2.46-1.32-4.95-2.59-7.48-3.79-2.27-1.08-4.56-2.1-7.1-2.19-.28,0-.77.41-.28.42,2.67.09,5.07,1.28,7.44,2.42,2.31,1.11,4.59,2.27,6.85,3.49,2.26,1.22,4.61,2.51,6.61,4.18,1.56,1.69,3.02,3.5,4.01,5.51-.55.27-1.09.54-1.65.8-.1.05-.33.16-.36.41Z"/>
  <path class="cls-1" d="m233.04,278.87c8.33,2.22,13.28,9.98,17.17,17.09,1.98,3.62,3.88,7.31,6.31,10.66,2.36,3.26,5.26,6.06,8.66,8.23,3.78,2.42,8.05,3.99,12.49,4.64.22.03.85-.32.45-.38-8.43-1.24-15.93-5.88-20.92-12.77-4.9-6.76-7.66-14.9-13.32-21.14-2.83-3.12-6.28-5.61-10.39-6.71-.22-.06-.85.27-.45.38Z"/>
  <path class="cls-1" d="m304.49,298.09c-6.21,3.33-11.55,8.13-15.51,13.95-.03.05.6.04.71-.14,3.92-5.77,9.2-10.52,15.35-13.82.3-.16-.42-.07-.55,0Z"/>
  <path class="cls-1" d="m304.98,295.05c-5.19,2.84-9.9,6.46-13.96,10.75-.16.17.53.09.66-.04,4-4.22,8.63-7.8,13.73-10.59.42-.23-.24-.22-.42-.12Z"/>
  <path class="cls-1" d="m301.91,294.52c-2.82,1.52-5.42,3.44-7.72,5.68-.3.29.41.28.58.11,2.26-2.21,4.81-4.08,7.59-5.58.12-.07.19-.18.07-.28-.13-.1-.4,0-.51.07Z"/>
  <path class="cls-1" d="m385.51,215.39c-6.94-3.04-13.82-6.24-20.63-9.58-.04-.02-.18.05-.16.06,6.81,3.34,13.68,6.53,20.63,9.58.05.02.18-.05.16-.06Z"/>
  <path class="cls-1" d="m360.13,208.44c6.56,2.87,13.4,5.04,20.42,6.46.04,0,.2-.06.14-.07-7.02-1.43-13.86-3.59-20.42-6.46-.04-.02-.2.05-.14.07Z"/>
  <path class="cls-1" d="m351.26,210.4c8.02,3.1,16.44,4.97,25.02,5.54.08,0,.18-.11.06-.12-8.56-.58-16.97-2.44-24.98-5.54-.07-.03-.2.07-.1.11Z"/>
  <path class="cls-1" d="m342.53,215.15c8.5,1.97,17.4,1.83,26.08,2.16.06,0,.19-.09.07-.1-8.66-.33-17.55-.19-26.04-2.16-.05-.01-.2.07-.11.09Z"/>
  <path class="cls-1" d="m386.55,212.71c-8.62-2.15-14.57-9.59-22.93-12.35-.08-.03-.2.09-.1.12,8.37,2.76,14.33,10.21,22.97,12.36.09.02.17-.11.06-.13Z"/>
  <path class="cls-1" d="m361.2,194.67c10.4.66,17.93,8.57,24.19,16.09.05.06.22,0,.16-.08-6.29-7.55-13.86-15.47-24.29-16.14-.08,0-.18.12-.06.12Z"/>
  <path class="cls-1" d="m364.28,190.69c8.97,4.06,16.99,9.99,23.49,17.38.05.05.21-.01.16-.07-6.51-7.4-14.54-13.34-23.52-17.41-.06-.03-.22.06-.14.09Z"/>
  <path class="cls-1" d="m385.58,201.9c-.06-.03-.21.05-.14.09,3.16,1.72,5.93,4.07,8.13,6.91.04.05.21,0,.16-.07-2.21-2.85-4.99-5.21-8.16-6.93Z"/>
  <path class="cls-1" d="m423.9,208.84c0,.06.17.03.17-.02.61-7.6-1.51-15.33-6.05-21.47-4.23-5.72-10.37-9.86-17.21-11.75-.05-.01-.2.06-.11.09,6.82,1.88,12.95,6.02,17.16,11.72,4.53,6.14,6.64,13.84,6.04,21.43Z"/>
  <path class="cls-1" d="m414.93,207.56c-.53-3.43-1.78-6.65-3.36-9.72-1.57-3.06-3.33-6.16-5.33-8.96-1.93-2.71-4.63-4.43-7.39-6.19-3.34-2.13-6.69-4.27-10.03-6.4-.04-.03-.18.05-.16.06l9.62,6.14c3.04,1.94,5.97,3.78,8.05,6.81,3.74,5.44,7.42,11.72,8.43,18.32,0,.03.18,0,.17-.05Z"/>
  <path class="cls-1" d="m411.82,206.81c-3.91-10.06-11.69-18.36-21.47-22.91-.07-.03-.2.07-.1.11,9.75,4.53,17.51,12.82,21.4,22.84.03.07.2.03.17-.05Z"/>
  <path class="cls-1" d="m382.21,184.42c-.04-.05-.2,0-.16.07,6.64,9.35,15.32,17.11,25.32,22.69.03.02.06.05.09.08.01,0,.03,0,.06,0,.11.06.22.13.34.2.05.03.21-.05.14-.09-.16-.09-.32-.19-.48-.28-6.31-5.39-11.57-11.91-15.49-19.22-.03-.05-.19.01-.17.05,3.82,7.11,8.91,13.47,14.99,18.77-9.71-5.55-18.13-13.15-24.61-22.27Z"/>
  <path class="cls-1" d="m426.4,187.36s-.21.02-.16.07c7.04,7.4,6.39,18.03,4.95,27.47-.13.63-.25,1.26-.33,1.9,0,.02,0,.04.02.04-.02.09-.03.19-.05.28-.01.06.16.03.17-.02.12-.71.23-1.44.35-2.17,1.2-5.68,4.32-11.14,3.07-17.07-.02-.08-.19-.03-.17.05,1.11,5.28-1.26,10.19-2.63,15.22,1.24-8.99,1.41-18.81-5.21-25.76Z"/>
  <path class="cls-1" d="m461.37,222.59c4.54-2.71,7.81-7.3,8.81-12.5.04-.23-.68-.11-.72.11-.97,5.05-4.1,9.59-8.52,12.23-.42.25.23.29.44.16Z"/>
  <path class="cls-1" d="m461.99,212.64c-1.49,2.86-3.83,5.24-6.67,6.75-.44.23-.04.57.31.38,3-1.59,5.48-4.06,7.05-7.08.18-.34-.55-.32-.69-.06Z"/>
  <path class="cls-1" d="m191.68,220.54c-.29-2.63.68-5.24,1.56-7.69.72-2,1.55-3.95,2.49-5.85,1.92-3.9,4.27-7.58,6.98-10.98,5.38-6.75,12.17-12.37,19.83-16.35,4.41-2.3,9.1-4.01,13.96-5.11.43-.1.35-.39-.08-.29-17.23,3.9-32.31,15.66-40.58,31.23-1.19,2.25-2.24,4.57-3.13,6.96-.97,2.62-2.07,5.45-1.76,8.28.02.19.75.04.72-.19Z"/>
  <path class="cls-1" d="m234.94,180.54c-12.85,4.91-24.18,13.61-32.08,24.89-2.46,3.52-4.55,7.35-5.06,11.67-.01.1.7.03.72-.19.56-4.77,3.08-8.95,5.87-12.75,2.55-3.47,5.44-6.7,8.59-9.63,6.44-5.97,14-10.68,22.2-13.81.48-.18.03-.29-.25-.18Z"/>
  <path class="cls-1" d="m234.46,186.99c-12.01,4.48-21.96,13.71-27.31,25.35-.1.21.62.13.72-.09,5.27-11.46,15.06-20.57,26.87-24.97.47-.18.04-.4-.28-.28Z"/>
  <path class="cls-1" d="m228.24,376.3c.31-.28-.4-.28-.58-.12-4.8,4.3-7,10.67-6.99,17.02.02,6.99,2.83,13.57,6.78,19.23,2.48,3.55,5.39,6.77,8.47,9.8.18.18.87-.09.67-.28-9.55-9.41-18.38-22.39-14.13-36.41,1.07-3.54,3-6.75,5.76-9.23Z"/>
  <path class="cls-1" d="m261.36,446.74c.07,0,.13-.02.18-.05,2.62-1.41,4.26-4.44,3.78-7.42-.45-2.85-2.84-5.24-5.66-5.8-2.76-.54-5.84.68-7.5,2.94-1.79,2.43-1.69,5.95.1,8.36,2.02,2.71,5.91,3.44,8.92,2.09.1-.04.15-.09.18-.13Zm-8-1.72c-1.82-1.98-2.29-5.08-1.18-7.52,1.17-2.55,4.06-4.15,6.84-3.69,2.55.42,4.72,2.48,5.41,4.95.83,2.97-.64,6.31-3.34,7.76-.04.02-.07.05-.09.07-.03,0-.07.02-.1.03-2.53,1.13-5.67.45-7.54-1.59Z"/>
  <path class="cls-1" d="m268.91,374.33c8.08-1.4,13.28-8.31,16.9-14.18.12-.19.04-.38-.1-.46-.23-.14-.83-.04-1,.22-3.58,5.8-8.66,12.59-16.21,13.67-8.25,1.18-15.44-4.04-21.98-9.85-.19-.17-.48-.1-.65-.05-.15.05-.42.17-.47.39v.2s.1.1.1.1c5.79,5.15,12.65,10.23,20.38,10.23.98,0,1.98-.08,3-.26Z"/>
  <path class="cls-1" d="m264.6,279.12c-.44-1.71-.68-3.53-.91-5.29-.38-2.89-.78-5.88-2.06-8.54-1.58-3.27-4.63-6.38-9.09-9.25-4.58-2.95-9.19-3.97-13.32-2.96-.19.05-.32.16-.36.3-.04.12,0,.25.08.34.11.11.28.15.47.11,4.16-1.02,8.88.25,13.66,3.68,4.85,3.48,7.59,6.94,8.61,10.89.41,1.59.63,3.26.84,4.87.09.71.19,1.45.3,2.17.37,2.37.9,4.59,1.59,6.61,1.53,4.49,3.82,8.09,6.81,10.7,3.35,2.92,7.34,4.48,11.37,4.48.39,0,.77-.01,1.16-.04.31-.02.51-.28.49-.49-.01-.15-.14-.33-.45-.3-10.02.74-16.87-8.12-19.21-17.26Z"/>
  <path class="cls-1" d="m317.88,275.95c.21-.09.27-.21.28-.29.01-.1-.03-.2-.13-.27-.12-.09-.34-.15-.56-.06-5.35,2.23-9.82,5.84-13.85,9.42-.89.79-1.76,1.58-2.64,2.38-1.23,1.12-2.5,2.27-3.78,3.38-.22.19-.44.39-.67.58-2.27,1.99-4.85,4.25-7.89,4.79-.28.05-.51.31-.47.53,0,.04.05.22.31.22.04,0,.08,0,.12-.01,2.85-.51,5.15-2.24,7.26-3.96,2.02-1.66,3.99-3.44,5.89-5.16l.8-.72c4.8-4.34,9.58-8.43,15.33-10.82Z"/>
  <path class="cls-1" d="m356.43,227.58c.21-.16.24-.32.23-.43-.02-.15-.12-.27-.28-.34-.19-.08-.5-.1-.72.07-12.63,9.28-26.23,17.2-40.44,23.54-3.95,1.76-8.08,3.46-12.27,5.03-.27.1-.35.26-.37.37-.02.14.04.29.16.39.12.1.27.15.43.15.09,0,.17-.01.26-.05,14.67-5.52,28.76-12.6,41.86-21.05,3.71-2.39,7.45-4.97,11.12-7.67Z"/>
  <path class="cls-1" d="m303.95,261.29c-.27.06-.65.36-.14.24,11.68-2.62,22.58-8.09,31.62-15.94.14-.12-.52-.05-.65.07-8.81,7.66-19.43,13.07-30.83,15.63Z"/>
  <path class="cls-1" d="m335.35,254.26c-9.65,8.71-21.24,15.11-33.75,18.64-.44.12-.32.57.12.45,12.69-3.58,24.43-10.07,34.22-18.91.33-.29-.38-.37-.6-.18Z"/>
  <path class="cls-1" d="m298.02,236.09c16.25-4.99,32.96-8.36,49.88-10.05.34-.03.61-.41.11-.36-16.98,1.7-33.76,5.08-50.07,10.09-.42.13-.35.46.09.32Z"/>
  <path class="cls-1" d="m297.65,244.9c17.86-1.18,35.34-6.32,51.01-14.97.43-.24-.2-.41-.46-.27-15.5,8.56-32.8,13.61-50.46,14.78-.38.03-.58.49-.08.46Z"/>
  <path class="cls-1" d="m440.22,418.24c-.14-.05-.67.17-.47.24,3.2,1.17,5.89,3.57,7.42,6.62.08.16.64-.04.58-.16-1.56-3.1-4.28-5.51-7.53-6.71Z"/>
  <path class="cls-1" d="m395.7,310.82c-3.63-.44-7.29-.29-10.87.46-3.6.76-7.02,2.51-10.75,2.54-.83,0-1.11,1.07-.13,1.07,1.58-.01,3.09-.33,4.58-.74.81.38,1.96.07,2.78-.05.65-.1,1.29-.22,1.94-.35-2.01.44-4.04.81-6.07,1.05,0,0,0,0,0,0-.01-.11-.46-.05-.64.08-2.7.28-5.43.32-8.17-.03-.5-.06-1.03.43-.94.76-.08-.03-.16-.04-.23-.07-.4-.14-1.64.43-1.19.65-.06,0-.11-.01-.17-.02-.39-.05-.77.22-.91.51-.02,0-.04,0-.06,0-3.67-.29-7.36-.04-10.74,1.51-.87.4.49.36.84.2,3.4-1.57,7.22-1.35,10.87-.92-4.89.33-9.73,1.26-14.39,2.79-.84.28-.67,1,.19.71,4.83-1.59,9.84-2.51,14.9-2.76-.34.11-.69.21-1.04.33-.14.05-.21.13-.24.2-6.22-.13-12.41,1.54-17.67,4.9-.3.19-.31.32-.2.4-1.18.53-2.36,1.08-3.5,1.69-.87.46-.08,1.16.62.79.38-.2.77-.38,1.15-.57-.91.85-1.75,1.81-2.47,2.91-.41.62,1.06.58,1.37.11,1.44-2.18,3.34-3.78,5.48-4.99,5.02-1.99,10.32-3.24,15.74-3.66.21-.02.39-.1.52-.22.88.02,2.14-.33,2.4-.38,2.46-.44,4.94-.82,7.42-1.14,1.04-.13,2.09-.25,3.13-.35,2.03.04,4.18.05,6.13-.5.31-.02.62-.04.94-.06-.04.05-.09.11-.12.17-.29.59.24.84.79.85,8.47.2,16.94,1.67,24.6,5.42,3.72,1.82,7.2,4.06,10.76,6.17,3.23,1.92,6.63,4,10.29,4.97,2.78.74,5.97.65,8.3-1.04,0,0,.02,0,.02,0,.34-.03.69-.21.81-.54.03-.08.05-.17.08-.26.12-.12.23-.24.34-.37.21-.25.14-.44-.03-.58.22-.72.41-1.44.56-2.17.26-.19.41-.4.32-.6-.05-.12-.11-.23-.16-.35.48-3.03.36-6.13-.38-9.13-.15-.59-1.6-.21-1.45.39.41,1.66.63,3.34.66,5.03,0-.02-.02-.04-.03-.06-.11-1-.34-1.98-.71-2.92-.1-.25-.81-.03-.72.19.14.37.25.74.35,1.12-.22-.19-.45-.36-.67-.55-.19-.53-.39-1.06-.64-1.57-.1-.19-.79.05-.72.19.07.13.12.27.18.41-.53-.42-1.07-.83-1.62-1.22-.38-.68-.77-1.35-1.17-2.01-.13-.21-.81.04-.72.19.16.26.31.53.47.8-.25-.17-.51-.33-.77-.5-.62-1.05-1.34-2.03-2.18-2.92-.21-.22-.9.06-.67.31.5.53.95,1.1,1.37,1.68-.11-.06-.21-.14-.32-.2-1.81-2.1-4.21-3.78-6.54-5.21-.14-.08-.4,0-.55.1-.06-.04-.11-.09-.16-.13-.25-.18-.89.17-.56.41.84.6,1.63,1.27,2.37,1.99-.62-.28-1.25-.54-1.88-.79-1.46-1.84-3.29-3.33-5.48-4.26-.6-.25-1.68.61-.84.97,1.32.56,2.46,1.33,3.45,2.23-1.63-.55-3.28-1.04-4.97-1.43-.16-.04-.79.23-.6.27,2.14.49,4.24,1.12,6.29,1.87.04.05.09.09.14.14-2.32-.84-4.7-1.48-7.14-1.85-.21-.06-.42-.13-.63-.19-.27-.07-.55-.13-.82-.2.06-.11.04-.23-.19-.25-.65-.07-1.3-.13-1.94-.2-2.74-.53-5.5-1-7.97-2.38-.38-.21-1.59.38-1.36.51.7.39,1.42.71,2.16.98-3.2-.26-6.42-.2-9.63.19-.05,0-.1,0-.15,0,.11-.24.03-.48-.41-.53Zm-42.62,10.78c2.97-1.22,6.13-1.93,9.34-2.11-3.13.43-6.34,1.04-9.34,2.11Zm11.15-2.11s-.01-.03-.03-.04c.11,0,.22,0,.32,0-.1.01-.2.02-.3.03Zm77.45,6.45s0,.08,0,.12c0-.04,0-.07,0-.11,0,0,0-.01,0-.02Zm-.84,5.72s.09-.06.13-.1c-.06.23-.11.46-.17.68-.01,0-.03,0-.04,0,.05-.18.08-.38.08-.59Zm-.24-7.62c.06.24.11.47.16.71-.19-.17-.38-.34-.58-.51,0,0,0,0,0,0,.17-.04.37-.13.42-.2Zm-45.66-10.16s.1.01.15.02c-.29,0-.58,0-.86,0,.24,0,.48-.02.72-.02Zm-3.76-2.23c.4,0,.81,0,1.21.01-.17.11-.31.25-.39.42-.07,0-.14-.01-.22-.02-.07-.21-.31-.35-.67-.3.03-.04.05-.08.06-.12Zm-9.45,2.14c-.68.11-1.69.36-2.42.13.78-.23,1.55-.48,2.33-.72,1.54-.21,3.09-.42,4.63-.63-.01.02-.03.03-.04.05-.06.11-.08.19-.08.27-.78.17-1.56.34-2.34.51-.69.15-1.39.28-2.08.39Zm-7.73,2.3c-.68.16-1.36.33-2.03.51-1.16-.13-2.3-.34-3.42-.64,1.83.19,3.65.22,5.46.14Zm-5.92,2.06c.81-.02,1.62-.02,2.43,0-1.33.17-2.67.34-4,.5.52-.17,1.04-.34,1.57-.5Zm4.76.52c-1.04.16-2.07.32-3.11.5-.48.08-.95.17-1.43.26-.1.02-1.22.29-1.8.18,0-.05-.03-.1-.07-.15.19-.04.36-.11.47-.24.02-.03.04-.05.06-.08,2.33-.28,4.67-.58,6.99-.9.88.02,1.76-.01,2.65-.08.02,0,.03,0,.05,0-1.27.16-2.54.33-3.8.52Zm2.75-1.97c-.07,0-.12.03-.18.06-.72,0-1.44-.02-2.15-.07.69-.17,1.38-.33,2.08-.48.31.26,1.09.25,1.37.28.15.02.3.02.46.03-.52.06-1.05.11-1.57.18Zm11.3.56c-.11,0-.21.01-.32.02.17-.08.35-.16.52-.25.22,0,.44.02.65.03-.27.03-.58.09-.85.2Zm2.01-2.92c-2.27.29-4.53.69-6.81,1.06-.47.08-1.13.28-1.43.72-.37.04-.74.09-1.11.13-.28.01-.55.03-.83.03-.24,0-1.72-.04-2.4-.29.27-.06.54-.11.81-.16,2.06-.24,4.11-.61,6.15-1.06,2-.28,4.02-.48,6.03-.63-.13.07-.27.13-.41.2Zm1.22-.7c-.78.05-1.57.1-2.35.17.62-.13,1.23-.27,1.85-.41.27.02.55.02.82.04-.1.07-.21.13-.31.2Zm.93.37c.99-.05,1.98-.08,2.98-.11-1.05.03-2.1.11-3.14.21.05-.03.11-.07.16-.1Zm16.48.41c.11.02.22.04.34.06.03.01.05.03.08.04-.14-.03-.28-.07-.42-.1Zm4.31,7.34c-.36-.16-.72-.29-1.08-.43.93.31,1.85.63,2.77.96,1.78.92,3.53,1.89,5.29,2.88.17.18.34.35.52.53-2.43-1.44-4.9-2.81-7.49-3.93Zm15.01,1.92c.12.06.25.12.38.19.37.19.74.39,1.1.59,0,.03.02.07.02.1-.5-.29-1-.59-1.5-.87Zm6.85,4.15c-1.19-.76-2.39-1.51-3.6-2.24,0,0,0-.02,0-.03,0-.05-.02-.1-.03-.15,1.27.73,2.49,1.52,3.63,2.42Zm-1.41-9.12c-.66-.37-1.32-.73-1.99-1.07-.02-.02-.03-.04-.05-.06.69.37,1.37.73,2.04,1.13Zm-1.31-1.35c-.52-.28-1.04-.55-1.57-.82-.54-.62-1.13-1.19-1.74-1.74,1.16.77,2.28,1.62,3.31,2.56Zm-2.34-.61s.07.07.1.11c-.76-.37-1.53-.72-2.31-1.05-.03-.04-.06-.08-.08-.13.78.33,1.54.7,2.29,1.07Zm-4.09-1.09s.02.02.03.04c-1.05-.36-2.12-.68-3.2-.98-.38-.18-.76-.35-1.14-.51,1.46.4,2.9.9,4.31,1.46Zm1.61,5.26c-1.07-.5-2.14-.99-3.22-1.45-1.46-.62-2.94-1.2-4.43-1.75,2.63.88,5.23,1.9,7.65,3.2Zm-7.88,1.07c-1.01-.4-2.03-.79-3.05-1.15-.75-.38-1.51-.75-2.26-1.11,1.8.69,3.58,1.44,5.32,2.27Zm-8.22-9.69c.61.12,1.22.24,1.83.36-.02.02-.05.03-.07.05-.64-.1-1.28-.19-1.93-.27.07-.04.13-.09.16-.14Zm-.75,2.46c.21.04.42.09.63.13-.01.01-.04.02-.05.03-.02.02-.03.04-.05.06-.21-.06-.42-.11-.63-.17.04-.02.08-.04.11-.07Zm-2.09-3.12c-.15.14-.19.32.11.35.34.03.67.07,1.01.1-.34.01-.69.03-1.03.03-3.07-.33-6.14-.55-9.19-.69,3.04-.23,6.09-.16,9.11.2Zm-7.46,5.21c-2.22-.36-4.46-.63-6.7-.83.53-.02,1.06-.03,1.6-.04,1.73.17,3.43.47,5.1.87Z"/>
  <path class="cls-1" d="m374.56,160.1c.46.59.91,1.19,1.37,1.78.03.04.17-.01.13-.06-.46-.59-.91-1.19-1.37-1.78-.03-.04-.17.01-.13.06Z"/>
  <path class="cls-1" d="m260.25,450.37s-.06.02-.04.04c.04.04.09.09.13.13,0,0,.03,0,.04,0,.02,0,.04,0,.06-.01.01,0,.06-.02.04-.04l-.13-.13s-.03,0-.04,0c-.02,0-.04,0-.06.01Z"/>
  <path class="cls-1" d="m304.76,147.85c4.85,4.86,9.7,9.71,14.55,14.56.03.03.16-.03.14-.05l-14.56-14.56s-.16.03-.13.05Z"/>
  <path class="cls-1" d="m319.39,150.16s-.18.01-.14.06c1.71,1.69,3.43,3.38,5.14,5.07.04.04.18-.01.13-.06-1.71-1.69-3.42-3.38-5.13-5.07Z"/>
  <path class="cls-1" d="m386.84,164.84c1.37,1.36,2.73,2.72,4.09,4.08.04.04.17-.02.13-.06-1.36-1.36-2.72-2.72-4.08-4.08-.04-.04-.18.02-.14.06Z"/>
  <path class="cls-1" d="m428.85,178.83l-10.72-10.72s-.16.02-.14.05l10.72,10.72s.16-.02.14-.05Z"/>
  <path class="cls-1" d="m435.52,182.37c-4.69-4.68-9.37-9.35-14.06-14.03-.03-.03-.16.03-.14.05,4.69,4.68,9.37,9.35,14.06,14.03.03.03.16-.03.14-.05Z"/>
  <path class="cls-1" d="m440.59,184.19c-4.76-4.69-9.52-9.38-14.28-14.06-.03-.03-.17.02-.14.05,4.76,4.69,9.52,9.38,14.28,14.06.03.03.17-.02.14-.05Z"/>
  <path class="cls-1" d="m445.29,186.05s.18-.01.13-.06c-4.6-4.59-9.2-9.19-13.79-13.78-.05-.05-.18.01-.13.06,4.6,4.59,9.2,9.19,13.79,13.78Z"/>
  <path class="cls-1" d="m448.51,184.7c-3.32-3.32-6.64-6.64-9.96-9.96-.03-.03-.17.02-.13.06l9.96,9.96s.17-.02.13-.06Z"/>
  <path class="cls-1" d="m239.31,400.47c.01-.43.34-1,.49-1.4.95-2.62,2.03-5.14,3.62-7.44,1.01-1.46,2.75-3.44,4.74-2.73,1.66.59,2.64,2.52,3.32,4-.46-1-.58-2.31-.83-3.38-.27-1.16-.56-2.33-1.04-3.43-.12-.28-.81-1.26-.33-1.5.44-.22.04-.5-.3-.33-6.12,3.03-10.27,9.43-10.39,16.28-.01.32.72.18.72-.08Z"/>
  <path class="cls-1" d="m396.69,486.4s-.05-.02-.07-.04h-.02s.06.03.09.04Z"/>
  <path class="cls-1" d="m351.77,361.6c.78-.05,1.57-.03,2.36-.09.21-.02.36-.11.41-.25.04-.11,0-.25-.12-.4-.19-.23-.51-.33-.81-.33-.3,0-.6.09-.89.17-2.4.67-4.96.98-7.46.91,1.54.05,3.08.06,4.59.01-3.48.14-6.97.02-10.42-.38.41.04.82.08,1.24.11-1.1-.11-2.19-.24-3.27-.38-2.16-.32-4.32-.73-6.45-1.25-.05-.01-.2.07-.11.09,1.81.45,3.63.81,5.46,1.1,0,0-.03,0-.03,0,.04,0,.08,0,.12.01,2.58.3,5.12.67,7.71.78,2.56.11,5.11.06,7.66-.1Z"/>
  <path class="cls-1" d="m340.67,361.34c1.52.15,3.06.25,4.59.26-1.54-.05-3.08-.14-4.59-.26Z"/>
  <path class="cls-1" d="m349.4,359.19s-.02,0-.04,0c0,0,0,0,0,0,.02.02.03.02.04,0Z"/>
  <path class="cls-1" d="m355.41,355.91c2.2.89,4.58.88,6.87,1.38,2.5.54,4.99,1.15,7.48,1.75,4.97,1.2,9.95,2.41,15.01,3.14,10.27,1.49,20.52,1.64,30.87.94,1.21-.08,2.41-.17,3.62-.28.22-.02,2.01-.1,2.19-.58.04-.11,0-.24-.16-.39-.13-.12-.31-.17-.47-.23-.9-.35-1.82-1.31-2.63-1.86-.97-.66-1.96-1.31-2.96-1.92-2-1.24-4.06-2.38-6.17-3.43-4.21-2.1-8.6-3.82-13.14-5.15-4.22-1.24-8.91-2.26-13.32-2.1-4.6.16-9,1.17-13.39,2.48-4.7,1.4-9.27,3.21-13.69,5.34-.26.13-.57.35-.74.62.13.02.25.05.38.07.04.08.11.16.26.22Zm34.33,3.64c1.35-2.25,1.84-5.66.69-8.14.06.01.11.02.17.04,4.37,1.11,8.79,2.4,13,4.13,2.14.87,4.24,1.87,6.25,3,1.9,1.08,3.61,2.4,5.43,3.58-6.73.44-13.49.59-20.23.19-2.55-.15-5.07-.41-7.57-.75.94-.42,1.73-1.15,2.26-2.05Z"/>
  <path class="cls-1" d="m386.44,340.86l4.55-.03c8.75.48,16.84,4.08,24.12,9.2,4.89,3.43,9.42,7.34,13.99,11.18.07.06.38-.07.33-.12-8.32-6.98-16.76-14.56-27.15-18.26-2.94-1.05-5.9-1.67-8.88-1.96,4.96.21,9.88.99,14.4,3.12,6.37,3.01,11.68,7.99,17.22,12.25.04.03.19-.04.16-.06-5.77-4.43-11.3-9.69-18.04-12.62-4.17-1.82-8.66-2.53-13.18-2.75h.12s-.11,0-.23,0c-.82-.04-1.64-.07-2.47-.08-.94-.04-1.87-.03-2.81,0-2.06-.03-3.95-.06-4.13-.06-15.99,0-31.59,13-31.75,13.14-.21.09.12.09.2.05.05-.02.11-.05.16-.07h.02s.02-.02.03-.02c10.52-4.65,20.27-11.51,31.98-12.78.45-.05.9-.08,1.34-.11Zm-32.88,12.55c2.78-2.11,17.49-12.71,31.99-12.56-.03.02-.04.04.02.04.08,0,.16,0,.25,0-5.12.5-10.18,1.93-15.03,4.07-5.86,2.58-11.39,5.83-17.22,8.47Z"/>
  <path class="cls-1" d="m364.92,375.11s-.07.17-.07.17c4.79,2.1,9.79,3.78,14.95,4.76,12.89,2.57,26.47.82,38.51-4.35,2.4-1.04,4.74-2.23,7.01-3.52-18.34,10.02-41.23,11.56-60.41,2.95Z"/>
  <path class="cls-1" d="m365.86,220.23c.24.03.48.06.71.1-.3-.05-.54-.08-.71-.1Z"/>
  <path class="cls-1" d="m361.76,169.88h0s.01.01.02,0h-.02Z"/>
</svg>