<?xml version="1.0" encoding="UTF-8"?>
<svg id="uuid-a29f39aa-ad54-4baa-85ed-448faec65715" data-name="Livello 7" xmlns="http://www.w3.org/2000/svg" viewBox="0 0 400 400">
  <defs>
    <style>
      .uuid-c514c72c-207e-4c1c-9d77-31754fd2f5b4 {
        fill: #232a56;
      }
    </style>
  </defs>
  <path class="uuid-c514c72c-207e-4c1c-9d77-31754fd2f5b4" d="m194.74,229.26h0c-.17-.03-.5.03-.55.29-1.76,8.51-3.28,19.53.64,29.35.05.12.17.2.31.2.07,0,.14-.02.23-.05.24-.09.29-.28.23-.42-3.86-9.68-2.35-20.59-.61-29.02.03-.14-.05-.31-.24-.35Z"/>
  <path class="uuid-c514c72c-207e-4c1c-9d77-31754fd2f5b4" d="m181.44,165.15h.13c3.29.32,6.46,1.43,9.53,2.51l.05.02c.49.17.98.35,1.5.54,1.36.49,2.77,1,4.16,1.37l.15.04c.8.2,1.63.41,2.47.51l.1.59.07-.57h.12c.31.04.63.04,1,.02l.2.02c.06,0,.12-.02.16-.04h.1c.24-.03.47-.06.71-.09.06,0,.12-.01.18-.02.09,0,.19-.02.28-.04l.03.02.31-.11h0c.11-.09.18-.22.18-.36,0-.23-.13-.5-.37-.54-.08-.02-.16,0-.22,0l-.1.02c-.41.07-.82.14-1.24.19-.57.07-1,.08-1.39.03h-.04c-1.04-.14-1.98-.31-2.85-.51-.87-.21-1.79-.46-2.8-.79-.54-.17-1.08-.36-1.6-.54l-.91-.32c-3.1-1.09-6.3-2.21-9.65-2.52-.14-.02-.3.07-.36.16-.06.08-.07.19,0,.31l.09.12Z"/>
  <path class="uuid-c514c72c-207e-4c1c-9d77-31754fd2f5b4" d="m183.57,161.47l-.11.13.12.29.15.03c3.41.71,6.8,1.76,9.82,3.04.77.32,1.53.71,2.28,1.08,1.95.97,3.97,1.97,6.27,2.12.12,0,.36-.09.38-.34l-.03-.25h-.24c-2.18-.15-4.16-1.14-6.09-2.1-.83-.41-1.69-.84-2.57-1.2-3.08-1.26-6.4-2.27-9.6-2.94-.14-.02-.3.05-.37.13Z"/>
  <path class="uuid-c514c72c-207e-4c1c-9d77-31754fd2f5b4" d="m257.5,184.07c.05,0,.11-.01.16-.04l.1-.05h0c1.43-.72,2.7-1.67,3.79-2.83.08-.08.11-.19.08-.3-.03-.1-.12-.18-.22-.2-.13-.04-.27,0-.36.1-1.06,1.13-2.3,2.05-3.68,2.73-.19.09-.22.28-.16.42.05.11.17.18.29.18Z"/>
  <path class="uuid-c514c72c-207e-4c1c-9d77-31754fd2f5b4" d="m122.77,184.03h0c.07.18.24.28.46.28.09,0,.19-.02.32-.07.03-.01.06-.03.12-.07l.07-.04.02-.15c.02-.11.04-.26-.03-.39-1.34-2.75-3.08-5.2-5.18-7.29v-.16h-.16c-2.49-2.46-4.88-3.77-7.3-4.02-2.83-.29-5.29,1.01-7.11,3.73-.52.78-1,1.59-1.4,2.4-.84,1.5-1.44,3.16-2.02,4.76l-.02.07c-.04.12-.02.25.06.34.15.17.4.14.45.13.06,0,.11-.01.15-.02h.05c.19-.08.32-.19.37-.34.9-2.51,1.83-5.11,3.7-7.05,2.01-2.09,4.76-2.71,7.75-1.74,4.33,1.4,8.05,5.09,9.7,9.62Z"/>
  <path class="uuid-c514c72c-207e-4c1c-9d77-31754fd2f5b4" d="m132.68,193.39c.16-.1.17-.23.17-.3,0-.11-.07-.2-.17-.25-.13-.07-.33-.05-.46.03-3.49,2.3-4.25,6.54-3.8,9.73.51,3.59,2.3,6.77,4.04,9.85.56,1,1.15,2.04,1.67,3.06.06.12.18.18.33.18.08,0,.17-.02.25-.06.12-.06.17-.15.19-.21.02-.08.02-.16-.02-.23-.54-1.06-1.15-2.14-1.69-3.09-1.48-2.63-3.01-5.35-3.72-8.33-.78-3.3-.4-8,3.21-10.38Z"/>
  <path class="uuid-c514c72c-207e-4c1c-9d77-31754fd2f5b4" d="m212.52,242.71c.45-.54,1.01-1.02,1.65-1.42.64-.33,1.29-.64,1.94-.96.39-.15.73-.27,1.06-.37.87-.27,1.77-.48,2.64-.68l.1-.02c1.05-.25,2.14-.5,3.19-.86,1.54-.52,3.1-1.27,4.64-2.23,2.86-1.79,5.39-4.1,7.84-6.34l.61-.56c3.08-2.8,6.21-5.44,9.32-7.83,3.73-2.87,7.69-5.6,11.77-8.14.2-.12.24-.26.23-.36,0-.12-.07-.22-.19-.28-.18-.1-.5-.08-.68.03-7.28,4.52-14.16,9.68-20.43,15.34-.5.45-.99.9-1.5,1.36-2.38,2.18-4.85,4.44-7.62,6.17-1.8,1.13-3.71,1.97-5.68,2.49-.57.15-1.14.29-1.71.43l-.09.02c-.99.24-2.01.48-2.99.8-.13-.03-.28,0-.41.06l-.62.3-.06.02c-.48.19-.97.44-1.46.73l-.22.11c-.19.09-.37.18-.55.28-.85.45-1.51,1.1-2,2.01-.01.02-.02.04-.03.06v.02c-.97,1.29-1.82,3.32-.52,5.64.08.14.22.21.41.21.14,0,.29-.04.42-.11.11-.06.19-.14.22-.24.02-.05.03-.11.02-.17.09-.11.12-.23.08-.36-.53-1.55-.4-3.25.34-4.67.07-.14.16-.29.27-.46Z"/>
  <path class="uuid-c514c72c-207e-4c1c-9d77-31754fd2f5b4" d="m267.88,231.64l-.84-.16c-.21-.05-.42-.11-.63-.16-.06-.02-.12-.02-.17,0-3.99-.84-8.46-2.08-10.93-6.07-.19-.29-.67-.13-.87,0-.23.14-.22.33-.15.45,2.65,4.25,7.34,5.53,11.54,6.4.03.01.06.03.1.04,6.19,1.52,12.73,4.2,20.58,8.46.06.03.13.05.21.05.19,0,.45-.1.57-.22.09-.09.12-.2.1-.31v-.24h-.17l-.12-.06c-5.08-3.11-11.08-6.55-17.97-7.92-.41-.08-.83-.16-1.24-.24Z"/>
  <path class="uuid-c514c72c-207e-4c1c-9d77-31754fd2f5b4" d="m292.54,256.28v.02c.06-.02.12-.05.18-.07.03-.02.06-.04.09-.05l-.27.1Zm.28,4.35s-.03.04-.04.06c-.04.05-.06.1-.09.14l.15-.2h-.02Zm.29-4.57s.06-.02.09-.02h.04v-.02l-.13.04Zm.27,3.78v-.02s-.02.04-.03.06c-.05.09-.1.17-.15.26l.58-.8c-.15.18-.28.35-.4.5Zm-.03.04s.02-.03.03-.04v-.02s-.02.04-.03.06Z"/>
  <path class="uuid-c514c72c-207e-4c1c-9d77-31754fd2f5b4" d="m301.31,252.42s-.07-.03-.23-.07c-.16-.05-.39-.1-.62-.15-.03-.01-.06-.02-.1-.03-.8-.16-1.69-.26-2.61-.3-.06-.01-.12-.01-.15-.01-.05-.01-.1-.01-.11,0-.58-.02-1.16-.01-1.76.01-2.03.08-4.08.32-6.11.55l-1.14.13c-2.49.27-5.06.56-7.6.59-2.46.03-5.06-.12-8.39-.48-1.53-.17-3.09-.36-4.62-.56-3.91-.49-7.95-1-11.97-1.05-4.6-.04-9.26.42-13.77.87l-.52.05c-.84.09-1.68.17-2.52.25-1.35.13-2.69.25-4.04.38-1.35.13-2.71.26-4.06.38-.29.03-.58.06-.87.09l-1.16.11c-1.41.13-2.68.25-3.97.34-1.25.09-2.57.21-4.02.38-.44.05-.88.1-1.33.16-.07.01-.2.03-.26.12-.07.07-.11.16-.1.26.01.17.13.29.19.34.12.12.25.24.37.36.74.71,1.48,1.45,2.13,2.1l.04.03c1.66,1.75,3.27,3.61,4.84,5.43,3.4,3.94,6.92,8.01,11.25,11.13.11.08.27.09.44.02.2-.08.24-.21.25-.31v-.16l-.12-.09c-4.29-3.08-7.78-7.12-11.16-11.04-1-1.16-2.01-2.34-3.06-3.5.81.7,1.7,1.46,2.61,2.14,2.73,2.03,5.91,3.92,9.7,5.78.26.12.52.25.78.37h-.02c.41.18.81.36,1.2.55h.03c2.97,1.37,5.95,2.53,8.87,3.45,2.1.66,4.24,1.19,6.3,1.7l.21.05c2.84.69,5.96,1.36,9.81,2.11,2.21.43,5.16.92,8.25.92.84,0,1.67-.04,2.45-.11,1.29-.12,2.56-.29,3.76-.49.02,0,.06,0,.14-.02s.21-.04.39-.07c.45-.09,1.16-.23,1.97-.39l.07-.02c.27-.06.55-.12.83-.18,1.73-.39,2.95-.73,3.72-1.03l.09-.03c.07-.03,1.8-.71,2.73-1.38.78-.57,1.74-1.37,2.21-2.49.33-.78.46-1.65.58-2.42.1-.63.19-1.29.39-1.89.52-1.57,1.29-3.05,2.23-4.27.97-1.28,2.19-2.37,3.39-3.43l.18-.17c.74-.65,1.5-1.32,2.19-2.04.68-.7,1.53-1.56,1.97-2.61l.11-.27-.28-.09Zm-5.24,4.2c-.22.34-.51.65-.76.93l-.07.08c-.54.6-.99,1.13-1.39,1.62l-.07.09-.58.8c.05-.09.1-.17.15-.26-.24.31-.41.56-.53.75h.02l-.15.2-.06.09-.03.05c-.07.1-.14.2-.21.31-.38.62-.75,1.31-1.09,2.04l-.02.03c-.3.68-.58,1.39-.87,2.11l-.04.09c-.21.52-.42,1.05-.65,1.59-.06.15-.12.3-.19.47-.72,1.58-1.81,2.94-3.24,4.04-1.6,1.23-3.57,2.08-5.71,2.45l-.84.15c-1.67.29-3.39.59-5.12.76-4.02.36-8.07-.31-11.15-.94-4.13-.84-7.95-1.71-11.69-2.65-1.51-.37-2.99-.8-4.4-1.27l-.55-.17c-1.08-.35-2.2-.7-3.14-1.32-.35-.23-.7-.46-1.04-.7l-.11-.07s-.05-.03-.07-.04c-.27-.12-.53-.25-.8-.38-.29-.12-.58-.26-.87-.41-.26-.11-.52-.22-.79-.32-.59-.13-1.17-.28-1.73-.51-.3-.12-.59-.26-.89-.39-.26-.06-.49-.14-.72-.25-.61-.21-1.21-.45-1.79-.78-.6-.35-1.16-.75-1.72-1.16-1.22-.72-2.43-1.52-3.53-2.25-.4-.27-.79-.54-1.16-.78-.75-.49-1.46-1.03-2.07-1.49-.66-.5-1.87-1.42-1.63-2.53.25-1.13,1.53-1.81,2.62-1.97,1.03-.15,2.13-.05,3.2.05l.49.05c.98.08,1.93.18,2.98.3,2.6.28,5.24.61,7.26.86,1.36.17,2.95.37,4.51.58l.18.03c.08,0,.13.01.15.01l.79.08c.29.03.57.06.83.09.12.02.24.04.36.06l.57.11c4.46.83,9.74,1.75,15.03,2.28,3.8.38,7.52.72,11.25.64h.37c1.97-.06,3.68-.2,5.21-.45,1.03-.17,2.12-.34,3.18-.53l.4-.07c2.31-.4,4.64-1.04,6.93-1.89,0,0,.01,0,.03-.01.34-.11,3.02-.99,3.85-1.46h.01c.23-.08.47-.17.71-.25.05-.02.1-.03.15-.05l.06-.02c.14-.05.34-.08.45.01.12.1.17.31.13.58-.04.32-.18.65-.4.99Zm-3.53-.32v-.02l.27-.1s-.06.03-.09.05c-.06.02-.12.05-.18.07Zm.57-.24l.13-.04v.02h-.04s-.06.01-.09.02Zm6.23-3.24c-.5.14-4.55,1.64-8.02,2.92l-.25.09c-.35.14-.63.24-.82.31-.09.03-.16.06-.2.07h-.04c-2.9,1.07-5.88,1.6-8.69,2.05-5.64.91-11.5.48-16.54.01-5.18-.49-10.33-1.43-15.32-2.34-4.08-.75-8.31-1.52-12.51-2.04-1.34-.16-2.68-.28-4.01-.37l3.7-.35c1.14-.1,2.27-.22,3.41-.33l.64-.07c4.21-.42,8.57-.87,12.86-.98,4.87-.11,9.74.49,14.46,1.08l2.12.26c6.23.74,11.04.88,15.6.43,1.05-.1,2.12-.22,3.16-.34h.12c1.52-.19,3.25-.38,4.92-.51,1.65-.13,3.27-.23,4.88-.05.31.02.57.05.78.09-.08.02-.16.04-.25.07Z"/>
  <polygon class="uuid-c514c72c-207e-4c1c-9d77-31754fd2f5b4" points="280.93 274.55 280.93 274.55 280.93 274.55 280.93 274.55"/>
  <path class="uuid-c514c72c-207e-4c1c-9d77-31754fd2f5b4" d="m295.86,267.18c-.13.06-.22.17-.24.3-.04.35-.08.7-.12,1.06-.28,2.55-.56,5.19-1.39,7.55-.76,2.17-2.69,4.04-5.72,5.55-5.07,2.53-10.8,2.56-16.35,2.6-.15,0-.29.08-.36.2-.06.11-.06.25,0,.35.07.11.19.18.34.18,5.59-.04,11.93-.08,17.3-3,2.73-1.48,4.53-3.23,5.36-5.19.51-1.21.74-2.53.95-3.81l.07-.39c.28-1.61.52-3.32.72-5.08.01-.12-.04-.24-.13-.31-.14-.11-.32-.08-.44-.03Z"/>
  <path class="uuid-c514c72c-207e-4c1c-9d77-31754fd2f5b4" d="m331.88,146.22h0c-.2-.08-.41-.14-.62-.21l-.16-.05c-.22-.14-.46-.27-.71-.37l-.15-.11s.02-.04.03-.05c.51-.28.84-.72.81-1.12-.01-.19-.11-.54-.68-.74-.16-.06-.32-.11-.47-.14,0-.03,0-.06-.01-.08-.04-.14-.14-.25-.28-.3-.07-.03-.15-.05-.23-.08.01-.03.02-.07.02-.11,0,0,0,0,0,0,.1-.12.14-.26.1-.4-.04-.14-.14-.25-.29-.3-.05-.02-.1-.03-.16-.04h-.06s-.04-.05-.07-.07c0,0-.02-.01-.03-.02.02-.07.02-.13,0-.2,0,0,0-.02,0-.02.03-.06.03-.12.02-.16-.01-.13-.11-.23-.25-.27-.06-.02-.12-.03-.18-.05,0-.14-.03-.27-.09-.4-.11-.2-.3-.35-.56-.41-.06-.01-.12-.02-.22-.04h-.07c-.56-1.14-1.15-2.27-1.75-3.39l-.41-.77c-.13-.24-.25-.48-.38-.72l-.23-.43c-1.11-2.11-2.38-4.5-2.97-7.04-.07-.28-.13-.56-.19-.87-.13-.64-.27-1.29-.48-1.9-.53-2.11-1.1-4.38-1.71-6.66-.59-2.23-1.22-4.46-1.87-6.63-.71-2.37-1.39-4.52-2.09-6.57-.74-2.17-1.54-4.34-2.38-6.46-.92-2.31-1.81-4.37-2.72-6.3-.19-.4-.39-.8-.58-1.19l-.21-.41s0-.01,0-.01c.43-2.22,1.48-4.33,2.49-6.38,1.54-3.08,3.12-6.27,2.71-10-.76-6.69-6.39-11.15-10.54-14.41.28-1.32.55-3.02.21-4.63-.46-2.27-2.15-3.6-3.78-4.89l-5.61-4.44-.64-.55c.45-.84.96-1.99,1.03-2.91v-.05c.13-.71.15-1.42.07-2.12v-.11s-.05-.03-.05-.03c-.16-.41-.71-1.63-1.6-2.88-.09-.13-.18-.25-.28-.38-.79-1.04-1.77-2.03-2.93-2.92-2.25-1.74-4.83-2.98-7.28-4.1-10.36-4.72-24.12-10.48-38.69-13.12-5.66-1.02-12.08-2.18-18.08-.89-5.27-2.89-11.48-4.02-17.44-3.17-.04,0-.07,0-.11.01C188.62,4.73,166.09.87,143.91,2.02c-6.22.32-12.52,1.05-18.73,2.16l-1.62.48-.33,1.2-.02.12c-3.1,10.36-5.91,20.87-8.42,31.43-.15-.13-.41-.15-.61-.08-9.28,3.46-16.98,10.6-21.11,19.59-.05.11-.04.23.03.32.05.07.15.15.36.15.03,0,.06,0,.08,0,.22-.02.48-.11.57-.32,4.01-8.73,11.47-15.67,20.47-19.02.02,0,.04-.02.06-.03-1.69,7.13-3.25,14.28-4.65,21.43-4.15,2.86-7.65,5.73-10.7,8.77-3.41,3.39-6.31,7.08-8.62,10.96-4.69,7.9-7.59,16.64-10.39,25.1l-.14.41c-1.58,4.76-3.21,9.69-5.11,14.43-.09.22,0,.44.22.53.26.11.69,0,.81-.29,1.83-4.57,3.42-9.39,4.96-14.05,4.08-12.35,8.29-25.12,17.35-34.9,3.03-3.27,6.75-6.44,11.37-9.68-.43,2.25-.83,4.37-1.21,6.45-.03-.04-.08-.07-.14-.1-.19-.07-.57-.02-.72.11-6.74,5.36-12.27,12.98-16.9,23.32-2.25,5.01-4.11,10.21-5.82,15.1l-.5,1.42c-1.5,4.3-3.05,8.74-5.21,12.82-2.74,5.17-6.5,9.35-11.15,12.44-.16.11-.19.23-.18.31,0,.11.07.2.17.25.06.03.15.05.25.05.15,0,.37-.04.49-.11,4.02-2.67,7.35-6.07,9.91-10.11,2.73-4.32,4.55-9.2,6.18-13.83l.58-1.64c3.28-9.33,6.66-18.98,12.15-27.41,3.17-4.87,6.8-8.95,10.8-12.12h0s-.02.09-.02.13c-3.6,19.96-6.89,41.32-6.5,62.25.23,12.13,1.82,23.41,4.72,33.53h-.01s.1.3.1.3c.01.04.02.08.03.12.01.04.02.09.04.13.01.03.03.06.04.08l.02.07c-.11.04-.22.08-.34.12-5.26,2.08-9.38,6.78-10.9,12.38-.62-2.46-1.31-5.25-1.89-8.07-.75-3.67-1.19-6.91-1.35-9.9-.09-1.6-.08-3.27.04-5.25.08-.1.11-.21.11-.35l-.04-.7c.35-4.44,1.2-9.01,1.88-12.71l.25-1.34c.69-3.74,1.44-7.61,2.25-11.49.05-.18-.01-.38-.16-.51-.26-.22-.66-.13-.79-.08h0c-.33.1-.45.31-.5.48-1.14,5.51-2.33,11.41-3.32,17.46l-.12-2.46c-.04-.75-.08-1.5-.12-2.26v-.11c-.16-2.97-.33-6.05-.2-9.05.34-7.57,3.7-14.15,6.96-19.59l.13-.24-.13-.25c-.15-.24-.43-.26-.5-.26h0c-.23,0-.67.06-.85.37-3.26,5.47-6.66,12.09-7.07,19.71-.03.5-.04,1.01-.05,1.54-.48-4.61-.79-10.08-.2-15.58.61-5.71,2.11-11.08,3.5-15.58,1.64-5.3,3.2-9.48,4.93-13.15,2.47-5.28,5.32-9.6,8.71-13.21.29-.32.2-.67,0-.86-.27-.25-.83-.28-1.15.05-7.2,7.7-10.95,17.55-13.42,25.28-1.41,4.43-2.97,9.7-3.78,15.24-.71,4.91-.76,10.16-.16,16.51.46,4.85,1.18,9.75,1.88,14.49.05.31.09.61.14.92l.15,1,.28,5.65c-.15,1.73-.2,3.32-.17,4.88.05,3.04.42,6.34,1.11,10.1.67,3.57,1.97,8.64,2.93,12.34l.14.56c-.34,4.42.81,8.68,2.24,13.4.55,1.81,1.09,3.74,1.52,5.26.36,3.08-1.51,5.71-3.33,8.25-.57.8-1.11,1.55-1.58,2.32-2.03,3.29-3.59,6.88-4.63,10.67-1.05,3.83-1.54,7.76-1.47,11.69.08,4.35,1.01,8.5,2.01,12.34l.07.26c1.22,4.69,2.48,9.54,1.83,14.42-.02.12.03.25.12.33.23.18.6.04.64.02.24-.1.31-.25.33-.35.69-5.14-.6-10.16-1.85-15.02-.86-3.34-1.74-6.79-1.97-10.24-.55-8.2,1.48-16.57,5.72-23.57.5-.82,1.08-1.63,1.69-2.49,1.29-1.81,2.62-3.67,3.23-5.74.55,1.94,1.1,3.83,1.69,5.68-1.07,1.01-2.03,2.22-3.03,3.79-1.73,2.22-2.85,4.2-3.5,6.24-.74,2.3-.77,4.66-.07,7.22-.37.66-.7,1.37-1,2.16-2.08,4.46-2.56,9.44-1.41,14.41.41,1.75.97,3.5,1.51,5.19,1.33,4.17,2.71,8.48,1.87,12.92-.03.15.06.32.27.37.21.03.74-.04.81-.37.86-4.6-.54-8.99-1.89-13.24-.46-1.46-.94-2.96-1.32-4.45-.97-3.83-.99-7.58-.07-11.14.64-1.59,1.24-2.84,1.89-3.88.38.96.86,1.94,1.42,2.94.87,1.55,1.81,3.07,2.74,4.58,1.37,2.23,2.8,4.54,3.97,6.94.93,1.88,1.78,3.82,2.54,5.79.05.11.09.23.15.38l.04.12c.81,2.14,1.53,4.33,2.12,6.5,1.33,4.86,2.17,9.9,2.48,14.99,0,.12.08.23.19.29.2.1.51.03.69-.08.2-.14.21-.32.21-.38-.46-7.55-2.06-14.93-4.76-21.94,2.14-3.28,4.06-6.73,5.7-10.26.03.01.06.02.09.03.67.25,1.38.38,2.05.38.24,0,.44-.01.62-.03,1.38-.15,2.62-.92,3.5-2.15l.04-.06s.04-.06.04-.06h0c.51-.77.81-1.65.88-2.58,1.16.85,2.25,1.81,3.31,2.75l.36.31c1.69,1.5,3.44,3.04,5.5,4.16,2.54,1.37,5.32,1.63,7.47,1.7,3.25.1,5.51-.67,6.87-2.35,3.5,5.55,5,11.99,6.45,18.23,1.07,4.61,2.18,9.38,4.09,13.78,1.29,3,2.92,5.63,4.83,7.86.13.13.35.11.48,0,.13-.1.16-.26.05-.43-5.24-6.05-7.05-13.86-8.8-21.42-.8-3.45-1.63-7.03-2.78-10.39-1.11-3.24-2.42-5.99-4.01-8.42.03-.03.06-.05.09-.09l.87-.43-.82.07s0,0,0-.01c-.39-.83-.32-1.79-.25-2.72.01-.15.02-.31.03-.46.04-.59.08-1.17.11-1.76v-.11c.05-.6.09-1.2.12-1.79.01-.13-.05-.26-.16-.33-.18-.12-.48-.08-.67.01-.16.08-.25.21-.26.35l-.28,4.17c-.07,1.01-.15,2.06.31,3.03.01.03.03.05.05.07-.07.03-.13.08-.18.15-.96,1.35-2.59,2.06-4.83,2.13-1.34.04-2.57-.04-3.7-.2.13-.06.18-.15.2-.23l.02-.15-.18-.18c-.06-.07-.15-.1-.25-.1-.04,0-.08.01-.12.03-.11.04-.18.12-.21.23l-.02.15.19.18s.02.01.02.02c-.39-.06-.77-.14-1.14-.23-2.71-.65-4.99-2.37-7.05-4.14-.48-.41-.95-.83-1.42-1.25-1.37-1.21-2.79-2.46-4.35-3.51-.01-.07-.03-.14-.04-.19-.05-.26-.14-.56-.39-.77-.34-.28-.85-.29-1.24-.04-.06-.04-.13-.07-.19-.09-.59-.31-1.21-.61-1.81-.9-1.58-.76-3.21-1.55-4.59-2.69-.21-.17-.52-.07-.61-.04-.03,0-.05.02-.08.03.16-.62.38-1.24.66-1.85.02-.06.08-.15.15-.25l.03-.04c.31-.52.75-1.22.5-1.77-.08-.16-.26-.37-.63-.44-.6-.09-1.33.33-1.63.56-.21.15-.4.33-.56.52h0c-2.64-3.84-4.82-8.46-6.86-14.55l-.16-.48c.09-.11.11-.23.05-.35-.03-.07-.1-.14-.23-.18l-.05-.17c-.83-2.56-1.57-5.13-2.39-7.98l-.05-.2s-.03-.09-.04-.14c-.01-.06-.03-.11-.04-.16-.66-2.3-1.25-4.37-1.9-6.43-2.13-6.87-3.7-15.63,3.18-22.42,3.85-3.8,8.89-5.49,13.49-4.53,2.71.58,5.24,2.11,7.33,4.45l.09.08h.21l.43-.38-.14-.14s.01-.11.02-.16l-.17-.03s0,0,0,0l.18-.02c.05-.26.12-.58-.09-.81-2.48-2.77-5.74-4.48-9.22-4.83-7.05-19.17-5.07-39.95-2.65-57.91,2.16-16.15,5.17-32.42,8.95-48.37.03,0,.06,0,.09,0,.1,0,.45-.02.69-.22,7.03-6.17,14.97-11.13,23.58-14.74.29-.12.46-.33.49-.62v-.36s-.25-.17-.25-.17c-.23-.18-.58-.22-.9-.09-1.11.47-2.24.97-3.36,1.5-.82-.64-1.7-1.21-2.69-1.72-3.22-1.94-6.89-3.01-10.63-3.08-.06,0-.7.12-.7.46,0,.14.1.29.34.3,2.36.04,4.7.51,6.94,1.37,1.67.9,3.57,2,5.12,3.46-6.62,3.27-12.76,7.32-18.29,12.05.79-3.27,1.59-6.46,2.39-9.5,2.87-10.94,6.15-21.9,9.74-32.58,10.53,3.62,22.44,7.73,33.53,10.99,10.31,3.05,21.42,5.96,32.81,6.65,6.17.36,12.02.03,17.4-1,3.29,9.38,11.69,16.75,25.68,22.53,3.56,1.47,7.2,2.75,10.74,3.99l.11.04s.08.03.15.03c.23,0,.73-.18.83-.44l.12-.35-.35-.12c-1.87-.66-3.77-1.33-5.69-2.04.07-.01.13-.04.16-.05.1-.06.16-.16.15-.3l-.03-.15-.31-.18c-.06-.04-.12-.07-.13-.07-4.84-4.13-8.82-9.07-11.82-14.67-.05-.1-.15-.16-.27-.16-.08,0-.25.04-.34.18l-.07.14.07.13c2.52,4.69,5.74,8.94,9.57,12.65-6.43-4.08-12.09-9.44-16.46-15.58l-.03-.05c-.12-.16-.34-.15-.49-.05h0c-.14.1-.17.28-.08.42,5.08,7.15,11.82,13.2,19.47,17.46l.06.06s.08.05.13.06c-9.48-3.52-19.2-7.99-25.64-16.15-1.95-2.47-3.42-5.18-4.38-8.05,1.38-2.92,1.46-6.07.23-8.69,3.6-2.31,8.78-1.86,12.12,1.05l.13.1h0c2.3,1.83,4.97,3.14,8.39,4.14.04.01.08.02.12.04.03,0,.06.02.1.03.94.27,1.96.52,3.19.79l.2.05c1.13.24,2.34.47,3.7.72.04.01.08.02.14.03l.48.09c.91.17,1.85.34,2.79.52.04,0,.08.02.16.04,1.87.37,4.3.89,6.61,1.69,1.15.4,2.25.87,3.27,1.38v.1h.2c1,.5,1.96,1.06,2.87,1.65.05.07.12.12.21.15h0c5.29,3.55,9.08,8.62,10.68,14.28,1.43,5.09,1.14,10.46-.84,15.11-.07.16,0,.34.17.41.22.09.75.02.88-.28,3.49-8.23,1.76-18.12-4.41-25.21-.52-.6-1.07-1.18-1.65-1.74.96.42,1.94.8,2.9,1.17l.06.02c2.41.94,4.9,1.91,7.07,3.39,3.23,5.49,2.02,12.29.51,18.78-.03.14,0,.27.1.37.15.14.39.14.57.09.22-.06.37-.2.42-.38,1.3-5.59,2.91-12.51-.24-18.47,1.1.42,2.15.95,3.12,1.55l2.35,2c.68,5.58-.48,11.34-3.27,16.25-.12.21-.06.44.14.55.25.14.7.07.87-.22,2.68-4.73,3.88-10.09,3.48-15.53,1.82,1.34,4.08,2.07,6.4,2.07.15,0,.29,0,.46-.01.56-.02,1.12-.08,1.65-.19.08-.01.14-.04.19-.06.04,0,.07-.01.1-.02l6.02,4.77c1.49,1.17,3.04,2.38,3.43,4.29.29,1.41.07,2.83-.18,4.05-.06.04-.11.09-.15.14-.14.2-.14.44-.01.62l-.43,1.73c-.59,2.36-1.29,4.73-2.03,7.15v.05c-.1.3.06.6.36.69.21.07.49.04.71-.08.18-.1.3-.23.35-.39l.02-.05c.81-2.68,1.53-5.09,2.13-7.56l.1-.4s.02-.08.03-.12c4.44,3.53,8.77,7.46,9.42,13.15.38,3.42-1.07,6.34-2.61,9.44-.76,1.53-1.54,3.1-2.08,4.75-.39-.74-.87-1.64-1.38-2.54-1.14-2.02-2.35-3.99-3.62-5.84-.49-.71-1-1.42-1.38-1.95.75-.15,1.46-.61,1.96-.99,1.15-.88,2.26-1.87,3.3-2.92.15-.15.15-.29.13-.39-.02-.07-.09-.21-.29-.26-.21-.06-.51,0-.67.15-.82.84-1.71,1.64-2.65,2.4l-.19.16c-.66.53-1.55,1.26-2.28.9-.38-.51-.79-1.02-1.18-1.51l-.11-.14c1.71-.32,3.26-1.47,4-2.99.07-.14.06-.29-.02-.41-.1-.14-.27-.2-.49-.19-.18.02-.42.11-.51.31-.69,1.41-2.12,2.35-3.66,2.42l-.12-.15c-3.28-3.95-6.92-7.4-10.8-10.26,3.49-2.16,5.93-5.67,6.7-9.66.02-.12-.02-.24-.11-.32-.21-.18-.55-.07-.62-.05-.2.07-.33.19-.35.34-.73,3.8-3.13,7.24-6.41,9.2-.16.09-.24.21-.24.35,0,.04,0,.08.03.12-.06.07-.1.15-.11.23,0,.07,0,.25.18.39,3.88,2.84,7.52,6.3,10.81,10.28,0,.09.01.18.06.26.06.1.17.17.31.2,3.42,4.2,6.53,9.07,9.26,14.49,0,.01,0,.03,0,.04-.01.05-.03.1-.03.16-.03.19.04.38.16.47.08.08.17.12.29.15,3.09,6.27,5.75,13.28,8.14,21.43l.08.28c.65,2.22,1.33,4.68,2.13,7.76.35,1.34.68,2.65.99,3.91.09.38.19.76.29,1.13l.02.09c.22.83.47,1.77.64,2.68.23,1.22.77,2.39,1.31,3.53.47,1.02,1.01,2.04,1.49,2.94l.22.41c.26.49.52.99.78,1.48l.14.27c.45.85.91,1.72,1.36,2.6-1.04-.45-2.25-.14-3.33.13-.17.04-.34.09-.51.12l-.31.07c-.07.02-.14.03-.21.05.03-.05.05-.11.05-.17,0-.12-.04-.24-.13-.32-.12-.11-.3-.13-.43-.11-2.37.4-4.6,1.23-6.63,2.47-.01-.03-.02-.05-.04-.07-.16-.24-.48-.24-.71-.14-1.35.56-2.62,1.34-3.76,2.3-.15-.06-.33-.04-.48.05-1.54.92-2.87,2.12-3.94,3.56-.82.89-1.5,1.87-2,2.88-.1.12-.21.26-.3.39-.11.16-.16.33-.13.5-.04.08-.07.17-.11.25l-.05.12s-.08.08-.1.16c0,.03-.04.11-.02.18v.02c-.05.11-.09.21-.13.33l-.04.13c-.02.05-.04.1-.08.21,0,.04,0,.09,0,.13-.08.25-.15.51-.19.78-.02.16.02.3.1.41-.02.2.03.51.42.79,1.6,1.1,3.65.84,6.25-.79,1.11-.69,2.16-1.48,3.19-2.25.85-.63,1.81-1.35,2.77-1.98,1.3-.84,2.7-1.63,4.29-2.4.09-.01.2-.04.3-.12.03-.02.05-.04.11-.07.04-.03.06-.04.06-.04.04-.02.07-.04.11-.05.04-.02.08-.04.12-.05,2.71-.61,5.36-1.14,7.91-.92,0,.02,0,.04-.01.06,0,.12.05.23.17.29.17.09.34.17.51.26l.05.03c.08.04.16.08.24.13.16.57.27,1.05.36,1.51.62,3.08.32,6.2-.95,10.1-.8,2.45-1.65,4.92-2.4,7.11-.3.88-.6,1.76-.9,2.64l-.38-.04c-1.92-1.37-4.32-2.09-6.2-2.56-.27-.07-.57-.13-.9-.19-.05-.05-.11-.09-.17-.1-.29-.07-.6-.1-.88-.08,0,0,0,0,0-.01.02-.11-.02-.22-.09-.3-.12-.13-.29-.15-.39-.15h0l-.5.02c-.06-.06-.15-.11-.3-.11-.16,0-.31,0-.46,0l.48-.48-1.01.5c-.43.03-.87.08-1.27.14l-.22-.02c-.27-.03-.55-.05-.84-.06-.15,0-.3,0-.46,0-4.66,0-9.68,1.51-14.93,4.5-.02-.52-.03-1.03-.03-1.54,0,0,.01,0,.02,0l.3.02v-.02c.15-.03.3-.09.41-.18.23-.19.49-.39.79-.63.08,0,.18-.04.25-.1.2-.17.41-.32.61-.47l.19-.14c1.76-1.1,3.61-2.11,5.49-3,1.81-.71,3.76-1.28,5.98-1.74.34-.07.68-.14.99-.2.53-.03,1.08-.04,1.81-.02,1.33.03,2.63.06,3.9.22,2.54.31,4.5,1.1,5.98,2.41.18.16.46.07.55.04.26-.09.4-.21.43-.38v-.16s-.1-.09-.1-.09c-1.41-1.24-3.24-2.04-5.57-2.44,2.37.25,4.39.97,6.1,2.18.11.08.27.09.43.02.14-.06.23-.17.24-.3.01-.12-.04-.23-.14-.3-3.29-2.34-7.5-2.96-13.22-1.96-.23.02-.45.04-.67.06.41-.13.81-.26,1.21-.38.21-.06.35-.2.39-.38.04-.16,0-.32-.13-.43-.13-.13-.32-.16-.52-.1-5.47,1.63-10.66,4.08-15.41,7.27-.22.15-.23.32-.22.42,0,.02,0,.05.02.07-.04.03-.07.06-.11.09.03-1.75.17-3.41.45-5.01.02-.11-.02-.22-.1-.29-.2-.17-.58-.05-.66-.02-.23.08-.3.22-.32.31-.44,2.5-.56,5.15-.39,8.09,0,.06,0,.12,0,.15.19,3.31.73,6.65,1.21,9.51.9,5.38,1.84,10.94,3.17,16.34,1.49,6.05,3.3,11.14,5.54,15.55.4.79.84,1.59,1.26,2.37l.06.11c1.97,3.62,4.01,7.37,3.94,11.56-.08,5.35-3.31,10.42-8.05,12.59-.08.04-.25.12-.27.33v.16s.12.08.12.08c.19.13.59.04.69,0,3.99-1.83,7.04-5.55,8.16-9.93,1.3-5.12-.68-9.85-3.02-14.19l-.11-.2c-1.26-2.35-2.56-4.78-3.6-7.3-1.04-2.5-1.95-5.14-2.77-8.07-1.56-5.52-2.59-11.2-3.51-16.54l-.24-1.4c-.29-1.69-.6-3.44-.86-5.2l.91-.15c2.28-.35,4.52-.48,6.66-.36,1.57.09,3.14.33,4.66.57.6.09,1.2.19,1.81.27,3.44.49,6.88.21,9.46-.08l2.61.14c.26,0,.46-.11.54-.29.02-.03.03-.07.03-.1h.06s0,.02,0,.02c.03.13.07.25.1.38-.03.07-.04.15-.02.23,1.41,4.56.22,9.77-3.02,13.28-.08.1-.1.19-.09.25,0,.08.04.16.11.21.16.14.46.12.61-.04,1.53-1.66,2.64-3.66,3.25-5.85-.02.46-.04.92-.08,1.38-.03.06-.04.12-.04.17-.16,5.03,1.03,9.92,2.18,14.65v.05c.44,1.78.89,3.62,1.26,5.44.8,3.98,1.05,7.55.74,10.92-.31,3.44-1.05,6.77-2.07,10.71-3.84,14.83-7.77,29.29-13.68,43.09-3.42,7.99-7.38,15.83-11.21,23.41-2.7,5.34-5.49,10.87-8.07,16.41l-.18.39c-1.3,2.79-2.64,5.68-4.51,8.17-1.78,2.37-4.07,4.29-6.81,5.71-5.68,2.95-12.36,3.42-16.88,3.52-12.66.26-26.54-1.63-41.23-5.62-1.76-.48-3.55-.99-5.31-1.52-.22-.07-.48.03-.63.17-.14.13-.19.28-.16.43.02.08.08.23.31.3,4.87,1.46,9.74,2.71,14.49,3.73-9.32,6.22-18.94,12.66-26.41,21.36-3.12,3.63-5.96,7.59-8.71,11.42l-.07.09c-.91,1.26-1.84,2.57-2.77,3.83l-25.04,34.17c-.08.1-.08.2-.07.27.01.08.06.16.13.21.09.07.22.08.31.08.2,0,.47-.07.59-.23,7.71-10.52,15.42-21.03,23.12-31.55,1.09-1.49,2.19-3.01,3.26-4.49l.04-.05c2.62-3.62,5.32-7.37,8.13-10.93,3.38-4.31,7.42-8.33,12.33-12.3,5.15-4.16,10.69-7.86,16.07-11.44.1-.06.16-.14.2-.21,9.28,1.93,18.13,2.98,27.06,3.22.99.03,1.92.04,2.84.04,5.71,0,10.42-.6,14.4-1.84,5.82-1.8,10.28-5.22,13.26-10.16,1.21-2.01,2.2-4.15,3.17-6.21.41-.88.83-1.78,1.26-2.66,1.33-2.73,2.72-5.49,4.08-8.2l1.08-2.14c3.38-6.7,6.88-13.63,10.08-20.57,3.47-7.54,6.26-14.5,8.52-21.29,2.41-7.23,4.47-14.74,6.34-21.77.26-.96.52-1.93.79-2.9l-.17-.05s0,0,0,0h.18c1.75-6.38,3.56-12.97,3.16-19.66-.24-3.98-1.2-7.89-2.12-11.67-.71-2.89-1.44-5.88-1.84-8.87-.25-1.87-.35-3.72-.29-5.5,0-.1-.03-.18-.07-.26.27-3.33-.02-6.64-.85-9.87.04,0,.08,0,.11,0,.1,0,.44-.02.56-.26.07-.15.03-.26,0-.31-.08-.15-.23-.17-.33-.18,0,0-.01-.01-.02-.02-.01-.05-.05-.14-.15-.19-.03-.09-.09-.17-.19-.23-.04-.02-.09-.04-.14-.05.15-.88.36-1.77.62-2.69.32.04.63.07.95.11l.15.02c.16.02.34-.02.48-.11l1.6-.52-.84-.08s.06-.02.1-.04c.07-.04.25-.14.28-.32,0-.05,0-.1,0-.15.02-.03.04-.07.04-.1.02-.1,0-.21-.07-.28-.03-.03-.06-.06-.11-.08.01-.02.03-.04.04-.05.05-.08.07-.18.05-.25-.02-.09-.07-.18-.15-.23-.01,0-.03-.02-.04-.02-.01-.05-.04-.09-.07-.13,0,0,0,0,0,0,.02-.1,0-.19-.03-.27-.09-.2-.29-.31-.59-.34-.01,0-.02,0-.03,0,.02-.11-.01-.21-.09-.29-.12-.13-.31-.12-.4-.11h-.12s-.05,0-.08,0c0-.04-.02-.08-.04-.11-.03-.06-.08-.11-.14-.14-.03-.07-.08-.12-.15-.16.34-1,.68-1.99,1.02-2.99.87-2.54,1.66-4.83,2.39-7.12,1.18-3.67,1.47-6.78.92-9.79-.1-.52-.22-1.04-.35-1.56.04,0,.08,0,.12,0,.1.06.2.12.3.19.22.13.52.07.71-.06.13-.11.21-.25.2-.39,0-.08-.03-.16-.09-.23.06-.03.12-.08.17-.13.21-.1.32-.23.33-.38,0-.1-.05-.24-.21-.31ZM231.48,20.36h0c-.06-.06-.14-.09-.22-.09h0c-.07,0-.14.02-.2.06.02-.12.09-.16.14-.19.12-.07.27-.12.43-.17l.06-.02c.08-.03.14-.05.18-.06,1.47,1.48,2.96,2.96,4.43,4.43-.55-.21-1.09-.42-1.6-.65v-.09s-3.21-3.22-3.21-3.22Zm.68,2.19l.1-.15-.06-.06h-.02s-.07-.08-.1-.11l-.05-.06c-.08-.08-.15-.17-.22-.26l-.02-.03c-.17-.23-.32-.49-.45-.75.58.58,1.16,1.16,1.74,1.74-.28-.15-.54-.29-.78-.44l-.14.11s0,0,0,0Zm23.67,3.89c1.54,1.54,3.08,3.09,4.63,4.63-.67-.37-1.36-.71-2.09-1.05-1.87-1.86-3.73-3.73-5.6-5.6l-3.31-3.32c.5.13,1.04.27,1.62.43h0s0,.14,0,.14l4.76,4.76Zm-12.72-6.66c1.16,1.16,2.31,2.31,3.47,3.47,1.07,1.07,2.14,2.14,3.26,3.25.16.1.38.02.46-.09l.15-.2-6.26-6.26c.52.09,1.04.19,1.53.28l7.6,7.6c.14.14.36.1.48-.01.06-.06.09-.13.09-.21,0-.08-.03-.15-.09-.21l-6.93-6.93c.48.11.96.22,1.47.34,0,.06.04.12.08.17l8.37,8.37c-2.54-.98-5.19-1.59-8.32-2.19-2.56-2.55-5.12-5.12-7.68-7.68.73.07,1.5.16,2.32.29Zm-3.31-.37c2.51,2.52,5.03,5.04,7.54,7.55-.74-.14-1.49-.27-2.23-.41l-7.22-7.22c.65.01,1.29.04,1.91.09Zm-2.84-.09l7.02,7.02c-.94-.18-1.88-.37-2.81-.59-1.12-1.12-2.23-2.23-3.35-3.35l-3-3c.69-.05,1.39-.08,2.14-.08Zm3,6.14c-.8-.2-1.55-.42-2.29-.66l-5.07-5.07c.49-.1,1-.19,1.39-.25l5.98,5.97Zm28.76,8.78l.18-.2-10.21-10.19c.77.26,1.57.53,2.39.82l-.02.12,11.06,10.89c.12.12.35.11.5-.04l.16-.21-10.48-10.32c.93.34,1.9.7,2.9,1.07-.01.04-.04.07-.04.11,0,.08.03.15.09.21l10.58,10.57c.06.06.14.09.23.09.03,0,.06,0,.1-.01.12-.03.21-.12.24-.23.03-.1,0-.21-.08-.28l-10.06-10.05c1.1.42,2.23.87,3.42,1.34l.8.32v.09s7.72,7.73,7.72,7.73c.12.12.37.1.48-.02.12-.12.12-.29,0-.41l-6.85-6.85.33.13c.94.38,1.88.75,2.82,1.14.03.12.13.22.3.22h.25c2.29.94,5.29,2.21,8.2,3.66,2.41,1.21,5.85,3.16,8.04,6.21-.62.65-1.7.56-2.65.48h-.07c-1.18-.1-2.43-.28-3.94-.58-2.29-.46-4.73-1.14-7.67-2.16-5.22-1.81-10.39-3.82-14.76-5.55v-.1h-.15c-3.46-3.47-6.93-6.94-10.39-10.4.84.24,1.78.51,2.88.85.76.23,1.53.47,2.31.72l10.89,10.87h0c.14.13.38.07.49-.04Zm-68.27-21.67c3.99,1.37,10.68,3.67,12.3,7.67.07.18.14.37.19.56-2.21-2.83-5.66-4.38-9.09-5.64-7.15-2.6-14.57-4.71-22.06-6.26l-.19-.04s-.02,0-.05,0c-.06-.03-.12-.04-.19-.04-1.87-.39-3.84-.75-5.82-1.08-.08-.03-.15-.04-.23-.05h-.02c-.04-.05-.09-.1-.15-.16-.14-.14-.35-.1-.47,0-.01.01-.03.03-.04.04-.02,0-.03,0-.05,0l-.44-.07c-.97-.16-1.92-.3-2.81-.43-.07-.02-.14-.03-.19-.03-2.53-.38-4.54-.65-6.3-.85-.06,0-.15-.02-.17-.02-.94-.11-1.94-.22-3.09-.33-.03,0-.05,0-.12-.01-2.39-.23-4.56-.38-6.65-.48-.04,0-.07,0-.13,0-.6-.02-1.37-.05-2.04-.06-.05,0-.1,0-.15,0-.03-.03-.06-.06-.08-.07-.08-.08-.19-.11-.32-.07-.09.02-.16.07-.21.14-1.54-.03-2.92-.03-4.22,0-.03,0-.06,0-.08,0l-.08-.08c-.08-.08-.2-.11-.31-.08-.1.03-.18.09-.23.19h-.12c-.16,0-.32.02-.48.02-.04,0-.08,0-.12,0-.06-.02-.15-.04-.28.01h0c-.3.02-.6.03-.9.05l-.27.02-.04-.04c-.15-.13-.38-.07-.48.06-.02.03-.04.06-.06.1-.8.16-2.78.56-3.67.96-.18-.31-.25-.57-.2-.78.1-.41.71-.69,1.15-.86,3.76-1.38,8.39-1.06,12.48-.78l1.15.08c17.19,1.15,32.32,3.95,44.95,8.32l.36.12Zm-55.63-6.23l.04.02c1.22,1.23,2.44,2.45,3.66,3.67l1.86,1.85c.08.08.2.11.33.08.12-.03.21-.12.23-.22.03-.1,0-.21-.08-.29-1.72-1.72-3.45-3.45-5.17-5.18.2-.01.41-.02.64-.03l3.94,3.84c1.2,1.17,2.4,2.34,3.63,3.54-1.61-.59-3.22-1.19-4.8-1.82-5.8-2.14-7.65-3.83-8.19-4.5.54-.23,2.67-.76,3.91-.96Zm9.8,7.43l.15-.2-.17-.17c-1.74-1.7-3.48-3.4-5.22-5.09l-2.15-2.1.4-.02,8.07,8.07c-.39-.14-.78-.28-1.17-.42.03-.02.06-.05.09-.08Zm-4.48-7.61c1.26,1.26,2.53,2.52,3.79,3.79l.64.64c1.54,1.54,3.08,3.08,4.6,4.59.07.09.19.13.32.11.13-.03.23-.11.26-.22.03-.1,0-.22-.08-.29l-8.61-8.61c.46,0,.92.01,1.38.02.03,0,.05,0,.09,0,2.92,2.93,5.89,5.9,8.82,8.82.08.08.19.11.31.07.12-.03.21-.12.25-.24l.03-.15-8.47-8.47c.29,0,.6.02.91.03h.24c.05.01.09.01.13.01l.48.48c3.59,3.58,7.27,7.26,10.91,10.9-3.08-.9-6.11-1.87-9.03-2.89l-2.98-2.98c-1.87-1.86-3.73-3.73-5.6-5.6.54,0,1.08-.01,1.62-.01Zm7.95.3c3.96,3.96,7.92,7.92,11.9,11.91.14.1.35.06.46-.04.11-.11.11-.27,0-.41-3.79-3.79-7.59-7.59-11.38-11.38.73.06,1.5.12,2.33.2.06,0,.11.01.12,0h0c2.61,2.61,5.21,5.21,7.82,7.81l5.39,5.38c-2.39-.57-4.84-1.22-7.31-1.93-3.05-3.04-6.1-6.09-9.14-9.13l-2.56-2.57c.82.04,1.6.09,2.38.15Zm6.25.59l.29.03s.04,0,.05,0c.01,0,.02,0,.04,0,1.96,1.95,3.93,3.9,5.89,5.85l1.2,1.19c2.23,2.22,4.46,4.44,6.69,6.66-.84-.18-1.69-.37-2.54-.57-3.36-3.34-6.77-6.75-10.07-10.04l-3.33-3.33c.63.07,1.22.13,1.8.2Zm3.6.45s-.01.02-.01.03v.17s.09.07.09.07c3.72,3.73,7.44,7.45,11.16,11.17.06.05.13.08.21.08.11,0,.22-.06.28-.12l.18-.2-11.07-11.07c.73.1,1.48.21,2.28.33h.03s.05,0,.08.02c0,0,.01,0,.02,0,3.22,3.23,6.52,6.52,9.46,9.46l.31.31c.06.06.14.09.23.09h0c.09,0,.19-.04.26-.11l.07-.08v-.1s0-.14,0-.14l-.08-.08c-2.98-2.98-5.94-5.94-9.19-9.18.33.05.65.1.98.15l1.45.24c.16.03.31.05.51.09.04,0,.08.01.13.02,0,0,0,0,.01,0l5.99,5.99c.08.08.21.11.33.08.12-.04.21-.13.24-.24.02-.1-.02-.22-.08-.27l-5.37-5.37c.91.16,1.79.32,2.63.47-.03.09-.02.19.06.28l3.94,3.89c.06.06.14.09.23.09.03,0,.06,0,.1-.01.12-.03.21-.12.24-.25v-.16s-3.7-3.67-3.7-3.67c.5.1.99.2,1.46.29l.1.02s.05.01.1.02h.01c.65.66,1.31,1.32,1.96,1.97l.11.11c.06.06.14.09.23.09h0c.1,0,.19-.04.26-.1.12-.12.12-.3,0-.42l-1.4-1.4c7.02,1.51,14,3.52,20.76,5.98,3.48,1.28,6.99,2.86,9.03,5.79l.12.16c.24.34.51.73.6,1.09v.05s0,.12-.06.22c-.03.06-.08.13-.15.21-.1.13-.24.27-.4.4-.02,0-.03.02-.02.02l-.12.06s-.04.01-.08.03c-.12.05-.25.09-.41.13l-.37.05v.02c-.13.02-.27.04-.45.06-.54.06-1.14.08-1.89.06-.09,0-.17,0-.26,0-.08,0-.17,0-.26,0l-2.72-.09c-2.78-.09-5.59-.26-8.36-.51-5.92-.53-12-1.44-18.06-2.71l-13.92-13.83c.7.09,1.43.18,2.19.28Zm50.27,8.69c.08,0,.16.02.25.03l1.45,2.2c-.12.03-.23.06-.35.09l-.18-.31c-.39-.67-.78-1.34-1.17-2.01Zm4.95,1.67c-.06.03-.11.07-.14.12l-.4-.52c.14.05.28.11.42.17.06.07.11.13.17.2-.02,0-.04.01-.06.02Zm-104.63,216.51l-.19-.03-.03.04c-.72.99-1.72,1.6-2.83,1.72-.72.08-1.46,0-2.23-.28-.11-.03-.19-.06-.3-.12-.04-.01-.07-.03-.11-.05l-.06-.03c-.08-.04-.16-.07-.24-.12-.47-.22-.95-.54-1.42-.94-1.73-1.5-2.62-4.02-2.33-6.59.1-.89.33-1.84.72-2.93l.09-.27c.03-.09.06-.17.1-.26.07-.19.16-.39.26-.58.19-.36.4-.61.69-.81.25-.19.62-.35.84-.38-.04.12-.15.36-.42.81l-.09.16c-.06.1-.11.19-.14.25-.44.97-.75,1.98-.92,2.98-.38,2.32.11,4.43,1.37,5.96.56.68,1.28,1.2,2.1,1.52.19.08.35.13.49.16.72.21,1.47.23,2.15.06.98-.24,1.87-.93,2.32-1.79.21-.38.22-.8.24-1.2v-.06c0-.08,0-.17,0-.3,0-.13.02-.24.05-.33.03-.12.08-.21.13-.29.07-.07.17-.07.18-.07,0,0,.04.05.09.22l.05.25c.01.05.02.1.03.18,0,.03.01.07.01.14v.06s.01.07.01.07c.05.96-.21,1.92-.73,2.7l-.02.04.15.09s0,0,0,0Zm-9.88-9.7l-.03.09c-.4,1.15-.65,2.17-.76,3.11-.32,2.87.7,5.7,2.65,7.39.42.37.89.69,1.39.96-1.48,3.23-3.23,6.44-5.21,9.55-.4-.99-.81-1.96-1.24-2.9-1.83-4.02-4.1-7.73-6.26-11.2-1.19-1.89-2.39-3.94-3.15-6.12-.16-.46-.29-.88-.4-1.31-.41-1.63-.5-3.17-.27-4.68.37-2.39,1.44-4.7,3.35-7.25,1.1-1.33,2.09-2.32,3.08-3.1.71,2.13,1.44,4.04,2.22,5.83l.45,1.03c1.14,2.66,2.43,5.68,4.24,7.86.04.05.09.11.14.17-.07.18-.14.36-.21.55Zm9.1,6.02c-.08.28-.09.58-.1.88,0,.34-.02.64-.13.84-.33.64-.99,1.15-1.72,1.33-.53.13-1.08.12-1.63-.03,0,0-.02,0-.02,0,.57-1.35,1.06-2.61,1.51-3.84.03-.07.03-.15.02-.22.66.32,1.34.65,2.01,1l.08.04Zm-2.62-1.3s-.02,0-.03,0c-.09.02-.41.09-.5.35-.47,1.29-.92,2.46-1.39,3.57-.45-.26-.87-.61-1.2-1-1.09-1.31-1.5-3.16-1.16-5.21.01-.08.03-.17.04-.25,1.3,1.07,2.77,1.83,4.24,2.55Zm182.56-53.46s-.08.07-.11.1c-.07.06-.12.11-.17.15-.11-.77-.2-1.5-.28-2.2.16.66.34,1.31.55,1.94Zm15.35-5.49c0-.8-.16-1.57-.43-2.2,2.07.3,4.05.9,5.89,1.78l.52.25c1.87.91,3.64,1.78,5.72,2.19-.3,1.03-.53,2.08-.7,3.13-2.18.43-4.38.56-6.42.63-1,.04-1.99.06-2.93.05-1.24-.08-2.49-.22-3.83-.43,1.51-1.35,2.34-3.39,2.18-5.4Z"/>
  <polygon class="uuid-c514c72c-207e-4c1c-9d77-31754fd2f5b4" points="134.23 239.88 134.23 239.88 134.23 239.88 134.23 239.88"/>
  <polygon class="uuid-c514c72c-207e-4c1c-9d77-31754fd2f5b4" points="134.02 239.58 134.02 239.58 134.02 239.58 134.02 239.58"/>
  <polygon class="uuid-c514c72c-207e-4c1c-9d77-31754fd2f5b4" points="227.46 35.55 227.46 35.55 227.46 35.55 227.46 35.55"/>
  <polygon class="uuid-c514c72c-207e-4c1c-9d77-31754fd2f5b4" points="258.29 30.17 258.3 30.13 258.33 30.11 258.29 30.17 258.29 30.17"/>
  <polygon class="uuid-c514c72c-207e-4c1c-9d77-31754fd2f5b4" points="314.1 165.85 314.1 165.85 314.1 165.85 314.1 165.85"/>
  <polygon class="uuid-c514c72c-207e-4c1c-9d77-31754fd2f5b4" points="102.17 207.36 102.17 207.36 102.17 207.36 102.17 207.36"/>
  <g>
    <path class="uuid-c514c72c-207e-4c1c-9d77-31754fd2f5b4" d="m191.09,62.94h0c-7-.84-13.81-5.16-19.18-12.17-1.19-1.54-2.35-3.27-3.46-5.12-.03-.05-.06-.11-.1-.16-.76-1.19-2.97-4.26-4.15-5.89l-.03-.04c-.1-.14-.18-.26-.23-.32l-.17-.24-.44.26.07.14c3.31,6.73,7.63,14.31,14.58,19.47,3.27,2.43,6.74,4.07,10.31,4.87,1.84.41,3.85.61,6.14.61s4.31-.19,6.26-.39l2.06-.23c.3,0,.61-.04.89-.09.13-.02.27-.04.4-.05l.3-.03c.34-.04.67-.07,1.01-.11,1-.1,1.82-.17,2.59-.22.89-.06,1.62-.1,2.29-.12h.16c1.47-.04,3.03-.05,4.52.17v.06s.46.06.46.06c.07,0,.14.02.23.04h.13c.72.16,1.35.35,1.91.6l.15.07.24-.46-.14-.09c-1.02-.65-2.23-1.11-3.57-1.38-1.02-.2-2.09-.29-3.27-.27-2.69.03-5.38.33-8,.62-3.93.43-7.99.88-11.96.4Z"/>
    <path class="uuid-c514c72c-207e-4c1c-9d77-31754fd2f5b4" d="m194.41,64.49c-2.3,0-4.32-.2-6.17-.62-3.59-.8-7.07-2.45-10.36-4.9-6.97-5.18-11.3-12.77-14.62-19.52l-.13-.26.65-.39.24.34c.05.06.13.18.24.33l.03.04c1.18,1.63,3.38,4.7,4.15,5.9.04.06.08.12.11.18,1.1,1.84,2.27,3.56,3.45,5.1,5.35,6.97,12.13,11.27,19.09,12.11h0,0c3.94.48,7.98.04,11.88-.39h.05c2.6-.29,5.3-.59,8.01-.63,1.17-.02,2.26.07,3.3.27,1.36.27,2.58.74,3.61,1.39l.24.15-.36.68-.26-.12c-.55-.24-1.17-.44-1.88-.59h-.12s-.03,0-.03,0c-.07-.01-.14-.02-.2-.03l-.57-.07v-.06c-1.44-.2-2.96-.19-4.39-.16h-.16c-.67.03-1.4.07-2.29.13-.74.05-1.56.12-2.58.22-.34.03-.67.07-1.01.1l-.3.03c-.12.01-.25.03-.38.05-.3.04-.62.09-.92.09l-2.05.23c-1.96.2-4.07.39-6.27.39Zm-30.92-25.18l.02.03c3.3,6.72,7.62,14.28,14.54,19.42,3.25,2.42,6.7,4.06,10.26,4.85,1.83.41,3.83.61,6.11.61s4.3-.19,6.25-.39l2.06-.23c.3,0,.61-.05.88-.09.15-.02.28-.04.41-.05l.3-.03c.33-.04.67-.07,1.01-.11,1.03-.1,1.85-.17,2.59-.22.89-.06,1.62-.1,2.3-.12h.16c1.48-.04,3.06-.05,4.55.17l.11.02v.05s.34.04.34.04c.07,0,.14.02.21.03h.13c.76.16,1.39.36,1.96.61h.03s.12-.22.12-.22l-.03-.02c-1.01-.64-2.19-1.09-3.52-1.36-1.02-.2-2.08-.29-3.24-.27-2.7.03-5.38.33-7.98.62h-.05c-3.92.44-7.97.89-11.94.4h0c-7.05-.85-13.88-5.19-19.27-12.22-1.19-1.55-2.36-3.27-3.47-5.13-.03-.06-.06-.11-.1-.16-.77-1.19-2.97-4.26-4.15-5.89l-.03-.04c-.1-.14-.18-.26-.23-.32l-.1-.14-.23.13Z"/>
  </g>
  <g>
    <path class="uuid-c514c72c-207e-4c1c-9d77-31754fd2f5b4" d="m125.97,172.18c-.06.18,0,.42.29.52,2.8.94,5.64,1.48,8.46,1.6.53.02,1.04.04,1.53.04,2.51,0,4.6-.32,6.39-.97,4.64-1.7,7.65-6.02,10.06-9.5.1-.14.1-.27.09-.35-.02-.11-.08-.21-.18-.27-.12-.09-.3-.12-.46-.09-.15.03-.28.11-.36.22-2.39,3.44-5.1,7.34-9.21,8.99-2.06.83-4.55,1.14-7.83.97-2.68-.13-5.37-.65-8-1.53-.31-.1-.69.12-.78.38Z"/>
    <path class="uuid-c514c72c-207e-4c1c-9d77-31754fd2f5b4" d="m136.26,174.48c-.49,0-1.01-.01-1.54-.04-2.83-.13-5.69-.67-8.5-1.61-.36-.12-.46-.44-.38-.69h0c.11-.32.56-.6.95-.47,2.62.88,5.3,1.39,7.97,1.53,3.25.16,5.72-.14,7.77-.96,4.07-1.63,6.77-5.51,9.15-8.94.1-.15.26-.25.45-.28.2-.04.41,0,.56.11.12.09.21.21.23.36.02.11.01.27-.11.45-2.42,3.49-5.44,7.83-10.13,9.55-1.8.66-3.91.98-6.44.98Zm-10.15-2.25h0c-.04.12,0,.28.21.35,2.78.93,5.62,1.47,8.42,1.6,3.18.14,5.75-.15,7.87-.93,4.6-1.68,7.6-5.99,10-9.45.07-.1.08-.19.07-.25-.01-.07-.06-.14-.12-.18-.09-.07-.23-.09-.36-.07-.12.02-.22.08-.28.17-2.4,3.46-5.12,7.37-9.27,9.03-2.09.84-4.6,1.15-7.89.98-2.69-.13-5.39-.65-8.04-1.54-.23-.07-.54.1-.61.3Z"/>
  </g>
  <g>
    <path class="uuid-c514c72c-207e-4c1c-9d77-31754fd2f5b4" d="m155.02,158.31c.02-.12-.03-.24-.14-.32-.15-.12-.4-.14-.61-.06-2.87,1.18-5.14,3.26-7.33,5.27-.82.75-1.68,1.54-2.55,2.26-4.16,3.44-9.16,4.7-14.08,3.55-.21-.05-.53.08-.67.23-.14.15-.11.29-.09.34.02.07.09.2.3.25,1.28.3,2.59.45,3.89.45,3.51,0,6.87-1.05,9.74-3.03,1.52-1.05,2.9-2.32,4.24-3.55,2.1-1.94,4.27-3.94,6.98-5.05.19-.08.3-.2.32-.34Z"/>
    <path class="uuid-c514c72c-207e-4c1c-9d77-31754fd2f5b4" d="m133.74,170.42c-1.32,0-2.64-.15-3.92-.45-.29-.07-.37-.26-.4-.34-.02-.06-.07-.27.12-.47.17-.18.54-.34.8-.27,4.87,1.14,9.83-.12,13.96-3.53.88-.72,1.73-1.5,2.55-2.26,2.2-2.02,4.48-4.1,7.37-5.29.25-.1.55-.08.74.07.14.11.21.28.19.45h0c-.02.14-.1.33-.41.45-2.68,1.1-4.85,3.1-6.94,5.02-1.34,1.23-2.73,2.51-4.25,3.57-2.89,2-6.28,3.05-9.82,3.05Zm-3.53-1.28c-.16,0-.37.1-.47.2-.09.09-.07.18-.06.21.02.06.06.13.2.16,1.27.29,2.57.44,3.86.44,3.48,0,6.82-1.04,9.66-3,1.51-1.04,2.89-2.31,4.22-3.54,2.11-1.95,4.29-3.96,7.02-5.08.15-.06.23-.14.24-.24h0c.01-.07-.02-.15-.09-.2-.11-.09-.31-.11-.47-.04-2.85,1.17-5.11,3.24-7.29,5.24-.82.75-1.68,1.54-2.56,2.27-4.2,3.46-9.24,4.74-14.19,3.58-.02,0-.05,0-.07,0Z"/>
  </g>
  <g>
    <path class="uuid-c514c72c-207e-4c1c-9d77-31754fd2f5b4" d="m138.67,152.27c3.27,1.16,6.71,1.9,10.28,2.18.27,0,.61-.21.63-.47.01-.16-.09-.35-.41-.38-12.54-1.01-23.84-8.07-30.23-18.89-1.7-2.89-3.03-6.01-3.96-9.3-.04-.13-.14-.23-.29-.27-.22-.06-.53.03-.68.19-.1.11-.14.24-.1.37,3.47,12.36,12.73,22.29,24.76,26.57Z"/>
    <path class="uuid-c514c72c-207e-4c1c-9d77-31754fd2f5b4" d="m148.95,154.59c-3.58-.29-7.05-1.02-10.33-2.19h0c-12.07-4.29-21.36-14.26-24.84-26.66-.05-.18,0-.36.14-.5.19-.19.55-.29.81-.22.19.05.33.18.38.36.92,3.27,2.25,6.39,3.94,9.27,6.36,10.78,17.62,17.82,30.12,18.83.39.03.55.29.53.53-.03.34-.43.59-.76.59Zm-10.24-2.44c3.26,1.16,6.7,1.89,10.25,2.17.19,0,.47-.16.48-.35,0-.05,0-.21-.28-.24-12.59-1.02-23.93-8.1-30.33-18.96-1.71-2.89-3.04-6.03-3.97-9.33-.02-.09-.09-.15-.19-.17-.18-.04-.43.03-.55.15-.07.07-.1.16-.07.24,3.46,12.31,12.68,22.21,24.67,26.48h0Z"/>
  </g>
  <g>
    <path class="uuid-c514c72c-207e-4c1c-9d77-31754fd2f5b4" d="m165.73,133.01c-.14-.08-.31-.09-.52-.03-6.33,1.73-13.28,4.14-15.48,10.75-.06.19.01.44.28.52.06.02.13.03.21.03.22,0,.65-.09.76-.41,2.03-6.11,8.54-8.36,14.48-9.98.41-.11.53-.39.47-.62-.03-.11-.1-.2-.2-.26Z"/>
    <path class="uuid-c514c72c-207e-4c1c-9d77-31754fd2f5b4" d="m150.22,144.42c-.09,0-.18-.01-.25-.04-.35-.12-.45-.45-.36-.7,2.22-6.68,9.2-9.1,15.57-10.84.25-.07.46-.05.62.05.13.07.23.2.27.34.08.28-.07.65-.57.79-5.91,1.62-12.38,3.85-14.39,9.89-.13.4-.62.5-.89.5Zm15.23-11.34c-.06,0-.13.01-.21.03-6.3,1.72-13.2,4.11-15.38,10.67-.03.1-.01.29.19.35.05.01.1.02.17.02.15,0,.54-.06.63-.32,2.05-6.17,8.6-8.43,14.57-10.07.34-.1.42-.3.38-.46-.02-.08-.07-.14-.14-.18h0c-.06-.04-.13-.05-.21-.05Z"/>
  </g>
  <g>
    <path class="uuid-c514c72c-207e-4c1c-9d77-31754fd2f5b4" d="m145.91,40.59h0c-.1.05-.39.19-.43.56v.33s.25.18.25.18c.12.08.27.12.45.12.2,0,.42-.05.52-.1,6.31-2.95,12.34-6.6,17.94-10.84-.78,2.02-1.2,4.12-1.25,6.26,0,.12.06.22.16.28.2.12.52.05.68-.05.22-.12.25-.29.26-.37.06-2.53.68-5.08,1.81-7.39l.33-.27-.05-.25c.63-1.2,1.37-2.29,2.19-3.25.14-.17.1-.36-.02-.46-.11-.09-.28-.1-.4-.09-.17.01-.39.07-.5.21-.77.9-1.48,1.93-2.1,3.05-.2.02-.44.08-.59.2-5.18,4.1-10.81,7.69-16.74,10.67-.52-.73-1.12-1.42-1.83-2.1-1.73-2.13-4.13-3.53-6.87-5-1.89-1.02-3.83-2-5.75-2.91-1.88-.89-3.59-1.63-5.57-1.7-.23,0-.48.16-.58.32-.07.12-.08.25-.02.35.05.09.15.19.38.2,1.93.07,3.71.92,5.43,1.75l.17.08c1.76.84,3.52,1.74,5.24,2.67,1.88,1.01,3.56,1.95,5,3.15,1.34,1.45,2.27,2.71,2.91,3.92l-.19.09c-.27.14-.55.27-.83.4Z"/>
    <path class="uuid-c514c72c-207e-4c1c-9d77-31754fd2f5b4" d="m146.18,41.91c-.21,0-.39-.05-.53-.14l-.31-.22v-.4c.03-.3.2-.53.51-.67l.06.12-.06-.12c.28-.13.55-.26.82-.4l.06-.03c-.63-1.17-1.53-2.37-2.82-3.77-1.42-1.18-3.09-2.11-4.96-3.12-1.72-.92-3.48-1.82-5.24-2.67l-.17-.08c-1.71-.82-3.48-1.67-5.38-1.74-.31,0-.45-.17-.5-.27-.08-.15-.07-.33.03-.49.12-.19.41-.38.69-.38,2.01.07,3.74.82,5.63,1.72,1.92.91,3.85,1.89,5.75,2.91,2.75,1.48,5.17,2.88,6.91,5.04.67.64,1.25,1.3,1.76,2.01,5.88-2.97,11.47-6.54,16.61-10.61.18-.14.44-.2.59-.22.62-1.11,1.32-2.12,2.08-3.02.17-.21.5-.25.6-.25.15-.01.35,0,.5.12.17.14.23.42.04.65-.81.94-1.53,2.02-2.15,3.18l.05.28-.36.31c-1.11,2.28-1.72,4.81-1.78,7.31,0,.09-.04.33-.33.49-.18.1-.56.2-.82.04-.14-.09-.22-.24-.22-.4.05-2,.42-3.97,1.1-5.87-5.5,4.12-11.42,7.68-17.59,10.57-.12.05-.35.11-.58.11Zm-.57-.5l.2.14c.09.06.22.1.37.1.18,0,.38-.04.47-.09,6.3-2.95,12.32-6.59,17.91-10.82l.38-.29-.17.44c-.78,2-1.2,4.1-1.25,6.22,0,.07.03.13.09.16.14.09.41.03.55-.05.15-.08.19-.19.19-.26.06-2.55.69-5.12,1.82-7.45l.03-.04.27-.22-.04-.22.02-.04c.63-1.2,1.38-2.31,2.21-3.28.09-.11.06-.21,0-.27-.06-.05-.17-.07-.3-.06-.15.01-.33.06-.41.16-.77.89-1.47,1.91-2.08,3.03l-.03.06h-.07c-.22.03-.42.1-.52.18-5.18,4.1-10.82,7.7-16.76,10.69l-.1.05-.07-.09c-.52-.72-1.11-1.4-1.81-2.08-1.72-2.13-4.12-3.51-6.84-4.98-1.9-1.02-3.83-2-5.74-2.91-1.86-.88-3.56-1.62-5.52-1.69-.17,0-.38.13-.46.25-.04.07-.05.15-.02.22.04.08.13.12.27.13,1.96.07,3.75.93,5.48,1.76l.17.08c1.76.84,3.53,1.74,5.25,2.67,1.89,1.02,3.57,1.96,5.02,3.17,1.37,1.48,2.3,2.73,2.94,3.96l.06.12-.31.15c-.27.14-.55.27-.83.4h-.02c-.07.04-.3.16-.33.45v.25Z"/>
  </g>
  <g>
    <path class="uuid-c514c72c-207e-4c1c-9d77-31754fd2f5b4" d="m113.08,107.63c-.1.05-.22.15-.26.29-.01.04-.03.14.03.25.03.06.11.14.26.18,6.07,1.62,9.84,7.19,13,12.98.22.4.43.79.65,1.19,1.28,2.36,2.6,4.8,4.21,7.01,1.87,2.58,4.13,4.73,6.72,6.38,2.94,1.88,6.2,3.09,9.68,3.6h.07c.21,0,.65-.17.69-.45.01-.08,0-.17-.06-.23-.06-.08-.15-.13-.27-.14-6.39-.94-12.02-4.38-15.87-9.69-1.58-2.18-2.9-4.6-4.18-6.95-1.74-3.2-3.54-6.51-6.06-9.29-2.43-2.69-5.16-4.44-8.1-5.22-.17-.05-.38.02-.52.1Z"/>
    <path class="uuid-c514c72c-207e-4c1c-9d77-31754fd2f5b4" d="m147.44,139.65h-.08c-3.51-.52-6.79-1.74-9.74-3.63-2.6-1.66-4.87-3.82-6.75-6.42-1.61-2.22-2.94-4.67-4.22-7.03l-.13-.23c-.17-.32-.35-.64-.52-.96-3.15-5.76-6.9-11.31-12.92-12.91-.19-.05-.29-.16-.34-.24-.09-.15-.06-.29-.05-.35.05-.18.2-.3.32-.37.17-.09.42-.17.62-.11,2.96.79,5.71,2.56,8.16,5.26,2.53,2.79,4.33,6.11,6.08,9.32,1.27,2.34,2.59,4.76,4.17,6.94,3.83,5.28,9.43,8.7,15.78,9.63.16.02.28.09.36.2.07.1.1.22.08.33-.05.37-.57.57-.82.57Zm-33.96-32c-.11,0-.24.04-.33.1h0c-.06.04-.17.11-.19.21,0,.02-.02.08.02.14.02.04.07.09.18.12,6.12,1.63,9.91,7.23,13.09,13.04.17.32.35.64.52.96l.13.23c1.28,2.36,2.6,4.79,4.2,7,1.86,2.57,4.11,4.71,6.68,6.35,2.92,1.87,6.16,3.07,9.63,3.58h.06c.16,0,.52-.15.55-.33,0-.05,0-.1-.03-.13-.04-.05-.1-.08-.18-.09-6.42-.94-12.09-4.4-15.96-9.74-1.59-2.19-2.91-4.62-4.19-6.97-1.74-3.19-3.53-6.49-6.04-9.26-2.42-2.67-5.12-4.41-8.03-5.18-.03,0-.06-.01-.09-.01Z"/>
  </g>
  <g>
    <path class="uuid-c514c72c-207e-4c1c-9d77-31754fd2f5b4" d="m168.61,122.54c-.19-.12-.67.01-.74.05-4.79,2.57-8.94,6.3-12,10.8l-.08.13.07.14c.05.1.14.15.27.17.02,0,.04,0,.07,0,.15,0,.53-.02.68-.24,2.98-4.38,7.02-8.02,11.68-10.52.13-.07.2-.16.2-.29v-.15s-.14-.08-.14-.08Z"/>
    <path class="uuid-c514c72c-207e-4c1c-9d77-31754fd2f5b4" d="m156.19,133.96s-.06,0-.07,0c-.23-.02-.34-.14-.39-.24l-.1-.2.12-.2c3.07-4.52,7.24-8.26,12.05-10.85.05-.03.6-.21.87-.05h0s.18.12.18.12v.22c.01.19-.08.33-.26.42-4.64,2.49-8.66,6.11-11.63,10.47-.18.26-.57.3-.79.3Zm-.25-.43l.03.07s.05.08.16.09c.01,0,.03,0,.05,0,.21,0,.47-.05.56-.18,2.99-4.4,7.04-8.05,11.72-10.56.1-.05.13-.11.13-.18v-.07s-.07-.04-.07-.04c-.12-.07-.52.02-.6.06-4.77,2.56-8.91,6.28-11.95,10.75l-.04.07Z"/>
  </g>
  <g>
    <path class="uuid-c514c72c-207e-4c1c-9d77-31754fd2f5b4" d="m168.83,120.21c-.19-.06-.48,0-.59.06-4.02,2.2-7.65,4.99-10.78,8.3-.08.09-.11.2-.08.3.03.11.12.18.24.21.04,0,.09.01.14.01.14,0,.46-.04.6-.19,3.06-3.24,6.58-5.95,10.47-8.08.13-.07.21-.15.24-.25.02-.07.01-.15-.03-.22-.03-.05-.08-.12-.2-.15Z"/>
    <path class="uuid-c514c72c-207e-4c1c-9d77-31754fd2f5b4" d="m157.76,129.23c-.07,0-.12,0-.18-.02-.16-.04-.29-.15-.33-.3-.04-.16,0-.31.11-.44,3.14-3.32,6.78-6.12,10.81-8.33.14-.08.46-.15.7-.07.16.05.24.15.28.22.06.1.07.22.04.32-.04.13-.14.24-.3.33-3.87,2.12-7.38,4.83-10.43,8.05-.17.18-.52.23-.7.23Zm10.89-8.92c-.13,0-.28.03-.34.07-4.01,2.19-7.63,4.98-10.75,8.28-.05.05-.07.11-.05.17.02.06.07.1.14.12.03,0,.07.01.11.01.15,0,.4-.05.5-.15,3.07-3.25,6.6-5.97,10.5-8.1.1-.05.15-.11.17-.17.01-.04,0-.08-.01-.12-.02-.04-.06-.07-.12-.09h0s-.09-.02-.14-.02Z"/>
  </g>
  <g>
    <path class="uuid-c514c72c-207e-4c1c-9d77-31754fd2f5b4" d="m165.89,119.85h0c-2.2,1.19-4.21,2.67-5.98,4.4-.11.11-.14.21-.14.29,0,.12.07.2.09.23.1.1.25.12.37.12.15,0,.38-.04.5-.17,1.72-1.68,3.66-3.1,5.76-4.24.14-.08.23-.2.24-.34,0-.13-.05-.25-.16-.33-.24-.18-.58-.02-.68.03Z"/>
    <path class="uuid-c514c72c-207e-4c1c-9d77-31754fd2f5b4" d="m160.23,125.03c-.2,0-.36-.06-.46-.17-.04-.04-.13-.15-.13-.32,0-.09.03-.24.18-.38,1.78-1.74,3.8-3.23,6.01-4.43h0c.12-.06.52-.24.82-.02.15.11.23.28.21.45-.01.18-.13.35-.31.45-2.1,1.13-4.02,2.55-5.73,4.22-.15.15-.41.2-.59.2Zm6.08-5.16c-.15,0-.31.08-.35.1h0c-2.18,1.18-4.19,2.66-5.95,4.38-.08.08-.1.15-.1.19,0,.08.04.12.05.13.07.08.2.09.27.09.13,0,.32-.04.41-.13,1.73-1.69,3.67-3.12,5.79-4.26.1-.05.16-.14.17-.23,0-.08-.03-.16-.1-.21-.05-.04-.12-.05-.19-.05Z"/>
  </g>
  <g>
    <path class="uuid-c514c72c-207e-4c1c-9d77-31754fd2f5b4" d="m229.92,59.68h0s.08.02.12.02c.13,0,.31-.08.36-.21l.1-.24-.24-.11-.04-.02c-5.28-2.32-10.59-4.78-15.78-7.33-.16-.08-.42.02-.49.16l-.12.25.25.12c5.22,2.56,10.55,5.03,15.84,7.35Z"/>
    <path class="uuid-c514c72c-207e-4c1c-9d77-31754fd2f5b4" d="m230.04,59.84c-.06,0-.12-.01-.17-.03h0c-5.3-2.33-10.63-4.8-15.84-7.36l-.37-.18.19-.37c.1-.2.43-.34.67-.22,5.19,2.54,10.49,5.01,15.77,7.32l.4.18-.16.36c-.08.19-.31.29-.49.29Zm-.07-.28h0c.09.04.26-.02.31-.11l.05-.12-.16-.07c-5.28-2.32-10.6-4.78-15.79-7.33-.09-.05-.27.02-.31.1l-.06.12.13.06c5.2,2.55,10.53,5.02,15.83,7.35Z"/>
  </g>
  <g>
    <path class="uuid-c514c72c-207e-4c1c-9d77-31754fd2f5b4" d="m210.63,53.75c-.09.04-.17.1-.2.17l-.08.27.23.1c5.04,2.21,10.33,3.88,15.7,4.97h.08c.14.01.34-.07.38-.27l.03-.26-.25-.05c-5.35-1.09-10.61-2.75-15.61-4.94-.08-.04-.18-.03-.28,0Z"/>
    <path class="uuid-c514c72c-207e-4c1c-9d77-31754fd2f5b4" d="m226.36,59.42h-.09c-5.39-1.1-10.68-2.78-15.74-4.99l-.34-.15.12-.39c.05-.13.15-.21.28-.26h0c.13-.05.27-.05.38,0,5,2.19,10.24,3.85,15.58,4.93l.37.08-.04.38c-.05.27-.3.4-.52.4Zm-15.85-5.29l.12.05c5.04,2.21,10.31,3.88,15.68,4.96h.07c.05,0,.21-.04.23-.17v-.12s-.12-.03-.12-.03c-5.36-1.09-10.62-2.75-15.64-4.95-.05-.02-.11-.02-.18,0h0c-.06.02-.1.06-.12.1l-.04.14Z"/>
  </g>
  <g>
    <path class="uuid-c514c72c-207e-4c1c-9d77-31754fd2f5b4" d="m203.7,55.28c-.09.07-.14.18-.12.29.01.08.07.19.2.24,6.18,2.39,12.67,3.83,19.3,4.27.12,0,.23-.06.3-.16.06-.09.07-.21.03-.3-.05-.1-.15-.16-.27-.17-6.54-.44-12.97-1.86-19.09-4.23-.14-.05-.27,0-.35.06Zm.11.14h0s0,0,0,0Z"/>
    <path class="uuid-c514c72c-207e-4c1c-9d77-31754fd2f5b4" d="m223.08,60.22c-6.65-.44-13.15-1.88-19.35-4.28-.18-.07-.27-.23-.28-.35-.02-.15.04-.31.17-.41h0c.11-.09.29-.15.48-.08,6.1,2.36,12.51,3.78,19.04,4.22.17.01.31.1.38.25.07.14.06.3-.03.44-.09.14-.25.22-.41.22Zm-19.29-4.83h0c-.05.04-.08.11-.07.16,0,.05.04.11.11.14,6.17,2.39,12.65,3.82,19.26,4.26.06,0,.14-.04.18-.1.04-.05.04-.12.02-.17-.03-.05-.08-.09-.15-.09-6.56-.44-12.99-1.87-19.13-4.24-.1-.04-.2.03-.22.04Z"/>
  </g>
  <g>
    <path class="uuid-c514c72c-207e-4c1c-9d77-31754fd2f5b4" d="m196.97,58.98l-.11.14.04.14c.03.1.11.17.22.2,5.35,1.24,10.95,1.4,16.36,1.55,1.21.03,2.47.07,3.71.12.17,0,.35-.13.36-.31,0-.08-.02-.15-.07-.21-.04-.04-.11-.09-.22-.1-1.21-.05-2.46-.08-3.66-.12h-.05c-5.38-.15-10.94-.31-16.23-1.53-.14-.03-.28.04-.36.12Z"/>
    <path class="uuid-c514c72c-207e-4c1c-9d77-31754fd2f5b4" d="m217.19,61.26c-1.25-.05-2.5-.08-3.72-.12-5.42-.15-11.02-.31-16.39-1.55-.15-.04-.27-.14-.32-.29l-.06-.21.16-.21c.1-.11.29-.2.48-.16,5.27,1.22,10.82,1.38,16.2,1.53h.09c1.19.04,2.42.07,3.62.12.12,0,.24.05.32.14.08.08.12.19.11.3,0,.26-.26.44-.49.44Zm-20.19-2.11l.02.07c.02.05.06.09.12.11,5.34,1.24,10.93,1.39,16.33,1.54,1.22.03,2.48.07,3.72.12.1,0,.21-.08.22-.18,0-.04-.01-.08-.04-.11-.02-.02-.06-.05-.13-.05-1.2-.05-2.43-.08-3.62-.12h-.09c-5.39-.15-10.96-.31-16.25-1.54-.08-.02-.17.02-.22.07l-.06.08Z"/>
  </g>
  <g>
    <path class="uuid-c514c72c-207e-4c1c-9d77-31754fd2f5b4" d="m230.85,57.7h.08c.16,0,.29-.1.33-.25.02-.08,0-.17-.04-.24-.04-.07-.12-.12-.2-.15-3.45-.86-6.41-2.89-9.27-4.86-2.58-1.77-5.24-3.6-8.3-4.61-.2-.06-.4.07-.45.22-.03.08-.02.16.02.23.04.07.1.13.19.16,2.99.99,5.62,2.8,8.18,4.55,2.9,1.99,5.91,4.05,9.46,4.94Z"/>
    <path class="uuid-c514c72c-207e-4c1c-9d77-31754fd2f5b4" d="m230.93,57.84h-.11c-3.58-.91-6.59-2.97-9.5-4.97-2.55-1.75-5.18-3.56-8.15-4.54-.12-.04-.21-.12-.26-.22-.05-.1-.06-.22-.02-.33.07-.22.33-.39.61-.31,3.08,1.02,5.75,2.85,8.34,4.63,2.86,1.96,5.8,3.99,9.23,4.84.12.03.23.1.29.21.06.1.08.22.05.34-.05.21-.25.36-.46.36Zm-.06-.28h.07c.08,0,.16-.06.19-.15.01-.05,0-.09-.02-.13-.02-.04-.07-.07-.12-.08-3.47-.87-6.44-2.91-9.32-4.88-2.57-1.77-5.23-3.59-8.27-4.6-.13-.03-.25.05-.28.14-.01.04-.01.09,0,.13.02.04.06.07.11.09,3,.99,5.65,2.81,8.21,4.57,2.89,1.99,5.88,4.04,9.41,4.92Z"/>
  </g>
  <g>
    <path class="uuid-c514c72c-207e-4c1c-9d77-31754fd2f5b4" d="m211.55,43.12s-.04,0-.06,0l-.12-.11v.17c-.1.06-.17.15-.17.26,0,.08.02.16.07.22.05.06.13.1.23.11,7.96.51,13.66,6.59,18.37,12.25.06.08.15.12.25.12.09,0,.17-.03.24-.09.13-.11.15-.3.04-.43-4.8-5.76-10.61-11.95-18.84-12.48h0Z"/>
    <path class="uuid-c514c72c-207e-4c1c-9d77-31754fd2f5b4" d="m230.12,56.25c-.14,0-.27-.06-.36-.17-4.69-5.63-10.37-11.69-18.27-12.2-.13,0-.24-.06-.32-.15-.07-.09-.11-.2-.1-.31,0-.12.07-.24.17-.32l.03-.39.28.27h.02c8.29.53,14.13,6.74,18.94,12.53.16.19.13.46-.06.62-.09.08-.21.12-.33.12Zm-18.64-12.99l-.04.03c-.06.04-.09.09-.1.15,0,.04.01.09.04.12.03.03.08.05.13.06,8.01.51,13.73,6.61,18.46,12.29.11.13.23.08.31.01.08-.06.09-.17.03-.24-4.78-5.74-10.57-11.91-18.75-12.43v-.13s0,.13,0,.13c-.01,0-.03,0-.04,0h-.04Z"/>
  </g>
  <g>
    <path class="uuid-c514c72c-207e-4c1c-9d77-31754fd2f5b4" d="m213.82,40.11c-.09.04-.17.1-.2.18-.03.07-.04.15,0,.22.03.07.08.13.16.17,6.8,3.08,13.01,7.66,17.93,13.27.06.07.15.11.25.11h.07c.1-.03.22-.09.27-.23.04-.1.01-.21-.06-.29-4.99-5.67-11.26-10.31-18.14-13.42-.08-.04-.18-.04-.28,0Z"/>
    <path class="uuid-c514c72c-207e-4c1c-9d77-31754fd2f5b4" d="m231.95,54.19c-.15,0-.27-.06-.36-.15-4.92-5.59-11.1-10.17-17.89-13.24-.11-.05-.19-.14-.23-.25-.04-.11-.03-.22.01-.32.05-.11.15-.2.28-.25h0c.12-.05.26-.04.38,0,6.9,3.12,13.18,7.77,18.18,13.46.11.12.14.28.08.43-.06.19-.24.28-.37.31h-.08s0,0,0,0Zm-18.09-13.96c-.06.02-.11.06-.13.11-.02.04-.02.08,0,.12.01.04.05.07.09.09,6.82,3.08,13.04,7.68,17.98,13.3.03.04.09.06.14.06h.06s.13-.06.16-.14c.02-.06,0-.12-.03-.16-4.97-5.66-11.23-10.29-18.09-13.39-.05-.02-.11-.02-.17,0Z"/>
  </g>
  <g>
    <path class="uuid-c514c72c-207e-4c1c-9d77-31754fd2f5b4" d="m230.35,48.79c-.13-.07-.27-.04-.37.02-.1.06-.16.16-.16.27,0,.11.06.2.16.26,2.41,1.31,4.48,3.07,6.15,5.23.06.08.15.12.26.12h.05c.1-.02.23-.08.29-.21.04-.1.02-.21-.04-.29-1.7-2.2-3.9-4.06-6.34-5.39Z"/>
    <path class="uuid-c514c72c-207e-4c1c-9d77-31754fd2f5b4" d="m236.4,54.83c-.15,0-.28-.06-.37-.17-1.67-2.15-3.72-3.9-6.11-5.2-.14-.08-.23-.22-.23-.38,0-.15.08-.3.22-.38.13-.08.32-.12.5-.02,2.46,1.34,4.67,3.22,6.38,5.43.09.12.12.28.06.42-.08.19-.26.28-.4.3h-.06s0,0,0,0Zm-6.21-5.94c-.05,0-.1.02-.14.04-.06.04-.09.09-.09.15,0,.06.03.11.09.14,2.42,1.32,4.51,3.09,6.2,5.27.03.04.09.07.15.07h.04s.13-.03.17-.13c.02-.05,0-.11-.02-.16-1.69-2.18-3.87-4.03-6.3-5.36h0s-.06-.02-.09-.02Z"/>
  </g>
  <g>
    <path class="uuid-c514c72c-207e-4c1c-9d77-31754fd2f5b4" d="m259.35,54.33h0s.01.19.01.19l.12.08c.05.04.11.05.18.05.06,0,.13-.01.18-.04.1-.05.17-.15.18-.25.48-6-1.19-11.92-4.69-16.66-3.25-4.39-7.99-7.63-13.35-9.11-.13-.04-.29.02-.37.11l-.1.13.04.14c.03.1.11.18.21.21,5.23,1.44,9.85,4.6,13.02,8.89,3.42,4.63,5.05,10.41,4.58,16.26Z"/>
    <path class="uuid-c514c72c-207e-4c1c-9d77-31754fd2f5b4" d="m259.66,54.79c-.1,0-.18-.03-.26-.08l-.17-.12-.02-.24v-.03c.46-5.82-1.15-11.56-4.55-16.17-3.15-4.27-7.75-7.41-12.95-8.84-.16-.04-.27-.16-.31-.31l-.05-.2.15-.18c.12-.12.32-.22.51-.16,5.39,1.49,10.16,4.74,13.42,9.16,3.52,4.77,5.2,10.72,4.72,16.75-.01.16-.11.29-.26.36-.07.03-.15.05-.24.05Zm-.17-.34l.06.04c.06.04.16.04.23,0,.06-.03.1-.08.11-.14.47-5.97-1.18-11.85-4.67-16.57-3.23-4.37-7.95-7.59-13.28-9.06-.08-.02-.19.02-.24.08l-.05.07.02.07c.01.06.06.1.12.11,5.26,1.45,9.91,4.63,13.09,8.94,3.44,4.66,5.07,10.47,4.61,16.35h0s0,.1,0,.1Z"/>
  </g>
  <g>
    <path class="uuid-c514c72c-207e-4c1c-9d77-31754fd2f5b4" d="m252.63,53.69h.07c.24-.04.33-.21.31-.35-.37-2.38-1.22-4.85-2.6-7.54-1.42-2.76-2.76-5.02-4.11-6.91-1.51-2.11-3.56-3.42-5.74-4.82l-7.7-4.91c-.1-.06-.24-.06-.37.01-.14.08-.17.19-.17.25v.15s7.62,4.87,7.62,4.87c2.28,1.46,4.44,2.83,5.98,5.07,2.57,3.74,5.62,8.7,6.43,13.95.02.12.12.23.29.23Z"/>
    <path class="uuid-c514c72c-207e-4c1c-9d77-31754fd2f5b4" d="m252.63,53.82h0c-.25,0-.4-.18-.42-.34-.8-5.22-3.85-10.17-6.41-13.9-1.52-2.21-3.67-3.58-5.93-5.03l-7.7-4.91v-.23c0-.16.1-.29.25-.37.17-.09.36-.1.5,0l7.7,4.92c2.19,1.4,4.26,2.72,5.78,4.85,1.35,1.9,2.7,4.16,4.12,6.93,1.39,2.7,2.25,5.18,2.62,7.58.03.21-.09.45-.42.5h-.09Zm-20.19-24.33l7.56,4.83c2.3,1.47,4.46,2.85,6.02,5.11,2.58,3.75,5.64,8.73,6.45,14.01,0,.02.03.12.15.12h.06c.12-.03.2-.1.18-.2-.37-2.37-1.21-4.82-2.59-7.5-1.42-2.75-2.76-5.01-4.1-6.89-1.49-2.09-3.54-3.4-5.71-4.78l-7.7-4.91c-.06-.04-.14-.03-.23.02-.07.03-.1.08-.1.14v.08Z"/>
  </g>
  <g>
    <path class="uuid-c514c72c-207e-4c1c-9d77-31754fd2f5b4" d="m233.98,34.98c-.19-.08-.39.02-.46.17-.07.15,0,.33.16.41,7.39,3.44,13.33,9.77,16.28,17.38.05.12.17.2.3.2.05,0,.1,0,.14-.03.17-.07.26-.24.2-.4l-.04-.12h0c-3.03-7.7-9.06-14.12-16.57-17.61Z"/>
    <path class="uuid-c514c72c-207e-4c1c-9d77-31754fd2f5b4" d="m250.27,53.27c-.19,0-.36-.11-.43-.29-2.94-7.57-8.85-13.88-16.21-17.31-.23-.11-.32-.36-.22-.59.1-.21.38-.36.64-.24h0c7.51,3.49,13.56,9.9,16.61,17.6h0l.08.2c.09.23-.04.49-.28.58-.05.02-.12.04-.19.04Zm-16.42-18.19c-.09,0-.17.06-.2.12-.04.09,0,.18.09.23,7.42,3.45,13.38,9.81,16.35,17.45.04.1.18.14.26.1.11-.04.16-.14.12-.23l-.04-.11c-3.01-7.67-9.03-14.06-16.5-17.54h0s-.05-.02-.08-.02Z"/>
  </g>
  <g>
    <path class="uuid-c514c72c-207e-4c1c-9d77-31754fd2f5b4" d="m261.73,37.69h0c-.14-.15-.38-.11-.5.01-.12.11-.12.29-.01.41,5.24,5.5,4.88,13.27,3.73,20.83-.12.57-.2,1.04-.26,1.48,0,.04,0,.08,0,.11l-.02.13c-.01.07,0,.15.04.21.05.07.12.11.2.13h.06c.16,0,.33-.09.36-.27.09-.55.18-1.11.26-1.65.28-1.32.7-2.66,1.11-3.95.94-2.97,1.92-6.04,1.24-9.26-.02-.08-.06-.15-.13-.19-.08-.05-.17-.06-.26-.04-.09.02-.16.06-.22.13-.06.07-.08.17-.06.26.63,2.97-.25,5.87-1.14,8.67.51-5.58.2-12.15-4.42-17.01Z"/>
    <path class="uuid-c514c72c-207e-4c1c-9d77-31754fd2f5b4" d="m264.98,61.14h-.08c-.13-.03-.23-.09-.3-.19-.06-.09-.08-.2-.07-.31l.02-.11s0-.09,0-.14c.05-.43.14-.9.26-1.48,1.15-7.53,1.5-15.25-3.69-20.71-.16-.17-.16-.44.02-.6.17-.17.49-.21.69-.01h0c4.54,4.77,4.88,11.14,4.55,15.92.71-2.32,1.32-4.86.78-7.46-.03-.13,0-.26.08-.37.07-.09.18-.15.3-.18.13-.02.25,0,.35.06.1.07.17.17.19.28.69,3.26-.29,6.35-1.24,9.33-.42,1.3-.83,2.62-1.11,3.93-.08.54-.17,1.1-.26,1.65-.04.25-.28.38-.49.38Zm-3.48-23.41c-.07,0-.14.03-.18.07-.07.06-.07.16,0,.22,5.27,5.54,4.93,13.34,3.76,20.94-.12.58-.21,1.04-.26,1.47,0,.02,0,.04,0,.07v.03s-.02.16-.02.16c0,.04,0,.08.03.12.02.04.06.06.11.07h.05c.07,0,.19-.04.21-.16.09-.55.18-1.11.26-1.65.28-1.33.7-2.66,1.11-3.94.95-2.98,1.92-6.03,1.25-9.22,0-.04-.04-.08-.07-.11-.04-.03-.1-.03-.16-.02-.05.01-.1.04-.13.08-.03.04-.04.09-.03.14.65,3.1-.34,6.23-1.14,8.74l-.38,1.18.11-1.24c.44-4.81.47-11.8-4.38-16.9h0s-.09-.05-.13-.05Z"/>
  </g>
  <g>
    <path class="uuid-c514c72c-207e-4c1c-9d77-31754fd2f5b4" d="m284.08,62.99h0c2.38-1.27,4.29-3.18,5.52-5.54.1-.2.03-.34,0-.4-.05-.08-.18-.2-.45-.2-.19,0-.44.09-.55.3-1.12,2.15-2.9,3.95-5.01,5.07-.25.13-.29.31-.29.4,0,.14.07.28.2.36.08.05.18.08.29.08.1,0,.2-.02.29-.07Z"/>
    <path class="uuid-c514c72c-207e-4c1c-9d77-31754fd2f5b4" d="m283.79,63.19c-.13,0-.26-.03-.36-.1-.17-.11-.27-.29-.26-.48,0-.12.06-.35.36-.52,2.08-1.11,3.84-2.89,4.95-5.01.13-.25.44-.36.66-.37h.02c.36,0,.51.2.55.26.04.06.15.27,0,.53-1.24,2.38-3.16,4.31-5.56,5.59h0s-.02.01-.02.01c-.11.06-.23.09-.35.09Zm5.38-6.21h-.02c-.16,0-.36.08-.43.22-1.13,2.17-2.93,3.99-5.06,5.13-.18.09-.22.21-.22.29,0,.1.05.19.14.24.12.08.29.08.43.01h.01c2.36-1.26,4.25-3.16,5.47-5.49.07-.13.03-.23,0-.26-.02-.03-.1-.13-.32-.13Z"/>
  </g>
  <g>
    <path class="uuid-c514c72c-207e-4c1c-9d77-31754fd2f5b4" d="m81.03,63.82s.06,0,.09,0c.17-.02.39-.09.51-.24.06-.08.09-.17.08-.27-.21-1.91.47-3.8,1.14-5.64l.05-.13c.54-1.51,1.18-3.01,1.9-4.47,1.44-2.94,3.24-5.76,5.33-8.38,4.11-5.15,9.34-9.47,15.12-12.48,3.36-1.75,6.95-3.06,10.64-3.9.35-.08.47-.3.42-.49s-.24-.34-.6-.26c-13.18,2.99-24.89,12-31.31,24.1-.92,1.74-1.74,3.55-2.41,5.37l-.06.17c-.76,2.03-1.54,4.13-1.3,6.3.01.14.13.31.41.31Z"/>
    <path class="uuid-c514c72c-207e-4c1c-9d77-31754fd2f5b4" d="m81.03,63.95c-.35,0-.52-.22-.55-.43-.24-2.21.54-4.32,1.3-6.36l.07-.18c.68-1.83,1.49-3.64,2.42-5.39,6.45-12.14,18.19-21.18,31.4-24.17.45-.09.71.12.77.37.06.25-.09.55-.53.65-3.69.83-7.25,2.14-10.61,3.89-5.77,3-10.99,7.3-15.08,12.44-2.08,2.61-3.87,5.42-5.31,8.35-.71,1.45-1.35,2.95-1.89,4.45l-.05.13c-.66,1.82-1.34,3.7-1.13,5.58.02.13-.02.26-.11.37-.18.23-.5.28-.6.29-.04,0-.07,0-.11,0Zm34.86-36.28s-.1,0-.15.02c-13.14,2.98-24.81,11.96-31.22,24.03-.92,1.74-1.73,3.54-2.41,5.36l-.06.17c-.75,2.02-1.53,4.1-1.29,6.24,0,.05.04.22.35.18.14-.02.33-.07.42-.19.04-.05.06-.11.05-.17-.21-1.94.48-3.85,1.14-5.7l.05-.13c.55-1.51,1.19-3.02,1.9-4.48,1.45-2.95,3.25-5.77,5.34-8.4,4.12-5.17,9.36-9.49,15.17-12.51,3.38-1.76,6.97-3.07,10.68-3.91.28-.06.35-.22.32-.33-.03-.11-.14-.18-.29-.18Z"/>
  </g>
  <g>
    <path class="uuid-c514c72c-207e-4c1c-9d77-31754fd2f5b4" d="m114.54,32.4c-9.94,3.8-18.73,10.61-24.74,19.2-2.38,3.39-3.59,6.19-3.93,9.08-.01.14.07.3.32.33h.06c.23,0,.68-.09.72-.42.44-3.76,2.5-6.99,4.46-9.65,1.93-2.62,4.13-5.1,6.56-7.35,4.95-4.59,10.65-8.14,16.95-10.54.14-.05.3-.14.33-.32h0c.02-.11-.02-.21-.11-.28-.17-.14-.46-.1-.61-.04Z"/>
    <path class="uuid-c514c72c-207e-4c1c-9d77-31754fd2f5b4" d="m86.24,61.14h-.06c-.34-.04-.47-.28-.45-.48.34-2.92,1.56-5.73,3.95-9.15,6.03-8.6,14.84-15.44,24.8-19.24.16-.06.51-.13.75.06.12.1.18.25.16.41-.05.28-.32.38-.42.42-6.28,2.4-11.97,5.94-16.9,10.52-2.42,2.25-4.62,4.71-6.54,7.33-1.94,2.65-3.99,5.86-4.43,9.59-.05.43-.56.54-.85.54Zm28.59-28.66c-.09,0-.18.02-.25.04h0c-9.92,3.79-18.68,10.59-24.68,19.15-2.36,3.37-3.57,6.16-3.9,9.02,0,.08.04.16.2.18h.04c.15,0,.55-.05.58-.3.45-3.79,2.52-7.04,4.48-9.72,1.93-2.63,4.14-5.11,6.58-7.37,4.96-4.6,10.68-8.16,16.99-10.57.16-.06.23-.12.25-.21,0-.06-.01-.12-.06-.16-.06-.05-.14-.06-.23-.06Z"/>
  </g>
  <g>
    <path class="uuid-c514c72c-207e-4c1c-9d77-31754fd2f5b4" d="m109.67,183.04h0c.2-.18.17-.39.07-.51-.19-.21-.69-.15-.87.01-3.48,3.12-5.46,7.95-5.45,13.26.01,4.91,1.78,9.93,5.25,14.91,1.71,2.45,3.78,4.85,6.53,7.55.06.06.16.12.33.12.07,0,.14,0,.22-.03.09-.02.38-.12.44-.36.03-.12,0-.24-.1-.33-9.79-9.64-13.41-18.95-10.77-27.67.83-2.75,2.34-5.15,4.34-6.96Z"/>
    <path class="uuid-c514c72c-207e-4c1c-9d77-31754fd2f5b4" d="m115.54,218.53c-.22,0-.36-.09-.43-.16-2.75-2.71-4.83-5.12-6.55-7.57-3.49-5-5.27-10.04-5.28-14.98-.01-5.35,1.99-10.22,5.49-13.36.13-.12.39-.2.63-.18.19,0,.34.07.44.18.16.17.18.47-.08.7h0c-1.99,1.78-3.48,4.17-4.31,6.89-2.63,8.66.99,17.93,10.74,27.53.13.13.17.3.13.46-.08.31-.43.43-.53.46-.1.02-.18.04-.25.04Zm-6.18-35.99c-.17,0-.33.06-.39.12-3.45,3.09-5.42,7.89-5.41,13.16.01,4.88,1.77,9.88,5.23,14.83,1.7,2.44,3.77,4.83,6.51,7.54.06.06.19.12.43.06.05-.01.3-.09.34-.26.02-.07,0-.15-.06-.21-9.82-9.68-13.46-19.03-10.8-27.8.84-2.77,2.36-5.2,4.38-7.02h0c.14-.13.12-.25.06-.32-.05-.05-.14-.08-.25-.09-.01,0-.02,0-.04,0Z"/>
  </g>
  <g>
    <path class="uuid-c514c72c-207e-4c1c-9d77-31754fd2f5b4" d="m132.35,237.76c.87,0,1.74-.19,2.51-.53.07-.03.12-.06.17-.1.04-.01.08-.03.13-.05,2.16-1.17,3.41-3.63,3.04-5.97-.37-2.29-2.24-4.21-4.56-4.67-2.21-.43-4.69.55-6.02,2.37-1.43,1.92-1.39,4.76.08,6.74,1.03,1.39,2.77,2.22,4.65,2.22Zm-4.24-7.85c.74-1.61,2.5-2.74,4.29-2.74.22,0,.45.02.68.06,1.81.3,3.42,1.78,3.93,3.6.6,2.15-.45,4.57-2.43,5.64h0s-.05.04-.07.05l-.06.02c-1.84.82-4.09.35-5.48-1.16-1.32-1.43-1.67-3.68-.86-5.47Z"/>
    <path class="uuid-c514c72c-207e-4c1c-9d77-31754fd2f5b4" d="m132.35,237.9c-1.92,0-3.7-.85-4.75-2.27-1.5-2.03-1.54-4.93-.08-6.9,1.37-1.86,3.9-2.85,6.16-2.42,2.37.47,4.29,2.44,4.67,4.78.38,2.4-.9,4.91-3.11,6.11-.05.02-.1.04-.14.05-.05.04-.12.07-.19.1-.79.35-1.67.54-2.56.54Zm.24-11.42c-1.86,0-3.75.91-4.85,2.41-1.39,1.88-1.36,4.64.08,6.58,1,1.35,2.7,2.16,4.54,2.16.85,0,1.7-.18,2.46-.52.06-.02.11-.05.14-.08l.05-.02s.07-.02.12-.04c2.1-1.14,3.32-3.54,2.96-5.83-.36-2.24-2.19-4.11-4.45-4.56-.34-.07-.69-.1-1.03-.1Zm-.05,10.6c-1.36,0-2.72-.56-3.68-1.6-1.35-1.47-1.72-3.79-.88-5.62h0c.86-1.87,3.06-3.1,5.11-2.76,1.85.31,3.52,1.83,4.04,3.7.62,2.21-.46,4.7-2.5,5.8l-.03.02s-.03.02-.05.03l-.08.03c-.61.28-1.28.41-1.94.41Zm-4.32-7.11h0c-.79,1.74-.45,3.93.83,5.33,1.35,1.46,3.53,1.92,5.32,1.12l.11-.05c1.95-1.05,2.97-3.41,2.38-5.5-.5-1.77-2.07-3.21-3.83-3.51-1.93-.32-4.01.84-4.82,2.61Z"/>
  </g>
  <g>
    <path class="uuid-c514c72c-207e-4c1c-9d77-31754fd2f5b4" d="m140.75,181.6c6.3-1.09,10.34-6.46,13.15-11.01.18-.29.05-.6-.16-.73-.3-.18-.92-.08-1.13.26-2.72,4.4-6.56,9.55-12.24,10.36-6.22.88-11.67-3.08-16.64-7.5-.18-.16-.45-.19-.76-.09-.39.13-.51.35-.54.55v.28s.17.16.17.16c4.4,3.92,9.73,7.92,15.82,7.92.78,0,1.57-.07,2.34-.2Z"/>
    <path class="uuid-c514c72c-207e-4c1c-9d77-31754fd2f5b4" d="m138.4,181.93c-6.14,0-11.49-4.02-15.91-7.95l-.23-.2v-.34c.07-.33.28-.55.65-.67.36-.12.67-.08.89.12,4.94,4.39,10.37,8.34,16.53,7.46,5.62-.8,9.45-5.93,12.15-10.3.25-.41.97-.52,1.32-.3.27.17.44.55.21.92-2.83,4.58-6.89,9.97-13.25,11.07h0c-.78.13-1.58.2-2.37.2Zm-15.86-8.27l.13.12c4.39,3.9,9.69,7.88,15.73,7.88.78,0,1.56-.07,2.32-.2h0c6.25-1.08,10.26-6.42,13.06-10.95.14-.22.04-.44-.12-.54-.24-.14-.78-.06-.95.21-2.73,4.42-6.6,9.61-12.34,10.42-6.27.89-11.76-3.09-16.75-7.53-.14-.13-.37-.15-.63-.06-.27.09-.41.23-.45.44v.2Z"/>
  </g>
  <g>
    <path class="uuid-c514c72c-207e-4c1c-9d77-31754fd2f5b4" d="m135.35,97.54c-1.23-2.56-3.61-4.98-7.07-7.21-3.58-2.3-7.18-3.1-10.43-2.3-.24.06-.41.21-.47.42-.06.19,0,.38.13.52.15.16.38.22.62.16,3.11-.76,6.66.2,10.26,2.78,3.67,2.63,5.74,5.24,6.5,8.2.31,1.2.48,2.47.64,3.7.08.6.15,1.13.23,1.67.29,1.84.7,3.56,1.23,5.12,1.19,3.49,2.97,6.29,5.31,8.33,2.6,2.26,5.76,3.51,8.9,3.51.3,0,.61-.01.91-.03.4-.03.65-.37.62-.67-.01-.13-.08-.26-.18-.35-.12-.1-.27-.13-.45-.13-.29.02-.58.03-.88.03-7.07,0-11.91-6.56-13.58-13.07-.33-1.3-.52-2.69-.69-4.03h0c-.3-2.24-.6-4.56-1.6-6.63Z"/>
    <path class="uuid-c514c72c-207e-4c1c-9d77-31754fd2f5b4" d="m151.2,122.56c-3.18,0-6.37-1.26-8.99-3.54-2.35-2.05-4.15-4.87-5.35-8.38-.53-1.57-.95-3.3-1.24-5.14-.08-.54-.16-1.08-.23-1.67-.16-1.23-.33-2.49-.64-3.68-.76-2.93-2.81-5.51-6.45-8.12-3.57-2.56-7.07-3.51-10.15-2.75-.29.07-.56,0-.75-.2-.17-.17-.23-.42-.16-.66.07-.25.28-.44.57-.51,3.29-.8,6.93,0,10.54,2.32,3.48,2.24,5.88,4.68,7.12,7.26,1.01,2.1,1.32,4.42,1.62,6.67.18,1.34.36,2.73.69,4.02,1.65,6.46,6.45,12.97,13.45,12.97.29,0,.58-.01.87-.03.24,0,.42.05.55.16.13.11.21.27.23.44.01.19-.05.38-.19.53-.14.16-.34.26-.56.28-.31.02-.62.03-.92.03Zm-30.93-33.82c2.58,0,5.37,1.04,8.19,3.06,3.7,2.65,5.78,5.28,6.56,8.28.31,1.21.48,2.48.64,3.71.08.61.15,1.14.23,1.68.28,1.83.7,3.54,1.23,5.09,1.18,3.47,2.95,6.25,5.27,8.27,2.57,2.24,5.7,3.47,8.81,3.47.3,0,.6-.01.9-.03.15-.01.29-.08.38-.19.08-.1.13-.22.12-.34,0-.1-.06-.19-.13-.26-.08-.07-.2-.09-.36-.1-.28.02-.58.03-.88.03-7.14,0-12.03-6.62-13.71-13.17-.33-1.31-.52-2.7-.7-4.05-.29-2.23-.6-4.54-1.59-6.59-1.22-2.53-3.58-4.94-7.02-7.15-3.54-2.28-7.11-3.07-10.33-2.29-.19.05-.33.17-.37.33-.04.14,0,.29.1.39.12.13.3.17.49.12.7-.17,1.43-.26,2.17-.26Z"/>
  </g>
  <g>
    <path class="uuid-c514c72c-207e-4c1c-9d77-31754fd2f5b4" d="m178.75,105.66c.02-.17-.05-.34-.2-.46-.16-.12-.43-.19-.7-.08-4.14,1.72-7.59,4.51-10.71,7.27-.68.6-1.35,1.21-2.06,1.85-.88.8-1.88,1.7-2.87,2.56l-.52.45c-1.72,1.5-3.67,3.21-5.92,3.61-.36.06-.64.4-.58.72.04.19.21.39.51.39.04,0,.09,0,.14-.01,2.25-.4,4.04-1.75,5.69-3.1,1.54-1.26,3.04-2.62,4.49-3.93l.65-.59c3.67-3.31,7.32-6.43,11.68-8.25.29-.12.36-.33.38-.44Z"/>
    <path class="uuid-c514c72c-207e-4c1c-9d77-31754fd2f5b4" d="m155.72,122.12c-.38,0-.59-.25-.64-.5-.07-.4.25-.8.69-.88,2.22-.39,4.15-2.09,5.86-3.58l.52-.45c.98-.85,1.97-1.74,2.84-2.53l.03-.02c.7-.64,1.38-1.25,2.06-1.85,3.12-2.77,6.59-5.57,10.74-7.3.31-.14.64-.05.83.1.19.14.28.36.25.58h0c-.02.14-.11.4-.46.55-4.34,1.81-7.99,4.92-11.64,8.22l-.65.59c-1.44,1.31-2.93,2.66-4.49,3.94-1.66,1.36-3.47,2.72-5.75,3.13-.06.01-.12.02-.17.02Zm22.42-16.91c-.07,0-.15.01-.23.05-4.12,1.71-7.56,4.5-10.67,7.25-.68.6-1.35,1.21-2.06,1.85l-.03.03c-.87.79-1.86,1.69-2.84,2.54l-.51.45c-1.73,1.52-3.69,3.23-5.99,3.64-.29.05-.51.32-.47.56.03.15.16.32.49.27,2.22-.39,4-1.73,5.63-3.07,1.55-1.27,3.04-2.62,4.48-3.93l.65-.59c3.68-3.32,7.34-6.45,11.72-8.27.22-.09.28-.23.3-.33.02-.12-.04-.25-.15-.33-.08-.06-.2-.11-.34-.11Z"/>
  </g>
  <g>
    <path class="uuid-c514c72c-207e-4c1c-9d77-31754fd2f5b4" d="m208.01,68.96h0c.28-.21.3-.45.29-.58-.02-.21-.16-.39-.38-.48-.21-.1-.56-.11-.82.08-9.67,7.11-20.09,13.17-30.98,18.03-3.01,1.34-6.17,2.64-9.4,3.85-.34.13-.43.37-.45.5-.03.21.05.41.22.55.14.11.32.17.5.17.1,0,.2-.02.29-.05,11.27-4.24,22.1-9.68,32.17-16.18,2.85-1.84,5.73-3.82,8.55-5.9Z"/>
    <path class="uuid-c514c72c-207e-4c1c-9d77-31754fd2f5b4" d="m167,91.22c-.22,0-.43-.07-.59-.2-.21-.18-.31-.42-.27-.68.03-.16.13-.45.54-.6,3.22-1.21,6.38-2.5,9.39-3.85,10.87-4.85,21.28-10.91,30.95-18.01.31-.23.71-.21.96-.1.26.11.43.33.45.59.02.16,0,.46-.34.7l-.04.03c-2.8,2.06-5.67,4.04-8.52,5.88-10.08,6.5-20.92,11.95-32.2,16.19-.11.04-.22.06-.34.06Zm40.58-23.25c-.14,0-.28.04-.4.12-9.68,7.12-20.11,13.19-31,18.04-3.02,1.35-6.18,2.65-9.4,3.86-.27.1-.35.27-.37.39-.03.16.03.31.17.43.17.14.45.18.66.1,11.26-4.24,22.08-9.67,32.15-16.17,2.86-1.84,5.73-3.83,8.54-5.89l.02-.02c.19-.15.22-.32.21-.44-.02-.16-.12-.3-.29-.37-.08-.04-.18-.06-.29-.06Z"/>
  </g>
  <g>
    <path class="uuid-c514c72c-207e-4c1c-9d77-31754fd2f5b4" d="m191.06,82.4c-6.75,5.87-14.89,9.99-23.53,11.93-.11.02-.43.14-.5.38l-.03.16.1.1c.06.07.15.1.25.1.05,0,.12,0,.2-.03,9.03-2.03,17.46-6.28,24.38-12.29.08-.07.12-.17.09-.32l-.06-.14-.13-.05c-.17-.06-.61,0-.76.14Z"/>
    <path class="uuid-c514c72c-207e-4c1c-9d77-31754fd2f5b4" d="m167.34,95.21c-.14,0-.26-.05-.35-.14l-.14-.15.04-.22c.09-.3.44-.45.61-.49,8.62-1.93,16.74-6.05,23.47-11.9h0c.19-.17.68-.24.89-.17l.19.07.08.19c.06.25-.04.39-.13.47-6.94,6.03-15.39,10.29-24.44,12.32-.09.02-.16.03-.23.03Zm-.2-.38l.05.06c.06.06.13.08.32.03,9.01-2.02,17.42-6.26,24.32-12.26.04-.03.07-.08.05-.19l-.03-.06-.07-.03c-.13-.04-.51.02-.63.12-6.77,5.88-14.92,10.02-23.59,11.96-.11.03-.36.13-.41.29v.08Z"/>
  </g>
  <g>
    <path class="uuid-c514c72c-207e-4c1c-9d77-31754fd2f5b4" d="m192.46,89.17c-.01-.06-.07-.21-.28-.28-.21-.07-.52-.04-.69.12-7.34,6.63-16.26,11.55-25.78,14.24-.34.09-.45.37-.39.58.05.19.23.31.45.31.06,0,.12,0,.19-.03,9.74-2.75,18.85-7.78,26.37-14.56.17-.15.16-.3.15-.38Z"/>
    <path class="uuid-c514c72c-207e-4c1c-9d77-31754fd2f5b4" d="m165.76,104.27c-.28,0-.51-.16-.58-.41-.04-.14-.02-.29.05-.42.09-.15.24-.27.43-.32,9.5-2.68,18.4-7.6,25.73-14.21.22-.2.59-.22.82-.14.28.09.35.29.37.38.02.09.04.3-.19.51-7.53,6.79-16.66,11.84-26.42,14.59-.08.02-.15.03-.22.03Zm26.19-15.28c-.14,0-.28.04-.37.12-7.36,6.64-16.29,11.58-25.84,14.27-.16.04-.23.13-.27.19-.04.07-.05.15-.03.22.05.17.23.26.47.19,9.72-2.74,18.81-7.77,26.31-14.54.11-.1.12-.19.1-.25h0s-.05-.14-.19-.18c-.06-.02-.12-.03-.19-.03Z"/>
  </g>
  <g>
    <path class="uuid-c514c72c-207e-4c1c-9d77-31754fd2f5b4" d="m163.11,75.53h0c12.43-3.82,25.28-6.41,38.22-7.7.28-.03.56-.24.54-.51,0-.06-.06-.36-.51-.31-13.02,1.3-25.96,3.91-38.47,7.75-.21.07-.36.2-.4.36-.03.12.01.25.1.33.08.07.18.11.3.11.07,0,.14-.01.22-.04Z"/>
    <path class="uuid-c514c72c-207e-4c1c-9d77-31754fd2f5b4" d="m162.89,75.7c-.15,0-.29-.05-.39-.14-.13-.12-.18-.29-.14-.46.05-.21.23-.38.49-.46,12.52-3.85,25.47-6.46,38.5-7.76.2-.02.36,0,.48.1.14.11.17.26.18.32.02.17-.05.34-.2.46-.12.11-.29.18-.46.2-12.92,1.29-25.77,3.88-38.19,7.69h0c-.09.03-.18.04-.26.04Zm38.57-8.56s-.06,0-.09,0c-13.01,1.3-25.95,3.91-38.45,7.75-.17.05-.28.15-.31.26-.02.08,0,.15.06.21.08.07.22.09.39.04h0c12.44-3.82,25.3-6.41,38.24-7.71.11-.01.23-.06.31-.13.05-.05.12-.13.11-.23,0-.01-.01-.09-.08-.14-.04-.04-.11-.05-.19-.05Z"/>
  </g>
  <g>
    <path class="uuid-c514c72c-207e-4c1c-9d77-31754fd2f5b4" d="m162.25,81.93c.01.18.16.37.46.37h.05c13.66-.9,27.23-4.89,39.25-11.52.28-.15.29-.37.21-.52-.05-.1-.15-.17-.28-.21-.18-.05-.4-.03-.54.05-11.79,6.51-25.13,10.42-38.6,11.3-.17.01-.32.08-.42.2-.08.1-.13.21-.12.32Z"/>
    <path class="uuid-c514c72c-207e-4c1c-9d77-31754fd2f5b4" d="m162.71,82.43c-.39,0-.58-.25-.6-.49h0c0-.15.04-.3.15-.42.13-.15.32-.24.52-.25,13.45-.89,26.77-4.79,38.54-11.29.18-.1.43-.12.65-.06.17.05.29.14.36.27.11.21.08.51-.26.7-12.03,6.64-25.62,10.63-39.3,11.54h-.06Zm39.01-12.27c-.1,0-.19.02-.26.06-11.8,6.52-25.17,10.43-38.66,11.32-.13,0-.25.07-.33.16-.06.07-.09.15-.09.23h0c0,.11.1.24.33.24h.05c13.63-.9,27.19-4.88,39.18-11.5.23-.13.19-.28.16-.34-.03-.06-.1-.11-.2-.14-.06-.02-.12-.02-.18-.02Z"/>
  </g>
  <g>
    <path class="uuid-c514c72c-207e-4c1c-9d77-31754fd2f5b4" d="m272.23,214.77c-.22-.08-.54.08-.63.16-.1.08-.14.19-.12.3.02.11.09.2.21.23,2.38.87,4.4,2.68,5.55,4.95.06.12.19.19.36.19.12,0,.25-.04.36-.09.12-.06.2-.14.23-.24.02-.08.02-.16-.02-.23-1.22-2.42-3.38-4.34-5.92-5.28Z"/>
    <path class="uuid-c514c72c-207e-4c1c-9d77-31754fd2f5b4" d="m277.58,220.74c-.22,0-.39-.1-.48-.27-1.13-2.24-3.12-4.02-5.47-4.88-.15-.05-.26-.18-.29-.34-.03-.15.03-.32.17-.43.1-.08.47-.28.76-.18h0c2.58.95,4.77,2.89,6,5.34.05.1.06.22.03.33-.04.13-.14.24-.3.31-.13.07-.29.11-.42.11Zm-5.49-5.86c-.15,0-.35.09-.41.15-.06.05-.09.11-.08.17.01.07.05.11.12.13,2.42.89,4.46,2.71,5.62,5.01.05.1.17.12.24.12.09,0,.21-.03.3-.08.09-.04.14-.1.16-.16.01-.04,0-.09-.01-.13-1.2-2.39-3.33-4.29-5.85-5.21-.03,0-.06-.01-.09-.01Z"/>
  </g>
  <g>
    <path class="uuid-c514c72c-207e-4c1c-9d77-31754fd2f5b4" d="m238.58,132.72s-.02-.06-.04-.09c-.09-.17-.27-.27-.53-.31-2.86-.34-5.7-.22-8.43.37-1.04.22-2.09.55-3.03.85-1.67.53-3.39,1.08-5.16,1.09-.32,0-.61.16-.76.42-.1.18-.12.37-.05.54-1.24.02-2.4-.04-3.55-.18-.3-.03-.62.1-.84.34-.05.06-.09.12-.12.17-.38-.03-1.01.21-1.18.5-.28.03-.53.2-.67.38-3.33-.25-5.95.13-8.26,1.2-.18.08-.36.19-.37.38-.01.11.04.21.13.29.24.17.91.08,1.11-.01,1.67-.77,3.46-.97,5.17-.92-2.75.37-5.46.99-8.06,1.85-.33.11-.55.3-.6.54-.04.17.01.32.14.44.06.05.14.09.22.12-.96.45-1.89.96-2.78,1.53-.13.08-.29.2-.32.38-.71.32-1.62.74-2.5,1.21-.36.19-.44.42-.44.58,0,.2.1.38.29.5.14.09.32.13.5.12-.36.42-.69.84-.98,1.29-.15.23-.1.4-.06.49.08.17.28.27.55.29.36.03.82-.1,1.01-.39,1-1.52,2.34-2.74,4.08-3.72,3.84-1.52,7.88-2.46,11.99-2.79.17,0,.33-.06.47-.16.55-.01,1.22-.17,1.58-.25h.05c.08-.03.13-.04.17-.05,1.89-.34,3.81-.64,5.69-.87.81-.1,1.61-.19,2.36-.27,1.59.04,3.26.05,4.76-.39.08,0,.17-.01.25-.02-.02.16.03.29.08.37.14.23.45.38.84.39,7.31.17,13.45,1.52,18.76,4.13,2.19,1.07,4.3,2.35,6.33,3.58l.17.1c.58.35,1.15.69,1.73,1.04l.34.2c2.41,1.43,4.91,2.91,7.63,3.64.87.23,1.74.35,2.57.35,1.53,0,2.9-.4,3.97-1.14.38-.05.68-.28.8-.59.01-.04.03-.08.04-.12v-.02c.09-.08.17-.17.23-.25.19-.22.22-.47.08-.69.15-.49.27-.98.37-1.45.34-.3.31-.57.25-.71-.03-.07-.06-.13-.1-.21.37-2.38.26-4.74-.31-7.02-.08-.35-.46-.51-.94-.39-.41.1-.8.4-.7.82.1.4.18.79.25,1.2,0,0,0,0-.01,0-.14-.06-.34-.05-.52.02-.13.05-.22.13-.28.21-.08-.21-.18-.43-.29-.65-.03-.07-.12-.19-.32-.21-.16-.02-.47.06-.63.21-.18-.14-.37-.27-.55-.41l-.19-.14c-.29-.5-.58-1-.87-1.49-.04-.08-.15-.2-.39-.2-.17,0-.46.08-.6.25-.45-.72-.96-1.38-1.5-1.96-.12-.13-.32-.19-.54-.13-.14.03-.31.11-.4.25-1.3-1.17-2.71-2.09-3.83-2.77-.16-.11-.38-.09-.54-.02-.18-.13-.42-.09-.59-.02-.15.07-.26.17-.31.29-1.01-1.02-2.15-1.8-3.41-2.34-.45-.19-1.05.13-1.21.51-.09.23-.06.56.36.74.49.21.96.46,1.4.75-.85-.26-1.64-.47-2.4-.64-.21-.05-.61.12-.73.24-.04.04-.06.08-.08.13-.06,0-.13-.02-.19-.03l-.24-.07c-.08-.03-.17-.05-.25-.08-.14-.04-.29-.07-.43-.1,0-.01,0-.02-.02-.03-.05-.08-.15-.19-.36-.21l-1.47-.16-.44-.08c-1.9-.36-3.87-.74-5.59-1.71-.36-.2-.97.08-1.18.21-.12.08-.29.2-.29.4,0,.11.07.21.16.26.09.05.19.1.28.15-1.9-.08-3.82,0-5.72.21Zm-12.18,3.6s-.06.06-.09.09c-.07,0-.15.02-.22.03l-.76.07s-.03,0-.04,0c.37-.06.74-.12,1.12-.19Z"/>
    <path class="uuid-c514c72c-207e-4c1c-9d77-31754fd2f5b4" d="m268.8,152.09c-.84,0-1.72-.12-2.6-.35-2.75-.73-5.25-2.22-7.67-3.66l-.34-.2c-.58-.34-1.15-.69-1.73-1.04l-.17-.1c-2.04-1.23-4.14-2.51-6.32-3.58-5.3-2.6-11.42-3.94-18.71-4.12-.45-.01-.79-.18-.96-.45-.05-.09-.09-.19-.1-.3h-.11c-1.48.44-3.17.43-4.77.39-.73.08-1.54.17-2.34.27-1.87.23-3.78.53-5.68.87-.04,0-.08.02-.15.03h-.06c-.36.1-1.01.25-1.57.26-.16.1-.33.15-.51.16-4.09.33-8.11,1.26-11.94,2.78-1.71.97-3.03,2.18-4.02,3.67-.22.34-.74.48-1.13.45-.32-.02-.55-.15-.66-.36-.04-.09-.13-.33.06-.62.25-.38.51-.74.81-1.1-.1-.02-.2-.06-.29-.12-.23-.14-.36-.37-.35-.62,0-.2.1-.48.51-.7.87-.47,1.76-.88,2.45-1.19.07-.19.24-.32.36-.4.82-.52,1.67-1,2.55-1.42,0,0,0,0-.01,0-.16-.15-.23-.35-.18-.57.06-.29.31-.52.69-.64.64-.21,1.29-.41,1.95-.59-.08-.02-.14-.05-.2-.08-.13-.1-.2-.25-.19-.41.02-.26.24-.39.45-.49,2.31-1.07,4.94-1.46,8.26-1.21.17-.19.41-.33.65-.37.23-.29.79-.51,1.18-.51.03-.04.06-.08.09-.12.25-.28.62-.43.96-.39,1.12.14,2.22.19,3.37.18-.02-.16.02-.33.1-.48.17-.3.51-.48.88-.48,1.74-.01,3.46-.56,5.12-1.08h.04c.93-.31,1.98-.64,3.01-.86,2.74-.59,5.59-.71,8.47-.37.31.04.52.17.63.38,0,0,0,0,0,0,1.7-.19,3.43-.26,5.15-.21-.06-.07-.09-.16-.09-.26,0-.3.27-.46.35-.52,0,0,.82-.49,1.31-.21,1.71.96,3.66,1.34,5.55,1.7l.44.08,1.46.16c.27.03.4.17.46.26.13.03.25.06.38.09l.57.16s.04-.05.06-.07c.14-.15.59-.35.86-.28.43.1.87.21,1.32.33-.13-.06-.27-.13-.41-.19-.47-.2-.56-.6-.43-.91.1-.23.34-.45.62-.56.27-.11.54-.12.77-.02,1.22.52,2.34,1.27,3.34,2.25.07-.08.16-.15.27-.2.19-.08.45-.12.66,0,.23-.07.44-.05.61.06,1.07.65,2.45,1.54,3.74,2.69.14-.12.3-.17.38-.19.26-.06.51,0,.67.17.52.55,1,1.17,1.44,1.84.18-.13.42-.17.57-.17.31,0,.45.17.51.27.28.48.57.97.85,1.46l.17.12c.16.11.31.23.47.35.2-.13.47-.2.65-.17.28.02.39.21.43.28.07.15.14.3.21.47.05-.04.11-.07.18-.09.14-.06.28-.08.42-.07-.06-.33-.13-.66-.21-.99-.12-.51.33-.87.8-.98.56-.13,1,.07,1.1.49.57,2.29.68,4.65.32,7.03.03.07.06.12.08.18.07.17.12.49-.25.84-.1.44-.21.9-.35,1.36.13.25.09.55-.13.79-.05.07-.13.15-.21.23h0s-.02.08-.04.12c-.13.35-.46.6-.87.67-1.09.75-2.48,1.15-4.02,1.15Zm-38.3-14.09l-.02.16c-.01.11,0,.2.06.29.12.19.38.31.73.32,7.33.17,13.48,1.53,18.82,4.15,2.19,1.08,4.3,2.35,6.35,3.59l.17.1c.57.35,1.15.69,1.72,1.04l.34.2c2.4,1.43,4.89,2.9,7.6,3.63.86.23,1.71.34,2.53.34,1.5,0,2.84-.39,3.89-1.12l.06-.02c.33-.05.59-.24.69-.5.01-.03.02-.07.03-.1v-.03s.04-.06.04-.06c.08-.08.16-.16.21-.24.16-.18.18-.37.08-.53l-.03-.05.02-.06c.15-.49.27-.97.37-1.44v-.04s.04-.03.04-.03c.21-.19.29-.38.21-.56-.03-.06-.06-.12-.09-.2l-.02-.04v-.04c.37-2.36.27-4.7-.3-6.97-.07-.27-.37-.39-.78-.29-.34.08-.68.32-.6.66.1.4.18.8.25,1.2l.04.21-.2-.05c-.14-.06-.3-.05-.45.01-.1.04-.17.09-.22.16l-.14.21-.09-.23c-.09-.23-.19-.44-.29-.64-.03-.06-.08-.12-.21-.13-.12-.02-.39.05-.53.17l-.08.08-.09-.07c-.18-.14-.37-.27-.55-.41l-.23-.18c-.29-.5-.58-1-.87-1.49-.05-.09-.14-.14-.28-.14-.13,0-.38.06-.49.2l-.12.14-.1-.16c-.45-.71-.95-1.36-1.49-1.94-.09-.1-.24-.13-.41-.09-.11.02-.25.09-.32.19l-.09.13-.11-.1c-1.3-1.17-2.72-2.09-3.81-2.75-.15-.1-.35-.04-.42-.01l-.07.03-.06-.04c-.13-.1-.32-.07-.46,0-.12.05-.2.13-.24.22l-.08.19-.14-.14c-1-1-2.13-1.78-3.37-2.31-.16-.07-.36-.06-.56.02-.22.09-.4.25-.47.42-.04.09-.12.38.29.56.5.21.97.46,1.42.76l.77.51-.88-.26c-.86-.26-1.64-.47-2.39-.64-.16-.04-.51.11-.6.2-.02.02-.04.05-.04.07l-.03.11-.31-.05-.51-.15c-.14-.04-.28-.07-.43-.1l-.07-.02-.03-.06c-.05-.1-.14-.15-.27-.16l-1.48-.16-.45-.09c-1.91-.37-3.89-.74-5.63-1.73-.27-.15-.82.07-1.04.21-.15.09-.23.18-.22.28,0,.06.04.12.09.14.09.05.19.1.28.15l.53.28-.6-.02c-1.9-.08-3.81,0-5.7.21h-.11s-.03-.1-.03-.1c0-.02-.01-.04-.02-.06-.07-.13-.21-.21-.43-.24-2.85-.34-5.67-.22-8.38.36-1.02.21-2.06.55-2.99.84h-.03c-1.68.54-3.41,1.09-5.2,1.11-.27,0-.52.13-.64.35-.08.14-.09.29-.04.43l.07.18h-.19c-1.22.03-2.39-.03-3.57-.18-.26-.03-.53.08-.72.3-.04.05-.08.1-.1.15l-.04.08h-.09c-.35-.04-.91.19-1.05.42l-.04.06h-.07c-.22.03-.43.16-.58.34l-.04.06h-.07c-3.3-.25-5.91.12-8.2,1.18-.2.09-.29.17-.29.27,0,.06.02.12.08.16.17.12.78.06.98-.03,1.48-.68,3.18-.99,5.22-.93v.27c-2.73.37-5.43.99-8.03,1.85-.28.09-.47.25-.51.44-.03.12,0,.23.1.31.04.04.1.07.17.09l.35.1-.33.15c-.95.44-1.88.95-2.76,1.52-.16.1-.24.2-.26.29v.07s-.08.03-.08.03c-.69.31-1.6.73-2.49,1.21-.24.13-.36.29-.37.47,0,.15.08.29.22.38.12.08.27.11.41.1l.34-.04-.23.26c-.36.42-.68.83-.97,1.27-.11.16-.08.28-.05.35.06.12.22.2.44.21.32.02.73-.09.89-.33,1.01-1.53,2.36-2.77,4.12-3.77,3.87-1.54,7.92-2.48,12.04-2.81.15,0,.28-.05.41-.14l.03-.02h.04c.53-.01,1.19-.16,1.54-.24h.06c.08-.03.14-.05.18-.05,1.9-.35,3.82-.64,5.69-.87.81-.1,1.61-.19,2.36-.27,1.6.04,3.26.04,4.74-.38l.44-.03Zm43.1,12.11l.07.02-.02-.02h-.05Zm-64.26-12.08c-.25.04-.5.09-.74.15.25-.05.49-.1.74-.15Zm15.96-1.39l-.04-.27c.37-.06.74-.12,1.11-.19l.46-.08-.35.32s-.05.05-.08.08l-.03.04h-.05c-.07.01-.14.02-.22.03l-.77.07h0s-.02,0-.04,0Z"/>
  </g>
  <g>
    <path class="uuid-c514c72c-207e-4c1c-9d77-31754fd2f5b4" d="m254.89,22.93l-.18.22,8.41,8.41c.06.05.13.08.21.08.1,0,.21-.04.28-.12l.17-.21-8.41-8.41c-.15-.14-.38-.08-.48.02Z"/>
    <path class="uuid-c514c72c-207e-4c1c-9d77-31754fd2f5b4" d="m263.33,31.78c-.12,0-.23-.04-.31-.12l-8.5-8.5.27-.32c.15-.14.46-.23.67-.03l8.5,8.5-.25.3c-.11.11-.25.17-.38.17Zm-8.44-8.64l8.32,8.32c.07.07.22.05.3-.04l.09-.1-8.32-8.32c-.08-.08-.23-.03-.29.02l-.1.12Z"/>
  </g>
  <g>
    <path class="uuid-c514c72c-207e-4c1c-9d77-31754fd2f5b4" d="m117.64,201.86c.13,0,.27-.04.38-.1.16-.09.25-.22.25-.37,0-.18.12-.44.23-.68.05-.11.1-.21.13-.31.63-1.74,1.45-3.78,2.75-5.65,1.17-1.69,2.29-2.37,3.32-1.99,1.1.39,1.8,1.64,2.39,2.93l.07.16.49-.23-.07-.16c-.23-.51-.35-1.14-.46-1.76-.05-.27-.1-.53-.15-.78-.2-.88-.43-1.8-.81-2.68-.02-.04-.05-.1-.1-.2-.24-.42-.27-.58-.28-.6.34-.17.32-.44.26-.57-.05-.1-.14-.17-.26-.21-.15-.05-.33-.03-.47.04-4.84,2.4-8.03,7.39-8.12,12.73,0,.15.06.28.19.35.08.05.17.07.28.07Z"/>
    <path class="uuid-c514c72c-207e-4c1c-9d77-31754fd2f5b4" d="m117.64,202c-.13,0-.25-.03-.35-.09-.16-.1-.26-.27-.25-.47.09-5.38,3.31-10.42,8.2-12.84.18-.09.4-.11.58-.05.15.05.27.15.34.28.1.2.07.49-.22.69.06.15.16.33.23.47.06.11.09.17.11.21.39.88.62,1.82.82,2.7.06.25.11.51.16.79.11.6.22,1.23.45,1.72l.13.28-.74.34-.13-.28c-.58-1.26-1.26-2.48-2.31-2.86-.96-.35-2.03.3-3.17,1.94-1.28,1.86-2.1,3.88-2.73,5.62-.04.1-.08.21-.14.32-.1.21-.21.47-.22.62,0,.19-.12.38-.31.49-.13.07-.29.12-.45.12Zm7.94-13.21c-.08,0-.16.02-.23.05-4.8,2.38-7.96,7.32-8.05,12.61,0,.1.04.18.12.23.13.08.37.06.52-.03.11-.06.18-.16.18-.25,0-.21.13-.48.24-.73.05-.11.1-.21.13-.31.64-1.75,1.46-3.79,2.76-5.68,1.21-1.75,2.38-2.44,3.48-2.04,1.15.41,1.86,1.68,2.47,3l.02.04.25-.11-.02-.04c-.24-.53-.36-1.17-.47-1.79-.05-.27-.1-.53-.15-.78-.2-.87-.43-1.79-.8-2.65-.02-.04-.05-.09-.09-.18-.15-.27-.25-.48-.29-.63l-.03-.11.1-.06c.3-.15.22-.35.2-.38-.03-.06-.1-.12-.18-.14-.05-.01-.09-.02-.14-.02Z"/>
  </g>
  <g>
    <path class="uuid-c514c72c-207e-4c1c-9d77-31754fd2f5b4" d="m200.55,171.96c1.21,0,2.43-.04,3.74-.13.27-.02.55-.02.81-.03.29,0,.65-.01,1-.04.27-.02.48-.16.55-.38.06-.18,0-.39-.15-.57-.19-.22-.49-.35-.83-.35-.26,0-.5.07-.75.14-1.82.5-3.76.74-5.64.68-1.13-.04-2.31-.1-3.5-.2-.74-.07-1.53-.16-2.5-.29-1.7-.25-3.36-.57-4.92-.96-.16-.04-.38.06-.43.25-.04.16.06.31.22.35.73.18,1.49.35,2.26.5l-.54.05,2.57.31c.43.05.85.1,1.3.16,1.51.19,3.07.38,4.64.45.71.03,1.44.05,2.17.05Z"/>
    <path class="uuid-c514c72c-207e-4c1c-9d77-31754fd2f5b4" d="m200.55,172.1c-.73,0-1.47-.02-2.17-.05-1.58-.07-3.14-.26-4.65-.45-.45-.05-.87-.11-1.3-.16l-3.81-.46.89-.08c-.48-.1-.94-.21-1.39-.32-.23-.06-.38-.28-.32-.51.07-.27.37-.4.59-.35,1.57.39,3.22.71,4.92.95.95.12,1.75.22,2.49.29,1.18.09,2.36.16,3.49.2,1.88.05,3.81-.18,5.6-.68.26-.07.51-.14.79-.14.39,0,.73.14.94.4.18.22.24.47.17.7-.09.27-.34.45-.67.47-.36.03-.74.04-1.01.04-.27,0-.54.01-.81.03-1.3.09-2.53.13-3.75.13Zm-9.42-1.08l1.33.16c.43.05.85.1,1.3.16,1.51.18,3.06.38,4.63.45.7.03,1.43.05,2.16.05,1.21,0,2.43-.04,3.73-.13.27-.02.55-.02.82-.03.27,0,.64-.01.99-.04.22-.02.38-.12.43-.29.04-.14,0-.29-.12-.44-.16-.19-.43-.3-.73-.3-.24,0-.47.07-.71.13-1.82.5-3.78.75-5.68.69-1.14-.04-2.32-.1-3.51-.2-.75-.07-1.54-.17-2.5-.29-1.71-.25-3.37-.57-4.94-.96-.1-.02-.24.04-.27.15-.02.08.03.16.12.19.72.18,1.48.34,2.26.5l.91.18-.21.02Z"/>
  </g>
  <g>
    <path class="uuid-c514c72c-207e-4c1c-9d77-31754fd2f5b4" d="m206.71,167.28c.07.07.15.13.25.17,1.11.45,2.28.61,3.42.76.63.08,1.27.17,1.9.31,1.67.36,3.37.77,5.04,1.17l.87.21c3.7.89,7.52,1.82,11.37,2.37,4.77.7,9.65,1.04,14.9,1.04,2.82,0,5.79-.1,8.84-.31.91-.06,1.83-.14,2.77-.21h.07c1.16-.09,1.71-.27,1.84-.61.04-.11.08-.33-.19-.6-.11-.1-.23-.15-.36-.2-.03,0-.05-.02-.09-.04-.41-.16-.84-.51-1.26-.86-.23-.19-.47-.38-.7-.54-.7-.48-1.47-.98-2.28-1.48-1.54-.96-3.14-1.85-4.75-2.65-3.22-1.61-6.63-2.94-10.13-3.97-4.06-1.19-7.42-1.71-10.3-1.62-3.07.11-6.26.7-10.34,1.91-3.5,1.04-7.04,2.43-10.55,4.12-.17.09-.49.28-.68.57l-.22.35.41.06s.09.02.13.02h.04Zm25.78,4.12c.46-.33.85-.77,1.15-1.27,1.08-1.8,1.36-4.17.74-5.99,2.51.64,6.11,1.64,9.55,3.06,1.67.68,3.28,1.45,4.76,2.29.91.52,1.78,1.12,2.63,1.71.28.19.56.39.85.59-5.43.33-10.24.36-14.69.09-1.62-.09-3.26-.25-5-.47Z"/>
    <path class="uuid-c514c72c-207e-4c1c-9d77-31754fd2f5b4" d="m244.45,173.45c-5.26,0-10.14-.34-14.92-1.04-3.87-.56-7.69-1.48-11.38-2.38l-.87-.21c-1.65-.4-3.35-.81-5.03-1.17-.62-.14-1.27-.22-1.89-.31-1.15-.16-2.33-.32-3.45-.77-.11-.04-.2-.1-.27-.17h0s-.08-.02-.13-.02l-.61-.1.33-.52c.2-.32.54-.53.73-.62,3.51-1.69,7.07-3.08,10.57-4.12,4.09-1.22,7.29-1.81,10.38-1.92,2.91-.09,6.3.44,10.35,1.63,3.5,1.03,6.92,2.37,10.15,3.98,1.61.8,3.21,1.69,4.77,2.66.83.51,1.59,1.01,2.29,1.48.23.16.47.35.7.54.42.34.84.69,1.23.84.04.02.06.02.09.03.13.05.28.1.41.22.32.33.28.61.22.75-.15.4-.72.6-1.96.69h-.07c-.89.08-1.85.16-2.77.22-3.04.2-6.02.31-8.85.31Zm-38.1-6.37l.2.03s.09.02.14.03l.09.02.03.03c.05.06.12.1.2.14,1.09.44,2.25.6,3.37.75.64.09,1.29.18,1.92.31,1.68.36,3.39.78,5.04,1.17l.87.21c3.69.89,7.5,1.81,11.36,2.37,4.77.7,9.63,1.04,14.88,1.04,2.82,0,5.79-.1,8.83-.31.92-.06,1.88-.14,2.77-.21h.07c1.07-.08,1.62-.25,1.72-.53.06-.14,0-.3-.16-.46-.09-.08-.19-.12-.3-.16-.03-.01-.06-.02-.1-.04-.43-.16-.87-.53-1.3-.88-.23-.19-.46-.38-.69-.53-.69-.47-1.45-.97-2.28-1.48-1.54-.96-3.14-1.85-4.74-2.64-3.22-1.6-6.62-2.94-10.1-3.96-4.02-1.18-7.37-1.7-10.26-1.62-3.06.11-6.24.69-10.31,1.91-3.49,1.04-7.03,2.42-10.53,4.11-.16.08-.45.25-.62.52l-.11.18Zm37.36,5.1c-2.16,0-4.23-.06-6.22-.18-1.62-.09-3.26-.25-5.01-.47l-.34-.04.28-.2c.45-.33.82-.74,1.11-1.23,1.06-1.77,1.35-4.07.73-5.88l-.08-.24.24.06c2.42.62,6.04,1.62,9.57,3.06,1.68.68,3.29,1.46,4.78,2.29.91.52,1.79,1.12,2.63,1.71.29.2.57.4.86.59l.33.22-.39.02c-3,.18-5.81.27-8.48.27Zm-10.88-.88c1.62.2,3.16.34,4.67.43,4.34.26,9.02.24,14.28-.07-.18-.12-.35-.24-.53-.36-.85-.59-1.72-1.19-2.62-1.7-1.48-.83-3.08-1.6-4.75-2.28-3.4-1.4-6.89-2.37-9.3-2.99.54,1.84.22,4.12-.83,5.87-.25.42-.56.79-.93,1.11Z"/>
  </g>
  <g>
    <path class="uuid-c514c72c-207e-4c1c-9d77-31754fd2f5b4" d="m257.23,165.22l.05.04c.99.8,2.01,1.63,3.03,2.41.06.04.18.1.37.02.16-.07.19-.19.2-.26v-.15s-.11-.09-.11-.09c-1.05-.8-2.1-1.66-3.12-2.48-3.34-2.71-6.8-5.5-10.78-7.24-2.88-1.26-6.12-1.93-10.24-2.14h-.05c-.58-.03-1.19-.05-1.9-.06-.69-.03-1.42-.03-2.16,0l-1.65-.02c-.83-.01-1.44-.02-1.53-.02-12.07,0-24,9.71-24.51,10.12-.15.08-.19.21-.17.32l-1.04.75,1.3-.52c.16.03.33-.03.34-.04l.05-.02h.09s.06-.07.06-.07c2.25-1,4.5-2.15,6.67-3.26l.06-.03c4.62-2.37,9.4-4.82,14.54-5.96l.17-.04-.08-.37c.67-.09,1.35-.15,2.03-.18l.03.19.17-.02c.27-.04.55-.07.83-.1.3-.03.61-.05.91-.08l3.56-.03c6.04.33,12.22,2.69,18.37,7.01,3.28,2.3,6.39,4.92,9.4,7.45l1.32,1.11s.11.08.22.08c.08,0,.16-.02.21-.04.16-.06.25-.16.27-.31v-.14s-1.66-1.4-1.66-1.4c-5.89-4.98-11.98-10.12-19.35-12.75-.12-.04-.24-.08-.37-.13,1.59.38,3.05.89,4.39,1.52,3.67,1.74,6.93,4.37,10.08,6.92Zm-38.44-6.7h-.03c-2.35,1.05-4.66,2.24-6.92,3.41-1.13.58-2.28,1.17-3.44,1.75,3.52-2.33,9.42-5.71,15.87-7.11-1.81.5-3.64,1.16-5.47,1.96Z"/>
    <path class="uuid-c514c72c-207e-4c1c-9d77-31754fd2f5b4" d="m263.66,171.68c-.15,0-.25-.06-.31-.11l-1.34-1.13c-3-2.52-6.1-5.13-9.36-7.42-6.12-4.31-12.28-6.66-18.3-6.99l-3.56.03c-.29.02-.59.04-.9.07-.28.03-.55.06-.82.1l-.3.04-.03-.2c-.57.03-1.16.08-1.75.15l.08.35-.3.07c-5.12,1.14-9.88,3.58-14.5,5.94l-.11.06c-2.15,1.1-4.37,2.24-6.61,3.23l-.08.07-.13.03c-.09.03-.22.07-.38.06l-2.3.92,1.88-1.35c0-.13.07-.28.25-.38.48-.4,12.46-10.14,24.57-10.14.09,0,.69,0,1.53.02l1.65.02c.77-.03,1.5-.02,2.16,0,.72,0,1.33.03,1.9.05h.06c4.12.21,7.39.89,10.28,2.15,4,1.74,7.46,4.54,10.81,7.25,1.02.82,2.07,1.67,3.11,2.48l.17.13v.22c-.02.17-.12.3-.28.38-.07.03-.13.05-.18.05.67.56,1.34,1.12,2,1.69l1.71,1.44v.21c-.02.21-.14.36-.35.44-.09.04-.18.05-.26.05Zm-29.31-15.92c6.08.33,12.28,2.7,18.44,7.03,3.28,2.3,6.38,4.91,9.38,7.44l1.35,1.13s.15.07.29.01c.15-.06.17-.13.18-.2v-.06s-1.61-1.36-1.61-1.36c-5.88-4.97-11.96-10.1-19.31-12.73l-.37-.13.08-.26c1.61.38,3.06.89,4.42,1.53,3.69,1.74,6.95,4.38,10.11,6.94l.09.07c.98.79,1.99,1.61,2.99,2.38.06.05.14.05.24,0,.1-.04.11-.11.12-.15v-.07s-.06-.04-.06-.04c-1.05-.81-2.1-1.66-3.12-2.48-3.33-2.7-6.78-5.49-10.75-7.22-2.86-1.25-6.1-1.92-10.19-2.13h-.06c-.56-.03-1.17-.05-1.89-.06-.66-.03-1.38-.03-2.15,0l-1.65-.02c-.83-.01-1.44-.02-1.52-.02-12.01,0-23.92,9.68-24.42,10.09-.13.07-.13.15-.12.19l.02.09-.21.15.3-.12h.04c.08.02.17,0,.27-.03l.19-.09c2.23-.99,4.46-2.13,6.61-3.23l.11-.06c4.63-2.37,9.42-4.83,14.57-5.97h.04s-.08-.39-.08-.39l.15-.02c.69-.09,1.37-.15,2.04-.18h.12s.03.17.03.17h.04c.27-.04.55-.08.83-.11.31-.03.62-.06.92-.08l3.57-.03Zm11.89,2.28c1.66.78,3.26,1.67,4.81,2.65-1.27-.85-2.58-1.62-3.96-2.27-.28-.13-.56-.26-.85-.38Zm-37.78,5.75l-.13-.23c3.75-2.49,9.56-5.75,15.92-7.13l.06.26c-1.8.5-3.63,1.16-5.46,1.95h-.04c-2.34,1.05-4.67,2.25-6.91,3.4-1.13.58-2.28,1.17-3.44,1.75Zm10.53-5.51c-3.03,1.15-5.8,2.6-8.1,3.97.29-.15.58-.3.87-.45,2.27-1.17,4.6-2.37,6.95-3.4l.04-.02c.08-.04.17-.07.25-.11Z"/>
  </g>
  <g>
    <path class="uuid-c514c72c-207e-4c1c-9d77-31754fd2f5b4" d="m261,179.82l-.26-.47-.15.08c-14.22,7.77-31.89,8.63-46.11,2.25l-.25-.11-.28.63.25.11c3.95,1.73,7.82,2.96,11.53,3.67,2.98.59,6.09.9,9.24.9,6.92,0,14-1.47,20.47-4.26,1.81-.79,3.63-1.7,5.41-2.71l.15-.09Z"/>
    <path class="uuid-c514c72c-207e-4c1c-9d77-31754fd2f5b4" d="m234.97,187.01c-3.16,0-6.27-.3-9.27-.9-3.71-.71-7.6-1.95-11.55-3.68l-.37-.17.39-.87.37.17c14.18,6.36,31.8,5.5,45.99-2.25l.27-.15.39.71-.27.15c-1.78,1.02-3.61,1.93-5.42,2.72-6.49,2.79-13.58,4.27-20.52,4.27Zm-20.84-4.88l.12.06c3.94,1.72,7.8,2.96,11.5,3.66,2.98.59,6.08.89,9.22.89,6.9,0,13.96-1.47,20.42-4.25,1.81-.78,3.62-1.7,5.39-2.71l.04-.02-.13-.24-.03.02c-14.26,7.79-31.97,8.66-46.23,2.26l-.12-.06-.17.38Z"/>
  </g>
  <path class="uuid-c514c72c-207e-4c1c-9d77-31754fd2f5b4" d="m268.08,259.89v-.08s-.19.01-.19.01v.08c0,1.38.03,2.77,0,4.15s-.07,2.78-.36,4.07c-.04.18-.21.54-.18.71.39-.07.61-.83.66-1.25.07-.55.09-1.15.1-1.7.01-.63.04-1.26.04-1.9,0-.69,0-1.37-.02-2.06s.02-1.38-.06-2.04Z"/>
  <path class="uuid-c514c72c-207e-4c1c-9d77-31754fd2f5b4" d="m239.21,260.05v-.06s.19,0,.19,0v.06c0,1.11-.04,2.23,0,3.34s.07,2.24.37,3.28c.04.15.21.44.18.58-.41-.06-.63-.67-.68-1.01-.07-.44-.09-.92-.1-1.37-.01-.51-.04-1.02-.04-1.53,0-.55,0-1.11.02-1.66s-.02-1.11.06-1.64Z"/>
  <path class="uuid-c514c72c-207e-4c1c-9d77-31754fd2f5b4" d="m232.56,257.04v-.06s.19,0,.19,0v.06c0,1.11-.04,2.23,0,3.34s.07,2.24.37,3.28c.04.15.21.44.18.58-.41-.06-.63-.67-.68-1.01-.07-.44-.09-.92-.1-1.37-.01-.51-.04-1.02-.04-1.53,0-.55,0-1.11.02-1.66s-.02-1.11.06-1.64Z"/>
  <path class="uuid-c514c72c-207e-4c1c-9d77-31754fd2f5b4" d="m277.77,260.59v-.08s-.19.01-.19.01v.08c0,1.38.03,2.77,0,4.15s-.07,2.78-.36,4.07c-.04.18-.21.54-.18.71.39-.07.61-.83.66-1.25.07-.55.09-1.15.1-1.7.01-.63.04-1.26.04-1.9,0-.69,0-1.37-.02-2.06s.02-1.38-.06-2.04Z"/>
  <path class="uuid-c514c72c-207e-4c1c-9d77-31754fd2f5b4" d="m289.63,257.45v-.07s-.22.01-.22.01v.07c0,1.26.04,2.53,0,3.79s-.08,2.53-.42,3.72c-.05.17-.24.5-.21.65.46-.07.71-.76.77-1.15.08-.5.1-1.05.11-1.55.01-.58.05-1.15.05-1.73,0-.63,0-1.25-.03-1.88s.02-1.26-.07-1.86Z"/>
  <g>
    <path class="uuid-c514c72c-207e-4c1c-9d77-31754fd2f5b4" d="m292.81,256.18s-.06.03-.09.05c-.06.02-.12.05-.18.07v-.02l.27-.1Z"/>
    <path class="uuid-c514c72c-207e-4c1c-9d77-31754fd2f5b4" d="m292.41,256.48v-.28l.09-.05.26-.1s0,0,0,0l.09.25h0s-.04.03-.06.03l-.04.02s-.05.02-.08.03c-.03.01-.07.03-.1.04l-.18.06Z"/>
  </g>
  <g>
    <path class="uuid-c514c72c-207e-4c1c-9d77-31754fd2f5b4" d="m293.24,256.02v.02h-.04s-.06.01-.09.02l.13-.04Z"/>
    <path class="uuid-c514c72c-207e-4c1c-9d77-31754fd2f5b4" d="m293.15,256.19l-.08-.26s.04-.01.06-.02l.25-.08v.34h-.17s0,0,0,0h-.04Z"/>
  </g>
  <g>
    <path class="uuid-c514c72c-207e-4c1c-9d77-31754fd2f5b4" d="m292.82,260.63h.02l-.15.2s.05-.09.09-.14c.01-.02.02-.04.04-.06Z"/>
    <path class="uuid-c514c72c-207e-4c1c-9d77-31754fd2f5b4" d="m292.8,260.91l-.22-.16h0s.02-.03.03-.04c.02-.03.04-.06.06-.1,0,0,.01-.03.05-.07l.04-.04h.35l-.31.41s0,0,0,0Z"/>
  </g>
  <g>
    <path class="uuid-c514c72c-207e-4c1c-9d77-31754fd2f5b4" d="m293.78,259.34l-.58.8c.05-.09.1-.17.15-.26.01-.01.02-.03.03-.04.12-.15.25-.32.4-.5Z"/>
    <path class="uuid-c514c72c-207e-4c1c-9d77-31754fd2f5b4" d="m293.31,260.21l-.23-.14s.05-.09.08-.13c.02-.04.05-.08.07-.13l.02-.03s.01-.02.03-.04l.12-.15c.08-.11.17-.22.27-.34l.21.17-.58.8Z"/>
  </g>
</svg>