<?xml version="1.0" encoding="UTF-8"?>
<svg id="uuid-57a08bb6-28a5-4560-b06a-e82eb55a233c" data-name="Livello 7" xmlns="http://www.w3.org/2000/svg" viewBox="0 0 400 400">
  <defs>
    <style>
      .uuid-8b7cb949-c88b-4157-8fab-8f9d1bd4c6f9 {
        fill: #232a56;
      }
    </style>
  </defs>
  <path class="uuid-8b7cb949-c88b-4157-8fab-8f9d1bd4c6f9" d="m293.26,244.11c1.3,1.67,2.44,3.48,3.41,5.36.37.72,1.45.08,1.08-.63-1.02-1.98-2.24-3.86-3.61-5.62-.21-.27-.67-.22-.88,0-.26.26-.21.62,0,.88Z"/>
  <path class="uuid-8b7cb949-c88b-4157-8fab-8f9d1bd4c6f9" d="m306.36,156.16c5.11-1.94,10-4.4,14.59-7.35.4-.21.8-.42,1.2-.62,0,0,.13.06.13.06,0-.14.02-.25.07-.35.17-.12.34-.24.51-.35.09-.02.18-.04.28-.06.11-.12.23-.25.34-.37.29-.2.58-.4.87-.6.65-.47.02-1.55-.63-1.08-5.46,3.92-11.4,7.13-17.69,9.52-.75.28-.42,1.49.33,1.21Z"/>
  <path class="uuid-8b7cb949-c88b-4157-8fab-8f9d1bd4c6f9" d="m219.19,14.33c2.5-1.04,5.06-1.83,7.84-1.39.77.03,1.63.43,2.17-.53,1.93.01,3.82.4,5.7.66,2.01.28,4.07.6,6.05,1.01,2.96.62,5.85,1.65,8.75,2.49,5.88,1.69,11.14,4.44,16.38,7.49,3.18,1.85,5.51,4.63,8.48,6.71,2.39,1.68,4.15,4.27,6.18,6.46h0c-.18.07-.38.23-.52.19-1.61-.52-3.2-2.16-4.83,0-.06.07-.64-.11-.85-.32-1.04-1.02-2.09-.83-3.18-.11-.22.02-.45.05-.67.07-.17-.03-.34-.07-.5-.1-2.53-.56-5.05-1.19-7.59-1.68-3.78-.74-7.25-2.49-11.01-3.26-1.38-.78-2.79-1.41-4.45-1.18-.54.08-.97-.24-1.44-.48-4.51-2.37-9.1-4.5-14.4-4.07,3.18.68,6.19,1.8,9.06,3.3.63.33,1.26.73,1.94.89,2.68.61,5.15,1.8,7.75,2.65,2.62.56,5.11,1.57,7.7,2.25,4.02,1.05,8.12,1.86,12.07,3.16.53.17,1.01.19,1.53.14,3.95.54,7.77,2.44,11.9,1.23,3.52,2.29,7.13,4.46,10.54,6.9,3.26,2.33,6.54,4.51,10.41,5.68.1.68.74.39,1.11.56,5.34,2.48,9.41,6.56,13.31,10.77,1.32,1.43,2.71,2.62,4.39,3.54-.02.05-.07.13-.06.15.06.06.14.11.21.16-.03,0-.06,0-.09,0-.24,1.44.9,1.96,1.78,2.66,1.35.47,1.71,1.75,2.32,3.36.71-1.85-.19-2.72-.89-3.65h0c-.06-.44-.37-.66-.72-.85-.03-.1-.05-.2-.04-.3-.39-.42-.78-.84-1.17-1.26-.47-.74-1.15-1.36-1.28-2.3,0,0,.05,0,.05,0-.13-.15-.27-.3-.4-.45,0,0,.02.03.02.03-.94-.56-1.38-1.54-1.99-2.37-.54-.27-.93-.7-1.25-1.21-.64-.63-1.27-1.25-1.91-1.88-.79-.95-1.57-1.91-2.36-2.86-.78-.43-1.56-.85-2.33-1.28-2.81-2.62-6.12-4.48-9.45-6.32-.48-1.34-1.65-1.57-2.84-1.78-2.1-1.52-4.2-3.04-6.3-4.55-1.26-.54-2.51-1.08-3.56-1.98-2.54-2.03-5.47-3.59-7.55-6.18-.77-.41-1.55-.8-1.72-1.79,0,0-.15-.09-.15-.09-.64-.34-1.09-.86-1.45-1.47,0,0-.12-.13-.12-.13-2.94-2.93-5.89-5.86-8.83-8.8-.25-.18-.5-.35-.74-.53-1.57-1.51-3.71-2.26-5.18-3.91-1.03-.55-2.4-.37-3.17-1.48-.26-.13-.53-.26-.79-.4-.55-.18-1.14-.29-1.64-.55-4.34-2.21-8.93-3.59-13.76-4.17-.22.2-.46.27-.7.3.25-.02.48-.1.7-.3-.71-.99-1.73-.96-2.78-.84-.79-.16-1.58-.32-2.38-.48-.12-.07-.25-.13-.37-.2-.27-.02-.55-.05-.82-.07-1.24-.74-2.53-1.15-3.97-.62-1.01-.29-2.05-.3-3.08-.25-2.64-.73-5.26-.6-7.88.11-1.86.75-3.71,1.5-5.57,2.25-1.23.7-2.72,1.02-3.51,2.37l-.09-.06c-.29,1.48-1.41,2.45-2.2,3.63-.08.73-.37,1.49.4,2.4,1.39-2.49,3.38-4.09,5.81-5.11Z"/>
  <path class="uuid-8b7cb949-c88b-4157-8fab-8f9d1bd4c6f9" d="m183.39,182.91c5.54-6.79,10.75-13.82,15.37-21.32,6.47-10.51,12.75-21.12,18.48-32.04,2.99-5.71,5.96-11.43,9.04-17.09,2.22-4.06,3.91-8.4,6.44-12.3,1.95-3.01,3.89-6.04,5.85-9.05,1.65-2.54,3.52-4.92,5.78-6.94,1.26-1.13,2.39-2.66,4.44-2.36,3.27-.33,6.03.96,8.72,2.61,3.31,2.02,6.79,3.79,8.65,7.49.66,1.32,1.81,2.35,2.32,3.8.17.48.74,1.1,1.41.63.55-.39-.04-.94-.25-1.16-.74-.74-.67-1.67-.81-2.56-.79-1.81-2.19-3.19-3.33-4.75-4.15-5.64-9.47-8.87-16.71-8.21-1.53.18-2.76.93-3.89,1.94-2.75,2.43-5.08,5.29-7.17,8.24-4.21,5.96-7.58,12.45-11.11,18.83-2.15,3.89-3.68,8.11-6.27,11.78-1.37,1.94-1.96,4.35-3.55,6.18-.04,1.85-1.65,2.92-2.27,4.51-.22.56-.5,1.43-1.2,1.83-.05.3,0,.65-.38.79-.32.65-.64,1.29-.95,1.94-.24.53-.48,1.06-.71,1.58-.3,1.07-.99,1.92-1.58,2.83-3.59,6.35-7.42,12.55-11.46,18.61-.54,1.62-1.74,2.8-2.69,4.16-2.4,3.53-4.66,7.16-7.23,10.57-.87,1.16-1.72,2.35-2.58,3.52-3.15,3.13-6.25,6.32-8.76,10.01-.1.15-.12.29-.09.43-1.54,1.77-3.13,3.48-4.87,5.07,0,0-.13.14-.13.14-3.94,4.07-7.65,8.39-12.55,11.39,0,0,0,.07,0,.07-.34.38-.68.77-1.01,1.15-1.66.89-2.62,2.53-4.01,3.71-1.1.93-2.81.9-4.02,2.55,1.93-.47,3.27-1.11,4.47-2.08,1.86-.98,3.78-1.89,5.09-3.65.64-.46,1.33-.85,1.9-1.38,2.5-2.29,4.92-4.67,7.46-6.92,5.08-4.51,9.9-9.3,14.18-14.55Z"/>
  <path class="uuid-8b7cb949-c88b-4157-8fab-8f9d1bd4c6f9" d="m74.56,175.6c-.16,2.05.34,4.25.21,6.4.87,1.93-.03,4.17,1.04,6.63.35-3.28.96-5.96.98-8.75.07-9.23-.43-18.51,1.18-27.66.8-4.56.52-9.2,1.4-13.73,1.12-5.8,1.32-11.72,2.04-17.57.94-7.61,1.22-15.3,2.85-22.83,1.08-5.34,3.15-10.31,5.49-15.19,1.6-3.33,3.84-6.28,5.58-9.5,5.48-10.17,12.78-18.95,20.4-27.51,4.77-5.36,10.05-10.18,15.31-15.04,3.87-4.02,8.08-7.7,11.79-11.87,2.73-2.36,5.13-5.06,7.89-7.41,3.83-3.26,8.2-5.2,13.08-6.14l-.04.14c1.33-.82,2.9-.56,4.32-.73,2.52-.29,5.13-.43,7.56.73,2.64.52,5.27,1.04,7.91,1.57,2.55.95,5.58.87,7.39,3.44.24.35.69.6,1.1.76.48.19,1.04.52,1.39-.32.29-.7.64-1.53-.29-1.71-.67-.13-.74-.63-1.14-.86-1.3-.75-1.9-2.41-3.48-2.77-4.04-.91-8.1-1.75-12.02-3.15.01.28.18.72.18,1.02,0-.3-.17-.74-.18-1.02-.42-.08-.84-.16-1.26-.23-.6.34-1.2.23-1.85.13-.67-.1-1.44-.25-1.83.6-.43-.02-.85-.04-1.28-.07,0,0,0,0,0,0-.32-.32-.65-.65-.97-.97-.78.13-1.56.27-2.35.4-.06.33-.12.67-.19,1-1.02.07-2.08-.2-3.01.46-.65,0-1.3-.01-1.95-.02-.93.43-1.83.95-2.8,1.27-2.34.77-4.65,1.72-6.54,3.2-2.93,2.28-5.58,4.93-8.25,7.52-.58.57-.85,1.46-1.78,1.68-2.46,1.37-3.9,3.85-5.83,5.77-2.02,2.02-4.39,3.76-6.08,6.12-3.44,3.08-7.12,5.94-10.26,9.3-3.03,3.24-6.2,6.35-9.11,9.74-3.61,4.2-7.18,8.37-10.14,13.07-2.41,3.83-5.96,6.83-8.12,10.88-1.82,3.41-4.07,6.6-5.79,10.05-1.65,3.31-3.12,6.76-4.17,10.3-.46,1.54-1.39,3.22-.76,5.02-.58.13-.59.59-.66,1.06-.5,3.22-.62,6.48-1.47,9.67-.43,1.61-1.11,3.48-.79,4.99.5,2.32-.07,4.51-.21,6.69-.22,3.37-.62,6.76-.97,10.14-.25,2.35.09,4.72-.37,7.06-.04.13-.08.26-.12.39-.04.38-.07.76-.11,1.14.03.39.07.78-.31,1.05-1.15,3.89-1.42,7.94-1.92,11.92-.57,4.59-.64,9.24-.5,13.88-.27.66-.33,1.34-.13,2.03-.44,2.59.13,5.19-.08,7.83ZM176.7,3.6c0,.08-.01.14-.04.19.03-.05.04-.12.04-.19Zm-9-.05s.02,0,.03,0c-.01,0-.02,0-.03,0Z"/>
  <path class="uuid-8b7cb949-c88b-4157-8fab-8f9d1bd4c6f9" d="m344.13,138.93c-1.39-10.41-2.68-20.83-4.4-31.18-.92-5.55-1.92-11.14-5.15-15.97-.09-.15-.18-.3-.27-.46,0,0,0,0,.01,0,0,0,0,0,0,0,0,0,0,0,0,0h0c-.47-2.08-1.79-3.62-3.19-5.12-2.66-4.86-12.22-9.99-14.5-7.74.74.27,1.57.39,2.18.82,2.94,2.07,6.27,3.62,8.44,6.71.7,1,1.56,1.95,2.67,2.59.89,1.25,1.78,2.5,2.67,3.74,1.22,4.38,4.15,8.11,4.59,12.8.32,3.38,1.09,6.72,1.42,10.11.55,5.57,1.56,11.06,2.46,16.57.73,4.47,1.95,8.85,2.25,13.4.81,1.62.5,3.51,1.23,5.14.69-.99.75-2.23.66-3.27-.24-2.72-.7-5.43-1.06-8.14Zm-10.84-47.49c-.1.03-.2.06-.29.12.09-.05.19-.09.29-.12Z"/>
  <path class="uuid-8b7cb949-c88b-4157-8fab-8f9d1bd4c6f9" d="m337.59,235.33c-.02-.14-.06-.27-.09-.41-.24-2.72-.86-5.39-1.83-7.93-.38-1.1-.86-2.16-1.41-3.19,0-.08,0-.16.01-.24-.17-.35-.34-.7-.51-1.05-.08-.09-.15-.19-.23-.28-.12-.27-.24-.54-.37-.81-.42-1.26-.83-2.53-1.25-3.79-.35-.64-.32-1.45-.92-1.98-.03-.25-.06-.5-.1-.75-.43-.74-.65-1.54-.69-2.39-.5-.31-.29-.78-.26-1.21,0-.79,0-1.58,0-2.37-.3-1.69.24-3.47-.52-5.12.02-.4.05-.81.07-1.21-.02-.13-.04-.26-.06-.39-1.04.14-1.08.31-.37,1.58-.11.44-.21.88-.32,1.31.02.75.05,1.5.07,2.25.03.28.06.55.09.83.2.39.21.79.17,1.2.04-.41.02-.81-.17-1.2-.05.5-.1,1.01-.15,1.52.09.02.18.05.27.09.49,1.79-.06,3.75.91,5.46h0c-.03.27-.05.55-.08.82.05.1.06.2.03.31.26.23.35.52.3.86.03.27.07.54.1.81.53,1.1.61,2.38,1.08,3.5.35,1.14.75,2.27,1.18,3.38.15.56.36,1.1.66,1.6.18.43.36.85.56,1.27.03.07.08.12.13.17.6,2.5,1.2,5,1.8,7.49.05,1.98.59,3.94.36,5.94-.02,1.35-.22,2.68-.68,3.96-.08.41-.17.81-.25,1.22-.11.57-.05,1.19-.51,1.66,0,.41-.04.8-.39,1.08-.38.93-.77,1.87-1.15,2.8-.08.26-.15.52-.23.79-.08.15-.15.29-.23.44.03.13,0,.24-.09.34-.09.19-.18.38-.28.57.05.09.02.16-.07.2-.11.62-.31,1.2-.73,1.69-.28,1.15-.82,2.16-1.53,3.09-.55,1.07-1.1,2.13-1.65,3.2-.26.37-.52.74-.78,1.11.01.01.01.02.03.04-.79,1.06-1.63,2.07-2.53,3.04-.8.42-1.58.87-2.13,1.64-.33.46-1.31.87-.47,1.56.69.57,1.36.11,1.86-.49.1-.12.19-.25.28-.37,1.52-.9,2.84-2.08,3.93-3.48.09-.05.18-.12.24-.24.31-.61.62-1.21.94-1.82.72-1.29,1.32-2.64,1.93-3.98,2.12-4.61,3.96-9.34,5.64-14.14.2-1.44.41-2.87.61-4.31-.01-.07-.02-.14-.02-.2.02-.05.03-.1.04-.16.08-1.12.03-2.25-.14-3.36,0-.64-.04-1.27-.15-1.92Z"/>
  <path class="uuid-8b7cb949-c88b-4157-8fab-8f9d1bd4c6f9" d="m350.48,130.94l-.16.05c.04-3.88.17-7.76.11-11.63-.07-3.9-.25-7.8-1.15-11.63-.79-3.35-1.61-6.69-2.88-9.89-2.16-5.42-5.36-10.23-8.93-14.81-.34-.71-1.21-1.04-1.39-1.88-.32-.21-.67-.38-.97-.62-2.98-2.45-5.71-5.19-9.49-6.56-3.56-1.28-7.05-2.86-10.77-3.48-5.25-.87-10.28,0-14.74,3.17-.59.42-1.5.96-1.21,1.6.36.79,1.26.24,1.88-.06,4.32-2.05,8.78-3.04,13.57-1.99,2.5.55,5.13.8,7.39,1.95,5.81,2.95,10.87,6.89,14.61,12.34.21.33.42.67.64,1,6.69,9.84,9.92,20.75,10.41,32.61.13,3.13-.06,6.3.57,9.4-.03.05-.09.11-.08.15.03.11.09.21.14.31,0,0,.08-.04.08-.04-.04,1.82-.08,3.65-.11,5.47-.19.17-.24.35-.05.55-.03.33-.05.66-.07.99-.23.33-.23.67,0,1,.06.48.12.96.18,1.44-.03.05-.09.1-.08.14.02.1.08.2.12.3.14,1.24-.42,2.38-.41,3.65.03,3.8.12,7.59.4,11.38.05.24.1.49.15.73.24.25.24.54.17.85.49,1.41-.44,3.11.87,4.36-.53.85-.24,1.77-.22,2.67.2.13.39.27.59.4.12-.24.23-.49.35-.73-.05-.82-.1-1.65-.14-2.47.1-.23.2-.45.29-.68-.06-.13-.06-.25,0-.38-.04-.26-.08-.52-.12-.78-.91-1.1.14-2.12.11-3.19,0-.26,0-.53.01-.79,0-.66,0-1.32,0-1.98-.08-3.69-.2-7.39.04-11.08,0-.53,0-1.06-.01-1.58.01-1.05.02-2.11.03-3.16-.02-1.78-.04-3.56-.05-5.34.03-.18.07-.37.1-.55l.25-1.24Z"/>
  <path class="uuid-8b7cb949-c88b-4157-8fab-8f9d1bd4c6f9" d="m145.27,259.17c.11-.79.22-1.59.33-2.38.09-.03.17-.05.26-.07.07-.37.13-.74.2-1.11.24-.66.48-1.32.72-1.98.02-.26.04-.53.06-.79-.08-.51-.17-1.02-.25-1.54-.82,1.71-1.46,3.35-1.62,5.13-1.15,2.23-1.24,4.76-1.99,7.12-1.03,3.23-1.7,6.57-2.52,9.87-1.32,8.12-3.19,16.17-3.58,24.62.63-.46.69-.89.8-1.34,1.35-5.4,1.48-10.99,2.78-16.4.24-.98.15-2.05.7-2.96-.08-.79-.39-1.59.15-2.34,1.14-5.32,2.47-10.59,3.95-15.83Z"/>
  <path class="uuid-8b7cb949-c88b-4157-8fab-8f9d1bd4c6f9" d="m338.08,175.93c-1.46,1.15-3.07,1.99-4.74,2.77-1.41.67-2.32,1.91-1.83,3.33.8,2.29-.29,3.8-1.55,5.36-.29.36-.46.71-.46,1.2,1.28.2,2.1-.4,2.77-1.39,1.06-1.55,1.9-3.28,3.46-4.45.69-1.28,1.55-2.44,2.51-3.53.2-.28.39-.56.59-.84.12-.38.23-.76.35-1.13-.18-1.83-.29-1.97-1.1-1.32Z"/>
  <path class="uuid-8b7cb949-c88b-4157-8fab-8f9d1bd4c6f9" d="m187.88,92.27c-1.18,2.96-3.11,5.58-4.21,8.59-1.3,3.23-2.49,6.5-3.23,9.91-.41,1.19-.82,2.38-1.24,3.56l-.38.42c-.02.12-.04.25-.06.37.09.79-.16,1.45-.73,2-.47,2.56-1.76,4.96-1.48,7.66,3.3-7.79,5.36-15.98,8.14-23.92,2.39-4.31,3.85-9.2,7.32-12.84,3.49-3.67,6.54-7.89,11.31-10.16.36-.64,1.59-.45,1.48-1.63-.62.24-1.24.16-1.88.35-4.26,1.3-6.5,5.09-9.53,7.82-2.34,2.11-4.28,4.77-5.52,7.86Z"/>
  <path class="uuid-8b7cb949-c88b-4157-8fab-8f9d1bd4c6f9" d="m135.3,151.53c-.4.66-.8,1.32-1.2,1.98-.68,1.14-1.3,2.32-2.31,3.23-.54.8-.71,1.89-1.82,2.22-.36,1.82-1.86,2.83-2.93,4.14-.46.59-.52,1.43-1.17,1.89-.8,1.06-1.61,2.11-2.41,3.17-1.4,1.89-2.8,3.78-4.21,5.66.14.12.28.24.43.37,1.62-1.68,3.6-3.15,4.77-5.1,2.15-3.62,4.96-6.72,7.32-10.16,1.94-2.83,3.82-5.72,5.97-8.44,1.41-1.78,2.41-4.16,3.86-6.12.3-.52.6-1.04.9-1.56.34-1.12,1.17-1.91,1.87-2.79.95-1.57,1.89-3.14,2.84-4.7.87-.56,1.19-1.53,1.72-2.35,2.77-4.26,5.54-8.52,8.31-12.78.57-.71,1.13-1.42,1.7-2.14.02-.3.05-.61.07-.91-.47-.04-.78.06-1.18.44-1.57,1.46-2.37,3.39-3.44,5.16-2.47,4.09-5.53,7.81-7.64,12.12-2.44,2.46-4.06,5.5-5.97,8.33.02.13.04.27.06.4-.25.29-.49.58-.74.87-1.74,2.26-2.85,4.94-4.8,7.05Z"/>
  <path class="uuid-8b7cb949-c88b-4157-8fab-8f9d1bd4c6f9" d="m103.29,272.19s.18.03.18.03c0,0,.18-.03.18-.03,1.23-2.62,1.19-5.43,1.26-8.23.03-.05.09-.11.09-.15-.01-.11-.06-.22-.1-.33l.02-4.26c.03-.05.09-.11.09-.15-.02-.11-.08-.21-.12-.32,0-.25,0-.5-.01-.74.04-.04.12-.1.11-.12-.03-.1-.09-.19-.14-.29.1-2.35-.08-4.69-.38-7.02-.08-.62.08-1.57-.78-1.51-1.02.07-1.07,1.12-.88,1.85.8,3.1.39,6.25.45,9.37.05,2.91-.06,5.85-.37,8.74-.12,1.16-.63,2.21.4,3.17Z"/>
  <path class="uuid-8b7cb949-c88b-4157-8fab-8f9d1bd4c6f9" d="m97.38,261.63c-.02.24-.05.47-.07.71.06.9.11,1.8.17,2.71.32-.12.64-.24.96-.36.68-2.55,1.33-5.1,2.05-7.63.52-1.8,1.37-3.55.28-5.43-.56-1.54-.13-3.15-.35-4.71.1-.35.05-.68-.17-.97-.23-2.54-.92-4.99-1.64-7.45-.66,2.06.11,4.04.39,6.04.03.39.05.79.08,1.18-.02.27-.03.53-.05.8,0,.4,0,.79,0,1.19-.04.12-.08.24-.11.35-.23.06-.38.17-.32.44.07.93.14,1.86.21,2.78-.01.12-.03.25-.04.37-.01.25-.02.5-.03.75-.33,2.75-1.41,5.42-.76,8.28.07.31-.16.77-.59.95Z"/>
  <path class="uuid-8b7cb949-c88b-4157-8fab-8f9d1bd4c6f9" d="m140.47,247.73c.12-.22.29-.43.34-.67.87-3.9,2.31-7.65,2.83-11.64-.3-2.12.51-3.85,1.88-5.39.05-.5-.05-1.05.43-1.42.07-.33-.03-.71.31-.95-.22-.67-.62-.4-.79-.06-1.84,3.64-4.35,6.94-5.48,10.94-.97,1.14-1.4,2.54-1.95,3.89-.1.17-.2.33-.3.5-.15.27-.3.53-.45.8-.42.49-.87.96-1.24,1.48-1.67,2.3-1.55,5.45-3.57,7.59-.77,1.17-.47,2.48-.45,3.74.09,5.23.8,10.44.32,15.68,0,.28.02.55.02.83.02.24.05.49.07.73l.22.44v12.16c1.67-3.69,1.6-7.59,2.19-11.38.28-1.19.56-2.38.84-3.58.26-1.45.52-2.9.78-4.35.34-1.9.64-3.82,1.04-5.71.96-4.55,1.97-9.1,2.96-13.65Zm.1-9.63c-.06,0-.09.05-.09.11,0-.06.03-.1.09-.11Zm-.09.43s0,.06-.02.09h0s.02-.05.02-.09Zm-7.64,35.93c.29.34.56.53.77.24-.21.29-.48.1-.77-.24Zm1.72-4.78c-.15.55-.03,1.17-.03,1.76-.19.29-.42.49-.79.4,0,0-.06,0-.06,0-.1-.16-.2-.32-.31-.47-.1-2.88.7-5.71.34-8.61-.3-2.51-.5-5.03-.72-7.55-.06-.65-.06-1.31.37-1.88,0,0,0,0,0,0,1.36-2.39,2.73-4.78,4.08-7.17.29-.51.67-.98.65-1.62.11-.27.22-.53.34-.8h0c.11-.09.16-.21.15-.35.72-.95,1.42-1.91,1.53-3.16-.04-.08-.05-.15-.06-.23,0,.07.02.15.06.23.78-.36,1.16.06,1.41.72-.88,1.89-1.05,3.95-1.42,5.96h0c-.08.09-.11.2-.09.32-.07.15-.15.31-.22.46-2.39,7.17-3.26,14.71-5.23,21.98Z"/>
  <path class="uuid-8b7cb949-c88b-4157-8fab-8f9d1bd4c6f9" d="m83.46,207.02c-.17-1.62-.49-3.22-.74-4.83-.25-3.16-.94-6.28-.92-9.46.13-.33.09-.64-.13-.91-.02-1.01-.04-2.01-.06-3.02.02-.3.05-.59.07-.89.08-.32.21-.64.21-.96.01-.47.37-1.15-.38-1.33-.72-.17-.93.43-1.26.97-.37.63-.3,1.25-.34,1.9-.32,4.61,1.15,9.11.86,13.72,0,0-.14-.03-.14-.03,0,.8,0,1.6,0,2.4.79,2.18,1,4.46.88,6.74-.07,1.34.57,2.52.48,3.86-.06.81.83.86,1.5.9.07-.07.16-.1.26-.08-.62-1.26-1.13-2.68-.62-3.97.67-1.69.49-3.33.31-4.99Z"/>
  <path class="uuid-8b7cb949-c88b-4157-8fab-8f9d1bd4c6f9" d="m321.58,294.19c-.24-.23-.52-.43-.68-.7-.61-1.06-2.16-.98-2.61-2.21-.44-.03-.87-.05-1.31-.08h0c.43.03.87.05,1.31.08.05-.28.09-.55.14-.83,2.01-1.75,2.02-1.82.41-2.86,0,0,0,0,0,0h0s0,0,0,0c-.62-.64-.15-1.66-.81-2.29-.48-.2-.52-.72-.77-1.09-.24-.34-.24-1.06-.88-.79-.63.26-.48.87-.22,1.35.46.85.98,1.67,1.47,2.5-.11.46-.48.71-.84.95-1.18-.02-1.69.77-2.09,1.71-.64.56-1.25,1.14-1.92,1.67-.5.4-1.1.53-1.57-.01-.42-.49-.44-1.06.03-1.58.53-.58,1-1.21,1.23-1.98,1.88-1.45-.03-2.63-.27-3.93-.39-.4-.78-.81-1.16-1.21-.03-.13-.06-.26-.09-.39-.41-.2-.71-.45-.9-.94-.45-1.21-1.2-1.81-2.25-.56-.71.85-1.06.34-1.49-.22-.66-.89-1.31-1.79-2.01-2.65-.23-.29-.61-.64-1-.37-.2.14-.24.56-.3.87-.05.25-.02.52-.05.78-.07.51-.1,1.14-.62,1.35-.59.24-.91-.35-1.26-.72-.45-.47-.89-.94-1.33-1.42-.32.08-.51.2-.63.34-.12.14-.15.3-.14.47,0-.17.03-.34.14-.47.12-.14.31-.25.63-.34.02-.61-.33-1.05-.85-1.18-.73-.17-.69.64-.98,1.01-.27.34-.37.81-.54,1.23-.36.71-.71,1.41-1.07,2.12-.01.45,0,.91-.04,1.36.03-.45.03-.91.04-1.36-.42-.01-.83-.03-1.25-.04-.17-.35-.37-.7-.52-1.06-1.74-4.15-1.7-4.28,2.36-5.94.91-.37,1.71-.85,2.35-1.59,5.6-.75,12,.54,16.5-3.67.14-.13.19-.27.19-.41.91-.72,1.62-1.65,2.09-2.72,1.68-2.24,2.95-4.75,2.76-7.66,0-.06-.03-.11-.04-.16.04-.94.08-1.89.12-2.83-.02-.56-.05-1.12-.07-1.69-.08-.37-.17-.75-.25-1.12-.08.01-.15,0-.23-.03,0-.35.22-.95-.31-.88-.47.06-.28.59-.07.93,0,.48,0,.96,0,1.44h0c-.1,1.32-.2,2.64-.3,3.96-.08.1-.13.22-.12.38.03.45.02.88-.03,1.31-.25,1.12-.88,2.1-1.46,3.06-1.28,2.11-2.33,4.55-5.17,5.13-2.36.32-4.72.65-7.08.97-.75.51-1.58.38-2.4.27-1.09-.62-.5-2.72-2.36-2.67-.27-.05-.55-.1-.82-.15-2.81-.46-5.65-.78-8.42-1.41-4.8-1.09-9.56-.93-14.34-.03-1.08.2-2.12.61-2.94,1.41-.95.17-1.9.16-2.83-.09-.33-.13-.66-.24-.99-.34-.33-.12-.68-.19-1.03-.24-.48-.09-.97-.14-1.47-.17-.03-.02-.05-.03-.08-.05-3.4.29-5.4-1.44-6.51-4.48-.15-.42-.31-.85-.46-1.27-.39-1.58-.78-3.17-1.17-4.75.3-.94.53-1.88-.12-2.79.29-.34.26-.73.19-1.13.04-.16.08-.31.12-.47,1.25-1.71,2.26-3.63,4.38-4.54.65-.28,1.21-1.19,1-1.75-.09-.24-.21-.34-.34-.35-.12-.06-.26-.08-.42-.02-.31.11-.61.25-.9.39,0,0,0,0,0,0,0,0,0,0,0,0-1.94.91-3.52,2.43-4.54,4.29-.12.04-.23.13-.3.28-.5,1.04-.78,2.13-.86,3.28,0,.05.01.1.03.15-.13.49-.25.98-.38,1.48-.23,3.94-2.52,7.02-4.33,10.29.05.9-.43,1.53-1.1,2.05-2.37,2.66-3.95,5.97-6.74,8.29-.89,1.3-2.91,1.34-3.42,3.07.32.19.54.06.86-.11,2.88-1.52,4.98-3.95,7.23-6.19.27-.89.91-1.49,1.61-2.04.57-.77,1.14-1.54,1.71-2.31.09-.15.19-.3.28-.45.08-.13.15-.25.23-.38,1.52-2.98,2.82-6.07,4.7-9.01.79,1.12.57,2.36.64,3.53.34,1.36.85,2.58,1.73,3.77.86,1.15,1.9,1.94,3.04,2.55,3.93,2.7,8.64,3.48,13.32,3.83.29.04.59.07.88.09.21.06.43.11.67.12,4.79.15,9.59.31,14.38.46.01.23.03.47.04.7-1.69,1.7-4.25,2.26-5.57,4.49-.62,1.04-.91,1.65.74,2.09-1.25.49-1.81,1.27-1.58,2.46-.21.94-.42,1.88-.63,2.82-.14.61.27,1.56-.93,1.53,0,0,0,0,0,0-.14-.1-.29-.21-.43-.31-1.4-.51-1.83-1.53-1.6-2.94.1-.64.18-1.32-.45-1.79,0-.62-.69-.8-.84-1.32.28-.62.32-1.23-.22-2.22-2.8,3.63-3.36,8.22-6.03,11.63-1.2.72-1.38,1.92-1.69,3.16-.43,1.73.56,2.41,1.77,3.07.46.25.9.21,1.19-.28.19-.31.62-.64.15-1-1.76-1.3-.78-2.9-.51-4.42h0c.13-.12.26-.24.38-.36.72-.24,1.32.08,1.92.38.16,1.72.69,3.31,1.69,4.72.31.44.82.77,1.34.63.61-.16.57-.78.56-1.31,0-.59.02-1.17,0-1.76-.02-.44.16-.83.53-.95.32-.11.5.28.72.53,1.15,1.36,2.32,1.25,3.49-.32.3.07.59.14.89.21.61.23,1.27.46,1.76-.16.25-.31.18-.87-.17-1.04-1.47-.71-1.24-2.12-1.48-3.34.29-.23.57-.46.98-.39.66,1.79,1.31,3.58,2.51,5.12.43.56.74.81,1.44.52.6-.25,1.25-.39,1.89-.52,1.45-.3,2.05-1.05,1.5-2.55-.34-.92-.68-1.86-.34-3.03.85.9,1.24,1.81,1.61,2.72.64,1.59,1.68,2.94,2.65,4.33.24.35.49.92,1.03.71.52-.2.34-.8.36-1.24.05-1.14-.26-2.19-.62-3.27-.38-1.16-1.15-2.23-1.15-3.87,1.41,1.67,2.54,3.1,3.77,4.44.47.51,1.18,1,1.94.66.79-.35.19-1.04.18-1.57,0-.47-.06-.96.35-1.27.5-.38.84.13,1.22.33.41.21.77.51,1.17.74,1.17.66,1.1,1.39.04,2.04-1.12.69-2,1.61-2.88,2.56-.62.67-1.25,1.61-2.03,1.79-3.27.77-6.23,2.36-9.42,3.33-2.34.34-4.49,1.43-6.85,1.74-.46.06-.83.76-1.25,1.17-.35.08-.71.17-1.06.25-.77.03-1.55.06-2.32.1-2.11-.4-4.23.05-6.35-.16-1.55-.07-2.78-1.3-4.37-1.21-2.49-1.24-5.74.53-7.91-2.01-.11-.13-.51-.04-.77-.02-1,.09-1.93-.18-2.89-.44-1.25-.34-2.45-.98-3.82-.74v-.05c-1.57-.45-3.19-.15-4.8-.23-3.81-3.04-8.79-1.85-10.5,2.5.12.04.25.12.36.11.19-.01.4-.05.57-.14,3.48-1.79,7.14-1.47,10.81-.9,1.17.18,2.33.48,3.52.35,1.26-.33,2.29.4,3.31.86,3.28,1.46,7.18.96,10.18,3.27.33.28.66.55.99.83,1.24.33,2.47.67,3.71,1,1.2-.16,2.39-.11,3.56.24,1.84.3,3.68.69,5.53.07.71-.12,1.45-.15,2.12-.37,6.35-2.1,11.96-5.72,17.88-8.72.41-.21.8-.47,1.22-.64.65-.25,1.15.09,1.54.57.39.48.04.82-.25,1.2-.99,1.27-1.75,2.65-3.14,3.66-4.26,3.12-6.97,7.93-11.57,10.72-4.47,2.71-8.76,5.75-14.46,5.03-2.5-.32-4.76-1.24-7.08-2.06-1.8-.35-3.03-1.62-4.4-2.68-1.44-1.1-2.87-2.2-4.77-2.36h0c-.06-.06-.12-.12-.18-.18.05.07.11.14.16.21.14,1.31,1.39,1.54,2.21,1.93,2.23,1.05,3.21,4.05,6.16,3.9,4.22,2.14,8.69,3.12,13.3,1.97,5.06-1.26,9.92-3.32,15.24-3.57,1.73-.08,2.35-1.77,1.47-3.45-.57-.51-1.81-.34-1.66-1.61,1.49-1.74,3.14-3.34,4.22-5.41.37-.71.98-1.18,1.77-1.47,2.06-.77,3.43-2.17,3.52-4.48.03-.71.24-1.27.93-1.2,1.62.15,2.32-1.29,3.5-1.88.47-.24.5-1.24,1.29-.94.89.33.92,1.18.9,1.99-.07.18-.2.35-.2.53-.08,2.15-.06,2.12-1.9,1.11-.98-.53-1.72-.49-1.68.97.07,2.23,1.02,3.95,2.79,5.25.63-.14,1.24-.33,1.88-.41.87-.11,1.03-.61.59-1.2-1.47-1.95-1.03-4.17-.98-6.33.16-.23.33-.45.49-.68,1.06.06,1.59.98,2.39,1.48.59.11,1.13.32,1.54.79.36.12.76.41,1.08.34.79-.17,1.9.58,2.3-.33.33-.76-.4-1.57-1.03-2.17Zm-30.44-11.67c-.32-1.06-.42-2.28-1.03-3.14-.65-.92-.15-1.43.14-2.1.2-.48.56-.53.96-.29.67.4,1.23,1.1,1.04,1.77-.83,2.85.38,5.39,1.19,8.24-1.51-1.32-1.83-2.94-2.29-4.48Zm-3.58,19.4c-.17-.04-.35-.04-.54-.02.19-.01.37-.02.54.02,1.5-.08,2.71-.7,3.83-1.47-1.13.77-2.34,1.39-3.83,1.47Zm27.54-11.78c.4.2.81.34,1.27.34.07.08.14.17.21.25-.07-.08-.14-.17-.21-.25-.46,0-.88-.14-1.27-.34Z"/>
  <path class="uuid-8b7cb949-c88b-4157-8fab-8f9d1bd4c6f9" d="m160.62,114.71c.52-.53.65-1.46,1.58-1.57.29-.53.59-1.05.88-1.58.41-1.46,1.25-2.66,2.24-3.78,1.63-2.8,3.7-5.28,6.02-7.77-1.01-.27-1.3.74-1.99.53-.18.16-.36.32-.53.47-1.37,2.54-3.51,4.54-5.03,6.98-1.03,1.63-1.94,3.34-3.11,4.86-.89,1.16-1.8,2.2-1.6,3.78.66-.52.67-1.57,1.55-1.92Z"/>
  <path class="uuid-8b7cb949-c88b-4157-8fab-8f9d1bd4c6f9" d="m307.46,315.75c-1.19-1.37-1.47-3.3-2.81-4.66-.96,2.5,1.02,8.65,3.1,9.78.21.12.52.05.78.07.75-.29.97-.63.46-1.45-.71-1.14-1.32-2.38-1.53-3.74Z"/>
  <path class="uuid-8b7cb949-c88b-4157-8fab-8f9d1bd4c6f9" d="m127.32,255.04c-.41.5-.76.92-.59,1.72.49,2.37.93,4.76,1.2,7.17.33,2.96.43,5.93.69,8.9.05.53-.49,1.55.82,1.38-.01-.78-.08-1.57-.02-2.35.37-5.74-.85-11.28-2.09-16.82Z"/>
  <path class="uuid-8b7cb949-c88b-4157-8fab-8f9d1bd4c6f9" d="m127.35,250.45c.97-1.35,1.59-2.85,1.91-4.48.09-.47.24-.99-.32-1.17-.48-.15-.57.39-.76.71-.64,1.07-1.24,2.16-1.95,3.18-.95,1.37-1.63,3.06-3.54,3.47-1.4-.01-2.74-.31-3.86-1.18-1.28-1.01-2.5-2.1-3.75-3.15-.77-1.26-2.09-1.93-3.13-2.9-.66-1.21-2.07-1.5-2.93-2.56-2.73-3.36-5.91-6.32-8.44-9.85-.42-.65-.84-1.29-1.26-1.94l.06-.07s-.1-.04-.1-.04c-7.49-12.62-10.12-26.66-11.87-40.95.86-1.51,1.69-3.03,2.61-4.51.25-.41.63-.97,1.23-.81.64.17.37.91.63,1.35,0,.66,0,1.32,0,1.98,0,.14,0,.28,0,.42,0,2.03-.45,4.2.08,6.08,2.26,8,5.88,15.39,10.86,22.07.25.38.45.8.74,1.15,2.84,3.35,5.26,6.92,6.88,11.05.54,1.38.83,2.92,1.68,4.13.94,1.33,2.59,1.97,3.69,3.22.57.65,1.51.7,2.37.57.13-.02.33-.31.31-.45-.15-.97-1.08-1.08-1.75-1.36-2.06-.87-3.35-2.22-4.54-4.26-1.88-3.21-2.22-7.02-4.4-10.03-1.15-1.58-.95-2.69,1.01-3.27,2.52-.18,3.93,1.45,5.23,3.23,1.58,2.16,2.96,4.49,5.04,6.24h0c.5.55.99,1.1,1.49,1.65,1.08,1.52,2.3,1.58,3.66.38,1.79-.45,2.73-1.95,2.19-4.06-.47-1.83-1.29-3.57-1.97-5.35-1.11-2.92-2.08-5.87-1.06-9.01.97-3,.47-5.9-.17-8.99-1.63.95-1.84,2.5-2.1,3.82-1.07,5.48-3.02,11.01.28,16.42-.05.38-.09.76-.17,1.4-1.79-2.58-3.52-4.94-5.09-7.4-2.08-3.26-6.44-3.57-8.13,1.25-2.03,1.41-1.78-1.16-2.75-1.58-.11-.64-.63-1.18-.46-1.89-.51-.24-.72-.66-.79-1.19-.56-.56-.79-1.26-.89-2.01-.11-.24-.22-.47-.32-.71-2.67-4.12-4.84-8.48-6.34-13.16-.31-.91-.83-1.77-.65-2.8-.24-.47.21-.79.26-1.19,1.79-2.09,2.8-4.65,4.16-7,1.54-1.59,2.24-3.65,3.1-5.62.63-.39.97-1.02,1.33-1.64,1.57-2.66,2.99-5.41,4.86-7.88-.17-.72.35-1.02.81-1.35.17-.35.33-.7.5-1.05.73-1.81,1.95-3.33,2.92-4.99-.06-1.07,1.07-1.34,1.42-2.13-.19-.65.3-.97.67-1.35.1-.37.12-.8.31-1.11,2.43-3.91,4.65-7.92,6.77-12.01,1.56-3.01,3.2-5.99,4.81-8.98.65-1.63,1.35-3.23,2.35-4.68l2.67-5.84c-.24-.07-.49-.14-.73-.21-1.54,2-2.3,4.41-3.42,6.62-3.45,6.86-7.11,13.61-10.88,20.29-4.84,8.58-9.86,17.06-14.8,25.58,0,.07.01.15.03.22-.01-.07-.02-.15-.03-.22-1.11,2.06-2.21,4.13-3.32,6.19-.92,1.34-1.83,2.67-2.46,4.18-.35.82-.81,1.36-1.8,1-.29-2.77-.59-5.53-.88-8.3.48-1.73-.26-3.46.02-5.19,3.26-6.8,6.47-13.62,9.32-20.62,2.92-7.17,5.39-14.52,8.6-21.58,2.39-5.24,4.47-10.63,6.68-15.95,3.66-7.8,7.18-15.67,11.62-23.08,4.45-7.44,9.52-14.44,15.59-20.58,7.8-7.9,16.33-14.94,26.74-19.29-.01.02-.02.04-.02.04l.03-.05s0-.01,0-.01c.46-.24.92-.49,1.38-.73.48.1.86-.06,1.15-.45.81-.15,1.45-.61,2.08-1.1,1.32-.52,2.66-1.01,3.95-1.58.31-.14,1.12.06.84-.71-.19-.52-.71-.49-1.18-.31-.89.36-1.85.63-2.66,1.13-.69.43-1.33.79-2.16.68l-.75.75h0c-.14.03-.29.07-.43.1-.02.11-.05.22-.08.31-.03.09-.08.17-.14.22-.06.05-.13.08-.22.07.09,0,.17-.02.22-.07.06-.05.1-.13.14-.22.03-.09.06-.2.08-.31-.42-.11-.53.3-.79.46-.14-.04-.28-.08-.42-.12-4.04,1.66-8.02,3.37-11.68,5.83-1.92,1.29-3.55,2.96-5.6,4.08-1.74.96-3.36,2.15-4.75,3.61-3.98,4.21-7.94,8.43-11.72,12.83-2.88,3.35-5.16,7.12-7.63,10.75-5.83,8.56-10.17,17.9-14.34,27.33-.69,1.27-1.49,2.48-2.04,3.81-4,9.56-7.93,19.15-11.91,28.72-1.94,4.67-3.7,9.41-5.78,14.03-1.67,3.71-3.55,7.33-4.85,11.19-.26.34-.49.69-.46,1.15-.09.19-.18.38-.28.57-.11.16-.23.31-.34.47-1.93,2.93-2.77,6.43-4.92,9.25-.49.64-.78,1.01-1.45.33-1.19-4.68-.29-8.98,2.28-13.01.6-.94,1.09-1.96,1.5-3,4.52-11.29,8.93-22.62,14.02-33.67h0c1.91-4,3.83-8,5.74-11.99,4.46-9.58,9.16-19.04,14.19-28.33.59-1.09,1.62-1.92,1.8-3.24.19-.26.41-.51.57-.79,2.62-4.67,5.31-9.3,8.33-13.74,1.44-2.11,3.16-4.07,4.14-6.48,1.93-2.48,3.85-4.96,6.04-7.78-1.24.3-1.71.83-2.26,1.28-2.03,1.66-2.75,4.29-4.51,6.14-.36.38-.8.72-1.06,1.16-3.87,6.6-8.31,12.86-11.66,19.77-.54.74-1.14,1.44-1.61,2.22-4.07,6.77-7.13,14.06-10.85,21.02-1.34,2.51-2.83,5.04-3.44,7.91-.08.17-.16.34-.24.51-.06.12-.13.25-.19.37-1.75,3.86-4.14,7.41-5.49,11.46-.46.79-1.01,1.53-1.36,2.37-2.84,6.64-5.83,13.22-8.4,19.97-3.04,7.98-7.29,15.43-10.09,23.5-.16.47-.6.84-.81,1.11,1.31-.6,1.41.7,1.59,1.4.65,2.55,1.65,5.09.88,7.81-1.1,1.13-2.73,2.01-1.93,4.05.51,1.21.68,2.5.98,3.76.46,1.91-.32,4,.84,5.74.55.83.59,1.71.71,2.61.56,4.29.4,8.68,1.51,12.9.17.63.5,1.2.28,1.88.03.12.05.24.07.36,1.21,1.13.74,2.77,1.07,4.13.56,2.32,1.03,4.68,1.68,6.99,0,0,.11-.07.11-.07-.02.25-.04.51-.06.76.69.4.55,1.55,1.52,1.7-.01.65-.03,1.31-.04,1.96.04.39.07.78.11,1.17.12,1.93.25,3.85.35,5.78.02.31-.13.62-.2.94-.42,1.97-.22,3.92-.1,5.94.93-.2.96-.73,1-1.26.34-4.7,1.25-9.36.92-14.1-.11-1.61.81-3.23-.02-4.84h0c-.07-1.32.29-2.66-.12-3.98-.02-.23-.04-.47-.06-.7,0-.29-.02-.57-.02-.86.91-.81,1.11.17,1.28.63.57,1.55,1.44,2.9,2.48,4.15.01.86.44,1.45,1.2,1.81.11.08.22.16.34.24,1.28.89,1.87,2.32,2.68,3.56,1.15,1.76,2.95,2.82,4.31,4.32,1.07,1.17,2.35,1.75,3.84,1.99.17,1.81,2.08,2.87,2.06,4.76.23.27.45.54.68.82.51-.54,1.01-1.09,1.84-1.08.12.74.24,1.47.36,2.21,2.97,3.15,5.48,3.86,8.34,2.35,2.01-.42,2.35-2.68,3.94-3.56Zm-5.05-26.91c-.03.32-.04.64-.04.96,0-.32,0-.64.04-.96Zm53.65-170.48c.16,0,.33-.05.49-.12-.16.06-.33.12-.49.12Zm-83.31,129.11c.12-.19.24-.38.36-.57h0c-.12.19-.24.38-.36.57Zm1.12,51.65c.26,1.08-.81,1.81-.73,2.84h0c-1.17.37-1.22-.53-1.42-1.26,0,0,0,0,0,0-.84-3.76-1.79-7.5-2.51-11.29-.65-3.4-1.16-6.84-1.52-10.29-.27-2.65-1.21-5.26-1.13-7.87.11-3.54-1.74-6.44-2.37-9.7h0c.46-.52.92-1.04,1.38-1.56h0c1.63,2.76,2.59,5.81,2.72,8.93.12,3.07,1.36,5.85,1.65,8.82.51,5.19,3.33,9.96,2.75,15.33-.08.77.33,1.38.45,2.08.24,1.32.48,2.64.73,3.96Z"/>
  <path class="uuid-8b7cb949-c88b-4157-8fab-8f9d1bd4c6f9" d="m143.65,285.74s.01,0,.02,0c0,0,0,0,0-.01,0,0-.03.02-.03.02Z"/>
  <path class="uuid-8b7cb949-c88b-4157-8fab-8f9d1bd4c6f9" d="m308.97,311.41c-.51-.89-1.07-1.76-1.51-2.68-.21-.43-.45-.61-.88-.53-.68.14-.54.77-.42,1.09.35.96.75,1.93,1.3,2.79.73,1.14,1.11,2.33.98,3.67.57.55,1.19,1.14,2,.54.81-.61.37-1.38.02-2.07-.49-.95-1-1.88-1.5-2.83Z"/>
  <path class="uuid-8b7cb949-c88b-4157-8fab-8f9d1bd4c6f9" d="m316.3,309.67c-1.45-.85-2.13-2.42-3.42-3.4-.33-.5-.96-.82-.92-1.54-.74-.98-1.46-1.97-2.22-2.93-.4-.51-.84-1.13-1.56-.37-.72.76-.73,5.18.15,5.57,1.32.59,1.58,1.78,2.14,2.83.4.21.8.25,1.2,0,.12.22.24.43.36.65.75-1.76,1.71-.93,2.72-.25.7.47.84,1.72,2.05,1.45-.06-.7.22-1.58-.49-2Z"/>
  <path class="uuid-8b7cb949-c88b-4157-8fab-8f9d1bd4c6f9" d="m304.83,331.1c.27-.81-.21-1.51-.33-2.26-.52-.75-1.02-1.52-1.57-2.25-.37-.49-.4-1.72-1.43-1-.75.53-.43,1.27,0,2.07.81,1.48,2.59,1.94,3.32,3.44Z"/>
  <path class="uuid-8b7cb949-c88b-4157-8fab-8f9d1bd4c6f9" d="m342.97,156.69c-.1-.24-.2-.48-.3-.72-.2-.55-.41-1.1-.61-1.65-.35-1.85-.69-3.71-1.04-5.56-.1-.5-.2-1.01-.3-1.51-.49-3.04-1.11-6.06-1.48-9.14-.97-7.91-2.73-15.71-3.57-23.64-.63-5.87-3.04-11.07-5.85-16.18-3.9-7.08-9.98-11.34-17.31-14.13-1.82-1.09-3.77-1.66-5.91-1.51-1.31-1.13-2.77-1.39-4.37-.71-2.46.01-4.48,1.35-6.58,2.34-.8.38-1.34,1.45-1.13,2.81,1.37-1.72,3.02-2.17,4.96-2.05,1.57.09,3.15-.03,4.73-.06.22.13.43.34.67.39,5.86,1.23,10.84,4.26,15.69,7.57,3.46,2.36,5.73,5.85,7.85,9.29,1.97,3.2,4.04,6.51,4.53,10.39.24,1.95.27,3.92,1.31,5.68-.03.31.04.8-.12.9-.37.22-.45-.28-.64-.48-.27-.27-.51-.57-.77-.86-.04.57.04,1.09.19,1.59-.15-.5-.23-1.02-.19-1.59-1.58-5.73-4.66-10.59-8.65-14.92-1.6-2.73-4.46-4.26-6.38-6.75-1.06-1.37-2.3-2.13-.86-4.15-2.64,1.27-5.07.23-7.51.16-2.94-1.2-5.97-.67-7.93,1.68,2.59-.99,4.86.27,7.17-.14.78.63,1.81.49,2.68.85-2.07,1.8-4.25,3.46-6.77,4.56-.82.36-1.54.71-2.04,1.4-1.26,1.72-2.45,3.5-3.71,5.22-.33.45-.79.92-.27,1.34.42.34.78-.27,1.11-.57,2.43-2.19,4.73-4.54,7.3-6.54,2.03-1.57,3.74-3.97,6.83-3.59,3.18,2.67,6.16,5.54,8.67,8.87.81,1.07,1.6,2.16,2.45,3.2,2.1,2.6,3.18,5.74,4.75,8.62,2.38,4.35,4.07,8.78,3.26,13.85.09.15.17.29.26.44.3,0,.6,0,.9.01h0c-.3,0-.6,0-.9-.01h0c-.09-.15-.17-.29-.26-.44-.02.29-.03.58-.05.87-.02,1.06-.05,2.12-.07,3.18-.1.05-.2.09-.31.14.1.04.21.09.31.13.08.71.37,1.46.21,2.11-.31,1.22-.53,2.35.17,3.49,0,.67.01,1.34.02,2.01,0,.25.01.5.02.75-.02,2.82-.03,5.64-.08,8.46-.01.66.22,1.14.66,1.56.14.92.22,1.85.42,2.76.7,3.19,2.91,5.9,3.13,9.2.17,2.56.83,5.24-.67,7.69.15.32.29.65.44.97,3.29-2.49,3.35-5.98,2.98-9.6-.49-1.68-.98-3.37-1.47-5.05-2.05-2.76-3.26-5.88-3.96-9.22.1-.83.14-1.66-.09-2.48,0-.35.01-.7.02-1.05,0-.16,0-.33-.01-.49.03-.77.06-1.53.09-2.3.02-.14.03-.28.05-.43-.12-.56-.25-1.12-.34-1.69-.39-2.35-.14-4.77-.78-7.09-.21-.76.13-1.41.71-1.92.5-.11.74.25,1.02.54.04.2.08.41.12.61h0s-.1.11-.09.15c.04.1.1.19.16.29.38,4.34,2.02,8.4,2.9,12.64.53,2.56,1.03,5.3,2.67,7.54h0c.02.52.05,1.04.07,1.56.38.19.29.51.24.82.27.55.28,1.4.98,1.52.67.11.57-.73.85-1.12.03-.08.08-.13.15-.16-.28-.12-.33-.36-.31-.63Zm-36.85-73.86c-.37-.02-.74-.04-1.1-.05,0,0,0,0,0,0-.71-.16-1.45-.26-2.13-.52.68.26,1.42.35,2.13.52.37.02.74.04,1.1.05.74.63,1.69.79,2.58,1.13-.89-.34-1.84-.5-2.58-1.13Z"/>
  <path class="uuid-8b7cb949-c88b-4157-8fab-8f9d1bd4c6f9" d="m322.93,280.76c-.12-.29-.16-.72-.37-.85-1.53-.89-.79-1.52.19-2.14-.31-1.79-1.41-3.09-2.65-4.3-.74.83-.12,2.05-.8,2.89.04.1.01.17-.08.22-.1.16-.2.33-.3.49,0,0,.07.08.07.08-.07.64-.1,1.28-.5,1.83-.06.26-.11.52-.17.78-.09.17-.18.34-.26.51,0,.29-.09.55-.38.68-1.95,1.98.78,1.98,1.24,2.93,1.11,1.28,2.04.03,3.04-.21.26-.42.52-.84.78-1.25,1.05.33.8,1.28.97,2.02.56-.11,1.18.79,1.6.11.42-.69-.28-1.31-.6-1.93-.89-.34-1.09-1.34-1.78-1.86Z"/>
  <path class="uuid-8b7cb949-c88b-4157-8fab-8f9d1bd4c6f9" d="m157.39,195.72c-.02-.1,0-.19.08-.26-.46-.92-.97-.85-1.61-.15-.7.76-1.46,1.45-2.19,2.17.55,0,1.1,0,1.66,0,1.14-.05,1.07-1.53,2.07-1.75Z"/>
  <path class="uuid-8b7cb949-c88b-4157-8fab-8f9d1bd4c6f9" d="m349.62,164.9s0,0,0,0c0,0,0,0,0,.01,0,0,0-.01,0-.01Z"/>
  <path class="uuid-8b7cb949-c88b-4157-8fab-8f9d1bd4c6f9" d="m146.38,249.28l.18.04.18-.04c.05.11.1.21.15.32.05-.09.11-.19.16-.28.02-.76.04-1.52.07-2.28-.21-.03-.42-.05-.62-.08-.04.25-.08.49-.12.74,0,.53,0,1.06,0,1.58Z"/>
  <path class="uuid-8b7cb949-c88b-4157-8fab-8f9d1bd4c6f9" d="m164.82,280.64c-.83-.17-.92.62-1.18,1.08-.69,1.21-.47,2.63-.77,3.92-.87,3.66-1.05,7.41-1.43,11.13-.39,3.89-.59,7.8-.9,11.7-.46,5.71-.47,11.43-.09,17.15-.01.16-.02.31-.04.47,0,.9,0,1.8,0,2.7-.15.32-.13.63.11.9-.03,1.67-.18,3.34.21,4.99.07.32.09.67.52.71.48.05.77-.23.82-.66.11-.91.15-1.84.22-2.76,0-1.06,0-2.11,0-3.17-.32-7.12.1-14.23.37-21.33.12-2.99.6-5.98.99-8.96.7-5.44,1.72-10.84,1.99-16.33.03-.61.05-1.38-.81-1.55Z"/>
  <path class="uuid-8b7cb949-c88b-4157-8fab-8f9d1bd4c6f9" d="m299.01,340.72c-1.68-2.28-1.94-2.3-4.24-.38-.25,2.77-.74,5.56.49,8.25.11.23.16.5.2.76.22,1.23.02,2.33-1.41,2.55-1.33.2-1.8-.62-2.19-1.88-.79-2.53-1.6-5.09-3.13-7.32-1.35-.7-1.96-.3-1.82,1.22-.02.24-.04.48-.06.72.36.03.58.19.75.41-.17-.22-.39-.38-.75-.4-.45.44-.42,1.02-.48,1.58-.34.37-.39.81-.3,1.29.7,3.75,2.1,7.43,1.18,11.35-.04.17,0,.46.13.56.43.33-.03,1.44,1.14,1.17.8-.19,1.47-.29,1.72-1.23.29-1.11-.11-2.09-.52-3.05-1.37-3.22-2.25-6.56-2.6-10.05.29-.15.57-.31.86-.46,1.2,3.46,2.05,7.04,3.61,10.38.8,1.72,1.11,1.86,2.68.69.16-.18.33-.36.49-.54,0,0,.13-.13.13-.13.68-1.4,2.28-1.04,3.32-1.75.01-.83.04-1.67.04-2.5-.01-1.66-1.35-3.49.64-4.88-.08-.15-.16-.31-.23-.46-.58-1.13-1.16-2.25-1.73-3.38,1.2.33,2.1.94,3.02,1.52.38.24.83.57,1.24.16.36-.35.25-.84.09-1.29-.43-1.22-1.46-1.96-2.27-2.89Z"/>
  <path class="uuid-8b7cb949-c88b-4157-8fab-8f9d1bd4c6f9" d="m226.47,361.36c-2.42-5.29-5.41-10.29-7.81-15.59-1.17-2.59-2.14-5.37-4.17-7.51-.25-1.02-.26-2.89-1.12-2.75-1.54.26.7,1.57-.07,2.42-.01.02.21.25.33.39.08.4.15.8.23,1.19.04.14.09.29.13.43-.06,2.55,1.5,4.52,2.41,6.72,3.09,7.52,6.59,14.82,11.52,21.36.35.47.64,1.24,1.29.91.82-.42.22-1.15-.02-1.69-.87-1.97-1.81-3.92-2.71-5.88Z"/>
  <path class="uuid-8b7cb949-c88b-4157-8fab-8f9d1bd4c6f9" d="m273.88,332.66c.91.03.71,1.1,1,1.71.11.23.06.53.16.77.22.55.3,1.48,1.03,1.31.7-.16,1.53-.77,1.39-1.7-.33-2.27-.17-4.6-.96-6.8-.22-.62-.37-1.33-1.16-1.44-.89-.13-.75.75-1.02,1.21-.38.62-.71,1.45-1.47,1.46-1.07.02-.51-1.14-.9-1.68-.33-.46-.36-1.29-1.02-1.33-.8-.05-.91.78-1.18,1.36-.27.61-.06,1.72-.95,1.69-.76-.03-.7-1.14-1.08-1.73-.17-.26-.21-.62-.28-.93-.1-.42-.02-1.05-.71-.93-.6.1-.44.69-.52,1.13-.31,1.78.5,3.48.4,5.24h0c-.3,0-.6.01-.9.02-.08-.4-.15-.8-.23-1.2.03-.04.1-.1.09-.13-.03-.1-.09-.19-.14-.28-.27-1.51-.42-3.06-.85-4.53-.32-1.12-.9-2.36-2.4-1,0,.26,0,.53,0,.79.41,1.98.83,3.96,1.24,5.94l.51,1.14c.26.13.53.26.79.39,0,.24.13.31.35.26.21-.02.42-.03.63-.05.35.17.64.1.9-.18.26,0,.57.09.78,0,1.53-.73,2.76-1.11,3.48,1.13.3.95,1.45,1.22,2-.12.25-.6.22-1.52,1-1.49Z"/>
  <path class="uuid-8b7cb949-c88b-4157-8fab-8f9d1bd4c6f9" d="m144.84,204.21c-.65.08-1.07.45-1.33,1.03-.34.09-.67.17-1.01.26-2.27,1.18-4.55,2.35-4.92,5.3-1.27.58-2.54,1.17-3.8,1.75-1.33.76-2.89,1.25-3.33,2.99-.66.63-1.35,1.25-1.98,1.91-.27.28-.89.54-.36,1.1.35.37.72.16,1.07-.04.9-.53,1.78-1.09,2.69-1.59,4.59-2.5,8.46-5.98,12.53-9.18,3.93-3.09,7.97-6.11,10.93-10.27-.55,0-1.11,0-1.66,0-2.63,2.66-6.32,3.93-8.83,6.74Z"/>
  <polygon class="uuid-8b7cb949-c88b-4157-8fab-8f9d1bd4c6f9" points="320.73 62.54 320.74 62.55 320.74 62.55 320.73 62.54"/>
  <path class="uuid-8b7cb949-c88b-4157-8fab-8f9d1bd4c6f9" d="m315.21,56.59s0,0,.01.01h0s-.01-.01-.01-.01Z"/>
  <path class="uuid-8b7cb949-c88b-4157-8fab-8f9d1bd4c6f9" d="m216.75,361.23c-2.77-9.15-6.27-18.01-10.5-26.59-.3.15-.14.51-.17.8-.36,3.79,1.67,6.99,2.66,10.44.81,2.81,2.45,5.29,3.49,8.04.98,2.58,1.91,5.2,3.01,7.74.26.61.71,1.31,1.44,1.06.91-.3.21-1.01.07-1.48Z"/>
  <path class="uuid-8b7cb949-c88b-4157-8fab-8f9d1bd4c6f9" d="m158.21,83.81s.01-.01.02-.02c0,0,0,0,0,0,0,0-.02.02-.02.02Z"/>
  <path class="uuid-8b7cb949-c88b-4157-8fab-8f9d1bd4c6f9" d="m183.97,314.5c-.53,1.87.6,3.47.72,5.19.27,3.98,2.45,7.45,2.62,11.52.06,1.56.72,3.44,1.07,5.2.4,2.05,1.25,4,1.84,6.01.24.83.8,1.13,2.04,1.39-3.13-10.29-5.15-20.59-6.92-30.99-.78.27-1.12.85-1.36,1.67Z"/>
  <path class="uuid-8b7cb949-c88b-4157-8fab-8f9d1bd4c6f9" d="m228.92,291.18c.6-.52,1.88-.62,1.64-1.91-.24-.08-.48-.16-.73-.24-4.87,3.33-7.42,7.97-7.49,13.84-.06,5,.68,9.94,1.48,14.87-.78.72-.29,1.57-.21,2.36.03.34.3.64.64.62.4-.02.46-.41.44-.74-.04-.78-.11-1.56-.17-2.33,0-.48.02-.97.03-1.45.03-.67.06-1.35.09-2.02-.04-.9-.08-1.8-.12-2.69-.08-.04-.16-.05-.25-.06.73-3.32-.06-6.7.41-10.04.53-3.79,1.1-7.48,4.23-10.21Z"/>
  <path class="uuid-8b7cb949-c88b-4157-8fab-8f9d1bd4c6f9" d="m255.21,211.7c.19-.02.34-.07.46-.14,3.61-.82,7.3-1.75,10.35-3.88,2.76-1.41,2.93-3.66.51-6.74-1.25-1.59-2.79-2.78-4.58-3.64-.21-.13-.43-.25-.64-.37-.35-.26-.63-.38-.85-.4-1.71-.75-3.56-1.17-5.44-1.36-1.92-.67-4.08-.5-6.2-.49-.13,0-.26.01-.39.05-3.7.52-7.31,1.23-9.9,4.3-.49.45-.99.9-1.48,1.35-1.04,0-2.25-.54-2.83.89-2.52-.33-4.06,1.28-5.63,2.84-.32.32-.38.75-.16,1.07.31.46.67.03,1.01-.09,1.02-.36,1.69-1.54,2.95-1.34,1.66.26,3.05-.48,4.51-1.07,2.85-1.17,5.76-2.2,8.61-3.34,1.31-.53,1.87-.24,1.69,1.22-.06.45-.04.92-.02,1.38.18,4.3,4.39,6.56,8.08,4.36,1.16-.69,2.06-1.58,2.53-2.9.18-.52.28-1.3,1-1.31.63,0,.67.71.84,1.18.17.47.38.78.95.81,1.27.08,1.6.95,1.62,2.05-2.2,1.1-4.13,2.76-6.64,3.21-3.93,1.03-7.81-.68-11.73-.21-.16.02-.37-.13-.52-.26-2.18-1.86-4.85-2.38-7.56-2.75-.47-.07-1.22-.7-1.5.22-.25.83.56,1.03,1.08,1.4,2.13,1.51,4.81,1.54,7.08,2.58,4.16,1.91,8.45,1.8,12.81,1.38Z"/>
  <path class="uuid-8b7cb949-c88b-4157-8fab-8f9d1bd4c6f9" d="m159.34,180.38c.32-.56.55-1.19,1.14-1.54.07-.59.41-.99.88-1.3.08-.59.35-1.08.76-1.5.38-1.38,1.28-2.48,1.97-3.69-.19-.22.19-1.22-.58-.57-.57.48-.94,1.26-1.24,1.97-1.64,3.92-4.42,6.99-7.3,9.99-.56.61-1.12,1.21-1.69,1.82-1.53,2.52-3.42,4.66-6.07,6.05-.63,1.4-1.75,2.34-2.98,3.18-.09.15-.17.3-.26.45-1.82,1.56-4.07,2.4-6.03,3.76-1.86,1.3-3.7,2.65-5.97,3.43-2.26.78-4.23,2.39-6.31,3.67-.47.29-.75.75-.76,1.33.01-.02.03-.04.05-.04.37-.07.72-.01,1.1-.26,3.16-2.02,6.59-3.5,10-5.04.86,0,1.11.41.62,1.09-.49.69-1.07,1.32-1.67,1.92-1.29,1.27-2.62,2.5-4.07,3.89,1.15.35,1.64-.17,2.07-.61,1.99-2.08,3.95-4.19,5.91-6.3.5-.54.97-1.1.64-1.92.11-.76.7-1.04,1.29-1.35,1.12-.58,2.13-1.29,2.84-2.37,4.51-3.04,8.48-6.7,12.01-10.83.4-.43.79-.86,1.19-1.28.54-1.18,1.19-2.28,2.06-3.25.13-.23.26-.47.39-.7Z"/>
  <path class="uuid-8b7cb949-c88b-4157-8fab-8f9d1bd4c6f9" d="m161.3,48.08c3.44-2.92,7.35-5.11,11.22-7.37.74-.43,1.18-1.52,2.33-1.1.58-.51,1.32-.52,2.01-.66,2.83-1.73,6.2-2.13,9.08-3.75.82-.11,1.76.23,2.54-.55-.91-.84-1.76-.23-2.59-.13-.26.04-.51.08-.77.12-.3-.17-.56-.12-.77.16-.51.04-1.02.08-1.53.12-2.39.89-4.77,1.79-7.16,2.68-6.02,2.64-11.29,6.37-16.33,10.83.99.34,1.57-.01,1.97-.35Z"/>
  <path class="uuid-8b7cb949-c88b-4157-8fab-8f9d1bd4c6f9" d="m147.52,219.37c-.54-.35-1.31-.07-1.64.32-5.12,5.89-11.36,10.79-15.53,17.51,3.28-2.57,6.17-5.5,9.11-8.41,2.96-2.93,5.24-6.42,8.07-9.41Z"/>
  <path class="uuid-8b7cb949-c88b-4157-8fab-8f9d1bd4c6f9" d="m167.01,156.28c-.1-.88.33-1.62.61-2.4.12-1.41.83-2.64,1.24-3.96.27-.68.54-1.36.81-2.04,0-.11.04-.21.1-.31.4-1.45.81-2.9,1.21-4.35,1.31-4.07,2.62-8.15,3.93-12.22.52-1.3,1.28-2.53,1.49-4.35-1.18,1.02-1.48,2.11-1.94,3.11-.03.14-.06.28-.09.43-.08.26-.15.51-.23.77-1.02,2.9-2.21,5.76-3.02,8.72-1.55,5.71-3.73,11.2-5.38,16.88-1.09,3.75-2.72,7.32-3.52,11.16.11-.11.21-.23.32-.34,1.46-3.59,2.91-7.17,4.37-10.76,0-.12.04-.22.09-.32Z"/>
  <path class="uuid-8b7cb949-c88b-4157-8fab-8f9d1bd4c6f9" d="m162.21,167.76s0-.03.01-.05c-.01.01-.02.02-.03.03l.02.02Z"/>
  <path class="uuid-8b7cb949-c88b-4157-8fab-8f9d1bd4c6f9" d="m146.58,211.97c-6.12,4.41-10.66,10.25-16.36,14.79,4.58-1.47,16.14-11.99,16.36-14.79Z"/>
  <path class="uuid-8b7cb949-c88b-4157-8fab-8f9d1bd4c6f9" d="m172.14,332.33c-.71-4.3-.34-8.67-.45-13.01.06-.62.11-1.25.17-1.87.26-.43.25-.87.07-1.32-.04-.25-.09-.5-.13-.74-.03-.14-.07-.28-.1-.42-.11-2.95.22-5.89.34-8.83.12-2.73,1.2-5.38.63-8.15.1-.79.68-2-.21-2.22-1.15-.28-.53,1.29-1.1,1.84-.12.12.01.49.03.75-.04.12-.07.25-.1.38-.44.18-.32.45-.13.74-.32,3.44-.65,6.88-.97,10.32-.69,1.83.19,3.77-.39,5.61-.45,1.18-.24,2.35.05,3.53.14,1.31-.67,2.7.32,3.94,0,.14.02.28.03.42,0,.26,0,.51,0,.77,0,.27,0,.54,0,.81-.03.26-.07.53-.1.79l.13-.02c-.02,1.02-.05,2.04-.07,3.06.12.04.23.09.34.15h0c.01.12,0,.24-.02.36,0,.27,0,.53.01.8-.23,2.33.55,4.59.48,6.93-.05,1.44.48,2.92.85,4.35.14.54.63,1.08,1.3.9.85-.23.35-.88.17-1.29-1.21-2.75-.68-5.72-1.15-8.57Z"/>
  <path class="uuid-8b7cb949-c88b-4157-8fab-8f9d1bd4c6f9" d="m245.89,368.57c-.87-.6-1.24-1.5-1.69-2.38-2.09-4.09-4.62-7.91-7.21-11.69-.47-.72-.56-1.5-.38-2.33,0-.4,0-.79.01-1.19-.05-.62-.22-1.26.22-1.82-.23-.47-.07-.91.1-1.34,0-2.22.25-4.45-.16-7.11-1.19,2.56-1.86,4.87-2.1,7.13-.23,2.18-.78,4.6.72,6.68-.08.76.22,1.4.63,2.02,2.16,3.27,4.29,6.55,6.46,9.81,1.22,1.83,2.48,3.64,3.8,5.56.82-1.33.88-2.45-.4-3.34Z"/>
  <path class="uuid-8b7cb949-c88b-4157-8fab-8f9d1bd4c6f9" d="m307.79,135.29c.26,0,.53.04.79,0,6.23-.88,11.37-4.79,17.39-6.27.33-.08.73-.47.55-.91-.17-.43-.68-.33-1.04-.3-3.44.22-6.37,2.06-9.49,3.22-1.22.46-2.45,1.32-3.83,1.64-1.91.43-3.64,1.5-5.66,1.53-.33,0-.61.33-.61.67,0,.47.42.4.72.42.39.02.79,0,1.18,0Z"/>
  <path class="uuid-8b7cb949-c88b-4157-8fab-8f9d1bd4c6f9" d="m203.46,360.84c-.1-.24-.16-.5-.26-.74-3.14-7.53-5.31-15.41-8.11-23.06-.56-1.52-1.2-3.01-1.91-4.8-.98,1.55.27,2.25.55,3.16,1.56,5.09,3.2,10.16,4.95,15.19,1.23,3.53,2.64,6.99,4.09,10.44.22.53.65,1.78,1.21,1.45,1.02-.61-.29-1.08-.52-1.64Z"/>
  <path class="uuid-8b7cb949-c88b-4157-8fab-8f9d1bd4c6f9" d="m124.87,207.51s.03.03.05.05c0-.05,0-.09,0-.14-.02.03-.04.06-.06.09Z"/>
  <path class="uuid-8b7cb949-c88b-4157-8fab-8f9d1bd4c6f9" d="m245.22,219.56c2.18.22,4.09-.77,6.09-1.25,6.59-1.61,12.87-3.94,18.04-8.58-.83-.03-1.44.46-2.09.87-1.38.86-2.72,1.85-4.19,2.5-4.46,1.95-8.93,3.87-13.8,4.69-1.92.33-3.77,1-5.83.39.27,1.12.92,1.29,1.78,1.38Z"/>
  <path class="uuid-8b7cb949-c88b-4157-8fab-8f9d1bd4c6f9" d="m200.97,361.09c-.73-1-1.76-1.84-2.28-2.93-1.98-4.14-4.27-8.15-5.75-12.53-.18-.53-.35-1.16-1.09-1.28-.83.27-.98.79-.5,1.5.7,1.03,1.8,1.96,1.86,3.2.14,2.69,1.56,4.83,2.65,7.11,1.03,2.14,2.6,3.91,4.2,5.64.35.38.83.82,1.35.32.6-.57-.23-.74-.44-1.03Z"/>
  <path class="uuid-8b7cb949-c88b-4157-8fab-8f9d1bd4c6f9" d="m284.99,252.21c-.49-.42-1.04-.8-1.47-1.28-1.69-1.86-3.64-3.39-5.84-4.58-1.04-.56-2.39-.43-2.87.4-.52.9.86,1.19,1.5,1.65,2.15,1.54,4.58,2.66,6.59,4.4,1.59.11,2.36,1.79,3.9,2.01.02-1.26-1.26-1.68-1.68-2.66,0,0-.12.05-.12.05Z"/>
  <path class="uuid-8b7cb949-c88b-4157-8fab-8f9d1bd4c6f9" d="m305.4,339.81c-2.88-1.06-4.41-3.72-6.63-5.55-.55-.45-1.09-.95-1.7-.46-.62.49-.66,1.45-.23,1.98,1.84,2.29,4.02,4.23,6.58,5.71.21.12.45.2.65.29.57-.51,1.58.09,1.9-.84.18-.53-.14-.97-.56-1.13Z"/>
  <path class="uuid-8b7cb949-c88b-4157-8fab-8f9d1bd4c6f9" d="m223.15,292.31c.24-2.89,2.52-5.02,5.5-5.06.35-.62,1.24-1.22.91-1.88-.47-.95-1.35.01-2.06-.04-.13-.01-.26-.01-.38-.02-.58,1.18-1.83,1.43-2.85,1.94-.61.3-1.15.59-1.56,1.12-1.65,2.15-1.78,4.64-1.58,7.2.03.41.07.8.59.87.65.09.76-.42.85-.85.23-1.09.49-2.18.58-3.28Z"/>
  <path class="uuid-8b7cb949-c88b-4157-8fab-8f9d1bd4c6f9" d="m161.08,33.21c-4.12-.08-8.03,1.03-11.95,2.09-.39.16-.78.31-1.18.47-.26-.17-.32.01-.38.21-5.71,2.61-11.73,4.62-16.48,9.02-1.89,1.75-4.8,2.38-5.74,5.19-3.1,3.23-5.5,7.05-7.22,11.05-2.17,5.05-4.96,9.75-7.34,14.67-1.81,3.74-3.43,7.56-4.95,11.43-.98.74-.93,1.95-1.36,2.95-2.56,6.02-5.56,11.85-7.79,18.02-1.13,3.13-2.35,6.22-3.63,9.31,1.04-1.65,1.94-3.36,2.66-5.15,1.9-4.71,3.5-9.54,5.93-14.05,1.88-3.5,3.81-7.03,4.85-10.93.61-.46.83-1.16,1.14-1.8,4.41-8.96,8.82-17.92,13.22-26.88,1.56-3.18,3.85-5.86,6.04-8.6,6.79-5.67,14.39-9.95,22.62-13.13,4.71-1.19,9.31-2.87,14.64-2.79-1.16-.98-2.11-1.06-3.1-1.08Z"/>
  <path class="uuid-8b7cb949-c88b-4157-8fab-8f9d1bd4c6f9" d="m261.85,366.82c.18-1.99-1.05-3.65-1.27-5.54.64-3.06.56-6.09-.31-9.55-.81,3.07-.01,5.74-.39,8.36-.67-.29-1.27-.61-1.62-1.34-.32-.68-.92-.64-1.07.07-.22,1.02-.59,2.39.06,3.07,1.5,1.57,1.47,3.97,3.16,5.36.36.3.21,1.2,1,.95.67-.22.39-.88.43-1.38Z"/>
  <path class="uuid-8b7cb949-c88b-4157-8fab-8f9d1bd4c6f9" d="m147.75,60.11c-1.06,1.4-2.3,2.7-2.65,4.6,4.07-5.7,9.89-9.76,14-15.44-.85.78-2.18.65-2.85,1.6-2.44,3.45-5.96,5.9-8.5,9.25Z"/>
  <path class="uuid-8b7cb949-c88b-4157-8fab-8f9d1bd4c6f9" d="m279.08,277.99c.28-.66.67-1.75-.89-1.14-.14.18-.28.36-.42.54-.21.96-.42,1.92-1.18,2.64-.16.31-.33.61-.49.92-1.52,3.4-3.91,6.34-5.14,9.89-.3.11-.62.19-.91.34-.57.29-1.35.53-1.28,1.29.07.83.98.61,1.52.88,2.22,1.15,2.42.15,1.95-1.71-.06-.25-.04-.51-.06-.77,2.1-2.61,3.14-5.82,4.82-8.67.79-1.34,1.47-2.76,2.08-4.19Z"/>
  <path class="uuid-8b7cb949-c88b-4157-8fab-8f9d1bd4c6f9" d="m248.41,363.25c.11-1.92-1.2-3.4-1.61-5.16-.05-.52-.1-1.04-.15-1.56-.06-.15-.11-.31-.17-.46-.13-.38-.27-.76-.4-1.13-.05-2.64-.41-5.23-1.17-7.77-.17-.56-.29-1.3-1.06-1.2-.86.11-.5.92-.6,1.45.42,1.02.6,2.07.36,3.17.19.61.37,1.21.56,1.82.45.53.29,1.14.25,1.74.13.15.26.3.39.45,0,0,0,0,0,0-.21,1.3.85,2.26.95,3.47.24,1.24-.66,1.05-1.38,1.1-.66-.57-1.37-.9-2.19-.55,1.46,3.35,4.6,5.04,7.09,7.37.27.07.53.15.77.25-.25-.1-.51-.18-.77-.25.24.56-.37.79-.47,1.22-.07.1-.11.2-.1.32-.03.06-.1.12-.09.16.03.12.1.22.15.33.22,1.52,1.45,2.5,2.07,3.81.57.37.9,1.06,1.64,1.21.08-.09.16-.18.25-.26-.7-1.45-1.69-2.76-2.12-4.35.16-.75.54-1.1,1.31-.74.62.83,1.32,1.51,2.67,1.31-1.85-2.33-3.78-4.29-6.18-5.76Zm-3.57-8.69c.12-.22.19-.35.29-.39-.09.04-.17.17-.29.39Z"/>
  <path class="uuid-8b7cb949-c88b-4157-8fab-8f9d1bd4c6f9" d="m287.28,330.69c.81-2.82,1.13-5.63-.16-8.93-1.76,3.42-2.09,6.75-2.02,10.16.01.55.5.49.9.36.78-.24,1.06-.84,1.27-1.59Z"/>
  <path class="uuid-8b7cb949-c88b-4157-8fab-8f9d1bd4c6f9" d="m280.36,333.89c.03.53-.16,1.43.79,1.17.62-.17,1.45-.34,1.11-1.6-.75-2.79-.62-5.7-.39-8.56.05-.64-.08-.73-.5-.97-.62-.35-.58.24-.79.48-1.28,1.48.19,3.24-.52,4.77-.34,1.6.22,3.14.3,4.71Z"/>
  <path class="uuid-8b7cb949-c88b-4157-8fab-8f9d1bd4c6f9" d="m302.99,62.09s0,.02-.01.04c0,0,.02-.01.03-.02l-.02-.02Z"/>
  <path class="uuid-8b7cb949-c88b-4157-8fab-8f9d1bd4c6f9" d="m225.87,327.51c.56.22.93-.54,1.21-1.04.13-.22.27-.45.33-.7.73-2.7,1.44-5.41,2.15-8.12.09-.37.19-.73.28-1.1-.37-.75.77-1.98-.76-2.35-.06.16-.12.31-.18.47-.26,1.28-.41,2.6-.8,3.84-.77,2.45-1.7,4.85-2.51,7.28-.2.59-.41,1.45.27,1.72Z"/>
  <path class="uuid-8b7cb949-c88b-4157-8fab-8f9d1bd4c6f9" d="m269.62,280.63c-.29.52-.57,1.04-.86,1.56-1.05,2.33-2.09,4.67-3.14,7-.19.42-.53.86-.05,1.23.38.29.73-.06,1.03-.31.8-.68,1.59-1.35,2.38-2.03q2.39-1.81.43-3.67c-.09-.09-.15-.21-.22-.32.66-1.44,1.32-2.88,1.98-4.32,0,0,.04-.09.04-.09-1.05-.53-1.16.51-1.61.97Z"/>
  <path class="uuid-8b7cb949-c88b-4157-8fab-8f9d1bd4c6f9" d="m151.94,316.99c.24-2.24.02-4.48-.22-6.71.03-.06.09-.13.07-.17-.04-.11-.11-.22-.17-.33,0,0-.07.03-.07.03.04-.88.07-1.77.11-2.65.2-.2.2-.4,0-.59,0-1.55.01-3.1.02-4.65.2-1.57,1.35-3.35-.97-4.35-.06-.58-.15-1.16-.19-1.74-.22-3.93-1.74-7.72-1.35-11.72-.07-.24-.15-.48-.22-.72-.62-.72-.67-1.64-.8-2.53-.1,3.18-.09,6.3.35,9.48.75,5.43.86,10.96.7,16.46-.04,1.45.8,2.78.33,4.22.01.4.02.79.04,1.19.08.43.32.74.7.94h0c.17.45-.25.69-.38,1.04.03.25.06.49.1.74.8,1.74.77,3.59.72,5.44-.02.72.06,1.44.9,1.43.93-.02.72-.89.73-1.49.03-1.11-.51-2.15-.39-3.3Z"/>
  <path class="uuid-8b7cb949-c88b-4157-8fab-8f9d1bd4c6f9" d="m277.19,359.34c-.32-2.25-.75-4.48-.55-6.77-.5-.75-1.07-.39-1.48.02-.51.51-.4,1.26-.15,1.84.56,1.29.61,2.65.77,4.01.24,2.06.76,4.06,1.7,5.93.24.46.55,1.06,1.17.67.56-.35.03-.81-.16-1.18-.75-1.41-.8-3.03-1.29-4.51Z"/>
  <path class="uuid-8b7cb949-c88b-4157-8fab-8f9d1bd4c6f9" d="m263.39,284.1c.14-.4.27-.79.41-1.19-.16-.52-.46-.7-.96-.39-.69.94-1.02,2.15-2.12,2.79-.2.78-.4,1.57-.6,2.35-.43,1.28-.9,2.54-1.29,3.83-.19.61-.32,1.33.41,1.72.77.41,1.18-.14,1.55-.71.89-.24,1.63-.64,1.72-1.77-.79-.13-1.46.5-2.12,0,.26-1.92,1.11-3.59,2.22-5.15.07-.6.39-1.06.79-1.48Z"/>
  <path class="uuid-8b7cb949-c88b-4157-8fab-8f9d1bd4c6f9" d="m232.65,326.45c.03-.26.07-.53.1-.79-.37-.47.31-1.54-.74-1.53-.8.01-.63.87-.7,1.41-.26,2.23-1.4,4.14-2.24,6.15-.62,1.48-1.1,2.89-.49,4.87,1.45-3.62,2.75-6.86,4.05-10.11Z"/>
  <path class="uuid-8b7cb949-c88b-4157-8fab-8f9d1bd4c6f9" d="m260.96,152.8c-3.93-2.73-14.63-2.54-17.88.23,5.92-2.22,11.88-2.19,17.88-.23Z"/>
  <path class="uuid-8b7cb949-c88b-4157-8fab-8f9d1bd4c6f9" d="m233.69,340.61c1.18-2.75,2.43-5.49,2.43-8.59-.69-.1-.97.37-1.06.89-.61,3.46-2.42,6.48-3.5,9.77-.26.78-.34,1.58.39,2.8.23-2.1,1.11-3.43,1.73-4.87Z"/>
  <path class="uuid-8b7cb949-c88b-4157-8fab-8f9d1bd4c6f9" d="m236.12,332.01s0,0,0,.01c0,0,0,0,.01,0h-.01Z"/>
  <path class="uuid-8b7cb949-c88b-4157-8fab-8f9d1bd4c6f9" d="m228.82,308.44c.42-.09.58-.44.64-.87.49-3.64.99-7.28,1.51-11.06-.3.16-.45.19-.52.28-2.45,3.38-1.8,7.35-2.09,11.14-.01.16.34.53.47.5Z"/>
  <path class="uuid-8b7cb949-c88b-4157-8fab-8f9d1bd4c6f9" d="m255.8,348.53c-.68.8-1.16,1.72-1.13,2.81.06,2.79-.63,5.6.16,8.37.19,2.36-.2,4.82,1.14,6.96.66-2.26.27-4.42-.17-6.59,0-3.85,0-7.7,0-11.56Z"/>
  <path class="uuid-8b7cb949-c88b-4157-8fab-8f9d1bd4c6f9" d="m111.01,189.56s-.18.02-.18.02c-3.78,2.77-5.83,6.51-6.27,11.18,1.48-4.09,3.54-7.76,6.99-10.51-.12-.23-.24-.46-.36-.69h-.18Z"/>
  <path class="uuid-8b7cb949-c88b-4157-8fab-8f9d1bd4c6f9" d="m253.66,365.6c.6-.21.5-.75.28-1.15-1.25-2.28-1.35-4.93-2.36-7.28-.34-.79-.5-1.75-1.83-2.26,1.04,3.53,1.99,6.77,2.93,10.01.15.5.43.87.98.68Z"/>
  <path class="uuid-8b7cb949-c88b-4157-8fab-8f9d1bd4c6f9" d="m302.96,317.55c-.27-.48-.66-.98-1.47-1.03-.09,1.16.77,1.94,1.14,2.87.75,1.87,1.66,3.68,2.58,5.47.19.37.55,1.01,1.23.58.49-.31.43-.72.18-1.18-1.23-2.23-2.41-4.48-3.67-6.7Z"/>
  <path class="uuid-8b7cb949-c88b-4157-8fab-8f9d1bd4c6f9" d="m273.45,362.26c-1.28,2.1-1.25,2.61.38,6.49.46.88.71,2.27,2.05,1.81.95-.33.76-1.36.24-2.17-.44-2.24-1.28-4.31-2.67-6.13Z"/>
  <path class="uuid-8b7cb949-c88b-4157-8fab-8f9d1bd4c6f9" d="m243.78,284.53c-2.24,2.84-4.22,5.33-6.54,8.26,2.58-.52,6.64-5.7,6.54-8.26Z"/>
  <path class="uuid-8b7cb949-c88b-4157-8fab-8f9d1bd4c6f9" d="m209.13,213c4-.26,7.86-1.27,11.71-2.31-.04-.23-.09-.47-.13-.7-3.89.81-7.79,1.61-11.68,2.42.04.2.07.4.11.6Z"/>
  <path class="uuid-8b7cb949-c88b-4157-8fab-8f9d1bd4c6f9" d="m298.77,331.3c-.07.79,1.92,2.66,2.7,2.61.82-.06,1.22-.63,1.02-1.36-.29-1.03-.13-2.48-1.66-2.58-.99.18-1.96.21-2.06,1.34Z"/>
  <path class="uuid-8b7cb949-c88b-4157-8fab-8f9d1bd4c6f9" d="m207.6,358.9c-.31-2.71-1.76-5.02-2.63-7.53-1.82-5.23-4.01-10.32-5.72-15.59-1.1-3.4-2.53-6.7-3.81-10.05-.14-.36-.25-.79-.77-.58-.33.14-.43.44-.32.82.47,1.52.82,3.1,1.42,4.57,2.05,4.96,3.37,10.17,5.17,15.21,1.58,4.44,3.33,8.8,5.18,13.13,1.47,2.44,2.87,4.93,4.9,7.01-.51-1.83-1.29-3.5-2.09-5.16-.33-.69-.47-1.54-1.34-1.83Z"/>
  <path class="uuid-8b7cb949-c88b-4157-8fab-8f9d1bd4c6f9" d="m248.59,286.2c-.72-.22-1.17.08-1.32.77-.4,1.85-1.5,3.33-2.43,4.91-.37.62-.98,1.26-.33,2.46,1.42-1.88,2.21-3.97,3.66-5.58.29-.83.55-1.66.42-2.56Z"/>
  <path class="uuid-8b7cb949-c88b-4157-8fab-8f9d1bd4c6f9" d="m250.95,293.09c.96-.07,1.87-.65,1.76-1.47-.22-1.6.88-2.63,1.25-3.95-.08-.08-.1-.17-.06-.27-2.15.2-3.29,2.38-2.95,5.69Z"/>
  <path class="uuid-8b7cb949-c88b-4157-8fab-8f9d1bd4c6f9" d="m188.73,345.44c-.12-.98-.18-1.97-.79-2.81-2.45-6.3-3.87-12.95-6.35-19.61-.59,1.19-.54,1.97-.3,2.73.4,1.25.69,2.53.99,3.81,1.2,5.13,2.81,10.15,4.87,15.01,0,0,0,0,0,0,.2.27.39.53.59.8.54,1.75,1.04,3.52,1.64,5.25.35,1.03.86,2,1.28,3,.15.35.36.54.74.44.3-.09.41-.34.25-.6-1.53-2.47-1.57-5.48-2.93-8Z"/>
  <path class="uuid-8b7cb949-c88b-4157-8fab-8f9d1bd4c6f9" d="m236.64,285.4c-1.61,1.54-2.59,3.55-4.06,5.19-.25.28-.67.46-.66.9,0,.12.25.32.39.33.51.04.83-.25,1.07-.69,1.25-2.33,3.13-4.13,5.07-5.87.02-.22.03-.44.05-.66-.83-.21-1.31.28-1.85.8Z"/>
  <path class="uuid-8b7cb949-c88b-4157-8fab-8f9d1bd4c6f9" d="m308.77,56.42c-1.96.83-4.38-.99-6.11,1.17-.34.43-.83-.19-1.27-.2-3.55.93-7.1,1.87-10.64,2.8-4.23-1.91-8.49-3.75-13.09-4.62-2.69-.73-5.39-1.44-8.08-2.19-4.79-1.34-9.61-2.58-14.34-4.11-3.28-1.06-6.62-1.76-9.96-2.5-1.78-1-3.83-1.1-5.74-1.66-3.09-.9-6.09-2.23-9.37-2.35-.27-.46-.71-.38-1.13-.36-.3-.4-.74-.41-1.18-.42-.11.1-.23.17-.35.22.12-.05.24-.13.35-.22-1.86-.75-3.6-1.81-5.58-2.25-1.54-1.28-3.3-1.11-5.59-.85,1.95,1.31,3.52,2.34,5.57,2.3.71.73,1.59,1.14,2.56,1.39.27.17.52.38.81.52,5.86,2.78,12.4,3.15,18.48,5.16.03.2.08.36.33.28.16-.04.32-.07.48-.11,1.08.39,2.18.74,3.23,1.18,8.26,3.48,17.03,5.25,25.62,7.63,2.28.63,4.63,1.36,7.07,1.46-.04-.35-.15-.62-.31-.85.16.23.27.51.31.86.28.07.56.14.85.21.25.08.5.17.75.25,2.17,1.13,4.47,1.87,6.91,2.15-2,2.25-4.78,3.84-5.77,6.95-.14.43-.56.9-.14,1.21.53.38.74-.26.97-.61,1.16-1.8,2.74-3.24,4.18-4.79.81-.87,1.76-1.32,2.96-1.18.77.29,1.7-.33,2.4.4.39.01.78.03,1.18.04.5-.14.78.32,1.18.44.4,0,.79.01,1.19.02.26.1.53.2.79.31,2.83.66.7,1.58.13,2.42h0c-.26.27-.53.53-.79.8-.32.25-.65.49-.97.74-.2.42-.4.84-.59,1.26-.3.26-.61.52-.91.78-1.15,1.73-2.5,3.29-3.95,4.78,0,.33-.03.64-.38.8-.67.91-1.33,1.82-2,2.72-1.85,3.5-3.35,7.12-3.97,11.06-.43.1-.36.24-.03.4-.13.52-.26,1.04-.39,1.56h0c-.1.12-.2.23-.3.35-.12,2.04-.24,4.08-.35,6.13,1.46-2.04,1.47-4.25,1.44-6.48.38-.31.36-.76.4-1.19.05-.13.1-.26.15-.39.97-3.29,1.91-6.56,3.58-9.63,2.66-4.89,6.46-8.88,9.79-13.25,1.54-1.39,3.44-2.49,3.87-4.78-1.44,1.17-2.92,1.22-4.55.33-.59-.33-1.41-.22-2.08-.45-.75-.25-1.76-.09-2.1-1.13,2.57-.89,5.21-1.56,7.87-2.11,2.34-.38,4.66-.86,6.64-2.35Z"/>
  <path class="uuid-8b7cb949-c88b-4157-8fab-8f9d1bd4c6f9" d="m133.14,239.5c.09-.32.04-.7-.4-.73-.28-.02-.41.25-.47.52-.61,3.03-1.62,6-1.44,9.17,1.06-2.18.52-4.74,1.64-6.92.33-.63.47-1.35.66-2.05Z"/>
  <path class="uuid-8b7cb949-c88b-4157-8fab-8f9d1bd4c6f9" d="m273.64,184.3c-.2-.63-.44-1.44-1.37-1.44-.98,0-.88.78-.94,1.4-.05.51-.21.88-.77.95-.47-.44-.98-.86-1.4-1.34-.49-.55-.99-.67-1.46-.08-1.54,1.95-1.84.68-2.13-.78-.09-.44-.39-.82-.51-1.26-.53-2.04-1.25-1.32-2.01-.16-.52,0-1.04-.02-1.56-.03.02.2.02.39,0,.58.01-.19.01-.38,0-.58-.06-.8-.75-1.19-1.17-1.76-.63-.85-1.09-.67-1.5.23-1.11,2.49-1.13,2.48-3.29.99q-3.02-2.08-4.28,1.11c-.09.29-.11.56-.1.83-.02-.27,0-.55.1-.84-1.16-1.35-2.8-2-4.39-2.42-1.25-.33.08,1.8-1.23,1.91-2.16-1.18-5.57-.54-6.64,1.25.05.13.13.24.22.32-.09-.08-.17-.18-.22-.32-.64.14-1.31.22-1.67.88-1.6-.83-3.38-1.04-5.1-1.23-1.05-.11-1.19,1.46-1.91,2.12-1.04.41-2.28-.83-3.22.36-.63.8-1.54,1.08-2.43,1.42-.75-.76-1.55-.7-2.19.05-.59.68-1.46.94-2.09.84-2.22-.37-2.7,1.35-3.59,2.64-.26-.05-.39.08-.44.33-.09.07-.19.12-.3.15-.87.46-.32,1.55-.98,2.15-.39.35-1.13.97-.4,1.41.68.4,1.09-.4,1.32-1.03.14-.36.23-.74.35-1.11,1.49-1.28,2.94-2.44,5.14-2.39,1.37.03,2.87-.39,3.63-1.87,1.99-.63,3.7-2.05,5.9-2.12,2.1-.29,4.19.95,6.29.05.42.23.85.47,1.27.7.75.33,1.21-.02,1.53-.68.39-.35.56-.99,1.25-.94,1.25.64,2.5,1.28,3.9.37.17-.04.34-.07.51-.11.48-.01.96-.03,1.43-.04,1.41.79,2.77,2.04,4.47.57.51.54.88,1.22,1.88.63,1.74-1.03,3.55-.95,5.38-.08.36.17.89-.03,1.34-.06.59-.02,1.15.05,1.61.47.07.46.21.9.6,1.18,2.13,1.52,4.34,2.71,7.1,2.79,1.89.05,2.25-.81,2.08-2.36,0-.13,0-.26-.01-.4-.01-.28-.02-.55-.03-.83.45-.24.87-.59,1.34-.71,1.08-.26.89-1.08.69-1.7Z"/>
  <path class="uuid-8b7cb949-c88b-4157-8fab-8f9d1bd4c6f9" d="m156.66,311.01c-.41-5.66.27-11.36-.47-17.01.02-.65.08-1.31.05-1.96-.23-5.02-.47-10.04-.71-15.06,0-.13,0-.27,0-.4-.18-.77-.36-1.55-.54-2.32.03-4.45,2.27-8.46,2.52-12.89-.56,1.16-.92,2.38-1.59,3.46-.07.25-.14.5-.22.76-.41,1.57-.81,3.15-1.22,4.72-.06.25-.12.5-.18.75-.06.55-.12,1.1-.18,1.65.04.11.05.22.02.33-.02.42-.05.84-.07,1.26-.31,2.84-.58,5.69-.94,8.52-.39,3.06,1.67,5.7,1.37,8.76-.12,1.26.28,2.57.44,3.85.07-.24.13-.47.23-.69-.09.21-.16.45-.23.69-.11,2.31.78,4.56.45,6.89-.11,2.66.61,5.28.33,7.94.07.12.07.25.01.38,0,0,.14,0,.14,0-.06.53-.12,1.05-.18,1.58.08,1.47.72,2.86.59,4.36.47-.12.94-.24,1.41-.36.55-1.91-.71-3.45-1.03-5.18Zm-1.29-16.6c.08-.1.17-.19.28-.25-.12.07-.21.16-.28.25Z"/>
  <path class="uuid-8b7cb949-c88b-4157-8fab-8f9d1bd4c6f9" d="m235.31,360.5c-.21-.56-.43-1.12-.64-1.68-2.76-3.89-4.19-8.66-7.89-11.94-.27-.24-.46-.64-.53-1-.4-2.16-1.71-3.91-2.63-5.83-.58-.43-1.15-.85-1.73-1.28-1.3.67-.74,1.56-.3,2.45,2.92,5.82,6.4,11.32,9.72,16.91.4.67.94,1.22,1.66,1.57.24.26.48.52.72.78.29,1.54,1.27,2.64,2.37,3.65.24.22.43.75.88.39.33-.26.36-.61.1-1.02-.61-.98-1.17-1.99-1.75-2.99Z"/>
  <path class="uuid-8b7cb949-c88b-4157-8fab-8f9d1bd4c6f9" d="m157.68,318.91c.23-.64.31-1.29.13-1.96-.04-.25-.08-.5-.11-.75-.47.12-.94.24-1.41.36-.1,1.66-.24,3.32.63,4.85.08,1.25.17,2.5.29,4.24,1.05-1.85,1.19-3.26.67-4.74-.06-.67-.13-1.33-.19-2Z"/>
  <path class="uuid-8b7cb949-c88b-4157-8fab-8f9d1bd4c6f9" d="m216.99,363.48c-.3.16-.67.51-.4.75,1.01.87.74,2.56,2.56,3.47-.44-1.51-.74-2.63-1.1-3.72-.16-.49-.5-.79-1.06-.49Z"/>
  <path class="uuid-8b7cb949-c88b-4157-8fab-8f9d1bd4c6f9" d="m176.1,66.08c.24,0,.47-.02.71-.03,1.17-1.44,2.72-2.6,3.52-4.91-2.03,1.55-2.97,3.38-4.23,4.93Z"/>
  <path class="uuid-8b7cb949-c88b-4157-8fab-8f9d1bd4c6f9" d="m283.81,361.6c-.45.26-.87.09-1.3-.01,0-.89.02-1.77.03-2.66-.1-.07-.22-.13-.33-.17.12.04.23.1.33.17.25-.05.5-.1.75-.14,1.48.24,1.18-.88,1.2-1.66.08-3.09-.98-6.06-.95-9.15,0-.71-.37-1.47-1.26-2.04-.91,3.99.64,7.65.95,11.4-1.06.88-1.84-.52-2.82-.35-.91-1.21-.54-3.04-1.93-4.02-1.1,1.03.26,2.02.05,3.03.27.25.35.56.27.92.05.28.1.57.16.85,0,0-.16-.06-.16-.06.13.43.27.85.4,1.28-.02.04-.08.09-.07.12.03.09.08.17.13.25.08,1.47.73,2.77,1.12,4.16.25.9.31,2.05,1.39,2.06.95,0,1.63-.87,1.84-1.9.35-.28.72-.53,1.03-.84.42-.43.82-1.01.42-1.54-.49-.65-.86.11-1.24.34Zm-2.36-3c.25.03.51.06.74.15-.23-.08-.48-.12-.74-.15Z"/>
  <path class="uuid-8b7cb949-c88b-4157-8fab-8f9d1bd4c6f9" d="m335.11,174.01c-.57-.44-.38-1.17-.68-1.79-.61.55-1.19,1.05-1.75,1.58-1.36,1.27-2.68,2.54-4.82,1.94-.57-.16-1.33-.22-1.78.45-.95,1.4-2.32,1.22-3.7.98-1.22-.51-2.22.03-3.06.81-.53.48-.92,1.06-1.74.97-1.03-1.21-1.8-.93-2.4.42-.3.67-.75,1.23-1.51,1.44-1.88.25-3.7.61-4.27,2.83.2-.08.4-.16.6-.25-.2.09-.4.17-.6.25-.2.25-.45.49-.6.77-.38.68-1.5,1.26-1.04,2,.46.72,1.54.33,2.36.11.76-.21,1.72-.6,2.28-.12,1.44,1.24,2.32.18,3.34-.52.68-.47,1.21-1.18,2.19-1.46.04.57.08,1.06.12,1.56-.06.76-.12,1.52-.18,2.28-.24.13-.48.25-.72.38h0c-.58,0-1.15.03-1.73-.2-.39-.16-.92-.23-1.16.12-4.86,1.58-6.92,6.72-10.63,9.84-.2.11-.39.22-.59.33.04-1.15.85-2.1.8-3.32-.08-1.95.93-3.49,2.49-4.59.5-.36,1.16-.63.95-1.26-.28-.82-1.14-.4-1.71-.36-.72.05-1.31.56-1.69,1.17-1.7,2.7-3.19,5.5-3.44,8.77-1.6,3.07-1.25,6.35-.58,9.49.74,3.46,2.65,6.53,4.11,9.73,2.6,5.68,6.35,10.78,8.57,16.67.41-.14.82-.27,1.23-.41h0c-.41.14-.82.27-1.23.41,1.19,3.53,2.54,6.99,4.35,10.25.4.54.81,1.08,1.21,1.61.04,0,.08,0,.12-.01.18.32.65.52,1.02.22.3-.23.47-.53.56-.84.05-.09.07-.21.07-.37.04-.47-.08-.98-.27-1.42-.51-1.23-1.09-2.43-1.64-3.63-.89-1.98-1.79-3.95-2.68-5.93-.03-.15-.05-.3-.06-.46-.07-.04-.13-.07-.2-.11-.04-.1-.09-.19-.13-.29,0-.07.02-.13.03-.2-.6-1.5-1.19-2.99-1.79-4.49-.18-.48-.36-.96-.54-1.44-.07-.25-.13-.51-.2-.76-1.4-2.95-2.89-5.87-4.16-8.87-2.16-5.09-5.07-9.95-5.28-15.7.03-.37.07-.74.1-1.1.65-.27,1.3-.55,1.95-.82-.11-.43-.23-.85-.34-1.28h0c.11.43.23.85.34,1.28.31-.09.63-.15.92-.29,3.61-1.68,6.73-4.05,9.69-6.68.97-.87,1.87-1.95,3.97-2.1-2.73,2.98-2.96,5.79-.73,8.63-.25.41-.63.44-1.03.33-2.45-.72-4.94-.2-7.42-.28-.57-.02-1.29.14-1.34.88-.04.66.48,1.07,1.11,1.2,3.92.86,7.83,2.23,11.85.44,2.28-.35,4.19-1.43,5.85-2.98-.1-.39-.2-.78-.3-1.17-1.37-1.19-.41-2.38.02-3.56,0-1.32-.01-2.64-.02-3.96-.59-1.12-.55-2.49-1.35-3.53h0c-.34-1.15-1.56-.98-2.32-1.53-.7-.5-1.81-.5-1.94-1.67,1.22-1.36,3.22-.8,4.59-1.92,2.52-2.05,5.15-3.95,7.74-5.91h0c1.77.25,1.75-1.61,2.71-2.3-.15-.32-.29-.65-.44-.97-.41.41-.66,1.12-1.47.74Z"/>
  <path class="uuid-8b7cb949-c88b-4157-8fab-8f9d1bd4c6f9" d="m264.23,356.9c-.15.57-.78.87-.77,1.54.03,2.39.03,4.77.03,7.16-.03.91-.07,1.82-.07,2.73,0,.3-.01.73.42.75.48.02.68-.41.65-.8-.06-.9-.21-1.8-.32-2.69.37-1.82-.34-3.72.45-5.51.82-1.69-.16-3.64.82-5.34-1.04.41-1.21,1.24-1.21,2.17Z"/>
  <path class="uuid-8b7cb949-c88b-4157-8fab-8f9d1bd4c6f9" d="m182.79,346.61c-1.42-5.11-2.16-10.28-2.49-15.6-.5-8.08-2.2-16.03-3.83-24.09-.37.77-.9,1.48-.78,2.31.72,4.77,1.36,9.58,2.17,14.3.86,5,.29,10.13,1.81,15.01,1,3.21,1.06,6.68,2.65,9.73.05.65.07,1.3.17,1.95.05.32.27.61.67.55.32-.05.45-.4.36-.59-.55-1.13,0-2.48-.73-3.56Z"/>
  <path class="uuid-8b7cb949-c88b-4157-8fab-8f9d1bd4c6f9" d="m251.62,375.54c-.02.14-.09.23-.22.28-.91,1.78-.79,3.75-1,5.65-.27,2.44-.47,4.89-.67,7.34-.2,2.59-.35,5.18-.53,7.77-.04.55.03,1.13.58,1.35.62.24,1.11-.14,1.55-.59.5-.51.62-1.12.64-1.8.08-3.15-.39-6.24.27-9.46.7-3.4-.13-7.04.5-10.54h0c-.08-.91,2.24-1.84-.02-2.74-.08.09-.17.17-.25.26.23,1.01-.37,1.73-.86,2.49Z"/>
  <path class="uuid-8b7cb949-c88b-4157-8fab-8f9d1bd4c6f9" d="m114.13,188.68c-.12-.37-.55-.21-.84-.28-.57.62-1.62.38-2.1,1.17.12.23.24.46.36.69.71-.28,1.41-.56,2.11-.85.31-.13.57-.4.47-.73Z"/>
  <path class="uuid-8b7cb949-c88b-4157-8fab-8f9d1bd4c6f9" d="m270.81,350.82c-.89-.21-.32,1.17-.84,1.62,0,.3,0,.61.01.92,0,0-.18,0-.18,0-.12,2.51-.67,4.98-.51,7.51.05.52.1,1.05.15,1.57.04.14.07.27.11.41.02-.02.04-.05.06-.08-.02.03-.04.06-.06.08-.03.27-.05.54-.08.8l-.19-.02c-.02.25-.04.51-.06.76,0,.8,0,1.61,0,2.41.44,1.15-.42,2.6.96,3.74-.46-2.44,1.06-4.64.08-6.92.02-.19.04-.38.06-.58.07-.2.15-.4.22-.61-.03-2.64.64-5.25.33-7.9,0-.14-.01-.28-.02-.41,0-.26,0-.52-.01-.78.04-.19.14-.38.11-.56-.08-.69.89-1.73-.15-1.97Z"/>
  <path class="uuid-8b7cb949-c88b-4157-8fab-8f9d1bd4c6f9" d="m257.09,288.92c-.24-.02-.49-.04-.73-.05-.66.68-1.75,1.04-1.88,2.3q1.88-.7,2.62-2.24Z"/>
  <path class="uuid-8b7cb949-c88b-4157-8fab-8f9d1bd4c6f9" d="m114.36,193.14h0c2.02-1.34,4.09-2.62,6.06-4.03,1.82-1.3,4.04-2.03,5.46-3.9,1.12-.49,2.14-1.11,3.15-1.8,1.84-1.26,3.45-2.85,5.48-3.83.46-.59.9-1.21,1.58-1.59,1.93-2.04,3.93-4.02,5.78-6.13,5.19-5.96,9.51-12.54,13.1-19.55,2.3-4.47,5.18-8.64,6.89-13.4,1.2-1.91,2.21-3.99,2.99-6.03,1.06-2.75,1.56-5.74,2.95-8.41.28-.53.5-1.01-.43-1.02-.65,1.08-1.3,2.16-1.95,3.24-.56,1.68-1.12,3.37-1.68,5.05-1.01,2.21-2.08,4.39-2.68,6.76-1.24,2.19-1.99,4.64-3.48,6.7-.28.47-.57.93-.85,1.4-1.41,2.46-2.83,4.91-4.24,7.36-.28.79-.7,1.48-1.3,2.07-.41.48-.83.95-1.24,1.43-.44,1.09-.99,2.1-1.93,2.86-.05,1.11-1.16,1.53-1.57,2.4-.68,1.02-1.37,2.03-2.05,3.05-.56.87-.92,1.92-1.94,2.42-1.62,2.36-3.58,4.39-5.64,6.39-3.05,2.96-6.49,5.45-9.49,8.44-.23.19-.47.37-.7.56-.4.26-.79.53-1.19.79h0c-1.78,1.48-3.9,2.4-5.87,3.58-.46.51-.82,1.16-1.63,1.19-1.66.67-2.66,2.04-3.67,3.41-1.03.39-1.52,1.33-2.55,2.25,1.55-.07,2.04-.96,2.66-1.67Z"/>
  <path class="uuid-8b7cb949-c88b-4157-8fab-8f9d1bd4c6f9" d="m299.23,347.74c.49,1.14.34,2.02,1.11,2.54.06.04.48-.23.51-.4.21-1.02-.59-1.37-1.62-2.14Z"/>
  <path class="uuid-8b7cb949-c88b-4157-8fab-8f9d1bd4c6f9" d="m133.77,124.03c2.31-5.29,5.07-10.36,7.77-15.46,1.43-2.69,3.18-5.21,4.78-7.8.47-1.06,1.21-1.94,1.99-2.78,1.97-3.02,3.94-6.03,6.29-8.8,1.55-1.83,3.7-3.07,4.94-5.18,2.21-2.39,4.79-4.37,6.91-6.9,2.94-3.52,6.27-6.69,9.44-10.02h0c.43-.24.78-.55.93-1.04-.24,0-.47.02-.71.03-.12.09-.25.17-.37.26-.35-.02-.43.23-.48.5.14,0,.27,0,.41,0h0c-.14,0-.27,0-.41,0-3.89,3.89-7.8,7.75-11.64,11.68-1.64,1.68-3.78,2.84-5.02,4.92-.12.12-.24.24-.36.36-.28.37-.55.75-.83,1.12-.17.19-.34.38-.52.57-2.42,2.33-4.46,4.96-6.52,7.61-6.1,7.83-10.84,16.43-15.01,25.37-.57,1.23-1.63,2.27-1.66,3.75-.02.17-.03.34-.05.51-.05.2-.11.4-.16.59-.48.92-.96,1.84-1.44,2.76.24.07.49.14.73.21.49-.68,1-1.35,1-2.25Z"/>
  <path class="uuid-8b7cb949-c88b-4157-8fab-8f9d1bd4c6f9" d="m270.82,207.85c-1,.41-1.46.95-1.42,1.83.57-.45,1.22-.84,1.42-1.83Z"/>
  <path class="uuid-8b7cb949-c88b-4157-8fab-8f9d1bd4c6f9" d="m269.4,209.68s-.02.01-.03.02h0s-.02.01-.03.02c.02,0,.03,0,.05,0,0-.01,0-.02,0-.04Z"/>
  <path class="uuid-8b7cb949-c88b-4157-8fab-8f9d1bd4c6f9" d="m147.94,270.15c.74-2.95,1.47-5.91,2.21-8.86,0,0,0,0,0,0,.44-.64.61-1.36.66-2.12.12-.4.25-.79.37-1.19-.16-.86.24-1.61.51-2.37.23-.66.24-1.1-.57-1.23-.26.42-.52.83-.77,1.25-.02.25-.05.51-.07.76.08,1.56-.69,2.94-1.01,4.41,0,0-.14-.06-.14-.06.25.52-.23.8-.39,1.19.02.13.04.26.06.4-.06.75-.2,1.46-.79,2-.15.92-.3,1.83-.45,2.75.07.34.05.65-.33.82-.03.26-.06.52-.09.78l.19-.02c-.06.53-.11,1.07-.17,1.6-.53.55-.93,1.15-.57,1.96-.07.14-.13.28-.2.42-.25.02-.38.14-.32.4h0s-.12-.04-.12-.04c.2,1.18-.2,2.22-.72,3.24.01,2.82-.85,5.5-1.28,8.25,0,.27,0,.53.01.8.07.25-.08.36-.28.43-.18.47.25.75.34,1.14-.08.03-.17.05-.26.07-.84,2.55-.89,5.2-.93,7.84-.03.03-.09.07-.09.1,0,.09.02.17.03.26-.31,1.18-.35,2.35-.05,3.54-.21.19-.42.38-.63.56.49,1.68-.61,3.35-.08,5.5.72-2.26.88-4.15,1.11-6.03.8-3.77,1.06-7.59,1.29-11.43,1.12-4.11,1.66-8.34,2.5-12.51.05-.19.11-.38.16-.57.02-.16.05-.31.07-.47.26-.32.39-.68.31-1.1.03-.16.06-.32.09-.48.24-.37.43-.75.22-1.2,0-.15-.05-.28-.11-.39.11-.06.21-.21.3-.4Zm-.12-1.18c.06.09.1.2.11.31-.01-.11-.05-.22-.11-.31Z"/>
  <path class="uuid-8b7cb949-c88b-4157-8fab-8f9d1bd4c6f9" d="m162.21,167.76s-.02-.02-.02-.02c0,.02-.01.04-.02.05.01-.01.03-.02.04-.04Z"/>
  <path class="uuid-8b7cb949-c88b-4157-8fab-8f9d1bd4c6f9" d="m161.44,169.06c.71-.26.58-.85.73-1.27-.31.33-.79.57-.73,1.27Z"/>
  <path class="uuid-8b7cb949-c88b-4157-8fab-8f9d1bd4c6f9" d="m303.18,61.71c-.05.11-.09.22-.14.33.06-.06.12-.13.17-.2.02-.02-.02-.09-.03-.13Z"/>
  <path class="uuid-8b7cb949-c88b-4157-8fab-8f9d1bd4c6f9" d="m302.99,62.09s.02.02.02.02c.01-.03.02-.05.03-.08-.02.02-.03.04-.05.06Z"/>
  <path class="uuid-8b7cb949-c88b-4157-8fab-8f9d1bd4c6f9" d="m171.86,315.24c-.04-.1-.11-.18-.17-.27.03.14.07.28.1.42.02-.05.08-.11.07-.15Z"/>
  <path class="uuid-8b7cb949-c88b-4157-8fab-8f9d1bd4c6f9" d="m319.58,208.11c-2.98.08-6.01.11-8.78-1.39-.67-.36-1.52-.47-2.27.47,2.98,1.32,6.04,1.98,9.14,2.5.12,0,.24.03.36.07.72-.53,1.55-.44,2.37-.42.13-.01.26-.03.39-.04,1.17-.25,2.18-.85,3.17-1.48.38-.09.76-.19,1.14-.28.59-.52,1.32-.19,1.97-.35-.03-.09-.02-.17.03-.24.14-.14.28-.28.42-.41.76-.26.81.66,1.33.8-.02-.75-.05-1.5-.07-2.25-2.89,1.53-5.87,2.93-9.19,3.03Z"/>
  <path class="uuid-8b7cb949-c88b-4157-8fab-8f9d1bd4c6f9" d="m111.5,253.65c-.02.19-.05.39-.07.58,0,0,0,0,0,0-.34.06-.67.12-1.01.18.02-.37.03-.75.05-1.12.21-.18.17-.34-.05-.48,0-2.2-.81-4.16-1.63-6.13-.73,2.49,0,4.9.1,7.33-.02.67-.04,1.34-.06,2.02-.04.04-.12.08-.12.11,0,.1.04.2.07.3,0,.23-.01.45-.02.68-.19.18-.21.37-.04.58,0,.19,0,.38,0,.57-.18.21-.17.42.02.62.07,3.4-.57,6.79-.21,10.19-.67,4.02-.87,8.12-2.34,12.01-1.4,3.72-2.29,7.58-4.83,10.86-2.13,2.76-4.17,5.61-6.05,8.59-2.33,3.69-4.69,7.39-7.84,10.49-.26.15-.53.31-.79.46-3.43,3.01-6.8,6.09-9.92,9.43.02.27.04.54.06.81.47.05.87-.06,1.24-.25-.37.19-.77.3-1.24.25-.99.59-1.98,1.17-2.96,1.76,0,0-.07.02-.07.02-.26.28-.48.64-.95.57-.69.53-1.37,1.06-2.06,1.59-1.52,1.64-2.94,3.4-5.06,4.34l-.47.39c-.11.1-.22.2-.33.3-.52.37-1.07.7-1.56,1.11-3.89,3.27-8.18,5.88-12.87,7.84-.41.17-1.17.31-.9,1.04.24.66.88.47,1.33.29,2.66-1.06,5.36-2.03,7.94-3.26,6.19-2.93,11.37-7.35,16.78-11.45,5.07-3.84,9.88-7.96,14.2-12.64,1.41-1.53,3.04-2.99,4.19-4.63,3.78-5.35,6.74-11.27,11.14-16.21.66-1.45,1.32-2.9,1.97-4.35.23-.67.45-1.35.71-2.02,2.86-7.51,4.81-15.21,4.98-23.3.2-2.65.64-5.3.19-7.97-.22-1.28-.4-2.58-.12-3.88,0-.24,0-.48,0-.72-.23-.27-.45-.54-.68-.82-.07.52-.13,1.04-.2,1.57-.47.72-.73,1.49-.5,2.36Z"/>
</svg>