<?xml version="1.0" encoding="UTF-8"?>
<svg id="Livello_23" data-name="Livello 23" xmlns="http://www.w3.org/2000/svg" viewBox="0 0 595.28 841.89">
  <defs>
    <style>
      .cls-1 {
        fill: #354f9d;
      }
    </style>
  </defs>
  <g>
    <path class="cls-1" d="m393.79,496.84c-.11-2.71-.78-5.35-1.99-7.72l-.02-.12c-.12-.22-.25-.41-.38-.62-.56-.97-1.21-1.9-1.96-2.76-1.28-1.46-2.8-2.7-4.49-3.66-1.85-1.05-3.93-1.6-5.89-2.39-7.83-3.16-15.27-7.87-20.64-14.47-2.99-3.67-5.21-7.88-6.49-12.44.12.43-.12.97,0,1.4,1.1,3.95,2.93,7.57,5.29,10.81,2.87,5.21,7.21,9.57,12.51,12.34,6.62,3.46,17.53,5.8,21.88,12.97.02.03.04.08.07.12,1.28,2.41,2.01,5.11,2.12,7.9-.01-.33.02-.93,0-1.35Z"/>
    <path class="cls-1" d="m266.15,482.43c6.4,4.76,11.51,11.04,19.13,13.98,7.08,2.73,15.03,2.83,22.16.27.16-.06-.14-1.35,0-1.4-7.14,2.56-15.09,2.46-22.16-.27-7.62-2.94-12.73-9.22-19.13-13.98.22.16-.23,1.23,0,1.4Z"/>
    <path class="cls-1" d="m336.75,477.78c-.06.02-.11.05-.15.08l-.79.75c-.34.32.37.48.6.28,2.47-2.16,5.12-4.58,5.49-8.04.42-3.93-1.76-7.46-3.21-10.94-.14-.35-.95-.11-.81.22,1.35,3.24,3.36,6.49,3.25,10.13-.1,3.2-2.14,5.49-4.38,7.52Z"/>
    <path class="cls-1" d="m320.06,482.64c2.04-1.5,4.54-2.41,6.81-3.4,1.53-.63,3.07-1.21,4.81-1.24.06,0,.08-.09.02-.11-4.49-1.59-8.49,1.97-11.85,4.45-2.3,1.24-4.44,2.77-5.9,5.01-.04.05.03.11.08.08,2.31-1.29,4.14-3.04,6.03-4.8Z"/>
    <path class="cls-1" d="m193.19,566.4c-10.57-17.34-18.38-36.37-22.97-56.15-2.59-11.13-4.14-22.5-4.61-33.92-.02-.39-1.16-.16-1.14.31.85,20.33,5.13,40.46,12.47,59.43,7.29,18.85,17.56,36.57,30.37,52.21,1.76,2.15,3.56,4.25,5.41,6.31-.18.07-.33.16-.32.27,1.04,18.9.67,37.85-1.11,56.69-.01.14,1.11.03,1.14-.31,1.74-18.52,2.12-37.14,1.15-55.71,5.54,6.09,11.47,11.81,17.78,17.1.32.27,1.39-.18,1.05-.46-15.47-12.99-28.71-28.54-39.22-45.78Z"/>
    <path class="cls-1" d="m368.73,616.17c-13.22,10.37-28.89,17.51-45.41,20.64-16.66,3.16-33.98,2.09-50.18-2.85-9.08-2.77-17.76-6.77-25.78-11.84-.27-.17-1.21.3-1.07.38,14.77,9.34,31.78,14.95,49.2,16.27,16.93,1.28,34.06-1.64,49.69-8.23,8.79-3.7,17.06-8.58,24.57-14.47.23-.18-.81-.08-1.03.09Z"/>
    <path class="cls-1" d="m489.57,390.32c2.2-8.09,2.32-16.69.25-24.82-.89-3.5-2.02-7.59-4.49-10.34-2.07-2.31-5.47-3.41-8.29-1.8-.67.38-.06.94.49.62,3.78-2.16,7.23,1.6,8.72,4.74,1.49,3.15,2.44,6.61,3.08,10.02,1.36,7.2,1.02,14.63-.91,21.69-.14.51,1.02.37,1.15-.1Z"/>
    <path class="cls-1" d="m141.46,426.36c.14-.65.28-1.34.61-1.93.57-1.01,1.92-.98,2.05.26.02.21,1.17,0,1.14-.31-.12-1.1-1.27-1.36-2.21-1.21-1.24.2-2.01,1.03-2.41,2.2-.7,2.03-.97,4.32-1.33,6.43-.37,2.12-.66,4.25-.76,6.4-.2,4.43.58,8.68,2.34,12.75,1.75,4.02,4.2,7.68,6.63,11.31.19.28,1.23-.17,1.14-.31-3.8-5.67-7.76-11.61-8.75-18.51-.55-3.85-.18-7.76.47-11.57.31-1.84.68-3.68,1.08-5.51Z"/>
    <path class="cls-1" d="m380.1,395.25h.02c.47-.12,1-.24,1.53-.35-.91.16-1.52.28-1.55.35Zm0,0h.02c.47-.12,1-.24,1.53-.35-.91.16-1.52.28-1.55.35Zm0,0h.02c.47-.12,1-.24,1.53-.35-.91.16-1.52.28-1.55.35Z"/>
    <path class="cls-1" d="m470.83,398.48c-.57-1.19-1.3-2.33-2.18-3.33.84,1.01,1.56,2.15,2.18,3.33Z"/>
    <path class="cls-1" d="m458.34,437.29c2.91-2.46,5.63-5.42,7.93-8.69,1.14-1.58,2.15-3.25,3.03-4.99,2.26-4.38,3.69-9.13,3.86-13.94.16-2.27.12-4.57-.15-6.85-.03-.23-.29-.32-.59-.3-.14-.54-.28-1.08-.46-1.62-.33-.81-.71-1.62-1.12-2.41.2.41.38.83.53,1.26.2.96.37,1.93.51,2.91-.3.13-.53.34-.5.61.07.59.12,1.19.16,1.79-.38.12-.71.39-.65.75,1.9,10.7-4.77,20.04-11.41,27.66-.31.36-.13.59.19.69-.03.02-.05.05-.08.07-.72.64.88.73,1.32.34.31-.27.6-.56.89-.84-1.1,1.25-2.25,2.44-3.46,3.57Z"/>
    <path class="cls-1" d="m468.65,395.15c-1.84-2.23-4.24-3.88-7.39-4.15-2.69-.47-6.12,1.41-6.49,4.06-.38,1.68.64,3.26,1.79,4.52-.01.1,0,.2.08.29.04.03.09.07.12.1h0s.03.03.06.04c.44.42.91.77,1.41,1.08.11.15.22.29.3.46.03.06.06.11.09.17.07.15.22.22.4.25.18.2.35.39.54.58.18.17.4.24.63.24,1.8,1.89,3.2,4.12,3.58,6.75-.2-2.58-1.48-4.89-3.15-6.84.01-.01.03-.01.06-.02.31-.15.61-.51.38-.85-.2-.3-.44-.59-.67-.88.01-.13-.03-.27-.2-.4-.18-.15-.35-.29-.53-.44-.37-.74-.74-1.48-1.11-2.21-.03-.06-.06-.11-.09-.17-.22-.67-.38-1.37-.35-2.03.13-2.63,3.76-2.36,5.57-2.85.47-.13.74-.57.58-.88,1.67.66,3.18,1.79,4.39,3.18Zm-11.42-1.22c.01-.06.03-.1.04-.16.08-.06.17-.1.26-.16-.11.1-.2.2-.3.31Z"/>
    <path class="cls-1" d="m390.38,512.02c-4.36,6.91-4.85,15.85-1.28,23.2.03.07.2.02.16-.04-3.56-7.33-3.08-16.24,1.27-23.14.05-.08-.12-.08-.16-.02Z"/>
    <path class="cls-1" d="m380.1,365.04c-.44-.12-.89-.24-1.32-.35.38-.25.6-.62.04-.79-15.86-5-33.25-4.24-48.66,1.92-4.2,1.31-8.3,2.94-12.25,4.87-.1.04,0,.11.07.07,3.5-1.71,7.11-3.15,10.78-4.38-.98.42-1.94.85-2.9,1.31-1.01.48-.1,1.2.68.83,5.92-2.84,12.18-4.79,18.6-5.86,8.66-1.12,17.46-.95,26.09.52,2.22.46,4.43,1.03,6.61,1.72.21.07.51,0,.76-.12.46.12.93.22,1.39.35.06.02.19-.07.09-.09Zm-30.62-2.94c5.87-.62,11.82-.49,17.67.37-5.86-.71-11.79-.84-17.67-.37Z"/>
    <path class="cls-1" d="m400.9,399.09c-15.66-1.39-31.46-.85-46.98,1.61-.1.02-.04-.06.02-.07,15.55-2.46,31.37-3.01,47.05-1.61.07,0-.06.07-.09.07Z"/>
    <path class="cls-1" d="m381.82,378.07c-.08.25-.89.36-.81.11.68-2.32-.48-4.75-2.21-6.29-1.98-1.75-4.6-2.49-7.07-3.2-.19-.06,0-.24.08-.29.17-.1.39-.13.57-.08,2.56.73,5.29,1.52,7.29,3.36,1.73,1.59,2.84,4.04,2.16,6.39Z"/>
    <path class="cls-1" d="m377.81,375.84c-5.03-2.63-10.46-4.05-15.92-4.39.31.09.62.16.91.28,1.9.73,3.31,2.32,3.76,4.31,1.02,4.55-2.54,7.65-6.41,9.15,6.25-1.72,12.2-4.95,17.4-9.03.19-.15,1-.18.65.1-11.29,8.85-26.15,13.97-40.07,8.39-.3-.12.44-.45.66-.37,5.23,2.11,10.6,2.64,15.83,2.01-2.01.02-4.02-.36-5.78-1.34-2.28-1.26-3.87-3.67-3.4-6.33.47-2.71,2.71-4.96,5.13-6.08.34-.16.68-.27,1.03-.4-6.97,1.39-13.6,4.64-19.05,9.62-.31.28-.95-.01-.55-.38,12.61-11.52,31.3-13.91,46.43-6.01.39.21-.31.64-.63.47Z"/>
    <path class="cls-1" d="m248.23,382.03c-.08-.01-.17.1-.06.12,2.93.5,5.74,1.57,8.27,3.13.06.04.2-.04.13-.09-2.55-1.58-5.38-2.65-8.34-3.15Z"/>
    <path class="cls-1" d="m253.68,388.44c-6.94-3.79-14.62-5.65-22.33-5.7-.88-.04-1.75-.03-2.62.01-.63.04-1.26.1-1.89.18-6.22.51-12.38,2.16-18.1,4.89-3.54,1.7-6.86,3.78-9.88,6.26-.35.29.46.26.64.11,6.75-5.53,14.89-9.05,23.35-10.4-.54.18-1.07.38-1.58.62-2.75,1.27-5.28,3.83-5.83,6.89-.53,3.03,1.28,5.76,3.86,7.19,1.65.92,3.5,1.37,5.38,1.48-7.32.62-14.79-.29-21.9-2.86-.21-.08-.95.25-.65.36,17.45,6.3,37.17,2.92,51.53-8.8.07-.06.09-.1.08-.13,0-.03-.01-.07-.07-.1Zm-21.86,10.45c4.52-1.66,8.78-5.23,7.59-10.51-.52-2.25-2.12-4.06-4.27-4.88-.11-.04-.24-.09-.36-.12,6.25.54,12.42,2.29,18.06,5.34-6.22,5.04-13.44,8.45-21.03,10.17Z"/>
    <path class="cls-1" d="m403.77,350.28c-2.27-4.82-6.22-8.68-11.05-10.87.81.28,1.62.56,2.41.9.19.07.93-.22.66-.34-10.31-4.21-20.94-3.68-31.61-2.05-1.36.11-2.72.27-4.08.46,11.89-3.67,24.87-3.17,36.45,1.45.24.09.98-.25.65-.38-12.53-4.98-26.61-5.21-39.32-.75-1.9.3-3.79.67-5.68,1.11-.26.06-.44.17-.53.3-6.07,1.1-12.11,2.11-18.09,2.34-.24.01-.89.37-.35.36,6.06-.24,12.19-1.27,18.34-2.39.01.29.34.55.9.43.34-.08.67-.15,1-.21,1.7-.24,3.39-.46,5.07-.7-.03.02-.07.06-.1.08-6.79,1.29-13.55,2.62-20.04,2.6-.27,0-.86.42-.33.42,1.57,0,3.17-.08,4.77-.21-.67.08-1.35.18-2.02.3-.12.03-.37.08-.58.16-1.75.15-3.5.3-5.27.45-.21.01-.88.37-.35.33,1.64-.13,3.28-.28,4.92-.42-.16.11-.25.26-.15.35-.06.03-.12.07-.17.1-.11.08-.17.15-.17.2-.06.01-.11.01-.17.01-.24,0-.47,0-.72-.01-.07,0-.19.03-.31.09-3.08.21-6.15.31-9.23.29-.27,0-.88.4-.34.4,3.54.02,7.07-.11,10.59-.39,1.93.02,3.87-.08,5.84-.28-.49.11-.98.22-1.47.34-.24.06-.33.17-.31.25-.89.12-1.79.25-2.68.35-.15.02-.27.07-.38.12-1.22-.03-2.44-.1-3.65-.21-.38-.03-.79.06-1.13.22-.02,0-.07.03-.12.07-.4-.03-.8-.04-1.2-.09-.38-.04-.86.04-1.16.3-.22.2-.21.47.13.52.06,0,.11,0,.17.01.01.12.11.24.35.24.81,0,1.62-.01,2.43-.03,2.13.1,4.27.07,6.39-.08.09.26.45.34.7.31.82-.08,1.63-.19,2.44-.3,0,.01.02.02.03.03-1.12.2-2.23.37-3.36.48-.64.03-1.28.04-1.92.06-.18-.04-.36-.09-.54-.16-.33-.11-.74-.03-1.01.19-.84.01-1.7.01-2.54,0-.13,0-.31.06-.49.12-.79-.02-1.57-.08-2.36-.15-1.11-.18-2.22-.42-3.31-.68-.2-.06-.92.27-.66.33.56.15,1.13.27,1.7.39-.25.13-.42.37-.09.44.21.06.44.09.66.13-.93-.06-1.86-.13-2.8-.24-1.17-.19-2.32-.42-3.48-.67-.36-.08-.82.04-1.15.2-.12.07-.56.35-.19.43.29.07.6.11.9.17t-.01.01c-.17.37.16.61.49.66.07.01.13.01.2.02-.17.06-.31.13-.43.25-.24.24-.19.53.16.6.39.08.77.15,1.17.22-.48.15-.95.43-.64.56,2,.81,4.06,1.43,6.16,1.84-.56.2-1.08.76-.2.83,3.82.29,7.67.11,11.44-.49,7.22-.49,14.46-2.45,21.69-4.08,4.21-.7,8.42-1.38,12.64-2.07,2.28.24,4.55.61,6.79,1.15.21.04.93-.29.66-.35-1.89-.45-3.79-.77-5.7-1.02.19-.01.39-.01.58-.02,5.42.56,10.76,1.87,15.83,3.95.22.09.97-.25.66-.37-4.2-1.72-8.55-2.91-13-3.59,3.9.13,7.78.81,11.64,2.32.21.09.95-.24.66-.35-1.82-.72-3.64-1.25-5.46-1.63.2-.04.39-.12.54-.19.07-.03.2-.11.28-.19.89.17,1.76.35,2.64.56l.07.03c.1.04.21.06.33.06,2.2.55,4.38,1.22,6.53,2.08.35.13.95-.36.47-.55-.18-.07-.36-.12-.55-.19.11-.09.16-.2.04-.31-.81-.8-1.66-1.53-2.56-2.22.17-.04.33-.12.39-.18.68.65,1.35,1.34,2,2.04.13.16.43.12.62.01.83,1.13,1.57,2.34,2.17,3.62.18.37.99.13.82-.21Zm-63.94-1.48s-.02.01-.02.02c-.01,0-.01.01-.02.02-.02,0-.03-.01-.04-.02-.01,0-.01-.01-.02-.02h.11Zm-3.15.18s.02.02.03.03c-.11-.01-.22-.03-.34-.06.1.01.2.01.3.02Zm-6.93-.18c-.46-.08-.91-.16-1.37-.24,1.79.18,3.58.28,5.38.33-.09.07-.11.15.07.17.13.03.27.03.4.06-.45-.02-.89-.03-1.32-.07-.22-.04-.45-.08-.67-.13-.1-.02-.24.01-.37.07-.71-.04-1.4-.11-2.11-.18Zm9.13,2.78c-2.3-.02-4.59-.3-6.83-.82,3.27.38,6.57.38,9.83.02.48.11.98.2,1.47.27-1.48.25-2.98.43-4.48.53Zm56.69-9.01c.54.44,1.06.89,1.57,1.35-.57-.44-1.16-.84-1.76-1.22.08-.03.16-.08.19-.12Zm-3.94-3.5c-.28.09-.54.34-.25.52,1.22.75,2.39,1.59,3.53,2.48-.67-.4-1.36-.76-2.04-1.1.07-.1.04-.19-.11-.25-.56-.2-1.12-.38-1.67-.56-3.91-1.61-7.94-2.31-12.06-2.46-2.31-.2-4.65-.24-6.98-.12-1.3,0-2.6.02-3.91.1,7.91-.93,15.78-.98,23.5,1.39Zm-36.28,3.02c1-.19,2.01-.38,3.01-.58-1.1.24-2.21.45-3.31.66.1-.02.2-.06.3-.08Zm-11.69.66c3.3-.33,6.65-.89,10.03-1.5-.04.02-.08.04-.11.08-1.27.25-2.54.49-3.81.73-.22.04-.54.24-.64.47-.47.03-.93.08-1.4.12-1.36-.07-2.72-.03-4.06.1Zm4.95,1.16c1.13-.17,2.28-.36,3.44-.57-.21.06-.42.11-.62.17-1.95.42-3.92.79-5.89,1.1,1.02-.24,2.04-.46,3.08-.7Zm-2.29,7.43c1.1-.26,2.19-.56,3.28-.9,1.52-.13,3.02-.33,4.52-.58.25-.03.6-.13.77-.35,1.96-.33,3.92-.64,5.88-.97-4.82,1.12-9.64,2.23-14.46,2.8Zm20.06-4.08c-1.89.3-3.77.62-5.65.92.2-.1.38-.27.43-.48.74-.21,1.47-.44,2.2-.7,1.1-.29,2.2-.57,3.31-.84-.49.22-1,.45-1.49.71-.95.49.55.43.94.22,1.1-.57,2.22-1.06,3.37-1.46,1.86-.09,3.74-.08,5.6.04-2.9.38-5.8.94-8.71,1.58Zm10.87-1.84c-.22-.01-.45-.03-.67-.04.26.01.52.02.76.03-.02.01-.06.01-.09.01Zm4.04-.24c.31-.12.53-.45.01-.36-.62.1-1.23.2-1.85.3-2.43-.22-4.86-.29-7.3-.21.48-.1.98-.19,1.46-.29,3.19-.19,6.37-.2,9.53-.01,1.63.25,3.23.56,4.83.98-2.22-.34-4.45-.45-6.68-.4Zm7.68-.56l.02-.02c.04-.07.08-.15.1-.22.44.15.86.29,1.29.46-.47-.09-.94-.15-1.41-.21Zm10.06,2.47c-1.15-.4-2.29-.76-3.45-1.08.43-.2.72-.56.29-.82-1.99-1.2-4.11-2.14-6.3-2.87.02-.01.06-.03.08-.04.31.02.63.03.95.06.12.01.26-.02.4-.08.2.06.39.1.6.16.67.36,1.35.74,2,1.17.1.07.28.06.44-.01.13.08.28.15.42.24.06.03.15.03.25.01,1.55.94,3,2.04,4.32,3.28Z"/>
    <path class="cls-1" d="m132.55,267.16c5.78-6.64,12.19-12.71,19.22-18.01.5-.38-.63-.35-.9-.15-7.06,5.32-13.51,11.42-19.31,18.09-.07.05-.13.11-.14.18,0,0,0,.02,0,.02,0,0,0,.01,0,.02-4.09,25.32-4.96,51.15-2.52,76.69.7,7.3,1.67,14.58,2.89,21.82.06.36,1.21.1,1.14-.31-4.29-25.35-5.34-51.22-3.07-76.83.64-7.21,1.55-14.39,2.7-21.53Z"/>
    <path class="cls-1" d="m449.09,234.15s0,0,0,0h0c-.03-.06-.07-.1-.13-.13-7.49-7.84-15.99-14.65-25.34-20.15-.28-.17-1.34.26-.92.51,9.34,5.49,17.82,12.33,25.29,20.16,8.87,27.58,14.84,56.07,17.78,84.89.85,8.33,1.43,16.68,1.77,25.04.02.6,1.18.43,1.15-.08-1.19-29.17-5.44-58.2-12.71-86.48-2.05-7.97-4.34-15.87-6.86-23.7,0-.02-.03-.04-.04-.06Z"/>
    <path class="cls-1" d="m415.28,202.61c-.31-.17-1.27.3-1.07.41,8.32,4.52,16.27,9.71,23.73,15.53,3.68,2.87,7.25,5.9,10.69,9.06.54.5,1.58,1.16,1.8,1.84.13.39,0,1,0,1.41v2.93c0,.24,1.14.06,1.14-.31v-2.93c0-.4.11-1.03,0-1.41-.15-.52-.72-.88-1.13-1.26-3.54-3.3-7.22-6.44-11.03-9.43-7.58-5.95-15.66-11.24-24.13-15.84Z"/>
    <path class="cls-1" d="m400.21,190.35c16.14,6.91,31.23,16.1,44.83,27.19.24.19,1.24-.25,1.07-.39-13.6-11.1-28.69-20.29-44.83-27.19-.31-.13-1.19.34-1.07.39Z"/>
    <path class="cls-1" d="m389.25,168.42c-6.11-.31-12.24.06-18.27,1.12-.59.1-.9.89-.12.75,20.83-3.66,42.89,1.16,60.33,13.14,1.25.86,2.48,1.75,3.67,2.68.76.59.94.64,1.09,1.52.24,1.38.47,2.76.71,4.14.08.47,1.22.19,1.14-.31l-.63-3.68c-.06-.35-.05-.97-.22-1.29-.43-.79-1.93-1.57-2.65-2.1-4.39-3.24-9.12-6.03-14.07-8.32-9.71-4.49-20.29-7.12-30.98-7.66Z"/>
    <path class="cls-1" d="m423.94,186.15c-7.87-4.49-16.54-7.46-25.54-8.56-.55-.07-1.17.71-.4.81,8.75,1.07,17.19,3.94,24.86,8.28,3.82,2.17,7.45,4.68,10.83,7.48.91.75,1.8,1.53,2.67,2.32.53.48,1.81,1.33,2.01,1.94.25.78,0,2.06,0,2.89,0,.58,1.15.4,1.15-.09,0-.91.24-2.17,0-3.05-.17-.6-.99-1.14-1.45-1.57-.85-.79-1.71-1.56-2.59-2.32-3.58-3.07-7.44-5.8-11.54-8.14Z"/>
    <path class="cls-1" d="m413.95,188.7c-.38-.18-1.41.36-.89.6,6.68,3.13,13.02,6.96,18.89,11.43,3.05,2.32,5.95,4.82,8.75,7.43,1.18,1.1,1.58,2.84,2.18,4.32.18.45,1.31.12,1.14-.31-.54-1.32-.9-3.13-1.91-4.15-2.61-2.64-5.56-5.03-8.49-7.31-6.09-4.72-12.69-8.75-19.67-12.02Z"/>
    <path class="cls-1" d="m129.2,261.03c-.26-.33-.51-.66-.77-1-.19-.24-.9-.89-.92-1.19-.02-.28.93-1.18,1.08-1.36.41-.5.82-1,1.23-1.5.8-.96,1.61-1.91,2.43-2.85,2.93-3.36,6.02-6.58,9.26-9.65,6.3-5.96,13.19-11.31,20.64-15.74,3.53-2.1,7.2-3.96,10.96-5.6-2.5,3.08-4.89,6.26-7.12,9.55-11.93,17.56-19.05,37.6-21.32,58.69-2.61,24.21.43,48.61,4.04,72.56.43,2.89.88,5.78,1.33,8.67-.82,1.71-6.54,13.57-6.54,13.57-.06.13.13.22.19.1l7.45-13.37c.07-.12.08-.24.06-.35,0-.02.01-.04.01-.07-3.67-23.75-7.33-47.78-6.12-71.89.59-11.66,2.35-23.3,5.8-34.48,2.87-9.3,6.89-18.23,11.86-26.6,9.94-16.74,23.58-31.21,39.35-42.59,9.41-6.79,19.58-12.4,30.23-16.91.26,0,.57-.13.71-.3,8.75-3.65,17.81-6.55,27.05-8.72,22.07-5.18,45.02-6.26,67.54-4.07,2.8.27,5.59.6,8.38.97.24.03.54-.12.68-.29,10.87-7.38,23.56-11.93,36.69-12.77,12.52-.81,25.15,1.7,36.45,7.14,1.58.76,3.13,1.58,4.66,2.44,1.4.8,3.3,1.64,4.47,2.77,1.08,1.03,1.94,2.42,2.87,3.59.22.27,1.31-.12,1.06-.43-.93-1.16-1.78-2.49-2.83-3.54-.85-.85-2.2-1.45-3.23-2.07-1.46-.87-2.94-1.7-4.45-2.47-5.9-3.01-12.19-5.24-18.67-6.6-12.56-2.64-25.76-1.92-37.97,2.01-6.92,2.23-13.46,5.45-19.5,9.5-22.62-2.99-45.73-2.77-68.18,1.48-12.1,2.29-24.01,5.76-35.38,10.49-10.16-7.27-23.03-10.31-35.37-8.37-.59.09-.9.87-.12.75,12.03-1.89,24.47,1.07,34.4,8.09-2.71,1.15-5.39,2.37-8.04,3.67.02-.07,0-.13-.11-.19-8.87-4.46-18.55-7.22-28.51-7.55-9.75-.32-19.39,1.72-28.35,5.53-.73.31-.07.7.45.48,8.83-3.76,18.33-5.72,27.95-5.33,9.63.39,18.97,3.11,27.55,7.43.05.02.11.03.19.03-2.9,1.44-5.75,2.97-8.55,4.59-.02-.11-.12-.2-.35-.22-20.19-2.3-40.96,1.59-59,10.92-5.04,2.6-9.85,5.63-14.38,9.04-.62.46.31.84.75.51,15.95-11.98,35.41-19.02,55.32-20.14,5.57-.31,11.15-.15,16.69.47-1.78,1.05-3.54,2.12-5.28,3.23-7.55,4.87-14.68,10.42-21.26,16.56-20.57,1.4-39.4,11.75-53.75,26.24-1.13,1.14-2.23,2.3-3.3,3.48-.54.6-1.08,1.2-1.61,1.81-.42.48-1.43,1.27-1.58,1.86-.12.46.17,1.13.27,1.59.15.66.29,1.32.44,1.98.08.35,1.22.07,1.14-.31-.1-.44-.19-.87-.29-1.31-.12-.52-.54-1.48-.44-2,.05-.27.68-.85.88-1.08.42-.49.85-.98,1.28-1.47.9-1.02,1.83-2.03,2.77-3.02,3.68-3.87,7.66-7.46,11.91-10.69,7.88-6,16.77-10.79,26.27-13.65,5-1.5,10.15-2.45,15.36-2.82-4.38,4.13-8.5,8.53-12.32,13.18-14.35,6.03-27.05,15.49-37.81,26.68-3.34,3.48-6.5,7.13-9.5,10.91,0,.02,0,.03,0,.05.57.74,1.14,1.47,1.71,2.21.21.27,1.22-.2,1.14-.31Z"/>
    <path class="cls-1" d="m373.51,163.11c-.59.09-1.18.19-1.77.3-.14.03-.28.05-.41.08-8.67,1.72-16.87,5.57-23.7,11.24-.3.21-.59.42-.89.63-.22.15-.24.28-.17.37,0,0-.01.02,0,.02.02,0,.04.02.06.03.04.03.08.05.14.07,22.08,10.4,39.81,28.19,52.67,48.73,14.5,23.15,22.59,49.59,27.45,76.31,2.92,16.05,4.73,32.27,6.22,48.51,0,.09.28.06.32.05,6-.45,12-.9,18.01-1.36.28-.02,1.24-.47.51-.41-5.9.44-11.8.89-17.7,1.33-2.67-29.06-6.36-58.32-15.68-86.1-7.93-23.64-20.19-46.06-37.82-63.89-9.53-9.64-20.59-17.75-32.87-23.54,5.32-3.74,10.59-7.29,16.78-9.5,11.2-3.99,23.37-3.56,34.8-.78,10.12,2.46,19.74,6.65,28.9,11.55.37.2,1.4-.32.89-.59-14.42-7.73-30.55-14.04-47.16-13.85-2.89.03-5.74.31-8.55.78Z"/>
    <path class="cls-1" d="m335.43,159.96c16.31-12.24,37.82-16.51,57.67-12.19,5.47,1.19,10.78,3.05,15.79,5.53.29.14,1.17-.33,1.08-.37-18.71-9.25-41.21-9.46-60.41-1.51-5.39,2.23-10.49,5.14-15.16,8.65-.21.16.81.05,1.02-.11Z"/>
    <path class="cls-1" d="m131.31,228.21c-.14-.49-.27-.99-.41-1.48-.08-.31-.23-.65-.27-.97-.07-.54-.18-.44.31-.87,1.96-1.74,3.92-3.48,5.97-5.11,4.26-3.38,8.78-6.43,13.5-9.14,9.51-5.45,19.84-9.47,30.53-11.88,6.07-1.37,12.26-2.19,18.47-2.48.32-.02,1.24-.51.49-.48-20.28.97-40.2,7.62-57.04,18.94-4.76,3.2-9.26,6.78-13.47,10.69-.04.03-.06.07-.05.11.27.99.55,1.98.82,2.97.07.27,1.21-.04,1.14-.31Z"/>
    <path class="cls-1" d="m240.39,470.42l-2.67,4.03c-4.34,6.4-9.67,13.61-13.47,19.55-1.13,1.77-2.27,3.53-3.39,5.3-.85,1.35-1.68,2.74-2.09,4.29-.66,2.53.17,5.58,2.85,6.47.37.12.96-.4.46-.57-3.04-1.01-3.03-4.28-2.14-6.86,6.09-9.18,12.17-18.36,18.26-27.55.62-.91,1.23-1.82,1.8-2.72h0c.12-.19.25-.37.37-.56.11-.17.06-.44,0-.72.08-.47.11-.85,0-.68Z"/>
    <path class="cls-1" d="m211.73,419.17c-.13.02-.26.06-.39.1-.08.02-.19.07-.28.13h-.01c-.06.02-.1.06-.15.09l1.11-.4c-.09.02-.18.04-.28.08Zm-3.09,1.1c-.66.25-1.28.47-1.72.64l1.91-.67c-.07.01-.12.02-.19.03Z"/>
    <path class="cls-1" d="m193.5,418.93c2.59-1.39,5.29-2.53,8.06-3.4-1.16.43-2.28.86-3.29,1.28-.35.15-.67.28-.99.42-.4.17-.79.34-1.13.49-.81.37-1.61.76-2.39,1.19-.17.08-.33.16-.48.25-.08.04-.17-.02-.07-.08h.03s.06-.04.1-.07c.04-.02.1-.04.16-.08Z"/>
    <path class="cls-1" d="m262.97,379.53c.82.35,1.64.7,2.45,1.08.04.02.17-.05.15-.05-.81-.38-1.62-.73-2.44-1.07.54-.18,1.06-.55.61-.72-6.54-2.35-13.34-3.83-20.22-4.43-10-1.16-20.22-.24-29.89,2.8-.11.03,0,.05.06.03,8.74-2.75,17.94-3.74,27.01-3.03-5.9-.31-11.84.03-17.7,1.04-.77.13-1.34,1.09-.22.9,13.28-2.28,26.99-1.09,39.67,3.47.13.05.32.03.53-.02Z"/>
    <path class="cls-1" d="m257.1,358.19c-1.48.24-2.96.47-4.45.71.2-.08.39-.15.59-.22.53-.21.04-.43-.31-.29-.44.17-.89.31-1.32.47-1.19-.34-2.38-.64-3.57-.94.12-.02.24-.06.35-.1.03-.01.06-.01.09-.02.4.07.81.12,1.22.19.16.02.71-.21.71-.29.2.07.4.12.61.19.27.08.68-.19.65-.39.54.13,1.07.26,1.61.4.3.08.97-.37.48-.49-2.43-.64-4.86-1.2-7.31-1.7,0-.04.01-.08,0-.12-.1-.42-.64-.43-.97-.36-.27.06-.54.09-.81.13-.34-.06-.66-.12-.99-.19-12.2-2.93-24.84-3.75-37.33-2.44-5.47.02-10.92.7-16.23,2.03-.49.12-.39.49.1.37,3.68-.92,7.43-1.5,11.2-1.79-1.15.18-2.29.37-3.44.57-.47.09-.36.54.04.54-2.77.34-5.55.67-8.32,1-.2.02-.89.37-.36.31,1.5-.18,3.01-.36,4.52-.54-1.45.24-2.89.49-4.32.79-.13.02-.28.1-.37.18-.11.02-.24.04-.35.08-.49.11-.38.51.1.39.09-.02.18-.03.26-.06-.08.12-.03.25.28.21,3.22-.34,6.43-.66,9.65-1,.06.02.11.04.18.06-2.93.22-5.84.71-8.7,1.44-.08.01-.16.02-.24.03-.07.01-.12.04-.18.07-.98.26-1.95.54-2.92.86-.28.09-.34.29-.25.43-.06,0-.1.01-.15.02-.51.1-.38.51.11.4.07-.01.15-.02.22-.04-.1.13.02.27.36.17.83-.26,1.67-.46,2.53-.66.34-.06.67-.1,1-.15-3.47.95-6.88,2.12-10.21,3.53-.52.22-.04.48.33.33,4.31-1.83,8.72-3.21,13.2-4.24.66-.07,1.31-.11,1.98-.16-1.82.45-3.61.97-5.4,1.58-1.3.24-2.6.49-3.91.76-.36.08-.38.37-.18.51-1.19.26-2.38.55-3.55.9-.16.04-.4.18-.56.3-.02,0-.06.01-.08.02-.25.09-.51.19-.75.28-.12.03-.24.06-.36.08-.35.09-.56.2-.63.3-.07.02-.15.06-.21.08-1.09.42-.06.49.54.3.64-.2,1.29-.38,1.93-.56,1.67-.37,3.37-.71,5.06-.99,3.02-.38,6.05-.68,9.08-.95-1.43.25-2.85.56-4.27.94-.47.13-.39.47.09.34,1.98-.54,3.95-.93,5.93-1.21,14.47,1.77,29.04,2.55,43.62,2.3.17-.01.91-.33.53-.33-2,.03-4,.04-6,.04,1.57-.06,3.13-.17,4.69-.35,2.42-.09,4.84-.33,7.26-.81.36-.07.7-.52.12-.4-.73.15-1.46.27-2.19.37.31-.1.53-.42.02-.35-.49.06-.98.11-1.47.17,0-.01.01-.01.01-.02,0-.1-.03-.19-.08-.26.37-.08.74-.16,1.11-.25.28-.03.55-.04.83-.07.17-.02.3-.12.37-.24,1.41.06,2.82.11,4.22.15.29.01.88-.4.34-.42-1.08-.03-2.14-.08-3.21-.11.02-.01.03-.01.06-.02.08-.01.17-.02.25-.03.15-.01.29-.03.43-.04.17.03.37.02.46.01.2-.03.39-.07.58-.1,1.12-.08,2.25-.16,3.37-.21.36-.02.86-.08,1.16-.31.09-.08.17-.16.17-.21.34-.06.68-.11,1.03-.17.26-.03.88-.18.94-.49.07-.31-.52-.27-.67-.24Zm-64.21-2.14c-.72.08-1.45.16-2.17.22.76-.16,1.54-.31,2.3-.46-.1.09-.17.18-.13.24Zm2.02-.2c1.03-.16,2.07-.3,3.11-.44-.01.04,0,.08.01.11-1.03.11-2.08.21-3.12.33Zm35.24,1.83c.13.01.27.03.42.06-.16-.01-.31-.03-.47-.04.02-.01.03-.01.06-.01Zm-3.04-4.58c-.82-.03-1.65-.07-2.48-.06h-.03c-4.27-.17-8.53-.15-12.79.07.08-.09.06-.18-.18-.2-.16-.01-.31-.01-.46-.02,5.31-.33,10.64-.25,15.94.21Zm-21.81,6.47c2.46-.04,4.92-.04,7.38-.01-.04.08-.07.16-.06.22-2.53-.12-5.05-.17-7.58-.07.1-.04.19-.09.26-.15Zm-4.41-.22c.07-.04.12-.08.18-.13.46-.03.92-.07,1.37-.1.1.02.21.03.37.01.7-.07,1.4-.12,2.1-.18.27-.02.54-.04.81-.07.26,0,.52-.01.76-.01,1.88.02,3.75.15,5.62.31-3.74-.03-7.48.02-11.22.17Zm11.4-.56c.12-.03.25-.09.37-.13h.34c.71.13,1.4.28,2.11.39-.18,0-.36-.01-.53-.02-.76-.09-1.53-.17-2.29-.24Zm-21.49-.71c-.71.1-1.41.21-2.12.34.46-.13.91-.27,1.37-.39.09.06.2.08.35.06,2.91-.58,5.84-1.06,8.78-1.45v.02c-.56.1-1.11.2-1.66.31-2.27.22-4.5.59-6.71,1.11Zm3.6,2.04c.08-.04.16-.08.24-.12.18-.01.35-.02.53-.03.04.02.1.04.16.04-.3.03-.62.07-.92.11Zm.13-1.22c.68-.2,1.38-.37,2.07-.54.04.01.09.02.15.01.95-.07,1.92-.12,2.89-.18-1.71.2-3.4.44-5.1.71Zm4.4-1.56c-.49.01-.98.03-1.47.06.29-.06.6-.1.89-.16.46-.03.93-.04,1.4-.07-.27.06-.55.11-.82.17Zm-.46-2.92c2.97-.54,5.96-.94,8.96-1.23.72.01,1.44.04,2.16.08-3.01.2-6,.49-8.98.9-.71.09-1.41.17-2.13.26Zm2.25,5.98c7.15-.8,14.37-.19,21.61.48.43.1.86.2,1.3.28.02.15.11.27.33.31,2.86.58,5.75.94,8.66,1.09-10.67-.18-21.31-.91-31.89-2.17Zm45.08-4.02s.01-.01.02-.01c1.5.4,2.99.83,4.47,1.29-.44-.07-.88-.12-1.32-.19-.01-.04-.04-.07-.13-.09-1.67-.22-3.35-.45-5.02-.65.66-.11,1.32-.21,1.99-.35Zm-3.38-.85c.18.03.36.08.54.12-.54.08-1.08.13-1.61.2-.06-.03-.1-.07-.17-.09-1-.34-2-.64-3-.91,1.41.2,2.83.43,4.23.67Zm-.26,4.57s-.04,0-.08.01c-.06,0-.11,0-.18.01.04-.01.09-.02.12-.03.04,0,.09.01.13.01Zm-2.35,1.26c.86-.12,1.73-.25,2.59-.38.38-.01.77-.02,1.16-.03-1.25.18-2.5.33-3.75.42Zm6.07-1.49c-.11,0-.22-.01-.34-.01-.13-.17-.48-.19-.66-.16-.2.02-.4.06-.62.09-.43-.02-.85-.06-1.29-.08.01-.01.01-.02.02-.03.45-.06.9-.11,1.35-.18.53.01,1.06.01,1.58,0,.42.07.84.13,1.27.21-.44.04-.88.1-1.31.16Zm.11-.97c.22-.1.43-.24.45-.46.02-.15-.06-.24-.15-.3.17.03.35.06.52.1.08.01.15,0,.21-.02.65.16,1.3.33,1.95.49-.99.1-1.99.17-2.99.19Zm4.02.52c-.36.03-.73.07-1.09.11-.02-.07-.09-.12-.24-.16-.08-.01-.15-.02-.22-.03.38-.03.77-.07,1.16-.11.18-.02.31-.12.37-.25.25.07.48.12.73.19-.24.08-.47.18-.71.25Z"/>
    <path class="cls-1" d="m266.25,366.46c-.53-1.29-1.05-2.58-1.58-3.87-.08-.19-.31-.21-.48-.16-.13.04-.41.19-.33.38.53,1.29,1.05,2.58,1.58,3.87.08.19.31.21.48.16.13-.04.41-.19.33-.38Z"/>
    <path class="cls-1" d="m265.74,367.42c-1.38-2.45-3.49-4.41-6.03-5.6-.17-.08-.42,0-.57.08-.1.06-.25.21-.08.29,2.46,1.15,4.54,3.07,5.87,5.44.14.26.93-.02.81-.22Z"/>
    <path class="cls-1" d="m263.74,367.28c.17.13.88-.19.77-.27-2.5-1.96-5.49-3.21-8.64-3.62-.18-.02-.4.02-.57.11-.05.03-.29.18-.1.2,3.12.41,6.07,1.65,8.54,3.58Z"/>
    <path class="cls-1" d="m248.63,539.18c-.09-.21-.88.06-.81.22,5.24,12.34,17.38,19.65,29.97,22.71,13.17,3.19,27.24,2.8,40.35-.46,7.53-1.87,14.79-4.74,21.56-8.52.47-.26-.27-.23-.47-.12-11.89,6.63-25.27,10.37-38.88,10.87-13.24.49-27.7-1.71-38.82-9.35-5.6-3.85-10.23-9.06-12.9-15.34Z"/>
    <path class="cls-1" d="m371.03,521.03c-5.41,8.65-12.39,16.25-20.55,22.37-.34.26.47.19.63.06,8.24-6.18,15.27-13.83,20.73-22.56.08-.13-.67-.09-.81.13Z"/>
    <path class="cls-1" d="m375.49,509.03c-.34.08-.68.16-1.01.24l-1.23.27c-.07.02-.12.03-.18.06,0,0,0,0,.01,0-.19.04-.38.09-.56.13.08-.02.16-.03.23-.05-1.7.43-3.43.72-5.16.99-1.95.31-3.9.64-5.84.97-2.61.45-5.21.92-7.82,1.4-.25.02-.49.03-.74.06-.63.04-3.84.82-4.83,1.06l-.15.03s-.02,0-.03.01c-.02,0-.03,0-.04.01h-.07c-9.27,1.65-18.55,3.24-27.85,4.64-8.71,1.3-17.5,2.16-26.33,1.86-8.25-.28-16.46-1.31-24.7-1.75-8.75-.47-17.56-.21-26.01,2.26-.19.06-.28.12-.3.19-.18.04-.36.09-.53.15-.13.04-.29.15-.33.28-.36.11-.72.22-1.07.35-.3.11-.28.24-.13.29h.02s15.16,8.04,15.16,8.04l.03.02c.13.1.91-.02.79-.27-.79-1.54-1.61-3.15-1.73-4.92-.09-1.32.29-2.78,1.25-3.73,2.89.68,5.79,1.28,8.71,1.79.02,1.06.06,2.11.09,3.17,0,.03.1.01.1-.03-.03-1.03-.07-2.08-.1-3.11,3.73.65,7.48,1.18,11.24,1.56.15,2,.29,4,.44,6.01,0,.03.1.01.09-.03-.13-1.99-.28-3.97-.43-5.96,16.38,1.65,33.02.77,49.15-2.66,3.08-.65,6.12-1.41,9.15-2.25.24,2.62.31,5.25.22,7.88,0,.02.1.01.1-.02.08-2.64,0-5.27-.22-7.89,3.53-.98,7.02-2.08,10.47-3.29.09,1.41.07,2.84-.1,4.27-.01.03.09.02.09-.01.17-1.43.2-2.86.1-4.29.1-.03.19-.07.28-.1.47-.17.35-.68-.13-.51-22.61,8.06-46.99,10.85-70.84,8.12-3.7-.43-7.39-.99-11.04-1.67l-.1-.03c-5.68-1.67-11.74-3.02-17.64-1.75,15.54-3.67,31.66-.27,47.4.26,16.71.55,33.23-2.92,49.61-5.76,1.47-.26,2.95-.52,4.42-.76.13-.02.26-.04.38-.07.02,0,.04-.01.07-.01.01,0,.03-.01.07-.01.95-.12,2.23-.29,3.32-.42.97-.11,1.77-.19,2.1-.2h.04c2.31-.02,4.67-.06,6.94.51,1.07.27,2.25.65,3.12,1.35,2.82,2.23-1.9,5.61-3.57,6.76-2.97,2.04-6.07,3.92-9.26,5.62-.11.06-.25.15-.25.28,0,.12.13.2.25.21.12,0,.24-.06.35-.11,3.32-1.76,6.55-3.73,9.63-5.88,2.96-2.05,5.8-4.29,8.51-6.68,1.19-1.06,2.36-2.13,3.49-3.24.57-.56,1.13-1.12,1.68-1.7.28-.29.55-.57.82-.86.15-.15.82-.68.82-.88.08-.09.05-.14-.01-.16-.12-.04-.35-.01-.42,0Z"/>
    <path class="cls-1" d="m289.43,534.88l-.45-8.94s-.1,0-.1.03c.15,2.98.3,5.96.45,8.94,0,.02.1,0,.1-.03Z"/>
    <path class="cls-1" d="m305.74,532.97c-.1-2.51-.21-5.03-.31-7.54,0-.03-.1-.01-.1.03.1,2.51.21,5.03.31,7.54,0,.03.1.01.1-.03Z"/>
    <path class="cls-1" d="m322.36,529.05c-.14-1.98-.27-3.95-.41-5.93,0-.02-.1,0-.1.03.14,1.98.27,3.95.41,5.93,0,.02.1,0,.1-.03Z"/>
    <path class="cls-1" d="m288.32,542.05c-2.89-.47-5.68-1.01-7.79-1.44-1.04-.26-2.09-.55-3.13-.88-.48-.15-.77.31-.37.64.67.55,1.36,1.08,2.08,1.56,1.03.68,2.14,1.2,3.29,1.62.04.02.07.06.11.08.06.03.1.04.16.06l-.17-.1c1.37.5,2.79.85,4.22,1.15,3.55.89,7.42,1.09,11.06,1.12,2.71.03,5.42-.17,8.11-.54,1.15-.16,2.29-.36,3.42-.59.37-.07.74-.15,1.11-.23,5.63-1.2,11.17-2.88,16.68-4.54,1.31-.4,2.62-.82,3.9-1.31.64-.24,1.28-.5,1.9-.78.29-.13.57-.22.83-.39.05-.03.1-.07.14-.11.06-.05.12-.1.13-.18.03-.14-.1-.26-.23-.32-.64-.31-1.4-.02-2.06.24-2.9,1.13-5.98,1.66-9.02,2.25-5.66,1.1-11.29,2.18-17.03,2.73-5.73.54-11.52.63-17.24-.04-.03,0-.07-.01-.1-.01Z"/>
  </g>
  <path class="cls-1" d="m491.01,352.87c-3.29-5.4-8.3-9.37-14.91-8.48-6.5.88-11.41,5.39-15.86,9.86.75-1.3-.85-3.05-2.3-2.01-8.18,6-17.05,10.98-25.78,16.12-1.84,1.06-7.33,4.31-9.12,5.25-.54.28-1.08.38-1.86.55-3.27.64-6.56,1.27-9.83,1.95-.1-.39-.2-.8-.31-1.19-2.41-8.44-7.66-16.37-15.45-20.7-12.53-6.88-29.22-5.59-42.72-2.54-11.26,2.76-22.21,6.85-32.21,12.8-9.85,5.88-14.67,14.79-12.54,25.2-2.62.89-5.52,1.19-8.4,1.01-5.07-.12-9.55-3.6-14.84-2.86-2.53.31-4.81,1.38-7.05,2.45-2.51-14.09-18.09-19.67-32.88-23.09-11.48-2.71-23.4-4.11-35.18-2.83-11.66,1.27-24.34,5.11-31.28,15.27-4.01,5.62-6.02,12.37-6.66,19.23-5,.7-10.12.81-15.03,0-5.52-1.41-9.04-6.03-12.97-10.38-3.02-3.61-5.97-7.32-8.62-11.23-1.26-1.9-3.83-.06-2.87,1.64-3.4-1.12-7.02-1.75-10.31.11-4.43,2.5-3.21,7.62-2.3,11.72,2.58,11.53.86,23.4,2.17,35.05,2.33,20.77,16.75,37.85,19.11,58.58.58,5.15.21,11.14,3.74,15.38,3.3,3.95,8.8,4.85,13.62,5.56.26.04,1.21-.38.94-.42-4.22-.63-8.82-1.35-12.17-4.2-3.62-3.09-4.25-7.93-4.63-12.38-.38-4.67-1-9.19-2.28-13.71-1.29-4.54-3.01-8.93-4.85-13.25-3.72-8.7-7.98-17.23-10.5-26.38-2.84-10.29-2.19-20.8-2.53-31.36-.09-3.01-.29-6.02-.72-9-.4-2.81-1.25-5.52-1.61-8.33-.34-2.69.12-5.68,2.68-7.15,3.31-1.91,7.31-.36,10.56.88,3.08,3.23,5.92,6.64,8.68,10.1,3.1,3.74,6.03,7.78,10.4,10.34,4.38,2.55,9.74,2.63,14.67,2.8,1.53,0,3.05-.03,4.59-.1-.01.72-.01,1.43,0,2.12-.4,17.09,13.9,26.73,29.37,28.96,17.56,2.49,36.13.67,52.19-7.16,9.64-4.7,18.94-11.99,23-22.18-.65,10.87-.74,21.76-.27,32.62-5.74,6.47-11.5,12.97-16.27,20.2-3.35,5.09-7.2,12.66-2.92,18.42-.22-.29.22-1.09,0-1.4-4.59-6.19,1.63-13.95,5.27-19,4.27-5.94,9.13-11.42,13.98-16.87.01.21.02.43.03.65.01.27.82.1.81-.22-.63-12.42-.49-24.87.36-37.27.03-.1.07-.19.09-.28.67-2.83.97-5.42.92-7.81,1.54-.83,3.05-1.68,4.57-2.29,5.71-2.5,10.9,2.18,16.63,2.59.66.09,1.31.15,1.98.2,2.39,7.9,5.36,15.63,8.86,23.12.12.27.92.02.81-.22-3.46-7.4-6.39-15.03-8.77-22.84,2.36.1,4.75-.03,7.13-.48.12.33.22.64.36.95,4.82,11.09,15.91,17.76,26.97,21.27,16.73,5.4,35.03,4.45,51.74-.48,9.34-2.77,18.74-8.8,22.72-17.88l4.95.84c.61.1,1.68-.86.75-1.15-1.7-.51-3.42-.83-5.15-1.01.48-1.32.86-2.71,1.11-4.15.65-4.12.26-8.2-.54-12.2,3.28-.36,6.56-.84,9.81-1.45.77-.16,1.92-.38,2.78-.83,7.74-4.31,14.72-9.78,22-14.74,4.19-2.91,8.42-5.74,12.8-8.34-.36.43.68.38.93.13,4.28-4.31,9-9.09,15.31-9.95,6.28-.85,10.97,3.28,14.01,8.31,6.15,10.15,7.36,22.68,5.83,34.24-1.67,12.55-6.44,24.42-11.31,36.03-4.94,11.8-9.81,23.54-12.46,36.12-1.31,6.26-2.86,13.3-8.21,17.46-2.23,1.75-4.72,2.74-7.54,2.42-2.21-.25-4.32-.44-6.53-.24.53-7.81.53-15.66-.01-23.48-.02-.42-1.17-.17-1.13.3,1.19,17.37-.3,34.89-4.3,51.83-.31,1.36-.67,2.69-1.02,4.04-.71,2.57-1.44,5.13-2.18,7.69-3.93,12.75-9.28,25.08-15.96,36.63-4.95,8.55-10.63,16.67-16.97,24.25-.44.53.65.56.93.24,11.27-13.47,20.44-28.63,27.21-44.83.19-.45.36-.9.54-1.35-1.37,5-2.65,10-3.73,15.08-3.26,15.36-4.39,31.02-3.63,46.69.6,12.09,2.21,24.11,4.38,36.02.07.38,1.21.1,1.15-.31-3.51-19.27-5.58-38.92-4.19-58.5,1-14.03,3.96-27.72,7.74-41.24,1.21-4.34,2.48-8.67,3.73-12.99.89-2.91,1.73-5.83,2.47-8.77.01-.06.03-.11.04-.17v-.02c2.09-8.3,3.59-16.74,4.46-25.26.18-1.75.31-3.51.44-5.28,4.09-.3,8.07,1.16,11.97-.71,5.09-2.45,8.08-7.22,9.73-12.46,1.02-3.21,1.59-6.53,2.32-9.81.76-3.44,1.71-6.81,2.8-10.16,2.11-6.53,4.73-12.89,7.38-19.22,5.28-12.61,10.83-25.35,12.87-38.98,1.81-12.03.71-25.13-5.73-35.71Zm-215.57,48.36c-3.17,11.2-13.02,19.03-23.21,23.9-10.44,5.16-21.96,7.42-33.58,7.79-11.36.39-23.55-.43-33.43-6.46-7.33-4.5-11.95-12.57-11.65-21.26-.02-.72-.03-1.45-.03-2.17,2.8-.18,5.59-.48,8.39-.99,3.27-1,1.89-5.8-1.4-4.96-2.19.58-4.46,1.07-6.74,1.46.92-9.22,4.57-18.3,12.03-24.05,11.15-8.51,27.94-9.77,41.54-8.64,11.51,1.13,23.15,3.7,33.8,8.21,8.35,3.56,13.7,9.41,14.91,17.03-.85.39-1.72.75-2.6,1.03-2.93.81-5.53.39-8.88,1.13-3.64.84-1.94,6.11,1.49,4.69,2.33-1.1,5.92-1.2,8.63-2.34.55-.24,1.09-.48,1.63-.75-.03,2.02-.31,4.14-.9,6.37Zm134.38-4.88c-.1-.02-.21-.04-.3-.08-2.67-.68-5.39-1.23-8.12-1.65-2.87-.44-5.77-.8-8.69-.86-2.92-.06-5.84.26-8.71.74-1.3.21-2.59.46-3.87.75,1.39-.31,2.84-.46,4.25-.6,1.44-.15,2.89-.22,4.33-.25,2.89-.03,5.73.21,8.58.63,1.76.26,3.51.57,5.27.92.52.1,1.03.2,1.54.31.25.06.49.1.74.16.09.06.12.12.11.19,0,.07-.04.13-.08.18l-.02.02s-.02.02-.02.02l-.2.21-.86.91,1.41-.16.42-.04c1.23-.15,2.47-.21,3.7-.18-1.5,3.26-3.74,6.17-6.56,8.51-8.77,7.24-20.52,9.76-31.64,10.95-11.35,1.19-22.86.65-33.74-2.9-10.56-3.32-21.25-9.48-25.93-19.93-.09-.21-.15-.43-.24-.63.33-.09.65-.17.98-.26,1.49-.39,2.27-2.16,1.55-3.53-.63-1.21-2.12-1.68-3.33-1.07-.19.1-.38.18-.57.27-1.95-9.59,2.54-17.69,11.63-23.27,9.71-5.93,20.68-10.05,31.72-12.82,13.06-3.11,29.67-4.18,41.71,2.55,7.86,4.43,12.64,12.42,14.92,20.99-1.75.38-3.51.79-5.27,1.25-1.81.46-1.39,3.15.46,3.08,1.9-.1,3.78-.26,5.67-.44.2,1.12.37,2.25.49,3.37.77,4.33.25,8.68-1.32,12.64Z"/>
  <path class="cls-1" d="m369.27,402.75c-.04.49-1.81.92-2.24,1.08-.83.32-1.68.6-2.54.83-2.66.71-5.42.87-8.15,1.11-2.85.26-5.73.38-8.59.09-2.78-.28-5.43-1.04-8.02-2.06-.33-.13-.66-.23-.99-.34-.16-.06-.3-.1-.45-.16-.44-.16-.85-.3-1.23-.44-.13-.04-.26-.09-.37-.13-.24-.09-.46-.18-.66-.25-.02,0-.03-.01-.04-.02-.18-.07-.35-.12-.53-.19-.08-.03-.15-.06-.21-.09,1.67.55,3.38,1.04,5.09,1.45,0,0,.07.01.07.01,5.46,1.29,11.13,1.73,16.73,1.33,2.01-.14,4.06-.42,6.06-.79,1.04-.2,2.08-.42,3.11-.67.5-.12,1-.25,1.5-.39.42-.11,1.06-.42,1.47-.37Z"/>
  <path class="cls-1" d="m337.06,402.86c.38.13.8.28,1.23.44-.45-.16-.86-.3-1.23-.44Z"/>
  <path class="cls-1" d="m334.72,401.99l5.6,1.64c-1.71-.4-3.41-.9-5.09-1.45.07.03.13.06.21.09-.16-.06-.29-.11-.4-.16-.06-.02-.11-.03-.16-.06s-.09-.03-.12-.04c-.02,0-.03-.01-.04-.02Z"/>
  <path class="cls-1" d="m206.74,420.98s.08-.03.12-.04h0s-.12.04-.12.04Z"/>
  <path class="cls-1" d="m233.86,419.47c-2.02-.25-4.04-.4-6.07-.52-.8,0-1.59,0-2.39-.01-6.05.21-12.07.93-18.02,2.18-.33.07-.48.06-.54,0-.2.04-.42.09-.63.15-.09.02-.11-.06-.02-.08h.02s.03-.01.04-.02c.19-.04.37-.09.56-.13,0-.02.02-.06.04-.08h0s.07-.03.07-.03l1.91-.67,2.07-.74,1.11-.4.08-.02c.2-.06.4-.1.61-.16.13-.09.29-.17.4-.2,2.86-.86,5.8-1.37,8.77-1.53.25-.02.48-.03.73-.04.28,0,.56-.01.83-.01,6.9,0,10.43,2.34,10.43,2.34Z"/>
  <path class="cls-1" d="m222.6,417.14c-.25.01-.48.02-.73.04h-.04c.26-.02.52-.03.77-.04Z"/>
  <path class="cls-1" d="m193.5,418.93c.46-.21,1.4-.66,2.65-1.21-.81.37-1.61.76-2.39,1.19l-.52.16s.06-.03.1-.06c.04-.02.1-.04.16-.08Z"/>
  <path class="cls-1" d="m221.87,413.65c-2.57-.63-8.5-.07-13.05.52h-.01c-1.02.13-1.98.27-2.8.39-.06-.02-.12-.04-.17-.09-.39.09-.79.18-1.18.29-.03,0-.06,0-.09.01-.88.13-1.45.24-1.58.25.92-.33,1.86-.62,2.78-.88,1.16-.31,2.29-.57,3.35-.73.88-.08,1.74-.13,2.62-.17,2.75-.15,5.51-.15,8.27.01.15.01.29.06.38.13.52.04,1.02.09,1.54.15.1.01.01.11-.07.11Z"/>
  <path class="cls-1" d="m204.42,414.8c-.94.43-2.08.6-3.07.91s-2.07.68-3.08,1.1c1.03-.42,2.07-.86,3.13-1.22.93-.32,2.02-.86,3.02-.79Z"/>
  <path class="cls-1" d="m211.77,413.24h-.02c-.88.04-1.74.1-2.62.18.97-.16,1.85-.22,2.64-.18Z"/>
  <path class="cls-1" d="m204.58,414.77c-.26.06-.51.12-.76.2h-.02l-.82.06s.01,0,.02-.01c.13-.01.71-.11,1.58-.25Z"/>
</svg>