<?xml version="1.0" encoding="UTF-8"?>
<svg id="uuid-87ef6f58-8f67-454f-b8f5-fa32f83d44da" data-name="Livello 7" xmlns="http://www.w3.org/2000/svg" viewBox="0 0 400 400">
  <defs>
    <style>
      .uuid-72cca63a-dcc6-4683-aa42-312b0e6b748b {
        fill: #232a56;
      }
    </style>
  </defs>
  <path class="uuid-72cca63a-dcc6-4683-aa42-312b0e6b748b" d="m220.36,13.74c.07.03.16.04.28.04.26,0,.72-.07.93-.23,12.42-9.33,29.17-12.86,44.79-9.46,4.24.92,8.36,2.37,12.26,4.3.42.21,1.06-.17,1.19-.25.06-.04.26-.18.24-.45l-.03-.22-.2-.1c-14.4-7.12-32.2-7.57-47.6-1.19-4.25,1.76-8.27,4.05-11.95,6.82-.14.11-.2.26-.17.46l.07.21.18.08Z"/>
  <g>
    <path class="uuid-72cca63a-dcc6-4683-aa42-312b0e6b748b" d="m267.39,277.47v-.07c0-.21,0-.43,0-.61-.09-2.19-.62-4.27-1.58-6.16l-.02-.09-.02-.05c-.06-.12-.14-.24-.21-.35l-.09-.15c-.47-.82-1-1.57-1.58-2.23-1.04-1.19-2.26-2.18-3.62-2.95-1.01-.57-2.09-.96-3.14-1.33l-.1-.04c-.49-.17-.96-.35-1.42-.53-6.79-2.74-12.17-6.5-15.99-11.2-2.34-2.88-4.03-6.11-5-9.58l-.08-.3-.71.2v.25s.01.07.01.07c.02.09,0,.23-.01.38-.03.21-.06.46.01.71.85,3.03,2.25,5.91,4.17,8.55,2.33,4.24,5.78,7.63,9.95,9.82,1.43.75,3.11,1.43,4.91,2.16,4.52,1.83,9.65,3.9,12.04,7.83l.05.08c.97,1.83,1.53,3.91,1.62,6v.31s.83-.03.83-.03v-.31c-.02-.1-.01-.24-.01-.38Z"/>
    <path class="uuid-72cca63a-dcc6-4683-aa42-312b0e6b748b" d="m166.88,265.86c1.61,1.2,3.14,2.54,4.63,3.85,3.12,2.74,6.34,5.56,10.44,7.15,2.92,1.13,5.98,1.7,9.11,1.7,2.91,0,5.78-.5,8.51-1.48.37-.13.33-.52.27-1v-.04c-.01-.1-.03-.27-.03-.31v-.1s-.04-.02-.04-.02l-.18-.49-.29.1c-5.51,1.98-11.57,1.91-17.05-.21-3.94-1.52-7.1-4.29-10.15-6.96l-.08-.07c-1.48-1.3-3.01-2.65-4.64-3.86l-.24-.18-.45.58.09.12c0,.06-.02.16-.04.28-.06.36-.13.74.16.96Z"/>
    <path class="uuid-72cca63a-dcc6-4683-aa42-312b0e6b748b" d="m222.13,261.55c-.07.03-.13.07-.18.12l-.61.59c-.27.25-.23.58-.06.77.13.14.34.22.57.22.2,0,.38-.06.51-.17,2.25-1.96,4.14-3.81,4.43-6.55.28-2.57-.79-4.89-1.82-7.13l-.06-.13c-.23-.49-.46-1-.67-1.5-.08-.21-.28-.35-.52-.38-.31-.04-.63.08-.79.3-.13.17-.15.37-.07.56.24.56.5,1.14.75,1.68.9,1.94,1.82,3.95,1.76,6.07-.07,2.34-1.6,4.05-3.24,5.55Z"/>
    <path class="uuid-72cca63a-dcc6-4683-aa42-312b0e6b748b" d="m204.78,269.81c1.77-.99,3.14-2.27,4.6-3.63l.16-.15c1.26-.93,2.79-1.57,4.27-2.19l.08-.03c.3-.13.6-.25.89-.38,1.23-.5,2.35-.92,3.61-.94.21,0,.39-.15.44-.36.04-.21-.07-.43-.29-.52-3.38-1.19-6.29,1.01-8.88,2.96l-.72.55c-2.23,1.21-3.74,2.5-4.75,4.04-.13.17-.12.42.04.58.09.09.21.14.33.14.08,0,.16-.02.23-.06Z"/>
    <path class="uuid-72cca63a-dcc6-4683-aa42-312b0e6b748b" d="m110.38,331.02c-8.3-13.62-14.33-28.37-17.92-43.81-2.02-8.69-3.23-17.59-3.6-26.46,0-.2-.12-.38-.3-.47-.31-.16-.76-.07-1.04.11-.24.16-.38.38-.37.63.66,15.87,3.95,31.56,9.79,46.63,5.77,14.91,13.78,28.69,23.82,40.96,1.25,1.53,2.58,3.09,3.96,4.63-.07.12-.07.22-.07.28.81,14.71.52,29.62-.86,44.29-.01.11.02.22.09.31.06.07.17.16.37.18.03,0,.06,0,.1,0,.4,0,1.09-.14,1.13-.66,1.32-14.06,1.65-28.36.96-42.52,4.14,4.48,8.57,8.71,13.18,12.58.33.27.81.13.95.08.19-.07.53-.24.59-.57.03-.19-.04-.37-.19-.49-12-10.08-22.3-22.09-30.6-35.72Z"/>
    <path class="uuid-72cca63a-dcc6-4683-aa42-312b0e6b748b" d="m247.17,369.82l-.04.03c-10.31,8.08-22.53,13.64-35.35,16.07-12.83,2.43-26.33,1.67-39.07-2.22-7.06-2.16-13.81-5.26-20.07-9.22-.15-.1-.35-.12-.59-.07-.26.05-.68.23-.82.45-.13.21-.07.47.13.6,11.59,7.33,24.96,11.75,38.69,12.79,2.03.15,4.09.23,6.13.23,11.14,0,22.53-2.32,32.94-6.7,6.9-2.91,13.4-6.74,19.32-11.37.13-.1.17-.22.18-.31.01-.11-.02-.23-.09-.31-.26-.33-1.08-.14-1.35.02Z"/>
    <path class="uuid-72cca63a-dcc6-4683-aa42-312b0e6b748b" d="m340.67,193.89c.08.14.21.24.39.29.08.02.16.03.25.03.41,0,.89-.22,1-.63,1.76-6.44,1.82-13.23.2-19.63-.76-3-1.67-6.11-3.6-8.27-1.57-1.75-4.42-2.96-6.99-1.49-.27.16-.38.35-.41.49-.04.16-.02.33.06.47.09.16.25.28.45.34.23.06.48.03.7-.1.81-.46,1.65-.56,2.5-.3,1.68.53,3.03,2.32,3.74,3.82,1.03,2.18,1.81,4.71,2.38,7.74,1.04,5.5.79,11.3-.7,16.79-.04.16-.03.32.05.45Z"/>
    <path class="uuid-72cca63a-dcc6-4683-aa42-312b0e6b748b" d="m69.96,221.75l.02-.11c.1-.45.2-.91.41-1.29.14-.25.38-.39.58-.35.19.04.25.24.27.39.02.17.12.31.28.38.3.13.91,0,1.17-.2.25-.18.25-.41.24-.5-.04-.41-.22-.74-.54-.98-.4-.31-1.02-.43-1.66-.33-1.05.17-1.82.85-2.21,1.99-.44,1.28-.67,2.68-.88,4.03l-.07.42c-.04.22-.07.43-.11.65-.34,1.96-.53,3.57-.6,5.06-.16,3.52.47,6.93,1.87,10.15,1.39,3.21,3.34,6.11,5.23,8.92.08.11.23.25.53.25.32,0,.7-.17.85-.27.14-.1.23-.21.26-.35.02-.11,0-.23-.07-.32-2.82-4.2-6.01-8.95-6.78-14.32-.36-2.55-.25-5.3.36-8.93.24-1.4.52-2.84.84-4.29Z"/>
    <path class="uuid-72cca63a-dcc6-4683-aa42-312b0e6b748b" d="m316.99,230.12l.53.6.23-.2c2.33-1.97,4.5-4.35,6.27-6.87.9-1.25,1.71-2.59,2.4-3.96,1.91-3.7,2.94-7.42,3.06-11.06.13-1.83.09-3.66-.12-5.44-.03-.29-.23-.5-.54-.57-.09-.36-.19-.7-.3-1.05-.27-.66-.57-1.3-.89-1.91-.47-.99-1.07-1.9-1.77-2.7l-.2-.23-.08.06c-1.63-1.88-3.58-2.93-5.76-3.12-1.24-.21-2.7.16-3.81.97-.91.66-1.49,1.54-1.61,2.45-.26,1.15.19,2.37,1.39,3.73.01.12.06.22.16.33v.06s.17.08.17.08c.33.31.7.59,1.08.83.07.09.13.17.18.28l.03.06s.03.05.03.05c0,0,0,0,0,0,.08.17.23.29.43.34.12.13.24.26.37.4.15.14.35.23.56.26,1.5,1.6,2.38,3.29,2.64,5.02l.02.13.61-.07v-.13c-.15-1.78-.93-3.55-2.33-5.26.09-.09.18-.21.23-.36.05-.19.03-.39-.09-.56-.16-.24-.34-.46-.48-.63-.02-.17-.12-.32-.27-.44l-.36-.3c-.28-.56-.56-1.12-.85-1.69l-.03-.05s-.02-.03-.02-.04c-.19-.57-.27-1.05-.25-1.46.07-1.32,1.52-1.53,2.94-1.73.43-.06.84-.12,1.19-.21.29-.08.53-.28.65-.53.97.45,1.9,1.14,2.71,2.01l-.06.05.19.24c.59.72,1.15,1.56,1.65,2.52.16.33.29.64.39.89.13.64.25,1.31.35,1.98-.26.19-.38.46-.35.73.05.41.08.8.1,1.09-.36.21-.55.56-.48.91,1.45,8.17-3.65,15.36-8.83,21.3-.25.29-.25.54-.2.71.02.06.05.12.09.18-.05.13-.04.24-.03.31.03.12.12.34.45.45.04.02.09.03.15.04-.43.44-.87.87-1.3,1.28l-.22.21Z"/>
    <path class="uuid-72cca63a-dcc6-4683-aa42-312b0e6b748b" d="m264.65,288.31c-.2-.12-.52-.08-.67.15l.11.07-.12-.07c-3.5,5.55-3.89,12.65-1.03,18.54.07.16.22.25.42.27.17,0,.32-.08.41-.21.09-.13.1-.3.03-.44-2.74-5.63-2.36-12.42.98-17.71.13-.21.07-.47-.14-.6Z"/>
    <path class="uuid-72cca63a-dcc6-4683-aa42-312b0e6b748b" d="m249.29,172.54c1.75.36,3.47.81,5.14,1.33.24.08.52.01.71-.07.11.03.22.05.32.08l.12.03c.18.04.36.09.5.12.16.06.32,0,.4-.08.1-.09.14-.22.1-.36l-.08-.17-.16-.04c-.18-.05-.36-.1-.56-.15.04-.09.05-.18.04-.27-.02-.13-.1-.36-.47-.47-12.45-3.92-26.04-3.38-38.25,1.5-3.3,1.03-6.54,2.32-9.62,3.83-.13.06-.21.17-.22.32l.02.2.16.09c.06.03.12.05.19.05.07,0,.14-.02.17-.04,1.7-.83,3.51-1.61,5.37-2.33,0,.09.01.18.05.27.17.35.73.57,1.28.31,4.56-2.19,9.43-3.72,14.46-4.56,6.76-.88,13.6-.74,20.32.4Z"/>
    <path class="uuid-72cca63a-dcc6-4683-aa42-312b0e6b748b" d="m235.36,201.44l-.07.25.15.17c.08.09.19.14.33.14h.08c12.1-1.92,24.44-2.34,36.7-1.26.09,0,.25-.04.36-.15.09-.09.13-.2.13-.35l-.05-.33-.33-.03c-12.26-1.1-24.68-.67-36.92,1.26-.17.03-.32.15-.38.31Z"/>
    <path class="uuid-72cca63a-dcc6-4683-aa42-312b0e6b748b" d="m250.35,175.87c-.25-.08-.54-.04-.8.12-.08.06-.34.27-.29.58.03.18.16.32.35.38l.06.02c1.9.54,3.86,1.1,5.32,2.4,1.07.96,2.14,2.7,1.62,4.49-.05.15-.03.3.06.42.06.09.15.15.26.19.07.02.15.03.24.03.24,0,.73-.1.85-.49.64-2.18-.51-4.23-1.8-5.41-1.65-1.52-3.88-2.15-5.86-2.71Z"/>
    <path class="uuid-72cca63a-dcc6-4683-aa42-312b0e6b748b" d="m231.13,180.37c-1.27,1.07-2.12,2.45-2.37,3.87-.37,2.1.75,4.22,2.87,5.38.32.18.66.33,1.01.47-2.96-.06-5.82-.64-8.53-1.74-.32-.12-.96.11-1.08.45-.08.2-.01.49.28.61,3.05,1.22,6.31,1.84,9.68,1.84,7.38,0,15.01-2.93,22.08-8.46.16-.13.24-.3.22-.46.06-.05.11-.12.15-.18.15-.27.04-.58-.24-.74-12.02-6.28-26.81-4.36-36.79,4.76-.31.28-.28.65-.08.87.23.26.73.34,1.07.03,3.35-3.06,7.41-5.36,11.78-6.69Zm14.95,1.83c-.26-1.15-.89-2.15-1.81-2.88,3.35.45,6.55,1.43,9.54,2.92-3.04,2.35-6.37,4.28-9.69,5.61,1.35-1.21,2.55-3.06,1.96-5.65Z"/>
    <path class="uuid-72cca63a-dcc6-4683-aa42-312b0e6b748b" d="m153.16,186.58h0s-.01,0-.01,0c-.17-.03-.34.04-.45.17-.1.12-.13.29-.08.44.05.15.19.26.35.29,2.25.39,4.38,1.19,6.33,2.39.07.04.16.07.24.07.11,0,.19-.03.25-.06.15-.08.24-.23.25-.4,0-.16-.08-.3-.21-.38-2.05-1.27-4.29-2.11-6.67-2.52Z"/>
    <path class="uuid-72cca63a-dcc6-4683-aa42-312b0e6b748b" d="m115.13,196.77l.04-.03c4.47-3.67,9.86-6.28,15.63-7.59-1.94,1.23-3.31,3.09-3.66,5.04-.4,2.32.84,4.66,3.18,5.95.52.29,1.08.53,1.67.72-4.92.1-9.74-.7-14.34-2.36-.18-.07-.44,0-.61.08-.1.05-.29.15-.35.31-.03.09-.03.19,0,.27.03.06.09.15.23.2,4.52,1.63,9.27,2.46,14.11,2.46,9.67,0,19.09-3.34,26.51-9.4.18-.15.18-.31.17-.38,0-.09-.05-.22-.21-.31-5.3-2.9-11.39-4.46-17.6-4.5-.64-.03-1.32-.03-2.08,0-.56.04-1.05.09-1.48.14-4.97.41-9.77,1.7-14.27,3.86-2.83,1.36-5.46,3.02-7.8,4.94-.26.21-.18.45-.1.56.2.24.73.17.95.04Zm31.37-4.89l-.13.03.13-.03c-.31-1.36-1.12-2.55-2.25-3.36,4.22.56,8.22,1.81,11.9,3.74-3.83,3.03-8.32,5.38-13.05,6.83,2.8-1.85,4.03-4.43,3.41-7.21Z"/>
    <path class="uuid-72cca63a-dcc6-4683-aa42-312b0e6b748b" d="m272.84,160.59c.4.62.74,1.24,1.03,1.85.16.34.61.39.92.24.28-.14.4-.42.28-.67-1.44-3.05-3.7-5.62-6.56-7.44.17-.07.33-.17.38-.31,0-.02.01-.04.02-.05l.14.05c.28.11.85-.08.97-.38.07-.17,0-.39-.23-.49-9.87-3.92-20.86-4.14-30.92-.61-1.51.24-3.01.54-4.46.87-.21.05-.39.13-.51.25-4.52.82-9.32,1.63-14,1.8-.13,0-.74.17-.73.55,0,.1.04.19.11.25.09.08.22.11.37.09,1.04-.04,2.16-.11,3.3-.22v.02s0,.09.03.13c-.66.06-1.33.11-1.99.17-.16,0-.58.16-.69.39l-.07.18.06.09c-1.39.05-2.81.07-4.25.07-.23,0-.74.21-.74.56,0,.18.12.37.48.37,1.06,0,2.13,0,3.19-.03,0,0-.02.01-.02.02-.19.17-.26.39-.2.59.01.05.05.13.13.2-.61-.11-1.25-.25-1.91-.42-.25-.06-.7.12-.84.27-.14.14-.11.3-.1.35.03.11.12.19.23.23l-.25-.03c-.88-.14-1.79-.32-2.71-.52-.45-.1-.92.1-1.11.19-.39.21-.44.43-.42.58.01.08.07.27.35.33.13.03.27.06.42.08.01.06.03.13.06.19.04.08.1.14.17.2-.1.15-.13.33-.08.49.06.2.23.34.46.38.05,0,.09.02.14.03-.03.06-.05.12-.05.18,0,.06,0,.28.27.39,1.36.55,2.77.99,4.2,1.31-.08.11-.11.23-.09.35.02.15.13.41.65.45.94.07,1.9.11,2.85.11,2.05,0,4.12-.17,6.15-.49,4.65-.32,9.37-1.42,13.93-2.48l.08-.02c1-.23,2-.47,2.99-.69,3.28-.54,6.56-1.08,9.85-1.61,1.81.19,3.57.49,5.24.89.25.06.71-.14.85-.3.03-.04.06-.08.07-.12,2.72.55,5.39,1.36,7.93,2.4.29.12.86-.11.97-.38.04-.09.04-.18,0-.27-.03-.07-.09-.16-.22-.22-.33-.13-.66-.26-.99-.39.21-.03.41-.13.52-.21.18-.14.18-.29.17-.38-.02-.13-.11-.24-.25-.29-.29-.11-.58-.22-.87-.33,1.6.42,3.08.9,4.5,1.47.31.11.66-.04.83-.27Zm-23.97-1.82c-.51.09-1.03.2-1.57.31.24-.1.48-.19.73-.27.28-.01.56-.02.84-.03Zm20.14-.12c.04-.08.07-.16.07-.24,0,0,0-.02,0-.03.21.15.41.31.62.47-.23-.07-.46-.14-.69-.21Zm-4.27-4.82c-1.23-.49-2.5-.88-3.83-1.18,1.31.22,2.57.5,3.79.86,0,.02,0,.04-.01.06,0,.05,0,.15.05.26Zm-11.66-2.59c-2.29.06-4.5.27-6.59.54,2.17-.35,4.38-.53,6.59-.54Zm-9.04,8.47l-.38.06c.13-.03.25-.07.38-.1,0,.01,0,.02,0,.04Zm-10.24-4.9c-.81.14-1.58.26-2.31.37.77-.13,1.54-.27,2.29-.41,0,.01.02.03.03.04Z"/>
    <path class="uuid-72cca63a-dcc6-4683-aa42-312b0e6b748b" d="m62.97,97.29c4.57-5.24,9.58-9.93,14.9-13.94.25-.18.28-.38.26-.52-.02-.17-.14-.31-.3-.38-.29-.13-.9-.06-1.15.13-5.41,4.08-10.5,8.85-15.11,14.16-.1.07-.23.2-.27.44v.07c-3.21,19.86-3.88,40.06-1.98,60.02.54,5.63,1.3,11.39,2.26,17.1.05.29.31.47.66.47.07,0,.14,0,.21-.02.31-.05.58-.2.71-.39.09-.13.13-.28.1-.44-3.36-19.86-4.17-40.05-2.4-60,.49-5.52,1.19-11.14,2.09-16.7Z"/>
    <path class="uuid-72cca63a-dcc6-4683-aa42-312b0e6b748b" d="m310.63,71.11h0s-.02-.03-.03-.05l-.02-.04c-.04-.06-.1-.13-.16-.16-5.97-6.24-12.66-11.56-19.89-15.81-.23-.13-.51-.08-.67-.04-.24.06-.54.21-.67.42-.07.12-.09.26-.06.39.03.1.09.23.26.33,7.11,4.18,13.72,9.45,19.64,15.64,6.92,21.53,11.58,43.82,13.86,66.24.65,6.41,1.12,12.99,1.39,19.57,0,.26.15.47.38.59.12.06.27.1.42.1.2,0,.41-.06.57-.16.23-.15.36-.38.35-.63-.93-22.89-4.28-45.69-9.96-67.74-1.59-6.16-3.39-12.41-5.37-18.56,0-.04-.02-.07-.04-.1Z"/>
    <path class="uuid-72cca63a-dcc6-4683-aa42-312b0e6b748b" d="m283.99,46.24c-.37-.2-.94.06-1.13.17-.22.13-.33.3-.32.48,0,.16.09.31.23.38,6.5,3.53,12.72,7.6,18.51,12.12,2.85,2.22,5.66,4.6,8.34,7.07.11.1.25.21.41.34.34.27.79.64.89.92.04.13.02.41,0,.6v.04c-.01.12-.02.23-.02.33v2.29c0,.15.08.36.32.45.08.03.18.05.3.05.42,0,1.09-.2,1.09-.73v-2.29c0-.09,0-.19.02-.34.02-.29.04-.61-.04-.88-.12-.43-.47-.72-.77-.98-.08-.07-.16-.13-.23-.2-2.77-2.57-5.68-5.06-8.66-7.4-5.91-4.64-12.28-8.82-18.93-12.43Z"/>
    <path class="uuid-72cca63a-dcc6-4683-aa42-312b0e6b748b" d="m272.2,36.41c-.18.07-.49.22-.58.44l-.12.39.38.16c12.51,5.36,24.26,12.49,34.95,21.21.11.08.24.13.4.13.2,0,.41-.07.51-.11.37-.14.56-.32.6-.54.03-.16-.03-.31-.16-.42-10.75-8.77-22.58-15.95-35.17-21.33-.2-.09-.47-.06-.8.07Z"/>
    <path class="uuid-72cca63a-dcc6-4683-aa42-312b0e6b748b" d="m263.45,19.44c-4.82-.25-9.66.05-14.38.88-.39.07-.66.35-.75.6-.08.21-.05.44.09.59.11.13.31.27.71.2,16.21-2.85,33.3.87,46.9,10.21.97.67,1.93,1.37,2.86,2.08l.16.13c.43.33.46.35.54.81l.56,3.24c.04.22.19.39.41.48.09.03.19.05.3.05.26,0,.53-.1.72-.25.21-.17.3-.41.26-.65l-.49-2.88c0-.06-.02-.14-.02-.22v-.06c-.03-.29-.06-.61-.19-.85-.29-.55-1.05-1.03-1.66-1.42-.2-.13-.39-.25-.53-.35-3.42-2.53-7.15-4.73-11.08-6.55-7.62-3.52-16.05-5.61-24.39-6.03Z"/>
    <path class="uuid-72cca63a-dcc6-4683-aa42-312b0e6b748b" d="m290.78,33.37c-6.34-3.62-13.11-5.89-20.13-6.75-.36-.04-.72.17-.9.4-.16.21-.19.45-.11.64.05.13.2.35.59.39,6.72.82,13.22,2.99,19.3,6.43,2.93,1.66,5.76,3.62,8.41,5.82.71.59,1.41,1.2,2.07,1.8.11.1.25.22.41.34l.06.05c.3.23.91.72.98.95.11.34.06.91.02,1.41v.04c-.02.23-.04.48-.04.69,0,.23.1.43.29.55.13.09.3.14.49.14.46,0,.94-.29.94-.76,0-.21.02-.45.04-.72.05-.61.09-1.23-.05-1.77-.13-.48-.57-.85-.99-1.19-.09-.08-.18-.15-.26-.22-.66-.62-1.34-1.23-2.04-1.82-2.84-2.43-5.9-4.59-9.09-6.41Z"/>
    <path class="uuid-72cca63a-dcc6-4683-aa42-312b0e6b748b" d="m282.93,35.35c-.32-.15-.78-.02-1.07.18-.29.2-.33.42-.32.57.01.11.07.33.35.46,5.19,2.43,10.14,5.42,14.71,8.89,2.16,1.64,4.39,3.54,6.82,5.79.64.6.98,1.52,1.3,2.41.1.27.2.55.31.82.11.26.37.42.71.42.15,0,.31-.03.46-.09.42-.17.62-.53.48-.88-.1-.25-.19-.51-.32-.88-.31-.91-.63-1.84-1.27-2.49-2.13-2.16-4.58-4.12-6.68-5.75-4.78-3.71-9.99-6.89-15.47-9.45Z"/>
    <path class="uuid-72cca63a-dcc6-4683-aa42-312b0e6b748b" d="m94.51,61.03c-10.61,4.47-20.57,11.51-29.62,20.93-2.52,2.62-5.03,5.51-7.47,8.59l-.03.04-.08.35,1.45,1.87c.09.12.23.2.4.22.41.05.9-.21,1.02-.31l.05-.04h0c.2-.2.18-.44.07-.6l-.6-.78c-.04-.06-.13-.15-.24-.27-.21-.22-.31-.34-.36-.41.06-.08.2-.26.53-.6l.03-.04c.07-.08.13-.14.16-.17.32-.39.64-.78.96-1.17.63-.75,1.26-1.5,1.89-2.22,2.32-2.66,4.75-5.19,7.22-7.52,5.1-4.82,10.51-8.95,16.08-12.26,2.23-1.32,4.58-2.55,7-3.67-1.61,2.04-3.13,4.11-4.53,6.18-9.29,13.68-14.93,29.2-16.75,46.1-2.08,19.27.42,38.66,3.16,56.87.33,2.22.68,4.44,1.02,6.66l-5.06,10.5c-.12.24-.03.53.21.65.07.04.15.06.23.06.18,0,.34-.09.43-.25l5.83-10.46c.08-.14.11-.29.1-.45,0-.05,0-.09,0-.15-2.82-18.24-5.74-37.1-4.78-56.15.49-9.68,2.01-18.72,4.52-26.87,2.19-7.11,5.3-14.08,9.24-20.72,7.51-12.66,18.12-24.14,30.67-33.2,7.12-5.14,15.03-9.57,23.5-13.16.26-.02.53-.13.71-.3,6.71-2.79,13.78-5.07,21.02-6.77,16.6-3.9,34.33-4.97,52.72-3.17,2.11.2,4.31.46,6.55.76.33.03.67-.13.83-.31,8.6-5.84,18.45-9.26,28.48-9.91,9.7-.63,19.48,1.3,28.32,5.55,1.24.59,2.45,1.23,3.62,1.9.22.13.46.26.71.39l.17.09c.88.47,1.89,1,2.54,1.63.53.51,1.02,1.17,1.49,1.81l.05.07c.21.29.44.6.67.89.32.41,1.04.19,1.34-.05.32-.25.29-.59.13-.79-.23-.29-.46-.6-.71-.93-.48-.64-.97-1.3-1.54-1.87-.53-.53-1.25-.92-1.93-1.3-.23-.13-.46-.25-.67-.38-1.14-.68-2.32-1.34-3.51-1.95-4.66-2.38-9.61-4.13-14.71-5.2-9.89-2.08-20.24-1.53-29.92,1.58-5.3,1.71-10.43,4.19-15.23,7.4-18.45-2.42-36.38-2.02-53.32,1.18-9.63,1.82-18.9,4.56-27.56,8.14-7.99-5.64-18.12-8-27.79-6.49-.26.04-.5.19-.65.4-.12.17-.17.35-.15.52.02.14.1.28.22.37.15.11.35.15.61.11,8.98-1.41,18.44.72,26.01,5.84-1.8.77-3.59,1.6-5.34,2.45,0,0,0,0,0,0-7.36-3.7-14.92-5.7-22.47-5.95-7.48-.25-14.98,1.22-22.35,4.35-.3.13-.47.31-.5.55-.02.19.06.38.23.5.2.15.58.24.95.08,7.16-3.04,14.46-4.44,21.69-4.14,6.94.28,13.92,2.12,20.76,5.46-1.92.97-3.83,2-5.67,3.06-.08-.04-.18-.06-.28-.08-15.74-1.8-32.21,1.25-46.4,8.58-3.94,2.04-7.74,4.43-11.31,7.11-.33.25-.33.53-.32.63.02.23.18.42.42.52.27.12.67.13.98-.1,12.29-9.24,27.58-14.81,43.06-15.68,3.88-.22,7.83-.14,11.76.24-1.13.68-2.14,1.3-3.08,1.91-1.67,1.08-3.41,2.28-5.48,3.79-.16-.21-.43-.2-.56-.2-15.99.77-31.49,5.92-44.84,14.89-3.71,2.49-7.26,5.31-10.56,8.38-.14.11-.21.28-.18.52l.64,2.32c.02.09.14.38.59.38.16,0,.31-.03.41-.06.76-.21.71-.65.67-.77l-.32-1.16c-.02-.07-.04-.15-.07-.22v-.04c-.06-.15-.11-.31-.13-.44-.01-.08-.02-.15-.03-.19.04-.04.1-.09.14-.13l.17-.15c1.36-1.21,2.9-2.58,4.49-3.83,3.28-2.6,6.82-5,10.51-7.12,7.43-4.26,15.43-7.37,23.77-9.25,4.52-1.02,9.2-1.66,13.92-1.91-3.51,2.63-6.79,5.35-9.74,8.1-15.07,1.06-30.04,8.39-42.17,20.64-.89.9-1.77,1.82-2.6,2.74-.43.47-.86.95-1.26,1.43-.08.1-.21.22-.37.37-.4.38-.85.82-.96,1.25-.09.35.01.73.11,1.07l.05.19c.02.06.03.12.04.17l.34,1.55c.04.19.18.34.39.41.32.11.83-.01,1.1-.26.17-.16.24-.36.2-.56l-.23-1.02c-.02-.12-.07-.26-.12-.43l-.02-.06c-.08-.25-.24-.73-.21-.89,0-.02.06-.11.41-.47.08-.08.15-.16.19-.21.33-.38.66-.77,1-1.15.69-.78,1.41-1.57,2.16-2.35,2.9-3.05,6.02-5.85,9.27-8.32,6.44-4.91,13.31-8.48,20.43-10.61,3.51-1.05,7.14-1.76,10.78-2.09-3.12,3.01-6.07,6.19-8.78,9.48Z"/>
    <path class="uuid-72cca63a-dcc6-4683-aa42-312b0e6b748b" d="m257.81,14.68c-2.17.02-4.44.23-6.75.61-.46.07-.92.15-1.41.24l-.32.06c-6.89,1.37-13.36,4.43-18.7,8.86l-.69.49c-.19.13-.3.29-.33.46-.01.08,0,.17.02.24l.06.22.14.06c.07.05.15.09.18.1,16.02,7.55,30.21,20.68,41.04,37.97,10.04,16.03,17.04,35.51,21.42,59.56,2.45,13.45,3.83,26.71,4.86,37.92.01.12.07.22.16.3.14.11.31.11.37.11.05,0,.11,0,.15,0l14.09-1.06c.12,0,.79-.18.94-.5.07-.14.05-.3-.03-.43-.16-.22-.42-.21-.58-.2l-13.45,1.01c-2.02-21.91-4.91-45.19-12.25-67.05-6.78-20.21-16.77-37.08-29.69-50.14-7.59-7.68-16.07-13.8-25.2-18.2,3.77-2.64,7.84-5.33,12.46-6.98,7.93-2.83,17.01-3.03,26.99-.6,7.05,1.72,14.41,4.66,22.51,9,.31.17.76.05,1.04-.12.34-.21.38-.46.37-.58,0-.12-.05-.33-.32-.48-13.84-7.42-25.45-10.89-36.45-10.89-.22,0-.43,0-.65,0Z"/>
    <path class="uuid-72cca63a-dcc6-4683-aa42-312b0e6b748b" d="m147.3,257.46c.17-.26.12-.59.08-.79.08-.47.1-.81-.25-.95-.2-.06-.39.01-.51.19l-2.09,3.15c-1.38,2.04-2.95,4.26-4.21,6.05l-.05.08c-2.2,3.12-4.47,6.36-6.28,9.18l-1.02,1.59c-.55.85-1.09,1.71-1.63,2.56-.7,1.1-1.35,2.2-1.69,3.47-.55,2.11.14,4.77,2.5,5.56.07.02.14.03.22.03.35,0,.7-.24.79-.54.05-.14.04-.29-.03-.42-.05-.1-.15-.23-.37-.3-.7-.23-1.2-.65-1.49-1.24-.43-.88-.41-2.17.06-3.55l14.25-21.5c.57-.83,1.02-1.51,1.42-2.14l.29-.44Z"/>
    <path class="uuid-72cca63a-dcc6-4683-aa42-312b0e6b748b" d="m110.06,216.44c.08,0,.17-.02.24-.06.1-.06.21-.11.37-.19.58-.32,1.19-.62,1.84-.92.27-.12.56-.25.88-.38l.77-.32c.69-.29,1.47-.56,2.37-.85.27-.09.57-.16.86-.23.45-.11.98-.25,1.41-.43.07-.02.14-.04.19-.04h.02s.4-.09.4-.09h0c.15-.05.31-.08.46-.12.02,0,.05.02.09.03l.09.02h.07c.66-.11,1.41-.21,2.19-.32,3.51-.45,8.11-.89,10.08-.41h.08c.23,0,.48-.16.5-.44,0-.2-.13-.42-.4-.45-.36-.04-.72-.07-1.11-.11-.12-.06-.26-.1-.41-.12-2.09-.12-4.23-.12-6.36-.01h-.1c-.63-.04-1.35,0-2.15.14h-.05c-.77.13-1.62.31-2.61.58-.67.19-1.34.4-1.98.62-.06.01-.12.03-.23.07-.23.07-.47.16-.77.27l-.34.13c-2.2.69-4.34,1.6-6.38,2.69l-.03.02.07.12-.11-.1-.04.02s-.04.02-.07.04l-.06.03c-.15.08-.24.23-.24.39s.08.29.22.38c.07.04.15.06.23.06Z"/>
    <path class="uuid-72cca63a-dcc6-4683-aa42-312b0e6b748b" d="m126.19,183.56h0c1.96-.62,4.01-1.13,6.1-1.53-.04.18,0,.36.11.49.17.2.44.27.84.2,10.33-1.77,20.99-.84,30.84,2.7.14.05.31.06.51.02.57.24,1.18.5,1.79.79.06.03.12.04.19.04.15,0,.28-.08.34-.11l.19-.15-.04-.46-.21-.1c-.43-.2-.86-.39-1.21-.54.09-.11.13-.23.13-.35,0-.09-.02-.39-.4-.52-5.12-1.84-10.48-3.02-15.91-3.49-7.91-.92-16.06-.15-23.56,2.21-.17.05-.28.17-.31.33l-.04.23.17.15c.14.13.34.14.48.09Z"/>
    <path class="uuid-72cca63a-dcc6-4683-aa42-312b0e6b748b" d="m159.09,169.43h0s.08-.08.12-.12l.66-.11c.21-.03.9-.16,1-.63.03-.15,0-.3-.12-.41-.22-.21-.62-.18-.76-.14h0s-2.5.4-2.5.4c-.01-.03-.03-.06-.05-.09.11-.05.21-.11.28-.19.17-.17.16-.34.13-.43-.02-.09-.1-.24-.35-.31-1.77-.47-3.63-.9-5.53-1.29-.16-.41-.65-.51-1.09-.42-.12.02-.24.04-.36.06l-.21.03c-.22-.04-.43-.08-.65-.13h-.05c-9.6-2.32-19.46-2.96-29.28-1.92-4.33.02-8.62.56-12.77,1.6-.14.04-.26.09-.34.17-.12.11-.17.27-.13.42,0,0,0,0,0,0-.23.08-.54.24-.51.51,0,.03,0,.05.01.07,0,0-.02,0-.03,0-.24.06-.42.19-.47.38-.04.14,0,.29.09.4.12.13.3.18.52.15.07.07.17.11.36.12-.64.18-1.22.35-1.75.53-.21.07-.35.2-.41.37,0,0,0,0,0,.02-.23.08-.31.23-.34.32-.05.14-.02.3.08.41.04.04.08.07.12.1-1.53.51-3.03,1.08-4.47,1.69-.47.21-.36.53-.33.6,0,.02.02.04.04.06-.21.1-.44.27-.34.55.04.13.18.28.56.28.26,0,.54-.07.62-.09.44-.14.87-.26,1.35-.39l.13-.04c1.42-.32,2.71-.57,3.93-.77,1.05-.13,2.12-.26,3.26-.38-.09.12-.11.25-.08.36.06.21.3.38.69.27,1.45-.39,2.98-.71,4.56-.93,11.31,1.38,22.79,1.99,34.15,1.8,0,0,.79-.14.78-.55,0,0,0,0,0-.02,1.54-.11,2.96-.29,4.33-.56.25-.05.5-.23.57-.44.04-.11.03-.22-.03-.31.58.02,1.14.04,1.72.05.24,0,.56-.17.67-.35.06-.1.08-.21.05-.32.35-.02.71-.04,1.06-.06.32-.02.78-.07,1.09-.32Zm-2.62-1.17c-.13.05-.27.1-.4.14l-.33.12c-.14-.04-.29-.08-.44-.12.21.02.45-.08.6-.21.02-.02.04-.04.06-.05l.19.05.33.08Zm-1.44.06c-.06-.01-.11-.03-.17-.04,0,0,0,0,0,0l.09.03s.05.01.07.02Zm-2.06,2.11s.05-.04.07-.06c.07,0,.14,0,.21,0-.1.02-.19.03-.29.05Zm-37.89-2.11h0s0,0,0,0h0Zm4.18,1.79c4.33-.18,8.71.17,13.52.62.28.07.57.13.86.19.09.14.23.24.42.28.05.01.11.02.16.03-4.97-.22-9.99-.6-14.95-1.12Z"/>
    <path class="uuid-72cca63a-dcc6-4683-aa42-312b0e6b748b" d="m158.49,173.04c2.37.31,4.61,1.25,6.49,2.72.21.16.55.1.74.03.03.04.05.09.08.14.06.1.21.28.55.28.17,0,.4-.05.58-.17l.69.99-.48-1.2s0,0,0,0c.07-.12.08-.26.04-.4.14-.07.29-.18.37-.34.07-.14.08-.3.02-.45l-1.23-3.03c-.15-.37-.56-.45-.86-.36-.17.05-.41.18-.52.4-.07.14-.08.3-.02.45l.34.84c-.89-.88-1.91-1.6-3.04-2.12-.29-.13-.63-.04-.84.09-.08.05-.33.23-.32.53,0,.18.12.34.3.42.9.42,1.72.97,2.46,1.64-1.48-.77-3.09-1.28-4.73-1.49-.23-.03-.49.02-.69.13-.37.2-.36.46-.34.56.03.15.15.33.4.37Z"/>
    <path class="uuid-72cca63a-dcc6-4683-aa42-312b0e6b748b" d="m153.79,309.77v-.03c-.06-.09-.17-.24-.44-.28-.25-.01-.7.09-.89.33-.1.14-.13.31-.06.46,3.68,8.68,12.33,15.24,23.73,18,4.76,1.15,9.75,1.74,14.86,1.74,5.62,0,11.3-.71,16.9-2.1,5.92-1.47,11.63-3.73,16.97-6.7.08-.04.33-.18.33-.46,0-.15-.08-.29-.22-.38-.26-.15-.72-.06-.88.03-9.22,5.14-19.67,8.06-30.23,8.45-8.48.31-20.59-.69-30.13-7.25-4.55-3.12-7.99-7.21-9.95-11.83Z"/>
    <path class="uuid-72cca63a-dcc6-4683-aa42-312b0e6b748b" d="m250.02,295.25c-.22-.14-.59-.07-.67-.05-.18.04-.33.11-.44.22l-.08.1c-4.22,6.75-9.6,12.61-15.98,17.39-.17.13-.24.28-.22.46.02.16.12.29.28.35.08.03.17.05.29.05.21,0,.49-.05.64-.17,6.51-4.88,12-10.86,16.32-17.77.12-.21.06-.47-.14-.59Z"/>
    <path class="uuid-72cca63a-dcc6-4683-aa42-312b0e6b748b" d="m253.13,285.96h0c-.23-.08-.55-.01-.55-.01l-1.76.4-.79.21c-1.24.29-2.5.5-3.6.67-1.56.25-3.1.51-4.58.76-2.06.35-4.12.72-6.08,1.09l-.28.02c-.1,0-.2.01-.29.02-.44.03-2.13.43-3.72.81l-.16.04s-.08,0-.11.02c-.02,0-.05,0-.06.01-6.9,1.22-14.31,2.5-21.78,3.62-7.94,1.19-14.45,1.65-20.53,1.45-3.59-.12-7.24-.43-10.77-.73h-.07c-2.77-.24-5.64-.48-8.48-.64-8.4-.45-14.72.1-20.49,1.78-.15.04-.26.1-.35.18-.11.03-.21.06-.32.09-.1.03-.27.11-.4.26-.23.07-.47.15-.71.23-.37.14-.45.36-.45.53,0,.16.09.37.32.45l11.83,6.27c.27.19.83.1,1.08-.11.19-.16.24-.4.14-.62-.57-1.12-1.22-2.38-1.31-3.69-.06-.93.2-1.83.71-2.44,2.05.48,4.16.92,6.28,1.29.02.66.04,1.32.06,1.98l.02.41.25.13.17.03c.26,0,.47-.2.47-.46l-.06-1.93c2.7.46,5.38.83,7.99,1.1l.32,4.36.02.25.2.09c.15.08.36.06.5-.06.12-.1.18-.26.15-.38-.09-1.3-.18-2.61-.28-3.92l-.02-.25c2.93.28,5.91.47,8.87.55l.35,6.84.09.34h.35c.26-.03.45-.22.45-.47l-.34-6.7c3.96.08,7.99-.04,11.98-.35l.23,5.61c.01.23.2.4.44.4h.05c.24-.04.41-.23.4-.46l-.23-5.62c4.04-.34,8.09-.88,12.05-1.61l.29,4.24.02.23.21.1c.15.07.33.05.49-.06l.18-.15-.31-4.54c.92-.17,1.75-.34,2.53-.51,2.08-.44,4.28-.97,6.71-1.63.15,1.88.2,3.78.13,5.67l.02.27.41.12c.26,0,.46-.19.46-.42.06-1.93,0-3.91-.15-5.88,2.45-.69,4.94-1.46,7.38-2.31.03.92,0,1.82-.09,2.66l-.07.25.18.17c.15.14.36.13.49.08.16-.07.27-.22.26-.34.12-1.04.16-2.09.1-3.12.23-.1.38-.29.43-.51.04-.21-.04-.41-.2-.54-.18-.15-.43-.18-.68-.08-17.57,6.27-36.68,8.45-55.24,6.33-2.82-.32-5.7-.76-8.55-1.29l-.09-.03c-2.18-.64-4.72-1.32-7.37-1.62,6.58-.61,13.29-.04,19.81.52h.08c3.49.3,7.1.61,10.64.73,11.4.38,22.81-1.65,33.86-3.62h.05c1.67-.31,3.33-.6,4.99-.89,1.15-.2,2.31-.4,3.48-.6.09-.02.17-.03.22-.04.03,0,.06,0,.09-.01l.4-.05c.68-.09,1.52-.2,2.25-.28.76-.09,1.37-.15,1.6-.16h.16c1.72-.02,3.5-.04,5.2.38.72.18,1.63.46,2.29.98.37.29.54.62.53.99-.03.94-1.14,2.17-3.3,3.65-2.28,1.56-4.7,3.03-7.2,4.37-.37.18-.42.44-.42.58,0,.3.24.54.6.58.19,0,.34-.07.46-.14,2.62-1.39,5.17-2.95,7.58-4.63,2.29-1.59,4.55-3.36,6.7-5.26.99-.88,1.89-1.72,2.75-2.55.53-.51.94-.94,1.35-1.36l.04-.04c.2-.21.39-.41.56-.59l.12-.11c.37-.33.55-.51.61-.68.08-.12.1-.25.07-.38-.04-.15-.15-.27-.31-.33Z"/>
    <path class="uuid-72cca63a-dcc6-4683-aa42-312b0e6b748b" d="m179.62,313.71s.06.05.09.06c.1.06.19.08.25.09l.18.04c.86.29,1.81.54,2.98.79,2.97.74,6.24.87,8.75.89h.36c1.98,0,4.01-.14,6.05-.43.86-.12,1.74-.27,2.7-.46.29-.06.58-.12.88-.18,4.38-.94,8.74-2.25,12.96-3.52l.12-.04c1.23-.37,2.21-.7,3.08-1.03.55-.21,1.04-.41,1.5-.62l.21-.08c.17-.07.34-.14.51-.25.05-.03.1-.07.15-.11.09-.08.2-.19.24-.36.06-.28-.1-.56-.4-.71-.66-.32-1.36-.05-1.94.17-2.02.78-4.19,1.2-6.28,1.6l-.71.14c-4.29.83-8.73,1.7-13.29,2.13-4.89.46-9.28.45-13.44-.04h-.03c-1.82-.3-3.86-.68-6.06-1.12-.81-.2-1.63-.43-2.43-.68-.42-.13-.75.07-.89.32-.16.29-.07.65.21.89.57.47,1.11.88,1.67,1.24.76.5,1.61.92,2.59,1.28Z"/>
    <path class="uuid-72cca63a-dcc6-4683-aa42-312b0e6b748b" d="m331.33,157.13c-4.73.64-8.51,3.75-11.88,7.06-.09-.28-.26-.54-.49-.75-.46-.42-1.24-.66-2.03-.1-5.45,3.99-11.38,7.46-17.12,10.82l-.95.56c-.69.4-1.37.81-2.06,1.21-.45.26-1.19.69-2.09,1.21-1.82,1.07-4.09,2.39-5.03,2.89-.34.18-.71.25-1.21.36l-1.93.38c-1.81.35-3.68.72-5.53,1.1-.05-.19-.1-.38-.15-.56-2.08-7.26-6.55-13.26-12.28-16.44-10.29-5.65-24.01-4.22-33.72-2.02-9.49,2.33-18,5.71-25.31,10.06-7.99,4.77-11.56,11.8-10.07,19.79-1.82.57-3.92.79-6.09.66-1.69-.04-3.36-.6-4.97-1.13-2.11-.71-4.3-1.44-6.71-1.1-1.85.23-3.56.97-5.17,1.73-1.03-4.91-4.09-8.81-9.35-11.92-5.26-3.11-11.98-4.89-16.58-5.95-10.21-2.4-19.26-3.13-27.67-2.22-11.82,1.28-20.15,5.36-24.76,12.11-2.89,4.06-4.66,9.08-5.25,14.92-4.06.54-7.86.53-11.29-.04-3.69-.94-6.21-3.78-8.87-6.79-.36-.4-.71-.81-1.07-1.2-1.95-2.33-4.47-5.43-6.72-8.75-.64-.96-1.62-.97-2.3-.55-.44.27-.85.81-.86,1.45-2.05-.61-5-1.19-7.7.34-3.67,2.07-2.77,6.16-2.04,9.45l.04.16c1.18,5.26,1.2,10.72,1.23,16.01.02,3.73.04,7.58.46,11.37.92,8.2,4.28,15.77,7.52,23.1,3.2,7.23,6.51,14.7,7.43,22.74.09.79.15,1.6.21,2.38v.1c.26,3.45.52,7.01,2.81,9.77,2.75,3.29,7.27,3.96,10.89,4.49.32.05.99-.22,1.16-.43.1-.12.13-.28.07-.44-.06-.15-.19-.25-.36-.27-3.16-.47-6.75-1.01-9.31-3.19-2.68-2.29-3.18-5.9-3.48-9.41-.36-4.34-.91-7.68-1.8-10.8-1.11-3.91-2.62-7.62-3.81-10.41-.67-1.58-1.38-3.17-2.07-4.71l-.04-.1c-2.26-5.08-4.59-10.33-6.09-15.78-1.72-6.22-1.79-12.71-1.86-18.98v-.2c-.02-1.72-.04-3.5-.1-5.26-.08-2.67-.26-4.99-.57-7.09-.15-1.04-.38-2.1-.61-3.12v-.03c-.25-1.09-.5-2.22-.65-3.35-.18-1.43-.17-4,1.9-5.19,2.39-1.38,5.39-.25,7.83.68,2.07,2.18,4.14,4.59,6.71,7.82.32.39.64.78.98,1.2,2.09,2.56,4.24,5.21,7.26,6.98,3.38,1.97,7.36,2.1,11.21,2.23l.48.02c1.06,0,2.13-.02,3.18-.06,0,.42,0,.83,0,1.23-.34,14.5,12.35,21.49,23.33,23.07,14.96,2.12,29.16.17,41.07-5.64,5.75-2.8,13.34-7.76,17.29-15.56-.39,7.7-.43,15.51-.1,23.22-4.38,4.93-8.9,10.04-12.65,15.73-4.21,6.4-4.95,11.26-2.28,14.87l.18.27.66-.49-.14-.22s0-.1.04-.27c.05-.27.12-.6-.07-.87-3.21-4.32.73-9.72,3.61-13.67l.51-.71c3.32-4.62,7.22-9.02,10.38-12.57.11.1.27.16.47.16.41-.02.83-.29.82-.71-.48-9.54-.39-19.31.27-29.05l.02-.05c.02-.06.04-.11.05-.17.5-2.1.75-4.11.74-5.97l.23-.12c1.06-.58,2.07-1.12,3.1-1.54,2.64-1.16,5.14-.24,7.79.73,1.62.59,3.29,1.2,5.01,1.33.45.06.92.1,1.29.14,1.85,6.07,4.16,12.09,6.87,17.87.17.38.64.4,1.02.23.39-.18.46-.51.35-.75-2.6-5.57-4.85-11.38-6.67-17.27,1.63.04,3.22-.08,4.75-.34.05.15.11.3.17.45,4.2,9.67,13.93,14.51,21.35,16.87,15.56,5.02,30.74,2.57,40.72-.38,8.35-2.48,15.03-7.68,17.91-13.93l3.56.61c.53.08,1.21-.37,1.33-.86.06-.28-.04-.67-.56-.83-1.14-.34-2.35-.59-3.59-.75.32-.95.56-1.9.72-2.84.44-2.76.33-5.71-.34-9.25,2.44-.28,4.89-.65,7.27-1.09h.05c.64-.14,1.53-.32,2.24-.69,4.26-2.37,8.28-5.23,12.18-8l.19-.14c1.59-1.13,3.24-2.3,4.87-3.41,3.8-2.64,6.77-4.58,9.61-6.28.36.17.95.05,1.19-.18l.04-.04c3.25-3.27,6.93-6.98,11.71-7.63,5.41-.74,8.94,3.63,10.56,6.31,5.44,8.98,5.45,19.38,4.5,26.53-1.27,9.53-4.74,18.36-8.82,28.09-3.76,8.99-7.65,18.28-9.77,28.34-.95,4.54-2.14,10.2-6.27,13.41-1.83,1.44-3.67,2.02-5.61,1.81-1.57-.17-3.11-.32-4.72-.22.38-5.97.37-12.01-.04-17.95-.01-.2-.13-.38-.32-.47-.32-.16-.77-.05-1.04.13-.24.16-.36.39-.35.63.92,13.48-.21,27.08-3.35,40.44-.18.8-.39,1.6-.6,2.38l-.2.76c-.49,1.78-1.03,3.68-1.7,6.01-3.08,10-7.27,19.61-12.45,28.58-3.85,6.65-8.31,13.02-13.24,18.92-.13.16-.19.32-.17.48.02.2.14.32.19.36.15.13.38.19.65.17.29-.02.54-.14.69-.31,7.88-9.42,14.47-19.89,19.59-31.15-.58,2.29-1.07,4.42-1.51,6.47-2.5,11.79-3.46,24.12-2.85,36.64.43,8.66,1.55,17.89,3.43,28.23.04.22.24.48.66.48.06,0,.13,0,.21-.02.47-.08.9-.39.83-.85-3.2-17.54-4.24-32.06-3.27-45.67.69-9.66,2.61-19.88,6.04-32.18.7-2.52,1.46-5.15,2.14-7.47l.78-2.69c.8-2.61,1.42-4.8,1.94-6.88v-.04s.04-.09.03-.1c1.65-6.56,2.83-13.23,3.5-19.82.13-1.31.24-2.64.32-3.78.99-.04,2,.04,2.9.11,2.05.16,4.17.32,6.26-.68,3.66-1.76,6.29-5.12,7.83-9.99.6-1.89,1.01-3.83,1.4-5.71.14-.67.28-1.34.43-2,.57-2.57,1.3-5.23,2.18-7.91,1.63-5.05,3.65-9.98,5.76-15l.67-1.61c3.89-9.26,7.91-18.84,9.42-28.99,1.61-10.73,0-20.75-4.54-28.21-3.06-5.03-7.34-7.46-12.07-6.82Zm-72.07,39.2c-.5.08-1,.17-1.54.28h0s-.3.04-.3.04c-1.34.23-1.41.29-1.52.52l-.21.56h.64s.06-.01.06-.01c1.02-.23,2.09-.34,3.28-.46,1.08-.11,2.21-.17,3.35-.19.09,0,.18,0,.27,0,2.03,0,4.12.16,6.37.49,1.26.18,2.6.42,4.1.72l.1.02c.37.07.74.14,1.1.23.04,0,.08.02.12.03l-1.36,1.43,2.54-.28c.75-.09,1.51-.14,2.2-.14-1.15,2.27-2.78,4.32-4.74,5.94-7.21,5.95-16.9,7.66-24.53,8.47-9.71,1.02-18.53.26-26.23-2.25-6.99-2.2-16.13-6.64-20.04-15.36,0-.02-.02-.04-.02-.06.11-.03.22-.06.33-.09.68-.18,1.23-.66,1.52-1.32.29-.66.27-1.4-.05-2.02-.58-1.12-1.97-1.58-3.12-1.03-1.18-6.84,2.01-12.97,9.01-17.27,6.98-4.26,15.29-7.62,24.7-9.98,7.55-1.8,21.79-3.94,32.34,1.95,5.34,3.01,9.37,8.61,11.37,15.76-1.47.33-2.62.6-3.71.89-.97.25-1.3,1.11-1.2,1.81.1.67.64,1.4,1.6,1.4h.08c1.21-.07,2.51-.16,4.08-.31.13.77.24,1.53.32,2.26.55,3.09.24,6.31-.89,9.33-2.05-.52-4.16-.95-6.28-1.27-2-.31-4.38-.62-6.85-.68-2.02-.05-4.28.14-6.89.58Zm-156.27,3.73c-.31-1.1-1.37-2.1-2.97-1.69-1.48.39-3.06.74-4.7,1.04.89-7.72,4.15-14.11,9.2-17.99,9.6-7.33,24.31-7.33,32.21-6.68,9.69.95,18.55,3.1,26.33,6.39,6.44,2.75,10.37,7.14,11.37,12.71-.63.28-1.17.49-1.69.66-1.16.32-2.25.39-3.42.46-1.09.07-2.22.14-3.51.42-.98.23-1.63.83-1.84,1.69-.22.87.1,1.86.78,2.45.67.58,1.56.69,2.49.3.89-.42,2.03-.65,3.26-.89,1.18-.24,2.41-.48,3.48-.93.23-.1.46-.2.68-.3-.07,1.39-.3,2.8-.66,4.21-2.66,9.42-11.23,15.23-17.94,18.44-7.49,3.7-16.27,5.74-26.11,6.05-7.82.27-17.84-.05-25.93-4.99-5.72-3.51-9.14-9.76-8.92-16.3-.01-.42-.02-.86-.02-1.3,2.25-.16,4.3-.41,6.27-.76,1.57-.48,1.96-1.88,1.65-2.97Z"/>
    <path class="uuid-72cca63a-dcc6-4683-aa42-312b0e6b748b" d="m246.86,202.98h-.02c-.11.05-.21.08-.3.11-.39.1-.78.2-1.17.3-.82.2-1.63.37-2.42.52-1.58.3-3.16.5-4.69.61-4.39.32-8.76-.04-12.98-1.04l-5.99-1.75,1.19,1.15c.07.07.16.12.24.13.04.02.07.03.15.05l.09.03c.07.03.15.06.24.09.07.03.15.05.21.08l.14.05s.08.05.13.06c.1.03.2.07.35.13l.12.05c.08.03.18.07.3.11.29.11.62.22.96.34.07.03.15.05.21.08l.14.05c.06.02.13.04.22.07l.08.03c.16.05.31.1.47.16,2.29.9,4.38,1.44,6.39,1.64.88.09,1.78.13,2.75.13,1.2,0,2.53-.07,4.05-.2l.92-.08c1.82-.15,3.71-.31,5.53-.8.68-.18,1.37-.41,2.03-.66.06-.02.14-.05.25-.08h.04c.98-.32,1.68-.57,1.72-1.11l.03-.39-.39-.04c-.29-.04-.62.07-.99.19Z"/>
    <path class="uuid-72cca63a-dcc6-4683-aa42-312b0e6b748b" d="m133.7,214.04c-.08,0-.16,0-.24,0h-.08c-.11,0-.21,0-.34,0l-3.36.15.45.11c-1.59.21-3.14.54-4.62.99-.11.03-.24.09-.37.17l-.2.05c-.07.02-.14.04-.23.06h-.04c-.08.03-.16.05-.2.07-.11.02-.22.05-.34.09-.08.02-.2.07-.26.12-.06.03-.11.06-.14.08l-1.54.55-.17.03-.69.25c-.26.09-.49.18-.69.26-.04,0-.07.02-.1.03l-.31.08v.05s-.12.03-.12.03c-.25.06-.39.3-.34.54.05.19.23.32.43.32.05,0,.09,0,.13-.02.11-.03.22-.05.33-.08h.02c.14.03.3.02.54-.03,4.58-.96,9.29-1.53,14.01-1.7.47,0,.94,0,1.4,0h.45c1.77.1,3.31.23,4.72.4l1.72.21-1.44-.96s-2.95-1.89-8.38-1.89Z"/>
  </g>
</svg>