<?xml version="1.0" encoding="UTF-8"?>
<svg id="uuid-a8c3b1c4-c485-4f5b-93cb-fcaaaab859d1" data-name="Livello 7" xmlns="http://www.w3.org/2000/svg" viewBox="0 0 400 400">
  <defs>
    <style>
      .uuid-a45be511-5bc4-42be-890e-589f30cff8c6 {
        fill: #232a56;
      }
    </style>
  </defs>
  <path class="uuid-a45be511-5bc4-42be-890e-589f30cff8c6" d="m347.13,165.35c-.1-9.93.76-19.88-.37-29.8-.09-1.59-.89-3.1-.92-4.62-.07-3.6-.79-6.99-2.28-10.25-1.48-3.23-2.41-6.76-5.15-9.29-.15.19-.3.38-.45.56,1.98,2.73,3.1,5.77,3.87,9.06,1.38,5.87,3.38,11.6,3.44,17.72,0,.35.12.65.52.73-.48,5.85,0,11.71-.31,17.56-1.05.7-1,1.42-.05,2.17h0c0,.35.02.71.03,1.06-.02.18-.05.35-.07.53-.05.37-.1.74-.14,1.12-.83.85-.37,1.88-.38,2.84.85,2.69-.17,5.28-.41,7.92,0,.43,0,.85.01,1.28.28.02.6-.06.9-.09-.3.03-.62.11-.9.09-.32,2.66-.52,5.34-1,7.97-.62,3.32-1.71,6.56-2.15,9.9-.41,3.13-.88,6.36-1.71,9.29-1.12,3.96-.74,8.24-2.72,11.97-.05.1.04.27,0,.39-1.06,3.65-1.34,7.46-2.18,11.16-.65,2.91-1.32,5.82-1.39,8.83-.17,2.52-.35,5.05-.52,7.57.03.53.05,1.07.08,1.6-.56.62-.37,1.35-.3,2.07l-.03.07c-.09.23-.17.47-.26.7-.41,1.56-.73,3.14-.71,4.76.34,1.1-.36,2.1-.29,3.17-.06.27.08.4.31.47.06.37.11.74.17,1.11.06.05.1.09.12.13-.02-.04-.06-.09-.12-.13l-.05.47c0,.78,0,1.56.01,2.33,0,.29-.01.57-.02.86,0,.38,0,.76,0,1.14,0,.16,0,.31.01.47.02-.02.05-.05.08-.07-.03.02-.06.05-.08.07.03.49.05.99.08,1.48.27,0,.55,0,.82,0,0-.22,0-.44.01-.66.02-.16.03-.32.05-.49.3-2.59.18-5.19.45-7.79.62-5.89.78-11.83,1.7-17.7.06-.14.11-.28.17-.42.23-.65.2-1.32.12-1.99.72-2.35.49-4.85.98-7.21,1.53-7.39,3.14-14.77,4.94-22.1,1.24-5.04,2.51-10.07,3.49-15.17.86-4.46.82-9.03,1.93-13.44,0,0,0,0,0,0,.67-.75.23-1.64.29-2.46.21-2.3.37-4.64.35-6.9Z"/>
  <path class="uuid-a45be511-5bc4-42be-890e-589f30cff8c6" d="m168.24,45.56c1.69-2.1,3.46-4.11,5.7-5.65.03-.49.19-.78.55-.78-.36,0-.52.3-.55.78.11.42.5.46.82.59,2.01-.47,4.01-.94,6.02-1.42-.03-.24-.05-.48-.08-.72-1.19.19-2.37.38-3.56.58-.7.44-1.48.15-2.22.28h0c.21-1.47,1.44-1.77,2.54-2.22,3.53-2.45,7.13-4.68,11.71-4.18.52.06,1.22.05,1.27-.57.05-.59-.74-.82-1.16-.89-1.09-.18-2.22-.14-3.34-.19-2.27.18-3.82,2.06-5.97,2.51-.14.13-.26.28-.42.37-5.03,3.17-9.84,6.55-13.38,11.52-2.19,3.09-4.25,6.24-6.31,9.41-3.65,5.63-6.27,11.72-9.03,17.77-1.21,2.66-1.82,5.57-3.48,8.02-.02.14-.03.27-.05.41-.37.47-.45,1.02-.49,1.59-.23.04-.39.14-.28.41-1.49,2.9-1.56,6.18-2.49,9.23-.23.01-.38.08-.26.35-.18.68-.36,1.36-.54,2.05-.25-.01-.38.09-.34.35,0,.27,0,.55.01.82-.67.21-.47.72-.41,1.19,0,.4.02.81.02,1.21-.53.08-.48.42-.36.79-.23.93-.46,1.86-.69,2.79-.07.16-.14.32-.21.48-.16.64-.32,1.27-.48,1.91-.08.22-.16.43-.24.65-.3,1.24-.25,2.56-.85,3.73-.88,2.26-.46,4.7-1.15,7.04-.99,3.36-1.1,6.92-.98,10.44-1.11,1.79-1.14,3.72-.73,5.71-.09,1.21-.18,2.41-.27,3.62-.07.79-.14,1.59-.21,2.38-.1.15-.19.29-.29.44-.06,3.04-.13,6.07-.19,9.11-.03.18-.06.36-.1.53.01.33.02.65.03.98.03.18.06.36.08.55.02.37.03.75.05,1.12-.94.42-.97.85-.01,1.3,0,.38,0,.75,0,1.13-.38.56-.39,1.11.09,1.62,0,.26,0,.52,0,.79-.35.27-.35.54-.01.81-.02.52-.04,1.04-.05,1.57-.05.04-.14.1-.13.13.02.11.08.21.13.32l.16,1.16c-.04,2.67-.08,5.34-.12,8.01,0,.13,0,.26,0,.39.06,2.28.13,4.56.19,6.84-.77,1.01-.86,1.98.17,2.88-1.05,3.07-.01,6.22-.07,9.31-.06,3.66.01,7.41.26,11.12.07.2.13.41.2.61-.03.28-.05.56-.08.84-.06.14-.13.29-.19.43-.08.66-.15,1.32-.23,1.98-.05.16-.09.33-.14.5,1.29,6.99-.27,14.07.65,21.07h0c.05,4.65.11,9.3.16,13.95,0,.14,0,.27,0,.41-.04.26-.07.52-.11.78-.54.68-.61,1.35.04,2.01.04.4.07.8.11,1.2.01.26.02.53.03.79-.01.93-.02,1.87-.03,2.8,0,.14,0,.27-.01.41,0,.4,0,.8,0,1.2-.04.39-.09.79-.13,1.18-.09.05-.17.1-.26.15.09.1.18.19.27.29.08,1.47.16,2.93.24,4.4h0c-.04.39-.07.77-.11,1.16,0,.26-.01.52-.02.78-.21,3.35-.43,6.7-.76,10.05-.36,3.71-1.03,7.4-1.07,11.14.08.31.08.6-.19.83-.07.79-.02,1.61-.39,2.35.18.45-.26.38-.44.52-.07.98-.11,1.95-.24,2.93-.33,2.55-.9,5.08-.71,7.68-1.08,2.35-.84,5.04-1.62,7.37-1.48,4.42-2.62,8.86-3.06,13.48-.22.11-.63.21-.63.33-.08,2.05-.95,3.91-1.64,6.19,1.03-.7,1.89-1.12,1.82-2.09-.12-1.58.49-2.97.83-4.44.6-.52.55-1.26.77-1.94,1.21-3.7,1.36-7.64,2.59-11.34.81-2.43,1.12-4.97,1.35-7.52.79-.71.57-1.76.72-2.61.96-5.16,2.41-10.21,2.87-15.49.48-5.52.56-11.06,1.04-16.58.04-.05.12-.11.11-.15-.02-.12-.07-.23-.11-.34,0-.13-.05-.25-.13-.35.05-.53.09-1.05.14-1.58.37-.42.35-.84-.02-1.25-.04-.26-.09-.51-.13-.77,0-.14,0-.28,0-.42.05-.13.04-.26-.03-.38.69-.93.62-1.86.03-2.8.09-1.03.19-2.07.28-3.1.03-.06.08-.12.07-.17-.03-.12-.08-.23-.13-.35-.02-.38-.04-.76-.07-1.14.04-.05.12-.11.11-.15-.03-.11-.1-.21-.16-.32l-.04-1.15s.12-.1.11-.13c-.03-.11-.1-.2-.15-.3-.14-5.85.42-11.7-.23-17.54.59-3.57.06-7.2.53-10.78.02-.53.03-1.07.05-1.6-.1-.02-.2-.05-.3-.08h0c-.03-.12-.03-.24,0-.36-.03-.27-.05-.54-.08-.8,0-.27,0-.53,0-.8.06-.94.13-1.88.19-2.82-.09-.11-.1-.23-.03-.36.44-3.17-.34-6.33-.11-9.49.15-2.02-.62-3.92-.4-5.91.6-5.41.69-10.83.07-16.25-.35-3.07-.13-6.17-.02-9.21.1-2.76.21-5.53.17-8.3h0c.02-.54.04-1.07.06-1.6.08-.27-.08-.38-.29-.46.72-6.22.29-12.48.68-18.71.12-1.44.53-2.83.5-4.31-.08-3.37.78-6.65,1.02-10,.27-3.92.86-7.79,1.38-11.68h0c.53-2.09,1.21-4.15,1.56-6.26,1.54-9.28,4.98-17.99,7.97-26.82,2.47-7.3,6.3-14.01,10.11-20.67,2.14-3.75,4.4-7.44,7.37-10.63Z"/>
  <path class="uuid-a45be511-5bc4-42be-890e-589f30cff8c6" d="m120.08,362.17c-1.46,1.49-3.39,2.17-5.24,2.96-.13.04-.26.09-.4.13-2.26,1.66-4.98,2.09-7.59,2.79h0c-.13.05-.26.09-.39.14-.26.09-.53.19-.79.28-.12-.42-.46-.65-.81-.85-2.35.19-4.49.98-6.39,2.38-.24.05-.48.11-.71.16-2.24-1.47-4.54-.14-6.82-.14-1.04,0-2.31-.22-2.89,1.12-5.02.32-10.05.65-15.07.97,0,.25,0,.5,0,.75,7.06.79,14.12,1.18,21.26.36,7.21-.82,13.93-3.06,20.5-6.09,6.65-3.07,12.59-7.18,17.4-12.53,4.66-5.18,8.93-10.83,11.99-17.23-2.95,3.79-5.99,7.52-8.73,11.43-4.06,5.78-9.5,9.72-15.32,13.35Z"/>
  <path class="uuid-a45be511-5bc4-42be-890e-589f30cff8c6" d="m122.83,57.6s0,.01,0,.02c.01,0,.02,0,.03,0,0,0-.02-.02-.02-.02Z"/>
  <path class="uuid-a45be511-5bc4-42be-890e-589f30cff8c6" d="m86.11,148.94c.55-5.86,1.57-11.64,2.74-17.39,1.51-7.38,3.59-14.61,5.91-21.76,1.75-5.41,3.68-10.78,6.17-15.88,5.53-11.32,12.41-21.85,19.47-32.26.88-1.29,1.62-2.68,2.42-4.03-.54-.08-.8.29-1.1.65-1.22,1.46-2.08,3.21-3.26,4.65-3.02,3.68-5.15,7.93-7.83,11.83-2.71,3.94-5.29,8.04-7.32,12.49-2.24,4.9-5.04,9.58-6.8,14.69-2.1,6.08-4.22,12.16-5.81,18.41-1.82,7.19-3.96,14.27-4.76,21.72-.53,4.86-1.18,9.71-1.41,14.6.13.04.25.07.38.09.41-2.6.95-5.19,1.19-7.8Z"/>
  <path class="uuid-a45be511-5bc4-42be-890e-589f30cff8c6" d="m183.19,38.53c6.99-.96,13.88-1.42,20.84.78,5.5,1.74,10.91,3.64,16.24,5.82,2.7.94,5.43,1.8,8.09,2.84,2.95,1.16,5.78,2.64,9.03,2.82-.21-1.11-1.28-1.08-1.99-1.33-5.39-1.89-10.33-4.86-15.76-6.63-1.94-.64-3.81-1.44-5.72-2.14,0,0,0,0,0,0-.04-.57-.07-1.14-.11-1.71,3.79.44,7.48,1.25,11.14,2.4,1.73.54,3.38,1.47,5.27,1.5,2.12,1.42,4.18,2.94,6.37,4.23,1.79,1.06,3.66,1.98,5.33,3.24.42.32.76.78,1.17-.1.58-1.26-.46-1.74-1.1-2.21-2.99-2.25-6.26-4.06-9.52-5.89-.57-.32-1.18-.62-1.88-.48-.12-.13-.25-.26-.37-.39-1.75-.28-3.59-.3-5.22-.88-3.88-1.39-7.78-2.53-11.91-2.8-.5-.38-1.04-.37-1.61-.17-.79-.04-1.58-.07-2.37-.11,0,.35,0,.7-.01,1.06,0-.35,0-.7.01-1.06-1.09-.01-2.17-.02-3.26-.04.11.89.67,1.21,1.51,1.15.71.97,1.61,1.39,2.58,1.62-.97-.22-1.87-.64-2.58-1.62-.84.06-1.39-.25-1.51-1.15-6.24-.57-12.48-1.05-18.74-.48-.73.24-1.49.36-2.25.5-1.4.27-2.98-.06-4.18,1.06.03.24.05.48.08.72.64-.09,1.28-.19,1.92-.28.17-.1.32-.26.5-.28Zm27.37,1.64c-.1-.02-.21-.03-.31-.05.1.02.21.04.31.05Z"/>
  <path class="uuid-a45be511-5bc4-42be-890e-589f30cff8c6" d="m231.39,24.6c.23.71.65,1.51,1.42,1.28.9-.27,1.09-1.23.99-2.15-.11-1.02-.67-1.67-1.59-2.07-1.94-1.21-4.21-1.3-6.33-1.92-.68.12-1.37.24-2.05.36.22.26.57.34.89.47s.61.28.72.7h0c-.11-.42-.4-.58-.72-.7-.32-.12-.67-.21-.89-.47-.66-.17-1.32-.34-1.98-.51-1.19.03-2.39.21-3.58-.09-1.07.07-2.15.14-3.22.21-3.85-.02-7.71-.03-11.56-.05-.22.33-.45.57-.68.71.23-.15.46-.38.68-.72-.94.04-1.88.08-2.82.11-.54-.17-1.08-.12-1.61.07-.4.32-.95.34-1.47.42.52-.09,1.07-.1,1.47-.42-.39-.09-.78-.18-1.17-.27-1.4.13-2.87-.02-4.09.96.7.92,1.61.79,2.51.67,6.89,1.07,13.87.93,20.78,1.68,2.14.23,4.29.37,6.44.55,2.23.38,4.53.31,6.7,1.04.38.05.77.09,1.15.14Zm-33.9-4.31c-.23.05-.46.11-.66.23.2-.12.42-.19.66-.23Zm29.91,1.38c-.13-.1-.27-.19-.4-.29.13.1.27.19.4.29.44.45,1.05.34,1.59.46.87.36,2.12.34,2.44,1.23-.32-.89-1.57-.87-2.44-1.23-.54-.12-1.15,0-1.59-.46Z"/>
  <path class="uuid-a45be511-5bc4-42be-890e-589f30cff8c6" d="m71.73,333.65c3.03-6.47,5.91-13.01,8.85-19.53.1-.17.2-.33.29-.5.03-.24.06-.47.09-.71-.27-.05-.54-.1-.82-.15-1.95,2.83-3.07,6.09-4.3,9.23-3.24,8.29-7.45,16.1-11.81,23.8-3.23,5.69-6.43,11.43-10.12,16.87-.61.9-1.32,1.94-1.25,3.26,1.21-.52,1.44-1.68,1.95-2.55,3.64-6.22,7.54-12.28,10.91-18.67,1.97-3.73,4.42-7.23,6.21-11.06Z"/>
  <path class="uuid-a45be511-5bc4-42be-890e-589f30cff8c6" d="m195.42,15.85c5.53-1.44,11.09-1.61,16.72-1.49,1.23-.93,2.26.09,3.37.36,1.19.06,2.13,1.28,3.45.75.05-.32,0-.6-.1-.86.1.26.15.54.1.86,1.68.39,2.79,1.7,4.19,2.54.48.14.96.29,1.43.43,0-.27.01-.53.02-.8-1.58-3.44-3.29-4.59-6.38-4.3l-.05-.02c-1.27.76-2.02.98-2.81.53.79.45,1.53.23,2.81-.53.11-1.42-1.27-1.09-1.91-1.64-.27,0-.54.01-.8.02-.42.62-1.18.27-1.7.59-1.38.02-2.77.49-4.15-.16-.22-.11-.64.11-.93.25-.93.41-1.84.69-2.85.18-.41-.2-1.07-.31-1.31.05-.75,1.11-2.01.73-2.92,1.18-1.35.66-2.53-.34-3.87.1-3.37,1.11-6.82,1.97-10.23,2.92-2.88.56-5.28,2.26-7.95,3.3-.15.28-.3.55-.45.83.83-.2,1.73-.27,2.48-.64,4.4-2.17,9.12-3.23,13.83-4.46Z"/>
  <path class="uuid-a45be511-5bc4-42be-890e-589f30cff8c6" d="m96.8,247.41c-.07.2-.15.4-.22.61-.01,1.4-.02,2.79-.03,4.19l-.18-.02c-.07.18-.14.37-.21.55-1.73,5.14-1.86,10.61-3.51,15.81-.85,2.69-.94,5.69-1.66,8.54-2.5,9.77-5.2,19.47-8.75,28.92-.67,1.8-1.68,3.58-1.66,5.62.24.01.48.03.72.04,2.04-5.4,4.06-10.79,5.8-16.29,1.86-5.88,3.73-11.75,5.42-17.68,1.73-6.08,2.69-12.32,3.91-18.5.51-2.57,1.26-5.13,1.26-7.79.64-6.14,2.18-12.18,2.36-18.37.08-2.99,1.14-5.82,1.13-8.79,0-.14.02-.28.03-.42h0c0-2.78,0-5.56,0-8.35h0c.16-.85.18-1.69-.19-2.49-.17-.38.04-1.26-.86-.87-.55.24-.47.67-.18,1.13.44.7.24,1.48.2,2.23.09,7.11-1.4,14.08-1.84,21.14-.06.28-.12.55-.19.83-.05.93-.09,1.86-.14,2.79.07.35.05.68-.24.95-.74,2.02-.75,4.14-.96,6.24Z"/>
  <path class="uuid-a45be511-5bc4-42be-890e-589f30cff8c6" d="m251.86,341.74c-1.47,6.64-3.04,13.25-4.55,19.88-.33,1.43-1.12,2.75-1.02,4.29.22.02.44.04.66.05,1.21-1.9.71-4.23,1.67-6.27,1.17-2.49,1.85-5.31,2.23-7.95,1.14-7.88,3.36-15.42,5.89-22.9.21-.61.39-1.21-.26-2.25-1.58,5.33-3.5,10.11-4.62,15.16Z"/>
  <path class="uuid-a45be511-5bc4-42be-890e-589f30cff8c6" d="m185.27,121.44c.19-.14.38-.26.56-.4.66-.28,1.33-.54,2.01-.78.11.01.23,0,.35-.06.2-.1.4-.18.6-.28,9.13-3.07,19.14-3.13,28.33-.17.5.24,1.01.46,1.54.63.73.36,1.47,1.03,2.18,1,1.25-.06,3,1.28,3.67-.98-.62-.55-1.25-1.09-1.87-1.64-1.99-1.14-3.99-2.27-5.98-3.41-.47-.15-.93-.3-1.4-.46,0,0,0,0,0,0-.05-.06-.11-.12-.17-.17-.45-.5-.9-1-1.35-1.5-1.62-.69-3.34-.99-5.07-1.24-.95.05-1.89.1-2.84.15.62.3,1.31.36,1.98.53-.67-.17-1.35-.23-1.98-.53-.77-.02-1.53-.03-2.3-.05-.18.04-.36.08-.54.11-.63.04-1.26.07-1.89.11,0-.55-.15-1.05-.5-1.48-1.76-.18-3.45.37-5.19.47,0,.28-.02.57-.02.86.64.46,1.9-.41,2.09.99l.03.04c-1.99.23-3.68,1.4-5.57,1.87-3.84.96-6.71,3.18-8.92,6.37-2.66,1.79-5.49,3.38-7.91,5.45-1.38,1.18-3.32,1.91-3.99,3.86,4.12-2.83,8.24-5.67,12.35-8.5.6-.26,1.27-.42,1.78-.8Z"/>
  <path class="uuid-a45be511-5bc4-42be-890e-589f30cff8c6" d="m69.83,315.03c1.17-3.44,2.52-6.84,3.44-10.34,1.58-6,2.83-12.09,4.75-18,1.62-4.98,2.49-10.14,3.32-15.29.22-.62.61-1.23.64-1.86.19-4.37,1.83-8.47,2.25-12.83.66-6.85,2.43-13.59,2.44-20.53,0,0,0,0,0,0,.76-3.43.47-6.96.99-10.41.12-1.41.17-2.83.37-4.23.58-4.03.58-8.06.32-12.11.1-.8.2-1.6.3-2.4-.05-.13-.04-.25.05-.36-.07-1.06-.14-2.13-.21-3.19,0-1.74.01-3.48.02-5.22-.2-.05-.4-.09-.6-.14-.08,1.82-.38,3.64-.02,5.47,0,.2-.01.39-.02.58-.03.17-.06.35-.1.52,0,1.7.02,3.4.03,5.1-.38,4.5-.6,9.02-.59,13.54-.53.15-.71.53-.69,1.05.13,3.96-.69,7.89-.36,11.86-.81,1.82-.32,3.78-.61,5.67-.42,2.74-1.07,5.43-1.3,8.23-.35,4.2-1.35,8.35-1.97,12.53-.43,2.9-1.23,5.75-1.33,8.71-.72,1.13-1.05,2.38-1.23,3.7-.27,1.95-.35,4-1.02,5.82-1.27,3.49-1.85,7.14-2.95,10.66-1.66,5.29-2.6,10.78-4.24,16.09-.8,2.59-1.96,5.11-2.38,7.84.49.04.62-.22.7-.46Z"/>
  <path class="uuid-a45be511-5bc4-42be-890e-589f30cff8c6" d="m322.12,199.95c-2.51,6.77-5.76,13.21-7.14,20.3-.24,1.72-1.46,3.03-1.95,4.63-1.13,3.7-2.74,7.23-3.58,11.03-.55,2.48-2.08,4.67-2.69,7.05-1.35,5.28-3.75,10.13-5.52,15.23.27.12.55.25.82.37,2.79-5.22,4.98-10.7,7.04-16.23,1.68-4.48,3.23-9.01,4.83-13.53,1.2-3.38,2.39-6.76,3.58-10.14,1.11-5.04,3.48-9.67,4.66-14.69.33-1.39.4-2.7-.06-4.02Z"/>
  <path class="uuid-a45be511-5bc4-42be-890e-589f30cff8c6" d="m275.37,175.16c-2.15-2.59-3.74-5.54-5.49-8.39-1.27-2.05-2.3-4.12-2.96-6.41-.33-1.13-.7-2.26-2.11-2.67,1.65,2.02,1.34,4.78,2.59,6.86,2.5,4.15,2.93,9.37,6.72,12.84.57.52.61,2.05,1.65,1.5.88-.47.5-1.74.14-2.67-.14-.37-.29-.76-.54-1.06Z"/>
  <path class="uuid-a45be511-5bc4-42be-890e-589f30cff8c6" d="m223.44,25.98c-.53.01-1.06.03-1.59.04-2.27,0-4.53,0-6.8-.01-2,.38-3.99-.22-6.03-.02-2.75.27-5.52-.53-8.3-.28-6.27.61-12.66.36-18.7,2.64,6.26-.25,12.38-2.01,18.69-1.56,1.93-.12,4-.17,5.77.16,3.73.68,7.4.13,11.08.35,1.42.09,2.81.42,4.21-.11,1.79-.35,3.52.03,5.25.42.97-.08,1.41-.76,1.74-1.56-1.77-.82-3.56.46-5.34-.06Z"/>
  <path class="uuid-a45be511-5bc4-42be-890e-589f30cff8c6" d="m107.16,252.6v-4.31c-1.02,1.21-.61,2.41-.66,3.53-.05.11-.06.23-.05.35-.06.14-.11.29-.17.43.07,2.51.26,5.02.17,7.52-.11,2.83.09,5.73-.71,8.45-1.2,4.07-1.41,8.3-2.42,12.39-.36,1.35-.72,2.7-1.08,4.05-.77,2.1-1.4,4.24-2.06,6.37-3.34,10.79-7.02,21.46-11.28,31.93-.31,1.66-1.5,2.91-2.08,4.45-1.1,2.95-2.1,5.98-3.58,8.75-2.95,5.55-4.92,11.51-7.6,17.17.16.14.33.27.49.41,3.61-7.22,6.63-14.71,9.91-22.08,1.18-2.66,2.88-5.08,3.64-7.93.44-1.16.87-2.32,1.33-3.48,1.8-4.57,3.84-9.07,5.35-13.73,2.36-7.29,5.16-14.44,6.89-21.92h0c.66-1.26.97-2.59.77-4.02,3.24-9.2,4-18.68,3.13-28.34Z"/>
  <path class="uuid-a45be511-5bc4-42be-890e-589f30cff8c6" d="m169.36,90.26c1.87-8.23,5.85-15.68,8.6-23.58.62-1.77,1.47-3.47,2.21-5.2-.19-.07-.38-.14-.57-.21-5.41,11.71-10.04,23.71-13.2,36.27-.16,4-1.25,7.86-1.41,11.89-.14,3.62-.01,7.28-.55,10.9-.08.54.32,1.54,1.07,1.42.81-.13.42-.93.23-1.46-.32-.91-.33-1.89-.12-2.76.52-2.18.27-4.36.36-6.55.17-4.52.69-8.99,1.53-13.44.62-2.42,1.29-4.84,1.84-7.28Z"/>
  <path class="uuid-a45be511-5bc4-42be-890e-589f30cff8c6" d="m240.04,231.85c-.24.86-.54,1.48-.57,2.11-.07,1.63-.97,2.01-2.39,1.83-1.31-.16-2.63-.31-3.95-.38-.53-.03-1.42-.32-1.45.52-.03.72.72,1.03,1.46,1.05,1.39.03,2.8-.03,4.18.1,6.3.63,12.6,1.31,18.89,1.97.01-.16.03-.32.04-.48-1.3-.56-2.66-.66-4.06-.81-3.54-.37-7.03-1.23-10.6-1.42-1.28-.07-1.49-.64-1.1-1.83.25-.76.4-1.73-.46-2.68Z"/>
  <path class="uuid-a45be511-5bc4-42be-890e-589f30cff8c6" d="m214.43,231.81c3.78.65,7.4,1.98,10.69,3.96.22.13.43.1.6,0,4.35,2.54,8.42,5.42,12.03,8.97,1.41,1.39,2.68,2.96,4.27,4.14.04.1.11.2.22.27,4.43,3.06,9.87,4.53,15.24,4.1.09,0,.16-.03.23-.07,2.57-.06,5.19-.15,7.68-.84,1.1-.31,2.13-.75,3.1-1.3,2.61-1.05,4.92-2.85,6.47-5.94.45-.55.9-1.11,1.34-1.67.48-.61.95-1.23,1.4-1.86.7-.65,1.24-1.42,1.52-2.38.09-.16.19-.31.28-.48.48-.56.92-1.19,1.52-1.57,1.59-.99,2.35-2.25,1.88-4.13-.1.02-.19.05-.29.07-.08-.04-.17-.06-.26-.07-.05,0-.09,0-.14-.01-.21-.03-.42-.09-.63-.17-.13-.06-.26-.13-.38-.21-.15-.13-.31-.27-.46-.4-.11-.1-.24-.15-.38-.17-2.57-3.56-5.53-6.81-8.84-9.68-.38-.4-.76-.8-1.13-1.21-.65-.71-1.36-1.14-2.11-1.39-.11-.08-.22-.17-.34-.26-.25-.18-.49-.13-.67.02-1.18-.17-2.42-.04-3.66.03,1.21.3,2.44.52,3.6.92.03.04.06.08.1.11,1.88,1.38,3.66,2.89,5.35,4.5,2.09,2.26,4.17,4.53,5.89,7.11-.45.35-.9.7-1.35,1.05.7.34,1.4.69,2.11,1.03.04.26.13.52.34.58-.21-.06-.3-.32-.34-.58-.7-.35-1.4-.69-2.11-1.03-4.87-.46-9.34-2.76-14.23-3.13-.61-.52-1.87.05-2.05-.89-.18-.9.95-1.15,1.54-1.64,1.5-1.25,3.03-2.47,3.59-4.53-2.92,2.55-5.97,4.93-9.24,7.31,1.31.67,2.19-.58,3.18.01,2.02,1.21,4.34,1.08,6.56,1.38,2.52.54,4.82,1.52,6.77,3.24,1.18.84,1.79,2.54,3.85,2.06.56-.13,1.07.32,1.26.99-.87,1.72-2.05,3.27-3.26,4.78-1.37,1.72-2.75,3.45-4.37,4.95-1.37,1.27-2.9,2.27-4.61,2.93-.29.05-.58.1-.89.13-2.23.17-4.44.66-6.65,1.04-.36.01-.72.02-1.09.03-.01,0-.02,0-.03,0-2.63-.1-5.2-.6-7.75-1.25-3.7-.95-7.14-2.23-9.88-5.15-4.37-4.67-9.25-8.74-14.99-11.67-.12-1.13.46-1.65,1.5-1.92,1.68-.44,3.38-.68,5.1-.56,5.42.38,10.47-1,15.64-3.05-1.04-.19-1.82-.15-2.6.1-2.71.88-5.48,1.63-8.3,1.91-3.56.35-7.17-.08-10.73.66-1.18.25-1.47-.58-1.31-1.61.12,0,.25-.01.37-.04,1.84-1.03,3.95-1.09,5.93-1.55,2.03-.47,3.87-1.3,5.63-2.27.68-.28,1.36-.57,2.03-.89,3.16-1.49,5.95-3.54,8.97-5.26,4.41-1.77,8.96-2.29,13.69.13.35.18.73.35,1.18-.07-.27-1.01-1.13-1.13-1.97-1.22-.5-.06-1.08-.04-1.3-.52.3-.26.39-.77-.07-.98-.22-.1-.43-.17-.65-.25-.35-.28-.78-.38-1.27-.4-4.04-.97-7.83.81-11.41,2.96-1.29.59-2.55,1.3-3.73,2.18-.35.26-.7.51-1.05.75-.23.13-.46.27-.69.39-6.65,3.66-14.21,5.44-21.79,5.23-.07,0-.12.02-.18.03-.18-.06-.36-.11-.54-.18,0,0,.07-.1.07-.1-.68-.08-1.35-.15-2.03-.23-.84.34-1.78.58-2.34,1.33-.49.65-1.51,1.16-.93,2.27.52.99,1.37,1.21,2.26,1.05Zm66.69.76s-.02-.01-.03-.02c0,0,0,0,0,0,.03.02.05.03.06.04,0,0-.01,0-.02-.01Zm-58.35.31c-.1.05-.22.06-.34.07h0c.12,0,.24-.02.34-.07Zm.21-.23s0,0,0,0c.5.11.81.52,1.17.84-.37-.32-.68-.73-1.17-.84Zm1.4-4.06s-.07.06-.11.1c0,0,0,0,0,0-.18,0-.35-.02-.53-.02.21-.02.43-.05.64-.08Z"/>
  <path class="uuid-a45be511-5bc4-42be-890e-589f30cff8c6" d="m249.78,10.08c-2.54,1.08-4.53,3.07-6.91,4.35-2.73,1.47-4.16,4.12-6.36,6.04-.43.37-.55,1.13-.05,1.4.58.32.83-.37,1.11-.83.82-1.38,1.96-2.44,3.18-3.49,3.42-2.92,7.17-5.32,11.02-7.59,1.57-1.14,3.85-.65,5.19-2.31.12-.15.28-.27.42-.4.26-.14.53-.27.79-.41.67-.82,1.63-.69,2.54-.8,2.27-.28,4.33,1.09,6.6.78,0-.24,0-.48-.01-.72-.58-.1-1.15-.22-1.74-.3-2.3-.3-4.56-1.26-6.94-.51-.34.69-.94.84-1.63.77-.15-.26-.29-.51-.44-.77-.38,0-.77.02-1.15.02.16,1.01.97.68,1.58.76,0,.13,0,.26,0,.39-1.65,1.67-4.14,1.39-6.01,2.56-.25.08-.49.16-.74.24-.08.32-.09.67-.46.82Z"/>
  <path class="uuid-a45be511-5bc4-42be-890e-589f30cff8c6" d="m246.99,197.41c1.3-1.46,2.97-1.76,4.81-1.57.15.14.3.28.45.42.35,1.37,1.47,1.27,2.47,1.16.57-.06,1.6,0,1.11-1.19-1.06-.65-.56-1.95-1.16-2.79-.81-1.04-1.89-.32-2.79-.31-2.91.04-5.73.52-7.87,2.8.69,1.1,1.22,2.55,2.99,1.48Z"/>
  <path class="uuid-a45be511-5bc4-42be-890e-589f30cff8c6" d="m227.05,119.2c.15.11.3.21.45.32.38.18.75.36,1.13.53,1.27.3,1.89,1.69,3.2,1.91.05.23.09.47.14.7.75.41.63,1.79,1.86,1.67.17.84.58.96,1.22.4-.03-.47-.29-.75-.74-.86-.05-.25-.09-.5-.14-.75-.67-.91-1.35-1.81-2.02-2.72.15.43.02.81-.14,1.18.17-.37.29-.75.14-1.18-.28-.26-.55-.52-.83-.78,0,0,0,0,0,0,0-.43.19-.64.43-.76-.24.12-.42.33-.43.76.28.26.55.52.83.78.67.91,1.35,1.81,2.02,2.72.58-1.25,1.37-1.58,2.53-.64.34.27.81.37,1.22.55.36.56.73,1.12,1.09,1.69,1.45-.69.77-1.85.5-2.79-.48-1.69-1.27-3.3-1.7-5-.34-1.32-1.02-1.17-1.92-.82-.54.44-1.08.89-.73,1.71,1.56.84,2.42,2.05,2.69,3.58-.27-1.53-1.13-2.74-2.69-3.58-.37,1.6-1.38.51-2.14.5-.11.15-.28.23-.46.29-.23.08-.49.12-.72.21.22-.09.48-.13.72-.21.18-.06.34-.14.46-.29.02-.64-.55-.93-.84-1.39-1.51-.42-3.14-.2-4.6-.97-2.75-1.44-5.53-2.85-8.53-3.68-1.02-.28-2.53-.98-3.17.83.13,0,.26,0,.39-.02h0c.3.37.59.74.89,1.11,2.28,1.16,4.57,2.32,6.85,3.49.98.23,1.95.49,2.69,1.25.11.08.23.16.34.24Z"/>
  <path class="uuid-a45be511-5bc4-42be-890e-589f30cff8c6" d="m264.47,136.58c-.83,2.69-.62,5.52-2.01,7.92-.49.85-.69,1.68-.72,2.61-1.12,3.32.35,5.98,2.22,8.91.22-1.54-.49-2.5-.74-3.55-.52-2.22-1.07-4.51-.14-6.65,1.23-2.83,1.85-5.85,3.01-8.69-.67.18-1.02-.88-1.63-.56Z"/>
  <path class="uuid-a45be511-5bc4-42be-890e-589f30cff8c6" d="m231.51,14.37c1.42-1.26,3.25-1.75,4.85-2.68,4.16-2.43,8.65-3.39,13.45-2.91.14-.11.27-.21.41-.32-.23-1.28-1.38-.6-2.04-.96-.65.03-1.31.07-1.96.1-.81.17-1.61.19-2.41-.01-2.2.44-4.26,1.16-6.21,2.38-2.1,1.32-4.43,2.27-6.61,3.47-.29.16-1.25.33-.69,1.1.4.54.92.1,1.21-.16Z"/>
  <path class="uuid-a45be511-5bc4-42be-890e-589f30cff8c6" d="m122.83,57.6s.02.02.02.02c0-.01,0-.02,0-.03,0,0-.01.01-.02.02Z"/>
  <path class="uuid-a45be511-5bc4-42be-890e-589f30cff8c6" d="m129.63,49.61c1.05-.32,2.22-.45,2.8-1.59.16-.09.67.18.38-.38-.13.12-.25.24-.38.37-.81.03-1.66.17-2.07-.81.33-.72.94-1.17,1.54-1.63,1.17-1.62,2.35-3.24,3.52-4.86.76-.74,1.56-1.44,2.26-2.23,3.91-4.4,8.13-8.49,12.25-12.69,3.43-3.5,7.18-6.67,11.21-9.4,3.7-2.51,7.49-4.98,11.64-6.76,3.44-1.47,6.84-3.01,10.3-4.42,4.65-1.89,9.45-.97,14.21-.64,2.72.19,5.36,1.06,8.12.85.02-.32.04-.64.05-.95-.16-.07-.31-.14-.47-.22-1.85.02-3.61-.61-5.42-.84,0,0,0,0,0,0-.31-.78-.89-1.23-1.7-1.42-.53,0-1.06.01-1.58.02-.39.62-1.02.35-1.56.43-.89-.34-1.59.45-2.43.39-.54-.04-1.07-.08-1.61-.12l-.18.03s-.16-.09-.16-.09c-3.42-.02-6.51,1.16-9.69,2.29-5.57,1.99-10.76,4.7-15.85,7.6-7.1,4.04-13.13,9.48-18.81,15.31-.99,1.01-1.93,2.07-2.9,3.11-2.86,3.04-5.92,5.93-8.2,9.48-1.86,1.14-2.92,3-4.23,4.65-2.28,2.87-3.53,6.39-6.01,9.14-.82.91-1.96,1.85-1.81,3.37,2.82-2.17,4.08-5.69,6.78-7.97Z"/>
  <path class="uuid-a45be511-5bc4-42be-890e-589f30cff8c6" d="m318.39,51.8c-1.73-4.39-4.67-8.04-7.45-11.75-.69-.93-2.03-1.61-3.59-1.26,5.36,2.97,6.56,9.32,11.04,13.02Z"/>
  <path class="uuid-a45be511-5bc4-42be-890e-589f30cff8c6" d="m210.25,45.48c2.77.52,5.39,1.39,7.92,2.61,1.16.56,2.32,1.24,3.7,1.14l.18.02s.18,0,.18,0c0,0,.04-.05.04-.05-.14-.13-.28-.25-.41-.38-.66-.43-1.32-.85-1.99-1.28-1.04.02-1.94-.49-2.78-.94-3.54-1.87-7.33-2.94-11.22-3.73-2.3-1.16-4.63-2.27-7.24-2.42-2.62-.15-5.26-.13-7.89-.19-.3-.25-.58-.22-.85.07-1.19.23-2.38.46-3.57.7-1.07.46-2.24.72-3.16,1.5-3.42,1.33-5.58,4.13-7.87,6.79,2.97-1.73,5.31-4.32,8.28-6.05,2.52-.87,4.98-1.64,7.75-1.77,2.42-.11,4.72-.16,7.03.49-1.18,1.05-2.9.96-4.11,2.07-2.52,2.33-5.17,4.53-7.76,6.79.11.14.22.28.34.42,1.95-.91,3.44-2.47,5.11-3.8,2.34-1.88,4.33-4.36,7.62-4.69,2.2-.31,4.19.82,6.33.88,1.29,1.02,2.82,1.54,4.37,1.83Z"/>
  <path class="uuid-a45be511-5bc4-42be-890e-589f30cff8c6" d="m165.59,143.9c.11,0,.22-.02.34-.04-.03-3.6.5-7.16.81-10.74,0-.52-.01-1.05-.02-1.57-1-2.62.43-5.54-.92-8.11-.6.08-.84.64-.79.87,1.24,6.5-.33,13.09.59,19.59Z"/>
  <path class="uuid-a45be511-5bc4-42be-890e-589f30cff8c6" d="m316.79,159.09c-.03-.93-.05-1.87-.08-2.8-.04-.19-.08-.38-.12-.57,0-.48,0-.95,0-1.43-.08-.12-.08-.25-.02-.38-.5-7.82-.02-15.65.44-23.43.34-5.79-.06-11.49-.36-17.22-.23-2.87-.37-5.74-1.39-8.48-.91-3.27-1.44-6.66-3.12-9.7.18,1.51.21,3,.25,4.49-.05.07-.09.15-.11.26-.48,3.16,0,6.34,1.4,9.17.07.18.16.36.25.54.51,2.58.77,5.21.93,7.85-.06.41-.1.82.06,1.18.04.91.08,1.83.12,2.74-.05.95-.1,1.9-.15,2.85-.11.23-.13.47-.04.71-.11,2.16-.22,4.31-.33,6.47-.27-.22-.56-.65-.83-.6-.41-.26-.82-.52-1.23-.78.14-.84-.16-1.59-.46-2.34-1.06-.07-1.92-.6-2.72-1.24-1.38.26-1.29-1.44-2.27-1.7-.43-1.03-1.28-1.07-2.2-.91-.95,0-1.91.01-2.86.02,0,0,0,0,0,0,0,0-.02-.12-.02-.12.34-.68.69-1.35.72-2.13-.09-.2-.17-.4-.25-.6-1.3,0-2.58-.52-3.89-.14-1.46,0-2.91.01-4.37.02-.13.16-.34.24-.54.32.21-.08.41-.16.54-.32-.14-.04-.28-.08-.42-.13-.86.29-1.47-.08-1.98-.75-.41-.24-.82-.48-1.23-.72-.26-.04-.51-.08-.77-.13-.12.06-.24.1-.37.1-.54-.02-1.09-.04-1.63-.07-.16.36-.31.72-.47,1.08-.5.21-1.15.05-1.52.59-1.07.51-2.15,1.01-3.22,1.52,0,0,0,0,0,0-1.52.43-.89-1.19-1.53-1.6-.75-.68-1.28-.04-1.92.26-2.01.94-3.94,2.02-5.71,3.37h0c-.8,1.07-2.63,1.37-2.41,3.2.8-.37,1.6-.74,2.41-1.12.26-.16.53-.33.79-.49.12-.09.23-.2.34-.3-.11.1-.23.21-.34.3.46.23.99.38,1.28.87-.13.37-.26.74-.39,1.11.25.07.49.13.74.2.12-.04.24-.06.37-.04,1.19.11,1.63-1.29,2.73-1.38.41-.54,1.03-.68,1.62-.89.89-.05,1.44.56,2.06,1.05.96-.4,2.2-.16,2.87-1.25,1.16-.31,2.33-.63,3.49-.94.15-.15.29-.29.44-.44-.1-.23-.2-.46-.32-.66.12.2.22.43.32.66l.72.16c.16.11.32.21.48.32,0,0,.04.03.04.03h0c.01.56-.2,1-.7,1.27-.02.15-.07.32-.12.49-.07.1-.14.19-.21.29-.3.4.11.93.54.94,7.51.15,14.9,1.7,21.84,4.55,0,0,.01,0,.02,0,.04.02.08.03.12.05.04.02.08.01.12.02.19.05.39.08.59.09.41.17.73.38,1.01.61-.02.07-.05.14-.05.22,0,2.52-.02,5.04-.03,7.55,0,.17.06.3.14.4.05,3.83.11,7.66.16,11.5,0,.34.22.52.47.58-.87.23-1.69.56-2.1,1.53-.24.08-.48.17-.71.25-.42-.08-.85-.15-1.27-.23-.65-2.44-2.3-4.26-3.78-6.2,0,0,0,0,0,0-.24-1.79-2.04-2.03-3.04-3.05-.56-.18-1.2-.23-1.65-.55-2.33-1.67-5.04-2.16-7.77-2.6-.19.21-.37.43-.56.64-.65,0-1.35.27-1.89-.34-2.74-.54-5.02,1.06-7.53,1.64-.31.56-.62,1.12-.93,1.68-5.34,1.63-9.81,4.67-13.83,8.47-.41.38-.28.66-.07,1.01,1.12-.05,1.86-.84,2.75-1.36,1.72-1.01,3.16-2.48,5.1-3.12.87-.81,1.87-1.43,2.93-1.96.32.49.52,1.02.4,1.62h0c-.68.57-.09,1.56-.71,2.14-.71.85-.66,1.88-.4,2.81,1.02,3.68,3.84,5.36,7.91,4.84,3.62-.56,5.78-3.17,5.67-6.82-.06-1.87-.76-3.58-1.33-5.32.16-.4.31-.79.47-1.19.93.27,1.92.42,2.79.82,5.24,2.4,9.31,6.23,12.85,10.7.58.73.56,1.22-.12,1.97-2.05,2.25-4.77,2.91-7.56,3.48-.12.2-.25.41-.37.61-.15.11-.29.22-.44.32.15-.11.29-.22.44-.32.12-.2.25-.41.37-.61-1.18-.91-2.42,0-3.63-.11-3.68-.84-7.37-1.51-11.12-.39-.15.03-.3.03-.45.03-1.06-.23-2.11-.47-3.16-.76-.14-.04-.26-.01-.38.04-.64-.14-1.31-.2-2.02-.06.63.71,1.31,1.04,2.01,1.2.02,0,.04.01.06.02,0,0,0,0,0,0,0,0,.02,0,.02,0,2.4,1.03,4.91,1.76,7.46,2.19,1.65.79,3.48.58,5.24.73,2.29.37,4.51-.28,6.76-.46,4.45-.62,8.15-2.87,11.76-5.34.97-.35,1.47-1.49,2.62-1.53.57,1.2.36,2.54.68,3.79.6,2.92,1.2,5.83,1.79,8.75l1.77,6.7c.17-.08.34-.17.5-.25-.29-2.18-.58-4.36-1.29-6.46-1.1-4.32-.19-8.93-1.95-13.15Zm-24.82-34.38c-.23.02-.46.02-.69.02.23,0,.46,0,.69-.02Zm6.94-2.8s0,0,0,0c-.29.21-.5.5-.71.79.21-.29.43-.58.71-.79Zm-5.53-.72c-.13.06-.26.13-.35.23.09-.1.22-.17.35-.23Zm-18.22,3.79c.23-.2.47-.38.74-.5-.27.12-.51.3-.74.5Zm12.63-3.5c1.1.05,2.16.31,3.18.8,0,0,0,0,0,0-1.02-.49-2.08-.75-3.18-.8Zm.13,33.58c-.2.61-.18,1.29-.25,1.94-2.58,1.19-4.98-.83-5.1-4.29.5-.32.96-.72,1.49-.95,1-.44,2.21-.65,3.02.05.9.77,1.26,1.96.84,3.25Zm18.32-6.39c-.08.01-.16.02-.24.01.07,0,.15,0,.24-.01Zm-18.19,15.6c-.1-.02-.21-.04-.31-.06.15-.07.3-.12.44-.17-.06.06-.1.14-.13.22Zm11.71,1.63c.13.08.28.15.42.22-.15-.07-.29-.14-.42-.22Zm15.29-12.76s0,0,0,0c.3.37.32.77.25,1.18.06-.41.05-.81-.26-1.18Zm-2.8,4.94c-.19-.03-.44-.33-.5-.56-.18-.62-.08-1.18.65-1.42.03-.13.1-.23.22-.29.1-.24.19-.49.29-.73.73-.37,1.51-.46,2.32-.36-.07,1.1-2.13,3.47-2.97,3.35Z"/>
  <path class="uuid-a45be511-5bc4-42be-890e-589f30cff8c6" d="m298.47,263.36c-.73.58-1.23,1.33-1.51,2.21-.72,2.27-1.68,4.38-3.33,6.16-1.01,1.09-2.35,2.28-2.61,3.6-.8,4.09-4.16,6.1-6.66,8.73-2.81,2.96-6.39,5.06-9.77,7.35,0,.12.03.23.07.34-.04-.11-.06-.22-.07-.34-.17.02-.33.04-.5.07-.1.09-.2.18-.3.27,0,0-.03.04-.03.04-.9.19-1.7.58-2.38,1.2-.2,0-.43-.05-.59.03-4.2,2.24-8.65,3.5-13.42,3.62-.71.02-1.44.22-2.13.42-.41.12-.59.55-.49.97.13.56.57.42.95.3,4.32-1.4,8.97-1.32,13.22-3,.7-.51,1.41-1.18,2.08.04h0c-.25.54-.51,1.07-.76,1.61-1.24,3.68-2.01,7.48-3.08,11.2-2.12,7.34-3.13,14.89-4.51,22.37-.87,4.74-1.31,9.57-1.6,14.39-.09,1.46-.57,2.87-.26,4.45.61,3.08,1.6,6.03,2.45,9.03.7.02,1.39.05,2.09.07-.7-.02-1.39-.05-2.09-.07.88,3.49,1.33,7.14,3.75,10.06.53,2.5,2.48,4.22,3.52,6.46,1.45,3.12,4.37,5.21,6.17,8.13.5.81,1.11,1.9,2.45,1.69,0,0,0,0,0,0,.43.66,1.05.95,1.83.91.38,1.6,1.81,2.22,2.96,3.03,2.4,1.69,5.12,2.9,7.29,4.98,1.84,1.77,4.2,2.84,6.41,4.11.38.22.81.36,1.08.02.33-.41-.14-.7-.39-.97-.23-.24-.48-.48-.76-.63-4.92-2.64-8.8-6.7-13.38-9.8-.83-.54-2.16-.28-2.5-1.58-.19.08-.35.19-.47.33.12-.14.28-.25.47-.33l.04-.03c0-.32-.02-.65-.03-.97-1.01-1.39.37-2.27.71-3.37.9-2.83,2.46-5.43,2.94-8.4,2.44-4.06,2.2-8.9,3.83-13.26,1.54-4.1,1.76-8.69,2.56-13.06.56-1.03.97-2.08.6-3.28,1.17-1.93.81-4.18,1.31-6.26.88-1.28.43-2.71.47-4.08.01-.26.02-.52.03-.77,0-.26,0-.52.01-.78h0c-.02-.82-.04-1.64-.06-2.46.76-8.64.75-17.28.02-25.92-.19.02-.38.05-.56.07.02,5.54.05,11.08.07,16.62,0,0,0,0,0,0-.42,1.52-.49,3.03.01,4.54-.01.21-.03.43-.04.64.15.66.07,1.36.05,2.04.02-.69.1-1.38-.05-2.04-.12.27-.24.54-.36.82.03,1.4.04,2.79.09,4.19-.04-1.39-.06-2.79-.09-4.19-.16.1-.32.2-.48.3,0,0-.02,0-.02,0-.17-.36-.34-.72-.51-1.08-.15,1.61-.29,3.21-.44,4.82.22.2.33.41.33.61,0-.21-.11-.41-.33-.61.15-1.61.29-3.21.44-4.82,0-.37-.01-.75-.02-1.12.04-.05.12-.1.11-.14-.02-.11-.07-.21-.11-.32-.1-1.98-.15-3.97-.32-5.95-.64-7.34-2.25-14.49-4.24-21.56-.24-2-1.4-3.7-1.81-5.65-.08-.4-.29-.83-.8-.6-.38.17-.21.57-.13.88.48,1.85.8,3.76,1.99,5.34-.1,1.34.13,2.66.58,3.9,1.21,3.4,1.89,6.96,2.22,10.49.58,6.12.61,12.3.8,18.46.05,1.72-.06,3.44.47,5.1-.02.97-.39,1.98.31,2.86.06.13.12.25.19.38h0c-1.42,2.79-1.34,5.77-1.15,8.77h0c-.05,3.06-.87,5.97-1.52,8.94-1.31,6.01-3.31,11.82-4.61,17.82-.26.21-.37.48-.33.81-.25.23-.4.48-.18.82-1.19,3.17-2.37,6.35-3.56,9.52-.03.05-.05.1-.08.15.03-.05.05-.1.08-.15-1.38.09-2.19-.73-2.87-1.78-2.61-4-4.98-8.14-7.15-12.39-.27-.53-.48-1.11-1.02-1.44,0,0,0,0,0,0-1.19-2.93-2.07-5.99-3.72-8.73h0c-.49-2.21-1.5-4.25-2.19-6.39-1.61-4.97-.8-9.91-.12-14.82.86-6.18,2.06-12.31,3-18.48.8-5.22,2.45-10.32,3.77-15.46.64-2.51,1.38-4.99,2.07-7.48-.05-.1-.12-.18-.19-.24.07.07.14.14.19.24.2-.71.4-1.42.6-2.13-.07,0-.14,0-.2.01.07,0,.14,0,.2-.01.42-.28.85-.55,1.27-.83.56.01.98-.22,1.28-.7,0,0,0,0,0,0,.27-.15.55-.3.82-.45h.02c6.07-3.73,11.67-7.98,15.73-13.99.18.04.36.08.54.12,0,1.78,0,3.57,0,5.35,0,1.64-.23,3.28.7,4.83.57.94,0,2.09.06,3.15.2,3.51.38,7.03.56,10.54.04.1.1.2.12.31-.02-.11-.08-.2-.12-.31-.02.05-.07.1-.06.15.02.1.06.2.1.3,0,0,.04.04.04.04.19-.02.37-.05.56-.07-.04-3.86-.07-7.72-.11-11.58,0-.14,0-.28,0-.43-.35-3.13-.83-6.25-1.01-9.39-.11-1.86-1.09-3.83.09-5.62,1.99-3.02,3.44-6.33,5.29-9.42.19-.95.58-1.77,1.44-2.29.5.75.24,1.57.22,2.37,1.14,3.39.98,6.94,1.38,10.42.27,1.95-.31,3.96.39,5.88.08,3.33-.5,6.64.57,9.98.56,1.77.9,3.84.08,5.76-.18.43-.35.81-.26,1.32.77,4.21,1.06,8.46,1.17,12.74.06,2.06-.53,4.2.39,6.21.22-.01.45-.03.67-.04-.29-1.3.47-2.48.22-3.86-.52-2.84-1-5.77-.86-8.64.39-8-.81-15.89-1.29-23.83-.21-1.85,1.08-3.81-.42-5.55.31-2.85-.02-5.73-.57-8.44-.65-3.23-.78-6.2.58-9.2-.27-.12-.55-.25-.82-.37-1.3,1.53-1.69,3.54-2.78,5.18Zm-6.65,67.51c.04.11.1.22.12.33-.02-.12-.08-.22-.12-.33,0-.24,0-.48,0-.73,0,.24,0,.48,0,.73Zm.01,2.42c0-.6,0-1.21,0-1.81,0,.6,0,1.21,0,1.81.4.74.52,1.42.08,1.97.44-.55.32-1.23-.08-1.97Zm-17.05-41.29s.02.04.04.06c-.02-.02-.03-.04-.04-.06Z"/>
  <path class="uuid-a45be511-5bc4-42be-890e-589f30cff8c6" d="m331.11,280.36c.15,2.48-.77,4.89-.57,7.38-.01.26-.02.51-.03.77-.15.91-.3,1.82-.45,2.73-.49,2.91-2.24,5.48-2.31,8.49-.04,1.5.07,3-.44,4.45-.03.39-.06.78-.09,1.16.04,1.04-.17,2.09-.17,3.1,0,2.02-1.1,4.02-.21,6.05.15-.36.36-.7.44-1.08.73-3.18.3-6.5,1.16-9.67.41-1.2.82-2.39,1.23-3.59.13-.68.18-1.58,1.08-1.5.72.06.83.84.79,1.52.07,1.59.13,3.18.52,4.74.1.39-.21,1.11.54,1.01.58-.08.46-.61.39-1.12-.23-1.57-.73-3.22-.44-4.71.53-2.77.16-5.4-.32-8.08,0,0,0,0,0,0-.1-.76-.2-1.52-.3-2.29-.01-.26-.03-.51-.04-.77,0-.13,0-.27-.01-.4.01-.4.02-.8.03-1.2.02-.13.03-.27.05-.4.23-1.16.1-2.35.42-3.54.3-1.11.65-2.52.21-3.43-.71-1.47-.5-2.81-.36-4.24-.31.02-.62.03-.93.05-.21,1.52-.27,3.03-.18,4.56Zm.02,16.84c-.46-.07-.87-.46-.94-.91-.09-.62.6-.57.84-.83.66.03.94.38.94.89s-.29.94-.84.85Zm-.23-6.33c.02.48.19.89.79,1.06-.6-.17-.77-.58-.79-1.06Z"/>
  <path class="uuid-a45be511-5bc4-42be-890e-589f30cff8c6" d="m239.01,183.81c-.69-.4-.99-.26-1.28-.09-2.61,1.58-4.31,3.93-5.04,6.81-.38,1.51-.94,3.23.11,4.78.27.4.58,1.02,1.23.74.66-.28.22-.77.09-1.18-.48-1.49-.32-2.96,0-4.48.6-2.9,2.37-4.93,4.9-6.59Z"/>
  <path class="uuid-a45be511-5bc4-42be-890e-589f30cff8c6" d="m331.21,266.97c-.01.8-.02,1.61-.04,2.41.04,2.14.08,4.27.12,6.41.31-.02.62-.03.93-.05.41-.67.16-1.42.22-2.13.31-3.97-.23-7.96.21-11.93-.27,0-.55,0-.82,0-.57,1.72-.69,3.48-.62,5.27Z"/>
  <path class="uuid-a45be511-5bc4-42be-890e-589f30cff8c6" d="m319.28,53.2l-.02.02c-.17,1.11.3,2.08.78,3.01,1.51,2.96,3.15,5.85,4.67,8.81.57,1.1.64,2.55,1.81,3.34,3.59,7.47,6,15.46,9.87,22.81.27,1.64.89,3.13,1.6,4.64,2.24,4.74,4.34,9.55,6.57,14.3.42.9.72,1.99,1.85,2.58-.93-4.37-2.68-8.34-4.3-12.29-1.41-3.43-2.66-7.02-4.83-10.12-1.08-2.44-2.11-4.9-3.23-7.33-2.25-4.87-3.95-10-6.83-14.57-1.87-5.47-5.12-10.23-7.93-15.21Z"/>
  <path class="uuid-a45be511-5bc4-42be-890e-589f30cff8c6" d="m193.67,111.49c-5.05-.44-8.06,2.79-11.06,6.07.61,0,1.12-.19,1.66-.51,1.31-.78,2.5-1.68,3.58-2.76,2.11-2.11,4.89-1.96,7.57-2.13,0-.29.02-.57.03-.86-.59.07-1.18.24-1.76.19Z"/>
  <path class="uuid-a45be511-5bc4-42be-890e-589f30cff8c6" d="m263.34,10.1s-.02.02-.02.02c-1.33-.37-2.65-.75-3.98-1.12-.25-.05-.51-.1-.76-.15-1.37.68-2.7,1.41-2.8,3.2-.74.08-1.4.35-1.97.84-.79.58-1.57,1.16-2.36,1.75-3.43,2.09-5.8,5.26-8.33,8.26-1.13,1.34-2.15,2.79-2.12,4.71.01.91.35,1.67,1.16,1.84.89.18,1.4-.5,1.64-1.37.56-2.06,1.73-3.8,2.83-5.61,2.15-3.53,5.28-6.17,7.96-9.21.57-.22.92-.67,1.19-1.2.91-.71,1.82-1.43,2.73-2.14.92-.72,1.55-.26,2.1.51.64.09,1.24.31,1.88.43,2.59.49,5.28.66,7.66,1.97,2.52.23,4.71,1.66,7.21,2,4.78,2.13,9.57,4.26,14.35,6.39l4.75,2.45c3.59,2.4,7.19,4.8,10.78,7.2,4.73,3.64,8.86,7.97,11.86,13.02,3.19,5.37,7.27,10.04,10.68,15.22.2.3.26,1.06.94.75.46-.21.9-.48.91-1.16.02-.89-.14-1.7-.58-2.48-1.09-1.95-2.13-3.92-3.25-5.85-3.98-6.89-8.25-13.56-14.62-18.58-.52-.31-1.04-.63-1.55-.94-.68-.79-1.37-1.58-2.05-2.37-3.35-1.61-6.27-3.93-9.47-5.79,0,0,0,0,0,0-.11-.7-.81-.71-1.23-1.04-.42.02-.84.04-1.26.05-.02.1-.07.19-.12.29-.05.1-.1.2-.13.29.03-.1.08-.19.13-.29s.1-.2.12-.29c-.7-.1-.84-.82-1.31-1.18-.09.02-.17,0-.22-.08-.93-.19-1.85-.39-2.78-.58-.14.64-1.01.43-1.41.77.4-.34,1.27-.13,1.41-.77-.11-.11-.22-.22-.33-.32,0,0,0,0,0,0-.08-.79-.89-.95-1.29-1.47-.8-.41-1.59-.83-2.39-1.24-.28.02-.56.04-.83.06-.54-.5-1.18-.65-1.9-.56-.16-.09-.32-.17-.48-.26-1.39-.2-2.82-.23-4-1.16-1.6.19-2.71-1.68-4.42-1.06h0c-.25-.02-.49-.03-.74-.05-.14-.03-.28-.06-.42-.09-1.85-.53-3.41-2.01-5.52-1.69-2.04-1-4.27-1.19-6.45-1.61-.44.05-.9.15-1.22-.3Zm14.35,4.26c-.02.09-.04.18-.1.26.05-.08.08-.17.1-.26Z"/>
  <path class="uuid-a45be511-5bc4-42be-890e-589f30cff8c6" d="m266.57,126.64c-.5,1.77-1.03,3.53-1.55,5.3,0,.92-.16,1.87,0,2.76.25,1.39.71.19,1.08,0,.56-2.53.6-5.17,1.65-7.59.18-.54.35-1.07.53-1.61-.9-.45-1.35-.13-1.71,1.13Z"/>
  <path class="uuid-a45be511-5bc4-42be-890e-589f30cff8c6" d="m326.08,342.24c.02-.79.16-1.59.21-2.37.17-2.33.13-4.67.17-7-1.93.07-1.66-1.83-2.46-2.76,0-.38-.01-.76-.02-1.14,0-.31,0-.62-.01-.92,0-.22,0-.44-.01-.66,0-1.12,0-2.25,0-3.37,0,0-.01,0-.02,0,0,0,.01,0,.02,0,.06-2.2.12-4.41.18-6.61h0c.2-.19.19-.38,0-.57.01-.33.03-.66.04-.99.05-.18.09-.36.14-.54.03-.26.06-.53.09-.79h0c.37-.25.4-.51.02-.78-.24-2.65.56-5.34-.32-7.97-.12-.37-.18-.93.33-1.23-.07-3.86.18-7.72-.15-11.57-.06-.15-.12-.31-.18-.46.72-6.48.25-13,.46-19.49.3-.28.31-.57.02-.87.02-.5.04-1.01.07-1.51.05-.17.1-.33.16-.5.17-1.72.35-3.44.52-5.16h0c.57-.62.29-1.34.25-2.03.15-1.03.41-2.06.44-3.1.09-3.34.09-6.68.13-10.02-.35-2.2.45-4.14,1.34-6.06.53-2.78.51-5.64,1.31-8.37.45-2.12,1.66-4.03,1.63-6.31-1.24,1.66-1.96,3.53-2.36,5.55-1.16,3.71-1.49,7.59-2.39,11.35-.61,2.58-.25,5.24-.82,7.82-.33.14-.33.28,0,.42h0c.04.39.09.78.13,1.17,0,.41,0,.82,0,1.24-.69,2.05-1.23,4.13-.84,6.32-.02.57-.03,1.14-.05,1.7-.53.27-.41.78-.43,1.23-.18,4.35-.36,8.71-.54,13.06-.27.3-.27.59.01.88-.74,1.46-.61,3.03-.73,4.6-.18,2.46-.18,4.81.13,7.31.28,2.25.16,4.81-.06,7.22.04.56-.29,1.22.43,1.59-.02.4-.04.81-.06,1.21-.87,1.35-.36,2.67.09,4-.09,1.18-.78,2.36.01,3.54-.01.06-.05.12-.04.17.03.11.09.22.14.33.03.37.06.74.09,1.11-.04.05-.11.1-.11.15.01.11.06.23.09.34-.01.24-.03.48-.04.71-.07.54-1.11,1.01-.12,1.63,0,.27.01.54.02.8-.1.06-.21.11-.31.17.14.11.28.21.42.32-.04,1.95-.08,3.89-.12,5.84-.01.3-.03.6-.04.91.07.81.52,1.61.09,2.44,0,0,0,0,0,0-.05.77-.11,1.53-.16,2.3-.67.7-.21,1.56-.32,2.34-.03.27.1.42.36.47.03.38.06.76.1,1.14-.33.61-1.04,1.24.13,1.73-.29,1.96-.59,3.99-.53,5.89.12,4.08-.63,8.04-1.18,11.99-.63,4.57-1.6,9.16-2.95,13.61h0c-.96,1.04-.75,2.35-.84,3.59.11.17.09.84.45.2.53-.93.3-2.16,1.12-2.99-.02-.17-.03-.33-.05-.5,1.51-4.14,2.05-8.52,3.15-12.76.8-5.67,1.69-11.32,1.85-17.06h0c.93-.12,1.57.07,1.49,1.22-.08,1.12-.05,2.23-.22,3.35-.17,1.17-.94,2.61.65,3.51Z"/>
  <path class="uuid-a45be511-5bc4-42be-890e-589f30cff8c6" d="m205.42,5.43c1.59.42,3.17.91,4.83.96.15,0,.29.02.44.03h0c.11.03.23.06.34.1.44.23.9.43,1.33.69,1.84,1.13,4.25.86,5.92,2.41,3.19.78,5.9,2.17,7.18,5.47.19.48.53.9.8,1.35.44-.01.69-.17.76-.68.57-3.94-.56-6.03-4.31-7.81,0,0,0,0,0,0-2.73-1.73-5.79-2.63-8.88-3.43-.91-.8-2.16-.36-3.16-.85-.39-.68-1.04-.33-1.58-.4,0,.36-.02.72-.03,1.08,0,0,0,0,0,0l-1.86-.07s0,0,0,0c-.04-.48-.08-.96-.12-1.44-.4-.01-.8-.03-1.2-.04-.29.49-.58.98-.87,1.47.16.07.31.14.47.22-.02.32-.04.64-.05.95Z"/>
  <path class="uuid-a45be511-5bc4-42be-890e-589f30cff8c6" d="m326.41,316.23c-1.06.38-1.06,1.27-.93,2.13.36,2.37.25,4.74-.1,7.08-.2,1.34.02,2.63.09,3.94.05.96.52.41.87.16-.2-2.08-.55-4.17.2-6.22-.05-.13-.04-.26.02-.38,0-.81.01-1.61.02-2.42-.07-.12-.08-.25-.03-.38-.05-.26-.11-.52-.16-.78-.44-.4-.44-.82-.07-1.26.03-.62.05-1.24.08-1.85Z"/>
  <path class="uuid-a45be511-5bc4-42be-890e-589f30cff8c6" d="m181.52,148.69c1.07.38,2.13.82,3.19,1.23.26.53.76.63,1.26.85,1.53.68,3.05,1.39,4.56,2.1,1.89,1.89,4.06,3.48,6.42,4.71,0,.19.09.37.29.48,2.8,1.53,5.9,2.39,9.05,2.57.1.08.22.14.38.13.51-.03,1.03-.07,1.54-.11,1.42-.04,2.84-.23,4.23-.56,2.03-.3,4.04-.77,6.02-1.48,2.82-1.01,5.3-2.81,8.29-3.43,1.03-.21,2.15-.25,3.32-1.04-1.67-.48-2.98-.86-4.45-.31-1.48.55-3.03.9-4.55,1.34-3.6-.57-7.06.25-10.53,1.05-.21.01-.41.02-.62.03-.14.02-.28.04-.41.06.04.05.07.07.11.09h0s-.07-.04-.11-.09c-.16.06-.31.12-.47.17-1.69.26-3.39.46-5.1.57-1.75,0-3.34-.39-5.02-1.14-2.07-.93-3.6-2.71-5.81-3.29-.65-.61-1.35-.98-2.21-1.18-.01-.01-.03-.03-.04-.04-.22-.23-.49-.23-.7-.11-1.84-.3-3.18-1.64-4.34-3.08,0,0,.03-.03.03-.03.14-.11.29-.22.43-.34,1.6-1.29,3.38-2.31,5.26-3.11,1.53-.66,2.86-1.99,4.76-1.59-.99,1.9-.96,3.91-.62,5.95,1.75,4.33,5.5,5.49,9.56,5.45,1.28-.01,2.39-.36,3.37-.95,1.93-.53,3.66-1.79,4.63-3.55,1.28-2.3,1.17-5.12-.08-7.38.79.07,1.57.22,2.24.67,3.9,2.67,9.05,3.09,12.35,6.84.17.19.43.32.68.4.43.15.93.39,1.3-.02.39-.44,0-.85-.2-1.25-.73-1.44-2.29-2.22-2.9-3.74-3.95-5.78-10.23-7.5-16.39-9.42-1.38-.08-2.77-.21-4.15-.22-2.1-.02-4.19.07-6.18-.77-.39.03-.78.07-1.16.1-.47.74-.64,1.35-.46,1.81-.18-.46,0-1.07.46-1.81-1.14-.37-2.08-.35-2.44,1.08-.34,1.36-.98.59-1.56.2.09-.65-.13-1.22-.43-1.77-.52,0-.95.15-1.11.72-.66,1.12-1.58,1.81-2.85,2.27-1.2.43-2.55.84-3.22,2.16-.97.13-1.91.14-2.09,1.53-.1.76-.78.82-1.5.36-1-.64-1.25,0-1.27.88,1.43.79,2.78,1.65,3.46,3.24,0,0,0,0,0,0-.07.11-.14.22-.22.34h0c-1.63.1-3.35-.28-4.81.82-.01.68.03,1.3.83,1.59Zm38.11,7.23s0,0,0,0c-1.82.53-3.72.3-5.58.42-.22.01-.43.04-.65.07h0c.22-.03.43-.05.65-.07,1.87-.12,3.76.1,5.58-.42Zm-12.79-8.78c.06.04.1.11.15.18-.05-.07-.09-.14-.15-.18Zm3.42,1.14c.09.07.15.14.19.21h0c-.04-.07-.09-.14-.19-.21,0,0,0,0,0,0Zm-1.6,2.92s0,0,0,0c0,0,0,0,0,0,0,0,0,0,0,0,0,0,0,0,0,0Zm.42-3.4c-.01.2,0,.39,0,.59h0c0-.2,0-.39,0-.59Zm-11.2.29c.21-1.65-.53-3.38.41-4.97,1.73-1.99,4.31-1.23,6.44-1.96.52-.18,1.03.29.55.78-.94.95-.16,1.3.41,1.85.94.9.39,2.32,1.06,3.33h0c-.15,2.07-.69,2.44-2.71,2.2-1.29-.15-1.99-.83-2.44-1.93-.33-1.23.43-1.97,1.19-2.75.33-.33.97-.79.53-1.31-.33-.4-.99-.2-1.5-.02-1.28.44-2.03,1.44-2.67,2.55-.43.75-.85,1.49-1.27,2.24Zm-9.2-4.19c-.51-.6-.34-1.18-.14-1.77-.2.59-.37,1.17.14,1.77-.47.7-1.04,1.24-1.73,1.61.69-.37,1.27-.91,1.73-1.61Z"/>
  <path class="uuid-a45be511-5bc4-42be-890e-589f30cff8c6" d="m316.46,368.08c-1.4-1.47-.16-3.81-1.87-5.47-.11,1.19-.11,2.11.09,3.09.6,2.95,2.05,5.87.6,8.97-.03.06,0,.13,0,.2.13-.01.26-.03.38-.05.98-1.44.82-3.17,1.18-4.76-.36-.61-.44-1.28-.37-1.98Z"/>
  <path class="uuid-a45be511-5bc4-42be-890e-589f30cff8c6" d="m276.15,190.25c2.43-1.82,1.55-4.85,2.61-7.18.18-.4-.35-.87-.8-.99-.62-.16-.77.42-.84.84-.12.7-.12,1.42-.18,2.14.47,1.84-1.03,3.38-.8,5.19Z"/>
  <path class="uuid-a45be511-5bc4-42be-890e-589f30cff8c6" d="m64.95,325.44c-1.37,3.92-3.06,7.51-4.56,11.19,2.58-3.09,5.12-9.37,4.56-11.19Z"/>
  <path class="uuid-a45be511-5bc4-42be-890e-589f30cff8c6" d="m165.97,62.79s-.01,0-.02,0h.01s0,0,0,0Z"/>
  <path class="uuid-a45be511-5bc4-42be-890e-589f30cff8c6" d="m166.87,62.18c1.45-2.41,2.93-4.81,4.38-7.22.16-.27.36-.59-.32-.89-1.96,2.7-3.84,5.48-4.95,8.72.45.03.68-.26.89-.61Z"/>
  <path class="uuid-a45be511-5bc4-42be-890e-589f30cff8c6" d="m313.64,354.07v-.78c.07-.58.12-1.16-.32-1.65-.54-3.9-.76-7.84-1.48-11.73-.31-1.66-1.04-3.25-.9-5,.51-.6.62-1.14-.21-1.56.08-.78.16-1.55-.64-2.05-.02-1.88.44-3.95-.18-5.61-1.23-3.28-1.45-6.58-1.37-9.98.59-1.49.59-2.9-.51-4.69-.55,1.94-.23,3.31,0,4.69-.04,2.09-.43,4.11-.13,6.28.43,3.13,1.63,6.14,1.49,9.35.27,1.3.51,2.6.36,3.94-.03.25.1.37.34.39.43,6.18,1.83,12.23,2.44,18.38.39,2.44.78,4.88,2.06,7.07.48-2.49-.54-4.73-.95-7.07Z"/>
  <path class="uuid-a45be511-5bc4-42be-890e-589f30cff8c6" d="m274.12,204.02c1.56-1.21,3.62-1.55,5.01-3.13-2.15-.19-3.93.62-5.46,2.07-.26.25-.35.59-.21.92.12.29.42.33.66.14Z"/>
  <path class="uuid-a45be511-5bc4-42be-890e-589f30cff8c6" d="m260.52,143.91c-.1.16-.19.31-.29.47,0,.35,0,.71,0,1.06.72.11,1.08-.16,1.19-.92.33-2.21.74-4.4,1.09-6.6.02-.13-.22-.31-.34-.46-1.71,1.85-1.06,4.32-1.65,6.46Z"/>
  <path class="uuid-a45be511-5bc4-42be-890e-589f30cff8c6" d="m258.84,207.53c-.56-.03-.56.44-.62.81-.31,1.84.6,3.29,1.51,4.74.15-.02.31-.03.46-.05.29-1.69-.46-3.22-.8-4.8-.07-.33-.14-.68-.55-.7Z"/>
  <path class="uuid-a45be511-5bc4-42be-890e-589f30cff8c6" d="m147.38,330.3c-1.88,2.04-2.57,4.63-3.35,7.18,2.07-1.96,2.16-4.82,3.35-7.18Z"/>
  <path class="uuid-a45be511-5bc4-42be-890e-589f30cff8c6" d="m257.36,323.74c.22.07.44.14.66.21.84-2.61,1.69-5.21,2.53-7.82-.13,0-.25-.02-.38-.04-1.5,2.37-2.16,5.01-2.82,7.64Z"/>
  <path class="uuid-a45be511-5bc4-42be-890e-589f30cff8c6" d="m172.74,23.24c.13.14.27.27.4.41,1.94-1.01,4.23-1.26,5.97-2.71.15-.28.3-.55.45-.83-2.39.78-4.71,1.71-6.82,3.13Z"/>
  <path class="uuid-a45be511-5bc4-42be-890e-589f30cff8c6" d="m181.91,58.36c1.6-1.63,3.03-3.36,3.27-5.78-1.45,1.78-3.28,3.31-3.64,5.8.12,0,.24,0,.36-.02Z"/>
  <path class="uuid-a45be511-5bc4-42be-890e-589f30cff8c6" d="m65.84,323.97c1.34-1.75,2.49-3.58,2.57-5.88-1.1,1.85-2.1,3.75-2.57,5.88Z"/>
  <path class="uuid-a45be511-5bc4-42be-890e-589f30cff8c6" d="m304.54,339.5c-.49,1.59-.35,2.88-1.09,3.97-.35.51-.1,1.06.51,1.26.47.15.86-.25.81-.62-.19-1.4.52-2.84-.23-4.6Z"/>
  <path class="uuid-a45be511-5bc4-42be-890e-589f30cff8c6" d="m304.52,337.46c.43-.08.4-.55.29-.81-.53-1.23-.16-2.6-.52-3.85-.18,0-.36.01-.53.02,0,1.3-.03,2.6.02,3.9.01.39.24.82.74.74Z"/>
  <path class="uuid-a45be511-5bc4-42be-890e-589f30cff8c6" d="m303.77,323.36c-.81.68-.31,1.53-.31,2.32.06.16.12.32.18.48.02.25.03.5.05.74-.36.27-.36.54,0,.8l.11,1.94c-.01.3-.03.61-.04.91.08,0,.15,0,.23,0,0-.3,0-.61,0-.91.09-2.08.18-4.16.27-6.25.38-1.77.18-3.55.14-5.33-.22.01-.45.03-.67.04,0,1.75.02,3.5.03,5.25Z"/>
  <path class="uuid-a45be511-5bc4-42be-890e-589f30cff8c6" d="m149.77,291.57c.45-1.7.9-3.41,1.35-5.11-.17-.04-.34-.08-.51-.12-.84,1.61-.94,3.4-.84,5.23Z"/>
  <path class="uuid-a45be511-5bc4-42be-890e-589f30cff8c6" d="m280.54,140.32c-1.12.4-2.22.82-3.03,1.61-3.58,2.25-6.58,5.37-8.67,9.04-.3.29-.48.66-.58,1.07-.03.07-.04.14-.04.21-.06.37-.06.78,0,1.22.4-.16.68-.39.91-.65.09-.05.18-.12.25-.24.43-.77.94-1.45,1.55-2.06.03-.03.07-.05.1-.09,0,0,.01-.02.02-.02.15-.15.3-.29.46-.43.13-.11.18-.24.19-.37.97-1.2,1.99-2.37,3.09-3.46.44-.28.8-.61,1.07-1,.98-.92,1.99-1.8,3.06-2.62.2-.15.27-.36.26-.55.48-.4.93-.83,1.39-1.26,0-.13-.01-.26-.02-.39Z"/>
  <path class="uuid-a45be511-5bc4-42be-890e-589f30cff8c6" d="m322.11,364.63c-.6,1.36-1.08,2.74-.79,4.26-.18.66-.35,1.32-.53,1.98.24,2.43-.53,4.78-.6,7.19-1.56,4.63-1.14,9.61-2.64,14.36.48-.07.61-.3.7-.54,1.52-4.36,2.31-8.88,2.95-13.43.52-2.9.93-5.81.79-8.77-.32-1.69.98-3.34.12-5.03Z"/>
  <path class="uuid-a45be511-5bc4-42be-890e-589f30cff8c6" d="m321.2,183.33c.17-.06.34-.13.51-.19-.56-1.48-1.12-2.95-1.68-4.43-.17.08-.34.17-.5.25.56,1.46.5,3.19,1.67,4.37Z"/>
  <path class="uuid-a45be511-5bc4-42be-890e-589f30cff8c6" d="m260.81,217.49c.29-1.83.32-3.21-.61-4.46-.15.02-.31.03-.46.05.2,1.37.12,2.81,1.08,4.41Z"/>
  <path class="uuid-a45be511-5bc4-42be-890e-589f30cff8c6" d="m264.8,234.3c-.69.02-.95.63-.97,1.26-.02.52.28.84.83.95.7-.09.69-.65.69-1.17,0-.43.1-1.07-.55-1.04Z"/>
  <path class="uuid-a45be511-5bc4-42be-890e-589f30cff8c6" d="m254.83,234.19c.03-.48-.12-1.02-.52-.94-.76.15-.86.9-.91,1.56-.03.3-.04.79.38.77.86-.04.83-.86,1.05-1.39Z"/>
  <path class="uuid-a45be511-5bc4-42be-890e-589f30cff8c6" d="m225.69,50.6c-1.05-1.02-2.07-1.64-3.43-1.41,0,0-.04.05-.04.05.83,1.15,1.82,1.87,3.47,1.36Z"/>
  <path class="uuid-a45be511-5bc4-42be-890e-589f30cff8c6" d="m326.21,372.36c.03-.49.06-.98.09-1.46-.06-.16-.13-.33-.19-.49,0-4.65.01-9.3.02-13.94.01-.39.02-.78.03-1.16-.29-2.62-.07-5.23.21-7.84-.09-.19-.19-.38-.28-.57,0-1.51,0-3.03-.01-4.54-1.75,2.97-.52,6.24-.93,9.34.48,2.47-.17,4.92.05,7.44.39,4.4.12,8.85.13,13.29.12.64.25,1.27.35,1.91.08.52.08,1.21.79,1.08.61-.11.33-.73.24-1.15-.14-.63-.32-1.26-.49-1.89Z"/>
  <path class="uuid-a45be511-5bc4-42be-890e-589f30cff8c6" d="m283.67,383.91c.16-.35.59-.58.48-1.05,1.36-.33,1.9-1.31,2.37-2.67-1.07.11-1.33.85-1.92,1.09-.15.52-.3,1.05-.45,1.57-1-.15-1.56.88-2.48.94,0,.32.02.65.03.97.83.12,1.27-.68,1.98-.85Z"/>
  <path class="uuid-a45be511-5bc4-42be-890e-589f30cff8c6" d="m217.86,135.51c1.07.57,1.69,2.08,3.28,1.59-.8-1.13-1.87-1.72-3.28-1.59Z"/>
  <path class="uuid-a45be511-5bc4-42be-890e-589f30cff8c6" d="m247.49,297.05c-.78-.15-1.47-.2-2.11.26-.53.18-1.3-.87-1.63.33-1.3,0-2.6,0-3.9,0-.17-.03-.35-.05-.52-.08-3.19-.49-6.45-.57-9.49-1.83-3.63-2.33-7.68-3.83-11.6-5.48-4.13-1.74-8.3-3.41-12.26-5.47-7.09-3.68-13.43-8.56-19.77-13.38-.96-.73-1.84-1.66-3.09-1.96h0c-1.33-1.08-2.67-2.17-4-3.25-.77-1.21-2.01-1.91-3.12-2.7-4.53-3.22-9.22-6.21-13.08-10.33-.86-.92-1.64-2.07-2.85-2.67-2.13-3.09-3.61-6.36-2.89-10.26.07-.38.03-.79.04-1.19.54-1.04.33-2.14.22-3.23,0-.79,0-1.57-.01-2.36.31-2.14.82-4.27.86-6.42.04-2.29.57-4.57.25-6.87,0,0,0,0,0,0,.11-.65.22-1.3.33-1.95-.05-.13-.04-.26.02-.38-.05-1.6-.1-3.19-.15-4.79.06-3.87.11-7.75.17-11.62-.05-.13-.09-.26-.14-.38h0c.13,0,.26-.01.39-.03-1.1-15.74,1.87-30.98,5.82-46.19-.91.15-1.2.77-1.23,1.19-.24,3.93-2.48,7.34-2.7,11.33-.18,3.11-1.45,6.14-1.83,9.26-.85,7.07-1.45,14.17-1.28,21.3.03,1.07.05,2.11.41,3.12-.63,4.01-.36,8.04-.2,12.06h0c.17,2.39-1.02,4.72-.26,7.13-.49,2.02-.48,4.09-.74,6.13-.3,2.37.19,4.81-.7,7.1-1.33,9.69-.83,19.41-.45,29.13.22-.01.44-.02.66-.03-.33-3.45.18-6.89.22-10.34-.07-.95-.58-2.29.45-2.66,1.12-.41,1.29,1.19,1.97,1.81.27-.02.43-.13.54-.29-.11.16-.27.27-.54.29.13.39.26.78.4,1.18.79.88,1.49,1.85,2.37,2.62,2.21,1.94,4.43,3.89,6.78,5.66,3.07,2.31,5.94,4.94,9.54,6.47,1.42,1.34,3.1,2.3,4.74,3.33,3.89,2.55,7.24,5.8,11.23,8.22,4.98,3.02,9.89,6.13,15.19,8.63,3.46,1.63,7.19,2.61,10.47,4.58,3.11,1.87,6.48,3.15,9.82,4.52,4.89,2,9.94,2.65,15.17,1.85.16-.05.32-.1.48-.16,0,0,.07,0,.07,0,.76-.18,1.72-.04,1.94-1.2Zm-64.24-26.73c.04-.1.06-.2.07-.29,0,.1-.03.2-.07.29Z"/>
  <path class="uuid-a45be511-5bc4-42be-890e-589f30cff8c6" d="m155.9,264.53c-.29,1.31-.32,2.63-.14,3.96-.03.06-.09.13-.07.18.03.12.1.24.15.35.14,6.02.2,12.04.43,18.05.17,4.38-.43,8.71-.59,13.06-.59,1.43-.6,2.98-.92,4.46-.49,2.26-.51,4.79-2.08,6.55-1.48,1.67-1.79,3.41-1.69,5.43-.21.51-.41,1.03-.62,1.54-.09.14-.18.28-.27.41-.18.34-.47.66-.54,1.03-.78,3.96-2.99,7.28-5.39,10.27-6.39,7.97-14.39,14.25-22.47,20.4-.82-.58-.46-1.43-.51-2.18-1.37,1.33-2.95,2.46-4.11,4.01-.6.51-1.36.94-1.64,1.6.28-.66,1.04-1.09,1.64-1.6,1.16-1.55,2.73-2.68,4.11-4.01,5.98-8.3,11.32-16.98,15.67-26.24,2.24-3.05,2.92-6.83,4.79-10.05.2-.3.39-.6-.21-.65-.05-.18-.1-.35-.14-.53-.75-.26-1.13-.59-1.14-1.09,0-.2.06-.43.18-.7-.12.27-.18.5-.18.7,0,.5.38.82,1.14,1.09.45-.1.65-.4.69-.83.57-.39.89-.98,1.14-1.59,1.48-3.54,3.03-7.06,4.37-10.66.61-1.65,1.5-3.27,1.71-5.34-1.03.69-1.27,1.56-1.53,2.33-1.09,3.27-2.69,6.32-3.98,9.5-.26.65-.4,1.44-1.26,1.65.53-.91-.2-1.79-.06-2.7h0c.07-.16.14-.32.2-.48,0,0,.06-.13.06-.13.25.07.57.16.65-.16.09-.33-.28-.36-.5-.46.12-.53.24-1.06.37-1.59.05-.03.14-.07.14-.1-.01-.11-.06-.21-.09-.31.08-.38.16-.76.25-1.14.04-.14.07-.29.11-.43.54-2.6,1.09-5.2,1.79-7.76.59-2.16,1.31-4.33,1.11-6.63.62-2.9,1.58-5.75,1.12-8.79.05-1.01.11-2.01.16-3.02.06-.19.13-.38.19-.58.39-2.6,1.05-5.2,1.13-7.81.25-8.5.31-17,.38-25.5.06-7.58.12-15.16-.04-22.73-.06-2.75.35-5.59-.69-8.28,0-.14-.01-.27-.02-.41l-.04-.76c-.16-.02-.31-.02-.44,0,.14-.01.28,0,.44,0,.26-1.13-.05-2.2-.4-3.25-.39-3.71-.78-7.43-1.17-11.14.07-2.22-1.07-4.15-1.51-6.26-.11-.55-.34-1.52-1.21-1.17-.68.28-.54,1.24-.35,1.78.8,2.37,1.42,4.78,1.97,7.21.13,2.52.26,5.05.4,7.57.29.06.51.16.68.28-.17-.13-.4-.22-.68-.28-.06,1.09-.41,2.2.25,3.24.04,1.33.09,2.66.13,4-.03.12-.03.24-.01.36.1.14.2.28.3.42.04.4.07.8.11,1.2.43.76.3,1.6.29,2.41.02,1.73.05,3.46.07,5.18.12.83-.02,1.63-.33,2.41.01.26.03.52.04.78.04.28.08.55.12.83.28,2.92.26,5.84.11,8.77v2.01c0,2.53,0,5.05-.01,7.58.01.67.02,1.34.03,2.01.02,1.33.04,2.66.06,3.99.15.59.08,1.14-.26,1.64-.03.52-.05,1.03-.08,1.55.01.14.02.28.03.42,0,1.2,0,2.41,0,3.61-.97.95-.34,2.12-.44,3.19-.14,3.34-.04,6.71-.5,10-.42,2.95-.19,5.84-.04,8.75h0c-.88,2.88-1.47,5.81-1.38,8.84-.05.25-.1.51-.15.76.07.83.23,1.67-.27,2.43-.52,2.02-1.31,3.95-1.53,6.06-.47,4.61-2.92,8.78-3.04,13.48-.06.98-.31,1.89-1,2.63-1.01,4.03-3.21,7.66-3.86,11.81-1.32,1.06-1.62,2.64-2.2,4.11-2.61,6.66-6.54,12.55-10.94,18.12-2.86,3.62-5.84,7.14-9.02,10.48-.98.57.54,1.72-.77,2.47-6.28,3.61-12.32,7.82-19.67,8.9-5.39.79-10.69,1.86-15.9,3.44-3.34.13-10.84,3.42-11.63,5.24,1.16-.57,2.16-1.29,3.27-1.56,2.91-.72,5.61-1.98,8.4-2.99,3.27-.14,6.22-1.68,9.49-2.01,5.14-.53,10.21-1.72,14.99-3.74,5.06-2.13,9.77-4.95,14.28-8.08.12-.01.21-.07.26-.18,2.62-1.53,5.13-3.2,7.57-5.05,5.17-3.92,10.29-7.9,15.04-12.31,4.26-3.95,7.65-8.71,11.04-13.39,1.7-2.35,1.78-5.7,3.42-8.27-.16-.03-.31-.03-.45-.01.14-.02.29-.02.45.01,1.9-4.91,3.04-10.01,3.66-15.23.92-2.85,0-5.89.9-8.74.48-.51.43-1.08.14-1.66.04-1.04.09-2.08.13-3.12.12-.47.15-.91-.27-1.27-.05-3.02.24-6.05.16-9.04-.1-4.14-.44-8.31-.8-12.46.22-.69.19-1.39.04-2.09-.22.01-.44.02-.66.03-.03.65-.06,1.31-.09,1.96Zm-9.11,10.79c-.11-.05-.23-.12-.34-.22.11.1.23.18.34.22Z"/>
  <path class="uuid-a45be511-5bc4-42be-890e-589f30cff8c6" d="m250.24,9.26c.25-.08.49-.16.74-.24-.09-.41-.38-.55-.76-.56-.14.11-.27.21-.41.32.14.16.29.32.43.49Z"/>
  <path class="uuid-a45be511-5bc4-42be-890e-589f30cff8c6" d="m273.77,194.25s0,0,0,0c.62-1.43,2.44-2.14,2.38-3.99-.53.12-1.07.24-1.6.36-.13.01-.26.02-.39.03.27,1.24-.31,2.39-.4,3.59-.78.06-.8.63-.8,1.22.52-.24.79-.65.82-1.22Z"/>
  <path class="uuid-a45be511-5bc4-42be-890e-589f30cff8c6" d="m270.9,196.97c-.38.02-.76.05-1.14.07-1.34,1.62-2.7,3.23-3.99,4.89-.28.36-.72,1.01-.03,1.36.52.26,1.2-.11,1.29-.63.49-2.6,2.91-3.68,4.25-5.59.43-.12.69-.43.88-.81-.55.01-1.1.03-1.27.72Z"/>
  <path class="uuid-a45be511-5bc4-42be-890e-589f30cff8c6" d="m318.83,52.52c-.07,0-.21.15-.21.23-.01.43.3.47.63.47,0,0,.02-.02.02-.02-.05-.3,0-.66-.44-.68Z"/>
  <path class="uuid-a45be511-5bc4-42be-890e-589f30cff8c6" d="m274.21,189.55c.06.13.15.2.29.22-.07-.11-.17-.18-.29-.22Z"/>
  <path class="uuid-a45be511-5bc4-42be-890e-589f30cff8c6" d="m88.77,194.56c-.01-.12-.06-.23-.09-.35-.04-1.71-.07-3.43-.11-5.14.9-3.1-.42-6.14-.31-9.22-.75,3.06-.47,6.14-.25,9.23,0,.25-.02.5-.02.75-.05.17-.1.35-.16.52.04.34.07.69.11,1.03-.02.19-.05.39-.07.58,0,.35-.01.69-.02,1.04-.01.18-.03.35-.04.53.01.36.03.71.04,1.07,0,.18,0,.37,0,.55.03.99.05,1.99.08,2.98.2.05.4.09.59.14.05-1.18.1-2.36.15-3.54.04-.05.12-.1.11-.15Z"/>
  <path class="uuid-a45be511-5bc4-42be-890e-589f30cff8c6" d="m165.81,62.97s.08-.09.11-.14c-.03.01-.07.02-.09.04-.02.02-.02.06-.02.1Z"/>
  <path class="uuid-a45be511-5bc4-42be-890e-589f30cff8c6" d="m165.97,62.8h-.01s-.02,0-.03.02c.01,0,.03-.01.04-.02Z"/>
  <path class="uuid-a45be511-5bc4-42be-890e-589f30cff8c6" d="m322.9,107.05c.74,3,2.67,5.61,2.55,8.94-.07,2.03.55,4.09.97,6.12.96,4.69,2.31,9.3,2.54,14.12.6,3.51,1.2,7.01,1.81,10.52.18-.03.35-.06.53-.1-.05-3.52-1.08-6.9-1.69-10.35.16-2.42.54-4.98.17-7.26-1.26-7.76-2.58-15.54-5.09-23.04-.67-2.76-2.15-5.18-3.36-7.71-1.31-2.72-3.27-5.08-4.49-7.86-3.57-3.26-5.96-7.37-8.33-11.51-2.87-5-6.18-9.69-10-14.03-.8-.91-2.46-1.61-1.57-3.38-.1-.41-.18-.83-.5-1.13.33.29.4.72.5,1.12,3.29,3.13,6.3,6.5,9.17,10,.07-.15.13-.3.19-.45-.06.15-.12.3-.19.45,1.92,3.11,4.78,5.55,6.34,8.91.9,2.57,2.46,4.6,4.85,5.95-.76-1.59-1.61-3.13-2.09-4.86-.19-.69-.23-1.63-1.17-1.94-1.35-2.22-2.68-4.46-4.06-6.67-.71-1.15-1.13-2.51-2.34-3.31-2.1-4.39-5.64-7.56-9.15-10.76-1.01-.64-1.92-1.38-2.67-2.34-.92-1.19-2.31-1.64-3.65-2.13,0,0,0,0,0,0-.56-.65-1.12-1.29-1.68-1.94-1.47-.64-2.94-1.27-4.41-1.91,0,0,.09-.17.09-.17-.27,0-.55.02-.82.03h0c-.45-.49-.94-.85-1.66-.6-2.5-.87-5.01-1.73-7.51-2.6h0c-.04-.5-.07-1-.11-1.5-2.3-.96-4.73-1.33-7.18-1.57h0c-.23-.04-.47-.08-.7-.12-.26-.36-.53-.38-.83-.05-.24,0-.48,0-.73-.01,0,0,0,0,0,0-.09-.52-.37-.88-.87-1.07-.94-.41-1.88-.1-2.83.01-.83-.16-1.55-.53-2.15-1.12-.34-.15-.67-.3-1.01-.45-3.66-1.67-7.37-3.26-10.09-6.43-.2-.18-.48-.32-.58-.54-.28-.61-.79-.84-1.28-.5-.67.46.04.97.26,1.3.86,1.32,1.86,2.49,3.21,3.42,2.51,1.72,5.32,2.83,7.98,4.24,3.56,1.89,7.32,3.4,11.11,4.57,6.98,2.15,13.45,5.33,19.84,8.71,2.21,1.17,4.15,2.99,5.08,5.54-.05,1.25.49,2.31,1.15,3.31,3.5,5.24,7.01,10.47,10.52,15.69,1.21,1.8,2.38,3.62,3.66,5.36,2.95,4.02,5.48,8.3,7.9,12.65,1.69.86,1.75,2.64,2.31,4.13.45.95.91,1.89,1.36,2.84.15.38.31.76.46,1.14-.14.27-.01.33.23.31Zm-16.52-36.18c.09-.22.19-.42.32-.61-.13.19-.23.39-.32.61Z"/>
  <path class="uuid-a45be511-5bc4-42be-890e-589f30cff8c6" d="m312.4,156.12c.22.01.29-.08.22-.29-.12.06-.19.16-.22.29Z"/>
  <polygon class="uuid-a45be511-5bc4-42be-890e-589f30cff8c6" points="275.87 291.82 275.85 291.73 275.83 291.74 275.87 291.82"/>
  <path class="uuid-a45be511-5bc4-42be-890e-589f30cff8c6" d="m332.55,244.74c-.38.12-.42.37-.26.7.09-.23.17-.47.26-.7Z"/>
  <path class="uuid-a45be511-5bc4-42be-890e-589f30cff8c6" d="m224.02,117.72c-2.28-1.16-4.57-2.32-6.85-3.49-.17.37-.34.74-.51,1.11,1.99,1.14,3.99,2.27,5.98,3.41.22-.66.84-.79,1.38-1.03Z"/>
</svg>