<?xml version="1.0" encoding="UTF-8"?>
<svg id="Livello_23" data-name="Livello 23" xmlns="http://www.w3.org/2000/svg" viewBox="0 0 595.28 841.89">
  <defs>
    <style>
      .cls-1 {
        fill: #354f9d;
      }
    </style>
  </defs>
  <path class="cls-1" d="m327.27,466.18c-.42.03-.55.6-.05.57,6.87-.43,12.81-5.21,14.44-11.95,1.85-7.66-2.71-14.26-7.54-19.7-.23-.26-.92.04-.66.33,4.39,4.94,8.7,10.83,7.77,17.82-.95,7.08-6.84,12.49-13.95,12.93Z"/>
  <path class="cls-1" d="m263.67,439.92c-1.69,4.61-1.37,9.82,1.05,14.11,2.24,3.96,6.11,6.85,10.5,7.99.31.08.86-.37.42-.48-4.2-1.09-7.87-3.8-10.09-7.54-2.49-4.2-2.86-9.44-1.19-14,.14-.39-.58-.38-.69-.08Z"/>
  <path class="cls-1" d="m329.37,416.61c-6.18-8.58-9.82-18.82-10.44-29.38-.02-.39-.76-.29-.74.05.62,10.66,4.27,20.98,10.51,29.65.2.28.89-.01.66-.33Z"/>
  <path class="cls-1" d="m261.16,394.34c-10.89,4.71-22.88,6.5-34.66,5.17-.07,0-.15.1-.05.11,11.83,1.33,23.85-.46,34.78-5.19.09-.04.01-.12-.06-.09Z"/>
  <path class="cls-1" d="m302.48,507.01s-.11-.02-.14-.02c-.11,0-.23.01-.35.02-1.18,0-2.36-.1-3.54-.37-3.78-.85-7.31-3.26-11.23-2.69-.2.02-.39.03-.6.06-.09.01-.16.05-.22.1-.17.04-.33.08-.5.13-.42.14-.34.51.1.37.11-.04.23-.06.34-.09.05.03.12.04.22.03,4.8-.76,8.84,3.16,13.62,2.94.11,0,.19-.04.26-.1.04,0,.09,0,.13,0,2.04.12,4.08-.09,6.11-.35.03.06.12.1.28.09,1-.03,2-.07,2.99-.1.09,0,.17-.04.24-.1.04,0,.06.02.11.01.37-.06.74-.12,1.12-.19.06-.01.11-.03.16-.06.1-.01.2-.02.3-.03.05.04.12.07.24.06.5-.04,1-.07,1.51-.11.02,0,.04,0,.06-.01.48.02.95.06,1.43.14.05,0,.11,0,.17-.03,2.35.47,4.73.74,7.12.8.02,0,.04,0,.05,0,1.36.14,2.73.26,4.09.36.11,0,.22-.04.31-.11,3.73.34,7.48.41,11.22.28.42-.01.84-.04,1.26-.06.04.03.09.06.17.07.22.02.45.04.67.07.75.11,1.5.2,2.25.25,2.03.34,4.09.46,6.02-.3.48-.08.96-.17,1.44-.28-4.04,1.88-7.8,4.31-11.17,7.23-.31.27.41.25.58.11,2.94-2.55,6.19-4.72,9.66-6.47.39-.16.77-.32,1.16-.48.07,0,.12-.02.15-.03.92-.32,1.84-.64,2.77-.96.75-.22,1.5-.46,2.23-.73,0,0,0,0,0,0h0s.06-.02.09-.03c.05-.02.12-.06.17-.11.09-.03.19-.07.28-.1.09-.03.27-.14.21-.26-.05-.09-.18-.09-.29-.07-.07-.02-.17,0-.23,0-2.22.31-4.48.19-6.66-.34-.15-.04-.32.01-.46.07-11.7-3.17-22.66-10.94-35.18-8.56-.35.07-.59.52-.09.43,13.22-2.52,24.74,6.49,37.24,9.12,0,.02-.01.03-.01.05-2.64.07-5.27.27-7.9.51-1.04-.04-2.07.05-3.09.28-.08.02-.15.06-.2.11-4.71.2-9.43.14-14.13-.43-3.15-.39-6.31-.92-9.48-1.08-.18-.03-.36-.07-.55-.09-.02-.03-.06-.06-.12-.08-.9-.3-1.85-.3-2.75-.04-.12.04-.19.11-.24.19-1.11.09-2.22.22-3.33.38-2.02.26-4.06.57-6.08.61Z"/>
  <path class="cls-1" d="m290.12,525.02c4.83,1.3,9.84,1.84,14.84,1.87,5.66.04,11.3-.54,16.89-1.38.38-.06.57-.55.08-.48-10.28,1.54-21.01,2.29-31.17-.41-5.08-1.35-9.7-3.67-14.1-6.52-4.36-2.82-8.52-5.98-13.13-8.4-4.72-2.48-9.88-4.18-15.26-3.85-.39.02-.58.51-.08.48,10.97-.67,19.79,6.99,28.47,12.53,4.21,2.68,8.64,4.86,13.46,6.16Z"/>
  <path class="cls-1" d="m405.26,266.86c.25.37,1.22,0,.93-.44-9.27-13.97-26.16-20.86-42.43-21.88-21.28-1.33-41.73,5.98-61.91,11.64-11.64,3.26-23.48,6.04-35.61,6.44-.57.02-.79.75-.09.73,20.9-.69,40.56-8.33,60.59-13.5,18.6-4.8,38.66-7.5,56.95-.03,8.64,3.53,16.38,9.22,21.57,17.05Z"/>
  <path class="cls-1" d="m233.89,220.86c15.05-11.29,31.5-20.74,48.99-27.73,21.57-8.62,44.84-13.46,68.12-12.7,2.85.09,5.69.27,8.53.53.23.02,1.16-.39.65-.43-23-2.09-46.26,1.4-68.07,8.8-18.41,6.25-35.86,15.27-51.85,26.32-15.61,10.79-29.85,23.53-42.53,37.64-12.75,14.18-23.95,29.74-33.48,46.25-9.52,16.48-17.39,33.93-23.41,51.99-.74,2.23-1.46,4.47-2.15,6.72-.07.22.92.1,1-.17,5.45-17.81,12.67-35.06,21.51-51.45,9-16.69,19.66-32.49,31.87-46.99,12.11-14.38,25.77-27.5,40.82-38.79Z"/>
  <path class="cls-1" d="m360.34,569.98c-12.27,8.47-26.36,14.11-41.04,16.71-14.64,2.6-29.83,2.22-44.3-1.21-8.05-1.91-15.86-4.77-23.22-8.56-.18-.09-.75.21-.68.24,13.46,6.92,28.4,10.71,43.51,11.39,14.92.67,30-1.67,43.99-6.93,7.87-2.96,15.38-6.86,22.3-11.64.29-.2-.43-.09-.55,0Z"/>
  <path class="cls-1" d="m368.15,519.46c-4.44,7.72-10.06,14.71-16.65,20.71-.06.06.08.05.12.02,6.6-6,12.22-13,16.67-20.73.03-.06-.11-.04-.13,0Z"/>
  <path class="cls-1" d="m235.91,491.14c-2.04,1.78-4.3,3.3-6.71,4.53-.08.04.05.03.08.02,2.43-1.24,4.7-2.77,6.76-4.56.03-.02-.1,0-.13.01Z"/>
  <path class="cls-1" d="m435.11,475.78c2.54-12.42,4.29-24.99,5.38-37.61,1.05-12.24,1.48-24.55,1.22-36.83-.15-7.16-.53-14.33-1.21-21.46.15-.57.3-1.14.46-1.7.23-.8.44-1.63.9-2.33,1.22-1.88,4.52-3.26,6.58-3.84.54-.14,2.21-11.22,2.52-13.34.02-.17-.08-.32-.25-.34-1.35-.12-6.98-1.16-12.88-2.29-1.43-6.28-4.07-12.28-6.78-18.08-3.35-7.16-7.09-14.15-10.21-21.42-3.15-7.32-5.01-14.89-5.88-22.81-.92-8.44-.97-16.94-1.58-25.41-.68-9.35-2.12-18.73-6.19-27.26-.15-.31-1.14.01-1.01.27,7.36,15.41,6.05,32.91,7.47,49.48.69,8.04,2.12,15.94,5.13,23.45,2.9,7.25,6.58,14.17,9.96,21.2,3.13,6.52,6.3,13.26,7.98,20.35-6.65-1.27-13.33-2.57-14.4-2.73-6.62-.96-13.29-1.61-19.98-1.96-5.21-3.17-11.51-4.78-18.54-4.71-13.78-.1-27.57,2.07-40.6,6.48,13.32-2.94,26.93-4.55,40.55-4.35,5.07.02,9.62.83,13.69,2.39-6.33-.18-12.67-.08-18.99.37-8.21.58-16.33,1.97-24.32,3.87-5.57,1.32-11.42,2.18-16.95,3.96-2.81.91-5.56,2.04-8.06,3.63-1.22.79-2.4,1.68-3.42,2.72-1.03,1.04-1.83,2.53-3.25,3.09-2.1.84-5.67.23-7.91.17-3.75-.08-7.49-.36-11.22-.72-2.69-.25-7.3.46-8.25-2.58-1.87-6.01-7.86-8.83-13.33-10.84-6.13-2.25-12.25-4.36-18.44-6.2-14.33-11.98-35.32-16.15-52.89-9.3,16.4-3.67,34.02-1.09,48.21,7.97-6.89-1.87-13.89-3.36-21.11-4.28-15.03-1.92-30.26-2.1-45.36-.9,6.53-17.77,14.65-34.92,26.77-49.54,9.56-11.53,21.47-21.28,35.45-26.9.67-.27.04-.41-.36-.25-12.14,4.88-22.8,12.77-31.7,22.3-9.61,10.31-17.08,22.38-23.07,35.1-2.98,6.33-5.59,12.8-8,19.36-3.66.39-26.66,3.47-29.65,3.55-.18.01-.31.16-.29.34.2,2.17,1.26,13.52,1.81,13.71,2.12.71,5.48,2.31,6.64,4.3.43.73.61,1.58.79,2.41,1.71,7.94,3.26,16,5.45,23.86-2.11,7.69-4.02,15.43-5.58,23.25-3.15,15.72-4.91,31.79-4.02,47.83.11,1.99.26,3.99.46,5.98.32,9.35,1.52,18.64,3.55,27.74-.04.03-.07.07-.07.11-2.45,25.17-2.52,50.57-.17,75.75.67,7.14,1.53,14.27,2.58,21.36.04.24.76.07.72-.19-3.69-24.99-5.02-50.31-3.93-75.55.28-6.5.74-12.99,1.33-19.47,1.97,8.31,4.61,16.46,7.9,24.36-.12.05-.21.13-.21.24-.19,25.09-.39,50.19-.58,75.28-.06,7.15-.11,14.29-.17,21.44,0,.36.73.25.73-.06.19-25.09.39-50.19.58-75.28.05-6.79.11-13.59.16-20.38,1.81,4.23,3.79,8.39,5.95,12.45,3.18,5.96,6.73,11.72,10.61,17.25.16.23,1.08-.18,1.01-.27-13.58-19.36-23.02-41.59-26.97-64.93-1.13-6.65-1.8-13.38-2.03-20.12-2.43-25.4,2.03-50.58,8.63-75.08,1.21,4.14,2.61,8.21,4.33,12.17,2.03,4.69,4.47,9.24,7.82,13.11,7.23,8.39,19.59,11.33,30.06,13.22,21.19,3.85,47.27,1.86,61.63-16.35,3.38-4.29,6.46-8.85,8.97-13.69-3.21,7.14-7.56,13.77-12.89,19.57-.16.17.53.09.66-.05,9.08-9.87,15.31-22.14,17.96-35.28,3.38-4.62,9.42-6.63,15-5.97,4.84.59,8.19,3.39,10.82,7.08.13,1.17.29,2.33.43,3.44,1.44,10.79,6.22,20.65,12.23,29.53,12.65,18.66,37.41,22.1,57.86,19.54,10.11-1.25,22.06-3.43,29.44-11.23,3.42-3.61,6.01-7.92,8.21-12.41,4.97-10.06,7.86-21.01,10.75-31.86,1.48,16.99,1.33,34.16.09,51.11-1.8,24.7-5.99,49.5-14,72.99-4.03,11.82-9.08,23.38-15.82,33.92-.06.1-.01.15.08.18-2.68,19.3-3.88,38.78-3.58,58.27,0,.2.73.07.72-.19-.3-19.46.9-38.92,3.58-58.19.05-.03.1-.06.12-.1,5.92-9.25,10.54-19.28,14.32-29.57,4.21-11.49,7.39-23.35,9.84-35.33Zm-256.01-97.11c-.29-5.72.23-11.77,1.41-17.37,1.07-5,1.86-11.02,6.99-13.7.65-.34,1.32-.62,2.01-.86-2.26,6.42-4.35,12.91-6.39,19.4-1.36,4.33-2.69,8.66-3.99,13.01,0-.16-.03-.32-.04-.48Zm109.83,6.49c-2.57,9.78-8.75,19.53-13.89,26.06-12.89,16.35-36.29,18.13-55.31,14.68-9.41-1.7-20.5-4.34-27-11.88-7.23-8.39-12.15-21.08-13.38-32.38.88-3.02,1.79-6.02,2.7-9.01,2.67-8.69,5.39-17.5,8.45-26.19,5.08-1.39,10.99-.52,16.04-.66,21.71-.63,42.33,2.93,62.68,9.65,1.24,1.18,2.44,2.41,3.61,3.69-.73-1.12-1.51-2.21-2.33-3.26,1.94.65,3.88,1.33,5.82,2.04,5.25,1.94,9.83,4.48,12.14,9.9,2.25,5.3,2.05,11.33.47,17.36Zm143.15,4.64c-1.27,11.72-7,25.38-15.03,33.86-6.64,7.02-17.37,8.98-26.44,10.11-18.35,2.28-40.58-.79-51.93-17.56-4.53-6.69-9.88-16.6-11.76-26.34-1.16-5.99-1.02-11.92,1.44-16.97,2.52-5.18,7.04-7.42,12.16-9.01,21.49-6.67,42.95-9.78,65.32-8.04,3.92,3.24,7.19,7.54,9.79,12.98-1.59-5.13-4.08-9.39-7.28-12.79,5.69.42,12.47-.29,17.5,2.84,4.74,2.92,5.14,8.86,5.87,13.82.82,5.56.96,11.52.36,17.11Z"/>
  <path class="cls-1" d="m497.76,418.49c-4.38-16.43-10.56-32.31-16.26-48.31-5.78-16.23-10.69-32.73-15.52-49.27-9.19-31.41-18.49-63.32-35.24-91.68-14.18-24.01-33.69-45.88-59.05-58.28-2.98-1.46-6.03-2.77-9.13-3.95-.03-.03-.08-.05-.16-.06-.19-.03-.37-.05-.56-.07.02-.04.03-.08.03-.13.01-.07-.02-.13-.1-.17,0,0,0,0,0,0-28.83-20.99-66.91-25.58-101.03-17.06-34.7,8.67-64.42,31.25-86.27,59.07-14.39,18.32-25.33,38.84-33.68,60.44-.18.02-.37.09-.42.2-9.25,19.3-16.02,39.73-21.16,60.49-5.59,22.54-9.27,45.55-11.59,68.65-2.39,23.79-3.34,47.72-3.05,71.62.29,23.7,1.79,47.4,4.57,70.94,2.56,21.63,6.18,43.16,11.28,64.35.58,2.41,1.18,4.82,1.8,7.22.06.23.78.04.72-.19-5.37-20.79-9.24-41.95-12.04-63.23-3.05-23.18-4.83-46.53-5.43-69.9-.63-24.24.01-48.52,2.1-72.68,2-23.21,5.34-46.33,10.5-69.05,4.78-21.04,11.12-41.8,19.89-61.54.41-.92.84-1.82,1.26-2.73-5.13,13.92-9.22,28.24-12.47,42.69-9.61,42.64-13.42,86.86-14.06,130.5-.65,44.63,2.7,89.33,10.04,133.35.91,5.47,1.89,10.92,2.92,16.36.08.42,1.1.17,1.01-.27-8.22-43.39-12.59-87.48-13-131.64-.4-43,2.59-86.35,10.15-128.71,7.02-39.35,19.02-78.51,41.11-112.16,19.49-29.7,46.89-55.32,80.38-68.22,33.43-12.88,73.05-12.47,104.76,5.09,3.15,1.74,6.18,3.66,9.13,5.72-24.18-6.45-49.99-7.82-74.55-2.79-24.65,5.04-46.86,17.45-65.8,33.8-10.62,9.16-20.2,19.48-28.85,30.52-.39.5.58.59.84.25,15.04-19.2,33.05-36.45,54.25-48.72,10.85-6.28,22.48-11.1,34.66-14.08,12.63-3.09,25.69-4.35,38.68-4.07,13.41.28,26.77,2.2,39.74,5.62-25.6-3.1-51.85-.37-76.27,7.95-7.19,2.45-14.21,5.37-21.01,8.75-.63.31-.05.68.41.45,24.01-11.94,50.8-18.06,77.62-17.8,7.66.07,15.3.67,22.88,1.78.05,0,.11,0,.17-.01,26.79,10.3,47.91,31.08,63.34,54.85,17.5,26.97,27.54,57.76,36.6,88.37,4.89,16.54,9.55,33.16,15.04,49.51,5.38,16,11.66,31.68,16.69,47.8,5.04,16.15,8.82,32.87,8.74,49.87-.07,15.43-3.38,30.62-7.78,45.34-8.69,29.08-21.97,57.3-24.48,87.89-.31,3.83-.44,7.66-.38,11.5,0,.2,1.02.04,1.01-.27-.44-31.5,12.43-60.86,22.03-90.25,4.71-14.42,8.76-29.17,10.13-44.32,1.5-16.64-.84-33.21-5.13-49.28Z"/>
  <path class="cls-1" d="m399.54,383.99s-.04,0-.07.01c-.11-.05-.24-.08-.37-.09.31-.11.56-.27.53-.42-.02-.07-.04-.14-.06-.22.04-.02.08-.03.12-.05.14-.06.72-.25.52-.49-.12-.14-.49-.08-.78,0-.02-.07-.03-.13-.05-.2.2-.08.72-.37.47-.63-.16-.16-.44-.15-.71-.1-.15-.42-.32-.82-.5-1.21.11-.04.21-.09.3-.16.07-.05.23-.17.2-.29-.06-.22-.5-.17-.77-.12-.08-.15-.17-.3-.26-.45.36-.13.72-.27,1.08-.4.15-.05.34-.17.29-.36-.04-.17-.29-.22-.43-.17-.33.12-.65.24-.98.37,0-.03.01-.05,0-.08-.06-.21-.3-.26-.54-.27-.07-.1-.13-.2-.2-.29.54-.27,1.08-.54,1.61-.81.07-.04.24-.16.08-.21-.15-.05-.37.02-.51.09l-1.04.52c.03-.06.06-.12.06-.18.02-.28-.2-.44-.44-.5.43-.15.84-.34,1.22-.59.09-.06.23-.19.07-.26-.14-.06-.39,0-.51.07-.32.21-.58.34-.94.47-.02,0-.05.02-.07.03.03,0,.03-.01,0,0-.04.01-.08.03-.13.04-.09.02-.17.05-.26.07-.02,0-.04,0-.06.01,0,0,0,0-.02,0-.01,0-.02,0-.04,0-.01-.01-.03-.03-.04-.04-.12-.16-.25-.32-.39-.48.09,0,.2-.01.28-.05.51-.21,1.02-.43,1.53-.64.13-.05.28-.24.17-.37-.03-.03-.06-.06-.1-.08.4-.21.78-.45,1.13-.73.11-.08.19-.23.07-.34-.12-.11-.33-.1-.47-.03-.72.39-1.44.78-2.16,1.17-.09.03-.19.06-.29.09-.17-.27-.71-.19-.93-.14-.06.01-.12.03-.19.04-.06-.06-.13-.12-.19-.19.07-.04.15-.09.21-.15.09-.1.21-.28.16-.43-.13-.38-.7-.35-1-.27-.07.02-.14.03-.21.05-.12-.11-.25-.22-.38-.33.19-.05.4-.17.52-.31,0,0,0-.01.01-.01.37-.09.74-.18,1.12-.27.11-.03.35-.13.31-.28-.04-.15-.31-.11-.41-.09-.29.07-.59.14-.88.21,0,0,0-.01,0-.02-.14-.42-.67-.39-1.02-.33l-.83.16c-.15-.11-.31-.23-.46-.34l1.64-.28c.15-.03.34-.18.29-.35-.05-.19-.28-.18-.43-.16-.45.08-.9.15-1.36.23-.01-.03-.01-.07-.04-.1-.29-.31-.81-.21-1.15-.07-.35-.23-.7-.46-1.05-.69.12-.09.26-.23.27-.38.03-.42-.46-.52-.78-.49l-.77.07c-.21-.13-.42-.26-.63-.38-.08-.05-.2-.05-.35-.03-.1-.06-.19-.12-.29-.18-.1-.06-.24-.07-.39-.06-1.29-.7-2.66-1.23-4.12-1.55-2.02-.82-4.13-1.35-6.28-1.61.37-.03.74-.05,1.11-.08.36-.02.6-.44.1-.41-.76.05-1.53.11-2.29.16-.06,0-.17.05-.26.12-.31.01-.62.02-.93.03,0,0-.01,0-.02,0,.06-.1.04-.19-.18-.19-.44,0-.88,0-1.32,0l.66-.49c.32-.24-.03-.34-.27-.29-.61.13-1.2.33-1.76.6-.03.01-.06.03-.08.04-.3.15-.59.31-.87.49-.02.01-.02.02-.04.03-.26.03-.51.06-.77.1.23-.25.46-.51.69-.76.11-.12.07-.25-.08-.31-.05-.02-.1,0-.15,0,.06-.14.12-.28.19-.43.14-.37-.57-.3-.68-.05-.17.45-.45.84-.83,1.11-.02-.05-.03-.09-.05-.14-.09-.26-.62-.14-.7.07-.04.09-.2.57-.33.55-.01,0-.01-.01-.02-.02.07-.13.12-.27.14-.43.03-.22-.3-.21-.42-.18-.17.04-.31.15-.4.27-.15.01-.3.08-.38.2-.08.12-.18.21-.28.3.05-.32.11-.63.16-.95.06-.32-.62-.2-.71.01-.17.45-.35.89-.52,1.34-.07.18.07.26.25.26,0,.07.04.11.09.13-.62.21-1.24.43-1.84.69-2.05.63-3.99,1.6-5.73,2.93-.15.12-.2.21-.17.27-2.06,1.11-4.02,2.43-5.85,3.86-2.49,1.95-4.79,4.13-7.04,6.35-.13,0-.27.05-.36.13-2.16,1.94-4.12,4.11-5.83,6.46-.2.27.5.21.63.07.04-.05.08-.1.13-.14,1.99-.03,3.97-.06,5.96-.09.1,0,.24-.02.35-.08.12.02.25.03.37.05.16.03.4,0,.51-.14.11-.12.08-.21-.07-.26-.29-.09-.58-.18-.87-.26,0,0,0,0,0,0-.38-.12-.77-.23-1.15-.35-.11-.03-.32.03-.45.12-.53-.1-1.06-.13-1.59-.1-.41-.1-.83-.16-1.26-.16.92-1.18,1.84-2.36,2.76-3.55,3.65-3.66,7.48-7.36,11.83-10.17-1.63,2.04-2.6,4.6-2.47,7.24.14,2.87,1.51,5.48,3.56,7.44-3.42-.8-6.77-1.76-9.96-2.69-.36-.1-1.65.46-1.18.6,11.67,3.4,25.11,6.84,36.77,2.57.03.04.12.04.18.03.98-.13,1.94-.42,2.83-.85.74.12,1.48.24,2.21.36.09.01.8-.14.64-.27-.41-.3-.85-.52-1.32-.67.04-.02.11-.06.16-.11.08.02.17.03.25.06.14.04.34-.01.47-.07.01,0,.06-.03.1-.06.2.01.39.02.59.05.08,0,.73-.16.57-.28-.27-.2-.56-.35-.86-.47.32.06.63.15.92.28.1.04.81-.08.7-.22,0-.01-.02-.02-.03-.03,0,0,0,0,0,0,0,0,0,0,0,0-.24-.31-.55-.54-.9-.68.22.02.43.04.65.11.13.03.28,0,.41-.05.05.02.1.04.15.07.15.08.82-.14.68-.25l-.03-.03c.32,0,.65.01.97.02.54.26,1.08.52,1.62.78,0,.02,0,.04.06.06.06.01.11.04.17.05.34.17.69.33,1.03.5.09.04.2.03.3,0,.49.24.95.52,1.38.86.33.29.67.59.97.91.13.13.8-.12.68-.25-.3-.34-.63-.64-.99-.92-.14-.12-.28-.24-.43-.36.18.11.37.21.55.32.12.08.34,0,.47-.04.04-.01.33-.14.21-.21-.62-.4-1.27-.74-1.93-1.06.19,0,.38.02.57.02.31.13.61.29.9.47.04.02.07.05.11.07.15.1.29.2.42.31.18.15.36.3.53.47.13.13.8-.13.68-.25-.17-.17-.35-.33-.54-.48-.16-.13-.32-.25-.49-.36,0,0,0,0,0,0-.14-.09-.28-.2-.43-.28.19-.01.39,0,.58-.02.35-.03.91-.25.97-.66.06-.42-.48-.51-.78-.49-.04,0-.08,0-.12,0,.21-.05.43-.1.64-.16.13-.04.29-.12.43-.22.1-.02.2-.04.3-.06.25-.06.84-.29.76-.64-.08-.35-.77-.22-.98-.17Zm-59.43,3.97s-.01,0-.02,0l.03-.03s0,0,.01,0c0,0-.01.02-.02.02Zm34.67-.95s-.04,0-.06,0c.05-.06.11-.11.16-.17-.03.06-.07.11-.1.17Zm-20.06-3.36c.02.09.03.19.06.28-.05-.12-.08-.25-.12-.37.02.03.04.06.07.09Zm17.02-16.86s0,.03,0,.04c-.03,0-.06,0-.1,0,.03-.02.07-.03.1-.05Zm-3.48.47c.08.02.18.02.27,0,0,0,0,0,0,0-.12.02-.24.05-.36.08.03-.03.07-.05.1-.08Zm-1.85.52s0,0,0,0c-.01,0-.03,0-.04.01.01,0,.02-.01.03-.02Zm17.49,20.64c.17-.06.34-.13.5-.2.18-.07.36-.14.54-.21.11-.05.21-.09.32-.14.08-.03.16-.07.24-.11.02,0,.04-.01.06-.02-.53.29-1.08.53-1.66.68Zm3.7-1.49s-.05-.02-.07-.03c0,0,0,0,0,0,.03-.01.1-.05.15-.09.09.03.17.08.26.12-.11,0-.22,0-.34,0Zm.35-2.06c-.03.07-.08.12-.12.17-.03.11-.06.23-.09.34-.17.08-.34.19-.51.28.03.03.07.06.1.09,0,0,0,0,.01.02-.35.23-.7.44-1.05.65-.06.02-.12.05-.19.07,0,.01,0,.03,0,.04-3.53,2.03-7.31,3.1-11.21,3.51.03-.02.07-.03.09-.06,1.56-1.5,2.82-3.3,3.66-5.28.53-1.12.95-2.3,1.19-3.53.67-3.48-.21-7.3-2.75-9.75-.32-.45-.65-.89-1.01-1.31.9.29,1.79.63,2.65,1.03,0,.03,0,.05.05.07,4.47,1.93,7.86,5.82,9.27,10.42.18,1.04.13,2.1-.13,3.12.03.04.05.08.03.12Zm.12,1.34s.1-.06.15-.09c.11.03.22.05.33.1-.16-.02-.32-.02-.47-.02Zm2.36-.77s-.15.02-.28.06c-.03,0-.05-.01-.08-.02.18-.04.36-.09.54-.13.03.02.06.04.1.06.04.01.08.02.12.03h-.4Z"/>
  <path class="cls-1" d="m209.18,373.23c.12-.29-.48-.26-.61-.24-.28.04-.71.16-.83.45-1.19,2.83.15,6.3,2.86,7.7.29.15.76,0,1.02-.15.2-.11.44-.34.15-.49-2.54-1.31-3.68-4.66-2.58-7.26Z"/>
  <path class="cls-1" d="m269.3,385.36s0-.02-.01-.02c-.07-.08-.15-.16-.22-.23,0-.02-.01-.05-.04-.07-.03-.03-.06-.05-.1-.08-2.32-2.56-4.85-4.93-7.58-7.04-.03-.02-.08-.03-.13-.04-1.11-1.51-2.22-3.01-3.36-4.5-1.06-1.38-2.18-2.74-3.42-3.96,3.71,2,7.12,4.57,10.04,7.66.58.62,3.31-.42,2.71-1.05-7.95-8.42-19.45-13.04-30.98-12.75-.65-.1-1.31-.2-1.97-.28-1.53-.18-3.08-.3-4.62-.34-1.71-.05-3.39-.02-5.06.18-1.15.14-2.3.36-3.45.69-.09.02-.17.06-.25.09,0,0,0,0,0,0,.02.03.03.05.03.08,0,.03-.01.04-.04.04h-.27s-.03-.01-.05-.01c-.01,0-.03,0-.04.01,0,.02,0,.04-.03.04-.02,0-.03,0-.05-.01-.07.02-.13.04-.2.07.03.05.04.1-.02.1-.05,0-.1-.01-.16-.04-.02,0-.04.01-.06.02,0,.02.01.03,0,.05,0,.02,0,.05,0,.07,0,.01,0,.02-.01.03-.03.02-.06.02-.09,0,.02.05.03.09-.02.09-.09,0-.19-.04-.29-.1,0,0,0,0,0,0,.01.03.02.05.03.08,0,.02-.02.02-.02.03.01.02.03.04.02.07,0,.02-.01.03-.04.03,0,0,0,0,0,0h0s0,0,0,0c0,0,0,0,0,0,0,.02,0,.03-.03.04,0,.02,0,.04-.04.04-.11,0-.23-.06-.34-.13-.03.01-.07.02-.1.04.09.1.15.21.06.21-.07,0-.14-.03-.21-.06,0,0,0,.02-.02.02,0,0-.01,0-.02,0,0,.02.02.04.03.06,0,.01-.01.01-.02.02.02.04.02.07-.03.07-.1,0-.21-.05-.32-.12-.02,0-.04.02-.06.02,0,0-.01.01-.02.02-.02,0-.04.02-.06.02,0,0-.02,0-.02,0,0,0-.02,0-.03,0,0,0,0,0,0,0,.06.08.1.16.02.16-.04,0-.08-.01-.12-.03,0,.02.01.03,0,.05-.02.02-.05.02-.07.01-.04,0-.08-.02-.12-.04,0,0,0,0,0,0-.02,0-.05-.01-.07-.02-.02,0-.04.02-.07.03.1.11.31.33.17.33-.07,0-.14-.03-.21-.06,0,0,0,.02-.02.02-.02,0-.05,0-.07-.01-.02,0-.04-.02-.06-.03,0,.02,0,.04-.03.04-.09,0-.18-.04-.28-.09,0,.01.01.03,0,.04l-.04.02s-.04-.01-.07-.02c-.04.02-.08.03-.12.05.03.04.06.08.09.12.03.03.03.07.02.11-.01,0-.03.01-.04.02-.01,0-.02,0-.03,0,0,0,0,0,0,0-.06,0-.12-.01-.17-.04.01.02.02.04.03.06.01.02.03.03.04.05,0,.02.02.04.03.06,0,.04,0,.06-.04.06,0,0,0,0-.01,0,.02.04.02.08-.03.08-.08,0-.16-.03-.24-.07,0,0,0,.01,0,.02,0,.01,0,.02,0,.04,0,.04,0,.06-.04.06-.01,0-.02,0-.03,0,0,0,0,0,0,0-.13,0-.26-.08-.39-.17-.01,0-.02,0-.03,0-.05.03-.11.06-.16.09.11.12.24.28.12.28-.03,0-.06-.02-.09-.02,0,.01.02.03.02.04,0,.03,0,.05-.03.05-.03.02-.06.01-.09,0-.01,0-.02-.01-.03-.02.03.06.05.1-.01.1-.09,0-.18-.04-.28-.1.05.07.08.14,0,.14-.1,0-.21-.05-.31-.11-.05.03-.11.05-.16.09.05.08.09.14.01.14-.06,0-.12-.02-.19-.05-.04.02-.08.04-.12.07.02.03.03.07.04.11,0,.03,0,.05,0,.08,0,.04,0,.06-.04.06,0,0-.01,0-.02,0,0,.02,0,.04-.02.04-.04,0-.08-.01-.13-.03.05.07.08.14.01.14,0,.02,0,.04-.04.04-.1,0-.2-.05-.3-.11.02.02.04.05.06.08.01.02.02.04.03.05,0,.02.02.03.02.05,0,0,0,.02,0,.02,0,.02,0,.04,0,.06,0,.02-.01.04-.02.05-.03.02-.07.02-.11,0,0,0,0,0-.01,0,0,.03,0,.05-.04.05-.06,0-.13-.02-.19-.05,0,0,0,0,0,.01.08.1.14.19.05.19-.07,0-.15-.03-.23-.07.03.05.06.11.08.16,0,.04,0,.06-.04.06h0s0,.04-.04.04c-.06,0-.13-.02-.2-.05.05.07.07.13,0,.13-.09,0-.18-.04-.28-.1,0,.01.01.02.02.04,0,.02-.02.02-.02.03,0,.01.02.02.03.04.1.11.21.26.1.26s-.23-.06-.34-.14c-.04-.01-.08-.03-.12-.05,0,0,.02.02.02.03l.03.06s-.02.02-.03.03c.03.06.04.1-.02.1-.1,0-.2-.05-.3-.11,0,0-.01.01-.02.02,0,0,.01.02.02.03.02.03.03.07.05.1,0,.01.01.03.02.04,0,.03.01.06.01.09,0,.02-.02.03-.03.03.03.06.04.1-.02.1-.11,0-.24-.06-.35-.14,0,0,0,0,0,0,.03.03.07.06.1.08.02.02.4.39.23.39-.06,0-.13-.03-.19-.06,0,.03,0,.05,0,.08,0,.04,0,.06-.04.06-.02,0-.05,0-.07-.01,0,0,0,0-.01,0,.05.07.07.13,0,.13-.15,0-.32-.11-.46-.22-.03.04-.06.07-.09.11,0,0,0,0,0,0,.03.03.05.06.08.09.03.02.05.04.08.07l.08.09s.06.07.07.11c.01.02.02.04,0,.07,0,0,0,0,0,0,0,0,0,0,0,0,0,0,0,0,0,0,0,.03,0,.05-.04.05-.01,0-.03-.01-.04-.01,0,.03,0,.05-.04.05-.15,0-.32-.11-.46-.22-.03.03-.05.07-.07.1.04.04.39.38.22.38-.02,0-.05-.01-.08-.02,0,0,0,0,0,0-.01,0-.03.01-.04.02-.05,0-.09-.02-.13-.04,0,.02.01.04.02.06,0,0,0,0,0,0,0,0,.01.02.02.02.02.02.04.03.05.05.02.02.04.05.06.07.09.1.16.21.06.21-.08,0-.16-.04-.24-.08,0,0,0,0,0,0,.06.08.09.15.02.15-.01,0-.02,0-.03,0,.01.02.03.04.04.06v.02c.04.06.06.12,0,.12-.02,0-.05-.02-.07-.02,0,0,0,0,0,0-.03.02-.05.01-.08,0,0,.03,0,.05-.03.05-.02,0-.04-.01-.06-.01-.02,0-.04,0-.06,0,.03.04.03.07.03.09.02.04.02.08-.03.08-.11,0-.23-.06-.34-.13-.02.04-.04.07-.06.11.11.11.3.33.16.33-.08,0-.16-.03-.24-.08,0,0,0,0,0,.01.06.06.37.37.21.37-.03,0-.07-.01-.11-.02.02.05.04.1.04.16,0,.04,0,.06-.04.06-.02,0-.04,0-.06,0,.06.09.1.16.02.16-.04,0-.09-.01-.13-.03.01.02.02.04.03.06.03.03.03.07.02.11,0,0,0,0-.01,0,.1.11.19.24.09.24-.04,0-.07-.01-.11-.02.06.08.11.17.17.25.02.02.01.04.01.06.05.07.08.13,0,.13-.05,0-.11-.01-.16-.04,0,.01.02.02.02.03.02.03.04.06.05.1.02.05.05.1.05.16,0,.04,0,.05-.04.06.1.11.23.27.11.27,0,0-.02,0-.03,0,.03.04.06.07.08.11.03.03.03.07.02.11-.01,0-.03.01-.04.02-.06,0-.11-.02-.16-.05-.03-.02-.06-.03-.09-.05.03.04.05.08.07.12.03.03.03.07.02.11-.01,0-.02,0-.04.01.04.06.06.12,0,.12-.09,0-.19-.04-.28-.1,0,0,0,0,0,.01.03.03.06.05.09.08.02.02.4.39.23.39-.03,0-.06-.01-.09-.02.05.08.1.16.15.24.03.03.03.07.02.1l-.04.02s-.03,0-.04-.01c0,.03,0,.05-.03.05-.02,0-.05-.01-.07-.02.05.06.09.13.13.19.1.11.2.25.09.25-.04,0-.08-.01-.12-.03.01.03.02.06.03.09.02.04.04.08.07.12.03.03.03.07.02.11-.01,0-.03.01-.04.02,0,0,0,0,0,0,.07.09.14.18.1.21.09.1.16.21.06.21-.05,0-.1-.02-.15-.03.05.06.1.13.11.18.11.11.29.32.16.32,0,0-.01,0-.02,0,0,0,0,0,.01.01.01.01.02.03.04.04.07.09.13.18.18.29.01.02.03.05.04.07.02.03.04.05.06.08.02.02.03.05.05.08.02.02.02.05.02.07.11.12.24.28.12.28-.05,0-.1-.02-.14-.03.03.03.06.07.08.1,0,.01.01.03.02.04.08.09.18.22.13.25.02.02.05.04.06.05.02.02.4.39.23.39-.01,0-.03,0-.04,0,.08.1.16.21.25.3.98,1.07,2.25,1.78,3.51,2.45.69.37,1.44.63,2.17.9.38.14.76.27,1.15.41.14.05.95.44,1.04.37,0,0,0,0,.01-.01,5.19,4.36,12.8,2.87,19.02,2.48,7.38-.47,14.77-.59,22.17-.43-.03.08,0,.16.12.18,2.5.36,4.91,1.15,7.14,2.34.21.11.87-.19.58-.35-.03-.02-.06-.03-.09-.05Zm-22.83-7.14s-.02.03-.03.03c-.06.02-.16,0-.26-.02.1,0,.19,0,.29,0Zm6.01-3.24c0-.11,0-.22,0-.34.01-.03.02-.05.03-.08,0,.14-.02.28-.03.42Zm-22,8.73c-3.39,0-6.85-.68-9.49-2.88,0,0,.01-.01.02-.02.11-.24-.04-.28-.21-.46-.33-.36-.64-.72-.91-1.13-.52-.82-.88-1.74-1.03-2.7-.7-4.54,3.26-8.41,7.04-10.16,1.52-.7,3.14-1.26,4.8-1.69-1.92,1.23-3.37,3.33-4.03,5.55-1.02,3.41-.3,6.97,1.35,10.04.2.51.46.98.78,1.42-.04.14,0,.28.15.41.06.05.13.09.2.14,0,0,0,0,0,0,.02.01.04.02.05.03.11.08.23.17.34.24.38.36.8.68,1.28.94.25.13.54.17.84.16.05.03.1.06.16.09-.45.01-.89.04-1.34.04Zm17.57-.94c1.01-.28,1.94-.8,2.56-1.57.02-.01.04-.02.05-.04.11-.09.14-.18.13-.25.01-.02.02-.04.03-.05,3.07-3.77,3.19-9.11.44-13,.34.15.69.29,1.02.45,2.02,1.66,3.71,3.72,5.28,5.8,2.16,2.86,4.26,5.77,6.39,8.66-5.3-.16-10.6-.16-15.9,0Zm15.42.5c.22,0,.44,0,.66.01.05,0,.09-.02.14-.04.25.14.49.27.74.41-.51-.14-1.02-.27-1.54-.38Z"/>
  <path class="cls-1" d="m346.24,377.31c5.31-5.18,11.94-8.87,19.13-10.69.45-.11.31-.63-.14-.52-7.38,1.87-14.15,5.67-19.6,10.98-.33.32.37.47.61.23Z"/>
  <path class="cls-1" d="m256.43,503.61c6.1.82,12.24,1.34,18.39,1.52,1.86.42,3.77.51,5.65.26.03.1.16.17.38.12.44-.1.87-.2,1.31-.3.15-.04.22-.11.25-.18.04-.01.07-.02.11-.03.13-.04.2-.11.24-.18.05,0,.1-.01.16-.02.37-.06.58-.53.08-.46-2.55.39-5.17.45-7.83.34-.05-.01-.11-.02-.16-.03-.09-.02-.2-.01-.3.02-5.98-.28-12.16-1.36-18.13-1.49-.17-.02-.34-.04-.51-.07,8.38-2.08,16.79-3.97,25.17-6.06,4.8-1.2,9.83-2.71,14.76-1.26,3.71,1.1,7.27,3.22,11.24,2.01.42-.13.35-.43-.08-.3-4.64,1.41-9-2.19-13.54-2.61-4.23-.39-8.4.85-12.45,1.86-8.86,2.21-17.77,4.19-26.63,6.41-5.52.11-10.82,1.23-15.59,4.8-.39.29.21.46.46.27.01,0,.03-.02.04-.03.11.03.24.03.33,0,2.07-.9,4.15-1.8,6.22-2.7,3.39-.83,6.82-1.45,10.28-1.83.05,0,.11-.03.16-.06Z"/>
  <path class="cls-1" d="m235.69,509.74c-1.34,1.02-2.48,2.3-3.34,3.75-.06.11.26.06.29.06.12-.02.35-.07.43-.19.84-1.43,1.96-2.68,3.28-3.68.13-.1-.12-.11-.17-.11-.17.02-.35.07-.49.17Z"/>
  <path class="cls-1" d="m359.81,507.37c.98-.17,1.96-.33,2.94-.5.13-.02.39-.08.41-.24.03-.15-.22-.16-.31-.14-.98.17-1.96.33-2.94.5-.13.02-.39.08-.41.24-.03.15.22.16.31.14Z"/>
  <path class="cls-1" d="m373.87,497.11c.05-.06.06-.13,0-.2-1.59-2.26-3.57-4.2-5.85-5.76-.22-.15-.88.15-.57.38,2.55,1.9,4.66,4.36,6.15,7.17.13.25.8.11.72-.19-.11-.42-.22-.85-.33-1.27-.02-.07-.07-.1-.14-.13Z"/>
  <path class="cls-1" d="m292.34,454.81c-2.01-3.75-6.16-6.13-10.38-6.15-4.81-.03-6.56,5.74-5.27,9.62-.47-5.96,2.76-10.27,8.93-7.62,3.34,1.34,6.98,4.27,6.67,8.2-.25,1.55,1.46,2.35,2.45,3.18-.58-.76-1.47-1.37-1.83-2.25-.09-.26-.05-.53.02-.84.34-1.39.03-2.86-.59-4.13Z"/>
  <path class="cls-1" d="m311.51,461.88c1.27-2.83,2.91-5.65,5.57-7.02,3.66-1.87,9.51-1.77,11.68,2.19,2.46,4.91-3.35,7.85-7.62,7.35,5.01,1.4,11.34-2.1,8.73-7.89-2.37-4.73-9.21-5.02-13.28-2.53-2.85,1.7-4.26,4.85-5.07,7.9Z"/>
  <path class="cls-1" d="m201.44,486.5c-.77-1.01-1.5-2.06-1.84-3.29.38,2.59,2.33,4.6,3.97,6.51,1.78,1.85,3.66,3.6,5.74,5.1-2.7-2.71-5.49-5.32-7.86-8.32Z"/>
  <path class="cls-1" d="m155,403.69c-3.17,21.53-5.37,43.2-6.59,64.93-1.2,21.42-1.44,42.88-.73,64.32.41,12.27,1.13,24.52,2.16,36.75.02.19.74.04.72-.19-1.81-21.52-2.67-43.12-2.55-64.72.12-21.75,1.22-43.49,3.31-65.14,1.16-12.05,2.63-24.07,4.39-36.05.03-.23-.69-.1-.72.11Z"/>
  <path class="cls-1" d="m142.4,395.91c.03-.17-.69-.05-.71.13-3.55,22.78-5.84,45.75-6.84,68.78-1,23.18-.7,46.42.9,69.57.9,13,2.21,25.96,3.93,38.88.02.14.75,0,.72-.19-3.05-22.92-4.81-46.01-5.28-69.13-.46-22.96.35-45.94,2.43-68.8,1.2-13.12,2.82-26.21,4.85-39.23Z"/>
  <path class="cls-1" d="m182.19,308.38c-.21.27.52.25.68.04,11.23-14.12,23.61-27.3,37-39.39,13.38-12.09,27.75-23.08,42.92-32.83,8.61-5.53,17.47-10.65,26.55-15.36.44-.23.04-.52-.3-.35-16.13,8.35-31.56,18.02-46.11,28.91-14.54,10.88-28.18,22.95-40.74,36.06-7.02,7.32-13.69,14.98-20,22.92Z"/>
  <path class="cls-1" d="m203.14,266.94c19.83-17.9,41.66-33.55,64.99-46.56,4.53-2.52,9.12-4.94,13.75-7.26,0,0,0,0,0,0,2.11-1.03,4.22-2.07,6.33-3.1.45-.22.05-.59-.32-.42-2.08.99-4.16,2.02-6.22,3.05-.03.02-.07.03-.1.05,0,0,0,0,0,0-21.83,10.95-42.53,24.12-61.66,39.31-5.9,4.68-11.65,9.56-17.24,14.61-.36.33.21.56.48.32Z"/>
  <path class="cls-1" d="m265.54,218.96c6.04-2.83,12.2-5.42,18.45-7.76.48-.18.02-.23-.24-.13-22.04,8.28-42.92,19.59-61.87,33.56-5.4,3.98-10.63,8.17-15.69,12.56-.13.11.52.04.65-.07,17.7-15.34,37.5-28.22,58.71-38.16Z"/>
  <path class="cls-1" d="m135.55,335.01c8.09-27.41,20.1-53.64,35.58-77.66,4.37-6.78,9.02-13.38,13.92-19.78.28-.37-.4-.5-.61-.23-17.4,22.74-31.53,47.95-41.82,74.67-2.9,7.53-5.49,15.17-7.77,22.91-.12.41.6.41.7.09Z"/>
  <path class="cls-1" d="m371.96,246.83c-.21-.17-.87.14-.57.38,6.59,5.3,11.81,12.16,15.18,19.91.12.28.84.07.72-.19-3.4-7.84-8.67-14.74-15.33-20.1Z"/>
  <path class="cls-1" d="m391.37,267.45c-2.25-6.72-5.73-12.97-10.24-18.43-.17-.21-.87.05-.67.29,4.49,5.43,7.94,11.65,10.19,18.33.09.28.81.07.72-.19Z"/>
  <path class="cls-1" d="m394.57,264.82c-2-3.6-4-7.19-6.01-10.79-.14-.25-.84-.02-.72.19l6.01,10.79c.14.25.84.02.72-.19Z"/>
  <path class="cls-1" d="m427.74,558.06c5.4-29.09,19.29-55.65,26.02-84.38,3.85-16.45,5.68-33.35,5.49-50.24,0-.16-.73-.04-.72.19.17,15.42-1.34,30.84-4.54,45.93-3.09,14.55-8.01,28.56-13.07,42.52-5.01,13.8-10.05,27.64-13.08,42.04-2.95,13.96-4.14,28.29-3.6,42.54.61,16.24,3.49,32.38,8.55,47.82.06.2.78,0,.72-.19-9.07-27.68-11.08-57.58-5.76-86.23Z"/>
  <path class="cls-1" d="m457.55,516.06c4.37-14.89,9.77-29.42,14.53-44.18,5.12-15.89,9.06-32.98,4.68-49.52-.08-.31-.81-.12-.72.19,3.95,14.93,1.08,30.39-3.28,44.89-2.26,7.5-4.93,14.86-7.47,22.26-2.48,7.24-4.87,14.52-7.1,21.85-8.91,29.3-15.27,59.72-14.53,90.49.41,16.85,2.95,33.65,8.24,49.68.1.31.82.11.72-.19-9.59-29.09-10.06-60.39-5.4-90.45,2.36-15.23,5.99-30.24,10.33-45.02Z"/>
</svg>