<?xml version="1.0" encoding="UTF-8" standalone="no"?>
<!DOCTYPE svg PUBLIC "-//W3C//DTD SVG 1.1//EN" "http://www.w3.org/Graphics/SVG/1.1/DTD/svg11.dtd">
<!-- Created with Vectornator (http://vectornator.io/) -->
<svg height="100%" stroke-miterlimit="10" style="fill-rule:nonzero;clip-rule:evenodd;stroke-linecap:round;stroke-linejoin:round;" version="1.1" viewBox="0 0 400 400" width="100%" xml:space="preserve" xmlns="http://www.w3.org/2000/svg" xmlns:vectornator="http://vectornator.io" xmlns:xlink="http://www.w3.org/1999/xlink">
<defs/>
<clipPath id="ArtboardFrame">
<rect height="400" width="400" x="0" y="0"/>
</clipPath>
<g clip-path="url(#ArtboardFrame)" id="Untitled" vectornator:layerName="Untitled">
<path d="M224.083 260.799L224.083 260.799C223.814 260.82 223.576 260.975 223.463 261.202C223.359 261.409 223.37 261.637 223.494 261.833C223.545 261.916 223.711 262.102 224.042 262.102L224.093 262.102C229.851 261.74 234.812 257.636 236.135 252.127C237.707 245.625 233.655 240.002 229.944 235.826C229.654 235.505 229.127 235.568 228.838 235.826C228.714 235.94 228.631 236.084 228.621 236.239C228.621 236.394 228.662 236.539 228.776 236.663C232.238 240.56 235.681 245.274 234.947 250.721C234.213 256.21 229.644 260.458 224.073 260.799L224.083 260.799Z" fill="#232a56" fill-rule="nonzero" opacity="1" stroke="none" vectornator:layerName="path"/>
<path d="M173.599 239.63C173.423 239.413 173.123 239.382 172.916 239.413C172.637 239.464 172.431 239.63 172.348 239.847C170.911 243.775 171.232 248.054 173.227 251.6C175.066 254.866 178.26 257.295 181.971 258.256C182.023 258.267 182.085 258.277 182.137 258.277C182.364 258.277 182.612 258.174 182.778 257.998C182.943 257.833 182.995 257.626 182.943 257.43C182.912 257.316 182.809 257.119 182.519 257.047C179.211 256.189 176.338 254.039 174.622 251.155C172.71 247.93 172.358 243.837 173.692 240.209C173.805 239.909 173.661 239.702 173.599 239.63Z" fill="#232a56" fill-rule="nonzero" opacity="1" stroke="none" vectornator:layerName="path"/>
<path d="M225.478 221.944C225.654 221.944 225.84 221.882 225.985 221.778C226.13 221.675 226.233 221.53 226.254 221.355C226.274 221.2 226.243 221.045 226.14 220.92C221.168 214.016 218.284 205.881 217.788 197.415C217.777 197.188 217.643 196.991 217.447 196.888C217.199 196.764 216.878 196.784 216.651 196.95C216.454 197.074 216.351 197.281 216.361 197.508C216.868 206.242 219.834 214.605 224.93 221.685C225.054 221.851 225.251 221.954 225.478 221.954L225.478 221.944Z" fill="#232a56" fill-rule="nonzero" opacity="1" stroke="none" vectornator:layerName="path"/>
<path d="M170.529 202.79C161.794 206.563 152.181 208 142.733 206.935L142.692 206.935C142.444 206.935 142.227 207.121 142.196 207.359C142.186 207.472 142.217 207.597 142.289 207.69C142.372 207.783 142.475 207.845 142.599 207.855C144.646 208.082 146.734 208.206 148.811 208.206C156.471 208.206 163.903 206.666 170.911 203.638C171.066 203.565 171.17 203.431 171.19 203.265C171.211 203.1 171.139 202.945 171.015 202.852C170.87 202.749 170.684 202.728 170.518 202.8L170.529 202.79Z" fill="#232a56" fill-rule="nonzero" opacity="1" stroke="none" vectornator:layerName="path"/>
<path d="M208.371 293.37C206.986 293.556 205.539 293.752 204.154 293.784C204.092 293.773 204.03 293.773 203.947 293.773L203.699 293.794C202.686 293.794 201.776 293.701 200.929 293.504C199.885 293.267 198.851 292.884 197.859 292.502C195.905 291.768 193.9 291.013 191.729 291.313L191.657 291.313C191.512 291.334 191.367 291.344 191.223 291.365C191.119 291.375 191.026 291.416 190.933 291.468L190.892 291.468C190.789 291.509 190.685 291.53 190.582 291.561C190.148 291.706 190.003 292.057 190.086 292.326C190.168 292.584 190.468 292.802 190.923 292.657C190.954 292.646 190.985 292.636 191.026 292.626L191.026 292.626C191.119 292.626 191.212 292.636 191.305 292.626C193.238 292.316 195.109 293.039 196.908 293.742L196.98 293.773C198.644 294.424 200.371 295.107 202.262 295.003C202.376 295.003 202.49 294.972 202.583 294.921C204.288 295.014 205.963 294.838 207.389 294.652C207.482 294.693 207.596 294.714 207.73 294.714L207.73 294.714L210.149 294.631C210.252 294.631 210.356 294.6 210.428 294.559C210.449 294.559 210.469 294.559 210.49 294.559L211.389 294.404C211.451 294.404 211.513 294.373 211.576 294.352L211.617 294.352C211.71 294.383 211.813 294.393 211.917 294.383L213.157 294.29C213.157 294.29 213.178 294.29 213.198 294.29C213.591 294.311 213.943 294.342 214.263 294.393C214.335 294.393 214.397 294.393 214.47 294.393C216.382 294.765 218.315 294.983 220.207 295.034C220.227 295.034 220.248 295.034 220.258 295.034C221.509 295.158 222.553 295.251 223.556 295.324C223.68 295.324 223.793 295.293 223.897 295.251C226.708 295.499 229.737 295.572 232.879 295.468C233.055 295.468 233.241 295.448 233.417 295.448L233.779 295.427C233.841 295.448 233.903 295.468 233.975 295.468L234.492 295.52C235.133 295.613 235.753 295.685 236.301 295.716C237.169 295.861 238.254 296.006 239.402 295.913C237.159 297.184 235.04 298.683 233.096 300.368C232.879 300.564 232.879 300.761 232.9 300.864C232.931 301.029 233.055 301.174 233.231 301.236C233.334 301.278 233.438 301.278 233.51 301.278C233.603 301.278 233.913 301.267 234.12 301.092C236.456 299.066 239.04 297.339 241.81 295.944L242.678 295.572C242.73 295.572 242.803 295.551 242.834 295.541L245.046 294.765C245.686 294.579 246.286 294.383 246.803 294.187L247.154 294.145L247.154 294.032L247.154 294.032L247.309 293.98C247.361 293.959 247.63 293.856 247.733 293.597C247.785 293.463 247.774 293.298 247.712 293.184C247.671 293.101 247.516 292.853 247.123 292.895C247.03 292.884 246.937 292.895 246.865 292.895C245.139 293.143 243.381 293.05 241.645 292.636C241.448 292.584 241.262 292.636 241.149 292.667C238.244 291.871 235.37 290.714 232.59 289.597C226.274 287.065 219.741 284.439 212.671 285.783C212.268 285.866 211.968 286.227 212.03 286.558C212.082 286.806 212.32 287.023 212.754 286.951C219.504 285.659 225.85 288.233 232.011 290.714C234.616 291.768 237.303 292.853 240.032 293.649C238.575 293.742 237.272 293.856 236.383 293.939C235.505 293.908 234.647 293.98 233.779 294.176C233.706 294.197 233.634 294.218 233.572 294.259C229.272 294.435 225.706 294.321 222.346 293.908C221.633 293.825 220.909 293.721 220.165 293.618C218.367 293.38 216.506 293.122 214.708 293.039C214.594 293.019 214.48 292.998 214.366 292.977C214.325 292.946 214.273 292.926 214.222 292.915C213.415 292.646 212.557 292.636 211.741 292.884C211.638 292.915 211.544 292.967 211.472 293.029C210.604 293.101 209.746 293.205 208.929 293.329L208.35 293.401L208.371 293.37ZM191.016 292.605L190.995 292.502L190.995 292.502L191.037 292.553L191.037 292.605L191.016 292.605Z" fill="#232a56" fill-rule="nonzero" opacity="1" stroke="none" vectornator:layerName="path"/>
<path d="M182.995 304.141C186.768 306.549 190.365 308.193 193.993 309.164C197.621 310.146 201.694 310.663 206.087 310.694L206.552 310.694C210.5 310.694 214.718 310.343 219.803 309.578C220.207 309.516 220.506 309.164 220.455 308.803C220.413 308.544 220.176 308.296 219.741 308.358C212.661 309.423 203.42 310.343 194.727 308.038C191.057 307.066 187.367 305.361 183.449 302.828C182.395 302.146 181.341 301.422 180.317 300.73L180.183 300.637C177.826 299.035 175.387 297.37 172.813 296.016C168.616 293.804 164.761 292.771 161.04 292.843C162.973 292.45 164.906 292.14 166.807 291.933C166.859 291.933 166.901 291.913 166.952 291.902C171.903 292.564 176.855 292.967 181.651 293.101C183.139 293.442 184.659 293.515 186.168 293.349C186.323 293.432 186.509 293.463 186.716 293.411L187.781 293.163C187.925 293.132 188.049 293.06 188.142 292.967C188.225 292.936 188.308 292.895 188.37 292.833C188.576 292.791 188.763 292.677 188.887 292.512C188.99 292.378 189.031 292.223 189 292.078C188.969 291.82 188.732 291.592 188.287 291.633C186.478 291.913 184.452 292.006 182.106 291.913L182.044 291.913C182.044 291.913 182.013 291.892 182.002 291.892C181.889 291.861 181.754 291.861 181.61 291.892C179.429 291.789 177.185 291.551 175.004 291.313L174.963 291.313C173.144 291.117 171.273 290.92 169.423 290.796C171.676 290.248 173.929 289.711 176.131 289.194L176.762 289.049C180.131 288.253 183.615 287.426 187.036 286.579L188.008 286.331C191.543 285.431 195.192 284.501 198.737 285.556C199.451 285.762 200.205 286.041 200.836 286.269C203.11 287.096 205.467 287.964 208.061 287.178C208.34 287.096 208.464 286.941 208.526 286.837C208.588 286.713 208.609 286.579 208.568 286.455C208.526 286.331 208.444 286.217 208.319 286.155C208.206 286.093 208.02 286.041 207.751 286.134C205.591 286.786 203.41 285.979 201.301 285.204C199.895 284.687 198.448 284.15 196.97 284.015C193.869 283.736 190.82 284.501 187.863 285.245L187.594 285.318C187.315 285.39 187.036 285.463 186.757 285.525C183.408 286.362 179.987 287.168 176.679 287.954L176.328 288.036C172.689 288.894 168.927 289.783 165.329 290.703C160.13 290.807 156.099 292.026 152.667 294.538L151.706 293.897L152.378 294.776C152.16 295.014 152.191 295.282 152.326 295.458C152.471 295.654 152.791 295.737 153.08 295.685L153.329 295.996L153.391 295.634C153.463 295.623 153.525 295.603 153.577 295.582L158.538 293.432C158.941 293.339 159.344 293.246 159.748 293.153C159.706 293.205 159.644 293.236 159.624 293.287C159.53 293.473 159.541 293.69 159.644 293.846C159.727 293.98 159.903 294.114 160.244 294.104C160.595 294.083 160.947 294.073 161.298 294.073C168.038 294.073 173.785 297.97 179.356 301.743C180.483 302.508 181.754 303.366 182.984 304.161L182.995 304.141Z" fill="#232a56" fill-rule="nonzero" opacity="1" stroke="none" vectornator:layerName="path"/>
<path d="M287.395 100.736L287.457 100.736C287.746 100.716 288.118 100.561 288.263 100.25C288.366 100.044 288.356 99.806 288.222 99.5992C284.625 94.1725 279.518 89.8311 273.037 86.6888C267.249 83.8772 260.53 82.1613 253.625 81.7272C238.926 80.8176 224.662 84.9832 210.852 89.0145L210.728 89.0559C208.34 89.7484 205.88 90.472 203.461 91.1542C194.985 93.5316 184.959 96.0124 174.798 96.3432C174.281 96.3639 173.95 96.7773 173.96 97.1495C173.96 97.4596 174.219 97.78 174.746 97.78C187.284 97.3665 199.44 93.8211 211.193 90.3996L211.255 90.379C215.348 89.1902 219.576 87.9498 223.783 86.8645C233.582 84.332 246.472 81.7272 259.341 83.9496C259.279 84.0529 259.258 84.1666 259.269 84.2803C259.289 84.4251 259.362 84.5594 259.486 84.6628C264.737 88.8905 268.934 94.3999 271.621 100.592C271.704 100.788 271.89 100.922 272.117 100.943C272.438 100.984 272.758 100.85 272.913 100.633C273.037 100.478 273.058 100.271 272.975 100.095C270.339 94.0278 266.277 88.5804 261.191 84.301C263.124 84.7041 264.913 85.19 266.649 85.7688C266.577 85.9445 266.608 86.1409 266.742 86.296C270.35 90.658 273.099 95.599 274.898 100.974C274.96 101.17 275.125 101.315 275.342 101.356C275.394 101.367 275.446 101.377 275.497 101.377C275.756 101.377 276.014 101.274 276.159 101.098C276.293 100.943 276.335 100.747 276.273 100.55C274.567 95.4646 272.024 90.7407 268.716 86.5131C268.996 86.6164 269.264 86.7301 269.512 86.8335C276.872 89.8415 282.826 94.5446 286.744 100.447L286.857 100.374L286.744 100.457C286.878 100.654 287.105 100.767 287.374 100.767L287.395 100.736Z" fill="#232a56" fill-rule="nonzero" opacity="1" stroke="none" vectornator:layerName="path"/>
<path d="M250.741 30.0336C232.859 28.4108 214.294 30.8089 195.574 37.1659C181.031 42.0965 166.911 49.2701 153.587 58.4801C141.245 67.0078 129.658 77.2618 119.156 88.9525C108.984 100.261 99.8674 112.861 92.0529 126.392C84.3314 139.767 77.9537 153.929 73.1058 168.472C72.5063 170.271 71.9274 172.1 71.3692 173.909C71.2969 174.126 71.4002 174.416 71.7103 174.519C71.7827 174.54 71.8654 174.55 71.9688 174.55C72.2892 174.55 72.8577 174.437 72.9817 174.023C77.3541 159.728 83.1943 145.773 90.3266 132.532C97.6553 118.929 106.307 106.184 116.024 94.6377C126.029 82.7609 137.1 72.2381 148.935 63.3693C161.381 54.0353 174.663 46.5206 188.411 41.0215C206.852 33.6514 225.292 30.2197 243.278 30.7882C245.5 30.8605 247.816 31.0053 250.193 31.2223C250.359 31.2223 251.206 31.0363 251.258 30.5401C251.279 30.3127 251.124 30.0646 250.751 30.0233L250.741 30.0336Z" fill="#232a56" fill-rule="nonzero" opacity="1" stroke="none" vectornator:layerName="path"/>
<path d="M251.361 344.588C251.093 344.536 250.72 344.64 250.586 344.733C240.921 351.4 229.51 356.051 217.602 358.17C205.818 360.269 193.507 359.928 181.982 357.199C175.48 355.659 169.206 353.343 163.314 350.315C162.973 350.149 162.342 350.408 162.187 350.707L162.032 351.08L162.383 351.266C173.061 356.754 185.279 359.959 197.704 360.517C199.027 360.579 200.371 360.61 201.704 360.61C212.506 360.61 223.473 358.636 233.407 354.894C239.846 352.465 245.945 349.291 251.516 345.446C251.795 345.25 251.795 344.971 251.671 344.795C251.599 344.691 251.496 344.629 251.361 344.609L251.361 344.588Z" fill="#232a56" fill-rule="nonzero" opacity="1" stroke="none" vectornator:layerName="path"/>
<path d="M257.243 303.81L257.212 303.81C257.067 303.81 256.881 303.872 256.778 304.048C253.201 310.26 248.705 315.852 243.402 320.679C243.309 320.762 243.257 320.876 243.257 320.99C243.257 321.103 243.288 321.217 243.371 321.3C243.454 321.393 243.578 321.444 243.722 321.444C243.847 321.444 243.981 321.403 244.074 321.32C249.449 316.431 254.007 310.746 257.636 304.441L257.729 304.224L257.615 304.037C257.543 303.913 257.398 303.831 257.243 303.82L257.243 303.81Z" fill="#232a56" fill-rule="nonzero" opacity="1" stroke="none" vectornator:layerName="path"/>
<path d="M150.868 281.514L150.765 281.038L150.538 280.956C150.383 280.904 150.145 280.956 150.021 281.059C148.398 282.475 146.599 283.685 144.666 284.667C144.511 284.749 144.429 284.884 144.429 285.049L144.429 285.287L144.615 285.411C144.687 285.463 144.78 285.483 144.873 285.483C144.976 285.483 145.08 285.452 145.132 285.421C147.127 284.408 148.997 283.147 150.682 281.679C150.682 281.679 150.868 281.514 150.868 281.514Z" fill="#232a56" fill-rule="nonzero" opacity="1" stroke="none" vectornator:layerName="path"/>
<path d="M311.645 269.069C313.629 259.352 315.097 249.109 315.996 238.627C316.854 228.621 317.185 218.595 316.989 208.827C316.865 202.821 316.534 197.001 316.017 191.533L316.41 190.097C316.575 189.528 316.741 188.939 317.04 188.463C317.919 187.109 320.327 186.045 322.116 185.538C322.446 185.455 322.85 185.342 324.462 174.416C324.493 174.23 324.441 174.044 324.328 173.899C324.214 173.765 324.059 173.672 323.883 173.661C322.725 173.558 317.588 172.597 313.784 171.873C312.575 166.725 310.342 161.733 308.337 157.453C307.314 155.262 306.218 153.05 305.164 150.91L305.101 150.797C303.406 147.355 301.649 143.788 300.088 140.16C297.638 134.465 296.088 128.48 295.364 121.854C294.92 117.73 294.723 113.523 294.537 109.44L294.537 109.305C294.413 106.69 294.289 103.992 294.093 101.336C293.628 94.9581 292.635 86.6784 289.049 79.1637C288.987 79.019 288.863 78.9156 288.708 78.8639C288.418 78.7606 288.067 78.8433 287.85 78.957C287.353 79.1947 287.374 79.5668 287.457 79.7529C291.943 89.1386 292.418 99.6509 292.884 109.833L292.884 109.905C293.028 113.089 293.183 116.386 293.452 119.59C294.093 127.084 295.426 133.142 297.628 138.661C299.334 142.93 301.401 147.117 303.417 151.189C304.13 152.626 304.936 154.259 305.68 155.82C308.316 161.299 310.611 166.281 311.944 171.542C310.745 171.315 309.557 171.088 308.43 170.87L307.996 170.788C304.399 170.095 301.566 169.547 300.936 169.465C295.633 168.7 290.227 168.162 284.862 167.883C280.655 165.351 275.683 164.069 270.102 164.069L269.76 164.069C269.461 164.069 269.161 164.069 268.861 164.069C257.904 164.069 247.134 165.836 236.818 169.33L236.528 169.423L236.745 170.199L237.045 170.137C248.198 167.676 259.207 166.498 269.709 166.632C272.624 166.643 275.384 166.994 277.916 167.666C273.595 167.625 269.388 167.738 265.398 168.018C259.155 168.452 252.705 169.485 245.686 171.16C244.126 171.532 242.534 171.852 240.973 172.173C237.996 172.783 234.905 173.413 231.959 174.364C229.272 175.232 227.174 176.183 225.354 177.341C224.207 178.085 223.277 178.819 222.522 179.595C222.253 179.874 221.985 180.194 221.778 180.453C221.271 181.073 220.744 181.714 220.041 181.993C218.863 182.468 217.002 182.323 215.359 182.189C214.832 182.148 214.294 182.106 213.819 182.096C211.131 182.034 208.257 181.848 204.784 181.517C204.309 181.476 203.771 181.465 203.244 181.455C201.26 181.424 199.006 181.383 198.489 179.729C196.939 174.767 192.05 172.38 187.46 170.705C181.796 168.627 177.072 167.036 172.617 165.712C166.828 160.885 159.737 157.598 152.109 156.213C144.294 154.787 136.49 155.469 129.534 158.187L129.254 158.291L129.482 159.056L129.771 158.994C142.144 156.223 155.23 158.001 165.846 163.862C160.895 162.622 156.223 161.733 151.623 161.144C140.139 159.676 128.004 159.417 115.548 160.358C121.74 143.644 128.521 131.157 136.883 121.079C145.276 110.959 154.848 103.693 165.36 99.4649C165.939 99.2271 165.877 98.8757 165.815 98.731C165.66 98.3485 165.102 98.3485 164.74 98.4829C155.344 102.266 146.672 108.354 138.981 116.603C131.766 124.335 125.647 133.638 120.272 145.06C118.101 149.67 116.013 154.714 113.884 160.492C112.674 160.627 109.863 160.989 107.134 161.33L106.927 161.361C100.539 162.177 91.7944 163.294 90.1923 163.335C90.0062 163.345 89.8305 163.438 89.7064 163.583C89.5927 163.728 89.5411 163.904 89.5617 164.069L89.5617 164.193C90.6161 175.264 90.9365 175.377 91.3086 175.501C92.7868 175.997 95.5363 177.248 96.4459 178.788C96.756 179.315 96.8904 179.946 97.0351 180.608C97.2832 181.734 97.5209 182.871 97.7587 184.008L97.8931 184.639C98.9371 189.631 100.022 194.789 101.418 199.792C99.5676 206.563 98.0998 212.682 96.9318 218.491C94.0892 232.715 93.0142 245.387 93.6757 257.243C93.7584 258.815 93.8824 260.437 94.0478 262.06C94.2959 269.482 95.2572 276.986 96.8904 284.377C96.8801 284.418 96.8697 284.46 96.8594 284.501C94.8748 304.885 94.8334 325.507 96.725 345.777C97.2522 351.452 97.9551 357.261 98.813 363.06C98.844 363.246 98.9681 363.39 99.1438 363.463C99.4022 363.566 99.7743 363.494 100.012 363.308C100.188 363.173 100.27 362.977 100.239 362.781C97.2625 342.603 96.1875 322.096 97.0661 301.825C97.2522 297.567 97.5416 293.122 97.9241 288.626C99.4125 294.404 101.325 300.13 103.609 305.64C103.547 305.733 103.516 305.836 103.516 305.95L102.906 384.084C102.906 384.239 102.958 384.384 103.072 384.498C103.196 384.622 103.371 384.684 103.568 384.694C103.95 384.694 104.343 384.446 104.343 384.043L104.932 308.741C106.193 311.563 107.547 314.343 108.964 317.01C111.496 321.754 114.39 326.458 117.564 330.985C117.636 331.088 117.791 331.254 118.143 331.223C118.401 331.202 118.969 331.016 119.114 330.696L119.197 330.468L119.073 330.282C107.971 314.457 100.467 296.378 97.3556 277.999C96.4563 272.697 95.9084 267.239 95.7224 261.771C94.0582 244.405 96.0945 226.161 102.296 202.697C103.247 205.798 104.26 208.568 105.387 211.152C107.341 215.68 109.367 219.081 111.765 221.851C117.491 228.497 126.939 230.978 136.304 232.673C143.013 233.893 153.163 234.896 163.427 232.746C171.552 231.05 178.229 227.701 183.356 222.781C183.139 223.029 182.912 223.267 182.695 223.515C182.602 223.618 182.561 223.742 182.561 223.866C182.561 223.98 182.623 224.083 182.705 224.166C182.809 224.27 182.984 224.321 183.17 224.301C183.398 224.29 183.698 224.208 183.842 224.052C191.223 216.031 196.267 206.139 198.438 195.441C200.918 192.102 205.508 190.314 210.108 190.862C213.436 191.265 216.103 193.001 218.501 196.319C218.584 197.053 218.677 197.766 218.77 198.459L218.842 198.996C219.886 206.821 223.142 214.687 228.786 223.029C233.541 230.048 240.694 234.927 250.028 237.521C259.693 240.209 269.45 239.806 275.931 238.999C284.945 237.883 294.103 236.002 299.975 229.8C302.424 227.215 304.554 224.001 306.683 219.67C310.518 211.907 312.968 202.955 314.766 196.216C315.686 208.31 315.645 221.355 314.642 235.009C313.05 256.758 309.257 276.563 303.355 293.877C299.726 304.523 295.561 313.464 290.62 321.186C290.527 321.331 290.506 321.496 290.568 321.661C290.568 321.682 290.589 321.703 290.599 321.723C288.459 337.218 287.498 353.002 287.736 368.641C287.736 368.879 287.932 369.127 288.325 369.127C288.49 369.127 288.677 369.076 288.821 368.993C289.038 368.869 289.162 368.673 289.162 368.455C288.925 352.878 289.886 337.146 292.026 321.682C292.046 321.661 292.067 321.63 292.088 321.61C296.532 314.664 300.326 306.818 303.696 297.639C306.921 288.853 309.526 279.498 311.665 269.027L311.645 269.069ZM295.892 182.447C294.734 178.706 292.956 175.439 290.61 172.721C291.343 172.752 292.088 172.772 292.811 172.793L292.884 172.793C296.625 172.896 300.491 173 303.541 174.881C306.859 176.928 307.438 181.042 307.934 184.67L308.089 185.745C308.75 190.272 308.854 195.017 308.378 199.462C307.324 209.188 302.486 220.083 296.346 226.575C291.25 231.96 283.188 233.624 275.239 234.606C266.349 235.712 244.487 236.56 233.686 220.6C231.432 217.282 226.005 208.568 224.248 199.482C223.225 194.211 223.607 189.683 225.375 186.034C227.432 181.807 231.184 180.142 234.947 178.974C249.811 174.354 263.796 172.111 277.678 172.111C280.914 172.111 284.201 172.235 287.426 172.483C290.506 175.046 293.09 178.499 295.116 182.747L295.24 183.016L295.985 182.727L295.892 182.437L295.892 182.447ZM122.67 164.327L122.742 164.327C124.179 164.379 125.378 164.41 126.588 164.379C143.23 163.893 159.706 166.426 176.989 172.132C177.992 173.103 178.943 174.075 179.811 175.026L180.007 175.243L180.638 174.757L180.473 174.509C180.131 173.982 179.78 173.475 179.398 172.948C180.638 173.372 181.723 173.754 182.798 174.147C186.654 175.574 190.478 177.496 192.37 181.91C193.993 185.735 194.117 190.365 192.732 195.658C190.334 204.785 184.132 213.313 181.579 216.558C169.309 232.125 146.527 229.934 137.307 228.27C129.048 226.781 120.727 224.6 115.744 218.812C110.194 212.372 106.09 202.47 105.046 192.96C105.697 190.737 106.4 188.391 107.206 185.766C109.491 178.323 111.579 171.604 113.956 164.834C116.685 164.131 119.724 164.224 122.691 164.317L122.67 164.327ZM112.116 165.454C110.214 170.912 108.519 176.235 107.248 180.287C106.359 183.109 105.542 185.755 104.757 188.36C104.726 184.473 105.139 180.432 105.956 176.597C106.028 176.276 106.09 175.946 106.162 175.615L106.183 175.501C106.927 171.842 107.785 167.687 111.393 165.805C111.63 165.681 111.868 165.568 112.127 165.454L112.116 165.454Z" fill="#232a56" fill-rule="nonzero" opacity="1" stroke="none" vectornator:layerName="path"/>
<path d="M351.999 191.533L351.854 191.13C350.872 188.422 349.983 185.983 349.115 183.533C344.474 170.519 340.546 157.288 336.587 143.747L336.535 143.561C329.196 118.453 321.599 92.4876 308.078 69.5816C301.969 59.2346 295.065 50.1074 287.55 42.4376C279.146 33.8582 269.936 27.0877 260.199 22.3225C257.863 21.1854 255.382 20.1104 252.85 19.1388C252.777 19.0871 252.684 19.0561 252.56 19.0354L252.436 19.0147C252.395 18.9321 252.323 18.8597 252.24 18.7977C240.911 10.549 227.659 5.19465 212.847 2.88958C199.006 0.739556 184.276 1.45278 170.27 4.94657C156.76 8.32666 143.674 14.4253 131.394 23.0667C119.993 31.088 109.553 41.0938 100.353 52.8156C89.4687 66.677 80.3208 83.071 73.1678 101.543C72.9714 101.615 72.8267 101.729 72.7647 101.873C65.8081 116.396 60.2056 132.408 55.6368 150.828C51.3471 168.162 48.2772 186.324 46.2615 206.346C44.3906 224.962 43.5533 244.447 43.8014 264.252C44.0391 283.55 45.2795 302.838 47.4916 321.61C49.7036 340.298 52.6806 357.313 56.6188 373.644C57.0633 375.505 57.5595 377.479 58.0763 379.485C58.1383 379.722 58.3657 379.877 58.6551 379.877C58.7378 379.877 58.8205 379.867 58.9136 379.846C59.3891 379.722 59.5441 379.381 59.4717 379.113C55.3474 363.142 52.1741 346.449 49.7553 328.08C47.3365 309.723 45.8584 290.745 45.3726 271.653C44.8557 251.703 45.4242 231.97 47.0678 212.982C48.7733 193.249 51.6262 174.509 55.5438 157.257C59.0376 141.897 63.1826 128.242 68.2062 115.642C65.7668 123.291 63.5961 131.353 61.7251 139.633C54.6549 171.005 50.9337 205.519 50.3548 245.15C49.8277 281.214 52.5565 317.496 58.4794 352.961C59.1823 357.178 59.9782 361.633 60.8362 366.192C60.8775 366.409 61.0326 366.585 61.2496 366.657C61.5494 366.76 61.9732 366.678 62.242 366.45C62.4384 366.274 62.5314 366.047 62.4797 365.809C55.8436 330.799 52.3188 295.034 51.9777 259.528C51.6366 222.957 54.3965 188.009 60.1746 155.624C66.7694 118.701 77.6126 89.1179 93.3243 65.1679C105.356 46.841 126.35 22.4258 158.063 10.2183C186.457-0.717911 217.964 0.801576 242.337 14.3012C244.105 15.2832 245.893 16.3686 247.671 17.5366C228.135 12.6784 208.071 12.0995 189.6 15.8827C170.808 19.728 152.863 28.9483 136.252 43.2749C128.055 50.3555 120.2 58.6661 112.892 67.9898C112.664 68.2792 112.726 68.5376 112.767 68.6307C112.85 68.8477 113.057 68.9821 113.326 69.0234C113.605 69.0751 114.008 68.9924 114.235 68.7133C127.508 51.7716 142.217 38.5613 157.939 29.4548C166.89 24.2761 176.276 20.4619 185.827 18.1258C195.626 15.7277 206.107 14.632 216.971 14.8491C225.664 15.0351 234.43 16.0791 243.061 17.9501C224.29 16.5236 205.063 18.9527 187.326 24.9893C181.517 26.9636 175.79 29.3514 170.301 32.0803C169.919 32.2663 169.846 32.5247 169.846 32.6591C169.836 32.8659 169.929 33.0519 170.115 33.176C170.363 33.331 170.715 33.3517 171.015 33.207C189.889 23.8213 211.048 18.87 232.207 18.87C232.642 18.87 233.086 18.87 233.52 18.87C239.65 18.9321 245.852 19.4075 251.93 20.3068C251.981 20.3068 252.033 20.3172 252.095 20.3068C271.518 27.8112 289.1 43.0578 302.962 64.4133C317.257 86.451 325.382 111.714 332.483 135.695C333.3 138.444 334.106 141.194 334.912 143.954L335.119 144.667C338.106 154.88 341.187 165.433 344.65 175.718C346.448 181.073 348.412 186.479 350.314 191.719L350.386 191.916C353.033 199.214 355.772 206.77 358.139 214.336C362.997 229.903 365.24 242.669 365.178 254.494C365.126 265.265 363.142 276.862 358.914 291.003C356.826 297.98 354.376 305.009 351.999 311.821C346.365 327.977 340.546 344.681 339.109 362.098C338.861 365.158 338.758 368.3 338.799 371.432C338.799 371.649 338.975 371.918 339.429 371.918C339.853 371.918 340.473 371.711 340.463 371.195C340.174 350.645 347.017 330.964 353.632 311.935C355.162 307.531 356.743 302.983 358.232 298.425C361.622 288.036 365.25 275.643 366.439 262.525C367.545 250.277 366.191 237.211 362.284 222.564C359.472 212 355.689 201.581 352.03 191.513L351.999 191.533Z" fill="#232a56" fill-rule="nonzero" opacity="1" stroke="none" vectornator:layerName="path"/>
<path d="M283.415 194.469L283.415 194.469C283.353 194.428 283.291 194.407 283.219 194.386C283.343 194.293 283.457 194.18 283.488 194.014C283.529 193.838 283.488 193.673 283.364 193.528C283.322 193.477 283.26 193.435 283.208 193.404C283.208 193.404 283.208 193.384 283.208 193.373C283.25 193.187 283.188 192.991 283.043 192.846C282.898 192.701 282.702 192.619 282.454 192.619C282.413 192.505 282.361 192.381 282.309 192.257C282.619 192.009 282.609 191.75 282.578 191.616C282.557 191.533 282.506 191.42 282.382 191.316C282.743 191.172 282.929 190.862 282.847 190.531C282.805 190.365 282.692 190.231 282.526 190.148C282.382 190.076 282.216 190.055 282.051 190.076L282.185 190.014C282.361 189.931 282.568 189.735 282.547 189.466C282.526 189.28 282.392 189.125 282.206 189.063C282.133 189.042 282.051 189.042 281.978 189.032C282.02 188.96 282.04 188.867 282.03 188.763C282.03 188.577 281.906 188.422 281.73 188.339C281.689 188.319 281.637 188.308 281.596 188.298C281.596 188.277 281.606 188.257 281.617 188.236C281.617 188.205 281.627 188.164 281.637 188.133C281.875 187.998 282.082 187.854 282.278 187.698C282.433 187.574 282.537 187.399 282.537 187.213C282.537 187.047 282.475 186.892 282.351 186.779C282.102 186.551 281.73 186.561 281.493 186.696L279.818 187.616L279.818 187.616C279.684 187.543 279.529 187.523 279.394 187.512C279.394 187.419 279.394 187.337 279.363 187.254C279.312 187.099 279.219 186.975 279.084 186.882L279.105 186.882C279.167 186.861 279.467 186.789 279.611 186.541C279.684 186.417 279.704 186.272 279.663 186.127C279.58 185.807 279.239 185.652 278.826 185.755L278.402 185.859C278.402 185.859 278.309 185.776 278.257 185.745C278.34 185.6 278.361 185.445 278.319 185.3C278.237 184.97 277.895 184.794 277.492 184.866L276.655 185.011C276.386 184.794 276.014 184.753 275.58 184.866C275.477 184.794 275.373 184.732 275.27 184.66C275.291 184.608 275.301 184.556 275.301 184.494C275.322 184.267 275.239 184.06 275.094 183.915C274.856 183.678 274.484 183.626 274.216 183.657L273.73 183.698L273.337 183.46C273.223 183.388 273.079 183.357 272.944 183.367L272.83 183.295C272.706 183.223 272.562 183.181 272.396 183.181C271.321 182.613 270.215 182.199 269.13 181.962C267.983 181.497 266.763 181.135 265.512 180.876C265.522 180.825 265.533 180.773 265.522 180.721C265.522 180.659 265.491 180.494 265.347 180.37C265.223 180.266 265.057 180.225 264.84 180.235L262.99 180.359C262.897 180.359 262.794 180.401 262.68 180.463L262.318 180.463C262.235 180.401 262.101 180.328 261.894 180.328L261.874 180.328C261.905 180.184 261.874 180.07 261.843 180.008C261.708 179.719 261.346 179.636 261.057 179.698C260.54 179.801 260.034 179.977 259.548 180.215L259.465 180.256C259.465 180.256 259.372 180.297 259.331 180.328C259.331 180.308 259.331 180.297 259.331 180.277C259.31 180.204 259.279 180.142 259.238 180.08C259.351 179.781 259.217 179.481 258.928 179.357C258.587 179.222 258.07 179.357 257.894 179.75C257.832 179.915 257.749 180.07 257.646 180.194C257.563 180.163 257.481 180.142 257.388 180.142C257.222 180.132 257.026 180.184 256.871 180.287C256.685 180.225 256.478 180.256 256.395 180.277C256.313 180.297 256.23 180.328 256.157 180.37C256.106 180.194 255.961 180.049 255.765 179.998C255.61 179.956 255.413 179.967 255.227 180.029C255.227 180.029 255.206 180.029 255.196 180.018C255.041 179.946 254.865 179.925 254.679 179.977C248.653 181.497 243.113 184.608 238.658 188.96C238.42 189.187 238.451 189.425 238.482 189.518C238.533 189.714 238.689 189.869 238.916 189.931C239.205 190.014 239.546 189.931 239.743 189.755C243.816 185.786 248.891 182.892 254.421 181.372L254.369 181.507C254.338 181.6 254.318 181.683 254.328 181.776C253.987 181.9 253.687 182.013 253.429 182.127C251.692 182.665 250.09 183.481 248.653 184.566C248.601 184.608 248.488 184.691 248.415 184.825C246.865 185.673 245.304 186.706 243.795 187.895C241.665 189.559 239.753 191.389 238.172 192.96C238.027 192.991 237.893 193.063 237.789 193.146C236.022 194.727 234.419 196.505 233.024 198.428C232.838 198.686 232.921 198.976 233.096 199.12C233.355 199.327 233.903 199.265 234.161 199.038L238.792 198.965C238.906 198.965 239.019 198.945 239.123 198.914L239.185 198.914C239.185 198.914 239.257 198.934 239.288 198.934C239.536 198.986 239.877 198.934 240.084 198.697C240.291 198.48 240.249 198.252 240.229 198.18C240.208 198.097 240.125 197.89 239.836 197.808L238.192 197.312C237.986 197.25 237.779 197.312 237.645 197.374C237.241 197.301 236.849 197.281 236.466 197.312C236.383 197.291 236.301 197.27 236.218 197.26L237.944 195.048C240.332 192.65 242.896 190.148 245.738 188.06C245.046 189.456 244.725 190.944 244.797 192.412C244.891 194.262 245.614 196.113 246.854 197.663C244.539 197.084 242.286 196.433 240.167 195.823C239.888 195.74 239.474 195.875 239.309 195.947C238.906 196.102 238.668 196.288 238.606 196.516C238.544 196.743 238.647 197.032 238.968 197.126C245.128 198.914 252.261 200.826 259.041 200.826C262.649 200.826 265.833 200.309 268.799 199.234C268.851 199.234 268.923 199.234 268.996 199.234C269.771 199.131 270.536 198.914 271.28 198.573L272.975 198.852C272.975 198.852 273.75 198.831 273.926 198.428C273.988 198.273 273.968 198.107 273.864 197.973C274.071 197.932 274.443 197.839 274.567 197.591C274.743 197.56 274.991 197.487 275.115 197.332C275.125 197.312 275.146 197.291 275.156 197.27L275.962 196.857L275.714 196.795C275.714 196.795 275.766 196.764 275.787 196.743L276.221 196.743L277.348 197.291C277.41 197.353 277.482 197.394 277.554 197.405L278.464 197.828C278.588 197.89 278.712 197.901 278.815 197.89C279.146 198.056 279.456 198.252 279.725 198.469C279.973 198.686 280.232 198.914 280.48 199.172C280.79 199.503 281.41 199.245 281.596 199.069C281.834 198.852 281.803 198.562 281.648 198.397C281.648 198.397 281.637 198.376 281.627 198.366C281.958 198.438 282.361 198.242 282.495 198.107C282.619 197.983 282.65 197.849 282.65 197.766C282.65 197.642 282.609 197.529 282.516 197.446C282.392 197.322 282.257 197.198 282.113 197.074C282.444 196.908 282.661 196.65 282.702 196.35C282.723 196.216 282.702 196.092 282.661 195.968C282.702 195.968 282.733 195.957 282.764 195.947C283.312 195.813 283.808 195.441 283.684 194.934C283.643 194.769 283.55 194.634 283.395 194.541L283.415 194.469ZM272.686 195.451L272.634 195.544C272.634 195.544 272.613 195.627 272.603 195.647C272.562 195.668 272.52 195.699 272.458 195.73C272.427 195.751 272.386 195.771 272.355 195.782L271.848 196.04L271.973 196.164C271.859 196.237 271.755 196.299 271.652 196.361L271.28 196.485L271.259 196.588C268.985 197.87 266.515 198.697 263.745 199.12C264.685 198.045 265.471 196.815 265.998 195.554C266.463 194.572 266.804 193.57 266.99 192.598C267.579 189.528 266.732 186.427 264.789 184.484C264.985 184.566 265.192 184.649 265.388 184.742C265.44 184.794 265.491 184.825 265.553 184.856C268.985 186.334 271.693 189.373 272.789 192.96C272.924 193.745 272.882 194.531 272.686 195.306L272.665 195.368L272.665 195.43L272.686 195.451Z" fill="#232a56" fill-rule="nonzero" opacity="1" stroke="none" vectornator:layerName="path"/>
<path d="M129.658 192.887C129.782 192.95 129.916 192.981 130.071 192.981C130.371 192.981 130.691 192.856 130.877 192.753C131.012 192.681 131.322 192.464 131.322 192.112C131.322 192.009 131.28 191.761 130.981 191.606C129.182 190.675 128.324 188.319 129.048 186.406L129.668 187.14L129.472 187.14L129.844 187.533L129.378 187.368L130.309 188.412L130.154 188.391L130.898 189.321C130.95 189.383 130.991 189.435 131.043 189.497C131.859 190.396 132.862 190.965 133.989 191.564C134.536 191.864 135.146 192.081 135.705 192.278L135.798 192.309C136.004 192.381 136.211 192.453 136.407 192.526L136.728 192.639C136.728 192.639 136.8 192.67 136.862 192.701C137.214 192.856 137.41 192.939 137.575 192.96C141.266 195.968 146.341 195.523 150.827 195.141L150.972 195.141C151.716 195.069 152.419 195.007 153.122 194.955C158.797 194.593 164.719 194.479 170.735 194.603C170.818 194.676 170.921 194.727 171.046 194.748C173.02 195.038 174.922 195.658 176.679 196.598C176.762 196.64 176.865 196.66 176.968 196.66C177.248 196.66 177.62 196.505 177.754 196.257C177.868 196.051 177.826 195.74 177.547 195.575L177.465 195.492L177.444 195.472C177.413 195.41 177.361 195.358 177.299 195.306L177.279 195.306C175.377 193.198 173.299 191.265 171.097 189.559C171.066 189.538 171.025 189.518 170.994 189.497C170.27 188.515 169.33 187.233 168.368 185.972C168.048 185.559 167.748 185.176 167.448 184.815C169.516 186.169 171.407 187.74 173.082 189.507C173.454 189.9 174.147 189.807 174.519 189.714C174.653 189.683 175.842 189.383 176.038 188.711C176.11 188.484 176.048 188.257 175.883 188.081C169.712 181.538 160.543 177.641 151.375 177.641C151.106 177.641 150.827 177.641 150.62 177.651C150.01 177.548 149.514 177.486 149.018 177.424C147.778 177.279 146.506 177.176 145.245 177.145C143.653 177.093 142.341 177.145 141.1 177.289C140.087 177.414 139.157 177.6 138.247 177.858C138.196 177.868 138.144 177.889 138.072 177.92L137.462 178.137L137.431 178.137L137.214 178.22L136.531 178.023L136.718 178.385L136.345 178.53L135.86 178.447L135.953 178.685L135.88 178.716L135.405 178.602L135.477 178.871L135.384 178.912L134.816 178.582L134.888 179.098L134.175 178.85L134.257 178.995L134.185 178.954L134.309 179.357L134.257 179.388C134.257 179.388 134.195 179.419 134.164 179.44L134.04 179.512L133.896 179.481L132.624 178.768L133.389 179.853L133.141 180.018L132.79 179.915L131.415 179.078L132.345 180.328L131.694 180.029L131.89 180.38L131.332 180.132L131.611 180.546L131.653 180.618L130.319 179.905L131.394 181.186L131.229 181.321L131.043 181.248L131.084 181.424L130.422 181.155L130.826 181.745C130.826 181.745 130.795 181.776 130.784 181.807L130.578 182.055C130.578 182.055 130.557 182.086 130.547 182.096L130.092 181.889L130.319 182.52L130.164 182.603L129.999 182.603L130.102 182.768L130.081 182.799L129.72 182.768L129.875 182.995L129.875 182.995L129.802 183.326L129.606 183.274L129.689 183.512L129.689 183.512L129.234 183.44L129.441 183.719L129.492 183.822L129.141 183.719L129.337 184.019L128.924 183.864L129.472 184.577L128.955 184.318L129.544 185.228L129.544 185.383L129.234 185.3L129.492 185.714L129.161 185.652L129.627 186.282L129.699 186.448L129.513 186.448L129.099 186.293C129.099 186.293 129.099 186.282 129.099 186.272C129.182 186.086 129.161 185.89 129.037 185.735C128.882 185.528 128.583 185.445 128.159 185.486C127.921 185.517 127.353 185.652 127.156 186.107C126.112 188.587 127.239 191.616 129.658 192.867L129.658 192.887ZM142.434 183.553C141.648 186.189 142.041 189.166 143.54 191.937C143.695 192.329 143.891 192.701 144.129 193.053C144.129 193.125 144.15 193.198 144.17 193.26L144.015 193.342L144.708 193.797C144.79 193.859 144.852 193.9 144.894 193.921C144.976 194.004 145.059 194.076 145.152 194.149C142.485 194.035 140.325 193.342 138.723 192.092C138.712 191.926 138.63 191.812 138.557 191.73L138.557 191.73L138.454 191.637C138.433 191.626 138.423 191.606 138.402 191.585L138.402 191.585C138.185 191.347 137.927 191.058 137.71 190.727C137.317 190.107 137.048 189.414 136.945 188.711C136.428 185.352 139.405 182.334 142.392 180.949C143.002 180.67 143.643 180.411 144.315 180.173C143.457 181.124 142.795 182.313 142.423 183.553L142.434 183.553ZM161.98 193.363C162.166 193.208 162.332 193.043 162.476 192.867L162.497 192.867C162.652 192.722 162.714 192.588 162.735 192.495C164.906 189.786 165.34 186.158 163.913 183.037C165.298 184.298 166.477 185.786 167.469 187.099C168.678 188.691 169.877 190.334 171.046 191.926L172.121 193.394C170.26 193.342 168.348 193.322 166.425 193.322C164.937 193.322 163.448 193.332 161.991 193.363L161.98 193.363Z" fill="#232a56" fill-rule="nonzero" opacity="1" stroke="none" vectornator:layerName="path"/>
<path d="M150.476 295.861C150.341 295.872 150.083 295.923 149.876 296.078C148.739 296.936 147.798 298.001 147.075 299.231C146.982 299.386 146.992 299.572 147.096 299.717C147.158 299.81 147.292 299.923 147.55 299.923C147.643 299.923 147.726 299.913 147.747 299.903C147.964 299.861 148.233 299.789 148.377 299.551C149.039 298.435 149.886 297.474 150.92 296.698C151.127 296.533 151.147 296.316 151.085 296.161C150.982 295.892 150.662 295.83 150.486 295.861L150.476 295.861Z" fill="#232a56" fill-rule="nonzero" opacity="1" stroke="none" vectornator:layerName="path"/>
<path d="M250.472 294.91L250.472 294.91C251.268 294.776 252.054 294.641 252.839 294.507C253.336 294.424 253.48 294.166 253.522 293.97C253.553 293.804 253.501 293.639 253.387 293.525C253.181 293.318 252.839 293.349 252.788 293.37L250.41 293.773C249.893 293.866 249.759 294.145 249.728 294.3C249.697 294.466 249.749 294.631 249.862 294.755C249.976 294.869 250.131 294.931 250.328 294.931C250.379 294.931 250.431 294.931 250.462 294.921L250.472 294.91Z" fill="#232a56" fill-rule="nonzero" opacity="1" stroke="none" vectornator:layerName="path"/>
<path d="M262.277 286.207C262.266 286.145 262.235 286.093 262.204 286.041C262.194 285.959 262.163 285.886 262.111 285.804C260.799 283.943 259.176 282.341 257.274 281.049C256.943 280.832 256.406 280.997 256.199 281.286C256.023 281.535 256.075 281.855 256.333 282.051C258.338 283.55 260.013 285.504 261.181 287.706C261.295 287.912 261.512 288.036 261.791 288.036C261.905 288.036 262.018 288.016 262.132 287.974C262.452 287.85 262.628 287.551 262.556 287.251L262.287 286.217L262.277 286.207Z" fill="#232a56" fill-rule="nonzero" opacity="1" stroke="none" vectornator:layerName="path"/>
<path d="M196.267 251.837L196.267 251.837L196.215 251.734L196.215 251.734C194.51 248.664 191.099 246.669 187.491 246.648C185.961 246.648 184.669 247.31 183.76 248.571C182.54 250.246 182.178 252.881 182.871 254.98L183.966 258.277L183.698 254.814C183.491 252.199 184.173 250.122 185.579 249.119C186.768 248.271 188.411 248.251 190.344 249.078C192.856 250.08 195.709 252.303 195.471 255.248C195.264 256.51 196.288 257.243 197.104 257.843C197.28 257.967 197.445 258.091 197.59 258.215L200.464 260.603L198.2 257.626C198.003 257.367 197.766 257.13 197.58 256.933C197.259 256.613 196.939 256.272 196.784 255.92C196.753 255.827 196.753 255.693 196.804 255.476C197.073 254.391 196.908 253.15 196.35 251.961L196.35 251.961L196.288 251.837L196.267 251.837Z" fill="#232a56" fill-rule="nonzero" opacity="1" stroke="none" vectornator:layerName="path"/>
<path d="M210.966 257.636L210.883 257.926L211.627 258.194L211.751 257.926C212.64 255.951 213.932 253.553 216.062 252.458C219.018 250.938 223.38 251.228 224.93 254.039C225.53 255.228 225.499 256.344 224.837 257.274C223.814 258.732 221.395 259.631 219.194 259.373L218.894 259.342L218.739 260.117L219.028 260.2C219.659 260.375 220.31 260.458 220.982 260.458C222.987 260.458 224.92 259.652 226.036 258.36C227.236 256.954 227.432 255.135 226.564 253.222C225.788 251.662 224.393 250.556 222.553 250.028C220.196 249.357 217.323 249.729 215.235 251C213.219 252.21 211.813 254.37 210.945 257.636L210.966 257.636Z" fill="#232a56" fill-rule="nonzero" opacity="1" stroke="none" vectornator:layerName="path"/>
<path d="M128.076 283.033L127.859 282.816C126.122 281.1 124.334 279.323 122.794 277.379C122.246 276.666 121.647 275.818 121.378 274.867L121.295 274.578L120.51 274.743L120.551 275.043C120.84 277.038 122.164 278.568 123.445 280.046C123.569 280.18 123.683 280.325 123.807 280.47L123.859 280.532C125.554 282.289 127.042 283.612 128.552 284.708L128.789 284.884L129.306 284.284L129.099 284.077C128.758 283.736 128.417 283.395 128.076 283.054L128.076 283.033Z" fill="#232a56" fill-rule="nonzero" opacity="1" stroke="none" vectornator:layerName="path"/>
<path d="M84.9412 210.212C84.6208 210.336 84.5381 210.553 84.5278 210.677C81.9643 228.063 80.176 245.728 79.2044 263.177C78.2431 280.449 78.0467 297.949 78.6152 315.18C78.946 324.99 79.5248 334.996 80.3621 344.888C80.3828 345.064 80.4861 345.208 80.6515 345.281C80.7342 345.322 80.8273 345.332 80.941 345.332C81.1477 345.332 81.3854 345.26 81.5405 345.157C81.7989 344.981 81.8092 344.743 81.7989 344.65C80.3311 327.316 79.6385 309.733 79.7419 292.398C79.8349 274.919 80.7342 257.223 82.4088 239.806C83.3287 230.203 84.5278 220.414 85.9542 210.698C85.9749 210.522 85.9129 210.346 85.7682 210.243C85.5201 210.046 85.1376 210.119 84.9516 210.201L84.9412 210.212Z" fill="#232a56" fill-rule="nonzero" opacity="1" stroke="none" vectornator:layerName="path"/>
<path d="M75.1731 204.516C75.2041 204.351 75.1421 204.185 75.0077 204.082C74.739 203.855 74.2635 204.01 74.1705 204.041C73.8604 204.165 73.7777 204.372 73.7673 204.485C70.8937 222.884 69.0331 241.594 68.2372 260.096C67.431 278.775 67.679 297.701 68.9608 316.348C69.6844 326.757 70.749 337.332 72.1341 347.782C72.1548 347.948 72.2582 348.092 72.4236 348.154C72.4959 348.185 72.5786 348.196 72.682 348.196C72.8784 348.196 73.1678 348.134 73.3539 347.989C73.5089 347.865 73.5916 347.689 73.5606 347.513C71.1005 329.042 69.674 310.27 69.3019 291.706C68.9298 273.255 69.5913 254.566 71.2659 236.167C72.2272 225.665 73.5399 215.008 75.1834 204.506L75.1731 204.516Z" fill="#232a56" fill-rule="nonzero" opacity="1" stroke="none" vectornator:layerName="path"/>
<path d="M106.576 133.472C106.483 133.586 106.441 133.731 106.452 133.865C106.462 133.989 106.534 134.113 106.638 134.196C106.772 134.299 106.948 134.33 107.072 134.33C107.289 134.33 107.61 134.258 107.775 134.041C116.809 122.681 126.846 111.993 137.617 102.266C148.398 92.529 160.047 83.6188 172.234 75.7836C179.129 71.3595 186.333 67.1835 193.652 63.4003C193.972 63.2349 194.034 63.0075 194.034 62.8731C194.034 62.6871 193.952 62.501 193.776 62.3873C193.559 62.2529 193.269 62.2529 193.021 62.377C179.976 69.1268 167.428 77.0033 155.716 85.7688C143.963 94.5653 132.872 104.385 122.753 114.949C117.14 120.8 111.692 127.043 106.566 133.493L106.576 133.472Z" fill="#232a56" fill-rule="nonzero" opacity="1" stroke="none" vectornator:layerName="path"/>
<path d="M123.156 99.6819L123.156 99.6819C122.887 99.9197 122.918 100.178 122.939 100.271C122.98 100.478 123.135 100.643 123.363 100.716C123.445 100.747 123.528 100.757 123.611 100.757C123.797 100.757 123.983 100.685 124.117 100.571C140.139 86.1099 157.784 73.4682 176.545 63.0075C180.038 61.0642 183.749 59.1003 187.574 57.1776L187.781 57.1156L192.752 54.6452C193.135 54.4591 193.218 54.0973 193.094 53.8389C193.021 53.6942 192.887 53.5702 192.721 53.5185C192.525 53.4461 192.318 53.4668 192.132 53.5495C191.326 53.9319 190.489 54.3351 189.589 54.7795L189.589 54.7795C189.31 54.5418 188.825 54.7175 188.814 54.7175C170.901 61.4467 154.052 70.5843 138.723 81.8926C134.402 85.0763 130.133 88.4977 126.019 92.0638C125.885 92.1775 125.833 92.3429 125.885 92.5393L125.967 92.7461L126.164 92.8184C126.226 92.8391 126.298 92.8494 126.381 92.8494C126.515 92.8494 126.908 92.8081 127.104 92.6427C141.421 80.2387 157.339 69.8814 174.436 61.8808C177.268 60.5577 180.214 59.2657 183.212 58.0253C166.88 66.522 151.385 76.5485 137.121 87.8775C132.397 91.6194 127.704 95.599 123.166 99.6923L123.156 99.6819Z" fill="#232a56" fill-rule="nonzero" opacity="1" stroke="none" vectornator:layerName="path"/>
<path d="M108.891 75.8146C108.685 75.8456 108.509 75.9387 108.395 76.0937C94.2752 94.555 82.8843 114.887 74.5529 136.522C72.2375 142.538 70.1185 148.771 68.2579 155.066C68.1545 155.407 68.3303 155.727 68.6817 155.831C68.7541 155.851 68.8264 155.862 68.9091 155.862C69.1985 155.862 69.5293 155.717 69.643 155.345C76.1964 133.173 85.8405 112.107 98.3272 92.7357C101.821 87.3193 105.594 81.9546 109.553 76.7759C109.791 76.4555 109.698 76.1144 109.47 75.949C109.315 75.8353 109.098 75.7836 108.891 75.8146Z" fill="#232a56" fill-rule="nonzero" opacity="1" stroke="none" vectornator:layerName="path"/>
<path d="M273.44 89.3143L273.43 89.3143C273.161 89.3143 272.83 89.4383 272.686 89.6761C272.593 89.8415 272.582 90.0275 272.686 90.1826L277.544 98.9067C277.658 99.1031 277.864 99.2065 278.113 99.2065C278.278 99.2065 278.454 99.1651 278.598 99.0824C278.939 98.8964 278.991 98.5656 278.867 98.3382L274.019 89.6244C273.916 89.4383 273.709 89.3246 273.461 89.3143L273.44 89.3143Z" fill="#232a56" fill-rule="nonzero" opacity="1" stroke="none" vectornator:layerName="path"/>
<path d="M331.16 226.688C331.16 226.523 331.067 226.378 330.912 226.285C330.643 226.14 330.24 226.244 330.023 226.368C329.744 226.533 329.723 226.771 329.723 226.854C329.868 239.33 328.638 251.775 326.064 263.859C323.583 275.519 319.666 286.734 315.521 298.156L315.459 298.311C311.49 309.257 307.376 320.566 304.936 332.174C302.559 343.43 301.577 355.028 302.011 366.647C302.507 379.846 304.843 392.891 308.936 405.399C309.009 405.616 309.215 405.75 309.484 405.75C309.588 405.75 309.712 405.729 309.836 405.688C310.311 405.533 310.394 405.202 310.321 404.975C303.003 382.627 301.391 358.615 305.68 335.523C308.037 322.819 312.482 310.498 316.782 298.59L316.782 298.569C320.431 288.47 324.204 278.03 326.695 267.373C329.796 254.111 331.295 240.426 331.14 226.678L331.16 226.688Z" fill="#232a56" fill-rule="nonzero" opacity="1" stroke="none" vectornator:layerName="path"/>
<path d="M345.301 225.727L345.301 225.706C345.239 225.5 345.084 225.355 344.867 225.293C344.587 225.221 344.246 225.314 344.06 225.51C343.905 225.665 343.843 225.882 343.895 226.078C347.296 238.927 344.267 252.085 341.249 262.112C339.884 266.66 338.292 271.219 336.752 275.643L336.732 275.694C336.225 277.162 335.708 278.62 335.212 280.087C333.021 286.486 331.14 292.264 329.475 297.753C320.927 325.879 317.195 349.147 317.723 370.988C318.064 385.315 320.317 398.866 324.4 411.249C324.483 411.508 324.72 411.663 325.02 411.663C325.113 411.663 325.217 411.642 325.31 411.611C325.692 411.487 325.888 411.156 325.785 410.825C318.725 389.418 317.268 364.9 321.433 337.942C323.18 326.675 325.909 314.798 329.775 301.629C331.935 294.259 334.458 286.868 336.897 279.726L336.959 279.55C338.468 275.126 340.029 270.547 341.517 265.947C345.435 253.791 348.95 239.495 345.311 225.717L345.301 225.727Z" fill="#232a56" fill-rule="nonzero" opacity="1" stroke="none" vectornator:layerName="path"/>
</g>
</svg>
