<?xml version="1.0" encoding="UTF-8"?>
<svg id="uuid-6999953f-ce1f-4e94-9732-6693d73306c2" data-name="Livello 7" xmlns="http://www.w3.org/2000/svg" viewBox="0 0 400 400">
  <defs>
    <style>
      .uuid-04b3175e-619a-4ab3-a54b-4f9bcbe9bbd1 {
        fill: #232a56;
      }
    </style>
  </defs>
  <path class="uuid-04b3175e-619a-4ab3-a54b-4f9bcbe9bbd1" d="m218.21,252.36h0c-.26.02-.49.17-.6.39-.1.2-.09.42.03.61.05.08.21.26.53.26h.05c5.57-.35,10.37-4.32,11.65-9.65,1.52-6.29-2.4-11.73-5.99-15.77-.28-.31-.79-.25-1.07,0-.12.11-.2.25-.21.4,0,.15.04.29.15.41,3.35,3.77,6.68,8.33,5.97,13.6-.71,5.31-5.13,9.42-10.52,9.75Z"/>
  <path class="uuid-04b3175e-619a-4ab3-a54b-4f9bcbe9bbd1" d="m169.37,231.88c-.17-.21-.46-.24-.66-.21-.27.05-.47.21-.55.42-1.39,3.8-1.08,7.94.85,11.37,1.78,3.16,4.87,5.51,8.46,6.44.05.01.11.02.16.02.22,0,.46-.1.62-.27.16-.16.21-.36.16-.55-.03-.11-.13-.3-.41-.37-3.2-.83-5.98-2.91-7.64-5.7-1.85-3.12-2.19-7.08-.9-10.59.11-.29-.03-.49-.09-.56Z"/>
  <path class="uuid-04b3175e-619a-4ab3-a54b-4f9bcbe9bbd1" d="m219.56,214.77c.17,0,.35-.06.49-.16.14-.1.24-.24.26-.41.02-.15-.01-.3-.11-.42-4.81-6.68-7.6-14.55-8.08-22.74-.01-.22-.14-.41-.33-.51-.24-.12-.55-.1-.77.06-.19.12-.29.32-.28.54.49,8.45,3.36,16.54,8.29,23.39.12.16.31.26.53.26Z"/>
  <path class="uuid-04b3175e-619a-4ab3-a54b-4f9bcbe9bbd1" d="m166.4,196.24c-8.45,3.65-17.75,5.04-26.89,4.01h-.04c-.24,0-.45.18-.48.41-.01.11.02.23.09.32.08.09.18.15.3.16,1.98.22,4,.34,6.01.34,7.41,0,14.6-1.49,21.38-4.42.15-.07.25-.2.27-.36.02-.16-.05-.31-.17-.4-.14-.1-.32-.12-.48-.05Z"/>
  <path class="uuid-04b3175e-619a-4ab3-a54b-4f9bcbe9bbd1" d="m203.01,283.87c-1.34.18-2.74.37-4.08.4-.06-.01-.12-.01-.2-.01l-.24.02c-.98,0-1.86-.09-2.68-.28-1.01-.23-2.01-.6-2.97-.97-1.89-.71-3.83-1.44-5.93-1.15h-.07c-.14.02-.28.03-.42.05-.1.01-.19.05-.28.1h-.04c-.1.04-.2.06-.3.09-.42.14-.56.48-.48.74.08.25.37.46.81.32.03-.01.06-.02.1-.03h0c.09,0,.18.01.27,0,1.87-.3,3.68.4,5.42,1.08l.07.03c1.61.63,3.28,1.29,5.11,1.19.11,0,.22-.03.31-.08,1.65.09,3.27-.08,4.65-.26.09.04.2.06.33.06h0l2.34-.08c.1,0,.2-.03.27-.07.02,0,.04,0,.06,0l.87-.15c.06,0,.12-.03.18-.05h.04c.09.03.19.04.29.03l1.2-.09s.02,0,.04,0c.38.02.72.05,1.03.1.07,0,.13,0,.2,0,1.85.36,3.72.57,5.55.62.02,0,.04,0,.05,0,1.21.12,2.22.21,3.19.28.12,0,.23-.03.33-.07,2.72.24,5.65.31,8.69.21.17,0,.35-.02.52-.02l.35-.02c.06.02.12.04.19.04l.5.05c.62.09,1.22.16,1.75.19.84.14,1.89.28,3,.19-2.17,1.23-4.22,2.68-6.1,4.31-.21.19-.21.38-.19.48.03.16.15.3.32.36.1.04.2.04.27.04.09,0,.39-.01.59-.18,2.26-1.96,4.76-3.63,7.44-4.98l.84-.36c.05,0,.12-.02.15-.03l2.14-.75c.62-.18,1.2-.37,1.7-.56l.34-.04v-.11h0l.15-.05c.05-.02.31-.12.41-.37.05-.13.04-.29-.02-.4-.04-.08-.19-.32-.57-.28-.09-.01-.18,0-.25,0-1.67.24-3.37.15-5.05-.25-.19-.05-.37,0-.48.03-2.81-.77-5.59-1.89-8.28-2.97-6.11-2.45-12.43-4.99-19.27-3.69-.39.08-.68.43-.62.75.05.24.28.45.7.38,6.53-1.25,12.67,1.24,18.63,3.64,2.52,1.02,5.12,2.07,7.76,2.84-1.41.09-2.67.2-3.53.28-.85-.03-1.68.04-2.52.23-.07.02-.14.04-.2.08-4.16.17-7.61.06-10.86-.34-.69-.08-1.39-.18-2.11-.28-1.74-.23-3.54-.48-5.28-.56-.11-.02-.22-.04-.33-.06-.04-.03-.09-.05-.14-.06-.78-.26-1.61-.27-2.4-.03-.1.03-.19.08-.26.14-.84.07-1.67.17-2.46.29l-.56.07Zm-16.79-.74l-.02-.1h0l.04.05v.05Z"/>
  <path class="uuid-04b3175e-619a-4ab3-a54b-4f9bcbe9bbd1" d="m178.46,294.29c3.65,2.33,7.13,3.92,10.64,4.86,3.51.95,7.45,1.45,11.7,1.48h.45c3.82,0,7.9-.34,12.82-1.08.39-.06.68-.4.63-.75-.04-.25-.27-.49-.69-.43-6.85,1.03-15.79,1.92-24.2-.31-3.55-.94-7.12-2.59-10.91-5.04-1.02-.66-2.04-1.36-3.03-2.03l-.13-.09c-2.28-1.55-4.64-3.16-7.13-4.47-4.06-2.14-7.79-3.14-11.39-3.07,1.87-.38,3.74-.68,5.58-.88.05,0,.09-.02.14-.03,4.79.64,9.58,1.03,14.22,1.16,1.44.33,2.91.4,4.37.24.15.08.33.11.53.06l1.03-.24c.14-.03.26-.1.35-.19.08-.03.16-.07.22-.13.2-.04.38-.15.5-.31.1-.13.14-.28.11-.42-.03-.25-.26-.47-.69-.43-1.75.27-3.71.36-5.98.27h-.06s-.03-.02-.04-.02c-.11-.03-.24-.03-.38,0-2.11-.1-4.28-.33-6.39-.56h-.04c-1.76-.19-3.57-.38-5.36-.5,2.18-.53,4.36-1.05,6.49-1.55l.61-.14c3.26-.77,6.63-1.57,9.94-2.39l.94-.24c3.42-.87,6.95-1.77,10.38-.75.69.2,1.42.47,2.03.69,2.2.8,4.48,1.64,6.99.88.27-.08.39-.23.45-.33.06-.12.08-.25.04-.37-.04-.12-.12-.23-.24-.29-.11-.06-.29-.11-.55-.02-2.09.63-4.2-.15-6.24-.9-1.36-.5-2.76-1.02-4.19-1.15-3-.27-5.95.47-8.81,1.19l-.26.07c-.27.07-.54.14-.81.2-3.24.81-6.55,1.59-9.75,2.35l-.34.08c-3.52.83-7.16,1.69-10.64,2.58-5.03.1-8.93,1.28-12.25,3.71l-.93-.62.65.85c-.21.23-.18.49-.05.66.14.19.45.27.73.22l.24.3.06-.35c.07-.01.13-.03.18-.05l4.8-2.08c.39-.09.78-.18,1.17-.27-.04.05-.1.08-.12.13-.09.18-.08.39.02.54.08.13.25.26.58.25.34-.02.68-.03,1.02-.03,6.52,0,12.08,3.77,17.47,7.42,1.09.74,2.32,1.57,3.51,2.34Zm-7.79-12.28s0,0,0,0h0s0,0,0,0Z"/>
  <path class="uuid-04b3175e-619a-4ab3-a54b-4f9bcbe9bbd1" d="m279.46,97.51h.06c.28-.02.64-.17.78-.47.1-.2.09-.43-.04-.63-3.48-5.25-8.42-9.45-14.69-12.49-5.6-2.72-12.1-4.38-18.78-4.8-14.22-.88-28.02,3.15-41.38,7.05l-.12.04c-2.31.67-4.69,1.37-7.03,2.03-8.2,2.3-17.9,4.7-27.73,5.02-.5.02-.82.42-.81.78,0,.3.25.61.76.61,12.13-.4,23.89-3.83,35.26-7.14l.06-.02c3.96-1.15,8.05-2.35,12.12-3.4,9.48-2.45,21.95-4.97,34.4-2.82-.06.1-.08.21-.07.32.02.14.09.27.21.37,5.08,4.09,9.14,9.42,11.74,15.41.08.19.26.32.48.34.31.04.62-.09.77-.3.12-.15.14-.35.06-.52-2.55-5.87-6.48-11.14-11.4-15.28,1.87.39,3.6.86,5.28,1.42-.07.17-.04.36.09.51,3.49,4.22,6.15,9,7.89,14.2.06.19.22.33.43.37.05.01.1.02.15.02.25,0,.5-.1.64-.27.13-.15.17-.34.11-.53-1.65-4.92-4.11-9.49-7.31-13.58.27.1.53.21.77.31,7.12,2.91,12.88,7.46,16.67,13.17l.11-.07-.11.08c.13.19.35.3.61.3Z"/>
  <path class="uuid-04b3175e-619a-4ab3-a54b-4f9bcbe9bbd1" d="m244,29.11c-17.3-1.57-35.26.75-53.37,6.9-14.07,4.77-27.73,11.71-40.62,20.62-11.94,8.25-23.15,18.17-33.31,29.48-9.84,10.94-18.66,23.13-26.22,36.22-7.47,12.94-13.64,26.64-18.33,40.71-.58,1.74-1.14,3.51-1.68,5.26-.07.21.03.49.33.59.07.02.15.03.25.03.31,0,.86-.11.98-.51,4.23-13.83,9.88-27.33,16.78-40.14,7.09-13.16,15.46-25.49,24.86-36.66,9.68-11.49,20.39-21.67,31.84-30.25,12.04-9.03,24.89-16.3,38.19-21.62,17.84-7.13,35.68-10.45,53.08-9.9,2.15.07,4.39.21,6.69.42.16,0,.98-.18,1.03-.66.02-.22-.13-.46-.49-.5Z"/>
  <path class="uuid-04b3175e-619a-4ab3-a54b-4f9bcbe9bbd1" d="m244.6,333.42c-.26-.05-.62.05-.75.14-9.35,6.45-20.39,10.95-31.91,13-11.4,2.03-23.31,1.7-34.46-.94-6.29-1.49-12.36-3.73-18.06-6.66-.33-.16-.94.09-1.09.38l-.15.36.34.18c10.33,5.31,22.15,8.41,34.17,8.95,1.28.06,2.58.09,3.87.09,10.45,0,21.06-1.91,30.67-5.53,6.23-2.35,12.13-5.42,17.52-9.14.27-.19.27-.46.15-.63-.07-.1-.17-.16-.3-.18Z"/>
  <path class="uuid-04b3175e-619a-4ab3-a54b-4f9bcbe9bbd1" d="m250.29,293.97h-.03c-.14,0-.32.06-.42.23-3.46,6.01-7.81,11.42-12.94,16.09-.09.08-.14.19-.14.3,0,.11.03.22.11.3.08.09.2.14.34.14.12,0,.25-.04.34-.12,5.2-4.73,9.61-10.23,13.12-16.33l.09-.21-.11-.18c-.07-.12-.21-.2-.36-.21Z"/>
  <path class="uuid-04b3175e-619a-4ab3-a54b-4f9bcbe9bbd1" d="m147.38,272.4l-.1-.46-.22-.08c-.15-.05-.38,0-.5.1-1.57,1.37-3.31,2.54-5.18,3.49-.15.08-.23.21-.23.37v.23l.18.12c.07.05.16.07.25.07.1,0,.2-.03.25-.06,1.93-.98,3.74-2.2,5.37-3.62l.18-.16Z"/>
  <path class="uuid-04b3175e-619a-4ab3-a54b-4f9bcbe9bbd1" d="m302.92,260.36c1.92-9.4,3.34-19.31,4.21-29.45.83-9.68,1.15-19.38.96-28.83-.12-5.81-.44-11.44-.94-16.73l.38-1.39c.16-.55.32-1.12.61-1.58.85-1.31,3.18-2.34,4.91-2.83.32-.08.71-.19,2.27-10.76.03-.18-.02-.36-.13-.5-.11-.13-.26-.22-.43-.23-1.12-.1-6.09-1.03-9.77-1.73-1.17-4.98-3.33-9.81-5.27-13.95-.99-2.12-2.05-4.26-3.07-6.33l-.06-.11c-1.64-3.33-3.34-6.78-4.85-10.29-2.37-5.51-3.87-11.3-4.57-17.71-.43-3.99-.62-8.06-.8-12.01v-.13c-.12-2.53-.24-5.14-.43-7.71-.45-6.17-1.41-14.18-4.88-21.45-.06-.14-.18-.24-.33-.29-.28-.1-.62-.02-.83.09-.48.23-.46.59-.38.77,4.34,9.08,4.8,19.25,5.25,29.1v.07c.14,3.08.29,6.27.55,9.37.62,7.25,1.91,13.11,4.04,18.45,1.65,4.13,3.65,8.18,5.6,12.12.69,1.39,1.47,2.97,2.19,4.48,2.55,5.3,4.77,10.12,6.06,15.21-1.16-.22-2.31-.44-3.4-.65l-.42-.08c-3.48-.67-6.22-1.2-6.83-1.28-5.13-.74-10.36-1.26-15.55-1.53-4.07-2.45-8.88-3.69-14.28-3.69h-.33c-.29,0-.58,0-.87,0-10.6,0-21.02,1.71-31,5.09l-.28.09.21.75.29-.06c10.79-2.38,21.44-3.52,31.6-3.39,2.82.01,5.49.35,7.94,1-4.18-.04-8.25.07-12.11.34-6.04.42-12.28,1.42-19.07,3.04-1.51.36-3.05.67-4.56.98-2.88.59-5.87,1.2-8.72,2.12-2.6.84-4.63,1.76-6.39,2.88-1.11.72-2.01,1.43-2.74,2.18-.26.27-.52.58-.72.83-.49.6-1,1.22-1.68,1.49-1.14.46-2.94.32-4.53.19-.51-.04-1.03-.08-1.49-.09-2.6-.06-5.38-.24-8.74-.56-.46-.04-.98-.05-1.49-.06-1.92-.03-4.1-.07-4.6-1.67-1.5-4.8-6.23-7.11-10.67-8.73-5.48-2.01-10.05-3.55-14.36-4.83-5.6-4.67-12.46-7.85-19.84-9.19-7.56-1.38-15.11-.72-21.84,1.91l-.27.1.22.74.28-.06c11.97-2.68,24.63-.96,34.9,4.71-4.79-1.2-9.31-2.06-13.76-2.63-11.11-1.42-22.85-1.67-34.9-.76,5.99-16.17,12.55-28.25,20.64-38,8.12-9.79,17.38-16.82,27.55-20.91.56-.23.5-.57.44-.71-.15-.37-.69-.37-1.04-.24-9.09,3.66-17.48,9.55-24.92,17.53-6.98,7.48-12.9,16.48-18.1,27.53-2.1,4.46-4.12,9.34-6.18,14.93-1.17.13-3.89.48-6.53.81l-.2.03c-6.18.79-14.64,1.87-16.19,1.91-.18.01-.35.1-.47.24-.11.14-.16.31-.14.47v.12c1.02,10.71,1.33,10.82,1.69,10.94,1.43.48,4.09,1.69,4.97,3.18.3.51.43,1.12.57,1.76.24,1.09.47,2.19.7,3.29l.13.61c1.01,4.83,2.06,9.82,3.41,14.66-1.79,6.55-3.21,12.47-4.34,18.09-2.75,13.76-3.79,26.02-3.15,37.49.08,1.52.2,3.09.36,4.66.24,7.18,1.17,14.44,2.75,21.59-.01.04-.02.08-.03.12-1.92,19.72-1.96,39.67-.13,59.28.51,5.49,1.19,11.11,2.02,16.72.03.18.15.32.32.39.25.1.61.03.84-.15.17-.13.25-.32.22-.51-2.88-19.52-3.92-39.36-3.07-58.97.18-4.12.46-8.42.83-12.77,1.44,5.59,3.29,11.13,5.5,16.46-.06.09-.09.19-.09.3l-.59,75.59c0,.15.05.29.16.4.12.12.29.18.48.19.37,0,.75-.24.75-.63l.57-72.85c1.22,2.73,2.53,5.42,3.9,8,2.45,4.59,5.25,9.14,8.32,13.52.07.1.22.26.56.23.25-.02.8-.2.94-.51l.08-.22-.12-.18c-10.74-15.31-18-32.8-21.01-50.58-.87-5.13-1.4-10.41-1.58-15.7-1.61-16.8.36-34.45,6.36-57.15.92,3,1.9,5.68,2.99,8.18,1.89,4.38,3.85,7.67,6.17,10.35,5.54,6.43,14.68,8.83,23.74,10.47,6.49,1.18,16.31,2.15,26.24.07,7.86-1.64,14.32-4.88,19.28-9.64-.21.24-.43.47-.64.71-.09.1-.13.22-.13.34,0,.11.06.21.14.29.1.1.27.15.45.13.22-.01.51-.09.65-.24,7.14-7.76,12.02-17.33,14.12-27.68,2.4-3.23,6.84-4.96,11.29-4.43,3.22.39,5.8,2.07,8.12,5.28.08.71.17,1.4.26,2.07l.07.52c1.01,7.57,4.16,15.18,9.62,23.25,4.6,6.79,11.52,11.51,20.55,14.02,9.35,2.6,18.79,2.21,25.06,1.43,8.72-1.08,17.58-2.9,23.26-8.9,2.37-2.5,4.43-5.61,6.49-9.8,3.71-7.51,6.08-16.17,7.82-22.69.89,11.7.85,24.32-.12,37.53-1.54,21.04-5.21,40.2-10.92,56.95-3.51,10.3-7.54,18.95-12.32,26.42-.09.14-.11.3-.05.46,0,.02.02.04.03.06-2.07,14.99-3,30.26-2.77,45.39,0,.23.19.47.57.47.16,0,.34-.05.48-.13.21-.12.33-.31.33-.52-.23-15.07.7-30.29,2.77-45.25.02-.02.04-.05.06-.07,4.3-6.72,7.97-14.31,11.23-23.19,3.12-8.5,5.64-17.55,7.71-27.68Zm-15.24-83.8c-1.12-3.62-2.84-6.78-5.11-9.41.71.03,1.43.05,2.13.07h.07c3.62.1,7.36.2,10.31,2.02,3.21,1.98,3.77,5.96,4.25,9.47l.15,1.04c.64,4.38.74,8.97.28,13.27-1.02,9.41-5.7,19.95-11.64,26.23-4.93,5.21-12.73,6.82-20.42,7.77-8.6,1.07-29.75,1.89-40.2-13.55-2.18-3.21-7.43-11.64-9.13-20.43-.99-5.1-.62-9.48,1.09-13.01,1.99-4.09,5.62-5.7,9.26-6.83,14.38-4.47,27.91-6.64,41.34-6.64,3.13,0,6.31.12,9.43.36,2.98,2.48,5.48,5.82,7.44,9.93l.12.26.72-.28-.09-.28Zm-167.58-17.53h.07c1.39.05,2.55.08,3.72.05,16.1-.47,32.04,1.98,48.76,7.5.97.94,1.89,1.88,2.73,2.8l.19.21.61-.47-.16-.24c-.33-.51-.67-1-1.04-1.51,1.2.41,2.25.78,3.29,1.16,3.73,1.38,7.43,3.24,9.26,7.51,1.57,3.7,1.69,8.18.35,13.3-2.32,8.83-8.32,17.08-10.79,20.22-11.87,15.06-33.91,12.94-42.83,11.33-7.99-1.44-16.04-3.55-20.86-9.15-5.37-6.23-9.34-15.81-10.35-25.01.63-2.15,1.31-4.42,2.09-6.96,2.21-7.2,4.23-13.7,6.53-20.25,2.64-.68,5.58-.59,8.45-.5Zm-10.21,1.09c-1.84,5.28-3.48,10.43-4.71,14.35-.86,2.73-1.65,5.29-2.41,7.81-.03-3.76.37-7.67,1.16-11.38.07-.31.13-.63.2-.95l.02-.11c.72-3.54,1.55-7.56,5.04-9.38.23-.12.46-.23.71-.34Z"/>
  <path class="uuid-04b3175e-619a-4ab3-a54b-4f9bcbe9bbd1" d="m341.96,185.35l-.14-.39c-.95-2.62-1.81-4.98-2.65-7.35-4.49-12.59-8.29-25.39-12.12-38.49l-.05-.18c-7.1-24.29-14.45-49.41-27.53-71.57-5.91-10.01-12.59-18.84-19.86-26.26-8.13-8.3-17.04-14.85-26.46-19.46-2.26-1.1-4.66-2.14-7.11-3.08-.07-.05-.16-.08-.28-.1l-.12-.02c-.04-.08-.11-.15-.19-.21-10.96-7.98-23.78-13.16-38.11-15.39-13.39-2.08-27.64-1.39-41.19,1.99-13.07,3.27-25.73,9.17-37.61,17.53-11.03,7.76-21.13,17.44-30.03,28.78-10.53,13.41-19.38,29.27-26.3,47.14-.19.07-.33.18-.39.32-6.73,14.05-12.15,29.54-16.57,47.36-4.15,16.77-7.12,34.34-9.07,53.71-1.81,18.01-2.62,36.86-2.38,56.02.23,18.67,1.43,37.33,3.57,55.49,2.14,18.08,5.02,34.54,8.83,50.34.43,1.8.91,3.71,1.41,5.65.06.23.28.38.56.38.08,0,.16-.01.25-.03.46-.12.61-.45.54-.71-3.99-15.45-7.06-31.6-9.4-49.37-2.34-17.76-3.77-36.12-4.24-54.59-.5-19.3.05-38.39,1.64-56.76,1.65-19.09,4.41-37.22,8.2-53.91,3.38-14.86,7.39-28.07,12.25-40.26-2.36,7.4-4.46,15.2-6.27,23.21-6.84,30.35-10.44,63.74-11,102.08-.51,34.89,2.13,69.99,7.86,104.3.68,4.08,1.45,8.39,2.28,12.8.04.21.19.38.4.45.29.1.7.02.96-.2.19-.17.28-.39.23-.62-6.42-33.87-9.83-68.47-10.16-102.82-.33-35.38,2.34-69.19,7.93-100.52,6.38-35.72,16.87-64.34,32.07-87.51,11.64-17.73,31.95-41.35,62.63-53.16,27.47-10.58,57.95-9.11,81.53,3.95,1.71.95,3.44,2,5.16,3.13-18.9-4.7-38.31-5.26-56.18-1.6-18.18,3.72-35.54,12.64-51.61,26.5-7.93,6.85-15.53,14.89-22.6,23.91-.22.28-.16.53-.12.62.08.21.28.34.54.38.27.05.66-.03.88-.3,12.84-16.39,27.07-29.17,42.28-37.98,8.66-5.01,17.74-8.7,26.98-10.96,9.48-2.32,19.62-3.38,30.13-3.17,8.41.18,16.89,1.19,25.24,3-18.16-1.38-36.76.97-53.92,6.81-5.62,1.91-11.16,4.22-16.47,6.86-.37.18-.44.43-.44.56-.01.2.08.38.26.5.24.15.58.17.87.03,18.26-9.08,38.73-13.87,59.2-13.87.42,0,.85,0,1.27,0,5.93.06,11.93.52,17.81,1.39.05,0,.1.01.16,0,18.79,7.26,35.8,22.01,49.21,42.67,13.83,21.32,21.69,45.76,28.56,68.96.79,2.66,1.57,5.32,2.35,7.99l.2.69c2.89,9.88,5.87,20.09,9.22,30.04,1.74,5.18,3.64,10.41,5.48,15.48l.07.19c2.56,7.06,5.21,14.37,7.5,21.69,4.7,15.06,6.87,27.41,6.81,38.85-.05,10.42-1.97,21.64-6.06,35.32-2.02,6.75-4.39,13.55-6.69,20.14-5.45,15.63-11.08,31.79-12.47,48.64-.24,2.96-.34,6-.3,9.03,0,.21.17.47.61.47.41,0,1.01-.2,1-.7-.28-19.88,6.34-38.92,12.74-57.33,1.48-4.26,3.01-8.66,4.45-13.07,3.28-10.05,6.79-22.04,7.94-34.73,1.07-11.85-.24-24.49-4.02-38.66-2.72-10.22-6.38-20.3-9.92-30.04Z"/>
  <path class="uuid-04b3175e-619a-4ab3-a54b-4f9bcbe9bbd1" d="m275.61,188.19h0c-.06-.04-.12-.06-.19-.08.12-.09.23-.2.26-.36.04-.17,0-.33-.12-.47-.04-.05-.1-.09-.15-.12,0,0,0-.02,0-.03.04-.18-.02-.37-.16-.51-.14-.14-.33-.22-.57-.22-.04-.11-.09-.23-.14-.35.3-.24.29-.49.26-.62-.02-.08-.07-.19-.19-.29.35-.14.53-.44.45-.76-.04-.16-.15-.29-.31-.37-.14-.07-.3-.09-.46-.07l.13-.06c.17-.08.37-.27.35-.53-.02-.18-.15-.33-.33-.39-.07-.02-.15-.02-.22-.03.04-.07.06-.16.05-.26,0-.18-.12-.33-.29-.41-.04-.02-.09-.03-.13-.04,0-.02.01-.04.02-.06,0-.03.01-.07.02-.1.23-.13.43-.27.62-.42.15-.12.25-.29.25-.47,0-.16-.06-.31-.18-.42-.24-.22-.6-.21-.83-.08l-1.62.89h0c-.13-.07-.28-.09-.41-.1,0-.09,0-.17-.03-.25-.05-.15-.14-.27-.27-.36h.02c.06-.02.35-.09.49-.33.07-.12.09-.26.05-.4-.08-.31-.41-.46-.81-.36l-.41.1s-.09-.08-.14-.11c.08-.14.1-.29.06-.43-.08-.32-.41-.49-.8-.42l-.81.14c-.26-.21-.62-.25-1.04-.14-.1-.07-.2-.13-.3-.2.02-.05.03-.1.03-.16.02-.22-.06-.42-.2-.56-.23-.23-.59-.28-.85-.25l-.47.04-.38-.23c-.11-.07-.25-.1-.38-.09l-.11-.07c-.12-.07-.26-.11-.42-.11-1.04-.55-2.11-.95-3.16-1.18-1.11-.45-2.29-.8-3.5-1.05.01-.05.02-.1.01-.15,0-.06-.03-.22-.17-.34-.12-.1-.28-.14-.49-.13l-1.79.12c-.09,0-.19.04-.3.1h-.35c-.08-.06-.21-.13-.41-.13h-.02c.03-.14,0-.25-.03-.31-.13-.28-.48-.36-.76-.3-.5.1-.99.27-1.46.5l-.08.04s-.09.04-.13.07c0-.02,0-.03,0-.05-.02-.07-.05-.13-.09-.19.11-.29-.02-.58-.3-.7-.33-.13-.83,0-1,.38-.06.16-.14.31-.24.43-.08-.03-.16-.05-.25-.05-.16-.01-.35.04-.5.14-.18-.06-.38-.03-.46-.01-.08.02-.16.05-.23.09-.05-.17-.19-.31-.38-.36-.15-.04-.34-.03-.52.03,0,0-.02,0-.03-.01-.15-.07-.32-.09-.5-.04-5.83,1.47-11.19,4.48-15.5,8.69-.23.22-.2.45-.17.54.05.19.2.34.42.4.28.08.61,0,.8-.17,3.94-3.84,8.85-6.64,14.2-8.11l-.05.13c-.03.09-.05.17-.04.26-.33.12-.62.23-.87.34-1.68.52-3.23,1.31-4.62,2.36-.05.04-.16.12-.23.25-1.5.82-3.01,1.82-4.47,2.97-2.06,1.61-3.91,3.38-5.44,4.9-.14.03-.27.1-.37.18-1.71,1.53-3.26,3.25-4.61,5.11-.18.25-.1.53.07.67.25.2.78.14,1.03-.08l4.48-.07c.11,0,.22-.02.32-.05h.06s.07.02.1.02c.24.05.57,0,.77-.23.2-.21.16-.43.14-.5-.02-.08-.1-.28-.38-.36l-1.59-.48c-.2-.06-.4,0-.53.06-.39-.07-.77-.09-1.14-.06-.08-.02-.16-.04-.24-.05l1.67-2.14c2.31-2.32,4.79-4.74,7.54-6.76-.67,1.35-.98,2.79-.91,4.21.09,1.79.79,3.58,1.99,5.08-2.24-.56-4.42-1.19-6.47-1.78-.27-.08-.67.05-.83.12-.39.15-.62.33-.68.55-.06.22.04.5.35.59,5.96,1.73,12.86,3.58,19.42,3.58,3.49,0,6.57-.5,9.44-1.54.05,0,.12,0,.19,0,.75-.1,1.49-.31,2.21-.64l1.64.27s.75-.02.92-.41c.06-.15.04-.31-.06-.44.2-.04.56-.13.68-.37.17-.03.41-.1.53-.25.01-.02.03-.04.04-.06l.78-.4-.24-.06s.05-.03.07-.05h.42s1.09.53,1.09.53c.06.06.13.1.2.11l.88.41c.12.06.24.07.34.06.32.16.62.35.88.56.24.21.49.43.73.68.3.32.9.07,1.08-.1.23-.21.2-.49.05-.65,0,0-.01-.02-.02-.03.32.07.71-.12.84-.25.12-.12.15-.25.15-.33,0-.12-.04-.23-.13-.31-.12-.12-.25-.24-.39-.36.32-.16.53-.41.57-.7.02-.13,0-.25-.04-.37.04,0,.07-.01.1-.02.53-.13,1.01-.49.89-.98-.04-.16-.13-.29-.28-.38Zm-10.38.95l-.05.09s-.02.08-.03.1c-.04.02-.08.05-.14.08-.03.02-.07.04-.1.05l-.49.25.12.12c-.11.07-.21.13-.31.19l-.36.12-.02.1c-2.2,1.24-4.59,2.04-7.27,2.45.91-1.04,1.67-2.23,2.18-3.45.45-.95.78-1.92.96-2.86.57-2.97-.25-5.97-2.13-7.85.19.08.39.16.58.25.05.05.1.08.16.11,3.32,1.43,5.94,4.37,7,7.84.13.76.09,1.52-.1,2.27l-.02.06v.06Z"/>
  <path class="uuid-04b3175e-619a-4ab3-a54b-4f9bcbe9bbd1" d="m126.86,186.66c.12.06.25.09.4.09.29,0,.6-.12.78-.22.13-.07.43-.28.43-.62,0-.1-.04-.34-.33-.49-1.74-.9-2.57-3.18-1.87-5.03l.6.71h-.19s.36.38.36.38l-.45-.16.9,1.01-.15-.02.72.9c.05.06.09.11.14.17.79.87,1.76,1.42,2.85,2,.53.29,1.12.5,1.66.69l.09.03c.2.07.4.14.59.21l.31.11s.07.03.13.06c.34.15.53.23.69.25,3.57,2.91,8.48,2.48,12.82,2.11h.14c.72-.07,1.4-.13,2.08-.18,5.49-.35,11.22-.46,17.04-.34.08.07.18.12.3.14,1.91.28,3.75.88,5.45,1.79.08.04.18.06.28.06.27,0,.63-.15.76-.39.11-.2.07-.5-.2-.66l-.08-.08s-.02-.02-.02-.02c-.03-.06-.08-.11-.14-.16h-.02c-1.84-2.04-3.85-3.91-5.98-5.56-.03-.02-.07-.04-.1-.06-.7-.95-1.61-2.19-2.54-3.41-.31-.4-.6-.77-.89-1.12,2,1.31,3.83,2.83,5.45,4.54.36.38,1.03.29,1.39.2.13-.03,1.28-.32,1.47-.97.07-.22.01-.44-.15-.61-5.97-6.33-14.84-10.1-23.71-10.1-.26,0-.53,0-.73.01-.59-.1-1.07-.16-1.55-.22-1.2-.14-2.43-.24-3.65-.27-1.54-.05-2.81,0-4.01.14-.98.12-1.88.3-2.76.55-.05.01-.1.03-.17.06l-.59.21h-.03s-.21.08-.21.08l-.66-.19.18.35-.36.14-.47-.08.09.23-.07.03-.46-.11.07.26-.09.04-.55-.32.07.5-.69-.24.08.14-.07-.04.12.39-.05.03s-.06.03-.09.05l-.12.07-.14-.03-1.23-.69.74,1.05-.24.16-.34-.1-1.33-.81.9,1.21-.63-.29.19.34-.54-.24.27.4.04.07-1.29-.69,1.04,1.24-.16.13-.18-.07.04.17-.64-.26.39.57s-.03.03-.04.06l-.2.24s-.02.03-.03.04l-.44-.2.22.61-.15.08h-.16s.1.16.1.16l-.02.03-.35-.03.15.22h0s-.07.32-.07.32l-.19-.05.08.23h0s-.44-.07-.44-.07l.2.27.05.1-.34-.1.19.29-.4-.15.53.69-.5-.25.57.88v.15l-.3-.08.25.4-.32-.06.45.61.07.16h-.18l-.4-.15s0-.01,0-.02c.08-.18.06-.37-.06-.52-.15-.2-.44-.28-.85-.24-.23.03-.78.16-.97.6-1.01,2.4.08,5.33,2.42,6.54Zm12.36-9.03c-.76,2.55-.38,5.43,1.07,8.11.15.38.34.74.57,1.08,0,.07.02.14.04.2l-.15.08.67.44c.08.06.14.1.18.12.08.08.16.15.25.22-2.58-.11-4.67-.78-6.22-1.99-.01-.16-.09-.27-.16-.35h0s-.1-.09-.1-.09c-.02-.01-.03-.03-.05-.05h0c-.21-.23-.46-.51-.67-.83-.38-.6-.64-1.27-.74-1.95-.5-3.25,2.38-6.17,5.27-7.51.59-.27,1.21-.52,1.86-.75-.83.92-1.47,2.07-1.83,3.27Zm18.91,9.49c.18-.15.34-.31.48-.48h.02c.15-.14.21-.27.23-.36,2.1-2.62,2.52-6.13,1.14-9.15,1.34,1.22,2.48,2.66,3.44,3.93,1.17,1.54,2.33,3.13,3.46,4.67l1.04,1.42c-1.8-.05-3.65-.07-5.51-.07-1.44,0-2.88.01-4.29.04Z"/>
  <path class="uuid-04b3175e-619a-4ab3-a54b-4f9bcbe9bbd1" d="m147,286.28c-.13.01-.38.06-.58.21-1.1.83-2.01,1.86-2.71,3.05-.09.15-.08.33.02.47.06.09.19.2.44.2.09,0,.17-.01.19-.02.21-.04.47-.11.61-.34.64-1.08,1.46-2.01,2.46-2.76.2-.16.22-.37.16-.52-.1-.26-.41-.32-.58-.29Z"/>
  <path class="uuid-04b3175e-619a-4ab3-a54b-4f9bcbe9bbd1" d="m243.74,285.36h0c.77-.13,1.53-.26,2.29-.39.48-.08.62-.33.66-.52.03-.16-.02-.32-.13-.43-.2-.2-.53-.17-.58-.15l-2.3.39c-.5.09-.63.36-.66.51-.03.16.02.32.13.44.11.11.26.17.45.17.05,0,.1,0,.13-.01Z"/>
  <path class="uuid-04b3175e-619a-4ab3-a54b-4f9bcbe9bbd1" d="m255.16,276.94c-.01-.06-.04-.11-.07-.16-.01-.08-.04-.15-.09-.23-1.27-1.8-2.84-3.35-4.68-4.6-.32-.21-.84-.05-1.04.23-.17.24-.12.55.13.74,1.94,1.45,3.56,3.34,4.69,5.47.11.2.32.32.59.32.11,0,.22-.02.33-.06.31-.12.48-.41.41-.7l-.26-1Z"/>
  <path class="uuid-04b3175e-619a-4ab3-a54b-4f9bcbe9bbd1" d="m191.3,243.69s0,0,0,0l-.05-.1h0c-1.65-2.97-4.95-4.9-8.44-4.92-1.48,0-2.73.64-3.61,1.86-1.18,1.62-1.53,4.17-.86,6.2l1.06,3.19-.26-3.35c-.2-2.53.46-4.54,1.82-5.51,1.15-.82,2.74-.84,4.61-.04,2.43.97,5.19,3.12,4.96,5.97-.2,1.22.79,1.93,1.58,2.51.17.12.33.24.47.36l2.78,2.31-2.19-2.88c-.19-.25-.42-.48-.6-.67-.31-.31-.62-.64-.77-.98-.03-.09-.03-.22.02-.43.26-1.05.1-2.25-.44-3.4h0s-.06-.12-.06-.12Z"/>
  <path class="uuid-04b3175e-619a-4ab3-a54b-4f9bcbe9bbd1" d="m205.52,249.3l-.08.28.72.26.12-.26c.86-1.91,2.11-4.23,4.17-5.29,2.86-1.47,7.08-1.19,8.58,1.53.58,1.15.55,2.23-.09,3.13-.99,1.41-3.33,2.28-5.46,2.03l-.29-.03-.15.75.28.08c.61.17,1.24.25,1.89.25,1.94,0,3.81-.78,4.89-2.03,1.16-1.36,1.35-3.12.51-4.97-.75-1.51-2.1-2.58-3.88-3.09-2.28-.65-5.06-.29-7.08.94-1.95,1.17-3.31,3.26-4.15,6.42Z"/>
  <path class="uuid-04b3175e-619a-4ab3-a54b-4f9bcbe9bbd1" d="m125.33,273.87l-.21-.21c-1.68-1.66-3.41-3.38-4.9-5.26-.53-.69-1.11-1.51-1.37-2.43l-.08-.28-.76.16.04.29c.28,1.93,1.56,3.41,2.8,4.84.12.13.23.27.35.41l.05.06c1.64,1.7,3.08,2.98,4.54,4.04l.23.17.5-.58-.2-.2c-.33-.33-.66-.66-.99-.99Z"/>
  <path class="uuid-04b3175e-619a-4ab3-a54b-4f9bcbe9bbd1" d="m83.6,203.42c-.31.12-.39.33-.4.45-2.48,16.82-4.21,33.91-5.15,50.79-.93,16.71-1.12,33.64-.57,50.31.32,9.49.88,19.17,1.69,28.74.02.17.12.31.28.38.08.04.17.05.28.05.2,0,.43-.07.58-.17.25-.17.26-.4.25-.49-1.42-16.77-2.09-33.78-1.99-50.55.09-16.91.96-34.03,2.58-50.88.89-9.29,2.05-18.76,3.43-28.16.02-.17-.04-.34-.18-.44-.24-.19-.61-.12-.79-.04Z"/>
  <path class="uuid-04b3175e-619a-4ab3-a54b-4f9bcbe9bbd1" d="m74.15,197.91c.03-.16-.03-.32-.16-.42-.26-.22-.72-.07-.81-.04-.3.12-.38.32-.39.43-2.78,17.8-4.58,35.9-5.35,53.8-.78,18.07-.54,36.38.7,54.42.7,10.07,1.73,20.3,3.07,30.41.02.16.12.3.28.36.07.03.15.04.25.04.19,0,.47-.06.65-.2.15-.12.23-.29.2-.46-2.38-17.87-3.76-36.03-4.12-53.99-.36-17.85.28-35.93,1.9-53.73.93-10.16,2.2-20.47,3.79-30.63Z"/>
  <path class="uuid-04b3175e-619a-4ab3-a54b-4f9bcbe9bbd1" d="m104.53,129.18c-.09.11-.13.25-.12.38.01.12.08.24.18.32.13.1.3.13.42.13.21,0,.52-.07.68-.28,8.74-10.99,18.45-21.33,28.87-30.74,10.43-9.42,21.7-18.04,33.49-25.62,6.67-4.28,13.64-8.32,20.72-11.98.31-.16.37-.38.37-.51,0-.18-.08-.36-.25-.47-.21-.13-.49-.13-.73-.01-12.62,6.53-24.76,14.15-36.09,22.63-11.37,8.51-22.1,18.01-31.89,28.23-5.43,5.66-10.7,11.7-15.66,17.94Z"/>
  <path class="uuid-04b3175e-619a-4ab3-a54b-4f9bcbe9bbd1" d="m120.57,96.49h0c-.26.23-.23.48-.21.57.04.2.19.36.41.43.08.03.16.04.24.04.18,0,.36-.07.49-.18,15.5-13.99,32.57-26.22,50.72-36.34,3.38-1.88,6.97-3.78,10.67-5.64l.2-.06,4.81-2.39c.37-.18.45-.53.33-.78-.07-.14-.2-.26-.36-.31-.19-.07-.39-.05-.57.03-.78.37-1.59.76-2.46,1.19h0c-.27-.23-.74-.06-.75-.06-17.33,6.51-33.63,15.35-48.46,26.29-4.18,3.08-8.31,6.39-12.29,9.84-.13.11-.18.27-.13.46l.08.2.19.07c.06.02.13.03.21.03.13,0,.51-.04.7-.2,13.85-12,29.25-22.02,45.79-29.76,2.74-1.28,5.59-2.53,8.49-3.73-15.8,8.22-30.79,17.92-44.59,28.88-4.57,3.62-9.11,7.47-13.5,11.43Z"/>
  <path class="uuid-04b3175e-619a-4ab3-a54b-4f9bcbe9bbd1" d="m106.77,73.4c-.2.03-.37.12-.48.27-13.66,17.86-24.68,37.53-32.74,58.46-2.24,5.82-4.29,11.85-6.09,17.94-.1.33.07.64.41.74.07.02.14.03.22.03.28,0,.6-.14.71-.5,6.34-21.45,15.67-41.83,27.75-60.57,3.38-5.24,7.03-10.43,10.86-15.44.23-.31.14-.64-.08-.8-.15-.11-.36-.16-.56-.13Z"/>
  <path class="uuid-04b3175e-619a-4ab3-a54b-4f9bcbe9bbd1" d="m265.96,86.46h-.01c-.26,0-.58.12-.72.35-.09.16-.1.34,0,.49l4.7,8.44c.11.19.31.29.55.29.16,0,.33-.04.47-.12.33-.18.38-.5.26-.72l-4.69-8.43c-.1-.18-.3-.29-.54-.3Z"/>
  <path class="uuid-04b3175e-619a-4ab3-a54b-4f9bcbe9bbd1" d="m321.8,219.36c0-.16-.09-.3-.24-.39-.26-.14-.65-.04-.86.08-.27.16-.29.39-.29.47.14,12.07-1.05,24.11-3.54,35.8-2.4,11.28-6.19,22.13-10.2,33.18l-.06.15c-3.84,10.59-7.82,21.53-10.18,32.76-2.3,10.89-3.25,22.11-2.83,33.35.48,12.77,2.74,25.39,6.7,37.49.07.21.27.34.53.34.1,0,.22-.02.34-.06.46-.15.54-.47.47-.69-7.08-21.62-8.64-44.85-4.49-67.19,2.28-12.29,6.58-24.21,10.74-35.73v-.02c3.53-9.77,7.18-19.87,9.59-30.18,3-12.83,4.45-26.07,4.3-39.37Z"/>
  <path class="uuid-04b3175e-619a-4ab3-a54b-4f9bcbe9bbd1" d="m335.48,218.43v-.02c-.06-.2-.21-.34-.42-.4-.27-.07-.6.02-.78.21-.15.15-.21.36-.16.55,3.29,12.43.36,25.16-2.56,34.86-1.32,4.4-2.86,8.81-4.35,13.09l-.02.05c-.49,1.42-.99,2.83-1.47,4.25-2.12,6.19-3.94,11.78-5.55,17.09-8.27,27.21-11.88,49.72-11.37,70.85.33,13.86,2.51,26.97,6.46,38.95.08.25.31.4.6.4.09,0,.19-.02.28-.05.37-.12.56-.44.46-.76-6.83-20.71-8.24-44.43-4.21-70.51,1.69-10.9,4.33-22.39,8.07-35.13,2.09-7.13,4.53-14.28,6.89-21.19l.06-.17c1.46-4.28,2.97-8.71,4.41-13.16,3.79-11.76,7.19-25.59,3.67-38.92Z"/>
</svg>