<?xml version="1.0" encoding="UTF-8"?>
<svg id="uuid-9b1fd295-d183-4bb3-9b89-3b9099be7832" data-name="Livello 7" xmlns="http://www.w3.org/2000/svg" viewBox="0 0 400 400">
  <defs>
    <style>
      .uuid-8553f7ca-4d3f-47b0-849e-2ee1bcdc3744 {
        fill: #232a56;
      }
    </style>
  </defs>
  <path class="uuid-8553f7ca-4d3f-47b0-849e-2ee1bcdc3744" d="m203.92,243.43c.15-.05.27-.14.33-.26.12-.23.26-.44.41-.65.36-.38.75-.71,1.16-.97.99-.6,2.11-.85,3.23-.74,1.33.13,2.32.82,3.11,1.47l.28.28c.05.05.12.09.2.11.63.5,1.4,1.02,2.27,1.16.57.19,1.12.25,1.69.2.28-.03.58-.25.55-.53,0-.04-.02-.16-.13-.25-.1-.08-.22-.12-.4-.1-.19.02-.37.01-.55,0-.04-.08-.16-.21-.4-.21-.24,0-.5-.06-.77-.15-.72-.36-1.39-.94-2.03-1.5-.42-.36-.84-.73-1.28-1.03-1.42-1.01-2.97-1.26-4.48-.74-.81.29-1.58.77-2.35,1.47-.3.24-.55.48-.74.7-.42.39-.8.85-1.13,1.35-.44.53-.9,1.17-.78,1.9.03.23.11.43.23.6,0,.02,0,.04,0,.06.03.13.13.23.25.25l.07.03c.23.16.5.24.79.24.07,0,.13,0,.2-.01.07,0,.54-.14.57-.47.01-.13-.06-.31-.28-.38l-.56-.16c-.12-.16-.17-.41-.15-.58.05-.04.1-.09.12-.15.15-.29.33-.59.57-.93Z"/>
  <path class="uuid-8553f7ca-4d3f-47b0-849e-2ee1bcdc3744" d="m218.72,242.19s-.03.02-.04.03c-.29.22-.28.51-.15.69.1.14.3.23.51.23.15,0,.29-.04.4-.12,3.34-2.47,4.96-6.96,4.34-12.02-.34-2.75-1.2-5.28-2.08-7.59l-.04-.16c-.02-.06-.04-.11-.08-.16-.22-.58-.46-1.17-.68-1.74l-.02-.06c-.76-1.93-1.55-3.93-2.12-5.95-.05-.18-.19-.31-.37-.36-.23-.06-.53.02-.69.19-.13.14-.18.32-.13.5.59,2.08,1.38,4.1,2.15,6.06l.07.18c.25.63.5,1.28.73,1.88l1.2,4.56c.02.06.05.12.09.17,1.58,4.74.44,9.91-2.99,13.52-.04.04-.08.1-.09.15Z"/>
  <path class="uuid-8553f7ca-4d3f-47b0-849e-2ee1bcdc3744" d="m178.42,218.51l.05-.05c.23-.23.19-.49.04-.64-.12-.12-.29-.15-.43-.15-.08,0-.35.01-.53.18-3.32,3.22-7.09,6.87-7.93,11.91-.34,2.04-.05,4.15.82,5.92.96,1.95,2.5,3.31,4.45,3.93.05.02.11.03.17.03.18,0,.4-.08.54-.21.2-.18.18-.37.16-.44-.02-.08-.08-.26-.34-.34-3.98-1.27-5.28-5.78-4.48-9.38.99-4.47,4.43-7.81,7.46-10.75Z"/>
  <path class="uuid-8553f7ca-4d3f-47b0-849e-2ee1bcdc3744" d="m184.49,217.12c.06-.13.05-.27-.02-.38-.07-.11-.2-.18-.37-.18h0c-.15,0-.29.09-.36.23-.21.42-.51.8-.81,1.18-.28.36-.56.73-.79,1.14-.31.56-.74,1.64-.19,2.67.07.12.2.2.35.2.07,0,.13-.02.2-.05.2-.11.28-.34.17-.54-.43-.8.09-1.76.33-2.13.17-.27.37-.53.56-.78h0s-.11-.08-.11-.08l.13.05c.3-.39.64-.83.89-1.33Z"/>
  <path class="uuid-8553f7ca-4d3f-47b0-849e-2ee1bcdc3744" d="m219.61,178.09v-.02c-.05-.17-.2-.3-.4-.35-.2-.05-.49-.03-.69.18-4.39,4.62-6.42,11.15-5.41,17.45.03.18.15.33.32.39.07.03.14.04.22.04.17,0,.34-.06.46-.16.16-.13.24-.33.21-.52-.95-5.97.97-12.16,5.14-16.55.18-.19.16-.38.14-.46Z"/>
  <path class="uuid-8553f7ca-4d3f-47b0-849e-2ee1bcdc3744" d="m171.77,278.42h0c.26-.09.41-.22.44-.39l.02-.19-.13-.11c-5.64-4.79-11.87-8.95-18.52-12.37.14,0,.28.02.42.03h.22c5.48.8,10.87,2.51,16.08,4.16.99.32,1.98.63,2.97.94,1.98.64,3.93,1.2,5.78,1.68,2.86.75,5.43,1.26,7.86,1.58,1.9.27,3.79.45,5.61.53,2.29.1,4.58.04,6.79-.18,1.38-.08,2.73-.28,4.01-.58.5-.09.99-.2,1.43-.3.07,0,.14-.02.2-.02h.05c.13-.02.27-.03.42-.06.09-.02.2-.07.29-.14.03,0,.05-.01.06-.02.21-.05.37-.18.41-.36.04-.14,0-.3-.11-.4-.13-.13-.33-.17-.54-.11h-.06s.03.15.03.15l-.05-.07v-.06s-.05,0-.05,0h-.02c-.71.05-1.43.1-2.14.15h-.07c-.7.05-1.4.1-2.07.15-.49,0-.97,0-1.39.03-.06,0-.12-.01-.18-.01h-.04c-.06,0-.12,0-.18-.01-.11-.01-.22.02-.29.04h-.02s-.09.03-.09.03c-.48.05-.98.12-1.54.22-.09.02-.18.05-.26.11-2.72.41-5.52.47-8.56.18-2.38-.28-4.89-.73-7.44-1.33-1.58-.37-3.25-.82-5.27-1.42-.18-.05-.36-.11-.54-.16l-.38-.11c-1.75-.55-3.53-1.14-5.28-1.76-.7-.25-1.4-.51-2.1-.77-2.04-.76-4.15-1.55-6.33-2.05-.97-.22-2.01-.41-3.15-.56,2.95-.16,5.49-.26,7.9-.32,4.29-.1,7.83-.05,11.15.16,3.13.2,6.44.52,9.52,1.46.71.22,1.44.53,2.14.82,1.41.6,2.87,1.21,4.43,1.25.04,0,.07,0,.11,0,2.13,0,4.25-.75,5.88-1.41.02,0,.05,0,.07-.02,3.68-1.15,7.65-.34,11.5.45.74.15,1.47.3,2.19.43l10.69,1.98s-.01,0-.02,0c-.07.02-.14.06-.19.09-.02,0-.04,0-.06,0-.05,0-.1.03-.16.06-3.27.24-6.56.61-9.77,1.1l-.95.12c-.12-.09-.29-.07-.35-.06-.08.01-.17.03-.25.04-.07.01-.15.03-.18.03-.13,0-.29.02-.43.07-1.07.18-1.93.37-2.72.6-.05.02-.09.04-.12.05-.03,0-.05,0-.08.01h-.03c-.21.04-.36.17-.42.34-.05.16-.02.34.1.47.13.15.33.21.54.17,2.39-.46,4.84-.85,7.51-1.2,3.24-.37,6.52-.65,9.75-.83-5.58,4.51-10.71,8.45-16.68,11.15-6.54,2.96-13.81,3.98-21.03,2.97-4.09-.58-8.03-1.82-11.71-3.67-.22-.12-.5-.03-.67.08-.23.15-.24.33-.24.41,0,.07.03.24.24.34,5.43,2.74,11.54,4.18,17.69,4.18,1.17,0,2.36-.05,3.53-.16,6.91-.61,13.62-3.15,20.51-7.77,3.38-2.27,6.66-4.9,9.43-7.16.33-.15.65-.3,1-.46.05-.03.09-.06.12-.08.12-.05.3-.15.35-.35.02-.09.02-.17-.02-.26,0-.08-.04-.16-.09-.22-.05-.07-.13-.12-.21-.15l-.04-.05c-.09-.1-.22-.16-.36-.16h-.06c-2.68-.51-5.37-1.01-8.05-1.5l-6.94-1.29c-.59-.11-1.18-.23-1.8-.35-3.89-.77-7.92-1.58-11.78-.37-.06.02-.12.05-.14.07-1.9.77-3.91,1.47-5.77,1.31-1.31-.12-2.58-.65-3.82-1.18-.74-.31-1.51-.64-2.29-.87-3.09-.92-6.38-1.24-9.19-1.43-6.81-.47-13.73-.2-20.19.16-.67.04-1.33.09-2,.13h-.04c-1,.07-2.04.15-3.04.19-.02,0-.04,0-.08,0h-.06c-.08-.03-.18-.01-.28.03h-.2c-.17.01-.34.02-.52.02-.21,0-.39.13-.48.21-.06.06-.13.14-.14.22-.04.12-.02.25.05.35.07.1.18.15.33.17,7.23,3.54,13.99,7.97,20.08,13.14.13.12.31.14.56.06Z"/>
  <path class="uuid-8553f7ca-4d3f-47b0-849e-2ee1bcdc3744" d="m134.68,306.78c-4.82-6.06-9.24-12.61-13.14-18.4-2.9-4.29-5.73-8.84-8.41-13.53-4.57-7.55-7.91-14.75-10.21-21.99-2.59-8.14-3.9-16.7-3.87-25.44.03-6.77.48-13.66.91-20.33.15-2.26.31-4.81.46-7.29.28-4.85.56-9.7.84-14.55.27-4.6.53-9.21.79-13.81.62-10.72,1.24-21.44,1.85-32.16.01-.14-.05-.28-.17-.37-.25-.17-.68-.07-.89.03-.3.14-.35.36-.36.48l-3.29,57.07c-.14,2.47-.3,4.98-.45,7.42l-.04.69c-.25,3.99-.54,8.51-.74,12.86-7.01-6.65-11.86-15.68-14.04-26.14-2.34-11.26-1.99-23.08-1.43-32.12.11-1.8.26-3.6.44-5.34.17-1.74.4-3.54.68-5.34.26-1.7.58-3.44.97-5.32.14-.67.31-1.44.56-2.21.09-.33.23-.76.38-1.17.18-.46.34-.84.66-1.09.33-.25.75-.4,1.22-.44.14-.01.25-.02.37-.01,1.02.04,2.13.58,2.95,1.43.03.04.06.08.09.1,1.15,1.29,1.83,3.01,2.48,4.66.15.38.3.77.46,1.15.98,2.38,1.96,4.76,2.95,7.15l2.95,7.15c.14.32.54.36.84.23.17-.07.28-.18.34-.31.04-.11.04-.23,0-.33l-9.08-23.68.38-9.81c.3-7.81.63-16.08.95-23.83.07-1.79.14-3.57.21-5.36.05-1.2.1-2.4.14-3.59,3.45,4.97,8.45,8.72,14.11,10.6,2.73.9,5.58,1.37,8.46,1.4.7.87,1.48,1.71,2.31,2.5,1.07,1.02,2.22,1.95,3.43,2.78-6.9,8.28-12.15,18.12-15.18,28.46-.04.14-.01.28.09.39.19.2.52.13.65.1.31-.08.41-.25.44-.37,2.98-10.17,8.12-19.84,14.88-28,2.59,1.65,5.42,2.85,8.42,3.57,5.02,1.22,10.5,1.18,16.26-.1,3.92-.88,7.96-2.34,12.35-4.47.47,1.24,1.05,2.44,1.71,3.56.77,1.61,1.87,3.09,3.36,4.51,2.95,3.16,6.64,5.51,10.67,6.8l.29.1s.08.03.13.04c2.47.79,5.04,1.17,7.59,1.12,3.06-.04,6.05-.66,8.9-1.84.22-.09.34-.22.37-.4.02-.14-.04-.28-.16-.37-.18-.14-.47-.13-.66-.05-4.84,2-10.28,2.25-15.33.68-.03-.02-.06-.04-.09-.06-2.45-1.18-5.27-2.58-7.69-4.26-1.5-1.28-2.81-2.71-3.91-4.26-1.41-2-2.49-4.22-3.19-6.57.47-.25.95-.5,1.41-.76l.04-.02,1.37,1.31c.6.76,1.35,1.44,2.28,2.08,1.68,1.44,3.56,2.57,5.6,3.36.06.02.12.02.18.02,2.53,1.37,5.25,2.27,8.08,2.69.05.02.1.04.16.04,3.17.3,5.83.45,8.34.45,5.87,0,10.88-.78,15.31-2.39,7.32-2.67,12.79-7.53,15.4-13.71,1.2-2.84,1.72-5.99,1.56-9.38v-.36s-.38.01-.38.01c-.18,0-.52.02-.52.38,0,.09,0,.21,0,.36v.16c0,.11,0,.23,0,.33.27,5.67-3.06,12.04-8.49,16.23-4.7,3.63-11.05,5.85-18.36,6.43-3.59.29-7.56.21-12.5-.25-4.84-.62-9.3-2.71-12.92-6.02-3.62-3.31-6.08-7.57-7.13-12.34l-.08-.36-.88.21.08.36s0,.03,0,.07c0,.07,0,.14-.01.21v.06c-.02.15-.04.33,0,.52.6,2.71,1.66,5.3,3.17,7.7-10.57,5.79-19.45,8.12-27.92,7.3-4.34-.42-8.56-1.83-12.21-4.08l-.09-.05c-.06-.03-.12-.07-.18-.12-2.35-1.48-4.43-3.29-6.2-5.37-.1-.11-.2-.24-.32-.4-.66-.81-1.27-1.65-1.81-2.49l-.02-.03s-.02-.03-.04-.05c-.21-.33-.44-.71-.7-1.16-2.92-5.18-4.04-11.16-3.14-16.83.03-.19.02-.38,0-.55,0-.11-.02-.21,0-.31v-.32s-.67-.1-.67-.1l-.05.3c-.97,6.12-.03,12.42,2.64,17.82-5.74-3.57-10.41-8.95-13.2-15.17l-2.38-5.5s-.09-.21-.11-.25l-.19-.43-.63.22.07.27c1.12,4.74,3.31,9.32,6.33,13.25,3,3.91,6.84,7.18,11.1,9.48l.03.02c.34.58.7,1.14,1.08,1.68-9.8-.59-18.81-6.63-23-15.45-1.23-2.59-2.05-5.37-2.42-8.25l-.04-.31-.72.09.04.31c.01.1,0,.21,0,.36-.01.16-.02.33,0,.51.48,3.73,1.7,7.26,3.61,10.51v.84l-.05,1.28c-.46,11.34-.94,23.06-1.4,34.59l-.4,9.88c-.27-.16-.56-.29-.86-.39-.81-.27-1.64-.35-2.4-.21-.88.15-1.69.56-2.18,1.1-.13.15-.24.33-.33.48-.25.45-.39.94-.54,1.41l-.09.29c-.45,1.46-.75,2.96-1.02,4.38-.32,1.65-.62,3.42-.87,5.26-.24,1.72-.44,3.5-.61,5.3-.16,1.68-.29,3.47-.38,5.33-.1,1.79-.16,3.58-.19,5.34-.03,1.72-.04,3.51-.03,5.32,0,.85.02,1.71.04,2.55.25,12.89,2.23,22.67,6.23,30.81,2.59,5.24,6.11,9.92,10.47,13.89.07.06.15.1.24.12-.09,1.92-.15,3.72-.2,5.51-.13,4.89,0,9.13.41,12.97.44,4.16,1.28,8.39,2.56,12.94.94,3.32,2.09,6.62,3.53,10.09-1.19,8.95-2.47,18.1-3.61,26.18l-.09.63c-.72,5.13-1.46,10.42-2.17,15.63-.55,3.95-1.09,7.92-1.6,11.81-.03.18.04.36.19.47.24.18.58.14.81.04.25-.1.4-.28.43-.49,1.2-9.06,2.53-18.54,3.7-26.9l.25-1.75c.64-4.58,1.3-9.29,1.94-13.93.41-3.02.83-6.1,1.24-9.19,1.86,4.17,4.08,8.38,6.58,12.52l.03.07c4.5,7.92,9.73,15.57,14.7,22.67,3.27,4.66,7.68,10.72,12.88,16.29,2.77,2.97,5.88,5.99,9.51,9.25.11.1.26.16.43.16.08,0,.17-.01.26-.04.21-.07.47-.24.53-.52.02-.09.04-.33-.19-.54-6.05-5.43-11.06-10.67-15.31-16.02Z"/>
  <path class="uuid-8553f7ca-4d3f-47b0-849e-2ee1bcdc3744" d="m184.54,188.76c-.08-.06-.19-.08-.32-.06-.11.02-.21.08-.27.17-2.73,4.07-6.08,7.64-9.97,10.61-.12.09-.17.22-.16.37.02.14.11.25.24.31.05.02.11.03.16.03.09,0,.17-.03.26-.08,3.96-3.02,7.38-6.66,10.16-10.8.12-.18.08-.42-.1-.54Z"/>
  <path class="uuid-8553f7ca-4d3f-47b0-849e-2ee1bcdc3744" d="m232.62,207.33c.07.06.16.09.25.09.06,0,.11-.01.17-.03.15-.06.25-.17.26-.31.02-.14-.03-.28-.14-.35-4.56-3.64-8.34-8.32-10.94-13.54-.05-.09-.13-.16-.24-.19-.11-.03-.23-.02-.32.03-.1.05-.17.13-.21.23-.03.1-.03.2.02.29,2.65,5.32,6.5,10.08,11.14,13.79Z"/>
  <path class="uuid-8553f7ca-4d3f-47b0-849e-2ee1bcdc3744" d="m187.62,262.93c1.46.62,3,.93,4.57.93.74,0,1.49-.07,2.23-.21.15-.03.27-.12.31-.26.05-.13.02-.28-.07-.38-.1-.12-.26-.17-.4-.14-2.12.41-4.31.17-6.32-.68-.13-.05-.28-.03-.41.07-.12.09-.17.23-.15.36.02.14.11.25.24.31Z"/>
  <path class="uuid-8553f7ca-4d3f-47b0-849e-2ee1bcdc3744" d="m255.78,131.42l.69.21.09-.29c.69-2.23.19-4.8-1.29-6.72-2.29-2.95-5.95-3.78-9.24-4.21-.35-.04-.7-.09-1.05-.13-3.17-.4-6.16-.78-9.12-1.83-3.46-1.24-6.29-3.03-8.41-5.33-2.86-3.11-4.4-6.96-4.12-10.29.01-.16,0-.32,0-.48,0-.12-.01-.26,0-.4v-.14s-.16,0-.16,0v-.16s-.54-.04-.54-.04l-.03.31c-.5,6,2.29,11.72,7.46,15.29,2.66,1.84,5.91,3.17,9.64,3.94,1.42.29,2.87.46,4.27.61h.05c1.02.12,2.08.24,3.11.41-.1,3.11-.2,7.31,2.19,10.4,1.03,1.33,2.54,2.4,4.5,3.18.81.32,1.69.61,2.76.89l.17.04c.73.19,1.48.39,2.25.45.18.02.38.03.61.03s.45-.01.67-.02h.18c.34-.03.77-.05,1.13-.17l1.09-.37-1.1-.33c-.21-.06-.43-.09-.66-.11h-.04c-.08-.01-.17-.02-.25-.04-2.21-.35-4.07-.83-5.67-1.46-1.89-.75-3.33-1.79-4.28-3.09-1.83-2.5-1.94-5.84-1.86-9.06.56.13,1.04.27,1.49.42,2.85.98,6.58,3.99,5.55,7.33-.06.21-.04.42-.01.59.01.1.03.22.01.28l-.09.3Z"/>
  <path class="uuid-8553f7ca-4d3f-47b0-849e-2ee1bcdc3744" d="m317.25,78.16c-.13-.33-.61-.38-.9-.27-.13.05-.22.14-.27.25-.04.1-.04.22,0,.33,4.01,10.18.91,22.1-7.53,28.98-2.31,1.88-4.91,3.33-7.73,4.31-.22.08-.29.22-.31.32-.03.14.02.29.14.39.14.12.4.18.57.18.08,0,.14,0,.2-.03,5.23-1.82,9.69-5.2,12.9-9.77,3.22-4.59,4.88-9.93,4.78-15.46-.06-3.15-.68-6.26-1.84-9.22h0Z"/>
  <path class="uuid-8553f7ca-4d3f-47b0-849e-2ee1bcdc3744" d="m283.28,129.39c1.08.11,2.17.17,3.26.17,2.72,0,5.46-.36,8.13-1.06,3.75-.99,7.23-2.62,10.34-4.85.14-.1.21-.21.24-.34.02-.11,0-.22-.07-.31-.19-.27-.65-.27-.9-.09-6.03,4.3-13.39,6.24-20.74,5.47-.31-.02-.7.2-.73.52-.02.21.11.45.47.49Z"/>
  <path class="uuid-8553f7ca-4d3f-47b0-849e-2ee1bcdc3744" d="m239.76,268.55c.06.1.17.17.3.2h.09c.21,0,.38-.13.43-.33,1.04-4.33.77-8.83-.78-13-.06-.15-.19-.26-.35-.29-.16-.03-.32.03-.43.16-.1.12-.12.28-.07.43,1.49,4.01,1.75,8.33.75,12.49-.03.12,0,.24.06.34Z"/>
  <path class="uuid-8553f7ca-4d3f-47b0-849e-2ee1bcdc3744" d="m233.88,245.86l.02.04c.09.13.22.2.37.2h.06c.15-.03.28-.12.34-.25.07-.14.06-.31-.03-.44l-3.72-5.49c-.09-.14-.24-.22-.4-.2-.16,0-.31.11-.38.25-.07.14-.06.31.03.44l3.69,5.46Z"/>
  <path class="uuid-8553f7ca-4d3f-47b0-849e-2ee1bcdc3744" d="m141.6,174.46l.11-.08c.17-.12.34-.24.52-.36.68,1.04,1.46,2.04,2.32,2.96-.04.03-.07.05-.1.08-.1.11-.14.21-.14.28,0,.01-.02.02-.03.04-.03.06-.05.12-.06.18-.09.02-.16.08-.21.15-.05.07-.06.16-.05.25.02.09.07.16.15.21.06.04.16.07.29.04.03,0,.07-.02.11-.03.2.12.44.04.54.01l.16-.04s.09-.02.15-.02v.07s0,0,0,0c-.04.09-.04.18-.01.27.05.14.16.24.31.27,0,0,0,0,0,0,.07.18.24.28.46.28,0,0,0,0,.01,0-.03.13,0,.27.08.37.18.25.5.24.72.14l.24-.11c.43.35.83.64,1.21.9v.03s.11.16.11.16l.11.05c.06.02.12.03.16.02.39.26.79.51,1.23.76-.1.07-.19.16-.29.25-.05.06-.09.13-.1.2-.35.28-.66.58-.95.9l-.18.26.21.19c.15.14.39.12.54-.03.24-.27.49-.52.77-.75.14.02.28,0,.39-.05,0,.05,0,.11.01.17.05.16.19.25.3.29.12.04.26.04.37,0,.15-.04.27-.11.35-.22.05-.07.1-.13.14-.18l.07-.07s.03-.02.08-.06c.3.14.6.28.91.41l-.22.14c-.11.07-.2.18-.23.31,0,0,0,0,0,.02-.05.04-.1.08-.13.12-.09.09-.13.21-.09.35l.08.18.17.04c.13.03.27,0,.36-.1.03-.03.07-.06.1-.09.05.01.11,0,.17-.02.03.02.06.04.09.06.3.15.59-.02.64-.05l.63-.36.08.03c.09.03.19.07.28.1-.18.13-.34.26-.46.39-.15.11-.29.22-.41.33-.13.11-.19.27-.18.42l-.03.04s-.03.07-.04.14c-.18.21-.4.49-.6.78l-.12.16.17.34h.21c.15.01.27-.04.33-.14.2-.3.42-.57.58-.75.31-.04.45-.19.51-.3.01-.02.03-.04.06-.08l.02-.03c.1-.09.21-.17.33-.25.04.1.12.19.26.25.1.02.19.03.29.01.02,0,.03,0,.05,0,.03.01.06.02.1.03.15.02.29,0,.44-.07l-.48.56.21.21c.06.06.16.1.25.1h0c.11,0,.21-.04.29-.12l.71-.82c.16.12.46.12.63.04.03,0,.09-.04.15-.08.03.01.05.02.07.02.06.02.12.02.19.02.11,0,.22-.03.33-.07l.07-.03c.08-.04.14-.09.21-.17l.02-.02,2.41.8-1.25-.75c.84.11,1.68.17,2.5.19,1.79.03,3.58-.1,5.31-.22h.2c.99-.08,1.96-.15,2.9-.2,3.26-.15,6.68-.07,9.58,1.52.3.15.73-.03.86-.28.05-.1.06-.22.03-.32.42-1.13.22-2.38-.59-3.79-.03-.07-.06-.13-.1-.2.03-.25,0-.46-.1-.64-1.57-2.67-3.58-5.04-6-7.05.04-.01.08-.03.12-.05.06-.03.19-.09.23-.22l.06-.15-.05-.13c-.04-.09-.12-.16-.26-.2l-.06-.14-.11-.06c-.2-.11-.47-.01-.47-.01h-.06s-.04.02-.07.03c-.02-.04-.07-.13-.18-.19,0-.07,0-.14-.02-.21-.05-.14-.17-.25-.33-.29,0,0,0,0,0,0-.03-.16-.15-.26-.36-.3-.07,0-.14,0-.21,0-.01-.06-.04-.12-.08-.18-.12-.15-.31-.17-.36-.17h0c-.09,0-.18,0-.27.03,0-.1-.02-.2-.1-.28-.19-.21-.5-.18-.71-.09-.05.03-.1.05-.15.08.06-.16,0-.3-.06-.37-.08-.1-.2-.15-.36-.16,0-.11-.02-.22-.09-.3-.01-.02-.03-.03-.05-.05.08-.15.06-.32-.06-.44-.12-.12-.28-.12-.34-.12-.04,0-.07,0-.11.01-.04-.02-.09-.03-.15-.04-.04,0-.07,0-.1,0-.12-.08-.28-.09-.46-.04-.15-.09-.34-.1-.53-.03-.06-.02-.13-.03-.2-.03h0l-.24.02c.01-.07.01-.14-.02-.19-.09-.3-.41-.38-.67-.31l-.08.02s-.04-.08-.07-.12c-.16-.2-.45-.25-.74-.12h-.03s-.73-.03-.73-.03c-.01,0-.02,0-.04,0-.33-.12-.64-.22-.93-.3l-.31-.13s-.03-.08-.05-.1c-.05-.09-.1-.17-.16-.26l-.12-.2c-.07-.11-.2-.19-.33-.2-.01-.1-.06-.23-.23-.32-.14-.06-.29-.04-.37-.03-.07.02-.16.04-.26.09-.06-.02-.11-.03-.16-.04-.12-.02-.26.01-.38.07-.08.04-.14.09-.19.15-.04-.01-.08-.02-.12-.02-.1-.02-.21,0-.39.07-.04.02-.08.05-.09.06-.04.02-.09.04-.14.08-2.87-.5-5.77-.53-8.57-.09-.03,0-.06,0-.09-.01,0-.01-.01-.03-.02-.04-.04-.07-.18-.27-.52-.2-3.61.64-7.06,2.12-9.96,4.27-.38.24-.75.49-1.14.77-.16.12-.2.32-.2.48-.08.03-.17.07-.28.12-.09.05-.29.14-.32.38v.2s.13.1.13.1c.11.09.23.09.32.09h.03c.04.09.12.17.27.2.02.17.01.23.02.23l-.02.07.33.45Zm12.7-2.83c.1-.18.21-.35.33-.53.08.03.16.06.24.09-.01.02-.03.05-.04.07-.13.16-.23.33-.31.52-.08-.05-.15-.1-.22-.14Zm-2.02,2.69l-.02.19c-.05.53-.06,1.04,0,1.53.38,3.69,3.65,6.78,7.41,7.04l.1.03c3.43.44,7.01-1.43,8.53-4.43,1.03-2.03,1.09-4.53.18-6.74,1.91.92,3.71,2.06,5.34,3.39,2.27,1.86,4.21,4.07,5.75,6.55.26.67.55,1.54.51,2.47-2-.88-4.31-1.3-7.24-1.3-1.66,0-3.35.13-5,.25h-.07c-.86.07-1.75.14-2.61.18-2.67.14-4.88,0-6.95-.44-.08-.09-.19-.15-.35-.18-1.02-.2-2.04-.48-3.02-.83-1.83-.72-3.58-1.68-5.18-2.85-2.31-1.69-4.26-3.78-5.77-6.22,3.29-1.91,7.03-3.11,10.86-3.48-1.35,1.31-2.22,3.01-2.46,4.82Zm.3,9.26l-.03-.04s0,0,0,0l.03.02v.02Zm2.44.65h0s0,0,0,0h0s0,0,0,0Z"/>
  <path class="uuid-8553f7ca-4d3f-47b0-849e-2ee1bcdc3744" d="m183.68,178.89v.02c.09.09.2.14.32.14h.06c.12-.03.28-.1.34-.27.04-.13.02-.27-.06-.36-3.21-3.95-7.02-7.31-11.34-10-.09-.06-.21-.07-.31-.05-.13.03-.23.1-.3.23l-.13.3.27.17c4.24,2.64,8,5.94,11.15,9.83Z"/>
  <path class="uuid-8553f7ca-4d3f-47b0-849e-2ee1bcdc3744" d="m164.72,189.23c3.41,0,6.79-.25,9.65-.49.11-.01.21-.06.29-.15.07-.08.1-.19.09-.3-.02-.21-.19-.35-.43-.35h0c-10.66.9-21.79,1.23-30.3-5.34-.12-.09-.27-.11-.4-.05-.14.05-.25.18-.26.32-.02.14.04.28.15.36,5.29,4.09,12.03,5.99,21.22,5.99Z"/>
  <path class="uuid-8553f7ca-4d3f-47b0-849e-2ee1bcdc3744" d="m237.8,175.88h0c.05-.09.07-.19.04-.28-.04-.15-.15-.25-.3-.28-.06,0-.13,0-.18,0-6.16,1.52-11.82,4.26-16.84,8.12-.11.08-.17.21-.15.35l.09.24.16.06.13.02s.18,0,.29-.09c4.93-3.79,10.48-6.47,16.51-7.97.14-.03.22-.12.26-.18Z"/>
  <path class="uuid-8553f7ca-4d3f-47b0-849e-2ee1bcdc3744" d="m254.7,194.1v-.07s0-.17,0-.17l-.11-.1c-.17-.16-.39-.08-.42-.07-3.73,1.23-7.74,1.51-11.61.81h-.09c-.11-.01-.26.04-.39.18l-.11.14.08.18.12.21.15.03c1.43.26,2.9.39,4.37.39,2.64,0,5.24-.42,7.74-1.24.15-.05.24-.16.27-.29Z"/>
  <path class="uuid-8553f7ca-4d3f-47b0-849e-2ee1bcdc3744" d="m191.61,157.4c-2.34,1-4.13,3.07-4.79,5.53-.05.17,0,.35.11.47.14.14.39.19.61.13.24-.06.42-.23.48-.44.03-.12.07-.24.12-.38.09-.02.17-.05.24-.09l-1.01,1.49c-.11.16-.11.31-.09.4.02.12.1.24.21.31.1.07.23.1.36.1.23,0,.43-.1.54-.26l2.15-3.17c.15-.22.12-.45,0-.6.03-.02.06-.04.08-.06.15-.11.29-.21.45-.29.16-.09.27-.26.27-.44,0-.16-.08-.31-.22-.4-.32-.2-.69,0-.73.03-.29.17-.58.35-.87.54.71-.83,1.61-1.49,2.58-1.9.28-.12.34-.32.36-.43.02-.18-.06-.35-.21-.47-.19-.14-.44-.16-.66-.07Z"/>
  <path class="uuid-8553f7ca-4d3f-47b0-849e-2ee1bcdc3744" d="m188.42,164.93h0c-.06.12-.08.24-.04.35.03.11.11.2.21.25.1.06.22.07.3.07.23,0,.52-.1.65-.34.91-1.65,2.52-2.8,4.31-3.09.35-.05.58-.25.59-.52,0-.14-.05-.27-.15-.36-.19-.17-.44-.13-.49-.13-2.29.37-4.31,1.77-5.39,3.75Z"/>
  <path class="uuid-8553f7ca-4d3f-47b0-849e-2ee1bcdc3744" d="m224.88,165.3h0c-.25,0-.5.14-.6.34-.09.16-.08.35.01.51.41.67.67,1.44.76,2.24-.8-2.09-2.22-3.9-4.08-5.16l-.08.11.07-.11c-.14-.09-.34-.1-.56-.03-.18.06-.35.16-.42.27-.06.09-.08.19-.07.3.02.1.08.19.16.24,1.81,1.23,3.18,3.03,3.89,5.11l-3.53-2.48c-.18-.12-.42-.13-.66-.03-.22.1-.35.27-.37.46-.02.17.07.34.22.45l3.78,2.66c.09.06.21.1.33.1.11,0,.22-.03.32-.07.12-.06.22-.14.28-.24.01,0,.03.02.05.02l.2.29-.07-.25c.1.02.23,0,.36-.03.09-.02.18-.06.25-.1.03.05.07.09.12.13l.04.14v-.11c.08.04.16.07.26.08h.06c.31,0,.65-.18.68-.53.13-1.4-.2-2.83-.94-4.04-.1-.16-.27-.25-.49-.25Z"/>
  <path class="uuid-8553f7ca-4d3f-47b0-849e-2ee1bcdc3744" d="m131.54,156.33h0c-1.82-.28-3.68-.33-5.53-.12-.24.03-.46.18-.55.38-.06.14-.05.3.04.42.11.14.28.2.51.18,1.7-.19,3.42-.15,5.11.12.03,0,.07,0,.11,0,.22,0,.42-.08.55-.21.14-.14.18-.32.12-.48-.03-.07-.11-.25-.37-.29Z"/>
  <path class="uuid-8553f7ca-4d3f-47b0-849e-2ee1bcdc3744" d="m134.35,156.56c.18,0,.67-.13.76-.45.04-.18-.04-.41-.29-.48-2.75-.75-5.6-.94-8.46-.56-.13.02-.26.07-.36.15-.16.12-.24.28-.22.44,0,.07.09.41.59.35,2.63-.36,5.26-.18,7.84.53.04.01.08.02.13.02Z"/>
  <path class="uuid-8553f7ca-4d3f-47b0-849e-2ee1bcdc3744" d="m261.37,162.62h0c.19.26.71.15.89.02.16-.13.32-.26.48-.39.18-.14.2-.31.15-.44-.06-.17-.23-.27-.45-.27-2.58.1-5.19.4-7.78.88-.5-.04-1.01-.07-1.53-.07h0c.12-.08.2-.19.19-.34-.01-.14-.12-.29-.38-.3-.07,0-.14,0-.22,0,.58-.05,1.16-.08,1.72-.1.22,0,.49-.17.58-.36.07-.12.06-.26,0-.38-.09-.14-.23-.2-.41-.18-1.01.03-2.05.1-3.08.23-.09-.04-.19-.06-.29-.05-.24,0-.48.02-.72.04,0-.07-.02-.14-.05-.21-.08-.16-.25-.26-.47-.27-.36-.01-.75,0-1.18.03h-.14s0-.01-.01-.02c-.07-.09-.21-.21-.48-.18l-.69.09c-.09-.14-.25-.22-.45-.22-1,.01-2.02.12-3.01.31-.07-.03-.15-.05-.24-.04h0s-.06,0-.06,0c-.01,0-.02,0-.03,0l-.11.02c-.63.1-1.25.23-1.9.42-.11-.1-.29-.16-.52-.1-.53.14-1.1.33-1.74.57-.12-.06-.27-.07-.41-.02-.93.29-1.85.67-2.76,1.14-.1-.02-.2,0-.27.02-.36.1-.71.23-1.06.37.92-.52,1.89-.91,2.9-1.17.23-.06.38-.18.42-.34.04-.13,0-.26-.09-.35-.12-.12-.31-.16-.54-.1-1.29.34-2.53.88-3.71,1.58-.06-.02-.14-.03-.22-.02.03-.06.06-.11.09-.17.43-.26.86-.48,1.27-.65.26-.1.32-.28.34-.38.02-.16-.05-.31-.18-.42-.17-.13-.41-.16-.6-.07-.41.17-.84.38-1.3.64-.02-.03-.05-.06-.09-.08-.21-.14-.59-.07-.74,0-.8.41-1.55.91-2.23,1.5.5-.59,1.09-1.07,1.74-1.41.07-.03.22-.11.27-.28.03-.09.02-.2-.02-.29s-.13-.16-.24-.19c-.23-.07-.54.02-.63.07-1.79.92-3.12,2.61-3.62,4.54-.24-1.51-.7-2.98-1.35-4.36-.05-.11-.14-.19-.26-.23-.17-.06-.4-.04-.61.06-.16.07-.26.17-.31.3-.04.1-.03.21.01.31l.04.08c.97,2.09,1.47,4.42,1.45,6.73,0,.02-.02.05-.03.09-.02.05-.03.09-.04.14-.04.15.01.31.14.42.08.06.19.09.32.09.16,0,.36-.05.44-.1.05-.02.09-.04.13-.06,0,0,0,0,0,0-.04.15,0,.29.09.4,0,0,0,0,0,0-.17.33-.33.64-.46.94l-.08.18.11.15s.05.05.08.07c-.14.41-.19.83-.14,1.29.01.16.11.28.25.34.06.03.13.04.21.04.17,0,.35-.06.45-.14.21-.17.43-.35.64-.52,0,0,.01,0,.02.01.25.15.71.08.89-.21.02-.03.04-.06.06-.1.13,0,.26-.03.35-.08,1.08-.6,2.23-1.1,3.4-1.49l.92-.27c.02.05.05.1.1.14.13.12.33.16.53.1.37-.1.74-.2,1.12-.29.12.07.26.08.42.04h.04c-.02.08,0,.17.04.24.05.09.14.15.26.18.19.05.44,0,.56-.07.4-.24.8-.46,1.21-.68.22-.01.45-.03.66-.05h.02c-.01.06-.02.11,0,.17.03.21.21.42.56.38,1.49-.19,2.99-.52,4.46-.99l.09-.02c.12.09.28.13.41.1.8-.13,1.57-.28,2.17-.4.1.11.28.18.55.1.12-.04.23-.07.35-.11-.01.04-.02.08-.02.12,0,.13.04.24.13.33.08.08.18.11.28.12.03.19.19.38.49.38.02,0,.03,0,.05,0,.39-.03.82-.07,1.31-.13.26.15.71-.03.73-.04.03-.02.07-.04.1-.05l.08-.04c.99-.17,1.86-.37,2.67-.61.03,0,.06-.02.08-.03,0,0,0,0,0,0,.09.14.23.2.47.2.57-.03,1.19-.09,1.86-.17.04,0,.07,0,.11,0,.1,0,.19-.01.29-.02.08.04.19.06.33.03.05,0,.12.01.16,0,.07,0,.15-.01.22-.02.08.07.19.1.31.1.41,0,.82-.02,1.23-.05-.12.08-.17.17-.19.26l-.02.2.12.12c.08.08.24.16.53.08,1.58-.42,3.21-.74,4.83-.95h.05c3.07-.41,6.18-.42,9.27-.05-2.18.01-4.35.16-6.46.45-.28.04-.57.29-.52.56.02.14.14.37.54.32,4.2-.57,8.43-.59,12.58-.06.23.02.54-.13.66-.29.08-.11.1-.25.05-.37-.04-.09-.13-.2-.34-.23-.12-.01-.24-.03-.36-.04h-.07s-.02-.08-.02-.08l-.18-.05c-2.1-.56-4.25-.94-6.42-1.14,1.91.03,3.83.21,5.73.54.22.04.47-.09.62-.23.18-.07.3-.18.34-.31.04-.12.03-.25-.05-.35-.06-.09-.13-.18-.19-.27l-.09-.12-.02-.16-.08-.09c-.06-.06-.12-.13-.19-.19l-.15-.15c-.34-.44-.67-.83-.99-1.17-.04-.05-.15-.15-.35-.15-.38-.35-.76-.67-1.07-.93-.02-.1-.08-.18-.17-.26-1.05-.81-2.19-1.47-3.39-1.97-.23-.1-.47,0-.61.1-.16.12-.24.28-.22.45.01.09.06.26.29.36.26.11.52.23.81.37-.17.12-.18.27-.18.35,0,.05.03.21.21.29.51.25,1.02.53,1.53.83-.26,0-.52-.01-.8-.02l-.04-.13-.22-.03c-.65-.08-1.32-.15-2-.2-.02-.06-.05-.12-.1-.18-1.51-1.56-3.24-2.91-5.13-4-.23-.13-.5-.04-.63,0-.31.11-.39.29-.4.43,0,.15.07.29.2.36,1.59.92,3.07,2.02,4.4,3.3-.5-.01-1-.02-1.5-.01-1.11-.97-2.34-1.78-3.65-2.4-.25-.13-.59.03-.69.1-.2.13-.21.28-.21.37,0,.13.09.24.22.3.9.42,1.78.96,2.62,1.6-.93-.02-1.92,0-3.11.04l-.08-.02c-.99-.36-2.02-.57-3.07-.62-.36-.05-.72-.1-1.08-.15-.05-.02-.11-.04-.19-.05h-.15s-.1-.02-.15-.02c.78-.08,1.56-.14,2.33-.19,0,.05.03.11.06.15Zm5.65,3.35c.73-.07,1.46-.12,2.2-.15-.73.04-1.45.09-2.16.15-.01,0-.02,0-.03,0Zm-9.29-.46h0s0,0,0,0c0,0,0,0,0,0Zm-23.16,1.68s0,0,0,0h0s0,0,0,0Zm-2.52-.64s0,0,0,0c0,0,0,0,0,0h0Z"/>
  <path class="uuid-8553f7ca-4d3f-47b0-849e-2ee1bcdc3744" d="m139.52,21.42c2.53,1.09,5.37,1.67,8.2,1.67,1.85,0,3.69-.24,5.47-.71.37-.1.58-.22.67-.38.06-.1.08-.23.05-.34-.13-.48-.77-.32-.98-.26-3.97,1.05-8.29.7-12.18-.98-.23-.1-.54-.08-.93.07-.37.16-.55.33-.56.54,0,.11.04.25.17.34l.08.05Z"/>
  <path class="uuid-8553f7ca-4d3f-47b0-849e-2ee1bcdc3744" d="m127.01,30.85c2.81.62,5.72.93,8.64.93,3.61,0,7.21-.48,10.68-1.42.35-.09.58-.29.65-.53.04-.18,0-.36-.13-.48-.18-.18-.47-.23-.82-.13-5.9,1.6-12.21,1.74-18.24.42-.32-.07-.88.16-1.1.39-.17.19-.15.38-.12.47.04.12.15.28.44.34Z"/>
  <path class="uuid-8553f7ca-4d3f-47b0-849e-2ee1bcdc3744" d="m311.69,130.77c-.32-.03-.73.1-.93.39-1.57,2.18-3.67,3.89-6.06,4.96-.19.1-.42.24-.47.48-.03.13,0,.27.09.38.31.4,1.03.09,1.04.09.32-.15.65-.31.98-.49-.83,9.2-2.66,18.33-5.44,27.16l-.58,1.35c-1.2,1.08-2.2,2.42-2.9,3.88l-.1.11.03.09c-.68,4.41-1.51,8.84-2.51,13.5.92-10.16.77-20.39-.45-30.44-.42-3.42-.97-6.9-1.65-10.35,1.4-.04,3.4-.26,5.2-1.11.95-.45,1.67-1.08,2.07-1.82l.4-.73-.78.29c-3.46,1.28-6.38,2.21-9.92,1.57-3.08-.55-6.25-2-9.14-4.19-3.16-2.38-5.87-5.38-8.49-8.3l-.03-.03c-1.1-1.22-2.25-2.49-3.41-3.7-5.05-5.23-9.62-8.07-14.37-8.94-.85-.16-1.75-.25-2.54-.34-2.01-.22-4.08-.45-5.77-1.49-1.99-1.24-3.23-3.63-3.1-5.96.13-2.33,1.64-4.57,3.75-5.56l.56-.26-.54-.29c-1.03-.55-2.24.08-3.03.86-2.13,2.1-2.94,5.3-2.02,7.95.59,2.54,2.52,4.21,4.04,5.17.94.59,1.94,1.1,2.91,1.59,1.24.63,2.53,1.28,3.67,2.11,1.83,1.34,3.4,3.13,4.53,5.18,1.17,2.12,1.88,4.36,2.04,6.47v.13s.63-.04.63-.04v-.13c-.2-3.43-1.25-6.52-3.12-9.18-1.41-1.99-3.2-3.62-5.33-4.84-.17-.1-.35-.2-.53-.29.45-.03.91-.02,1.43.03.6.07,1.21.16,1.87.28,1.01.19,2.09.43,3.13.84.9.35,1.83.82,2.85,1.43,1.65.98,3.29,2.22,5.02,3.77,1.37,1.23,2.79,2.66,4.48,4.51.48.53.97,1.07,1.48,1.64,4.58,5.1,9.32,10.37,16.16,12.53,1.06.34,2.73.76,4.72.84,2.24,11.29,3.11,22.83,2.6,34.28l-.44,1.73-.26,2.6-2.14,10.14h-.05s-3.12,14.82-3.12,14.82l-.07.31h.05s-.09.46-.09.46c-.05.25-.1.5-.15.74-.09.43-.18.86-.27,1.3l-.38,1.89c0,.14-.05.32-.1.5v.03c-.03.08-.05.16-.07.24-.03.15-.06.31-.09.46-.03.14-.06.27-.08.4l-.18.88-.09-.02-.33,1.57h.02c-.35,1.14-.7,2.27-1.07,3.4-1.61,5.08-3.28,10.14-4.85,14.85-.04.06-.06.12-.08.19-2.61,14.6-8.97,29.59-18.91,44.54-4.29,6.44-9.19,12.88-15,19.68-6,7.02-11.58,12.98-17.08,18.23-7.11,6.79-14.54,12.63-22.08,17.35-.25.16-.29.35-.28.45,0,.03,0,.07.02.12-.33.03-.71.15-.81.21-5.36,2.99-11.99,3.21-18.37,3-6.14-.2-12.24-1.21-18.12-2.99-3.27-.99-6.54-2.25-9.7-3.75-.47-.22-1.24.3-1.33.36-.1.07-.29.2-.28.44l.08.25.13.06c9.6,4.54,20.07,6.94,30.3,6.94,2.86,0,5.7-.19,8.45-.57,3.88-.53,7.11-1.54,9.85-3.07.19-.11.39-.24.4-.48,0-.02,0-.03-.01-.04.15,0,.32-.02.45-.11,12.44-7.76,24.01-18.12,37.52-33.59,4.21-4.82,7.94-9.41,11.37-14.02-.99,21.13-4.39,39.06-10.4,54.82-6.31,16.56-15.91,31.01-27.75,41.78-7.07,6.43-14.88,11.51-23.23,15.07-.31.13-.38.33-.39.43-.02.16.05.32.19.43.12.09.27.14.43.14.1,0,.21-.02.3-.06,14.45-6.18,27.48-16.96,37.68-31.18,9.98-13.89,17.01-30.95,20.91-50.69,2-10.06,3.19-20.75,3.66-32.66,6.16-8.48,11.03-16.61,14.87-24.86,3.61-7.74,6.27-15.65,7.92-23.51,4.88-2.39,7.72-7.15,10.08-11.93,2.8-5.71,5.34-11.77,7.55-18.01,4.38-12.34,7.36-25.19,8.85-38.19,0-.05.01-.11.02-.16l.03-.21c.15-1.18.36-2.79-.84-3.68-.97-.72-2.29-.45-3.23-.1-.46.17-.92.39-1.37.65,2.84-9.04,4.69-18.44,5.51-27.95,1.75-1.14,3.26-2.57,4.46-4.24.11-.15.13-.32.06-.47-.11-.21-.37-.29-.56-.29Zm-15.53,51.88c.96-4.46,1.79-8.98,2.49-13.44.99-2.07,3.09-4.71,5.76-5.37.62-.15,1.11-.09,1.44.21h0c.45.39.66,1.17.57,2.15-.11,1.26-.28,2.54-.45,3.79l-.08.54c-.77,5.76-1.86,11.59-3.24,17.34-2.77,11.51-6.73,22.73-11.76,33.37-2.1,4.44-4.7,9.95-9.52,12.8.08-.41.17-.86.25-1.3l.02-.11c5.82-17.5,10.93-33.34,14.5-49.97Z"/>
  <path class="uuid-8553f7ca-4d3f-47b0-849e-2ee1bcdc3744" d="m220.36,111c-.25-.17-1.21-.1-1.49.3l-.02.04c-2.98,4.46-8.03,7.31-13.21,7.43-.48.01-.8.11-.98.32-.09.1-.27.31-.15.57.08.17.24.25.49.25,6.21-.15,12.13-3.36,15.46-8.38.12-.18.07-.41-.11-.53Z"/>
  <path class="uuid-8553f7ca-4d3f-47b0-849e-2ee1bcdc3744" d="m223.55,115.77c-.29,0-.55.09-.7.23-3.81,3.33-8.7,5.35-13.76,5.7-.4.03-.69.27-.8.5-.1.19-.09.4.03.56.08.12.25.27.6.27.04,0,.07,0,.1,0,5.55-.38,10.93-2.62,15.13-6.29.15-.13.23-.27.24-.42,0-.12-.03-.24-.12-.34-.2-.22-.56-.23-.71-.22Z"/>
  <path class="uuid-8553f7ca-4d3f-47b0-849e-2ee1bcdc3744" d="m243.28,115.28c-6.38-.6-11.08-5.7-14.37-15.6-.03-.1-.15-.34-.53-.37-.17-.02-.37,0-.57.08-.47.16-.7.47-.59.79,1.48,4.44,3.22,7.88,5.33,10.52,2.78,3.48,6.17,5.43,10.09,5.79.3,0,.87-.25,1.05-.5.09-.14.11-.29.05-.44-.08-.16-.23-.25-.46-.27Z"/>
  <path class="uuid-8553f7ca-4d3f-47b0-849e-2ee1bcdc3744" d="m150.7,106c3.64,0,7.17-.7,10.49-2.08.13-.05.39-.16.42-.42.02-.14-.04-.28-.15-.36-.26-.2-.94-.08-1.12,0-8.56,3.57-19.06,1.67-26.13-4.72-.37-.34-1.22.02-1.45.28-.11.12-.12.24-.12.32,0,.11.05.21.13.28,3.71,3.35,8.39,5.56,13.54,6.37,1.45.23,2.93.35,4.39.35Z"/>
  <path class="uuid-8553f7ca-4d3f-47b0-849e-2ee1bcdc3744" d="m99.88,59.98l1.81.33-1.55-.99c-2.87-1.85-6.82-1.84-9.6,0l-1.55,1.02,1.82-.37c2.88-.59,5.85-.59,9.07,0Z"/>
  <path class="uuid-8553f7ca-4d3f-47b0-849e-2ee1bcdc3744" d="m101.48,57.48l1.58.72-1.16-1.29c-2.05-2.3-5.8-3.01-8.92-1.69l-1.57.66,1.7.03c2.67.04,5.53.26,8.37,1.56Z"/>
  <path class="uuid-8553f7ca-4d3f-47b0-849e-2ee1bcdc3744" d="m100.05,66.72c.46.34.92.7,1.34,1.06l1.31,1.13-.75-1.56c-.82-1.7-2.43-2.87-3.88-3.83-1.77-1.1-3.32-1.8-4.87-2.21l-1.77-.47,1.45,1.11c1.11.85,2.26,1.58,3.25,2.21.02.01.04.03.03.07-.01.04-.04.05-.07.05-2.18.05-4.56.89-6.54,2.31l-.24.17.36.54.28-.1h0c.72-.28,2.62-.94,4.83-1.19h.06c2.13-.24,3.86-.01,5.13.67l.06.04Z"/>
  <path class="uuid-8553f7ca-4d3f-47b0-849e-2ee1bcdc3744" d="m93.77,72.7c-1.48.33-2.74,1.27-3.36,2.53l-.59,1.22,1.12-.76c2.11-1.43,4.14-1.91,6.38-1.54l1.36.22-1.07-.86c-1.02-.83-2.42-1.13-3.83-.81Z"/>
  <path class="uuid-8553f7ca-4d3f-47b0-849e-2ee1bcdc3744" d="m108.72,36.44h.04c1.89-.3,3.84-.6,5.76-.8.29-.02.59-.05.95-.08,2.42-.21,4.93-.42,7.13.62l1.41.67-.98-1.22c-.07-.08-.16-.18-.27-.27-.25-.21-.53-.41-.89-.62l-1.12-.61c-.38-.19-.8-.33-1.18-.45l-.1-.03c-.09-.03-.17-.06-.26-.09-.57-.19-1.04-.37-1.46-.57-1.1-.5-2.14-1.13-3.1-1.85-.27-.2-.53-.42-.78-.63l-1.59-1.46-.05.05c-1.25-1.12-2.41-2.26-3.47-3.32l-.06-.06v-.63l-.67.68h-.04s.03.27.03.27l.04.04c1.85,3.34,4.75,6.1,8.2,7.83-3.6.12-7.62,1.21-10.27,2.23l-3.01,1.17,3.2-.47c.86-.12,1.73-.26,2.57-.39Z"/>
  <path class="uuid-8553f7ca-4d3f-47b0-849e-2ee1bcdc3744" d="m107.4,40.76c-.47,0-.93.05-1.38.14l-1.84.38,1.86.33c3.11.55,5.77,1.97,8.13,4.33l1.33,1.33-.74-1.72c-1.18-2.77-4.27-4.78-7.35-4.78Z"/>
  <path class="uuid-8553f7ca-4d3f-47b0-849e-2ee1bcdc3744" d="m144.59,28.33l3.25.28-3.11-.99c-4.2-1.34-8-3.93-11.67-6.45l-.14-.1c-.8-.55-1.63-1.12-2.45-1.65l-2.71-1.79,2.25,2.35c3.39,3.52,8.67,7.83,14.58,8.35Z"/>
  <path class="uuid-8553f7ca-4d3f-47b0-849e-2ee1bcdc3744" d="m157.79,17.11c-2.33-.09-4.68-.03-6.99.17-.18.02-1.05.27-1.01.75.02.19.13.41.64.37,5.66-.5,11.35-.1,16.9,1.2.04.01.09.02.14.02.32,0,.88-.22,1.07-.42.11-.12.15-.26.11-.41-.03-.08-.1-.23-.32-.28-2.41-.56-4.92-.97-7.48-1.2l-.05-.02c-4.56-1.94-8.11-5.53-11.54-9.01l-.18-.18c-.54-.54-1.09-1.1-1.63-1.64l-2.36-2.34,1.8,2.79c1.89,2.92,5.75,8.01,10.9,10.2Z"/>
  <path class="uuid-8553f7ca-4d3f-47b0-849e-2ee1bcdc3744" d="m169.53,14.03c1.6.81,3.25,1.51,4.85,2.19l.05.02c2.53,1.07,5.15,2.18,7.47,3.68.56.42,1.02.83,1.42,1.25l.2.21.53-.43-.16-.24c-.67-.97-1.61-1.83-3.04-2.77-2.38-1.47-4.93-2.65-7.4-3.8-.95-.44-2.12-.99-3.23-1.53-4.27-2.08-8.48-4.94-12.88-8.74l-.22-.19-.48.49.2.22c3.58,3.97,7.97,7.3,12.69,9.64Z"/>
  <path class="uuid-8553f7ca-4d3f-47b0-849e-2ee1bcdc3744" d="m171.19,11.56c2.3,1.15,4.72,2.04,7.08,2.91,2.61.96,5.31,1.96,7.8,3.29,1.33.71,2.35,1.42,3.2,2.23l.21.2.51-.47-.19-.23c-1.8-2.2-4.44-3.57-6.77-4.68-1.82-.88-3.7-1.59-5.53-2.29-5.62-2.14-10.93-4.15-13.41-10.65l-.1-.27-.66.21.07.28c1,4.05,3.91,7.58,7.78,9.45Z"/>
  <path class="uuid-8553f7ca-4d3f-47b0-849e-2ee1bcdc3744" d="m183.56,10.18l.09-.1-.06.12.06.03c3.29,1.73,6.69,3.52,9.73,5.8l2.25,1.69-1.75-2.2c-1.89-2.37-4.55-3.97-6.91-5.29l-.07-.04c-2.82-1.5-5.4-2.58-7.9-3.29l-2.85-.82,2.57,1.48c1.6.92,3.25,1.79,4.84,2.63Z"/>
  <path class="uuid-8553f7ca-4d3f-47b0-849e-2ee1bcdc3744" d="m200.68,12.78l2.17,2.34-1.59-2.77c-2.55-4.43-7.53-7.83-13.34-9.09l-3.12-.67,2.89,1.36c3.97,1.87,9.03,4.56,13,8.84Z"/>
  <path class="uuid-8553f7ca-4d3f-47b0-849e-2ee1bcdc3744" d="m211.3,14.22c.41.97.82,2.02,1.15,2.86l.02.04c.72,1.86,1.47,3.79,2.42,5.59l.13.25.62-.27-.09-.27c-.32-.97-.62-1.98-.9-2.93-.14-.44-.29-.91-.44-1.41l-.07-.21c-.43-1.42-.93-3.03-1.44-4.28-1.96-4.36-5.82-8.3-10.87-11.1l-.25-.14-.38.56.22.18c3.61,2.85,7.61,6.4,9.87,11.12Z"/>
  <path class="uuid-8553f7ca-4d3f-47b0-849e-2ee1bcdc3744" d="m222.57,17.15c2.11,2.69,4.99,4.73,8.11,5.75l.27.09.27-.62-.25-.13c-5.86-3.12-9.9-8.54-10.81-14.5-.11-.51-.16-1.05-.2-1.54-.04-.38-.07-.78-.14-1.18l-.56-3.54-.16,3.58c0,.24-.02.48-.04.74-.04.68-.08,1.39-.03,2.08.14,3.25,1.4,6.55,3.54,9.27Z"/>
  <path class="uuid-8553f7ca-4d3f-47b0-849e-2ee1bcdc3744" d="m232.64,12.6c.55,1.14,1.29,2.17,2,3.17,1.07,1.5,2.17,3.05,2.57,4.84.65,4.12-1.25,8.74-4.94,12.05-.96.92-2.11,1.8-3.71,2.84l-.24.16.34.59.26-.12c3.04-1.43,5.71-3.67,7.51-6.32,2.03-2.97,2.83-6.25,2.34-9.5-.47-2.15-1.76-3.89-3.01-5.58-.63-.85-1.35-1.82-1.9-2.8l-.17-.3c-1.1-1.91-3.67-6.38-1.7-7.72l.25-.17-.37-.59-.26.15c-2.92,1.65-.18,6.94,1,9.2l.06.11Z"/>
  <path class="uuid-8553f7ca-4d3f-47b0-849e-2ee1bcdc3744" d="m234.28,34.07l-1.26.67.26.62.27-.08c3.97-1.23,13.54-4.92,16.53-12.58l.1-.26-.6-.3-.15.24c-3.47,5.54-9.41,8.67-15.15,11.71Z"/>
  <path class="uuid-8553f7ca-4d3f-47b0-849e-2ee1bcdc3744" d="m240.57,26.44c4.8-3.51,7.78-9.62,7.59-15.58l-.11-3.42-.61,3.36c-1.02,5.65-3.57,10.87-7.35,15.1l-2.31,2.58,2.8-2.04Z"/>
  <path class="uuid-8553f7ca-4d3f-47b0-849e-2ee1bcdc3744" d="m256.04,15.01l.19-1.16-.81.85c-1.47,1.54-2.58,3.08-3.51,4.84l-.55,1.05,1.04-.56c1.89-1.02,3.28-2.95,3.64-5.02Z"/>
  <path class="uuid-8553f7ca-4d3f-47b0-849e-2ee1bcdc3744" d="m255.48,39.4l-.24.16.32.59.26-.11c7.97-3.44,13.8-8.66,16.4-14.71l.11-.26-.6-.32-.15.24c-4.07,6.37-10.44,10.78-16.1,14.42Z"/>
  <path class="uuid-8553f7ca-4d3f-47b0-849e-2ee1bcdc3744" d="m252.45,33.87l2.66-1.09c2.87-1.18,9.76-4.53,11.72-10.1l.94-2.66-1.58,2.34c-2.21,3.28-5.5,5.59-8.69,7.83-.9.63-1.84,1.29-2.74,1.97l-2.31,1.72Z"/>
  <path class="uuid-8553f7ca-4d3f-47b0-849e-2ee1bcdc3744" d="m262.43,44.68l-.75.35.25.63.27-.08c5.96-1.75,16.65-5.93,21.29-14.25l.14-.25-.56-.38-.18.23c-5.16,6.58-12.94,10.23-20.46,13.75Z"/>
  <path class="uuid-8553f7ca-4d3f-47b0-849e-2ee1bcdc3744" d="m269.99,35.39l2-.62c3.74-1.14,6.84-3.21,8.73-5.83l1.23-1.69-1.72,1.18c-1.08.74-2.26,1.5-3.3,2.16l-.12.08c-1.72,1.1-3.5,2.24-5.14,3.47l-1.67,1.25Z"/>
  <path class="uuid-8553f7ca-4d3f-47b0-849e-2ee1bcdc3744" d="m276.99,41.75l3.44-.05c2.09-.03,4.3-.44,6.95-1.31l.48-.17c3.7-1.28,7.88-2.74,10.55-5.91l.18-.22-.48-.48-.22.18c-1.79,1.5-4.01,2.41-6.15,3.29-.34.14-.68.28-1.01.42l-1.04.4c-3.03,1.16-6.16,2.35-9.35,3.08l-3.35.76Z"/>
  <path class="uuid-8553f7ca-4d3f-47b0-849e-2ee1bcdc3744" d="m290.68,41.81c-1.7.52-3.45,1.05-5.15,1.67l-2.73.99,2.89-.29c2.75-.27,5.59-.89,8.69-1.9,2.53-.9,5.68-2.02,7.83-4.33l1.81-1.94-2.26,1.38c-3.39,2.08-7.26,3.25-11.02,4.39l-.06.02Z"/>
  <path class="uuid-8553f7ca-4d3f-47b0-849e-2ee1bcdc3744" d="m292.58,45.74c-1.03.29-1.95.56-2.87.84l-2.92.89,3.04-.18c6.29-.36,11.1-2.09,14.31-5.15l2.21-2.1-2.64,1.52c-3.4,1.97-7.33,3.09-11.13,4.18Z"/>
  <path class="uuid-8553f7ca-4d3f-47b0-849e-2ee1bcdc3744" d="m298.68,59.94c-3.42,2.09-7.09,3.85-10.25,5.34l-.26.12.24.63.27-.08c4.53-1.32,15.46-5.24,19.18-13.03l.12-.26-.59-.33-.16.24c-2.18,3.21-5.4,5.44-8.55,7.38Z"/>
  <path class="uuid-8553f7ca-4d3f-47b0-849e-2ee1bcdc3744" d="m294.3,72.88l.16.65.28-.04c4.48-.65,12.58-2.73,16.55-9.41.5-.96.83-1.83,1.02-2.65l.74-3.28-1.43,3.05c-2.98,6.38-10.06,9.22-17.06,11.59l-.27.09Z"/>
  <path class="uuid-8553f7ca-4d3f-47b0-849e-2ee1bcdc3744" d="m301.17,102.83l-.26.13.25.63.28-.09c4.54-1.46,8.54-5.23,10.97-10.35,1.48-3.21,2.31-6.97,2.45-11.2v-.2c-.04-1.1-.08-2.36-.15-3.57l-.02-.29h-.68s-.02.28-.02.28c-.04.49-.08,1-.11,1.52v.05c-.09,1.32-.19,2.69-.42,3.99-1.1,8.79-5.69,15.93-12.29,19.1Z"/>
  <path class="uuid-8553f7ca-4d3f-47b0-849e-2ee1bcdc3744" d="m310.9,73.36l.5-3.22-1.19,3.04c-2.05,5.26-7.31,8.38-11.54,10.89l-2.69,1.59,2.98-.94c5.18-1.63,11.04-5.48,11.94-11.36Z"/>
  <path class="uuid-8553f7ca-4d3f-47b0-849e-2ee1bcdc3744" d="m108.15,54.62c.21,0,.41,0,.62-.02,4.68-.26,9.25-1.48,13.69-2.66,1.07-.29,2.18-.58,3.28-.86l.11-.03c1.14-.29,2.32-.6,3.46-.68.1,0,.2.01.32.02.07,0,.14.01.2.02l.3.02.07-.69-.29-.04c-2.12-.3-4.22.17-6.28.63-.73.16-1.55.35-2.37.48-.74.15-1.48.31-2.21.47l-.12.03c-1.98.43-4.03.87-6.06,1.2-2.58.43-5.51.92-8.19.14-2.59-.7-5-2.29-6.78-4.47l-.18-.23-.55.4.15.25c2.26,3.67,6.51,6.03,10.84,6.03Z"/>
  <path class="uuid-8553f7ca-4d3f-47b0-849e-2ee1bcdc3744" d="m250.86,232.56h0c-.23-.03-.41.01-.56.12-.41.3-.34.84-.28,1.22,0,.04,0,.07.01.1,0,.1.02.24.11.38.08.13.2.21.29.27l.04.02s.04.03.07.06c.04.03.08.07.12.09.14.1.29.15.45.15.48-.01.58-.5.61-.66v-.04c.07-.29.14-.62.03-.95-.04-.11-.09-.21-.15-.31-.18-.24-.45-.41-.74-.45Z"/>
  <path class="uuid-8553f7ca-4d3f-47b0-849e-2ee1bcdc3744" d="m262.58,243.16c-.22-.04-.42,0-.57.12-.41.3-.34.84-.28,1.21,0,.04.01.07.01.11,0,.1.02.24.11.39.08.13.2.21.29.27l.05.03s.04.03.06.05c.04.03.08.06.12.1.14.1.29.15.45.15.48-.01.58-.49.61-.65v-.07c.07-.27.14-.61.04-.94-.04-.11-.08-.21-.15-.3-.18-.24-.45-.41-.74-.45Z"/>
  <path class="uuid-8553f7ca-4d3f-47b0-849e-2ee1bcdc3744" d="m180,237.69c.68-.25,1.46-.38,2.31-.38.41,0,.84.04,1.27.1.05.06.12.13.25.18.94.36,1.87.86,2.74,1.49.84.67,1.62,1.41,2.32,2.18l1.01,1.26s.07.08.11.1l.16.2c.04.05.12.12.24.16.35.31.69.55,1.04.73.08.04.16.05.23.06.11.04.24.08.41.1h.06c.19,0,.52-.12.65-.28.09-.12.12-.27.07-.4-.03-.08-.12-.22-.36-.26-.08-.01-.15-.03-.23-.06-.03-.02-.06-.04-.09-.06-.16-.08-.33-.18-.47-.29-.37-.34-.66-.85-.92-1.3l-.03-.06c-.5-.87-.96-1.5-1.49-2.03-1.16-1.18-2.72-2.06-4.37-2.48-1.54-.39-3.15-.39-4.63,0-.79.21-1.81.71-2.32,1.38-.27.11-.33.29-.34.39-.02.18-.02.36,0,.5-.02.39.13.77.43,1.13.25.3.77.1.94-.02.23-.18.23-.44.1-.6-.1-.14-.18-.28-.21-.41-.1-.56.61-1.13,1.16-1.33Z"/>
  <path class="uuid-8553f7ca-4d3f-47b0-849e-2ee1bcdc3744" d="m264.1,186.93c.13-.12.17-.3.1-.46-.01-.06-.03-.11-.07-.15,0-.02,0-.03-.01-.05-.38-1.08-.94-2.06-1.66-2.91l-.02-.06c-.28-.47-.65-.89-1.09-1.23-.05-.05-.12-.1-.25-.12-.05-.05-.1-.1-.15-.15-.1-.1-.2-.2-.3-.31-.08-.09-.16-.17-.25-.27-.02-.02-.04-.05-.07-.08-.05-.07-.12-.14-.2-.21-.06-.04-.12-.08-.18-.1,0-.08-.03-.17-.08-.24-.04-.06-.09-.1-.15-.14,0-.01,0-.02-.01-.04-.02-.04-.04-.07-.07-.11.09-.2,0-.36-.03-.41-.12-.18-.37-.24-.56-.21-.09-.02-.18,0-.27.02-.18.05-.35.08-.53.07-2.15-1.44-4.61-2.42-7.31-2.9-1.34-.24-2.76-.41-4.59-.53-.02-.1-.08-.19-.17-.25-.17-.13-.38-.21-.62-.22-.01-.02-.02-.03-.04-.05-.13-.14-.35-.2-.55-.15,0,0,0,0-.01,0-.03-.01-.05-.02-.08-.03-.01-.03-.03-.06-.05-.08-.1-.14-.26-.2-.36-.21-.08-.01-.2-.01-.34.05-.09-.02-.19-.01-.28,0h-.02c-.11,0-.23.03-.33.08l-.07-.03-.16-.02s-.27,0-.47.1c-.17-.03-.35.02-.45.06-.15-.01-.29.04-.39.08-.22-.11-.41-.21-.57-.31-.19-.13-.5-.05-.69.04-.22-.24-.64-.09-.78,0-.07.04-.12.08-.17.14-.18.02-.37.1-.45.16-.13.09-.18.2-.19.27,0,.02,0,.04,0,.06,0,0,0,0,0,0-.05.01-.11.03-.17.07l-.07.04c-.05-.03-.11-.06-.15-.1-.18-.14-.43-.16-.66-.05-.09.04-.3.17-.33.39,0,.04,0,.08,0,.12-.07.02-.14.03-.21.05-.09,0-.18.01-.21.02-.05,0-.38.06-.54.2-.06,0-.4.06-.58.22-.17.07-.39.17-.62.28l-.1-.02-.05.09s-.1.04-.15.08h0c-.05,0-.1,0-.17-.02-.08,0-.62.03-.78.31l-.09.23.02.02c-.07.06-.12.13-.14.21v.03s-.08.04-.12.06c-.21.04-.52.13-.59.37l-.04.19c-.21.09-.4.18-.6.28-.14.08-.2.17-.21.26-.15.03-.57.14-.6.46-.33.16-.27.4-.25.47l-.22.18s-.05.05-.06.07c-.04.03-.07.06-.12.1l-.06.05c-.08.06-.13.13-.15.19-1.03.66-2.05,1.35-3.04,2.03l-.07.05c-1.27.87-2.71,1.85-4.14,2.72-.06.04-.25.15-.24.39l.04.19.06.03c-.07.14-.07.28-.01.41.03.07.14.23.42.25,3.68.22,7.44,1.31,11.09,2.38-.08.09-.12.19-.12.3,0,.12.04.24.13.32.06.06.13.1.19.11.23.17.53.09.71-.02l.04-.02c.07-.04.13-.08.14-.09.02,0,.05,0,.07-.01.02.04.05.08.09.12.1.09.25.14.4.14.11.12.29.17.46.14.04,0,.08-.01.12-.02.04.04.08.08.13.1.2.1.5.06.63-.03.18.07.38.13.58.18l.42.16c.13.05.26.1.39.14l-.08.13-.05.15.05.12c.06.13.18.18.23.2.11.04.22.03.35,0,.08-.02.17-.04.24-.09,0,0,0,0,.01,0v.12l.46-.25c.05-.03.11-.05.17-.08.07-.03.14-.06.21-.1.35.06.68.14,1.01.25,0,0,.01.01.02.02l.94.6c.14.08.35.07.52.01.08.11.21.17.36.18.13,0,.3-.04.43-.13.2,0,.41-.1.53-.23.16.02.32.03.46.04l.08.04c.36.11.69.28.98.51.11.09.25.08.37.08.07,0,.14-.03.24-.06.33-.12.4-.29.39-.43.04-.03.1-.07.14-.12.07,0,.14,0,.2-.01.24.1.44.23.62.41.1.1.24.14.41.12l.2.13c.12.07.25.06.36.05l.49.42c.08.07.2.1.33.1.19,0,.39-.07.51-.17.14-.12.19-.31.12-.48.13-.04.26-.1.33-.19.02-.03.04-.06.06-.09.1-.05.17-.11.22-.19.03-.01.07-.03.1-.04.09,0,.19,0,.29-.03,0,0,.02.02.03.03.11.08.26.11.44.08.07-.01.17-.03.26-.08.09.08.17.15.25.21.23.21.69.08.86-.06.16-.13.2-.33.09-.5-.02-.04-.05-.07-.07-.11.03-.04.06-.08.07-.13.01-.05.02-.09.02-.14.24,0,.5-.13.6-.26.03-.04.04-.07.06-.11h0c.08.03.16.05.21.06.18.07.5,0,.65-.08,0,0,.01,0,.02,0,.03,0,.05.01.09.02.1.01.23,0,.33-.04.04,0,.09.01.14.01.16,0,.47-.06.6-.27.11.08.22.17.33.25.25.19.71.06.88-.12.04-.04.06-.08.08-.13.09-.06.14-.14.17-.22,0,0,0-.01,0-.02.09-.06.15-.14.18-.23.04-.12.02-.26-.07-.36l-.13-.16s.08-.03.12-.05c.02,0,.03,0,.04,0,.02,0,.03.01.04.01l.12.04c.13.03.41-.03.6-.16.04.01.07.03.11.04.17.06.38.04.56-.06.08-.04.28-.16.3-.37,0-.01,0-.03,0-.04.02,0,.04-.02.06-.02.09-.04.3-.15.34-.36,0,0,0,0,0,0,.07-.07.11-.15.12-.24,0-.04,0-.18-.11-.3.01-.02.02-.04.03-.07.02-.06.02-.12.01-.18.59-.43,1.18-.87,1.78-1.31l.13-.1c.08.11.16.21.24.32l.07.11.17-.11.48.39c.23.18.67.1.86-.08Zm-3.08-1.63c-1.66,1.31-3.65,2.78-5.86,3.83-3.6,1.18-7.45,1.59-11.13,1.19-.34-.06-.69-.12-1.03-.18,1.58.12,3.23-.22,4.68-1,2.42-1.31,3.88-3.77,3.92-6.58.01-1.16-.22-2.29-.68-3.31,1.16.21,2.27.52,3.28.9.37.19.75.4,1.14.63,2.06,1.21,3.97,2.73,5.68,4.53Zm-24.78-.38c.7,1.92,2.12,3.52,3.98,4.48l.04.03s.06.04.11.05l.1.05c.05.03.1.04.14.04.14.06.28.11.42.16-.74-.16-1.47-.32-2.19-.49l-.96-.21c-.78-.22-1.56-.45-2.35-.69-3.41-1.01-6.94-2.05-10.58-2.36,1.24-.77,2.46-1.61,3.64-2.43,1.94-1.33,3.95-2.72,6.04-3.82l.09-.02h.03c.19-.08.38-.15.58-.22l.17-.06.13.23.12-.06c.17-.09.34-.17.54-.25-.66,1.8-.68,3.81-.05,5.55Z"/>
  <path class="uuid-8553f7ca-4d3f-47b0-849e-2ee1bcdc3744" d="m137.6,155.5c.04.14.15.25.31.3,1.42.42,2.88.74,4.36.95.16.03.33-.02.46-.12l.18.07c.2.08.42.01.57-.09.48.21.95.42,1.38.64.32.16.77-.16.77-.16.12-.08.17-.2.16-.32l-.03-.17-.15-.07s-.06-.03-.09-.04c.52.11,1.04.23,1.58.35.11.02.23,0,.35-.03.57.11,1.15.21,1.71.3,1.66.57,3.05.9,4.37,1.02.08.01.16,0,.24-.02l.55.02c.06.02.13.02.19.02.06.05.13.08.23.1l1.69.11c.25.04.47-.1.55-.15.13-.08.18-.18.2-.26.17.07.34.14.51.21-.02.05-.03.11-.03.17,0,.12.09.26.27.31.5.14.97.23,1.36.27l.11.03s.04,0,.05.02c1.08.44,2.15.72,3.17.84.1.02.21,0,.31-.04.94.32,1.95.58,2.99.75.04.08.12.17.29.21,2.75.73,5.42,1.71,7.95,2.92.24.11.54,0,.69-.11.2-.14.22-.3.21-.39,0-.06-.04-.22-.23-.31-.52-.25-1.04-.49-1.59-.72.78.19,1.56.4,2.32.61h.03c.89.29,1.62.55,2.29.82.24.09.58-.05.71-.15.17-.14.17-.3.16-.36-.02-.13-.11-.23-.24-.29-.06-.02-.11-.04-.17-.07.05,0,.1,0,.14-.02h.04c.21.06.42.11.58.15.07.03.14.03.23.02l.09.03c.07.03.15.06.23.09.22.09.47.02.65-.08h0s.88.99.88.99c.26.31.82,0,.89-.06.17-.14.17-.34.09-.45-.24-.37-.5-.75-.78-1.14,0,0,.01,0,.02,0,.04.02.09.03.14.03.18.25.42.57.62.89.06.1.16.16.28.19.17.03.38,0,.53-.1.1-.06.16-.13.2-.21.19.42.36.85.52,1.29.07.18.24.3.45.32.04.13.16.25.35.29.04,0,.08.01.13.01.3,0,.65-.14.72-.45.1-.5.16-1,.22-1.5l-.09,1.49c-.01.23.15.47.52.49.33,0,.68-.18.7-.51l.43-7.44c0-.16-.06-.31-.2-.4-.24-.16-.57-.06-.71,0-.25.13-.3.32-.31.42l-.2,3.41c-.02-1.32-.18-2.64-.48-3.95-.04-.15-.15-.26-.3-.31-.23-.07-.58,0-.76.18-.13.12-.18.28-.14.43.46,2,.57,4.04.34,6.07-.6-1.39-1.39-2.69-2.36-3.88.03-.06.05-.12.06-.18,0-.15-.08-.28-.21-.35-.08-.05-.17-.09-.25-.13,0-.01,0-.02,0-.03l-.02-.23-.41-.17c-.07-.03-.14-.06-.21-.09-.47-.48-.9-.88-1.32-1.23-.26-.21-.65-.11-.84.11-.19-.07-.39-.15-.58-.23-.14-.06-.31-.05-.47,0-.03,0-.06,0-.09,0-.13-.04-.26-.09-.41-.14,0-.03-.03-.06-.05-.1,0-.03.02-.06.02-.09.02-.15-.05-.3-.19-.39-.77-.55-1.6-1.05-2.46-1.49-.2-.1-.48-.08-.66.05-.02.01-.03.02-.05.04-.03,0-.05.02-.07.02-.83-.62-1.64-1.17-2.46-1.67-.23-.15-.56,0-.69.06-.07.04-.26.14-.27.35v.18s.15.09.15.09c.74.46,1.46.96,2.22,1.53-.01.03-.02.06-.02.09,0,.03,0,.06,0,.08-1.11-.89-2.26-1.72-3.44-2.48-.17-.11-.4-.11-.62,0-.19.1-.3.25-.31.42,0,.07.01.15.05.21,0,0,0,.01,0,.02v.19s.12.11.12.11c.26.21.53.43.82.67-1.09-.85-2.21-1.66-3.37-2.41-.26-.17-.71-.02-.87.22-.13.19-.07.43.13.56.59.38,1.17.78,1.75,1.19-.24-.01-.5.09-.63.25-.37-.2-.75-.39-1.12-.56-1.76-1.16-3.58-2.25-5.41-3.26-.26-.13-.62.06-.73.12-.14.09-.21.2-.2.34l.02.18.15.08c.53.29,1.05.59,1.58.89-.19.06-.39.19-.45.35-.03.09-.04.2.01.3-2.65-1.23-5.4-2.21-8.21-2.95-.26-.06-.7.13-.77.41-.04.15.01.39.32.47.52.14,1.04.28,1.56.44-.2.06-.38.19-.44.37,0,0,0,.02,0,.03-2.2-.77-4.45-1.44-6.7-1.98-.15-.04-.35.01-.52.12-.13.08-.22.19-.25.3-.04.17.04.39.32.46,2.29.56,4.56,1.23,6.8,2.02-.51-.14-.95-.28-1.34-.43-.07-.03-.13-.04-.19-.05-.03-.02-.06-.03-.1-.04-1.25-.35-2.52-.63-3.88-.86-.61-.15-1.21-.26-1.77-.33l-.4-.1c-.25-.06-.5-.13-.76-.19-.18-.03-.43.06-.6.16-.44-.01-.84,0-1.24.01h-.03c-.69-.1-1.4-.21-2.12-.31-.15-.01-.38.08-.48.12-.43-.03-.87-.06-1.33-.08-.25,0-.45.16-.54.3-.1.15-.12.33-.04.47.04.08.16.22.41.24.75.03,1.52.09,2.27.17,0,.02,0,.04,0,.05,0,.17.12.36.44.37,1.44.01,2.91.14,4.37.38.18.04.35.08.52.12-.18.07-.34.2-.39.36-.03.12,0,.27.12.37-2.98-.77-5.99-1.38-8.97-1.83-.12-.02-.43.05-.61.18-.11.08-.17.17-.18.28v.3s.29.04.29.04c3.03.46,6.06,1.08,9,1.84l.02.09.19.05c.22.06.43.11.67.16h.06c.39.1.77.18,1.14.27,1.07.31,2.13.63,3.15.96-.62-.09-1.24-.17-1.87-.26h-.02c-.03-.09-.11-.21-.31-.25-.13-.03-.27-.06-.34-.07-1.89-.68-3.83-1.16-5.76-1.45-1.05-.31-2.1-.53-3.11-.63-1.52-.26-3.04-.41-4.53-.45-.2,0-.54.06-.64.33-.06.14-.04.28.03.4.02.02.04.05.06.07-.04.06-.05.11-.06.16-.19-.02-.38-.04-.56-.06-.22-.03-.42.08-.53.19-.01.01-.02.02-.03.04l-.99-.02c-.21,0-.49.14-.59.3-.07.11-.08.25-.02.36.07.13.2.2.4.2h.05s0,.06,0,.09c0,.12.07.31.45.32,2.12-.12,4.26.02,6.37.43-.1.04-.19.09-.25.17-.11.12-.15.27-.11.42Zm42.92,3.62s.07-.06.1-.09c.66.74,1.24,1.54,1.75,2.4-.58-.78-1.23-1.53-1.93-2.26.03-.02.06-.03.08-.05Z"/>
  <path class="uuid-8553f7ca-4d3f-47b0-849e-2ee1bcdc3744" d="m181.98,184.91c.06.08.19.18.42.18.05,0,.1,0,.13,0,.1-.01.45-.08.57-.38.63-1.59-.16-2.98-.92-4.34-.19-.33-.36-.65-.51-.96-.08-.17-.24-.27-.44-.28h-.05c-.21,0-.49.09-.62.28-.09.13-.11.3-.04.44.16.33.35.66.55,1.02.66,1.18,1.35,2.4.86,3.63-.06.14-.04.3.06.42Z"/>
  <path class="uuid-8553f7ca-4d3f-47b0-849e-2ee1bcdc3744" d="m228.91,181.25c-.22-.04-.47.05-.62.15-1.46.97-3.01,1.79-4.61,2.43-.09.03-.29.11-.35.32-.04.12-.02.25.05.35.05.07.16.19.39.19.09,0,.2-.02.33-.06h.04c1.74-.71,3.4-1.58,4.94-2.61.24-.16.22-.38.2-.44-.02-.08-.09-.28-.37-.33Z"/>
  <path class="uuid-8553f7ca-4d3f-47b0-849e-2ee1bcdc3744" d="m233.24,122.38c.05.02.11.03.18.03.19,0,.62-.12.73-.39.03-.06.03-.13.03-.2.07-.06.11-.12.13-.19.03-.1.03-.2-.02-.29-.05-.1-.13-.17-.24-.2-3.2-1.04-5.92-3.36-7.46-6.36-.03-.07-.17-.28-.52-.24-.18.02-.33.09-.37.11-.35.18-.32.45-.26.59,1.62,3.27,4.4,5.8,7.8,7.14Z"/>
  <path class="uuid-8553f7ca-4d3f-47b0-849e-2ee1bcdc3744" d="m259.54,87.31c-4.67,1.39-9.25,3.19-13.59,5.35-.26.13-.33.31-.34.44,0,.16.07.31.21.4.09.06.21.1.34.1.11,0,.22-.02.31-.07,4.29-2.13,8.78-3.9,13.35-5.26.23-.07.39-.22.44-.41.04-.16,0-.32-.13-.44-.14-.14-.36-.17-.58-.1Z"/>
  <path class="uuid-8553f7ca-4d3f-47b0-849e-2ee1bcdc3744" d="m204.26,62.87c-.16-.07-.37-.06-.56.01-.36.14-.44.43-.36.64l8.95,23.15c.06.16.21.27.4.3.03,0,.07,0,.11,0,.2,0,.46-.08.6-.26.11-.13.14-.3.08-.45l-8.95-23.15c-.04-.12-.13-.21-.25-.26Z"/>
  <path class="uuid-8553f7ca-4d3f-47b0-849e-2ee1bcdc3744" d="m164.16,67.47h0c4.37.99,8.19,3.77,10.5,7.62.05.09.19.23.47.23.19,0,.52-.09.66-.33.07-.13.07-.29,0-.41-2.44-4.08-6.5-7.02-11.15-8.08-.2-.04-.44.05-.58.14-.14.09-.22.2-.25.32-.04.19.05.43.36.51Zm.07-.3h0s0,0,0,0c0,0,0,0,0,0Z"/>
  <path class="uuid-8553f7ca-4d3f-47b0-849e-2ee1bcdc3744" d="m177.23,39.55c-.03.11-.01.23.05.33.05.08.14.18.33.22,5.03,1.17,9.26,5.11,10.78,10.05.07.22.28.36.54.36.08,0,.15-.01.23-.04.18-.05.32-.16.39-.3.06-.12.07-.25.04-.37-1.62-5.27-6.14-9.48-11.52-10.73h0c-.29-.07-.75.15-.83.48Z"/>
  <path class="uuid-8553f7ca-4d3f-47b0-849e-2ee1bcdc3744" d="m166.04,52.02c.1,0,.19-.02.24-.04.12-.03.42-.14.49-.41.04-.14,0-.29-.11-.39-2.75-2.68-5.94-4.81-9.49-6.32-.25-.11-.62.04-.76.15-.14.1-.21.25-.19.4.02.15.11.26.26.33,3.43,1.46,6.53,3.53,9.21,6.14.06.06.17.13.35.13Z"/>
  <path class="uuid-8553f7ca-4d3f-47b0-849e-2ee1bcdc3744" d="m120.17,73.48c-.17-.2-.44-.18-.58-.15-.13.03-.43.12-.53.4-1.68,4.9-1.87,10.17-.55,15.23,1.32,5.07,4.07,9.57,7.94,13,2.04,1.81,4.34,3.28,6.85,4.39.07.03.14.04.23.04.25,0,.59-.15.7-.39.05-.1.05-.22.01-.32-.03-.08-.1-.18-.25-.25-9.09-4.03-15.03-13.03-15.13-22.94-.03-2.89.44-5.78,1.4-8.58.05-.15.02-.32-.08-.43Z"/>
  <path class="uuid-8553f7ca-4d3f-47b0-849e-2ee1bcdc3744" d="m143.88,87.49c.07.03.15.05.24.05.18,0,.37-.06.5-.16.21-.16.22-.35.21-.46-.59-5.15-2.61-10.03-5.82-14.12-.08-.1-.2-.16-.34-.18-.2-.02-.44.05-.59.17-.14.11-.18.24-.19.32-.01.12.02.23.09.33,3.11,3.95,5.06,8.68,5.64,13.69.02.16.11.29.26.35Z"/>
  <path class="uuid-8553f7ca-4d3f-47b0-849e-2ee1bcdc3744" d="m226.53,74.62h0c3.41-3.11,6.23-6.77,8.37-10.87.13-.25.05-.52-.19-.65-.15-.08-.35-.09-.55-.03-.17.05-.31.16-.38.29-2.08,3.99-4.82,7.54-8.16,10.58-.14.13-.17.26-.18.35,0,.11.04.23.11.3.14.16.36.18.48.18.09,0,.33-.02.49-.17Z"/>
  <path class="uuid-8553f7ca-4d3f-47b0-849e-2ee1bcdc3744" d="m272.63,54.9c-.08-.14-.23-.21-.46-.21h0c-.15,0-.51.04-.64.27-.19.22-.32.49-.45.75-.06.13-.12.25-.19.36-.21.34-.42.69-.64,1.03-.46.7-.95,1.38-1.46,2.02-.91,1.15-1.96,2.28-3.31,3.55-.14.13-.19.31-.13.48.04.09.12.2.32.25.05,0,.11.02.16.02.31,0,.56-.17.78-.33.68-.53,1.44-.97,2.18-1.41.72-.43,1.63-.96,2.4-1.58,1.39-1.11,2.57-2.51,3.42-4.04.15-.28.03-.54-.17-.66-.27-.15-.76-.07-.94.25-.97,1.73-2.34,3.21-4.01,4.31,1.19-1.46,2.24-3.02,3.13-4.66.07-.13.07-.28,0-.4Z"/>
  <path class="uuid-8553f7ca-4d3f-47b0-849e-2ee1bcdc3744" d="m269.55,62.48c.07,0,.14-.01.19-.02,4.01-.88,7.79-2.71,10.93-5.27.19-.16.17-.4.06-.54-.23-.28-.83-.1-.97.02-2.94,2.4-6.43,4.09-10.08,4.89-.27.06-.62.29-.54.61l.13-.03-.13.03c.03.15.16.3.42.3Z"/>
  <path class="uuid-8553f7ca-4d3f-47b0-849e-2ee1bcdc3744" d="m282.83,60.1c0-.1-.03-.2-.09-.27-.07-.08-.17-.13-.29-.14-.17-.02-.52.03-.68.17-2.44,2.15-5.39,3.59-8.53,4.16,0,0-.44.09-.55.39-.04.13-.02.27.07.37.05.07.16.15.34.15.05,0,.1,0,.18-.02,3.52-.65,6.78-2.22,9.43-4.55.08-.07.13-.17.14-.27Z"/>
  <path class="uuid-8553f7ca-4d3f-47b0-849e-2ee1bcdc3744" d="m282.17,118.01c.07,0,.15-.01.23-.04,5-1.82,9.68-4.37,13.9-7.56.23-.17.25-.38.23-.49-.02-.18-.15-.33-.33-.41-.18-.08-.45-.1-.67.08-4.11,3.11-8.65,5.58-13.47,7.34-.16.06-.29.16-.36.3-.07.14-.08.3-.03.44.08.21.28.34.5.34Z"/>
  <path class="uuid-8553f7ca-4d3f-47b0-849e-2ee1bcdc3744" d="m269.33,104.09c.09,0,.17-.01.24-.04l9.7-3.61c.29-.1.36-.3.38-.4.03-.17-.04-.34-.18-.45-.14-.11-.39-.21-.67-.1l-9.7,3.61c-.27.1-.35.28-.38.41-.03.17.04.33.18.45.11.09.27.15.42.15Z"/>
  <path class="uuid-8553f7ca-4d3f-47b0-849e-2ee1bcdc3744" d="m286.51,106.83c.1,0,.19-.01.27-.04,3.25-1.07,6.44-2.39,9.5-3.92.32-.16.34-.41.26-.58-.18-.35-.74-.22-.87-.15-2.99,1.49-6.11,2.78-9.28,3.83-.47.16-.41.47-.38.56.06.19.25.3.51.3Z"/>
  <path class="uuid-8553f7ca-4d3f-47b0-849e-2ee1bcdc3744" d="m99.44,173.6l.56-.16-.06-.28c-.9-4.12-2.28-8.36-4.12-12.6-.36-.81-.76-1.68-1.21-2.57l.4-.19-.12-.27s-.02-.05-.03-.07c-.07-.15-.15-.3-.22-.43l-.13-.25-.43.18c-1.35-2.58-3.07-5.31-5.33-7.65l-.2-.2-.52.43.17.24c.36.51.67.94.96,1.33,4.55,6.78,7.37,14.65,10.1,22.26l.19.25Z"/>
  <path class="uuid-8553f7ca-4d3f-47b0-849e-2ee1bcdc3744" d="m98.21,181.92c.06-.12.12-.23.18-.35.37-.71.78-1.52.8-2.43l.05-2.58-.76,2.46c-.21.67-.6,1.27-.98,1.86-.48.74-.98,1.5-1.18,2.51-.14,1.52.53,2.91,1.18,4.26l.03.07c.08.16.16.32.23.48l.12.26.63-.23-.33-1.31c-.21-.84-.48-1.88-.59-2.43-.24-.87.17-1.67.6-2.51l.03-.07Z"/>
  <path class="uuid-8553f7ca-4d3f-47b0-849e-2ee1bcdc3744" d="m90.21,176.74h0c.3-.42.61-.84.75-1.37l.89-3.42-1.56,3.17c-.24.48-.63.9-1.01,1.31-.23.25-.5.53-.73.83-.61.78-1.15,1.61-1.6,2.46-1.13,1.98-.85,3.93-.42,5.21.76,2.22,2.55,4.15,4.65,5.02.68.39,1.45.59,2.28.59,1.25,0,2.57-.46,3.63-1.25l.23-.17-.36-.57-.26.13c-1.83.95-3.62,1.01-4.93.17-3.1-1.57-5.33-5.21-3.7-8.57.49-1.11,1.16-2.23,2.13-3.53Z"/>
  <path class="uuid-8553f7ca-4d3f-47b0-849e-2ee1bcdc3744" d="m297.89,198.29h.69s.01-.3.01-.3c.08-1.83.21-5.48.26-7.22.06-1.14.1-2.34.14-3.31v-.07c.11-3.15.22-6.42.83-9.48.58-1.48,1.45-2.87,2.29-4.21.64-1.02,1.3-2.08,1.84-3.18l.13-.26-.6-.34-.16.25c-.52.8-1.1,1.59-1.66,2.36l-.03.03c-1.12,1.53-2.28,3.12-3.08,4.96-.51,1.93-.66,3.94-.79,5.88l.13.02h-.13s0,.06,0,.06c-.26,4.73-.22,9.61.1,14.52l.02.29Z"/>
</svg>