<?xml version="1.0" encoding="UTF-8"?>
<svg id="Livello_23" data-name="Livello 23" xmlns="http://www.w3.org/2000/svg" viewBox="0 0 595.28 841.89">
  <defs>
    <style>
      .cls-1 {
        fill: #354f9d;
      }

      .cls-2 {
        fill: none;
      }
    </style>
  </defs>
  <line class="cls-2" x1="436.44" y1="417.41" x2="436.15" y2="418.79"/>
  <line class="cls-2" x1="443.13" y1="385.67" x2="438.72" y2="406.61"/>
  <path class="cls-1" d="m335.14,461.3c-.44.04-.86.01-1.26-.06.08-.12.07-.25-.17-.25-.47-.01-.9-.12-1.3-.26-1.77-.89-3.26-2.58-4.83-3.68-1.83-1.3-3.89-1.76-6.05-1.01-1.25.44-2.3,1.17-3.25,2.04-.37.3-.72.62-1.04.99-.6.56-1.13,1.21-1.59,1.91-.56.68-1.17,1.5-1.03,2.39.05.34.18.62.38.83-.06.05-.07.1.02.12.06.02.11.04.17.06.32.23.73.34,1.17.28.09-.01.63-.26.34-.35-.31-.09-.62-.18-.93-.27-.34-.34-.48-.95-.4-1.38,0-.04.02-.09.03-.13.08-.03.15-.08.18-.14.27-.53.6-1.04.95-1.53.15-.02.29-.08.34-.18.19-.38.43-.72.67-1.05.53-.56,1.12-1.06,1.76-1.48,1.45-.87,3.13-1.31,4.93-1.12,1.87.19,3.34,1.08,4.75,2.24.14.14.27.27.4.4.04.04.1.06.17.07.97.77,2,1.46,3.22,1.66.69.23,1.43.34,2.26.27.34-.03.62-.41.11-.37Zm-11.45-5.04c-.81-.03-1.62.07-2.41.29.79-.35,1.62-.53,2.48-.48-.07.06-.1.13-.07.19Z"/>
  <path class="cls-1" d="m338.87,460.23c5.24-3.87,6.81-10.64,6.04-16.84-.47-3.77-1.65-7.34-2.99-10.87-.02-.08-.04-.15-.06-.23,0-.04-.03-.06-.06-.09-1.43-3.75-3.03-7.46-4.11-11.32-.09-.31-.81-.12-.72.19,1.13,4,2.79,7.83,4.26,11.71.58,2.19,1.16,4.38,1.74,6.57.01.05.05.08.09.1,0,0,0,.01,0,.02,2.38,7.01.71,14.75-4.39,20.11-.04.04-.02.07.04.08-.1.08-.2.17-.3.25-.4.29.2.5.47.3Z"/>
  <path class="cls-1" d="m279.75,424.89c.31-.3-.4-.31-.58-.13-4.86,4.71-10.11,9.91-11.28,16.89-.93,5.58,1.55,11.8,7.26,13.62.24.08.85-.28.44-.41-5.88-1.88-8.04-8.56-6.81-14.13,1.44-6.52,6.36-11.36,10.98-15.83Z"/>
  <path class="cls-1" d="m288.32,423.11c.04-.07-.11-.08-.14-.02-.62,1.22-1.65,2.17-2.31,3.37-.56,1.01-.85,2.27-.27,3.33.03.06.17,0,.13-.07-.63-1.17-.18-2.56.49-3.61.67-1.03,1.54-1.91,2.1-3.01Z"/>
  <path class="cls-1" d="m338.22,367.15c-6.22,6.54-9.08,15.81-7.67,24.72.06.35.78.17.72-.19-1.4-8.76,1.44-17.87,7.55-24.29.32-.33-.38-.48-.61-.23Z"/>
  <path class="cls-1" d="m351.51,499.61h0c.02-.13-.05-.25-.24-.27l-.15-.18c-.05-.06-.17-.08-.29-.07-.02,0-.02-.02-.05-.02-7.2-1.34-14.4-2.67-21.61-4.01-6.28-1.17-13.04-3.02-19.35-1.05-.06.02-.11.05-.15.08-2.6,1.06-5.69,2.18-8.55,1.93-3.12-.28-5.94-2.08-8.9-2.97-4.25-1.27-8.75-1.75-13.15-2.05-9.67-.67-19.39-.31-29.05.23-2.44.14-4.89.37-7.34.46-.09,0-.18-.02-.28-.03-.07-.01-.15.01-.22.05-.38,0-.76.03-1.14.03-.13,0-.27.08-.37.17-.05.05-.09.1-.1.15-.03.09.02.16.21.16h.03c10.46,5.12,20.26,11.52,29.14,19.06.14.13.78-.16.68-.24-8.71-7.4-18.31-13.69-28.55-18.76,1.04.06,2.08.13,3.13.2,9.42,1.35,18.44,4.52,27.53,7.35,2.74.88,5.51,1.69,8.31,2.41,3.71.97,7.46,1.77,11.28,2.26,2.66.38,5.34.64,8.04.76,3.25.14,6.51.06,9.75-.26,1.92-.11,3.84-.38,5.72-.83.7-.13,1.39-.28,2.09-.44.31-.04.62-.06.94-.11.09-.02.22-.09.31-.18.06-.01.12-.02.18-.04.44-.11.33-.51-.11-.39-.07.02-.14.03-.21.05-.03,0-.04-.01-.07-.01-2.07.15-4.14.29-6.21.44-.68-.01-1.36,0-2.05.04-.19-.02-.39-.02-.58-.04-.08-.01-.24.03-.38.09-.01,0-.02,0-.03,0-.02,0-.04,0-.05,0-.74.07-1.48.18-2.21.31-.11.02-.21.08-.28.14-4.22.65-8.41.68-12.57.28-3.63-.43-7.23-1.09-10.78-1.92-2.57-.6-5.1-1.3-7.62-2.05-.45-.13-.89-.27-1.33-.4-2.56-.8-5.11-1.65-7.63-2.54-4.01-1.43-7.94-3.11-12.1-4.05-3.1-.71-6.27-1.05-9.45-1.29-.14-.02-.27-.04-.41-.05,1-.07,2-.15,3-.21,4.6-.27,9.19-.49,13.79-.6,5.37-.13,10.75-.11,16.11.23,4.63.3,9.36.76,13.82,2.13,3.08.95,6.06,2.89,9.35,2.96,2.9.05,5.86-.94,8.52-2.02.02,0,.04,0,.07-.01,6.45-2.02,13.53.07,19.95,1.26,5.38,1,10.75,1.99,16.13,2.99h0c-.11.22-.22.44-.33.65-.12.03-.24.05-.36.09-.02,0-.17.07-.26.13-.05.01-.11.01-.16.02-.05,0-.12.04-.2.08-4.73.35-9.45.88-14.14,1.59-.62.08-1.23.16-1.85.24.16-.09.27-.19-.02-.15-.23.03-.45.08-.68.11-.15,0-.34.03-.55.09-1.3.22-2.58.48-3.84.84-.08.03-.13.05-.18.08-.08.02-.16.03-.24.04-.46.09-.31.62.14.53,3.6-.69,7.22-1.26,10.86-1.74,5.04-.58,10.1-1,15.17-1.25-.06.11-.11.23-.16.34-7.74,6.27-15.65,12.52-24.77,16.64-9.55,4.32-20.19,5.78-30.56,4.31-5.92-.84-11.68-2.64-17.02-5.33-.25-.13-.9.22-.56.39,9.34,4.71,19.93,6.68,30.35,5.76,10.72-.94,20.49-5.18,29.35-11.12,4.75-3.19,9.22-6.75,13.66-10.35.47-.22.94-.44,1.42-.66.06-.03.1-.07.14-.11.17-.05.42-.2.27-.36Zm-47.47,5.23s-.03.02-.04.03h-.43c.15-.01.31-.02.47-.03Zm-49.74-11.16c1.73.38,3.41.88,5.07,1.45-.82-.24-1.65-.48-2.47-.7-1.38-.37-2.77-.71-4.16-1.03.52.09,1.04.17,1.56.28Zm92.86,5.43s.04-.1.04-.14c.16.03.32.06.49.09-.18.01-.35.03-.53.05Zm1.03.22c.13-.03.26-.05.39-.07.02,0,.05-.01.08-.02.15.03.3.05.46.08-.31,0-.61,0-.93.01Z"/>
  <path class="cls-1" d="m321.27,591.17c.96-.54-.61-.25-.95-.06-7.94,4.43-17.87,4.68-26.75,4.39-8.89-.29-17.74-1.75-26.26-4.33-4.81-1.46-9.51-3.28-14.05-5.44-.41-.2-1.68.6-1.56.65,17.02,8.05,36.82,11.71,55.56,9.14,4.88-.67,9.69-1.95,14.02-4.36Z"/>
  <path class="cls-1" d="m145.03,313.27s-.02.07-.02.1c-.01.01-.02.03-.02.04.01-.05.03-.09.04-.14Z"/>
  <path class="cls-1" d="m144.99,313.41s.01-.03.02-.04c0-.03,0-.07.02-.1-.01.05-.03.09-.04.14Z"/>
  <path class="cls-1" d="m341.47,244.1s-.25.01-.25.02c0,.14,0,.32-.01.52,0,.23-.01.47,0,.68.4,8.33-4.48,17.69-12.44,23.84-6.86,5.3-16.11,8.54-26.74,9.38-5.26.42-11.03.3-18.13-.36-7.21-.93-13.77-4.1-18.91-8.81-5.14-4.7-8.87-10.96-10.43-18.06l-.25.06c.02.08.02.15.02.23,0,.11-.01.23-.02.35-.02.22-.05.45,0,.67.91,4.13,2.57,7.97,4.8,11.4-12.51,6.92-26.51,12.25-41.04,10.86-6.38-.62-12.49-2.67-17.83-5.96-.13-.08-.27-.16-.4-.25-3.38-2.13-6.44-4.76-9.05-7.84-.16-.19-.32-.39-.47-.58-.94-1.15-1.82-2.35-2.62-3.61-.04-.05-.07-.09-.1-.14-.35-.55-.69-1.12-1.02-1.69-4.19-7.43-5.92-16.18-4.59-24.61.07-.41-.06-.85,0-1.25-1.47,9.3.11,18.86,4.58,26.95,0,.01,0,.03.02.04-9.19-5.24-16.52-13.44-20.82-23.05l-.13-.29-.5-1.18-2.3-5.3-.5-1.17s-.14-.33-.15-.36l-.11-.25c3.25,13.77,12.51,25.8,24.98,32.48.01,0,.02.01.04.01.68,1.17,1.43,2.31,2.25,3.4-14.76-.47-28.32-9.22-34.68-22.62-1.81-3.81-2.99-7.87-3.53-12.05.05.41-.06.84,0,1.25.7,5.4,2.5,10.52,5.2,15.08v1.37c-.7,17.24-1.4,34.47-2.09,51.7-.2,4.96-.41,10.22-.61,15.18-.56-.44-1.19-.79-1.89-1.03-1.03-.35-2.14-.47-3.21-.28-1.01.17-2.14.64-2.84,1.42-.16.18-.29.39-.41.6-.4.73-.61,1.55-.86,2.35-.63,2.05-1.05,4.15-1.45,6.26-.49,2.5-.9,5.03-1.25,7.56-.35,2.53-.64,5.07-.88,7.62-.24,2.55-.42,5.11-.55,7.66-.14,2.56-.23,5.12-.27,7.68-.05,2.55-.06,5.11-.04,7.66.01,1.23.03,2.45.05,3.67.29,15.07,2.2,30.52,8.93,44.19,3.7,7.5,8.8,14.24,14.98,19.87.12.11.37.07.54-.02-.13,2.85-.24,5.7-.32,8.54-.17,6.21-.07,12.44.59,18.63.67,6.29,1.96,12.48,3.67,18.56,1.41,4.99,3.14,9.85,5.12,14.62-2.72,20.45-5.67,40.88-8.48,61.32-.79,5.67-1.56,11.35-2.31,17.02-.06.44.97.27,1.02-.11,2.71-20.47,5.67-40.91,8.49-61.37.69-5.03,1.37-10.06,2.04-15.09,2.93,6.79,6.38,13.37,10.24,19.74.01.02.01.04.02.07,6.42,11.28,13.71,22,21.16,32.63,5.72,8.16,11.71,16.13,18.52,23.43,4.34,4.65,8.94,9.05,13.68,13.3.33.3,1.21-.2.78-.59-7.97-7.15-15.46-14.76-22.13-23.15-6.76-8.51-12.89-17.55-18.97-26.56-4.29-6.34-8.32-12.85-12.13-19.53-6.07-10.04-11.21-20.62-14.77-31.81-3.82-11.99-5.64-24.25-5.6-36.83.05-13.29,1.21-26.59,1.97-39.85.78-13.63,1.57-27.26,2.35-40.88.89-15.46,1.78-30.91,2.67-46.37.02-.21-.99-.07-1.01.27-1.58,27.42-3.16,54.84-4.74,82.26-.6,10.45-1.36,20.9-1.84,31.36-11.24-10.29-18.13-23.9-21.21-38.73-3.15-15.15-3.03-31.04-2.07-46.43.16-2.58.37-5.15.64-7.72.26-2.58.59-5.16.98-7.72.39-2.58.87-5.15,1.41-7.7.23-1.08.48-2.17.81-3.23.17-.58.35-1.16.57-1.73.26-.68.53-1.34,1.13-1.8.58-.43,1.29-.67,2.01-.74.2-.02.4-.03.61-.02,1.71.07,3.4.97,4.58,2.19.05.05.09.12.15.16,2.13,2.38,3.15,5.66,4.35,8.55,2.83,6.87,5.67,13.73,8.5,20.6.11.26.83.04.73-.2l-13.13-34.24h0c.63-16.01,1.27-32.74,1.92-48.59.19-4.85.39-9.68.58-14.52,4.83,7.59,12.17,13.5,20.96,16.41,3.98,1.3,8.12,1.97,12.29,2,1.05,1.31,2.2,2.56,3.44,3.74,1.66,1.59,3.46,3.02,5.36,4.27-10.15,12.05-17.72,26.16-22.15,41.29-.05.16.66.07.71-.13,4.39-14.97,11.85-28.94,21.84-40.9,3.78,2.47,7.96,4.27,12.36,5.33,7.61,1.84,15.61,1.54,23.21-.15,6.34-1.42,12.38-3.79,18.2-6.65.71,1.96,1.59,3.83,2.64,5.62,1.16,2.41,2.81,4.51,4.75,6.38,4.12,4.42,9.36,7.81,15.17,9.66.12.04.24.08.36.12.06.02.12.05.2.06,3.48,1.11,7.14,1.65,10.82,1.6,4.34-.06,8.64-.96,12.65-2.62.47-.19.03-.33-.26-.21-7.14,2.95-15.21,3.27-22.58.96-.01-.02-.03-.05-.07-.07-3.68-1.77-7.65-3.75-11.2-6.21-2.15-1.83-4.08-3.91-5.72-6.23-2.15-3.05-3.77-6.45-4.8-10.04.94-.48,1.87-.99,2.81-1.5.77.74,1.54,1.48,2.3,2.21.9,1.14,2,2.09,3.21,2.92,2.33,2,4.98,3.62,7.87,4.74.07.02.15.02.23,0,3.58,1.96,7.54,3.31,11.73,3.91.02.03.05.04.09.04,3.65.35,7.71.64,11.98.64,7.04,0,14.65-.79,21.89-3.42,10.41-3.79,18.19-10.7,21.9-19.47,1.69-4,2.44-8.47,2.21-13.29Zm-196.46,69.27s-.02.03-.02.04c.01-.05.03-.09.04-.14-.01.03-.02.07-.02.1Zm109.03-45.2c.06-.01.12-.02.18-.04,0,.02-.01.03-.01.05.03.25.07.48.12.72-.1-.24-.2-.48-.29-.73Zm4.66-2.68s.01-.02.03-.02c.03.04.06.09.09.14-.04-.04-.08-.08-.12-.12Zm.81-.44s.07-.04.11-.06c.03-.01.04-.05.05-.09.16.24.34.47.52.71-.23-.18-.45-.38-.68-.56Zm3.54,4.53s.03.02.04.03v.02s-.02-.03-.04-.05Z"/>
  <path class="cls-1" d="m288.45,382.9c-3.95,5.89-8.85,11.1-14.5,15.41-.08.06.04.11.1.07,5.65-4.31,10.56-9.53,14.52-15.43.05-.08-.08-.1-.12-.04Z"/>
  <path class="cls-1" d="m358.5,408.81s.18-.02.13-.06c-6.67-5.32-12.1-12.05-15.91-19.68-.03-.05-.17,0-.15.04,3.8,7.64,9.25,14.38,15.92,19.7Z"/>
  <path class="cls-1" d="m303.01,489.89c.09-.02.06-.11-.03-.09-3.16.6-6.43.25-9.39-1-.06-.02-.17.06-.08.09,3,1.27,6.31,1.61,9.5,1Z"/>
  <path class="cls-1" d="m390.41,290.31c-3.13-4.04-8.14-5.25-12.97-5.87-5.02-.65-9.96-1.15-14.77-2.86-4.62-1.65-9-4.2-12.34-7.83-3.67-3.99-6.54-9.69-6.08-15.24.03-.41-.03-.84,0-1.25-.72,8.68,3.39,16.64,10.53,21.58,4.09,2.83,8.85,4.6,13.7,5.6,3.66.76,7.47.9,11.16,1.55,0,.03-.03.05-.03.08-.16,5.09-.24,10.79,3.03,15.03,1.6,2.07,3.87,3.46,6.27,4.43,1.27.51,2.59.91,3.92,1.25,1.13.3,2.25.61,3.43.7.58.07,1.18.05,1.76.01.56-.03,1.23-.04,1.76-.22-.41-.12-.88-.13-1.3-.2-2.81-.44-5.63-1.09-8.28-2.14-2.48-.99-4.8-2.45-6.39-4.63-2.91-3.97-2.9-9.28-2.76-14.02.95.21,1.89.45,2.82.77,4.3,1.48,9.92,6.04,8.33,11.22-.12.38.12.87,0,1.25.96-3.13.22-6.64-1.77-9.21Z"/>
  <path class="cls-1" d="m467.94,265.63c-3.37,2.74-7.19,4.87-11.29,6.3-.37.13.33.31.52.25,15.12-5.26,25.42-19.84,25.13-35.87-.08-4.49-.98-8.93-2.62-13.1-.08-.2-.82-.17-.73.06,5.87,14.9,1.41,32.24-11.02,42.37Z"/>
  <path class="cls-1" d="m462.22,288.17c.4-.28-.22-.39-.45-.23-8.74,6.24-19.56,9.09-30.24,7.98-.29-.03-.77.37-.28.42,10.91,1.14,22.05-1.8,30.97-8.18Z"/>
  <path class="cls-1" d="m369.14,497.17c1.47-6.11,1.08-12.54-1.1-18.43-.06-.15-.3-.08-.24.07,2.17,5.85,2.56,12.23,1.1,18.3-.04.16.2.22.24.07Z"/>
  <path class="cls-1" d="m360.45,464.52c.09.13.31,0,.22-.13-1.79-2.64-3.57-5.28-5.36-7.92-.09-.13-.31,0-.22.13,1.79,2.64,3.57,5.28,5.36,7.92Z"/>
  <path class="cls-1" d="m283.58,377.14l.03-.03c.76-1.83.18-3.65-.77-5.3-.06-.13-.13-.26-.2-.39.05-.3.04-.57-.07-.78-2.43-4.15-5.59-7.71-9.23-10.6.02,0,.04-.02.06-.03.3-.03.59-.11.86-.22.04-.02.13-.06.15-.11.02-.04-.02-.06-.05-.07-.17-.02-.36.04-.51.1h-.01s-.02,0-.03.02h-.01s-.02.01-.03.01h-.02c-.05-.02-.14-.02-.18-.01-.03,0-.07.01-.11.02-.04-.01-.09-.01-.13-.02-.07-.02-.16,0-.23.01-.03.01-.06.02-.1.03-.03-.02-.06-.04-.09-.07.27-.03.54-.08.79-.15.09-.03.18-.06.25-.11.03-.02.1-.07.08-.12-.03-.11-.33-.04-.39-.02-.08.02-.14.03-.21.05-.02.01-.03.01-.03.01h-.04s-.06.02-.1.02c-.06.01-.13.02-.19.03,0,0-.05.01-.06.01-.04,0-.08,0-.12.01-.06,0-.12-.01-.18-.01.04-.01.07-.03.11-.05.03-.03.06-.05.08-.09.03-.02.04-.05.05-.09v-.06s-.04-.07-.08-.09c-.02-.01-.05-.02-.07-.03-.06-.02-.12-.02-.17-.01-.13.02-.26.04-.39.06-.05,0-.1.02-.14.04h-.01c-.06-.05-.13-.11-.2-.16.15-.02.3-.04.45-.08.09-.03.17-.07.23-.15.05-.05.08-.14.06-.21-.06-.16-.28-.2-.43-.16-.1.04-.21.06-.31.09-.02,0-.03,0-.05.01h-.05c-.05.01-.1.02-.16.02-.03,0-.07,0-.11,0,.19-.09.38-.19.54-.33.03-.03.09-.08.07-.14-.01-.05-.09-.07-.13-.08-.17-.02-.38.03-.51.14-.05.03-.09.07-.14.1h-.01s-.04.03-.06.05c-.03,0-.05.02-.07.03-.01,0-.01.01-.02.01-.02.01-.04.02-.06.02h-.01s-.03.02-.04.02h-.01s-.06.02-.08.03h-.01c-.08-.06-.17-.12-.25-.18.21-.13.4-.28.56-.47.03-.05.03-.12-.01-.17-.04-.05-.13-.07-.2-.07-.17-.01-.34.05-.45.18h-.01s-.02.03-.03.04c-.02.02-.04.04-.05.06-.04.03-.08.07-.12.1h-.01s-.04.04-.07.05c0,.01-.01.01-.01.02-.22-.15-.45-.28-.67-.42.14-.07.27-.13.41-.2.07-.03.15-.09.18-.16.03-.05.04-.13,0-.17-.12-.13-.35-.1-.49-.04-.19.1-.38.19-.57.28-.19-.11-.37-.23-.56-.34.09-.11.18-.23.27-.34.03-.05.04-.1,0-.14-.04-.05-.14-.06-.19-.06-.1,0-.2.02-.29.06-.07.03-.14.07-.19.13-.02.03-.05.06-.07.09-.07-.04-.14-.07-.2-.11.1-.19.21-.38.31-.58.03-.06.03-.14-.01-.19-.05-.06-.14-.09-.21-.1-.17,0-.38.06-.47.22-.06.11-.13.23-.19.34-.01,0-.02,0-.03,0,.09-.19.17-.37.26-.56.19-.12.37-.27.52-.44.03-.04.04-.08,0-.12-.04-.04-.13-.04-.18-.04-.08,0-.16.03-.24.05-.04-.05-.11-.08-.18-.09-.08-.01-.18.01-.26.04,0-.02,0-.05-.03-.07-.12-.12-.34-.06-.48-.01-.05.02-.1.03-.15.05,0-.05-.02-.1-.07-.13-.16-.1-.37-.05-.52.05-.02.01-.04.02-.06.03-.03-.09-.16-.11-.25-.11h-.05c-.26.02-.51.04-.77.06-.04,0-.08.03-.12.04-.18-.08-.36-.16-.54-.23.12-.04.24-.07.37-.11.08-.02.17-.07.23-.13.05-.05.09-.14.06-.2-.05-.17-.28-.18-.42-.14-.33.09-.66.18-1,.27-.04-.02-.1-.04-.15-.06.03-.01.05-.02.08-.03h.02c.07-.03.14-.05.2-.08.14-.05.28-.25.17-.39-.12-.15-.34-.13-.5-.06-.04.02-.08.03-.12.05-.01,0-.03.01-.03.01-.01,0-.02,0-.02.01-.38-.02-.76-.04-1.14-.06-.03,0-.05.02-.08.02-.49-.17-.98-.34-1.48-.49-.24-.1-.49-.2-.73-.3.01,0,.01-.02.02-.02,0-.03.01-.05.02-.07,0-.05-.01-.09-.04-.13-.12-.21-.25-.42-.38-.64-.04-.06-.14-.09-.2-.09-.09-.01-.21,0-.29.05-.01-.02-.02-.04-.02-.07-.03-.12-.04-.25-.03-.35,0-.06-.02-.1-.07-.13-.07-.03-.17-.03-.24-.02-.1.02-.2.04-.28.09-.04.03-.13.09-.14.15,0,.07.01.13.02.2-.06-.09-.11-.17-.17-.26-.04-.06-.14-.08-.2-.09-.09,0-.2.01-.28.05-.13.07-.28.2-.18.35.11.18.22.35.34.53-.01,0-.03-.01-.04-.01-.22-.19-.43-.38-.64-.57-.06-.05-.13-.07-.2-.07-.09-.01-.2.02-.28.05-.05.03-.1.06-.15.1-.05.02-.1.04-.14.07-.04.04-.08.08-.1.13-4.1-.74-8.34-.82-12.56-.17-.13-.01-.27-.04-.4-.06-.07,0-.14.01-.21.03.16-.17.16-.41-.19-.35-5.15.91-10.01,2.99-14.2,6.1-.55.35-1.08.71-1.61,1.09-.12.09-.13.34-.1.63-.21.09-.43.18-.65.27-.06.03-.31.14-.21.23.05.04.14.04.19.04.1,0,.2-.02.28-.06.15-.06.29-.12.43-.18,0,.04.01.08.02.12-.07.06-.12.14-.11.23-.03.02-.07.02-.1.04s-.1.06-.09.1c0,.05.1.05.13.05.08,0,.16,0,.24,0,.08.47.13.9-.03,1.02.42-.3.84-.58,1.27-.87-.05.1-.06.21.01.32,1.17,1.81,2.52,3.49,4.02,5.02-.09-.02-.18-.03-.27-.05-.17-.03-.39.01-.51.14-.04.04-.09.1-.07.16,0,.04.04.06.08.08-.08.04-.15.08-.19.14-.09.15.08.22.2.23h.04s-.08.07-.1.1c-.16.04-.32.08-.48.12-.09.02-.07.09.02.07.14-.04.29-.07.43-.11,0,.03,0,.05.03.07.11.13.35.06.48.02.02-.01.03-.01.03-.01.03-.01.06-.02.09-.03s.06-.01.09-.02h.02c.11-.03.24-.04.36-.05h.12c.07,0,.13.01.2.01,0,0,.02,0,.03.01.03,0,.06,0,.09,0,.07.01.13.02.2.04h.03c.05.04.1.09.15.14-.11.04-.22.07-.33.1-.09.02-.06.13.03.1.12-.04.25-.07.38-.11.05.05.1.09.16.14-.13.03-.26.06-.38.09-.08.01-.18.06-.24.12-.04.03-.09.1-.07.16.05.15.29.11.41.08.21-.05.42-.09.63-.14.01.01.03.03.05.04-.11.04-.22.07-.34.11-.08.02-.17.06-.24.12-.04.04-.09.11-.07.17.06.15.3.13.42.1.19-.06.39-.12.58-.19.09.08.17.16.26.23-.01.02-.03.03-.03.04-.03.03-.04.06-.05.1,0,.01.01.02.02.03-.1.05-.2.09-.3.14-.07.03-.15.1-.18.17s-.03.15.02.21c.11.15.34.13.49.06.2-.09.4-.18.6-.27.71.57,1.44,1.13,2.2,1.64-.01,0-.02,0-.03.02-.02.01-.06.04-.03.07.01.03.07.02.09.01.02-.01.04-.02.06-.03.85.57,1.71,1.09,2.6,1.59-.37.14-.7.37-.98.65-.06.07-.07.15-.05.22-.52.4-1.01.85-1.45,1.35-.06.07.08.1.13.05.42-.48.88-.91,1.38-1.3.03.02.06.04.09.06.19.06.38,0,.51-.14.01-.01.02-.01.02-.02.02-.01.04-.03.06-.05.04-.04.08-.07.13-.1.04-.03.08-.06.12-.09.02-.01.05-.02.07-.03-.02.02-.04.05-.05.09-.01.05.03.11.08.13.16.08.37.02.51-.06.14-.08.28-.17.42-.25t.02.01c-.32.22-.61.48-.83.79-.05.06-.09.12-.07.2.02.06.09.11.15.13.09.03.19.03.28,0,.08-.02.19-.06.24-.13.08-.12.17-.23.26-.33.05-.05.1-.09.15-.14l.03-.03s.05-.04.08-.06c.06-.05.11-.09.17-.12.02-.02.04-.03.06-.04.77.37,1.55.71,2.34,1.02-.36.22-.72.44-1.08.66-.1.06-.16.19-.1.28-.11.1-.23.19-.33.3-.07.07.07.1.12.05.1-.1.21-.19.32-.29.15.05.32.02.45-.06.11-.06.21-.13.31-.19,0,.02.01.04.02.05t-.02.01c-.05.03-.12.1-.13.17-.01.06.02.12.08.15.16.08.37.02.51-.06.3-.17.6-.34.9-.51.03-.02.06-.06.09-.1.02-.01.05-.01.07-.02.49.17.98.35,1.48.5-.13.12-.24.25-.36.37-.34.21-.65.45-.93.74-.19.14-.38.29-.56.45-.1.09-.16.23-.07.34-.04.07-.09.13-.13.19-.02.04.02.07.05.09-.35.42-.7.85-1.01,1.3-.04.05.11.03.13,0,.3-.45.64-.87.99-1.28.05,0,.1.01.14,0,.16-.02.34-.07.42-.22.05-.08.11-.15.16-.23.35-.3.73-.55,1.13-.76-.01.03-.03.06-.03.09-.01.02-.01.04.01.05.01.02.03.03.05.04.03.01.07.01.1.01.05,0,.09,0,.13-.01.1-.02.19-.04.28-.09.02-.01.04-.02.07-.04.03-.02.06-.05.07-.08t.01-.02h.06s.06-.01.09-.02c.07,0,.13-.04.18-.07.07-.05.15-.1.23-.14-.04.05-.08.1-.11.14-.02.01-.05.01-.06.02-.28.17-.56.34-.83.51-.05.03-.13.08-.14.14-.02.05.02.09.06.11.08.02.16.02.24.01.07-.01.14-.04.21-.07.02.05.08.09.13.1.19.03.37-.03.52-.14.04-.04.09-.07.14-.11.05.02.11.04.17.03.09-.01.19-.04.27-.1.15-.11.31-.23.46-.35-.05.06-.11.12-.17.18-.04.04-.08.13-.06.19.02.07.09.12.15.14.04.01.07,0,.11,0-.36.42-.72.83-1.08,1.25-.06.06.08.07.12.03.37-.43.74-.85,1.11-1.28.1-.02.19-.07.26-.13.09-.1.19-.2.29-.3.02-.01.05-.01.07-.03.07-.05.14-.11.21-.16-.1.17-.21.34-.32.51-.03.05-.04.1,0,.14.04.05.14.06.2.06.09,0,.19,0,.28-.05.07-.03.15-.07.19-.14.15-.24.3-.47.45-.7.01-.02.02-.04.02-.06,2.07.44,4.16.68,6.28.72,4.04.06,8.06-.41,12.1-.6,4.75-.22,9.76-.1,14.04,2.24.27.14.91-.23.56-.42Zm-16.53-21.94c-.06.14-.12.28-.19.41h0s-.03.02-.04.02,0,0-.02.01c-.07.02-.15.05-.22.1-.15-.08-.29-.15-.44-.22.31-.1.61-.21.91-.32Zm-2.92,6.53v.02s-.01-.02-.02-.03c.01,0,.01.01.02.01Zm-6.72,11.33s.06.04.1.06c-.07.01-.14.03-.2.05.04-.04.07-.07.1-.11Zm-2.35-17.23s.02.02.03.03c-.05.01-.1.03-.14.05.04-.03.07-.05.11-.08Zm-2.03,8.77s.07.07.1.11c-.04-.04-.08-.07-.12-.1.01,0,.01-.01.02-.01Zm-1.27,6.63c.06.04.13.07.19.11-.06-.04-.13-.07-.19-.1h0Zm-.06-10.14s.02.03.03.05c-.03-.01-.06-.03-.08-.04.02,0,.03-.01.05-.01Zm-1.03-.51c.05.06.11.11.17.16-.11-.05-.22-.09-.33-.13.05,0,.11-.02.16-.03Zm-2.19-2.93c-.05,0-.1,0-.15,0-.02-.04-.03-.07-.06-.11.07.04.14.07.21.11Zm-5.95-5.48s0,.02,0,.03c-.77.14-1.54.3-2.31.49-.53.13-1.05.28-1.57.43,1.28-.4,2.58-.72,3.89-.95Zm-13.7,7.88c.06-.04.13-.08.2-.12.02.03.04.07.06.1-.08,0-.17,0-.26.02Zm17.63,14.68s.09-.11.14-.15c.08.02.16.04.24.07-.14,0-.28.03-.38.08Zm1.47.28s0-.05-.02-.08h-.01c.05,0,.1.01.15.03-.04,0-.08.03-.12.05Zm.57.11s.02-.03.03-.04c.02,0,.04,0,.05,0-.03.01-.05.02-.08.03Zm.42.29s.03-.04.03-.07c.01-.04-.01-.07-.03-.1.01-.02.02-.03.03-.04,0-.01-.01-.02-.01-.03.06.01.12.02.18.04-.07.07-.14.13-.2.2Zm33.92,1.38c-6.73-3.27-14.72-1.85-21.9-1.48-3.49.18-6.94.06-10.34-.68,0-.09-.08-.17-.29-.21-1.51-.3-2.99-.71-4.43-1.22-2.69-1.06-5.24-2.47-7.57-4.17-3.5-2.56-6.44-5.78-8.67-9.48,5.32-3.18,11.39-5.04,17.58-5.42-2.37,1.84-4.02,4.58-4.41,7.56-.01.09-.02.18-.03.26-.07.7-.08,1.41,0,2.12.54,5.22,5.2,9.4,10.35,9.76.03,0,.05.02.09.03,4.7.6,9.68-1.89,11.84-6.15,1.67-3.28,1.44-7.26-.28-10.43,3.19,1.41,6.2,3.25,8.91,5.47,3.33,2.72,6.17,5.98,8.42,9.63.54,1.38.93,2.82.72,4.31,0,.04,0,.07.02.1Zm-37.96-18.76c-.06-.05-.14-.07-.22-.08.28-.54.6-1.05.95-1.54.03.05.08.1.19.13.35.11.68.26,1.02.39-.02.02-.04.05-.06.07h-.01s0,.01-.01.01c-.14.14-.26.3-.34.47-.28.34-.46.74-.53,1.16-.34-.19-.67-.39-.99-.61Zm.22,1.63h-.03s.02-.01.03,0Z"/>
  <path class="cls-1" d="m288.04,367.9s.17-.01.14-.05c-4.57-5.63-10.06-10.47-16.22-14.3-.04-.03-.17.03-.14.05,6.16,3.83,11.65,8.67,16.22,14.3Z"/>
  <path class="cls-1" d="m274.15,381.9c.08,0,.11-.12.01-.11-14.94,1.26-31.5,1.88-44.03-7.8-.05-.04-.18.03-.11.09,12.55,9.7,29.16,9.09,44.13,7.83Z"/>
  <path class="cls-1" d="m365.12,363.58c-8.75,2.16-16.95,6.12-24.09,11.62-.06.05.08.03.11,0,7.11-5.48,15.28-9.42,23.99-11.58.08-.02.07-.07-.01-.05Z"/>
  <path class="cls-1" d="m389.39,390.04c-5.48,1.81-11.33,2.21-17.02,1.18-.03,0-.16.05-.12.05,5.74,1.04,11.65.62,17.18-1.2.1-.03,0-.05-.05-.03Z"/>
  <path class="cls-1" d="m288.79,347.43c-.05.23.68.11.72-.11.74-3.73.69-7.57-.16-11.27-.05-.21-.78-.03-.72.19.84,3.68.9,7.48.16,11.19Z"/>
  <path class="cls-1" d="m291.46,347.34c.21-3.57.41-7.14.62-10.72.02-.28-.71-.13-.72.1-.21,3.57-.41,7.14-.62,10.72-.02.28.71.13.72-.1Z"/>
  <path class="cls-1" d="m299.27,337.72c-3.23,1.38-5.71,4.25-6.61,7.64-.09.36.65.28.74-.05.09-.33.2-.64.32-.96.01,0,.01.02.03.02.16.05.39-.02.51-.14,1.13-1.15,2.4-2.13,3.79-2.93.12-.07.19-.22.06-.31-.15-.1-.38-.02-.51.06-1.34.77-2.57,1.71-3.67,2.79,1.09-2.52,3.14-4.59,5.68-5.68.45-.19.05-.61-.33-.45Z"/>
  <path class="cls-1" d="m296.49,342.63c-1.03,1.52-2.07,3.05-3.1,4.57-.26.38.42.48.6.21,1.03-1.52,2.07-3.05,3.1-4.57.26-.38-.42-.48-.6-.21Z"/>
  <path class="cls-1" d="m295.58,348.37c1.35-2.48,3.82-4.3,6.62-4.75.12-.02.4-.09.41-.25,0-.16-.19-.19-.32-.17-3.09.49-5.89,2.39-7.39,5.14-.17.31.56.25.68.03Z"/>
  <path class="cls-1" d="m345.78,354.78l-5.44-3.82c-.26-.18-.9.18-.56.42l5.44,3.82c.26.18.9-.18.56-.42Z"/>
  <path class="cls-1" d="m341.08,346.05c-.17-.12-.8.17-.68.25,2.97,2.02,5.15,5.06,6.1,8.53.05.18.77-.02.72-.19-.96-3.48-3.16-6.56-6.14-8.59Z"/>
  <path class="cls-1" d="m346.61,349.57c.96,1.57,1.38,3.42,1.21,5.25-.03.36.7.26.73-.06.18-1.92-.27-3.85-1.28-5.5-.16-.27-.86,0-.66.31Z"/>
  <path class="cls-1" d="m204.55,336.05c-.34.04-.61.43-.11.37,2.49-.28,5.01-.22,7.49.17.16.02.4-.02.51-.14.1-.1.1-.21-.06-.23-2.59-.41-5.22-.46-7.83-.17Z"/>
  <path class="cls-1" d="m217.05,335.2c-3.9-1.07-7.97-1.33-11.98-.79-.32.04-.63.39-.12.32,3.85-.52,7.77-.25,11.52.78.19.05.83-.24.59-.31Z"/>
  <path class="cls-1" d="m426.43,353.43c-.35-.04-.7-.07-1.06-.11.11-.06.17-.12.08-.14-6.29-1.68-12.81-2.22-19.26-1.66,6.09-1.13,12.34-1.16,18.46-.08.17.03.47-.13.55-.27.21-.06.41-.19.32-.32-.17-.25-.36-.48-.54-.73.05-.04.07-.09.03-.13-.16-.17-.34-.34-.51-.52-.45-.58-.92-1.14-1.42-1.67-.06-.07-.19-.07-.32-.04-.59-.56-1.21-1.08-1.84-1.59.03-.07.03-.15-.07-.23-1.47-1.13-3.08-2.07-4.79-2.78-.3-.13-.84.3-.42.48.7.29,1.37.63,2.03.99.72.43,1.4.89,2.05,1.39-.73-.43-1.48-.84-2.25-1.21-.17-.08-.83.19-.59.3,1.28.62,2.5,1.33,3.67,2.12-1.09-.07-2.18-.1-3.27-.11-.07-.01-.14-.03-.21-.04.19-.08.35-.17.24-.19-2.51-.32-5.04-.45-7.56-.41-1.59-1.42-3.37-2.6-5.31-3.51-.17-.09-.84.19-.58.31,1.79.84,3.44,1.94,4.94,3.23-.29.01-.59.01-.88.02-.06-.05-.14-.09-.25-.09-1.61-.04-3.22-.01-4.82.05-.01,0-.01-.01-.02-.01-.02-.01-.04-.01-.07-.02t-.02-.01c-1.41-.52-2.87-.81-4.36-.88-.55-.08-1.1-.16-1.65-.22-.04-.03-.09-.05-.17-.06-.4-.03-.79-.06-1.19-.08-.05-.01-.11,0-.16.02-.35-.05-.7-.1-1.05-.13h-.01s-.05-.01-.08-.01h-.02c-.18,0-.36-.03-.53-.04-.02-.06-.07-.11-.22-.11-.51-.01-1.02-.01-1.54,0,2.87-.46,5.77-.76,8.69-.89-.14.1-.28.21-.41.32-.31.24.41.2.57.08.23-.19.47-.38.71-.57.17-.13.02-.22-.13-.22-3.77.15-7.51.58-11.21,1.27-1.29-.12-2.57-.13-3.84-.05.17-.15.17-.37-.19-.37-.16.01-.32.03-.49.03,0-.08-.07-.14-.23-.14.21-.02.43-.03.64-.05.02,0,.06-.01.11-.03.19-.01.39-.02.58-.04.04,0,.17-.03.29-.08.07-.01.14-.01.22-.02.09-.02.75-.26.39-.27-.48-.01-.96-.01-1.44,0-.03-.01-.07-.01-.14,0-.04,0-.07.01-.1.01-.17,0-.33.01-.49.02.17-.04.35-.07.53-.11.27-.06.66-.32.15-.24-.79.13-1.57.26-2.35.38-.04,0-.07,0-.11.01.04-.14,0-.27-.22-.28-.12-.01-.23-.01-.35-.01.09-.03.18-.05.27-.07.15-.04.27-.11.29-.17,2.03-.32,4.07-.52,6.13-.58.28-.01.76-.45.27-.43-1.54.04-3.07.16-4.59.35-.03-.06-.11-.1-.27-.09-.53.02-1.05.05-1.58.09.1-.11.12-.25.03-.33.11-.16.05-.38-.26-.39-.56-.02-1.12,0-1.68.04-.19,0-.38,0-.57.01.07-.16,0-.33-.29-.3-.47.06-.95.12-1.43.18.09-.17.01-.37-.27-.37-1.5.02-2.98.18-4.44.48-.04-.06-.11-.11-.26-.09-.03,0-.07,0-.1.02h-.01c-1.09.16-2.15.41-3.19.73.12-.15-.02-.35-.34-.26-.92.25-1.82.56-2.71.9-.04-.1-.17-.18-.37-.11-1.41.44-2.76,1.01-4.06,1.69-.1-.05-.23-.05-.31-.02-1.7.49-3.29,1.26-4.73,2.26.18-.33.35-.67.51-1.02,1.97-1.49,4.22-2.63,6.63-3.27.43-.11.36-.39-.07-.28-2.02.54-3.94,1.4-5.69,2.51.03-.07.08-.12.1-.18.08-.18-.57.01-.63.05-.29.19-.57.42-.85.62.39-.53.75-1.09,1.04-1.69.01-.02.01-.03,0-.04.65-.4,1.33-.76,2.04-1.06.46-.18.05-.58-.32-.42-4.77,1.96-8.44,6.2-9.71,11.2-.05.19.15.25.35.21-.32.59-.63,1.19-.91,1.8-.03.06.19.07.4.03-.35.66-.49,1.37-.4,2.18.02.24.48.13.59.04.36-.29.71-.58,1.07-.88.2-.15.4-.32.61-.47-.08.13-.17.24-.25.37-.2.33.53.33.69.07.08-.14.18-.27.26-.4.13.05.38.04.51-.03,1.59-.88,3.26-1.61,4.99-2.18.73-.21,1.46-.42,2.18-.63.31-.09.34-.27.19-.33.14.05.32.07.45-.02.06-.04.13-.08.19-.12h0c.03.16.22.19.36.17-.24.1-.47.2-.71.3-.04.02-.08.05-.1.08-.15.04-.29.07-.43.11-.43.12-.33.53.11.4.61-.17,1.23-.33,1.85-.48.05.1.18.17.38.12.72-.18,1.44-.36,2.17-.54,0,.04.03.06.06.08-.5.28-1,.56-1.5.85-.41.25.23.29.44.17.61-.36,1.22-.7,1.84-1.04.35-.02.71-.05,1.07-.08h.06c.33-.03.66-.07.99-.11-.03.02-.06.05-.08.09-.05.14.05.18.19.18.06,0,.12,0,.18,0-.17.03-.34.06-.51.08-.41.06-.55.62-.06.56,2.17-.27,4.3-.75,6.38-1.41.15-.04.29-.08.43-.12h0c0,.17.18.25.33.22,1.22-.2,2.44-.44,3.66-.69-.27.15-.19.38.19.27,1.15-.36,2.31-.68,3.48-.99.45-.11.9-.21,1.35-.34,2.21-.54,4.45-1.01,6.69-1.39.21-.01.43-.02.64-.03-.74.18-1.48.37-2.22.59-.08-.07-.27-.1-.44-.02-.52.25-1.05.47-1.59.68-.02.01-.04.02-.07.03-.02,0-.06.02-.08.04-.9.35-1.81.65-2.74.9-.39.06-.77.09-1.16.1-.16.01-.39.05-.48.2-.02.04-.02.08-.01.11-.63.13-1.27.24-1.91.33-.12.01-.4.09-.4.26,0,.16.19.19.32.17.6-.07,1.2-.19,1.8-.3.07.03.16.04.23.03.41-.08.81-.17,1.21-.26-.23.05-.47.12-.7.17-.01,0-.03,0-.04,0l-.18.03c-.14.02-.26.11-.33.19-.45.05-.9.1-1.35.13-.41.03-.55.58-.06.55.75-.05,1.49-.14,2.23-.24-.01.01-.02.01-.03.02-.31.18.41.1.55.03.11-.06.22-.11.33-.17,1.3-.22,2.59-.5,3.86-.88.23-.07.3-.23.27-.36,2.61-.55,5.22-1.1,7.83-1.65-1.02.35-2.04.72-3.04,1.13-.59.1-1.18.21-1.77.32-.14.02-.28.12-.34.2-.04,0-.07,0-.1,0-.41.03-.83.07-1.24.08-.03,0-.07.01-.11.03-.17.01-.34.03-.51.04-.37.02-.59.46-.09.43.9-.05,1.81-.14,2.7-.25.04,0,.07.01.11,0,.19-.01.38-.03.58-.05.06.07.18.11.34.05t.02-.01c.06.03.15.04.21.03.2-.01.4-.04.59-.05-.03.12.08.17.2.17,2.12,0,4.23-.33,6.25-.97h0c1.98-.31,3.98-.54,5.98-.68.21-.02.34-.16.37-.29.11-.01.21-.01.32-.02h.03c.5.02,1,.04,1.5.07-1.75.23-3.5.55-5.23.96-.17.04-.24.13-.25.22-2.27.32-4.53.78-6.75,1.37-.42.11-.37.35.06.23,2.32-.62,4.66-1.08,7.03-1.39h.03s.03-.01.04-.01c6.62-.85,13.35-.48,19.87,1.08-5.23-.44-10.49-.32-15.7.39-.34.05-.6.46-.1.39,6.05-.82,12.18-.86,18.24-.09.22.03.85-.34.44-.39Zm-39.86-1.37c-.39.11-.79.2-1.19.3.35-.09.7-.18,1.05-.29.07-.01.14-.03.21-.04-.02.01-.05.02-.07.03Zm34.28-4.49s.09-.01.16-.03c1.03.73,2.01,1.53,2.95,2.38.25.34.51.67.75,1.02-4.41-.74-8.87-.93-13.3-.56-.03-.05-.09-.08-.19-.09-.5-.05-.99-.08-1.48-.12,3.76-.23,7.53-.25,11.3-.01.05,0,.15-.03.25-.06.26.09.61-.18.53-.38.41.21.81.42,1.22.62.16.09.38.05.52-.05.1-.07.21-.25.05-.33l-.81-.42c-.19-.14-.39-.26-.59-.39.03-.04.02-.08-.04-.12-.43-.21-.86-.41-1.3-.6-.1-.04-.19-.09-.28-.13-.64-.32-1.29-.61-1.96-.83.74.02,1.48.05,2.22.1Zm-1.26,1.1c-.08-.01-.17-.02-.26-.03-.21-.08-.42-.15-.63-.22.3.08.6.16.89.25Zm-2.24-1.01c.08.02.17.05.25.07-.08-.01-.16-.03-.25-.04,0-.01.01-.01.01-.01,0-.01-.01-.01-.01-.02Zm-.41-.07c-.06.01-.11.02-.17.03-.01,0-.02,0-.04.01-.09-.02-.17-.03-.26-.05.16,0,.31,0,.47,0Zm-.66-.47c-.9.01-1.81.03-2.71.07-.99.02-1.98.05-2.97.11-.19-.19-.37-.37-.56-.54,2.08-.01,4.16.11,6.24.36Zm-6.17.62c.11.12.24.22.35.34.14.15.82-.11.67-.26-.05-.06-.11-.11-.16-.16.1-.01.2-.02.3-.03.83-.03,1.65-.05,2.48-.07.01.06.04.12.11.16-.16,0-.32,0-.48-.02-.16-.01-.4.05-.48.2-.09.14.07.2.19.21.99.04,1.97.09,2.95.13.22.06.44.13.66.19-1.49-.08-2.99-.11-4.48-.08.02-.06-.02-.11-.19-.12-1.58-.09-3.17-.13-4.76-.14.94-.14,1.89-.25,2.84-.35Zm-7.91,1.38h-.04c.96-.23,1.92-.44,2.88-.63,1.28-.02,2.57-.01,3.85.02-2.15.16-4.28.44-6.4.83.04-.12-.04-.23-.29-.22Zm2.98-1.01c.41-.05.82-.09,1.23-.13-.22.04-.44.09-.67.13h-.56Zm-1.79-.91s.04,0,.06-.01c.54-.07,1.08-.14,1.63-.19.84,0,1.69-.02,2.53,0,.18,0,.3-.09.35-.2.38-.02.77-.02,1.15-.02.21.18.4.38.6.58-2.52.16-5.03.44-7.52.85-1.49.08-2.99.2-4.48.34,0-.11-.08-.21-.25-.23,1.96-.49,3.94-.86,5.93-1.12Zm-4.2-.75c.24.04.48.09.72.13-.26,0-.52-.01-.78-.01.03-.04.05-.08.06-.12Zm-3.3.18c-5.12.22-10.21,1.06-15.13,2.5-.56.02-1.12.04-1.68.07.1-.03.2-.08.24-.14.11-.02.22-.04.33-.06.11-.01.38-.09.4-.23,5.14-1.46,10.48-2.19,15.84-2.14Zm-1.93.61c-3.19.45-6.36,1.09-9.48,1.89-.58-.02-1.16-.03-1.74-.03,3.67-.96,7.43-1.58,11.22-1.86Zm-18.81-.53c-.29.08-.59.15-.89.23.02-.01.03-.03.04-.05.08-.01.16-.03.21-.05.17-.09.33-.19.5-.28,1.27-.3,2.55-.6,3.82-.91.06,0,.11-.05.15-.09.2-.03.39-.07.59-.1.04.05.12.08.27.06.22-.03.45-.05.67-.08-1.71.4-3.4.89-5.07,1.47.02-.01.03-.03.03-.04.06-.04.1-.08.08-.13-.03-.12-.33-.05-.4-.03Zm-3.62,2.28c-.08.02-.17.04-.26.06-.12.03-.19.09-.23.14-.28.11-.55.22-.83.34.01-.03.01-.06.01-.09.13-.06.25-.12.38-.17.09-.05.14-.11.16-.17.46-.16.93-.31,1.39-.45.14-.03.28-.07.42-.09.09-.02.19-.08.25-.15.47-.15.94-.3,1.42-.43-.47.16-.94.34-1.4.51-.09.02-.18.05-.27.07-.11.03-.21.06-.31.09-.06.01-.31.08-.33.18-.13.05-.26.11-.4.16Zm.13.75c-.44.12-.88.24-1.33.37-.01-.03-.02-.05-.03-.08.36-.16.72-.32,1.09-.47.05.04.13.06.24.06,0,.04.01.08.03.12Zm.29-1.93c.13-.03.26-.06.39-.1-.12.05-.23.1-.35.14-.01-.01-.02-.03-.04-.04Zm1.45-1.44h-.03c-.26.03-.5.09-.75.13.58-.24,1.16-.46,1.74-.68.02,0,.02.01.04.01,2.14-.3,4.25-.74,6.33-1.31-.01.09,0,.16.07.22-.49.08-.98.16-1.47.25-.14.02-.28.04-.42.06-.07.01-.12.03-.17.06-.99.2-1.96.42-2.93.67-.81.18-1.61.38-2.41.59Zm5.58-1.72c-.65.13-1.3.25-1.95.38.73-.21,1.46-.4,2.19-.58-.18.05-.31.16-.24.2Zm-.72,5s.02-.02.04-.03c.37-.03.74-.06,1.12-.08-.07.02-.14.05-.22.07-.44.09-.89.17-1.34.26.13-.07.27-.14.4-.22Zm-.48-.71c-.56.09-1.12.17-1.69.28.4-.16.8-.31,1.2-.46.49-.05.98-.11,1.47-.15-.33.1-.65.22-.98.33Zm5.18-1.8c.46-.04.93-.07,1.39-.11-.93.14-1.86.3-2.79.46,0-.05-.02-.1-.08-.14.51-.15,1.01-.3,1.51-.45-.19.11-.38.27-.03.24Zm-1.36.68c-.25.06-.5.14-.75.21-.04,0-.09-.02-.16-.02-.05.01-.11.01-.16.02.36-.07.71-.15,1.07-.21Zm11.06-2.39h.22c-.05.02-.1.05-.15.07h-.1s.03-.04.03-.07Zm.99.58h-.64c-.26-.01-.53-.02-.79-.03.48-.01.96,0,1.43.03Zm-6.4-.2c1.19-.07,2.39-.09,3.58-.09-.02.08.13.1.2.1.25,0,.5,0,.75.01.01.09.09.13.18.14-1.76-.02-3.52.08-5.27.29-.63.04-1.26.1-1.89.18-.14.02-.27.09-.34.16-.37.07-.75.12-1.12.2,1.3-.36,2.6-.7,3.91-.99Zm-3.43.28c.49-.05.99-.1,1.48-.14-1.74.44-3.46.95-5.17,1.5-.36.05-.72.08-1.07.14.12-.03.24-.06.37-.09.44-.11.33-.51-.11-.41-.76.19-1.51.37-2.27.56-.1.01-.21.02-.32.03,2.33-.68,4.7-1.22,7.09-1.59Zm-2.34-2.68c-3.05.61-6.02,1.52-8.89,2.68-.07-.06-.17-.11-.34-.08-.67.12-1.34.28-2,.44,3.57-1.54,7.35-2.57,11.23-3.04Zm-1.83-.26c-.81.2-1.62.39-2.44.58-.04.01-.07.01-.11.02-.03-.01-.07-.01-.13-.01-.78,0-1.55.05-2.33.13.95-.19,1.91-.33,2.88-.41.12-.01.34-.11.43-.21.57-.03,1.14-.06,1.7-.1Zm-2.54-.3c.22-.03.45-.06.67-.09-.09.05-.14.11-.17.19-.42.06-.84.13-1.25.22-.15.02-.29.04-.44.06.4-.12.79-.25,1.19-.38Zm-2.31.31c.34-.05.67-.09,1.01-.14-.38.13-.77.25-1.15.37.1-.07.05-.1-.04-.11.08-.03.14-.08.18-.12Zm-.5.47s.01.01.02.01c-.02,0-.03,0-.04,0,.01,0,.02,0,.02-.02Zm-.64-.35s-.01,0-.01.01c-.1.03-.21.06-.31.09.11-.03.21-.07.32-.1Zm-2.58.63c-.04.05.08.07.21.07-.26.08-.52.15-.78.22.19-.1.38-.2.57-.29Zm-7.29,1.47c-1.08.63-2.11,1.36-3.11,2.12-.01-.01-.03-.02-.06-.02-.04-.01-.08,0-.12,0,1.04-.78,2.14-1.49,3.29-2.1Zm-2.71,5.09c.08-.03.15-.06.23-.09-.07.04-.14.09-.21.14-.03,0-.06,0-.1,0,.03-.02.06-.04.08-.06Zm-.52-3.93c.44-.23.89-.44,1.36-.63-.45.28-.89.58-1.32.89,0-.08-.02-.15-.09-.2,0-.01-.01-.01-.02-.01.02-.02.04-.03.07-.05Zm-2.53-1.13c-.11.17-.24.33-.36.49-.04,0-.09.01-.13.02.15-.17.33-.34.49-.51Zm-.15,1.69c-.03.06-.06.13-.1.2,0,.05-.04.09-.06.14-.05.01-.1.03-.11.05-.08.08-.15.16-.23.25v-.02s.01-.05.01-.07c.1-.08.2-.18.3-.26.04-.02.06-.06.09-.09.02-.05.04-.09.03-.14.03-.02.05-.03.07-.06Zm-4.96,4.51c.2-.47.4-.93.66-1.37,0,.06.09.08.19.08-.29.42-.58.85-.85,1.29Zm.67,1.29v-.02s.01.01.01.01c-.01,0-.01,0-.01,0Zm.03-.09s-.03.04-.03.06c0-.09-.05-.14-.12-.16.01-.03.02-.05.04-.08h.02c.1-.02.24-.05.34-.12-.09.1-.17.2-.25.3Zm.5,3.49s.06-.09.1-.14c.25-.12.5-.25.75-.37-.28.17-.56.34-.85.51Zm-.15-3.9c.19-.28.39-.56.57-.85.04.04.1.06.16.07-.25.26-.5.51-.73.78Zm-.37-2.22c.95-1.81,2.26-3.43,3.82-4.76-.74.77-1.45,1.57-2.08,2.44-.02.02-.01.04.01.05-.64.71-1.22,1.46-1.75,2.27Zm2.04,2.28s-.02,0-.03.02c.04-.06.09-.12.14-.18h.02c-.04.06-.09.11-.13.16Zm.65,2.28c.19-.13.39-.26.58-.39.04,0,.07.01.11.01.05-.01.09-.02.14-.03-.28.14-.55.27-.83.41Zm1.06-4.3c.18-.18.36-.36.55-.52-.17.17-.35.33-.51.51-.01,0-.03,0-.04.01Zm1.16,2.97c-.09.06-.18.11-.26.17-.14.04-.28.09-.42.14.13-.09.25-.17.38-.26.11-.03.22-.06.33-.08-.01.01-.02.02-.03.03Zm.45-.88s-.06.02-.09.04c.16-.14.34-.27.51-.4.06-.03.12-.05.19-.07-.21.14-.41.28-.61.43Zm1.25-1.44c-.06.02-.12.04-.18.06.04-.03.08-.05.12-.08.02,0,.04-.01.05-.02s.01-.01.02-.01c.04-.02.09-.03.14-.04-.05.03-.1.06-.15.09Zm.34-.88s-.06-.02-.09-.02c.04-.03.08-.07.13-.1.04,0,.08,0,.12,0-.06.04-.11.09-.16.13Zm.32,1.23s.04-.04.07-.07c.01,0,.03,0,.04-.01-.03.03-.07.06-.11.09h0Zm.11,2.14c.09-.06.15-.13.14-.2h.01s.07.09.16.11c-.11.03-.21.06-.31.09Zm.09-1.29s-.07.03-.11.04c.13-.07.26-.15.39-.22-.1.06-.19.12-.28.18Zm.2-2.71c.19-.13.38-.27.57-.4.05-.03.07-.06.07-.09.1-.07.2-.15.3-.23-.01.03-.01.05.02.07-.29.21-.58.43-.87.65h-.09Zm.33,1.15c.05-.06.1-.11.16-.16.06.03.15.05.24.05-.01,0-.02.01-.03.02-.12.03-.25.06-.37.09Zm.41,2.23c-.11.04-.23.08-.35.13.32-.18.64-.34.97-.51-.21.12-.41.25-.62.38Zm.65-6.08c.27-.18.54-.36.82-.51.12-.07.19-.16.07-.26,0-.01-.04-.01-.06-.01,1.86-1.16,3.85-2.09,5.93-2.77-1.37.55-2.68,1.24-3.9,2.07-.85.44-1.69.91-2.5,1.42-.12,0-.26.02-.36.06Zm.46.5c-.05.02-.09.05-.14.06.05-.03.1-.06.14-.09v.03Zm.28,1.27c-.07.03-.14.07-.21.1.32-.23.65-.45.99-.67-.27.18-.52.38-.78.57Zm.74,1.83c-.07.03-.14.06-.2.09-.04-.03-.08-.04-.13-.05.13-.03.27-.06.4-.09-.02.02-.05.03-.07.05Zm2.2-4.93c1.04-.51,2.12-.96,3.22-1.35.07.04.16.05.27.01.07-.02.14-.05.22-.08-.25.15-.51.28-.75.45-.26.18.21.15.31.12.65-.18,1.3-.37,1.96-.55-.15.08-.3.15-.44.24-.07.04-.09.07-.08.09-2.33.55-4.59,1.4-6.69,2.54.63-.53,1.29-1.03,1.98-1.47Zm1.94.13c-.81.38-1.6.82-2.37,1.28.04-.1-.14-.14-.32-.12.87-.44,1.77-.83,2.69-1.16Zm-3.2,3.8c-.15.05-.31.1-.46.16.15-.1.29-.2.44-.29.02.04.07.07.14.08-.04.02-.08.03-.12.05Zm.26-1.47c-.3.09-.58.21-.86.33,2.06-1.48,4.32-2.69,6.72-3.52,1.36-.32,2.73-.53,4.13-.62-.01.01-.02.01-.03.01-.94.27-1.87.57-2.79.9,0-.01.01-.03,0-.04-.08-.11-.39,0-.47.02-1.68.59-3.35,1.18-5.03,1.77-.09.03-.28.12-.2.24.07.11.39,0,.47-.03.04-.01.08-.02.12-.04-.69.32-1.38.65-2.06.98Zm2.97,1.05c-.05-.01-.09-.02-.15-.01.36-.13.7-.25,1.06-.35-.3.12-.61.24-.91.36Zm.41,2.42s-.06.03-.09.04h-.02s.07-.03.11-.04Zm-2.28-.16c-.11.02-.21.04-.32.07.35-.15.69-.29,1.04-.43l-.72.36Zm.57-2c.17-.06.34-.12.51-.17.03.01.06.02.1.03-.21.04-.41.09-.61.14Zm1.7,3.63s0,.02,0,.04c-.07.01-.13.03-.2.04-.27.03-.55.04-.82.06.03-.02.06-.04.09-.05.33-.05.66-.1.99-.14-.03.02-.05.03-.06.05Zm.7-3.06s-.08.04-.12.06c-.16.05-.32.1-.47.15.2-.09.39-.19.59-.28v.07Zm1.02,3.29c-.19.01-.38.02-.57.02.01,0,.02,0,.02-.01.23-.03.45-.05.67-.09-.05.02-.09.05-.12.08Zm.96-1.72c-.17.03-.34.07-.51.11.09-.04.18-.07.27-.11.11-.06.15-.13.17-.2.04-.02.08-.04.12-.05-.01,0-.02.02-.02.03-.01.09.08.12.16.13-.06.03-.13.06-.19.09Zm.45-.44c.05-.02.11-.05.16-.07,0,.01,0,.03.01.04-.06.01-.11.02-.17.03Zm-.85.02s-.04,0-.06,0c-.01.01-.03.01-.04.02.03-.05.03-.09.01-.13.32-.03.64-.18.9-.45.08-.02.15-.03.22-.05.1.03.24.01.3-.01h.02c-.45.2-.9.41-1.35.62Zm2.44-.49c-.24.03-.49.06-.73.09.32-.14.64-.29.96-.43.37-.07.73-.13,1.1-.2-.45.17-.89.36-1.33.54Zm.73-.91c-.53.12-1.07.22-1.6.35-.19.04-.39.07-.59.11-.02-.04-.05-.07-.09-.08,1.24-.35,2.47-.67,3.72-.97-.49.19-.96.39-1.44.59Zm1.55.64c-.07.01-.15.02-.22.03.52-.2,1.04-.42,1.57-.6.04,0,.09-.01.13-.01-.28.16-.56.31-.85.46-.21.04-.42.08-.63.12Zm1.41.58c.14-.05.29-.09.43-.14.02,0,.06-.03.09-.04,1.25-.45,2.51-.86,3.79-1.22.57-.01,1.14,0,1.71.02-.37.1-.74.21-1.11.32-.05-.09-.18-.14-.36-.07-.1.03-.2.06-.29.1-.08,0-.15.02-.19.03-1.66.37-3.3.81-4.92,1.3.28-.1.57-.2.85-.3Zm-.46.51c.25-.08.49-.16.72-.25h.01c.27-.08.55-.15.82-.23-.51.16-1.03.33-1.55.48Zm7.75-.66s0-.02-.01-.03c.1-.02.21-.04.32-.06-.1.03-.2.06-.31.09Zm.62-.47c-.17.05-.35.1-.52.15.1-.05.21-.1.31-.14.07-.02.15-.03.22-.05,0,.02-.01.03-.01.04Zm-.47-.44c-.19.04-.38.06-.57.11-.24.05-.31.17-.25.25-1.75.68-3.58,1.14-5.44,1.39,2.25-.77,4.53-1.45,6.84-2.03h.05c-.21.1-.42.19-.63.28Zm2.41.44s.01-.03.01-.05c.25-.04.49-.06.74-.1-.25.06-.5.1-.75.15Zm1.72-1.13c-.17.04-.34.08-.51.12-.22.03-.43.05-.65.08-.41-.03-.82-.06-1.23-.08.3-.07.6-.12.9-.19.05.07.21.04.27.03,2.74-.44,5.51-.72,8.28-.83.11-.01.43-.06.48-.18.06-.13-.04-.14-.17-.14-2.01.09-4.01.26-6.01.52,3.58-.68,7.21-1.11,10.85-1.31.29.01.59.03.89.04-1.77.29-3.54.67-5.28,1.14-.28.01-.57.01-.85.02-.06,0-.12-.01-.18-.01-.04,0-.08.01-.12.02-.36.01-.71.02-1.06.05-1.72.07-3.43.28-5.11.63-.1-.01-.24,0-.35.04-.05.02-.1.03-.15.05Zm5.67-.17s-.07.01-.1.02h-.11c.07-.01.14-.02.21-.02Zm-3.9.61c-.52.04-1.05.08-1.57.14.02-.02.05-.03.07-.04.48-.1.96-.18,1.44-.26.51-.02,1.02-.06,1.53-.07-.49.08-.98.15-1.47.23Zm3.6.49c-.09-.07-.29-.04-.36-.02-.08.03-.17.04-.25.07-.06,0-.12.01-.19.03-.04.02-.09.04-.14.05-.61.18-1.22.33-1.84.49-.31.07-.62.13-.93.2-.08.02-.12.06-.16.09-.42.1-.84.19-1.26.29.26-.1.51-.2.76-.31,1.77-.57,3.59-.97,5.44-1.18-.36.09-.71.19-1.07.29Zm1.96-.78c-.33.03-.66.08-.99.12.01-.02.03-.03.03-.05,0-.05-.02-.09-.05-.11,1.46-.19,2.92-.36,4.38-.48-1.03.21-2.05.44-3.07.69,0,0,.01-.01.01-.02.01-.16-.2-.16-.31-.15Zm.65.42c1.68-.41,3.37-.78,5.08-1.07.62-.04,1.23-.08,1.85-.1-1.01.22-2.02.47-3.02.74-1.3.11-2.61.24-3.91.43Zm1.75,1.37c-.28.04-.56.09-.84.13h-.01c.14-.04.28-.06.42-.09.31-.06.62-.11.93-.17-.17.05-.33.09-.5.13Zm-2.11-.2c1.09-.39,2.19-.73,3.3-1.05.39-.04.78-.06,1.17-.09-1.5.32-3,.69-4.47,1.14Zm11.5-.8c-.69-.03-1.37-.06-2.05-.06.3-.08.49-.42.02-.37-1.12.1-2.23.23-3.35.38-.04-.01-.1-.02-.2,0-.18.03-.36.07-.54.1-.14.02-.29.04-.43.06-.04,0-.08,0-.12.01,5.87-1.26,11.91-1.59,17.92-.98.53.2,1.05.41,1.58.64-4.29-.22-8.57-.15-12.83.22Z"/>
  <path class="cls-1" d="m348.05,342.65c1.49,3.16,2.24,6.62,2.2,10.12-.04.13-.09.26-.13.39-.03.12.42.08.62-.03.13-.05.24-.12.24-.21,0-.1,0-.2,0-.3.22-.71.49-1.39.81-2.06.17-.04.34-.1.34-.2,0-.2.04-.4.06-.6,1.47-2.69,3.72-4.94,6.47-6.34.43-.22-.24-.19-.42-.1-2.31,1.18-4.29,2.91-5.78,5,.67-2.45,2.33-4.64,4.6-5.8.42-.22-.25-.16-.41-.08-2.84,1.46-4.81,4.28-5.17,7.44-.2.36-.37.72-.54,1.09-.17-2.95-.89-5.84-2.16-8.52-.1-.21-.8.03-.72.19Z"/>
  <path class="cls-1" d="m243.55,142.1c.12-.03.73-.19.67-.4-.05-.2-.69-.03-.78,0-5.93,1.56-12.28.98-17.9-1.44-.27-.12-.67,0-.93.1-.05.02-.65.29-.44.38,6.12,2.64,12.94,3.06,19.38,1.36Z"/>
  <path class="cls-1" d="m265.38,137.54c-8.22-1.92-16.69-2.51-25.11-1.77-.38.03-1.57.66-.63.58,8.23-.73,16.5-.13,24.54,1.75.34.08,1.59-.47,1.19-.56Z"/>
  <path class="cls-1" d="m206.05,154.3c9.12,2.01,18.6,1.75,27.61-.7.86-.23.7-.87-.17-.64-8.67,2.35-17.77,2.54-26.54.61-.41-.09-1.69.55-.9.72Z"/>
  <path class="cls-1" d="m472.13,299.31c-.32-.02-.77.11-.96.38-2.28,3.16-5.34,5.7-8.9,7.29-.18.09-.59.31-.39.56.18.23.75.09.96,0,.72-.33,1.43-.7,2.12-1.09-1.17,13.6-3.84,27.06-7.94,40.09v.03s-.89,2.04-.89,2.04c-1.7,1.51-3.16,3.42-4.18,5.58-.01.01,0,.02,0,.03-.01.02-.03.03-.03.05-1.42,9.16-3.25,18.23-5.38,27.24,2.22-17.13,2.31-34.52.22-51.66-.63-5.17-1.46-10.31-2.48-15.41,2.62-.01,5.47-.45,7.85-1.56,1.14-.54,2.19-1.34,2.79-2.44-4.91,1.82-9.24,3.24-14.54,2.28-4.87-.87-9.45-3.16-13.37-6.12-6.53-4.92-11.57-11.5-17.24-17.38-5.68-5.88-12.43-11.29-20.47-12.76-4.11-.75-8.59-.5-12.14-2.7-3.01-1.87-4.88-5.45-4.68-8.99.2-3.54,2.46-6.89,5.67-8.4-1.27-.68-2.82.15-3.84,1.16-2.84,2.8-4.11,7.23-2.79,11.04.72,3.12,2.98,5.51,5.63,7.18,3.08,1.95,6.56,3.19,9.51,5.35,2.74,2.01,5.01,4.64,6.66,7.61,1.58,2.86,2.74,6.18,3,9.51-.26-4.64-1.66-9.1-4.41-13-1.99-2.81-4.56-5.14-7.54-6.85-.66-.38-1.34-.73-2.02-1.08.06.03.29-.05.36-.06.3-.04.6-.07.9-.1.79-.07,1.55-.05,2.34.03.91.1,1.82.24,2.73.41,1.56.3,3.11.65,4.6,1.23,1.45.57,2.83,1.29,4.17,2.09,2.62,1.56,5.04,3.45,7.3,5.49,2.29,2.05,4.42,4.26,6.49,6.53.71.78,1.42,1.57,2.13,2.36,6.57,7.31,13.37,14.86,23.1,17.93,1.94.62,4.38,1.13,7.04,1.21,3.28,16.42,4.57,33.21,3.82,49.93h0s-.63,2.47-.63,2.47c-.13,1.26-.26,2.53-.39,3.8l-1.22,5.8-1.96,9.26c-1.37,6.99-2.83,13.96-4.39,20.91-.01,0-.01.02-.03.05-.15.71-.29,1.43-.44,2.14-.31,1.5-.61,3-.92,4.5,0,.38-.17.83-.25,1.2-.08.42-.17.83-.25,1.25-.17.81-.33,1.61-.5,2.42h0s-.01.04-.01.05c-.62,2-1.23,3.98-1.87,5.97-2.28,7.18-4.64,14.33-7.02,21.48-.04.04-.06.09-.07.14-4.15,23.22-14.34,44.83-27.33,64.37-6.6,9.92-13.92,19.35-21.66,28.41-7.8,9.13-15.96,18.01-24.65,26.31-9.8,9.37-20.4,17.87-31.91,25.06-.58.36.26.67.66.42,20.67-12.9,38.04-30.08,53.99-48.34,6.01-6.88,11.8-13.98,17.24-21.35-1.18,27.38-5.29,54.92-15.09,80.62-8.69,22.79-22.01,43.92-40.12,60.4-9.93,9.04-21.26,16.53-33.62,21.81-.65.27-.07.74.43.53,21.91-9.37,40.31-25.54,54.13-44.8,15.51-21.6,24.94-46.93,30.07-72.89,3.08-15.53,4.66-31.32,5.28-47.12v-.03c8.21-11.29,15.57-23.21,21.47-35.87,5.08-10.88,9-22.29,11.43-34.04.07-.01.12-.03.16-.05,6.93-3.39,10.99-10.18,14.35-17.01,4.02-8.2,7.68-16.92,10.87-25.91,6.31-17.78,10.59-36.27,12.73-54.95.02-.17.05-.35.07-.53.22-1.68.48-3.78-1.03-4.9-1.23-.91-2.98-.55-4.23-.08-1.02.38-2,.91-2.93,1.55,4.31-13.42,7.09-27.3,8.3-41.35,0-.05-.09-.07-.22-.07,2.62-1.63,4.92-3.75,6.74-6.27.2-.27-.17-.39-.38-.39Zm-10.58,46.79c1.04-.26,1.88-.13,2.48.39.76.65,1.12,1.91.98,3.47-.16,1.83-.41,3.69-.65,5.49l-.11.77c-1.12,8.37-2.7,16.79-4.68,25.04-4,16.59-9.71,32.81-16.98,48.19-3.2,6.77-7.17,15.13-14.76,19.13.2-.96.4-1.92.57-2.88.01-.03,0-.04,0-.06,7.9-23.74,15.67-47.6,20.93-72.09,1.38-6.44,2.58-12.91,3.59-19.41,1.47-3.1,4.6-7.04,8.63-8.04Z"/>
  <path class="cls-1" d="m338.79,271.08c-4.31,6.49-11.66,10.8-19.49,10.99-.28,0-.82.04-1.02.27-.13.15-.28.32.08.31,8.66-.21,17.04-4.58,21.86-11.84.1-.15-1.19-.1-1.43.26Z"/>
  <path class="cls-1" d="m344.43,277.95c-5.62,4.9-12.72,7.83-20.15,8.35-.74.05-1.18.95-.18.88,7.93-.55,15.52-3.71,21.51-8.93.64-.56-.78-.63-1.18-.29Z"/>
  <path class="cls-1" d="m373.49,277.04c-11.84-1.11-17.84-12.84-21.17-22.84-.15-.44-1.59-.02-1.45.39,3.42,10.27,9.6,22.02,21.71,23.16.39.04,1.68-.63.91-.71Z"/>
  <path class="cls-1" d="m254.99,259.66c.87-.36-.49-.31-.83-.17-12.69,5.29-28.09,2.25-38.22-6.91-.28-.25-1.57.3-1.37.49,10.84,9.79,27.03,12.17,40.42,6.59Z"/>
  <path class="cls-1" d="m166.92,196.3c-3.89-2.49-9.41-2.57-13.27,0,4.44-.9,8.83-.81,13.27,0Z"/>
  <path class="cls-1" d="m157.07,190.43c4.32.07,8.35.49,12.27,2.3-2.96-3.32-8.28-3.99-12.27-2.3Z"/>
  <path class="cls-1" d="m159.38,205c.05-.01.09-.02.14-.02,2.62-.29,5.49-.16,7.78,1.08.01.01.02.02.03.02.69.5,1.36,1.03,2.01,1.59-1.12-2.32-3.31-3.92-5.39-5.31-2.15-1.33-4.42-2.47-6.88-3.12,1.51,1.15,3.08,2.17,4.65,3.16.52.33.29,1.12-.33,1.13-3.25.07-6.58,1.4-9.14,3.23.02-.01.05-.02.09-.03.6-.23,3.58-1.35,7.04-1.73Z"/>
  <path class="cls-1" d="m153.64,219.02c2.98-2.01,6.05-2.88,9.57-2.3-2.99-2.42-7.91-1.08-9.57,2.3Z"/>
  <path class="cls-1" d="m175.79,162.92c4.07-.59,8.07-1.29,12.1-1.72,3.96-.31,8.18-.93,11.9.83-.08-.1-.19-.21-.32-.32-.37-.32-.78-.59-1.2-.84l-1.59-.87c-.68-.34-1.44-.54-2.16-.79-.74-.25-1.46-.52-2.16-.84-1.61-.74-3.15-1.66-4.56-2.73-.49-.37-.97-.77-1.45-1.16l-1.69-1.58c.51.52,1.05,1.02,1.6,1.5-2.47-2.03-4.77-4.27-7.02-6.52l-.16-.16-.06-.06s.01.01.01.02c3.07,5.56,8.06,9.84,13.94,12.11-5.84-.41-12.92,1.49-17.18,3.13Z"/>
  <path class="cls-1" d="m175.79,169.81c4.71.84,8.66,3.05,12,6.38-1.91-4.47-7.21-7.37-12-6.38Z"/>
  <path class="cls-1" d="m231.32,150.66c-7.56-2.41-14.13-7.54-20.68-11.87,5.38,5.59,12.74,11.17,20.68,11.87Z"/>
  <path class="cls-1" d="m254.43,135.74c-7.81-3.32-13.49-9.87-19.4-15.72,4.36,6.75,11.19,14.19,19.4,15.72Z"/>
  <path class="cls-1" d="m267.46,130.1c5.91,3,12.34,4.93,17.91,8.53.75.56,1.47,1.17,2.12,1.87-1.09-1.57-2.63-2.79-4.22-3.85-4.86-3-10.18-5.15-15.28-7.66-6.77-3.3-12.97-7.75-18.67-12.67,5.11,5.67,11.29,10.39,18.14,13.78Z"/>
  <path class="cls-1" d="m269.84,126.54c6.97,3.47,14.62,5.29,21.47,8.95,1.7.9,3.33,1.95,4.73,3.3-2.5-3.04-6.09-4.94-9.59-6.6-10.8-5.21-22.74-6.29-27.56-18.93,1.42,5.74,5.63,10.71,10.94,13.28Z"/>
  <path class="cls-1" d="m292.12,125.55c-3.64-1.94-7.42-3.62-11.39-4.76,7.11,4.09,14.62,7.32,21.19,12.26-2.58-3.25-6.22-5.49-9.8-7.5Z"/>
  <path class="cls-1" d="m312.51,128.41c-3.91-6.8-11.35-11.22-18.89-12.85,7,3.29,13.61,7.16,18.89,12.85Z"/>
  <path class="cls-1" d="m327.92,130.63c1.71,4.03,3.1,8.31,5.15,12.22-.47-1.4-.89-2.82-1.3-4.24-.81-2.53-1.78-6-2.78-8.46-3.07-6.85-8.97-12.17-15.45-15.75,5.7,4.5,11.22,9.61,14.38,16.23Z"/>
  <path class="cls-1" d="m355.54,142.86c-8.11-4.32-14.44-12.05-15.84-21.25-.28-1.29-.29-2.62-.5-3.95-.06,1.33-.2,2.69-.1,4.02.42,9.56,7.42,18.23,16.44,21.18Z"/>
  <path class="cls-1" d="m365.3,139.98c1.04,6.65-2.37,13.43-7.28,17.83-1.64,1.57-3.5,2.91-5.42,4.16,8.29-3.9,15.4-12.51,13.91-22.22-1.01-4.64-4.79-7.92-7.03-11.93-1.52-2.67-5.95-9.94-2.54-12.26-3.84,2.17.24,9.87,1.72,12.73,1.97,4.05,5.65,7.24,6.64,11.69Z"/>
  <path class="cls-1" d="m359.36,160.68c9.09-2.82,19.86-8.52,23.5-17.83-5.38,8.58-14.82,13.23-23.5,17.83Z"/>
  <path class="cls-1" d="m380.05,126.02c-1.48,8.19-5.16,15.82-10.72,22.02,6.82-4.99,10.99-13.58,10.72-22.02Z"/>
  <path class="cls-1" d="m391.41,131.9c-2,2.1-3.61,4.27-4.98,6.86,2.56-1.39,4.49-3.97,4.98-6.86Z"/>
  <path class="cls-1" d="m414.77,146.64c-5.74,8.97-14.53,15.26-23.36,20.94,9.63-4.15,19.12-11.05,23.36-20.94Z"/>
  <path class="cls-1" d="m406.98,142.86c-4.16,6.17-10.72,9.86-16.6,14.25,6.39-2.63,14.21-7.44,16.6-14.25Z"/>
  <path class="cls-1" d="m431.05,155.26c-7.68,9.8-19.36,15.14-30.38,20.3,11.23-3.3,24.48-9.72,30.38-20.3Z"/>
  <path class="cls-1" d="m427.09,151.77c-3.98,2.73-8.44,5.32-12.32,8.21,4.74-1.45,9.38-4.14,12.32-8.21Z"/>
  <path class="cls-1" d="m436.94,168.07c5.57-1.94,11.76-3.95,15.68-8.6-3.06,2.56-6.84,3.91-10.48,5.44-4.98,1.89-9.9,3.86-15.05,5.03,3.38-.05,6.66-.82,9.85-1.86Z"/>
  <path class="cls-1" d="m447.01,170.81c3.95-1.4,8.17-2.96,11.09-6.1-7.19,4.41-15.6,5.95-23.49,8.81,4.22-.42,8.36-1.4,12.39-2.71Z"/>
  <path class="cls-1" d="m460.92,170.7c-6.19,3.59-13.49,5.22-20.3,7.28,7.16-.41,14.97-2.2,20.3-7.28Z"/>
  <path class="cls-1" d="m438.83,204.92c9.84-2.87,22.71-8.84,27.32-18.51-3.16,4.65-7.77,7.89-12.49,10.79-4.76,2.91-9.77,5.35-14.83,7.72Z"/>
  <path class="cls-1" d="m471.11,202.49c.61-1.18,1.13-2.41,1.42-3.7-4.53,9.69-15.38,13.76-24.89,16.98,8.95-1.3,18.66-5.19,23.47-13.28Z"/>
  <path class="cls-1" d="m457.22,259.04c6.99-2.24,12.4-8.11,15.5-14.64,2.3-4.97,3.3-10.47,3.48-15.91-.05-1.81-.1-3.62-.21-5.42-.22,2.6-.31,5.46-.77,8.04-1.41,11.32-7.35,22.81-18,27.93Z"/>
  <path class="cls-1" d="m470.49,216.02c-2.95,7.57-10.16,11.99-16.85,15.96,7.42-2.34,15.59-7.71,16.85-15.96Z"/>
  <path class="cls-1" d="m179.61,188.54c8.34-.47,16.32-3.03,24.36-5.06,1.74-.45,3.49-.91,5.29-1.04.25,0,.51.04.77.05-4.11-.58-8.26.92-12.29,1.59-4.05.85-8.07,1.78-12.12,2.45-4.05.68-8.13,1.33-12.03.19-3.92-1.06-7.46-3.46-10.04-6.62,3.32,5.39,9.71,8.77,16.05,8.43Z"/>
  <path class="cls-1" d="m384.38,446.1c-.15-.02-.32,0-.44.08-.41.29-.22,1.01-.17,1.42.01.11.02.23.08.33.08.12.21.19.33.27.1.07.18.15.28.22.1.07.21.12.33.12.31,0,.35-.36.4-.59.08-.37.16-.76.05-1.12-.03-.1-.08-.2-.14-.29-.17-.23-.44-.4-.72-.44Z"/>
  <path class="cls-1" d="m401.28,461.38c-.15-.02-.32,0-.44.08-.41.29-.22,1.01-.17,1.42.01.11.02.23.08.33.08.12.21.19.33.27.1.07.18.15.28.22.1.07.21.12.33.12.31,0,.35-.36.4-.59.08-.37.16-.76.05-1.12-.03-.1-.08-.2-.14-.29-.17-.23-.44-.4-.72-.44Z"/>
  <path class="cls-1" d="m288.01,452.35c1.46.56,2.82,1.32,4.09,2.22,1.23.98,2.38,2.06,3.43,3.23.49.61.97,1.21,1.46,1.82.02.03.05.05.09.06.1.12.2.24.3.36.04.05.11.07.19.08.45.42.93.79,1.49,1.07.05.02.11.03.18.02.18.06.36.12.55.15.18.03.84-.27.46-.33-.19-.03-.37-.09-.54-.15-.01-.02-.04-.05-.08-.07-.29-.14-.55-.32-.8-.51-.61-.57-1.06-1.36-1.47-2.07-.59-1.03-1.23-1.98-2.06-2.83-1.65-1.67-3.79-2.86-6.06-3.43-2.1-.53-4.32-.55-6.42,0-.97.26-2.51.96-3.16,1.92-.15.04-.29.11-.3.19-.03.24-.02.46,0,.67-.02.4.12.82.51,1.27.12.15.81-.08.68-.26-.19-.26-.32-.53-.4-.8-.19-1.1.96-2.12,2-2.5,1.1-.4,2.29-.57,3.46-.58.77,0,1.54.07,2.29.22-.05.08-.04.17.12.23Z"/>
  <path class="cls-1" d="m403.25,379.29s-.01-.09-.07-.13c-.01-.01-.03-.02-.04-.04.02-.03.02-.07.01-.11-.53-1.52-1.34-2.92-2.38-4.14-.01-.02-.01-.03-.01-.05-.39-.66-.9-1.22-1.5-1.69-.05-.05-.14-.06-.23-.05-.26-.27-.53-.52-.78-.79-.12-.13-.24-.26-.36-.4-.1-.11-.2-.26-.32-.36-.11-.08-.23-.12-.36-.16-.07-.02-.14-.04-.22-.07,0,0-.01-.01-.02-.01.05-.05.1-.1.13-.16.1-.22-.14-.33-.32-.32h0c.17-.21-.07-.35-.27-.36.05-.09.1-.18.16-.27.23-.29-.14-.42-.4-.35-.09-.03-.18-.02-.26,0-.34.1-.68.14-1.03.12-3.1-2.1-6.65-3.5-10.47-4.18-2.38-.43-4.79-.65-7.2-.8.2-.09.34-.27.14-.42-.26-.21-.63-.26-.95-.18-.02.01-.04.02-.06.02.22-.3-.23-.45-.46-.31-.04,0-.07.03-.1.05-.03-.18-.35-.22-.5-.14l.06-.18c.03-.14-.14-.23-.25-.24-.14-.02-.27.04-.38.13-.1-.08-.28-.08-.43-.03-.01,0-.03-.01-.05-.01-.16,0-.35.07-.42.23-.01,0-.02.02-.03.03.01-.06-.14-.05-.21-.05-.01-.04-.02-.08-.02-.13,0-.09-.72,0-.72.19,0,.05.01.09.02.13-.03-.06-.07-.12-.11-.17-.06-.1-.4-.03-.59.07-.11-.06-.47.06-.62.15-.38-.17-.75-.36-1.09-.58-.11-.08-.76.13-.7.21,0,.01.01.02.02.02h0c.05.08.12.14.19.21-.02.02-.03.05-.01.07.13.11.27.2.42.27-.04.04-.07.09-.06.13-.34-.26-.65-.56-.92-.91-.1-.14-.77.06-.7.23.02.04.04.08.05.12-.04.04-.07.08-.06.11-.03-.03-.07-.06-.1-.09-.11-.16-.78.1-.7.22.01.02.02.03.03.04.11.16.22.31.34.46-.04,0-.08-.01-.12,0-.07-.03-.14-.07-.22-.1-.03-.01-.07-.02-.1-.02-.05-.01-.09-.01-.13,0-.05.01-.1.02-.15.04-.04.01-.09.03-.13.05-.02.02-.04.03-.07.05-.03.02-.05.06-.07.1v.04s.04.06.07.07c.03.02.07.03.1.05-.02,0-.04.01-.06.01-.28-.12-.54-.26-.78-.43-.14-.11-.33-.09-.48-.02-.08.04-.32.19-.19.3.12.11.23.21.35.32-.35.06-.7.15-1.05.24-.13.01-.26.02-.38.04-.06,0-.55.13-.51.23-.06.02-.12.04-.18.06h-.08c-.06,0-.59.15-.59.24-.36.15-.73.31-1.09.49-.01,0-.01.01-.02.02-.01,0-.03.01-.04.01-.06.02-.13.03-.18.07-.05.04-.1.08-.15.12-.15-.02-.3-.03-.44-.06-.1-.02-.77.12-.65.25.11.11.23.19.35.27h-.03c-.08,0-.71.19-.58.26.09.06.19.09.29.13-.03.03-.06.06-.09.08h-.01c-.05,0-.62.13-.58.24-.2-.01-.74.18-.63.24.11.07.23.15.34.22-.05.05-.11.1-.17.15-.45.16-.89.35-1.32.58-.19.1,0,.15.12.14.12-.02.23-.03.35-.04-.06.05-.13.1-.19.15-.23.08-.46.13-.72.16-.06,0-.68.22-.45.26.11.02.22.05.34.07-.21.09-.42.19-.63.29-.36.17.06.19.23.14.05-.01.1-.04.15-.05-.31.25-.63.51-.94.76-.04.04-.07.07-.09.1-.1.09-.21.17-.31.25-.08.06-.09.11-.05.13-.02.02-.03.04-.04.06-3.57,2.28-6.98,4.81-10.6,7.02-.42.25.23.26.43.14,4.96-3.02,9.62-6.8,14.78-9.52.07-.01.12-.02.15-.02.48-.18.97-.35,1.46-.53.01.21,0,.37-.08.41.58-.3,1.18-.53,1.79-.74-1.26,2.68-1.48,5.82-.46,8.63.99,2.73,3.05,4.96,5.63,6.27h0s.06.04.09.05c.06.03.11.06.17.09.02.01.06.01.1.01,3.16,1.32,6.85,1.03,9.86-.6,3.36-1.82,5.36-5.29,5.41-9.1.02-1.72-.35-3.42-1.11-4.94-.05-.13-.08-.27-.13-.38.22.03.45.06.68.1,1.72.31,3.38.76,4.97,1.36.56.29,1.12.6,1.67.92,3.26,1.91,6.19,4.32,8.74,7.1-.12-.02-.26,0-.37.07-2.72,2.15-5.58,4.21-8.72,5.69-5.16,1.69-10.83,2.32-16.26,1.73-2.98-.5-5.94-1.2-8.89-1.86-6.43-1.83-12.78-4.05-19.51-4.44-.38-.03-.73.53-.24.56,5.62.33,11.24,2.03,16.86,3.67-.13.08-.26.16-.36.27-.05.05-.06.09-.07.13-.02.01-.05.03-.08.05-.1.08-.18.23-.06.34.05.05.12.07.19.07.01.02.01.03.03.05.15.11.38.04.52-.05.13-.08.26-.16.4-.22.23-.05.46-.07.69-.07-.02.04-.06.08-.08.12-.14.29.33.35.51.25.02-.01.05-.02.07-.03-.06.2.12.32.32.29.19-.03.38-.05.58-.08-.02.04-.03.08-.03.11,0,.23.46.2.61.09.05-.03.09-.07.14-.1.34.15.69.26,1.05.35.48.18.96.35,1.43.53.05.06.12.1.24.1-.01.02-.01.03-.02.05-.11.17-.21.34-.32.51-.02.05.04.08.07.09.06.02.16.01.23,0,.09-.02.19-.04.27-.09.06-.03.12-.06.15-.12.02-.03.04-.07.06-.1.1.08.26.09.37.05.03-.01.06-.02.09-.04h0c.2-.1.41-.16.61-.28.01,0,.03-.02.05-.04.62.1,1.22.25,1.81.45.01.03.04.05.07.08.43.27.86.54,1.29.81.12.07.47-.01.61-.14.01,0,.02-.01.03-.01.09.08.16.16.23.27.11.18.52.07.64-.11.25.09.74-.13.59-.35.39.05.78.09,1.18.11-.01.03,0,.05.05.06.57.17,1.1.44,1.56.81.04.03.15.02.19.02.08-.01.16-.03.23-.05.05-.02.32-.1.29-.19-.04-.1-.11-.19-.15-.28.11-.02.22-.05.31-.09.07-.03.25-.14.09-.18-.06-.02-.13-.04-.2-.06.32-.01.64-.02.96-.05.43.17.8.4,1.14.72.07.07.22.06.37.02.14.09.28.18.42.27.07.04.25.03.41-.03.29.25.59.5.88.75.16.13.83-.03.68-.28-.12-.19-.26-.35-.4-.53.09-.01.18-.04.26-.08.03.02.05.03.07.04.14.08.8-.09.63-.3-.01-.01-.01-.02-.02-.03.22-.04.45-.15.38-.27-.01-.01-.02-.02-.03-.04.18-.02.39-.08.44-.19t.02.01c.1.07.41.04.58-.05.08.05.16.1.25.18.12.09.56.02.67-.13.06,0,.12,0,.19,0,.18.16.36.32.55.47.13.12.81-.04.7-.23-.12-.18-.23-.37-.34-.55.19-.05.36-.16.26-.28-.06-.08-.12-.15-.18-.23.09-.06.11-.13,0-.19-.05-.02-.1-.04-.15-.07.03-.01.06-.01.09-.02.03-.02.07-.04.11-.07.12.04.23.07.34.13.02.01.06.01.1.01.19.12.84-.13.66-.28-.06-.05-.13-.1-.19-.15.13-.02.25-.04.38-.06.03-.01.11-.03.19-.07.19.06.37.12.55.17.1.04.62-.04.65-.2.11.02.22.04.33.07.07.01.27-.02.42-.09.04.03.11.05.2.05.25,0,.6-.13.48-.32t0-.02c.14-.03.28-.09.33-.17.02,0,.04,0,.06-.01.25.2.5.39.75.58.17.13.86-.07.68-.27h-.01c.19-.07.34-.18.25-.3-.01-.02-.03-.03-.04-.05.21-.05.41-.18.31-.3-.18-.22-.35-.44-.53-.65.16-.06.3-.14.23-.24.17,0,.44-.06.53-.17.03,0,.06.01.09.01.03.02.09.02.16.02.05.01.1.04.15.05.01,0,.02.01.02.01h.01s.04.02.06.02c.14.03.79-.18.52-.34.19.06.37.12.55.19.15.05.33.01.47-.06.06-.03.27-.16.16-.25-.12-.08-.24-.17-.35-.25.11-.03.22-.07.3-.13.14.07.31.05.45,0,.07-.03.31-.16.2-.27-.02-.01-.04-.02-.06-.04.19-.07.34-.2.19-.29-.17-.1-.32-.21-.46-.32.23-.04.53-.17.4-.31-.04-.05-.08-.1-.12-.14,1.11-.82,2.22-1.64,3.34-2.46.01-.01.01-.02.02-.03.09.07.18.13.27.19.14.19.29.39.43.59-.06-.1-.09-.22-.1-.35.13.09.26.18.39.26.22.18.44.36.66.54.18.14.87-.01.67-.29Zm-44.16-9.61c.06-.05.12-.1.18-.14h.08c-.09.05-.18.09-.26.14Zm2.31-1.44h-.01.01s0,0,0,0Zm11.73-3.59s-.03.01-.04.01c0-.01.01-.02.01-.04-.01-.01-.01-.03-.02-.04.02,0,.03-.01.05-.01,0,.03-.01.05,0,.08Zm3.69.29c-.08,0-.17-.01-.26-.02.09-.04.17-.03.26.02Zm-.18,4.34h-.04s.03,0,.04,0Zm-.02,12.5s.01.01.02.02c-.04.01-.09.01-.13.01.04-.01.08-.02.11-.03Zm-.49,1.78c.27-.09.53-.19.77-.33.5-.09.98-.23,1.42-.46.91-.35,1.76-.81,2.53-1.4-1.35,1.14-2.99,1.88-4.72,2.19Zm6.07,2.7s-.02-.01-.02-.02h.08s-.04.01-.06.02Zm1.38-.12c-.09.02-.18.05-.24.09-.05-.03-.1-.06-.16-.09.14-.01.28-.03.41-.05-.01.02-.01.03-.01.05Zm2.95-.48s-.08-.03-.12-.04c-.11-.04-.48.04-.57.19-.03-.01-.06-.03-.09-.03-.05,0-.17,0-.29.03-.02,0-.05-.01-.07-.02.34-.07.68-.14,1.03-.23.07.02.14.03.21.05-.04.01-.07.03-.1.05Zm4.08-1.34c-.09-.02-.18-.04-.27-.06h-.02c.12-.04.24-.08.35-.13-.08.05-.12.12-.06.19Zm1.85-.88c-.05-.01-.11,0-.17,0,.08-.03.15-.06.22-.1.02.02.04.05.06.07-.04.01-.08.02-.11.03Zm1.8-.88h-.01s-.14-.01-.25,0c.06-.03.12-.07.19-.1.03.03.07.05.11.09,0,0-.03.01-.04.01Zm2.82-1.89h-.05c.3-.2.6-.41.91-.62-.29.2-.57.41-.86.62Zm3.49-2.51s.03-.02.04-.03c.01.01.02.02.03.03-.02,0-.04-.01-.07,0Z"/>
  <path class="cls-1" d="m413.97,346.27c-2.15-2.22-4.61-4.13-7.29-5.67-.12-.07-.34,0-.46.05-.03.01-.32.13-.22.19,2.68,1.54,5.13,3.45,7.29,5.67.12.12.78-.14.68-.24Z"/>
  <path class="cls-1" d="m288.8,346.82c-.95-2.7-2.39-5.19-4.22-7.37.21-.08.37-.22.19-.31-.27-.15-.54-.28-.81-.42l-.03-.03h.01s.33-.16.22-.21c-.24-.1-.48-.19-.71-.29-.61-.63-1.25-1.24-1.93-1.8-.27-.22-.87.15-.57.42-.45-.17-.91-.34-1.35-.52-.16-.06-.36-.02-.51.07-.03-.02-.06-.03-.09-.04-.04-.02-.09,0-.13-.01-.32-.1-.63-.22-.93-.33-.01-.01-.02-.02-.03-.02.05-.08.07-.17-.04-.24-.07-.05-.15-.1-.23-.15.2-.08.34-.25.15-.38-1.11-.79-2.27-1.49-3.49-2.11-.16-.08-.37-.05-.51.05-.03.02-.06.05-.08.08-.1.02-.2.05-.27.1-.03.02-.06.05-.08.08-1.22-.92-2.47-1.78-3.78-2.58-.17-.11-.77.19-.69.24,1.26.79,2.48,1.65,3.66,2.55-.22.07-.4.24-.21.38.77.57,1.53,1.15,2.29,1.74-.25-.06-.5-.12-.74-.18h-.05s-.01-.01-.02-.02c-.12-.1-.45-.02-.61.1-2.09-1.8-4.29-3.45-6.6-4.94-.26-.17-.9.19-.56.41.04.02.08.05.12.08-.11.06-.18.12-.14.16,1.14.92,2.27,1.87,3.38,2.82,0,.02,0,.03.01.04.1.08.2.16.3.24.69.6,1.36,1.21,2.05,1.82-.1-.04-.2-.09-.3-.14-.1-.04-.21-.03-.32,0-.19-.1-.39-.2-.58-.29-.11-.06-.26-.03-.38.02-.1-.05-.2-.1-.31-.15-2.53-2.25-5.21-4.3-8.05-6.15-.22-.14-.88.17-.58.37,2.8,1.82,5.45,3.84,7.95,6.05-1.87-1.15-3.73-2.31-5.6-3.48-.19-.12-.86.13-.61.35.19.16.38.33.57.5.07.06.18.07.3.05,1.23.76,2.45,1.53,3.68,2.3-.1.01-.2.03-.28.06-.01,0-.03.01-.04.02-2.04-1.46-4.2-2.76-6.46-3.83-2.52-1.66-5.11-3.22-7.76-4.67-.19-.1-.78.2-.68.25,1.75.96,3.47,1.97,5.17,3.02-.91-.34-1.82-.66-2.75-.94-.19-.06-.83.25-.5.4,3.48,1.53,6.82,3.33,10.02,5.36-.06.02-.12.03-.17.07-.02.01-.03.03-.05.04-.64-.33-1.29-.67-1.93-1.01-1.18-.72-2.36-1.45-3.53-2.17-.21-.13-.88.18-.57.37,1.03.63,2.06,1.26,3.08,1.91-5.97-3.67-12.45-6.47-19.27-8.25-.24-.06-.85.3-.44.41,4.02,1.05,7.91,2.47,11.67,4.2-2.97-1.16-6.03-2.08-9.16-2.73-.26-.06-.88.28-.43.46,4.8,1.86,9.48,4.02,14.01,6.45-.32-.1-.63-.22-.95-.32-7.4-3.88-15.26-6.86-23.41-8.84-.23-.05-.85.29-.44.39,7.24,1.76,14.25,4.31,20.92,7.59-1.34-.37-2.69-.71-4.05-1.04-.1-.03-.19-.07-.29-.11-.06-.02-.14-.01-.21,0-.02,0-.03-.01-.04-.01-.54-.22-1.08-.45-1.62-.66.16.05.39-.03.51-.14.12-.11.07-.22-.07-.26-1.14-.34-2.27-.68-3.41-1.02-.05-.02-.12-.01-.19,0-.15-.04-.3-.09-.44-.14.01-.02,0-.05-.06-.06-.22-.05-.45-.11-.67-.16-.14-.05-.29-.1-.43-.14-.04-.01-.08,0-.12,0-.77-.2-1.53-.43-2.27-.72-.08-.04-.18-.02-.29,0,.02-.04.02-.08-.05-.1-1.84-.52-3.7-.92-5.58-1.23-.85-.21-1.7-.37-2.56-.48-.55-.14-1.1-.29-1.65-.42-.15-.03-.55.13-.63.24-.63-.02-1.26-.02-1.9.01-.03,0-.07.01-.12.01-1.02-.16-2.04-.32-3.06-.45-.11-.01-.42.11-.56.19-.66-.05-1.32-.09-1.99-.12-.37-.02-.72.54-.24.56,1.84.08,3.67.25,5.48.51-.43-.02-.86-.03-1.3-.04-.25,0-.77.37-.29.38,2.15.02,4.28.21,6.39.55,1.63.38,3.25.82,4.84,1.35-.98-.26-1.97-.51-2.96-.74-.25-.05-.86.32-.44.41,1.11.26,2.21.54,3.31.82,2.38.62,4.73,1.33,7.06,2.11-3.57-.99-7.14-1.97-10.71-2.96-.23-.06-.85.28-.45.39,2.07.57,4.14,1.14,6.21,1.72-.2-.05-.4-.09-.6-.13-.02-.01-.06-.01-.1,0-.02-.01-.05-.02-.08-.03-.16-.04-.82.21-.51.38.2.1.4.21.61.31.08.05.25.02.39-.04,2.56.68,5.1,1.42,7.64,2.2-.07.08-.06.17.1.23.72.25,1.47.44,2.22.59-.07.08-.14.2,0,.25.21.07.42.15.62.22-.07.08-.15.19,0,.24.03.02.06.03.09.04,0,.01-.01.01-.02.02-.19-.08-.38-.15-.57-.22.09-.09.11-.17-.06-.2-.24-.03-.48-.06-.72-.1-3.97-1.53-8.03-2.8-12.17-3.79-5.39-1.55-10.87-2.76-16.43-3.6-.17-.02-.79.26-.59.29,4.52.68,8.99,1.6,13.4,2.76-.09.04-.13.09-.07.1.31.08.61.15.91.22h.04c.59.13,1.17.26,1.75.4,3.22.92,6.41,1.95,9.55,3.12-.98-.14-1.96-.27-2.93-.41.05-.07.03-.14-.1-.15-1.82-.26-3.64-.51-5.47-.76.2-.09.35-.23.11-.28-.18-.04-.37-.08-.55-.11-2.69-.96-5.47-1.66-8.28-2.08-1.45-.43-2.93-.74-4.43-.9-2.15-.37-4.31-.59-6.49-.65-.15,0-.42.04-.48.2-.06.15.05.24.2.24,1.02.03,2.04.1,3.05.2-.26.03-.52.04-.79.08-.01,0-.02,0-.03.01-.62-.02-1.24-.03-1.85-.03-.24,0-.79.35-.3.35.6,0,1.21,0,1.81.03.01.09.09.15.29.12.26-.04.52-.05.78-.08.22,0,.44.02.65.03-.25.08-.61.3-.29.33,1.39.15,2.78.31,4.17.49-.86-.05-1.73-.09-2.59-.1.02-.06-.03-.1-.18-.1-.82-.02-1.64-.04-2.46-.06-1.23-.14-2.46-.29-3.69-.43-.22-.03-.49.18-.47.33-.57-.01-1.13-.02-1.69-.03-.24-.01-.78.34-.3.35,2.37.03,4.73.17,7.08.42.14.03.29.06.43.08-2.15-.23-4.33-.31-6.51-.19-.19,0-.79.3-.32.28,3.39-.19,6.78.08,10.08.78-.11.05-.2.13-.19.21.03.45.58.59.92.71.35.13.7.23,1.05.34-.73-.18-1.45-.36-2.17-.58-.17-.05-.4.01-.51.14-.11.12-.08.26.08.31,2.04.61,4.11,1.06,6.22,1.35.19.03.41-.12.47-.26l.54.21c.19.07.49-.08.56-.24.77.32,1.54.67,2.29,1.05.19.09.76-.21.69-.24-.32-.16-.64-.29-.96-.44.09-.05.18-.12.1-.16-.49-.26-1-.5-1.51-.73.04-.03.08-.07.09-.11,1.57.35,3.13.69,4.7,1.04.12.02.27-.01.39-.07.88.17,1.77.33,2.66.48,2.03.7,4.1,1.25,6.23,1.45.07.01.14-.01.2-.04.33.01.65.02.97.03.03.02.07.03.11.03.15,0,.29.01.44.01-.03.02-.09.06-.08.1.01.04.1.03.12.04.8.05,1.59.1,2.39.15.17.01.37-.06.51-.14.03-.02.1-.06.09-.1s-.1-.04-.13-.04c-.23-.01-.46-.03-.7-.04.05-.04.11-.06.13-.12.07-.15-.06-.3-.22-.31-.55-.02-1.1-.04-1.65-.06.03-.03.06-.05.08-.09.08-.15-.08-.21-.2-.22-1.19-.09-2.39-.17-3.58-.26-.05,0-.12.01-.19.03,0-.02.02-.04.03-.05.24-.04.47-.29.32-.42.47.05.95.09,1.42.14.56.11,1.12.22,1.68.34.14.02.35-.07.48-.18.12,0,.24-.05.32-.12.02,0,.03-.03.04-.05,1.48.59,2.94,1.19,4.4,1.83-.15-.04-.36.03-.5.1-.07.03-.25.14-.09.18.65.18,1.31.32,1.98.4.09.03.18.05.26.08,1.44.59,2.94,1.01,4.49,1.18.11.02.23-.03.32-.1,1.57.55,3.18.94,4.83,1.2-.11.1-.13.2.06.25,3.97,1.05,7.83,2.46,11.53,4.23.23.11.89-.22.58-.36-2.63-1.26-5.34-2.32-8.1-3.22,3.18.61,6.33,1.35,9.45,2.23h.05c1.13.37,2.25.76,3.36,1.2.2.08.86-.21.58-.32-2.82-1.12-5.73-2.01-8.7-2.68.29.04.58.08.87.12,1.4.4,2.8.79,4.19,1.19.13.04.44-.07.55-.2.97.26,1.94.47,2.93.61.08.01.18,0,.27-.04.36.09.71.18,1.07.26.05.02.13.01.21-.02.19.08.39.15.59.24.15.06.37.01.51-.07.03-.03.07-.06.1-.1.11.01.23,0,.32-.04.49.55.97,1.1,1.46,1.65.11.13.76-.13.7-.21-.63-.97-1.3-1.9-1.99-2.81.13-.1.19-.22.04-.33-.08-.05-.16-.11-.24-.17-.17-.22-.35-.43-.52-.64.55.51,1.1,1.03,1.65,1.55.09.08.27.08.42.03.01.01.02.02.04.03.06.06.18.06.3.04.36.49.72.98,1.05,1.49.14.22.84-.02.67-.3-1.31-2.04-2.88-3.9-4.62-5.58.12.04.23.08.35.13.2.09.86-.22.58-.34-.63-.27-1.27-.52-1.92-.73-.08-.07-.16-.14-.24-.21.74.22,1.47.46,2.19.73.1.04.21.03.32,0,.03.02.07.04.11.06,2.12,2.3,3.76,5.03,4.8,8,.13.34.85.14.73-.2Zm-56.44-18.41c-.64-.14-1.29-.26-1.94-.39.22.03.43.05.64.08.45.05.9.1,1.35.18h.04c-.07.05-.11.1-.09.13Zm.75.17c.51.09,1.02.18,1.53.28.68.19,1.36.37,2.04.56-1.19-.29-2.38-.58-3.57-.84Zm6.47,2.44c.07-.11.06-.23-.12-.3-.03,0-.07-.02-.1-.04.03-.01.06-.03.08-.05.86.25,1.71.49,2.56.76-.8-.12-1.61-.26-2.42-.37Zm6,.94c.13.04.26.09.39.14-.17-.03-.34-.07-.51-.1.04-.01.08-.03.12-.04Zm-2.14.06c.34.06.68.13,1.02.2.46.16.92.33,1.39.49-.8-.23-1.6-.47-2.41-.69Zm2.76,2.36c-.21-.07-.42-.14-.63-.2.22.06.44.12.66.18-.01.01-.02.01-.03.02Zm-23.32-1.99c.11,0,.21,0,.31,0,.03.03.06.05.13.07.63.16,1.26.32,1.89.48-.64-.12-1.29-.23-1.93-.33-.06-.02-.12-.04-.18-.06.01-.08-.05-.15-.22-.17Zm2.77,2.15c-.49-.14-.97-.29-1.45-.45-.29-.1-.87-.21-1.04-.52.85.33,1.71.66,2.56.99-.03-.01-.05-.01-.07-.02Zm-5.43-3.24c2.21.16,4.42.45,6.61.86.01.01.02.01.03.01-2.21-.34-4.42-.63-6.64-.87Zm7.49,2.72s-.01,0-.01.02c-.22-.08-.45-.14-.67-.22.25.06.49.12.74.17-.02.01-.05.02-.06.03Zm2.12-.56c-.56-.17-1.12-.32-1.69-.45.59.1,1.19.21,1.78.33-.05.04-.08.08-.09.12Zm5.95,1.55c-.37-.15-.74-.29-1.1-.44.09.01.18.03.27.04.83.17,1.66.33,2.5.5-.56-.03-1.12-.06-1.67-.1Zm2.95.48c-.28-.04-.55-.08-.83-.12.01-.08-.01-.14-.05-.18.29.06.59.12.89.18-.02.04-.02.08-.01.12Zm1.5.31c-.15-.02-.31-.04-.47-.07.2.02.41.04.61.06-.05,0-.09,0-.14.01Zm5.2,1.63s-.01.02-.02.02c-.25-.01-.5-.01-.74-.02-.04-.03-.09-.05-.18-.06.31.02.63.04.94.06Zm-3.2-.41s-.08-.01-.12-.02c.04.01.09,0,.13-.01t-.01.03Zm3.6-.75c-.31-.06-.61-.12-.92-.18.03-.02.06-.05.09-.08.32.04.65.09.97.14.16.06.31.12.46.18-.2-.02-.4-.04-.6-.06Zm2.26-2.35c.14.04.28.08.42.12.49.15.97.31,1.46.47h-.01l-.12-.03c-.08-.04-.17-.04-.27-.02-.49-.18-.99-.36-1.48-.54Zm2.23,3.47c-.51-.22-1.02-.45-1.54-.66.05-.01.09-.03.14-.05.02.02.05.04.11.06.34.1.68.19,1.02.29h.05c.18.09.37.18.56.26-.12,0-.24.04-.34.1Zm.89.15s-.08-.04-.11-.06c.05.02.09.04.14.06h-.03Zm-.09-1.59c.06-.01.11-.04.17-.06.04,0,.07.02.11.03.47.2.93.39,1.39.59-.55-.19-1.11-.37-1.67-.56Zm.29-1.56s-.05-.01-.08-.02c-.46-.2-.92-.4-1.39-.59.21.07.42.16.64.23.27.13.55.25.83.38.04.02.12,0,.2,0,.45.16.9.32,1.35.49-.51-.16-1.03-.33-1.55-.49Zm3.82,1.47s-.03.05-.04.07c-.02-.01-.05-.02-.07-.02.04-.02.08-.03.11-.05Zm-.48,1.7c.07-.03.15-.06.2-.1.23.1.45.22.68.32-.3-.07-.59-.15-.88-.22Zm.44-.82s.05-.05.06-.08c.57.28,1.14.55,1.7.84-.58-.26-1.17-.51-1.76-.76Zm4.82,1.71c-.06-.02-.11-.03-.17-.04-.07-.04-.15-.09-.22-.13l.09.03c.1.04.2.09.3.14Zm-.48-2.09c-.18-.08-.37-.16-.55-.24-.03-.01-.06-.03-.09-.05.25.09.49.17.74.25-.03.01-.07.02-.1.04Zm-6.96-4.61c-.08-.04-.22-.02-.35.02-1.55-.73-3.11-1.43-4.68-2.1,3.88,1.12,7.62,2.65,11.17,4.55-.02.01-.05.02-.07.03-.08.04-.23.16-.08.23.12.05.23.09.35.14-.06.08-.1.18-.05.26-2.09-1.04-4.19-2.08-6.29-3.13Zm7.69,8.03c-.47-.15-.92-.32-1.37-.51.03,0,.06,0,.1,0,.22.05.45.1.67.14.21.1.4.2.61.3-.01.02,0,.04-.01.06Zm2.01-4.47c-.35-.22-.7-.44-1.05-.68.02.01.04.02.06.03.33.21.66.41,1,.62,0,.01,0,.02,0,.03Zm.64.43c-.11-.07-.21-.14-.32-.22.18.1.36.19.55.29.05.03.1.06.15.09-.12-.05-.25-.1-.38-.16Zm2.49.6l.96.42s.06.03.09.05c-.19-.07-.37-.14-.56-.21-.16-.08-.33-.17-.49-.25h0Zm-.49,3.75s.06-.03.08-.05c.51.17,1.03.31,1.56.42.02,0,.05.03.08.05-.57-.14-1.15-.28-1.72-.42Zm3.37-1.84c-.21-.13-.41-.25-.62-.38.2.07.39.14.58.2.12.1.24.19.35.28-.1-.03-.2-.06-.3-.09-.01,0,0-.01-.01-.01Zm.59,2.75s-.04.03-.06.05c-.11-.03-.22-.06-.33-.08.06-.02.12-.05.17-.1.14.03.28.05.42.06-.07.02-.14.04-.2.07Zm.11-3.9c-.11-.09-.22-.18-.33-.27.34.18.69.36,1.03.54.08.05.15.1.23.15l-.93-.42Zm1.96,3.34s.05-.01.07-.02c.05.01.09.03.14.04.01,0,.02.02.03.03-.08-.02-.16-.04-.24-.05Zm2.23-2.49c-.12-.07-.23-.14-.35-.21.06-.01.09-.02.14-.04.01,0,.02.01.03.01-.03.06-.03.13.06.16.05.02.1.04.14.06l-.02.02Zm1.86-3.28s0,0-.02.01c-.05-.04-.1-.08-.14-.12.05.04.11.07.16.11Zm-.76,3.94c.06.02.13.05.19.07.1.09.2.19.3.28-.17-.11-.33-.24-.49-.35Zm.55,3.91s-.03-.02-.04-.03c.22.06.43.11.64.18-.2-.05-.4-.1-.6-.15Zm3.79.07s.02,0,.02,0l.05.05s-.05-.03-.07-.04Zm.21-4.74s-.06-.07-.1-.1c.16.03.31.07.47.1.05.05.1.09.16.13-.18-.05-.35-.09-.53-.13Zm.99,2.71s.09-.04.13-.07c.14.15.28.3.41.46l-.54-.39Zm1.32,2.21s-.04-.05-.06-.08c.02.03.05.05.08.07t-.02.01Zm2.07-.99c-.62-.52-1.23-1.04-1.85-1.56-.59-.55-1.18-1.11-1.77-1.66.22.07.45.13.66.2,1.05.94,2.04,1.95,2.96,3.02Z"/>
  <path class="cls-1" d="m251.16,375.33c-.1,0-.19.02-.28.06-.03.01-.06.02-.08.04-.04.02-.08.05-.12.08-.06.09-.13.17-.19.26-.02.02-.03.04-.03.06,0,.02,0,.04.02.05.02.02.05.03.08.03.04,0,.07.01.11,0,.1,0,.19-.02.28-.06.03-.01.06-.02.08-.04.04-.02.08-.05.12-.08.06-.09.13-.17.19-.26.02-.02.03-.04.03-.06,0-.02,0-.04-.02-.05-.02-.02-.05-.03-.08-.03-.04,0-.07-.01-.11,0Z"/>
  <path class="cls-1" d="m286.3,376.4c1.04-2.61-.99-5.01-2.05-7.23-.12-.25-.83-.02-.72.19,1.04,2.18,3.07,4.56,2.05,7.13-.09.24.63.15.72-.09Z"/>
  <path class="cls-1" d="m345.49,375.81c-.08.03-.29.1-.22.21.06.09.4-.01.47-.04,2.46-.98,4.82-2.22,7.03-3.69.12-.08.08-.14-.04-.16-.15-.03-.39.05-.51.14-2.11,1.41-4.36,2.6-6.72,3.54Z"/>
  <path class="cls-1" d="m360.06,285.46c-4.75-1.55-8.77-4.99-11.06-9.43-.1-.19-.79.06-.72.19,2.27,4.57,6.22,8.18,10.97,10.05.17.07.82-.2.59-.29-.43-.17-.84-.37-1.26-.56.3.11.58.24.89.34.17.06.82-.22.59-.29Z"/>
  <path class="cls-1" d="m377.61,244.39c-.45.22-.04.48.29.31,6.21-3.08,12.67-5.63,19.32-7.61.43-.13.34-.51-.1-.38-6.71,2-13.24,4.57-19.51,7.68Z"/>
  <path class="cls-1" d="m316.44,201.73c4.3,11.12,8.6,22.25,12.91,33.37.1.25.81.04.72-.19-4.3-11.12-8.6-22.25-12.91-33.37-.1-.25-.81-.04-.72.19Z"/>
  <path class="cls-1" d="m259.6,207.09c6.41,1.46,12.08,5.58,15.46,11.23.13.23.83-.03.72-.19-3.45-5.76-9.19-9.91-15.74-11.4-.21-.05-.85.28-.45.37Z"/>
  <path class="cls-1" d="m279.4,167.18c-.29-.07-.86.36-.43.46,7.46,1.73,13.67,7.53,15.93,14.84.1.31.82.11.72-.19-2.3-7.45-8.64-13.35-16.22-15.11Z"/>
  <path class="cls-1" d="m262.72,184.51c-3.91-3.81-8.5-6.86-13.52-9-.18-.08-.84.2-.59.31,4.99,2.13,9.55,5.17,13.43,8.95.15.15.83-.12.68-.26Z"/>
  <path class="cls-1" d="m194.97,216.8c-4.87,14.18-.73,30.19,10.5,40.13,2.9,2.57,6.19,4.67,9.73,6.25.24.11.89-.23.57-.37-13.22-5.86-21.97-19.06-22.13-33.54-.04-4.27.67-8.51,2.05-12.55.09-.27-.64-.19-.73.08Z"/>
  <path class="cls-1" d="m231.11,235.71c-.84-7.33-3.73-14.29-8.29-20.09-.15-.19-.84.06-.67.28,4.54,5.77,7.4,12.71,8.24,20,.03.23.75.07.72-.19Z"/>
  <path class="cls-1" d="m349.04,217.53c4.86-4.43,8.91-9.69,11.95-15.52.18-.35-.55-.34-.69-.07-3.02,5.79-7.04,11-11.87,15.39-.33.3.38.4.6.2Z"/>
  <path class="cls-1" d="m418.26,190.91c-1.21,2.18-2.86,4.11-4.81,5.67-2.07,1.65-4.49,2.69-6.6,4.3-.27.21-.59.43-.93.36-.03,0-.07-.02-.08-.05-.02-.04.02-.08.05-.11,1.73-1.63,3.37-3.32,4.84-5.19.75-.95,1.46-1.93,2.12-2.94.32-.49.64-.99.94-1.5.28-.47.52-1.13.88-1.54.11-.21.81-.27.72-.11-1.75,3.22-3.9,6.19-6.39,8.85,3.61-1.61,6.63-4.37,8.56-7.83.16-.28.89-.27.69.09Z"/>
  <path class="cls-1" d="m411.57,199.86c5.69-1.26,11.02-3.8,15.54-7.49.15-.12-.52-.06-.66.05-4.29,3.49-9.35,5.97-14.75,7.16-.28.06-.64.38-.13.27Z"/>
  <path class="cls-1" d="m429.36,197.04c-3.55,3.13-7.88,5.27-12.55,6.12-.28.05-.65.34-.14.24,4.93-.9,9.57-3.11,13.34-6.43.14-.12-.52-.05-.65.07Z"/>
  <path class="cls-1" d="m429.76,279.91c7.14-2.6,13.84-6.25,19.91-10.83.39-.3-.19-.58-.49-.35-5.95,4.5-12.55,8.1-19.56,10.66-.43.16-.3.68.14.52Z"/>
  <path class="cls-1" d="m411.26,259.85c4.66-1.73,9.32-3.47,13.99-5.2.47-.17.05-.54-.31-.4-4.66,1.73-9.32,3.47-13.99,5.2-.47.17-.05.54.31.4Z"/>
  <path class="cls-1" d="m449.69,258.18c.43-.21-.24-.2-.42-.11-4.34,2.17-8.84,4.02-13.45,5.54-.49.16-.03.28.26.18,4.67-1.54,9.22-3.41,13.62-5.61Z"/>
  <path class="cls-1" d="m145.03,313.27s-.02.07-.02.1c-.01.01-.02.03-.02.04.01-.05.03-.09.04-.14Z"/>
  <path class="cls-1" d="m159.16,337.63c-.1-.21-.21-.42-.33-.63l-.02-.06c.11.21.23.44.35.69Z"/>
  <path class="cls-1" d="m166.41,360.07c-3.97-11.09-8.01-22.38-14.61-32.21-.47-.63-.93-1.27-1.39-1.92,4.43,4.57,7.52,10.29,10.1,16.07,2.52,5.82,4.56,11.87,5.9,18.07h0Z"/>
  <path class="cls-1" d="m164.23,381.43c-.96-2.06-2.25-4.33-2.03-6.66.49-2.41,2.41-3.93,3.1-6.19-.02,1.17-.58,2.27-1.09,3.28-.74,1.5-1.67,2.91-1.2,4.59.24,1.13.94,3.83,1.22,4.98h0Z"/>
  <path class="cls-1" d="m162.5,382.79c-2.21,1.66-5.44,2.35-7.95.92-5.15-2.14-8.94-8.76-5.92-14.03.65-1.24,1.4-2.4,2.26-3.49.83-1.09,1.96-1.94,2.58-3.17-.17.67-.6,1.25-1,1.8-1.21,1.62-2.33,3.34-3.14,5.19-2.45,5.07.89,10.65,5.58,13.03,2.33,1.5,5.24.98,7.59-.24h0Z"/>
  <path class="cls-1" d="m452.75,395.73c-.47-6.95-.53-13.91-.15-20.87.2-2.84.4-5.71,1.13-8.48,1.67-3.83,4.55-6.97,6.8-10.45-1.81,3.68-4.48,6.91-5.98,10.69-1.22,6.13-1.09,12.46-1.43,18.69-.08,2.59-.27,7.83-.38,10.42h0Z"/>
</svg>