<?xml version="1.0" encoding="UTF-8"?>
<svg id="uuid-43f91bc1-e68b-4397-8963-f6e09b0bccbf" data-name="Livello 7" xmlns="http://www.w3.org/2000/svg" viewBox="0 0 400 400">
  <defs>
    <style>
      .uuid-cd42ca6b-4f2e-4f70-91fd-f2ae058d9897 {
        fill: #232a56;
      }
    </style>
  </defs>
  <path class="uuid-cd42ca6b-4f2e-4f70-91fd-f2ae058d9897" d="m285.16,172.06c-.06-.18-.14-.3-.32-.09-.28-.11-.55-.22-.83-.32-2.37-1.29-4.92-1-7.45-.87-3.44-.45-6.89-.05-10.34,0-2.32-.45-4.27.14-5.76,2.04-1.71-.57-3.41-.62-5.09.12-1.11.19-1.49-.27-1.5-1.39-.02-1.34-.8-1.72-2.01-1.19-.58.25-1.14.54-1.71.81-2.49-.51-4.4,1-6.39,2-.79.4-2.05.25-2.38,1.58-.2.81-.27,2.1-1.56,1.95-1.26-.15-1.33-1.31-1.42-2.34-.02-.2-.17-.38-.38-.83-.65,1.35-2.15,1.68-1.72,3.18.33.11.78.11.97.34-.18-.23-.64-.23-.97-.34-.91.71-.88,2.07-1.89,2.71-1.63-1.36-2.48-3.34-3.88-4.88-1.48-1.63-2.41-1.67-3.79-.05-1.26,1.48.33,2.05,1.09,2.65,2.66,2.08,4.54,5.03,7.6,6.64l-.09.1s.14.02.14.02c.19.2.38.41.57.61-.03.26.08.22.23.11.24.06.47.12.71.18,1.34.88.05,1.67-.08,2.51.18-.01.35-.04.5-.09.62-.18,1.05-.6,1.45-1.06.3-.35.57-.73.88-1.06-.54-.31-1.08-.62-1.61-.94-.18-.43-.36-.86-.54-1.29.48-.47-1.21-1.4.35-1.64.54.6,1.15.26,1.76.15,2.08-.37,4.24-1.25,6.22-.95,2.93.44,5.45-.39,8.07-1.2.4.07.79.15,1.19.22.75,1.72,2.31,1.85,3.8,1.74,4.93-.38,9.73-1.73,14.69-1.99,2.88-.15,5.82-.7,8.54.43,3.45,1.44,6.76,3.23,10.13,4.86,1.8.87,3.77,1.52,5.01,3.22.84,1.16,2.03,1.4,3.42,1.63-.24-2.21-2.17-3.3-2.85-5.09-2.31-6.1-6.88-9.81-12.75-12.17Z"/>
  <path class="uuid-cd42ca6b-4f2e-4f70-91fd-f2ae058d9897" d="m314.8,154.6s0,0,0,0c0,0-.03.04-.03.04.01-.01.02-.02.03-.03Z"/>
  <path class="uuid-cd42ca6b-4f2e-4f70-91fd-f2ae058d9897" d="m313.06,169.37c.15.3.29.6.44.9-1.05.91-.97,2.14-.93,3.36.09,2.94-.27,5.87-.92,8.7-.74,3.19-.96,6.35-.61,9.58-.03.17-.05.33-.08.5-.08,1.54-.15,3.09-.23,4.63-.03.19-.07.38-.1.57.01.71.02,1.42.03,2.13.08,4.24,2.1,7.97,3.14,11.96.16.63.48,1.16-.28,1.58-.87,1.04-1.35.53-1.76-.42-.55-1.27-1.13-2.52-1.69-3.78-.19.07-.38.14-.57.2.17,2.95,1.56,5.56,2.7,8.24.88,2.06,2.48,4.17-.54,5.89-.19.11-.31.5-.31.76-.02,3.71,0,7.43,0,11.14h0c.02.46.05.92.07,1.38-.03.28-.07.55-.1.83-.01.15-.03.3-.04.45-.06.38-.13.75-.19,1.13-1.14,3.53-2.42,7.03-3.35,10.62-.62,2.39-.74,4.91-1.09,7.38-1.29,3.46-1.06,7.13-1.49,10.72-.19.19-.23.39-.05.6-.03.36-.07.71-.1,1.07-.02.2-.04.4-.06.59.05.43.1.86.15,1.29-.25.46-.29.93-.01,1.39,0,.22,0,.44,0,.66-.03.19-.06.38-.08.57-.03,1.52-.04,3.03-.09,4.55-.1,3.32.48,6.78-.53,9.92-1.67,5.17-2.57,10.7-6.01,15.18l-.16.09s.05.17.05.17c-.09.14-.19.28-.28.43-.48-.09-.31.27-.34.49.05-.07.09-.13.14-.2-.05.07-.09.13-.14.2-.09.13-.19.25-.28.38h0c-.55.07-.84.5-1.19.86-3.94,4.12-6.08,9.47-9.58,13.9-1.18.88-1.85,2.19-2.77,3.29-3.08,3.71-5.65,7.79-8.66,11.56-3.2,4.02-6.03,8.38-8.51,12.92h0c-1.21,1.02-2.07,2.24-2.17,3.88,1.2-1.14,2.01-2.58,2.91-3.94,2.73-3.9,5.44-7.82,8.2-11.71,2.03-2.86,4.13-5.67,6.2-8.5.05-.26.14-.51.26-.69-.13.18-.21.43-.26.69.17.69.34,1.38.52,2.07,0,0-.02.04-.02.04-.06.02-.17.04-.17.06,0,.11.01.22.03.33-1.56,5.17-2.85,10.41-3.78,15.73-.78,4.5-1.6,8.99-2.54,13.46-.92,4.39-1.63,8.82-2.28,13.25-.48,3.29-.63,6.68-1.39,9.86-1.14,4.74-1.08,9.65-2.46,14.32-.15.52,0,1.01.5,1.32.49.31.78-.18,1.16-.3.82-.26,1.04-1.03,1.2-1.69.78-3.33,2.41-6.4,2.72-9.88.27-2.99.96-5.94,1.32-8.92.53-4.48.72-9,1.43-13.45,1.26-7.96,2.59-15.91,4.3-23.79,1.38-6.36,2.24-12.96,6.08-18.55,1.75-.74,1.86-2.88,3.22-3.89,1.09-.8,1.8-1.38.47-2.58-.67-.6-.27-1.39.16-1.96,1.89-2.52,3.83-5.01,5.75-7.5-.13-.04-.26-.08-.39-.13.13.04.26.08.39.13,2.21-.89,3.48-2.81,4.59-4.68,2.43-4.1,3.64-8.63,4.4-13.34.7-4.34-.02-8.62-.07-12.92-.01-1.31.23-2.19,1.58-2.67,2.73-.97,4.44-3.07,5.91-5.47,2.77-4.55,4.73-9.45,6.43-14.47.78-2.29,1.88-4.51,2.15-6.94.53-4.65,1.62-9.18,3.27-13.52,1.52-3.99,2.65-8.11,4.46-12.02,2.28-4.96,2.22-10.41,1.78-15.76-.2-2.44-1.45-4.63-2.95-6.57-.69-.89-3.13-1.06-3.73-.25-.91,1.21.46,1.6.99,2.2.84.95,1.37,2.07,1.83,3.18,1.36,3.25,3.28,6.61,2.61,10.14-.86,4.5-2.17,9-4.16,13.17-2.28,4.76-4.1,9.69-5.76,14.66-2.05,6.14-2.83,12.64-5.03,18.78-1.26,3.53-3.18,6.62-5.33,9.6-.89,1.24-2.41,1.91-3.8,1.6-1.45-.32.2-1.59-.23-2.39-.03-.06-.09-.12-.1-.19-.72-3.29.1-6.5.52-9.74.1-.1.27-.2.28-.31.61-5.22,1.72-10.32,3.66-15.23.17-.43.04-.98.05-1.47.7-.25,1.41-.5,2.11-.75.21.1.41.2.62.29-.04.35-.16.71-.11,1.05.06.52-.8,1.11-.06,1.5.72.38,1.16-.47,1.48-.87,1.21-1.46.66-3.24.65-4.91,0-.45,0-.91.01-1.36.24-1.89-.48-3.72-.49-5.54-.02-2.4-2.06-5.33,1.26-7.2.16-.09.16-.53.17-.81.09-3.42.12-6.82-2.09-9.88,2.31-.61,2.35-2.09,1.83-3.91-.57-1.99-1-4.03-1.5-6.04.03-1.15,1.53-1.75,1.12-3.05-.53-1.7.28-2.2,1.81-2.07,0,0,0-.01,0-.01-.03.38.16.65.46.85.03,1.88.18,3.76.05,5.63-.13,1.87,1.09,2.87,2.15,4.02.27.3.64.33,1,.21.43-.14.46-.52.36-.88-.75-2.69-.51-5.57-1.56-8.22-.28-.72-1.05-1.77-.21-2.38.86-.62,1.73.24,2.5.77.15.11.38.1.75.19.23-2.23-.67-4.15-1.13-6.15-.56-2.42-2.68-4.27-2.9-6.62-.57-5.95-2.01-11.79-1.93-17.85.08-5.91.24-11.83.25-17.74.35-3.33.58-6.67.1-10.02-1.77,3.29-.35,7.02-1.46,10.39.07,1.95-.42,3.7-1.77,5.15.11,1.31-.33,2.54-.5,3.8-.47,3.65-.84,7.31-1.24,10.97Zm1.81,65.97c-.77-.2-1.55-.27-2.34-.21.79-.06,1.57,0,2.34.21Zm1.91-42.2c-.34.1-.32.59-.24.95h0c.1,1.68-.59,1.8-1.78.89-.07-.41-.14-.81-.21-1.22-.52-.41-1.4-.78-1.65-1.31.26.52,1.13.89,1.65,1.31.29-.58.67-1.12.65-1.81.79-.96-.24-1.97.08-2.95.98-.19,1.89-.2,2.43.84h0c.46,1.31,1.23,2.69-.93,3.3Z"/>
  <path class="uuid-cd42ca6b-4f2e-4f70-91fd-f2ae058d9897" d="m134.4,190.73c-1.11,1.12-2.34-.38-3.47.15-2.38,1.1-4.92.82-7.42.82-.42,0-.88-.12-1.17.52.83.71,1.86,1.23,2.88.85,1.54-.57,2.61.18,3.95.58,1.18.34,2.18-1.7,3.71-1.82.64-.05,1.29,0,1.94,0,1.25.38,1.68-.45,1.99-1.4.41-1.25.99-2.37,1.93-3.33,2.3-2.33,5.12-3.96,7.9-5.58,2.27-1.32,2.34-1.18,2.91,1.41.09.41.31.79.47,1.19.02.32.1.6.47.67.06.11.15.2.26.28.72,1.31.47,2.01-1.15,1.82-.92-.11-1.84-.25-2.76-.41-2.03-.35-3.01-.06-4.27,1.49,2.81-1.31,5.46-.33,8.15.32.47.11.99,0,1.49,0,1.86.54,3.85.84,5.56,1.69,2.12,1.05,4,.65,6.02-.03,2.15-.73,3.61-2.4,5.37-3.67,2.12-1.54,2.61-3.69,2.7-6.05.05-1.1-.13-1.99-1.66-1.82-1.39.16-1.61.85-1.44,2.06.56,4.06-1.42,6.44-5.44,6.74-.55.04-1,.18-1.14-.45-.09-.46-.19-.99.45-1.28.45-.21.86-.52,1.27-.81,3.27-2.26,3.19-4.47-.21-6.51.07-.44.13-.88.2-1.33,3.36-.4,6.73-.46,9.89.87,3.25,1.38,6.19,3.43,8.8,5.74,1.25,1.11,3.22,1.45,3.83,3.28h.01c.93-.49,1.55.27,2.25.61,1.23.6,2.46,1.08,3.86.88,1.31-.19,1.57-.81.76-1.86.72-.5,1.45-1,2.17-1.51h0c.28.09.56.17.84.26.3.39.67.41,1.09.21-.06-.1-.11-.2-.17-.29-2.04-1.87-3.91-4.01-6.19-5.52-1.74-1.15-3.64-2.58-6.04-2.21-.15-.41-.2-1.02-.87-.47-.4-.08-.8-.17-1.2-.25-.87-.72-1.74-.73-2.6.02-.69.03-1.38.06-2.06.09-.21-.2-.41-.17-.59.04-1.88.11-3.72.06-5.53-.65-.9-.35-1.9-.52-2.87-.58-4.2-.27-8.28.46-12.38,1.37-8.16,1.81-15.48,5.14-21.58,10.95-3.61.26-7.2.39-10.37-1.87-.57-.4-1.47-.96-1.89-.18-.4.74.54,1.18,1.18,1.52,2.66,1.41,5.41,2.33,8.49,1.67,1.38-.3,2.1.24,1.73,1.76l-.04.04Z"/>
  <path class="uuid-cd42ca6b-4f2e-4f70-91fd-f2ae058d9897" d="m237.41,187.19c-.15.04-.32.08-.5.09-.33.32-.66.65-.99.97-.05,0-.1,0-.15,0,0,.09.02.17.02.26.03.27.06.54.09.81.38.79-.37,2.74,1.4,2.11,2.73-.97,4.99-1.09,6.86,1.45.15.2.49.32.76.36,2.48.39,4.49,1.75,6.53,3.06,4.17.94,8.05,2.77,12.15,3.9.14.01.27.03.41.04.45.1.89.19,1.34.29,3.46,1.48,6.93,1.02,10.39,0,.99.18,1.93.01,2.93-.15,4.63-.76,9.32-2.1,13.86.45.55.31,1.17.31,1.8.13-.83-.75-1.62-1.47-2.41-2.19-.15-.14-.3-.27-.46-.41-.05-.1-.09-.21-.13-.31-.08-1.62-1.36-2.33-2.42-3.2-.05-.1-.12-.19-.21-.26h0c-.03-.25-.16-.38-.42-.36,0,0-.05-.04-.05-.04-2.29-3.71-5.61-5.8-9.92-6.48-2.12-.33-4.27-.73-5.97-2.27-.62-.56-1.4-.72-2.22-.71-3.12.05-6.16-.37-9.1-1.47-1.15-.43-2.34-.7-3.5.06-1.13-.04-2.26-.08-3.4-.12-.16-.18-.33-.26-.52-.05-1.63-.47-3.29-.64-4.88,0-2.9,1.15-5.99,1.3-8.99,1.94-.31.33-.58.71-.88,1.06-.39.47-.83.88-1.45,1.06Zm34,5.21c-.03.16-.06.32-.09.49-.01.53-.02,1.06-.04,1.59,0,0,0,0,0,0-.54,1.67-1.96,2.41-3.37,3.16-.65-.19-1.63.3-1.94-.49-.34-.88.73-1.08,1.21-1.54.77-.75.66-1.88,1.27-2.68h0c.53-.08,1.04-.29,1.07-.86.02-.57-.52-.81-.98-1.01-.52-.23-1.05-.41-1.58-.61,0-.36,0-.72,0-1.07,0,0,0,0,0,0,.06-.12.13-.24.19-.36,2.98-.37,4.34.72,4.26,3.4Zm7.81,6.16c-.42.35-.89.41-1.36.39.47.03.94-.03,1.36-.39-.76-.05-1.52-.1-2.22.3-.28.02-.55.03-.83.05-1.94-.82-3.78-.06-5.57.49-.96.29-1.63.37-2.21-.5.04-.28.09-.56.13-.84,0,0,0,0,0,0,1.53-.24,2.82-.74,2.89-2.6.95-.63,1.09-1.63,1.19-2.65.11-1.12.65-1.46,1.76-1.17,3.87,1.02,7.64,2.2,10.35,5.67-1.69,1.04-3.75.5-5.49,1.25Zm-24.75-13.04c2.05.06.37,1.13.05,1.75-.15.12-.3.23-.46.35h0c0,.09,0,.18,0,.27,0-.09,0-.19,0-.27-1.32.67-1.08,1.84-.95,2.98.05,1.36.12,2.72.16,4.08.01.44-.01.91-.69.74-.66-2.12-2.5-3.01-4.21-3.98-2.61-1.47-5.57-2.02-8.36-3.01h0c4.41-2.97,9.46-3.07,14.46-2.91Zm-14.85,2.96c-.29.05-.58.13-.86.24.28-.11.57-.19.86-.24Z"/>
  <path class="uuid-cd42ca6b-4f2e-4f70-91fd-f2ae058d9897" d="m288.48,63.46c6.05,5.38,11.6,11.23,17.31,16.95.52.52.93,1.65,1.78.96.64-.51-.17-1.3-.51-1.9-3.07-5.36-7.46-9.64-11.6-14.13-3.28-3.55-6.81-6.84-10.8-9.6,2.14-1.1,3.44.62,4.94,1.53.91.55,1.54,1.56,2.82,1.6-1.02-1.14-.88-3.38-3.32-3.16-.38.04-.95-.43-1.21-.82-1.29-1.92-3.51-2.6-5.18-4-1.3-1.09-2.54-2.33-4-3.16-1.57-.9-3.08-1.78-4.38-3.08-.77-.77-1.74-2.04-2.74-1.77-1.39.37-1.65-.32-2.09-1.15-.21-.4-.45-.69-.92-.84-2.56-.8-4.87-2.08-7.09-3.57-1.54-1.03-2.64-2.54-4.3-3.47-5.24-2.93-10.99-4.79-16.19-7.78-2.33-1.34-5.1-.63-7.44-1.8,0,0,0,0,0,0-.29-.19-.56-.45-.89-.55-4.12-1.33-8.17-2.89-12.48-3.58-3.25-1.64-6.85-1.59-10.32-2.14-.91-.14-1.88-.15-2.69.47-.56,0-1.12,0-1.67,0-2.63-.47-5.01.6-7.5,1.19,2.54.11,5.06-.32,7.54.3,0,0,.12.08.12.08.1.08.2.16.3.24,4.13,3.64,9.34,5.44,14.15,7.79,8.27,4.04,16.84,7.48,25.19,11.41,6.5,3.06,13.28,5.46,19.75,8.65,8.45,4.17,16.36,9.04,23.42,15.32Zm-40.1-25.67c-6.08-2.89-12.35-5.39-18.56-7.99-5.99-2.5-11.94-5.11-17.95-7.55-1.06-.43-2.03-1.08-3.04-1.64,0,0,0,0,0,0-.09-1.03.41-.98,1.3-1.02,3.27-.14,6.39.98,9.62,1.02,2.58.8,5.15,1.69,7.76,2.36,1.29.33,2.42.84,3.5,1.55h0c.4.44.87.43,1.38.23.42.01.85.03,1.27.04,0-.02,0-.05-.01-.07,0,.02,0,.05.01.07,1.87,1.77,4.24,2.7,6.57,3.51,4.84,1.67,9.19,4.39,13.96,6.16,2.3.85,3.89,2.82,6.12,3.89,3.77,1.82,7.4,3.96,10.96,6.17,2.14,1.33,4.33,2.54,6.45,3.89,1.1.7,1.71,1.69.14,2.66,1.36,1.05,2.92,1.82,4.37,2.74-1.45-.92-3.01-1.68-4.37-2.74-.51-.25-1.02-.49-1.54-.74,0,0,0,0,0,0-1.56-1.39-3.21-2.63-5.41-2.78-1.78.21-2.59-1.85-4.29-1.83-.03.02-.07.05-.1.08.03-.03.07-.06.1-.08.06-.91-.58-1.4-1.27-1.48-2.2-.25-3.81-1.83-5.88-2.38-.83-.22-1.59-.68-2.47-.28-2.45-2.19-5.77-2.46-8.62-3.82Z"/>
  <path class="uuid-cd42ca6b-4f2e-4f70-91fd-f2ae058d9897" d="m191.89,31.1c-.61.31-.29,1.02-.19,1.57.54,3.06,2.02,5.7,3.79,8.17,7.05,9.83,15.23,18.66,24.02,26.93,3.06,2.88,6.36,5.51,9.67,8.11,3.24,2.55,6.3,5.56,9.66,8.14,7.28,5.57,14.45,11.3,23.43,14.07-4.85-2.67-9.39-5.73-13.74-9.16-4.51-3.56-9.4-6.57-13.55-10.67-3.61-3.58-7.83-6.55-11.39-10.23-3.1-3.2-6.14-6.45-9.31-9.58-2.68-2.64-4.73-5.8-7.32-8.53-5.21-5.48-10.17-11.24-13.84-17.94-.27-.49-.52-1.24-1.23-.88Z"/>
  <path class="uuid-cd42ca6b-4f2e-4f70-91fd-f2ae058d9897" d="m229.92,258.3c-1.77.51-3.57.39-5.35.58-2.57-.95-5.25-.77-7.91-.76-.26-.03-.53-.06-.79-.09-.37-.49-.84-.54-1.37-.34-.74-.23-1.51-.25-2.26-.56-.99-.41-1.76.09-2.06,1.23-.31,1.16.23,1.59,1.27,1.72.92.11,1.84.28,2.76.38,1.32.13,2.29.83,3.01,1.87.43.61.73,1.51-.28,1.76-2.08.51-2.19,2.27-2.64,3.81-.13.45-.73,1.18.1,1.47.56.2,1.14-.27,1.29-.88.56-2.36,1.29-1.54,2.05-.13.27.49.64.83,1.19.69.54-.14.4-.7.41-1.09.01-.42-.09-.85-.14-1.28.05-.23.09-.46.14-.69.59.05,1.18.11,1.77.17,0,.44.01.88.02,1.32-.15,1.08-.31,2.17,1.25,2.32.6.44.61,2.57,1.93.91,1.11-1.39,2.27-2.99,1.43-5.04.11-.49.11-1.04.35-1.46.57-.98,1.62-.69,2.33-.42.77.29.33,1.05.05,1.65-.29.63-1.21,1.51-.23,1.96.93.43,1.46-.61,1.8-1.44.11-.27.19-.55.34-.79,1.26-2.01,2.04-4.6,5.26-4.22.85.1.94-.65,1.08-1.32.65-3.03,1.22-3.56,4.28-3.87,2.84-.28,5.25-1.44,7.36-3.3.44-.38,1.01-.72.94-1.37-.24-2.09.51-4.1.44-6.17.54-.54-.05-1.53.39-1.8,1.33-.84.39-1.2-.14-1.86-2.17-2.74-5.03-4.92-6.44-8.29-.46-1.11-1.72-1.78-3.49-2.14,3.07,3.15,4.46,6.99,7.31,9.8,1.14,1.13,1.74,2.63,1.6,4.32-.15.91-.02,1.84-.51,2.73-2.21,4.01-6.29,4.96-10.32,6.71.35-1.34,1.16-1.47,1.85-1.78,1.79-.81,2.73-2.31,3.12-4.16.21-1.01-.14-1.9-1.02-2.44-.71-.43-1.88-1.3-2.3-.72-1.26,1.72-2.83,2.99-4.51,4.22-.17.12-.06.68-.02,1.03.43,4.1-1.38,6.67-5.33,7.8Z"/>
  <path class="uuid-cd42ca6b-4f2e-4f70-91fd-f2ae058d9897" d="m139.66,31.87c-.54-.38-.94.08-1.32.39-4.1,3.37-4.63,10.61-1.17,14.31,4.57,4.9,10.15,8.05,16.24,10.42,4.68,1.81,9.14,4.3,14.24,4.92,3.21,1.78,6.9.07,10.18,1.4.1.04.41-.17.47-.32.14-.34-.1-.55-.41-.61-3.11-.6-5.59-2.97-8.85-3.18-2.21-1.57-5.06-1.33-7.37-2.61-2.66-1.61-5.34-3.2-8.28-4.26-3.71-1.49-7.05-3.64-10.17-6.06-1.94-1.51-4.37-2.88-4.9-5.57-.5-2.57-.57-5.18,1.56-7.29.42-.42.34-1.13-.23-1.53Z"/>
  <path class="uuid-cd42ca6b-4f2e-4f70-91fd-f2ae058d9897" d="m214.68,37.78c4.96,4.08,9.66,8.47,14.54,12.63,8.13,6.92,16.15,13.95,24.12,21.04,2.04,1.81,4.35,3.32,6.53,4.98.29.22.52.55.92.35.15-.08.2-.35.27-.48-.13-.86-.69-1.38-1.26-1.78-4.43-3.09-7.67-7.46-11.83-10.89-4.46-3.68-8.62-7.82-12.79-11.89-5.88-5.76-11.95-11.3-18.34-16.48-.83-.67-1.81-1.17-2.76-1.68-.44-.24-.98-.37-1.39.1-.37.43-.32.92-.14,1.43.4,1.14,1.25,1.95,2.14,2.68Z"/>
  <path class="uuid-cd42ca6b-4f2e-4f70-91fd-f2ae058d9897" d="m161.87,36.42c-3.42-2.96-6.95-3.36-11.02-1.92-3.76,1.33-3.79,1.25-5.39-2.74-.34-.84-.66-1.69-1.05-2.68-1.6,2.12-.72,4.13.27,5.9,3.58,6.44,8.03,12.14,14.45,16.04,1.59.97,3.21,1.77,5.19,1.29-2.07-.64-3.45-2.2-5.03-3.51-3.68-3.06-6.59-6.82-9.69-10.41-1.03-1.2-.68-1.5.45-2.15,3.2-1.84,6.13-1.07,8.91.82,5.21,3.55,8.41,8.96,12.41,13.63,1.49,1.73,2.42,3.91,4.22,5.41,3.08,5.43,6.98,10.3,11.17,14.84,5.36,5.81,11.99,10.13,18.71,14.25,2.71,1.67,5.51,3.14,8.58,4.06.7.21,1.19.4,1.6-.31-1.14-1.05-2.51-1.69-3.85-2.38-1.66-.85-3.55-1.32-4.9-2.68-1.64-1.65-3.54-2.95-5.44-4.26-.98-1.7-2.55-2.65-4.29-3.39-.4-.34-.8-.69-1.2-1.03-.14-.16-.28-.31-.42-.47-4.94-4.14-8.98-9.11-12.95-14.15-2.01-2.54-3.73-5.32-6.12-7.56-.21-.37-.4-.75-.63-1.11-2.04-3.28-5.13-5.64-7.54-8.6-2-2.45-4.01-4.82-6.43-6.92Z"/>
  <path class="uuid-cd42ca6b-4f2e-4f70-91fd-f2ae058d9897" d="m107.04,168.38c.89-4.07,1.08-8.29,2.52-12.25.31-.86.31-1.85.43-2.78.04-.34.15-.76-.22-.97-.37-.21-.71.06-.95.31-2.22,2.22-3.72,4.8-3.92,8.02-.15.36-.13.7.1,1.02.02.38.04.77.07,1.15-.64-.12-.68,2.07-1.7.44,1.55-5.78,1.9-11.86,4.28-17.44.11-.26.2-.56.2-.83,0-.82.49-1.94-.48-2.33-.96-.39-1.41.74-1.99,1.32-.24.24-.33.63-.54.92-1.4,2.01-1.34,4.61-2.67,6.65h0c-1.07.93-.68,3.27-2.94,3.05,1.6-5.49,3.2-10.98,4.8-16.47.49-1.08,1.2-2.12.61-3.8-.69,1.16-1.26,1.94-1.38,2.97-1.34,3.48-3.24,6.86-3.87,10.46-.8,4.56-3.42,8.44-3.98,13.07-.25,2.05-1.3,4.11-1.4,6.25-.16,3.44-1.08,6.64-2.36,9.8-.94,2.33-1.93,4.68-1.63,7.34.98-5.82,5.73-10.37,5.37-16.63,2.35-2.83,1.24-6.95,3.63-9.76.91-.11,1.75-1.72,2.74-.13h0c-.07.36-.13.73-.2,1.09-.05.2-.1.39-.15.59-2.41,6.25-2.76,12.98-4.5,19.39-.1.19-.2.37-.3.56-.07.09-.13.2-.17.31-2.32,1.89-4.27,8.36-3.16,10.79.42-.95,1.07-1.73,1.11-2.74.06-1.81,1.05-2.19,2.6-1.78.14.15.28.29.43.44.49,1.35.07,2.54-.6,3.71-.52.9-.97,1.83-.09,3.11.84-2.48,2.62-4.4,1.64-7,.48-.65.65-1.41.84-2.18,1.12-4.42,2.29-8.83,3.44-13.25.2-1.2-.27-2.6.43-3.65-.7,1.05-.23,2.45-.43,3.66.31.27.62.54.92.81-.53.43-.39,1.04-.41,1.61-.09,2.95-.79,5.82-1.03,8.77-.47,5.83-1.79,11.59-1.62,17.49.02.58-.37,1.51.59,1.5.78,0,.76-.94.81-1.56.19-2.48.3-5.18,1.01-7.35,1.12-3.4,1.02-6.86,1.8-10.23,1.02-4.41,1.35-8.98,2.32-13.41Zm-3.76-1.52c.15-.16.34-.32.57-.46-.23.14-.42.29-.57.46Z"/>
  <path class="uuid-cd42ca6b-4f2e-4f70-91fd-f2ae058d9897" d="m195.45,292.22l-2.14-.76c-4.24-.03-8.29-1.29-12.43-1.9-.86-.13-1.43-.58-1.85-1.28-.06-.3-.11-.6-.17-.91.48-.23.96-.46,1.44-.68.16-.02.32-.04.48-.06,5.17-.93,10.34-1.88,15.52-2.77,2.76-.48,5.53-.86,8.29-1.28,1.04.11,2.08.18,3.09-.15h0c.27,0,.54,0,.81,0,.16.04.33.09.49.13.57.17,1.14.35,1.72.52h0c.26.22.54.33.87.17.85.34,1.71.04,2.56.04,2.09.24,4.2.78,6.1-.68.04-.1.06-.2.04-.3-2.05.13-4.11.27-6.16.4-1.57-.32-3.14-.64-4.71-.96-.17,0-.33-.02-.5-.02-.42.03-.84.06-1.25.09-1.32-.93-2.62.22-3.93.03-2.12.23-4.26.34-6.35.71-6.38,1.13-12.75,2.36-19.12,3.54h0c-3.69-1.58-7.57-.76-11.37-.85-.62.03-1.4-.33-1.79.36-.75,1.33-1.86,2.12-3.22,2.72-.46.2-1.11.59-.96,1.29.13.62.75.84,1.27,1.08.61.28,1.29.4,1.9.16,3.22-1.28,6.51-1.02,9.78-.42,2.47.45,4.99-.56,7.33.1,4,1.12,8.13,1.25,12.16,2.07.16.02.32.05.48.07.69.08,1.37.17,2.06.25l.02-.68c-.15,0-.3-.02-.46-.03Z"/>
  <path class="uuid-cd42ca6b-4f2e-4f70-91fd-f2ae058d9897" d="m174.45,33.48c-.71-.64-1.5-1.06-2.74-1.32,4.05,4.91,8.68,8.73,12.85,12.99,9.76,9.97,21.16,18,32.15,26.51,1.69,1.31,3.53,2.65,6.12,2.99-1.17-1.94-3.25-2-4.55-3.17-4.28-3.85-9.14-6.95-13.53-10.67-5.61-4.75-10.75-10-16.29-14.81-4.73-4.11-9.35-8.33-14.02-12.52Z"/>
  <path class="uuid-cd42ca6b-4f2e-4f70-91fd-f2ae058d9897" d="m105.83,274.76c.01-7.94-2.4-15.49-2.76-23.32-.64-5.6-1.12-11.23-3.69-16.83.25,3.44,1.45,6.27,1.84,9.25.35,2.7.29,5.46,1.27,8.06.19,2.44.41,4.88.56,7.33.05.75.23,1.85-1,1.68-2.28-.32-4.78.08-6.63-1.81-.17-.12-.35-.23-.52-.35-.15-.11-.3-.23-.46-.34-.45-1.09-1.57-1.45-2.35-2.17-4.54-4.14-7.73-9.29-10.67-14.57-1.25-2.23-2.42-4.6-3.11-7.13-1.55-5.67-3.13-11.33-4.78-16.98-.28-.96-.22-1.69.46-2.36.91-.92.72-1.85.22-3-.84.55-.7,2.04-1.88,1.68-.97-.3-1.05-1.38-1.12-2.18-.14-1.52-.78-2.74-1.73-3.88-3.01-3.62-2.58-8.02-2.68-12.28,0-.14.04-.32.13-.4.41-.36.54-1.14,1.27-1.03.57.09.69.63.89,1.11.42,1.06.07,2.16.27,3.22h0c.06.42.11.84.17,1.26-.3,2.58.94,4.63,2.34,7.25.1-1.42.1-2.19-.29-2.93-.57-1.09-1.18-2.17-1.02-3.47.01-.71.02-1.41.03-2.12,0-.88.01-1.75.02-2.63.5-4.45,2.32-8.61,2.89-13.05,1.3-.9,2.3-.4,3.18.68,1.08,1.33,2.41,2.28,4.05,2.76.58.17,1.26.6,1.77-.14.55-.79.05-1.33-.47-1.88-1.17-1.23-2.77-2.03-3.42-3.8-.45-1.21-1.36-2.56-2.76-2.41-1.37.15-2.68,1.03-3.11,2.62-.48.65-.66,1.42-.82,2.18-.57,2.65-1.2,5.28-2.19,7.81-1.34.44-1.2-.23-1.03-1.21.69-3.96,1.22-7.95,1.97-11.89.47-2.46,1.17-4.88,2.67-6.99,1.96-2.74,3.58-3.26,6.85-2.06.77.69,1.54,1.38,2.45,2.19.34-1.69-.51-2.42-1.65-2.98-.97-.6-.91-1.37-.6-2.38.94-3.05,1.63-6.17,1.93-9.36.07-.24.13-.48.2-.73.06-.2.12-.4.18-.59,1.37-4.37,1.97-8.87,2.5-13.4-.99.88-1.39,2.02-1.6,3.21-.67,3.83-1.29,7.67-1.93,11.5-.45.43-.43,1.05-.64,1.56-1.1,2.62-.56,5.62-1.99,8.17-.37.66-.46,1.02-1.45,1.05-1.81.05-3.48.56-4.72,2.32-2.03,2.88-2.86,6.04-3.72,9.4-1.11,4.33-.85,8.94-2.7,13.05-1.01,2.26.04,4.67-.71,6.76-.97,2.69,0,5.17.83,7.28,1.5,3.81,3.24,7.58,4.96,11.32.29.62.94.77,1.05,1.81.53,5.5,1.1,11.11,3.29,16.22,3.21,7.49,6.45,15.07,12.18,21.09,1.63,1.71,2.91,4,5.54,4.55,2.27,1.62,5.01,1.17,7.54,1.66,1.41.27,2.42.53,2.62,2.45.44,4.26.65,8.53.68,12.8.02,1.96-.02,3.9.16,5.87.4,4.46.98,8.85,3.48,12.73.69.02,1.38.05,2.07.07-.11-1.16-.46-2.25-.87-3.34-2.2-5.8-3.42-11.91-3.42-17.99Z"/>
  <path class="uuid-cd42ca6b-4f2e-4f70-91fd-f2ae058d9897" d="m277.91,64.38s-.01,0-.02,0c0,0,0,0,0,.01,0,0,0,0,.01,0,0,0,0,0,0-.01Z"/>
  <path class="uuid-cd42ca6b-4f2e-4f70-91fd-f2ae058d9897" d="m201.89,38.02c-.7.75-.32,1.64.28,2.34.47.54.97,1.09,1.54,1.51,1.7,1.23,3.2,2.65,4.64,4.19,1.52,1.63,3.11,3.2,4.91,4.56,4.81,3.65,8.97,8,13.29,12.2,2.11,2.05,4.05,4.53,7.09,5.45-.52-1.16-.83-2.39-1.8-3.36-3.23-3.26-7.16-5.66-10.29-9.1-2.51-2.75-5.03-5.53-7.69-8.16-3.18-3.14-6.42-6.23-9.68-9.29-.62-.58-1.51-1.17-2.29-.34Z"/>
  <path class="uuid-cd42ca6b-4f2e-4f70-91fd-f2ae058d9897" d="m263.32,30.97c5.14,2.84,10.48,5.31,15.75,7.88,1.88.92,3.91,1.31,6.03,1.28-1.87-.64-3.03-2.61-4.74-2.95-3.17-.63-5.75-2.41-8.49-3.77-4.69-2.33-9.23-5.04-13.56-8-1.97-1.35-4.82-1.85-5.58-4.84-.3-1.18-1.9-1.22-2.97-1.15-.6.04-1.5.85-1.63,1.45-.2.91.86,1.33,1.5,1.88,4.12,3.48,9.03,5.65,13.68,8.22Z"/>
  <path class="uuid-cd42ca6b-4f2e-4f70-91fd-f2ae058d9897" d="m314.8,154.6s-.03,0-.04.01c0,0,0,.02.01.02,0,0,.03-.04.03-.04Z"/>
  <path class="uuid-cd42ca6b-4f2e-4f70-91fd-f2ae058d9897" d="m263.18,286.82c-.41-.03-.8-.27-1.2-.41,0,0,0,0,0,0-2.39-1.24-4.92-1.04-7.46-.69-1-.76-2.17-1.3-3.38-1.25-4.45.19-8.66-1.3-13.02-1.72-2.97-.28-5.88-.83-8.82-1.59-2.76-.72-6.06.3-9.04,1.14.01.1,0,.2-.04.3,5.13-.3,10.14.74,15.2,1.2,4.8.43,9.57,1.11,14.38,1.41,1.76.11,2.87,1.18,4.32,1.73.11-.24.35-.44.45-.69-.09.25-.33.45-.45.69.05.31.1.62.14.94h0l-.24.41c-.05.06-.12.1-.2.1l-.19.05c-.13.14-.28.22-.44.26.16-.03.31-.12.44-.26-.37-.14-.67.01-.95.23-2.71-.56-4.69,1.49-7.12,2-2.95.62-5.85,1.47-8.9,1.59-.83.03-1.56-.05-2.28-.41h-.07s.07,0,.07,0c-.04-.25-.14-.22-.27-.06-.3,0-.59,0-.89,0-1.44-.71-2.78-1.22-4.29.05-.92.77-2.41.08-3.46.83.35,0,.7,0,1.05,0-.35,0-.7,0-1.05,0-2.84.32-5.68.45-8.54.19-.75-.07-1.54.23-2.31.36h0c-2.93,1.74-5.79-.45-8.74-.17-3.34.31-6.66-.53-10-.78,0,.23-.02.45-.02.68,4.66,1.18,9.48,1.06,14.21,1.63,1.35.16,3,.67,4.28-.56.49.08.98.21,1.47.22,3.39.08,6.78,0,10.09-.71,1.77-.39,3.45.77,5.15,0,.87-.07,1.74-.14,2.61-.21,1.71.31,3.43.18,5.13-.03,6.82-.86,13.65-1.63,20.41-2.89,1.81-.3,3.61-.6,5.42-.9.71-1.55.42-2.53-1.48-2.66Z"/>
  <path class="uuid-cd42ca6b-4f2e-4f70-91fd-f2ae058d9897" d="m99.97,205.9c.88-.08.69.91.74,1.51.14,1.72.23,3.45.35,5.17.05.79.31,1.48,1.24,1.44.94-.04.8-.84.85-1.46.23-3.15-.95-6.08-1.47-9.11-.06-.35-.23-.64-.72-.63-2.66.08-2.72-1.87-2.63-3.67.07-1.48.03-2.8-1.26-4.1-.14,2.1-.37,3.99.13,5.76.65,2.31-.69,2.68-2.35,2.97-3.44-2.68-5.88-2.64-8.24.21-.58.7-.94,1.58-1.41,2.37-2.01,3.35-2.75,7.13-3.19,10.9-.34,2.82-.35,5.73.71,8.54,1.52,4.02,4.29,5.23,8.2,3.41,1.17-.54,2.25-1.33,3.62-1.31.08.17.19.26.36.09.28.09.56.19.84.28.27.08.43-.03.5-.29.33-.37.36-.79.2-1.25-.93-.02-1.86-.04-2.79-.05-1.18.31-2.41.49-3.53.96-1.28.54-2.09.24-2.62-.96-1.51-3.42-3.32-6.87-2.51-10.71.68-3.18,1.2-6.46,2.63-9.45.57-1.18,1.5-1.51,2.87-1.2,1.78.4,2.99,1.99,4.84,2.14h0c.56.7,1.2-.21,1.81.09.51.26.79.62.71,1.19-.06.43-.4.67-.77.55-3.06-.95-2.41,1.64-2.97,3.08h0c-.02,2.44-.04,4.89-.06,7.33h0c.03.33.07.66.1.99.05.26.1.51.15.77-.56,1.06.14,2.05.23,3.07.08.93-.07,1.64-.88,2.15.93.02,1.86.04,2.79.05-.09-2.1-.02-4.22-1.04-6.17.06-1.14.11-2.29.17-3.43-.01-.17-.03-.33-.04-.5-.03-.58-.05-1.16-.08-1.74.93-.87.13-2.54,1.48-3.41.12.38.28.6.23.75-.34,1.04-.35,1.92,1.03,2,1.2.07,1.62-.61,1.54-1.78-.12-1.57.17-3.17-.45-4.7-.32-.78-.34-1.77.71-1.87Zm-.5-2.57s.09.09.13.14c-.05.04-.1.12-.15.11s-.09-.09-.13-.14c.05-.04.1-.12.15-.11Z"/>
  <path class="uuid-cd42ca6b-4f2e-4f70-91fd-f2ae058d9897" d="m192.86,253.42c.78-.34,1.6-.62,2.34-1.03q4.56-2.5,8.52.81c.92,1.86,2.32,2.99,4.47,3.06-1.45-1.39-2.87-2.76-4.11-4.31-1-2.18-2.35-4.08-4.04-5.82-1.76-1.81-3.72-1.73-5.51-.67-1.89,1.12-3.55,2.7-4.48,4.85-.34.79-.57,1.54.15,2.17.74.64,1.49,1.43,2.65.93Z"/>
  <path class="uuid-cd42ca6b-4f2e-4f70-91fd-f2ae058d9897" d="m209.82,15.36s0-.02,0-.03c0,0-.02,0-.03,0l.02.02Z"/>
  <path class="uuid-cd42ca6b-4f2e-4f70-91fd-f2ae058d9897" d="m236.52,71.96c6.69,5.1,12.78,10.94,19.7,15.74,2.77,1.92,5.4,4.08,8.84,4.81-4.17-2.46-7.68-5.74-11.36-8.8-5.47-4.55-11.51-8.43-16.19-13.88-1.07-1.24-2.19-1.91-3.82-1.53.46,1.6,1.6,2.72,2.84,3.67Z"/>
  <path class="uuid-cd42ca6b-4f2e-4f70-91fd-f2ae058d9897" d="m233.68,68.3s0,0,0-.01c-.01,0-.02,0-.03-.01,0,.01,0,.02.01.03,0,0,.02,0,.02,0Z"/>
  <path class="uuid-cd42ca6b-4f2e-4f70-91fd-f2ae058d9897" d="m97.9,70.91s.02,0,.03,0l-.03-.03s0,.02,0,.03Z"/>
  <path class="uuid-cd42ca6b-4f2e-4f70-91fd-f2ae058d9897" d="m75.38,110.72c0-1.31.05-2.58.46-3.84,1.48-4.59,2.86-9.19,4.76-13.64,2.62-6.14,6.05-11.58,11.55-15.52.85-.61,1.42-1.36,1.88-2.29.65-1.33,1.26-2.74,2.91-3.24.54-.16.96-.61.96-1.27-.67-.07-1.35.89-1.93.19-.46-.56.29-1.15.44-1.75.61-2.46,2.48-4.32,3.16-6.74,0,0-.04,0-.09,0h.09c2.25-3.06,4.53-6.12,6.75-9.2,3.55-4.92,8.27-8.62,12.83-12.48.15-.13.3-.26.45-.4h0c1.34.21,2.46-1.55,3.9-.44.38-.16.47-.44.48-.76,0,.32-.11.6-.48.76-7.55,7.49-14.35,15.57-19.42,24.98-.73,1.35-1.61,2.57-2.72,3.62-1.44.26-2.42,1.21-3.39,2.19,1.4.07,2.42-1.24,3.84-1.07-.28,1.01-.31,2.08-1.27,2.85-1.57,1.26-2.99,2.71-4.54,3.99-4.14,3.4-7.4,7.57-10.46,11.91-.69.78-1.34,1.58-1.59,2.63-2.39,2.73-3.36,6.19-4.45,9.49-1.08,3.25-2.52,6.48-2.45,10.06.02.9-.38,1.83-.68,2.71-2.25,6.63-1.61,13.41-1.36,20.47,1.75-7.1.49-14.15,2.4-21,1.16-4.17,1.97-8.45,3.34-12.6,1-3.02,2.64-5.76,3.52-8.81,0,0,0,0,0,0,.93-.56,1.39-1.52,2-2.36,3.09-3.38,5.81-7.1,9.16-10.26,2.77-2.61,5.47-5.29,8.2-7.94h0c.48-.06.93-.2,1.22-.64.44-.15.88-.29,1.31-.44,1.22-.8,2.27-1.74,3.17-2.81.45-.53.86-1.1,1.24-1.7-.38.6-.79,1.16-1.24,1.7-.9,1.07-1.95,2.01-3.17,2.81.72.49.47,1.21.44,1.88-.9,1.46-1.68,2.98-2.72,4.37-4.05,5.41-7.54,11.17-10.36,17.33-.85,1.63-1.86,3.19-2.18,5.05,1.49-1.33,2.05-3.17,2.86-4.86.54-.93,1.09-1.85,1.61-2.79,4.28-7.65,9.18-14.87,14.75-21.63,1.03-.27,2.08-.61,3.02.17.48.39.87.26.98-.19.4-1.54,1.85-2.71,1.6-4.48.1-.1.21-.2.33-.28.41.14.46-.2.58-.44.6-.24,1.21-.45,1.79-.73.51-.25.44-.65.14-1.06-.25-.35-.55-.9-.93-.35-1.41,2.04-4.04,1.7-5.78,3.06-.71-.24-.53-.91-.68-1.41.4-.84.72-1.72,1.21-2.5,3-4.87,6.39-9.46,10.2-13.73.33-.7.89-1.14,1.49-1.53-.6.39-1.15.83-1.49,1.53.35.06.69.12,1.04.18-2.05,5.33-3.34,10.82-3.14,16.57.07,1.89-.5,3.84.35,5.69.04,2.99.58,5.98-1.19,8.82-1.78,2.86-3.28,5.9-4.75,8.94-2.5,5.18-5.17,10.25-8.44,15-.92,1.34-2.02,2.73-2.01,4.57,3.43-5.81,7.61-11.15,10.34-17.4,1.7-3.88,3.83-7.58,5.81-11.34.26-.49.72-.96,1.21-1.2,1.71-.85,2.22-2.34,2.41-4.07.1-.93.28-1.85.45-2.77.14-.76.54-1.43,1.34-1.49.76-.06,1.33.38,1.62,1.17.21.57.31,1.28,1.77,1.68-3.11-3.97-.71-7.03,1.03-10.42-1.86.58-2.34-.22-2.35-1.64,0-.76.24-1.61-.48-2.24-.14-.71-.27-1.42-.52-2.71-.72,1.72-.32,2.98-.56,4.14-.18.38-.36.75-.54,1.13-.65,1.38.29,3.27-1.59,4.34-.68.39.25.88.7,1.17,2.03,1.27,2.02,1.34.15,2.93-1.06.9-2.2,1.31-3.57.87.09-.4.18-.8.27-1.19.44-.96.88-1.92.06-2.91-.02-.65-.14-1.31-.04-1.93.91-5.73,1.04-11.63,3.58-17.02.34-.51.22-1.08.23-1.63.76-1.4,1.49-2.83,2.83-3.81.06-.36.02-.67-.08-.95.1.28.14.59.08.95.18.09.36.18.55.28.3,1.91-1.42,3.29-1.37,5.14-.97,1.15-.73,2.57-.86,3.9-.08.18-.16.36-.24.54.03,1-.37,2.08.54,3.3.39-2.36.71-4.38,1.05-6.41.05-.03.13-.07.13-.1,0-.1-.04-.19-.06-.29.05-.26.11-.53.16-.79.39-.76.7-1.58,1.18-2.28,1.01-1.45,1.59-2.96,1.23-4.75.06-.27.08-.56.19-.82,2.06-5.09,6.24-8.19,10.64-10.98,2.62-1.66,5.54-3.04,8.07-4.68,2.47-1.6,4.74-3.43,7.51-4.67,7.74-3.45,15.36-7.16,23.55-9.5,5.04-1.44,10.14-2.53,15.41-2.63,0,0,0,0,0,0,.59.57,1.79.15,2.06,1.03.18.56-.77.66-1.09,1.09-2.24.4-4.19,1.56-6.15,2.57-3.1,1.6-6.47,2.7-9.22,4.95,0,0,0,0,0,0-.44.28-.88.57-1.33.85,0,0,0,0,0,0-.36.23-.72.45-1.08.68-4.06,1.67-13.47,10.29-13.53,12.88,1.91-2.31,3.79-4.13,5.85-5.79,2.79-2.26,5.62-4.49,8.43-6.73.26-.18.52-.36.78-.54.51-.18,1-.39,1.3-.88,5.26-2.09,9.98-5.35,15.33-7.26.77-.39,1.76-.3,2.34-1.09-.19-.05-.38-.1-.61-.07.02-.03.03-.06.05-.09,0,0-.01,0-.02,0,.09-.24.18-.46.29-.67-.11.21-.21.43-.28.67.19.05.38.1.57.15,2.33-.97,4.74-1.09,7.2-.74.74-.09,1.47-.19,2.21-.28,2.02-.04,4.03-.07,6.05-.11.3-.01.61-.02.91-.04.27,0,.54-.01.81-.02h0c1.85.25,3.71.48,5.55.77.52.08,1.32-.06,1.39.71.07.79-.69.77-1.23.91-3.63.88-7.24,1.78-10.62,3.49-1.39.71-2.43,1.44-2.85,2.94,1.56-.36,2.12-2.25,3.64-2.53,4.09-.77,7.92-2.44,12.16-2.9,4.03-.43,8.14-.77,12.16-1.8,3.28-.84,6.86-.87,10.29-.47,1.38.16,3.18-.53,4.19,1.17-2.62,1.15-5.26,2.19-8.21,1.95-2.49-1.11-5.13-1.27-7.82-1.27,2.53,1.59,5.58,1.38,8.28,2.35,1.56.06,3.11.12,4.6-.56,3.71-1.7,7.56-1.31,11.38-.54,6.51,1.31,11.29,5.59,15.93,9.87,4.02,3.71,8.58,6.79,12.33,10.82.95,1.02,2.14,1.94,3.55,2.35.62.18,1.41.9,1.87.29.45-.6-.2-1.37-.65-1.9-1.59-1.86-3.33-3.6-4.83-5.53-4.31-5.56-9.29-10.39-15.13-14.32-.05-.35.03-.86-.17-1.01-2.03-1.54-4.12-3.02-6.64-3.66-.79-.2-1.59,0-1.8,1.03-3.3-.76-6.47-2.47-10.03-1.5-2.99-.58-6.02-.34-9.03-.55-3.44-.24-6.92-.21-10.28.36-3.7.63-7.18.63-10.82-.41-2.15-.61-4.5-.95-6.82-.65h0c-1.85-.04-3.7-.08-5.55-.13-.54-.5-1.83-.29-1.69-1.33.13-1.01,1.23-.73,1.96-.88.7-.14,1.4-.25,2.1-.39.37-.07.71-.24.66-.68-.06-.45-.44-.57-.81-.48-2.33.55-4.83.6-6.83,2.21-2.08.36-4.16.72-6.25,1.09-.86-1.23-1.97-.73-3.05-.44-.26-.01-.52-.02-.78-.04-.2,0-.4,0-.61,0-5.97.27-11.86,1.08-17.7,2.34-2.58.56-4.81,2.06-7.25,2.87-7.27,2.41-13.49,6.98-20.62,9.65-.26.1-.49.3-.71.49-2.21,2-4.91,3.24-7.4,4.82-1.23-.84-1.14-1.77-.04-2.58,3.39-2.49,6.45-5.44,10.27-7.33.51-.25,1.06-.48,1.03-1.24-.78-.13-1.33.34-1.94.69-5.13,2.96-9.5,7-14.37,10.34-2.1,1.44-4.21,3.53-4.48,6.54-1.14,1.18-1.85,2.74-3.34,3.62-.7.41-1.12,1.11-1.02,2.01-.73.18-1.47.36-2.2.53-1.34,0-2.54.31-3.42,1.41.01.1.02.19.02.29,0-.09,0-.19-.02-.29-1.98-.84-3.52.17-5.07,1.18-.46.18-.98.27-1.38.54-3.36,2.35-6.23,5.35-8.89,8.35-3.12,3.51-6.1,7.26-8.7,11.26-.52.8-.7,1.47-.73,2.31-.72.49-1.29,1.08-1.75,1.85-1.28,2.14-2.29,4.39-2.92,6.8-.57,2.17-1.55,4.25-3.33,5.51-4.15,2.94-6.86,7.03-9.32,11.28-3.08,5.32-4.9,11.19-6.68,17.05-.87,2.86-1.11,5.8-.81,9.11,1.2-1.24.99-2.43.99-3.53Zm54.2-69.76c.01-.06.02-.13.05-.18.02-.03.08-.02.13-.03-.06.07-.12.14-.18.21Zm-1.53-2.47c-.16-.17-.31-.34-.44-.52.13.18.28.35.44.52Zm-22.87,30.55c-.39.04-.78.08-1.16.12,1.73-3.08,3.58-6.07,6.11-8.58,0,0,0,0,0,0,.4-.03.8-.06,1.2-.08-.9,3.68-2.6,6.78-6.16,8.55Zm19.57-28.32c.34-.27.67-.56,1.03-.79.47-.31.94-.29,1.36.14.44.45.1.77-.15,1.11-.44.57-.82,1.2-1.32,1.7-3.01,2.99-6.06,5.94-9.09,8.91h0c-.45-.12-1.11.09-1.13-.72,2.98-3.56,5.65-7.4,9.31-10.35Z"/>
  <path class="uuid-cd42ca6b-4f2e-4f70-91fd-f2ae058d9897" d="m83.57,134.76c1.5-6.52,3.38-12.96,5.09-19.43-.21-.04-.43-.09-.64-.13-4.33,13.22-8.61,26.45-9.87,40.47.82-1.63,2.5-2.76,2.49-4.74-.01-5.57,1.7-10.84,2.93-16.17Z"/>
  <path class="uuid-cd42ca6b-4f2e-4f70-91fd-f2ae058d9897" d="m334.67,155.15c.06-3.32-.95-6.51-.59-9.95.83-7.96-1.07-15.61-3.81-23.05-1.16-3.15-2.44-6.23-4.66-8.82-.41-.48-.78-1.36-1.45-1-.79.42-.04,1.15.17,1.68.84,2.13,2.42,4.23,2.45,6.36.05,2.83,1.49,5.42,1,8.26-.06.34.09.72.59.7.51-.44.4-1.06.36-1.61-.11-1.57.77-.9,1.46-.68.09.37.17.73.26,1.1-.07.27.05.43.29.53,1.03,5.12,1.74,10.27,1.93,15.5.16,4.37-.36,8.71-.55,13.06-.44.77.45,1.91-.7,2.48-.35-1.53-.66-3.07-1.07-4.59-.85-3.16.01-6.44-.69-9.61.51-1.16.27-2.37.28-3.57,0-.75-.64-1.39-.23-2.26,1.02-2.15.85-2.35-1.51-2.11-.41.04-.83.04-1.25.06.11-1.92.27-3.9-.47-5.7-.9-2.2-.93-4.52-1.39-6.78.3-2.08-.2-4.01-1.24-5.79-1.57-2.67-1.46-5.93-3.06-8.58h0c.08-2.55.7-5.03,1.1-7.53.34-2.11,1.28-4.21.3-6.39-1.28-3.85-1.03-7.93-1.77-11.86-.7-3.68-.51-7.52-1.83-11.1.13-.88-.15-1.69-.39-2.52-2.16-7.59-6.06-14.24-10.83-20.45-.48-.71-.89-1.48-1.45-2.12-2.11-2.43-4.32-4.75-6.6-7.02-1.68-1.67-3.09-3.24-5.46-3.7-.54-.1-1.01-.16-1.39.25-.52.55.11.85.28,1.28.76,1.92,2.76,2.61,4,4.09,2.38,2.84,4.85,5.61,7.14,8.53,0,.56.39.89.7,1.28,4.56,5.79,7.92,12.25,10.69,19.05.37,2.28,1.55,4.41,1.25,6.83-.52,4.25.09,8.51-.02,12.76-.07,1.09-.13,2.19-.2,3.28-1.74.58-2.41,1.69-1.74,3.5.17.46.18.98.27,1.47-.67,1.34-.18,2.96-1.03,4.25-.4.22-.82.22-1.24.07-.01-.43.12-.93-.05-1.28-1.77-3.67-2.61-7.68-4.18-11.42-1.38-4.68-4.85-8.09-7.39-12.06-2.69-4.21-6.74-7.26-10.29-10.72-3.05-2.97-6.6-5.28-11.01-5.97-1.15-.18-1.6.03-1.77,1.08,3.86.35,6.78,2.66,9.54,4.99,5.97,5.04,10.52,11.42,15.57,17.33,1.67,1.95,2.17,4.73,4.32,6.39,2.04,3.52,2.87,7.52,4.54,11.18h0c-.6,1.06,0,1.96.43,2.84.62,1.25.01,1.93-1.02,2.39-1.11.48-1.4-.22-1.81-1.15-2.09-4.76-4.87-9.11-7.74-13.45-2.74-4.14-5.3-8.42-8.44-12.28-4.49-5.53-8.46-11.51-14.01-16.12-.65-.54-1.24-1.21-1.4-2.11-1.12-.24-1.82-1.09-2.6-1.83-2.56-2.45-5.37-4.59-8.29-6.57-.53-.36-1.3-1.12-1.87-.31-.41.6.37,1.11.85,1.55,5.18,4.71,10.15,9.64,14.8,14.87,5.46,6.14,10.98,12.22,15.57,19.11,3.83,5.75,8.22,11.12,11.9,16.99,1.07,1.71,2.1,3.25,4.42,3.04.04,1.9-1.06,3.71-.48,5.66-1.16,4.44-1.5,8.96-1.15,13.53-2,3.51-1.12,7.35-.86,10.98.26,3.74.66,7.5,1.38,11.22.45,2.3.95,2.83,3.19,1.99-.23-.43-.52-.83-.47-1.37.56-6.06-.53-12.04-.91-18.05-.11-1.73,0-3.65-1.5-5h0c.4-2.1-.1-4.2.23-6.35.37-2.34,1.37-4.57,1.29-6.98.17-.39.46-.77.49-1.18.36-4.49,1.74-8.82,2.16-13.3.33-3.5,2.32-6.6,2.24-10.18h0c.34-.42.68-.83,1.2-1.45.84,2.63,1.36,4.96,1.24,7.4-.42,3.49-.75,6.99-1.79,10.37-.18,2.04-1.67,3.63-2.18,5.38-.89,3.04-2,6.34-.58,9.66.75,1.75.78,3.63.82,5.52.05,2.49.89,4.96-.05,7.47-.18.49.03,1.37.69,1.39.84.02.57-.84.57-1.35.01-3.46-.01-6.92-.02-10.38,0-.65.07-1.4-.39-1.87-2.66-2.69-.95-5.32.07-7.94.26-.66.72-1.43,1.55-1.25.96.21.66,1.16.66,1.82.02,3.17-.03,6.33-.05,9.5.24,0,.47.01.71.02.42-2.13.83-4.26,1.25-6.4.78,1.68,1.1,3.49,1.97,5.09h0c.86,5.19,1.72,10.37,2.59,15.56-.02,1.16-.23,2.33.16,3.47.03.41.06.82.09,1.24-.18.21-.14.4.07.56-.1,6.35,1.56,12.45,2.61,18.64.22,3.58,1.21,7.09.86,10.72-.18,1.89-.18,3.82-3.68,3.7,3.59,1.68.65,4.3,1.92,6.2.75-.77.26-1.65.59-2.36,1.77-3.84,2.97-7.83,3.76-12.02.82-4.39,1.06-8.79,1.35-13.21.49-.78.37-1.67.38-2.52Zm-17.47-63.17c.15-.07.29-.15.44-.17-.15.02-.29.09-.44.17Zm1.92,21.85c-.09-.09-.34-.22-.33-.33.01-.24.09-.59.26-.69.27-.16.5.03.52.37.01.28-.04.54-.45.65Z"/>
  <path class="uuid-cd42ca6b-4f2e-4f70-91fd-f2ae058d9897" d="m83.13,117.68s.13-.05.13-.08c0-.09-.03-.18-.04-.27.11-.31.23-.63.34-.94v-.42c0,.14,0,.28,0,.42.62-.91,1.01-1.92,1.16-3.01,4.33-6.88,8.71-13.73,14.13-19.85,2.38-1.67,4.2-4.08,7.39-5.2-2.18-.42-4.7,1.12-7.5,4.21-6.49,6.26-11.23,12.68-14.73,19.98-.34.24-.45.87-.94.77-.58-.11-.44-.69-.37-1.07.31-1.77.58-3.55,1.29-5.23.73-1.71,1.2-3.5,1.35-5.53-.8.31-.92.76-1.03,1.15-1.1,3.73-2.24,7.45-3.24,11.2-.27,1-.74,2.08-.28,3.18-.09.27-.22.54-.28.82-1.65,8.07-3.88,16.04-4.98,24.21-.29,2.16-.86,4.51.04,6.83,1.09-1.19,1.11-1.19,1.1-2.93-.04-5.14.81-10.16,2.23-15.07,1.28-4.42,2.81-8.77,4.23-13.15Z"/>
  <path class="uuid-cd42ca6b-4f2e-4f70-91fd-f2ae058d9897" d="m132.91,283.73c2.67,7.26,5.44,14.5,8.74,21.52.93,1.99,1.84,3.99,2.89,6.28.2-1.15-.15-1.79-.37-2.48-1.88-5.69-4.72-10.98-6.96-16.53-3.55-8.78-6.28-17.64-5.15-27.27.07-.57.1-1.19-.9-1.48-.59,1.81-.21,3.56-.3,5.26-.26,5.02.35,10.04,2.06,14.7Z"/>
  <path class="uuid-cd42ca6b-4f2e-4f70-91fd-f2ae058d9897" d="m118.32,73.19c.27-.46.65-.96.11-1.65-.3.36-.62.65-.83,1.01-2.26,4.02-4.64,7.97-6.71,12.08-5.64,11.18-11.08,22.47-17.73,33.1,1.21-.56,2.23-1.42,2.82-2.56,3.42-6.58,6.84-13.15,10.48-19.63,4.13-7.35,7.55-15.1,11.85-22.37Z"/>
  <path class="uuid-cd42ca6b-4f2e-4f70-91fd-f2ae058d9897" d="m149.11,262.97c3.72-2.44,7.45-4.89,11.19-7.31,2.1-1.35,4.43-2.36,6.2-4.2-.09-.08-.18-.17-.28-.25-.85-.03-1.48.5-2.17.86-5.27,2.73-9.92,6.43-14.92,9.6-3.84,2.43-5.92,6.03-5.24,10.8.15,1.07.32,2.13.49,3.2-.04,2.84.71,5.55,1.39,8.27.16.62.49,1.22,1.07,1.58.42.27.88.66,1.39.39.58-.3.78-.94.52-1.5-1.29-2.74-1.61-5.78-2.67-8.58.2-.97-.15-1.86-.44-2.73-1.29-3.9.05-7.88,3.48-10.13Z"/>
  <path class="uuid-cd42ca6b-4f2e-4f70-91fd-f2ae058d9897" d="m214.22,169.48c.38.02.92-.41.81-1.06-2-.38-2.19-.59-1.31-1.58,3.45-3.88,5.31-8.52,6.31-13.49.68-3.35.19-6.78.07-10.63-1.05,1.02-.88,1.66-.82,2.3.81,9.28-1.98,17.29-8.6,23.88-.74.74-.5,2.24-1.62,2.42-2.3.37-4.1,2.18-6.51,2.12-.54-.02-1.31-.12-1.09.83.16.7.86.96,1.36.66,2.11-1.29,4.79-1.31,6.7-2.84,1.45-1.16,2.55-2.7,4.7-2.6Z"/>
  <path class="uuid-cd42ca6b-4f2e-4f70-91fd-f2ae058d9897" d="m89.88,131.95c8.17-11.76,18.56-21.74,26.73-33.48-9.22,10.92-19.19,21.25-26.73,33.48Z"/>
  <path class="uuid-cd42ca6b-4f2e-4f70-91fd-f2ae058d9897" d="m126.67,169.93c-.55.12-.97.33-.93.97.04.57.48.64.93.67,2.65.13,5.3.43,7.94.34,1.64-.06,3.69-.19,4.15-2.33.29-1.33,1.05-1.75,2.12-2.06,1.87.07,3.74.26,5.6.18,4.01-.16,8.11.47,12-.95,5.68-2.08,11.54-1.97,17.27-.95,6.99,1.25,14.02,2.03,21.03,3.1,1.07.16,1.93.41,2.54,1.35.53.81,1.24,1.59,2.3,1.15,1.05-.44.94-1.5.85-2.45.67-.67.32-1.46.27-2.22.12-1.77.82-3.62-.78-5.12-.14-.12-.29-.25-.43-.37,0,0-.05-.03-.05-.03-.36-1.92-1.73-2.63-3.47-2.89-.16-.23-.3-.48-.48-.7-.49-.59-.99-1.54-1.83-1.12-.79.39-.26,1.31-.01,1.92.56,1.4-.43,1.61-1.32,1.77-.76.14-1.57.05-2.35.06-.65-.09-1.27-.06-1.8.37-.24,0-.48.01-.72.02-.33.17-.65.29-.96.38.31-.09.63-.21.96-.38-.66-.36-1.24-.67-1.71-1.4-.87-1.36-3.15-1.51-4.4-.54-1.15-.4-2.46-1.46-2.97.73-.77.24-1.53.48-2.3.72-1.71-2-3.76-1.93-5.96-1.01-1.95.05-3.62,1.14-5.59,1.31-3.45.29-6.97.7-9.76,3.16,0,0-.05.01-.05.01-1.26-.05-2.22.34-2.61,1.66-2.75-.26-5.19,1.37-7.92,1.29-.46-.01-1.06.47-1.25-.25-.15-.56.45-.81.85-1.11.86-.63,2.12-.28,3.02-1.18-1.36-.56-2.33.2-3.38.52-1.61.48-3.12,1.61-4.94.79-1.31-.57-2.55-.02-3.74.38-.79.27-1.31.98-.68,1.89.48.7.88,1.41.22,2.14-.6.66-1.42.35-2.21.33-2.48-.07-4.95-.68-7.45-.14Zm60.97-8.76c-.43.03-.83-.02-1.22-.14.38.11.79.16,1.22.14Z"/>
  <path class="uuid-cd42ca6b-4f2e-4f70-91fd-f2ae058d9897" d="m158.82,203.44c.42.06.87.09,1.29.02,4.57-.83,9.38-.34,13.74-2.42.9-.43,1.89-.78,2.87-.9,4.3-.51,8.16-2.23,11.99-4.08.7-.34,1.44-.67,1.8-1.6-.64-.29-.93.13-1.32.26-2.31.81-4.19,2.52-6.62,3.11-7.79,1.87-15.32,5.11-23.6,4.31-.42-.04-.91.12-.92.68,0,.44.42.57.76.62Z"/>
  <path class="uuid-cd42ca6b-4f2e-4f70-91fd-f2ae058d9897" d="m264.45,351.65s.01,0,.02-.01c0-.01,0-.02,0-.03,0,0-.01.01-.02.02,0,0,0,.02,0,.02Z"/>
  <path class="uuid-cd42ca6b-4f2e-4f70-91fd-f2ae058d9897" d="m261.23,354.96c-6.33,7.18-13.25,13.43-23.06,15.37-.54.11-1.04.31-.89.95.18.74.74.44,1.22.31,8.84-2.38,15.99-7.39,21.91-14.23,1.52-1.75,3.54-3.22,4.03-5.72-1.57.61-2.2,2.17-3.21,3.32Z"/>
  <path class="uuid-cd42ca6b-4f2e-4f70-91fd-f2ae058d9897" d="m305.89,68.61c-1.32-2.95-2.43-6.09-4.72-8.54-1.93-3.49-4.3-6.66-6.79-9.75-.63-.78-1.57-1.77-2.47-.79-.71.77.51,1.52.95,2.25,1.86,3.13,4.64,5.59,6.44,8.76-.02.84.46,1.53.88,2.14,3.48,5.04,5.89,10.63,8.4,16.17-.09,4.04,2.38,7.29,3.46,10.96.03.1.34.11.54.15-1.14-4.05-2.29-8.1-3.43-12.15-.72-3.2-1.94-6.25-3.26-9.21Z"/>
  <path class="uuid-cd42ca6b-4f2e-4f70-91fd-f2ae058d9897" d="m327.73,205.61c-.42-.18-.74.02-1.01.25-2.85,2.36-4.01,5.73-5.37,8.97-.13.32-.06.73.36.9.39.16.75-.04.96-.31.7-.91,1.34-1.86,2.01-2.79h0c1.49.46.76,1.84,1.15,2.76-.37,1.87-.74,3.74-1.11,5.61-.03.16-.07.31-.1.47-.09.42-.19.85-.28,1.27-.49,1.08-1.21,2.1-1.02,3.73,1.19-1.22,1.73-2.37,1.83-3.73,1.33-3.24,2.27-6.6,1.76-10.11-.35-2.39-.27-4.59.97-6.69.04-.07-.1-.24-.15-.33Z"/>
  <path class="uuid-cd42ca6b-4f2e-4f70-91fd-f2ae058d9897" d="m261.44,342.96c-5.5,7.8-13.02,13.2-21.01,18.07,8.79-3.95,16.1-9.63,21.01-18.07Z"/>
  <path class="uuid-cd42ca6b-4f2e-4f70-91fd-f2ae058d9897" d="m215.32,327.44c4.8-.58,9.61-.68,14.44-.57,3.04.56,6.08,1.12,9.12,1.69-2.87-1.68-5.66-3.47-9.12-3-4.75-.93-9.51.34-14.26-.03-1.03-.08-2.08.13-2.04,1.31.04,1.31,1.19.69,1.86.61Z"/>
  <path class="uuid-cd42ca6b-4f2e-4f70-91fd-f2ae058d9897" d="m141.29,202.23c.79-1,1.74-2.39,3.07-1.86,3,1.19,6.13,1.53,9.25,1.98.56.08,1.44.73,1.59-.17.16-.92-.81-1-1.56-.96-3.16.16-6.17-.39-8.95-1.97-1.04-.59-1.91-.17-2.5.55-2.09,2.55-4.08,5.18-6.1,7.78-.03.05-.1.11-.09.16.02.09.07.18.11.27.12-.02.23-.05.34-.11,1.94-1.61,3.31-3.71,4.85-5.66Z"/>
  <path class="uuid-cd42ca6b-4f2e-4f70-91fd-f2ae058d9897" d="m231.62,160.14c-.21-.47-.32-.98-.95-1.03-.52-.03-.58.19-.28,1.04,1.7,4.72,4.43,8.72,8.38,11.84.32.25.51,1.1,1.16.48.59-.56.14-1.05-.26-1.48-.29-.32-.6-.63-.91-.93-2.97-2.88-5.42-6.13-7.14-9.91Z"/>
  <path class="uuid-cd42ca6b-4f2e-4f70-91fd-f2ae058d9897" d="m115.22,106.3c-.89.02-1.03.71-1.28,1.14-1.73,3.06-3.58,6.04-5.46,9.02-1.74,2.76-4.33,4.84-5.8,7.76-.87,1.36-1.71,2.74-2.62,4.07-2.03,2.96-2.31,6.6-3.82,9.78-2.5,5.24-3.93,10.92-5.29,16.52-.73,3.03-2.17,5.96-2.11,9.18-.22.25-.27.52-.08.81-.04.27-.09.54-.13.81-.76,1.44-1.36,2.9-.7,4.59.88-1.39,1-2.99,1.26-4.55,0,0,.01-.03.01-.03.08-.14.16-.27.24-.41-.24-2.82,1.37-5.17,1.99-7.77,1.51-6.37,3.65-12.54,6.02-18.65,1.73-4.48,4.07-8.71,5.31-13.38h0c.19-.1.44-.14.56-.29,3.64-4.73,7.33-9.43,10.18-14.71.66-1.22,1.53-2.39,1.73-3.9Z"/>
  <path class="uuid-cd42ca6b-4f2e-4f70-91fd-f2ae058d9897" d="m228.06,249.79c-1.7.77-2.74,2.22-4.03,3.49.95.65,2.17.94,2.74.37,2.57-2.59,5.88-4.7,6.34-8.82.35-.83.06-1.68.07-2.52,0-.17,0-.33,0-.5.62-3.25-.47-6.35-.99-9.46-.74-4.38-.97-8.82-1.92-13.15-.68-3.12-.16-6.28-.66-9.39-.08-2.22.46-4.53-.97-6.77v7.17c-.06.86-.21,1.72-.15,2.57.41,5.96,1.48,11.84,2.43,17.72.38,2.33.82,4.64,1.23,6.97-.11.34.01.61.28.82.11,1.2.21,2.39.32,3.59h0c-.06.12-.06.25,0,.37-.07.87-.13,1.75-.2,2.62-.93,2.16-2.31,3.93-4.5,4.91Z"/>
  <path class="uuid-cd42ca6b-4f2e-4f70-91fd-f2ae058d9897" d="m291.77,93.18c-1.51-1.29-2.86-2.83-4.8-3.56-2.53-1.91-5.03-3.86-7.6-5.71-3.88-2.79-6.81-6.65-10.64-9.5-2.31-2.88-4.56-5.8-7.32-8.28-.59-.72-1.18-1.44-1.76-2.16-1.27-3.19-3.64-5.67-5.62-8.38-3.42-4.71-6.57-9.63-10.58-13.9-.42-.45-.4-1.73-1.4-1.08-.75.49-.47,1.42,0,2.14.94,1.45,1.89,2.9,2.81,4.36,4.04,6.39,8.45,12.52,13.5,18.16h0c.6,1.54,1.5,2.89,2.61,4.1.95,2.09,2.63,3.55,4.32,5.01.43.48.8,1.03,1.29,1.44,6.45,5.29,12.86,10.65,20.01,15,3.62,3.19,7.55,5.94,11.66,8.48-2.05-2.18-4.22-4.21-6.48-6.14Z"/>
  <path class="uuid-cd42ca6b-4f2e-4f70-91fd-f2ae058d9897" d="m293.68,205.82c-.52.22-1.2.28-1.22,1.02-.01.74.68.9,1.2,1.02,2.54.6,5.18.86,7.2,2.64.45-.55.45-.86.21-1.05-1.72-1.42-3.57-2.65-5.52-3.7-.61-.33-1.24-.2-1.87.07Z"/>
  <path class="uuid-cd42ca6b-4f2e-4f70-91fd-f2ae058d9897" d="m179.47,188.61c-1.92.54-3.99-.04-5.77,1.03-1.1.03-2.21.07-3.31.1-.43-.23-.88-.31-1.35-.15-.16-.07-.31-.13-.47-.2-.11-.21-.24-.18-.38-.03-.57.09-1.5-.35-1.58.5-.07.76.79.82,1.45.82,2.64,0,5.28.03,7.92.05,3.23-.13,6.14-1.46,9.16-2.4.72-.23,1.05-.91,1.29-1.6,0,0-.01-.01-.01-.01-2.28.77-4.64,1.25-6.94,1.89Z"/>
  <path class="uuid-cd42ca6b-4f2e-4f70-91fd-f2ae058d9897" d="m237.65,361.38c-1.06.62-2.33.73-3.46,1.16-2.96,1.14-6.15.42-9.11,1.31-1.22-.07-2.48-.41-3.64-.18-6.35,1.29-12.53-.73-18.79-1.01-4.93-.22-9.73-2.09-14.44-3.76-.13-.38-.49-.47-.79-.67-2.63-1.74-5.82-2.53-8.21-4.68-7.55-6.77-15.73-12.68-24.62-17.58-.92-.5-1.75-1.31-2.92-1.23-1.77-.92-3.59-1.75-5.31-2.76-3.76-2.21-7.8-3.91-11.57-6.09-2.46-1.42-4.6-3.4-7.05-4.92-2.65-1.65-5.06-3.55-6.68-6.33-.57-.97-1.22-1.97-2.29-2.54h0c-.96-1.51-2.25-2.78-3.03-4.42-1.85-3.88-3.75-7.73-5.64-11.59-.69-.02-1.38-.05-2.07-.07-.31,1.19.25,2.22.61,3.3.97,2.96,2.18,5.84,2.8,8.93.44,2.17.07,4.56,1.54,6.49.6,8.31,1.47,16.61,1.39,24.97-.03,2.95.07,5.9.11,8.85.05.2.1.4.15.6.05,4.74.1,9.47.15,14.21-.1,1.07-.69,1.97-.82,3.07-.38,3.2-.99,6.37-1.54,9.55-.09.54-.47,1.27.29,1.39.74.12.68-.68.77-1.25.7-4.27,1.43-8.54,2.14-12.81.25-2,.51-4.01.76-6.01,0-.17,0-.34,0-.5,0-.27,0-.53-.01-.8,0-.17-.01-.34-.02-.51,0-4.17.88-8.31.6-12.49-.37-5.6-.92-11.19-1.24-16.79-.16-2.73-.34-5.43-1.41-7.98-.03-.16-.05-.33-.08-.49.06-.42.12-.84.17-1.27.28-.14.38-.36.39-.67.09-2.76.41-2.93,2.85-1.57.17,2.9,2.12,4.42,4.27,6.01,4.72,3.5,9.78,6.46,15.06,8.91,4.92,2.29,9.82,4.59,14.7,6.96h0c1.28.75,2.53,1.58,3.86,2.24,6.26,3.08,11.76,7.32,16.96,11.84,4.68,4.07,9.85,7.17,15.31,9.93.21.11.54-.01.81-.02,4.19,1.61,8.35,3.27,12.9,3.66,5.26.45,10.42,1.9,15.74,1.71,2.85-.1,5.7-.31,8.55-.47,4.75-.43,9.35-1.44,14.01-3.37-.91-.68-1.46-.69-2.19-.26Zm-119.57-48.86c-.08.15-.13.31-.14.5.02-.18.06-.35.14-.5Z"/>
  <path class="uuid-cd42ca6b-4f2e-4f70-91fd-f2ae058d9897" d="m320.01,142.9c.68,3.01.28,6.12.84,9.14.46,10.1,1.61,20.12,3.84,30,.92,2.97,1.36,6.05,1.91,9.1-.38.43-.77.84-1.13,1.28-.39.49-.48,1.08-.12,1.58.4.56,1.05.72,1.73.58.76-.16.72-.78.71-1.36,0-.57-.03-1.14-.05-1.72.26-3.81.11-7.53-2.16-10.84-.07-1-.09-2.01-.23-3-.99-7.36-1.2-14.79-1.91-22.17.55-.75.23-1.69.55-2.49.3-.76.07-1.27-.78-1.39-1.47-.21-1.44-1.28-1.51-2.41-.13-2.12.42-4.32-.62-6.36-.12-5.46-.23-10.91-.35-16.37-.24,0-.47-.01-.71-.02,0,5.48-.01,10.96-.02,16.44Z"/>
  <path class="uuid-cd42ca6b-4f2e-4f70-91fd-f2ae058d9897" d="m103.47,108.12c-3.88,3.05-6.08,7.41-8.92,11.27,3.72-3.17,5.88-7.56,8.92-11.27Z"/>
  <path class="uuid-cd42ca6b-4f2e-4f70-91fd-f2ae058d9897" d="m94.55,119.39s-.06.06-.1.09l.02.02s.05-.08.08-.11Z"/>
  <path class="uuid-cd42ca6b-4f2e-4f70-91fd-f2ae058d9897" d="m277.16,211.25c2.35,2.8,5.67,4.28,8.58,6.36-2.18-3.03-5.46-4.58-8.58-6.36Z"/>
  <path class="uuid-cd42ca6b-4f2e-4f70-91fd-f2ae058d9897" d="m91.76,120.98c-1.34,2.24-2.62,4.52-3.93,6.78,2.62-2.43,4.18-5.68,6.6-8.25-1.14.02-2.08.48-2.67,1.47Z"/>
  <path class="uuid-cd42ca6b-4f2e-4f70-91fd-f2ae058d9897" d="m94.47,119.5s-.02-.02-.02-.02c0,0-.01.02-.02.03.01,0,.03,0,.04,0Z"/>
  <path class="uuid-cd42ca6b-4f2e-4f70-91fd-f2ae058d9897" d="m270.71,293.33c1.82-3.29,4.13-6.35,4.53-10.29,1.03-2.92,2.25-5.79,3.03-8.78.56-2.14,1.8-4.5.31-6.66-1.75-2.55-3.92-4.78-6.51-6.55-.1-.19-.14-.45-.29-.56-4.62-3.17-8.04-7.87-13.16-10.42-.96-.48-1.75-1.2-2.34-2.18-.99-1.64-2.41-2.91-4.16-4.01.86,1.5-.25,2.56-1.02,4.2,1.82-1.15,2.71-.37,3.62.55.95.98,1.99,1.87,2.98,2.81,3.91,3.73,8.69,6.41,12.38,10.4,1.59,2.03,3.15,4.09,4.8,6.07,1.02,1.23,1.24,2.58,1.4,4.15.38,3.82-.92,7.32-1.64,10.93-1.05,3.54-2.91,6.76-3.92,10.33Z"/>
  <path class="uuid-cd42ca6b-4f2e-4f70-91fd-f2ae058d9897" d="m160.89,197.47h0s0-.01,0,0Z"/>
  <path class="uuid-cd42ca6b-4f2e-4f70-91fd-f2ae058d9897" d="m148.97,195.67c3.69,2.7,7.92,1.5,11.93,1.84,0-.02-.01-.03-.02-.04-1.94-.89-3.98-.49-5.96-.67-2-.19-3.97-.73-5.96-1.12Z"/>
  <path class="uuid-cd42ca6b-4f2e-4f70-91fd-f2ae058d9897" d="m312.58,89.96s0,.02,0,.03l.03-.02s-.02,0-.04,0Z"/>
  <path class="uuid-cd42ca6b-4f2e-4f70-91fd-f2ae058d9897" d="m243.21,198.64c2.95.7,6.04.34,8.87,1.64-2-2.04-6.64-2.81-8.87-1.64Z"/>
  <path class="uuid-cd42ca6b-4f2e-4f70-91fd-f2ae058d9897" d="m131.94,197.4c2.59.98,5.12.43,7.65-.34-2.56-.29-5.13-.63-7.65.34Z"/>
  <path class="uuid-cd42ca6b-4f2e-4f70-91fd-f2ae058d9897" d="m261.89,291.89c-.51.39-.96.93-1.54,1.16-5.62,2.24-10.1,6.32-15.23,9.34-3.69,2.17-7.01,4.89-11.23,6.26-3.94,1.28-7.9,1.23-11.9,1.44-.26-.04-.41.07-.45.33,0,0,0,0,0,0-.74.05-1.49.1-2.23.15-.87-.67-1.91-.46-2.9-.58-1.9-.24-3.86.36-5.73-.38-3.15-1.33-6.14-2.98-9.71-3.2-1.5-.09-3.51.2-4.43-1.8-.13-.29-.74-.44-1.15-.51-.63-.1-1.4-.99-1.87-.04-.34.7.59,1,1.01,1.45,1.16,1.27,2.88,1.12,4.31,1.67,4.12,1.58,8.17,3.54,12.73,3.59.84.33,1.67.67,2.51,1,.37.86.31,2.06,1.72,2.29-.1-.89-.17-1.58-.24-2.26.64.08,1.28.17,1.92.24,1.57.15,1.57,1.28,1.39,2.38-.25,1.55-1.16.3-1.77.33-.34.02-.67.05-1.32.1,1.27.85,2.19,1.53,1.02,2.94-.53.63.08,1,.82.91,1.53-.18,3.03-.56,4.51-.84,1.06-.2,2.43.59,3.74.35.62.29.31,1.24,1.12,1.51,1.32-1.44,2.73-2.8,4.94-1.67.16-.07.33-.13.49-.2.17-.13.33-.27.5-.4.35-.38.58-.9,1.17-1.01.8-.06,1.41,1.18,1.62.97,1.23-1.26,2.96-1.72,4.27-2.8.26-.21.62-.43.49-.85-.14-.45-.57-.38-.9-.36-1.41.06-2.82.15-4.23.24-.06-.35-.11-.71-.17-1.06-.26-.1-.51-.2-.77-.29-1.09.05-1.86,2.61-3.25.39-.17-.26-.58-.03-.67.24-.52,1.58-2.08,1.23-3.17,1.74,0,0,0,0,0,0,.04-.73.08-1.46.11-2.19,5.47-1.1,10.79-2.74,15.08-6.38,4.48-3.8,9.47-6.83,14.25-10.17,2.04-1.43,4.77-1.65,6.47-3.67,1.49-.38,1.51-1.55,1.45-2.75-1.81.3-3.61.6-5.42.9,1.16.01,2.3.08,2.66,1.51Z"/>
  <path class="uuid-cd42ca6b-4f2e-4f70-91fd-f2ae058d9897" d="m253.53,201.16c2.1.3,3.31,1.9,4.87,3.05-1.89-2.89-3.64-3.96-4.87-3.05Z"/>
  <path class="uuid-cd42ca6b-4f2e-4f70-91fd-f2ae058d9897" d="m214.83,315.47c-.38-.36-.79-.21-1.18.03-.9.57-1.24,1.78-2.4,2.07-.07.02-.09.53-.01.78.04.15.31.24.5.37.92-.87,2.11-1.23,3.1-1.9.37-.25.44-.92,0-1.35Z"/>
  <path class="uuid-cd42ca6b-4f2e-4f70-91fd-f2ae058d9897" d="m88.47,189.7c1.24-1.06,1.22-2.41.79-3.88-.26,1.21-.93,2.17-1.73,3.04-.32.35-.45.79,0,1.1.33.23.67-.02.95-.26Z"/>
  <path class="uuid-cd42ca6b-4f2e-4f70-91fd-f2ae058d9897" d="m283.63,209.11c-3.38-.08-6.78-.7-10.45.56,3.74.28,7.09-.28,10.45-.56Z"/>
  <path class="uuid-cd42ca6b-4f2e-4f70-91fd-f2ae058d9897" d="m207.93,316.13c.26.21.6.15.74-.1.59-.99,1.58-1.8,1.57-3.39-1.43.66-1.66,1.9-2.39,2.73-.19.21-.2.54.07.75Z"/>
  <path class="uuid-cd42ca6b-4f2e-4f70-91fd-f2ae058d9897" d="m74.51,151.65c0,.49-.1,1.15.62,1.16.74,0,1.16-.49,1.2-1.29-.12-.53-.21-1.34-.8-1.32-.64.03-1.03.72-1.01,1.45Z"/>
  <path class="uuid-cd42ca6b-4f2e-4f70-91fd-f2ae058d9897" d="m136.09,208s0,.02,0,.02c.02,0,.03,0,.04,0,0,0-.03-.02-.03-.02Z"/>
  <path class="uuid-cd42ca6b-4f2e-4f70-91fd-f2ae058d9897" d="m136.08,208.03c-1.7,0-1.78,1.67-2.59,2.58-2.99,2.52-5.53,5.42-7.29,8.98,2.29-3.11,5.41-5.45,7.64-8.61.85-.91,1.89-1.67,2.24-2.95Z"/>
  <path class="uuid-cd42ca6b-4f2e-4f70-91fd-f2ae058d9897" d="m97.93,70.91s.02-.02.03-.03c-.02,0-.04,0-.06,0,0,0,.03.03.03.03Z"/>
  <path class="uuid-cd42ca6b-4f2e-4f70-91fd-f2ae058d9897" d="m133.31,60.02c-.42-.1-.59-.17-.77-.18-.18,0-.44,0-.33.3.03.07.24.11.37.1.17-.02.33-.1.73-.22Z"/>
  <path class="uuid-cd42ca6b-4f2e-4f70-91fd-f2ae058d9897" d="m167.63,250.94c.85-.04,1.47-.56,2.1-1.03,3.3-2.41,5.94-5.46,8.26-8.8.34-.5.41-1.56,1.17-1.28.71.26.99,1.29.79,2.05-.46,1.68.24,3.15.7,4.62.74,2.37,5.23,4.98,7.61,4.48-.77-.47-1.41-.96-2.12-1.27-4.35-1.94-6.81-7.58-4.87-11.89.84-1.86,2.34-3.43,3.57-5.1.47-.65,1.23-1.14.93-2.26-2.64,2.6-5.34,5.18-7.38,8.2-2.36,3.49-4.87,6.76-8.08,9.5-.97.83-2.36,1.12-2.99,2.37-.47.05-.87.22-1.09.68.1.08.19.17.28.25.43-.06.85-.13,1.12-.52Z"/>
  <path class="uuid-cd42ca6b-4f2e-4f70-91fd-f2ae058d9897" d="m235.28,311.63c-.3.22-.6.43-.9.65.26.1.51.2.77.29.25-.29.3-.6.13-.94Z"/>
  <path class="uuid-cd42ca6b-4f2e-4f70-91fd-f2ae058d9897" d="m312.82,90.3c-.05-.08-.12-.16-.18-.23.04.13.08.26.12.38.02-.05.07-.12.05-.15Z"/>
  <path class="uuid-cd42ca6b-4f2e-4f70-91fd-f2ae058d9897" d="m312.61,89.97s-.03.02-.03.02c.02.03.04.05.06.08-.01-.03-.02-.07-.03-.1Z"/>
  <path class="uuid-cd42ca6b-4f2e-4f70-91fd-f2ae058d9897" d="m72.01,207.59c.05.2.14.21.22.02.02-.04,0-.12-.04-.17-.02-.02-.08-.01-.13-.02-.02.06-.06.12-.05.16Z"/>
  <path class="uuid-cd42ca6b-4f2e-4f70-91fd-f2ae058d9897" d="m311.19,237.65c0,.11.05.21.08.32.01-.15.03-.3.04-.45-.04.04-.12.09-.12.12Z"/>
  <polygon class="uuid-cd42ca6b-4f2e-4f70-91fd-f2ae058d9897" points="209.82 15.36 209.81 15.34 209.72 15.46 209.82 15.36"/>
  <path class="uuid-cd42ca6b-4f2e-4f70-91fd-f2ae058d9897" d="m136.09,208s.03.02.03.02c0,0,0-.02-.01-.03,0,0-.01,0-.02,0Z"/>
  <path class="uuid-cd42ca6b-4f2e-4f70-91fd-f2ae058d9897" d="m93.11,117.8s.05-.04.05-.04h0s0,0,0-.01c0,0,0,0-.01,0l-.04.05Z"/>
  <path class="uuid-cd42ca6b-4f2e-4f70-91fd-f2ae058d9897" d="m271.25,192.52c0,.12.05.25.07.37.03-.16.06-.32.09-.49-.06.04-.16.08-.16.12Z"/>
  <path class="uuid-cd42ca6b-4f2e-4f70-91fd-f2ae058d9897" d="m193.31,291.46c.71.25,1.43.51,2.14.76-.43-1.04-1.3-.85-2.14-.76Z"/>
  <path class="uuid-cd42ca6b-4f2e-4f70-91fd-f2ae058d9897" d="m253.89,288.21l-.05.16c.08,0,.15-.03.2-.1,0,0-.15-.07-.15-.07Z"/>
</svg>