<?xml version="1.0" encoding="UTF-8"?>
<svg id="uuid-8f56b2a9-a27e-400e-9fe5-79336c707aba" data-name="Livello 7" xmlns="http://www.w3.org/2000/svg" viewBox="0 0 400 400">
  <defs>
    <style>
      .uuid-7a84bb5f-ff2b-4ca4-be11-bfa71b8c79a9 {
        fill: #232a56;
      }
    </style>
  </defs>
  <path class="uuid-7a84bb5f-ff2b-4ca4-be11-bfa71b8c79a9" d="m158.17,218.85c-1.1.94-2.47,2.11-3.27,3.53-.2.14-.22.32-.21.41-.32.7-.47,1.4-.44,2.1v.03s0,.1,0,.1c0,.14.02.27.04.41.02.15.11.26.24.33.06.1.14.2.23.29,0,.02,0,.03,0,.05.02.06.07.21.26.27.04.01.09.03.13.04l.04-.15v.16s.03,0,.05,0c.21.11.42.19.64.23.03,0,.1.01.22-.01.55.11,1.11.16,1.66.16s1.06-.05,1.58-.14c.37-.07.58-.23.62-.47.02-.13-.02-.25-.1-.34-.08-.08-.23-.17-.52-.12-.91.17-1.85.15-2.8-.05-.3-.39-.41-.81-.34-1.26.36-.77.78-1.51,1.25-2.19.26-.3.53-.57.77-.81l.06-.06c.58-.58,1.2-1.21,1.83-1.8l2.79-2.01c3.04-1.43,6.53-1.53,9.8-.29.42.42.79.88,1.09,1.37,0,.48-.09.93-.27,1.35-.1.22-.03.38.03.46.1.16.32.24.54.21.08,0,.16-.03.25-.06-.05.05-.1.1-.13.16-.07.17-.01.4.22.5.97.43,1.99.64,3.03.64,1.42,0,2.81-.39,4.13-1.17,2.63-1.54,4.6-4.44,5.15-7.57.54-3.09.1-6.25-1.31-9.41l4.78,5.16c.09.09.21.14.36.14h0c.23,0,.51-.12.65-.27.18-.19.14-.43.02-.57l-9.39-10.13c-1-1.23-2.16-2.48-3.45-3.72-.09-.09-.22-.12-.38-.12-.23,0-.52.13-.64.27-.15.17-.15.4,0,.56l3.56,3.83c3.07,3.8,4.63,7.53,4.76,11.4.11,3.18-.84,6.11-2.62,8.04-2.19,2.37-5.29,3.16-7.9,2.03-.16-.07-.4-.02-.57.05.03-.04.06-.08.09-.13.6-1.38.44-2.98-.43-4.38,0-.01,0-.02,0-.03,0-.07-.04-.17-.14-.26-.02-.02-.05-.04-.09-.06-.36-.5-.77-.92-1.22-1.25-2.1-1.56-4.76-1.09-6.62-.43-.67.21-1.31.48-1.89.82-1.91.95-3.91,2.3-5.92,4.02l-.19.16Z"/>
  <path class="uuid-7a84bb5f-ff2b-4ca4-be11-bfa71b8c79a9" d="m103.18,175.77l1.13.6-.76-.68c6.07-1.35,11.91-4.16,16.92-8.13l.04-.03c2.53-2.01,5.09-4.58,7.23-7.23.05.02.1.04.16.06.38.15.84-.04,1.11-.3.23-.22.34-.48.3-.73-.03-.17-.14-.39-.48-.51-12.17-4.49-26.12-1.38-35.52,7.91-2.42,2.4-4.54,5.18-6.3,8.25-.19.33-.1.57-.02.68.19.29.58.35.91.31,2.34.45,4.74.67,7.13.67,2.72,0,5.47-.29,8.16-.86Zm-5.82-9.98c-.3,1.57-.19,3.26.31,4.76.55,1.64,1.72,3.15,3.3,4.24,0,0,.02.02.03.03-2.16.33-4.38.47-6.6.42-1.72-.07-3.64-.26-5.19-.53.81-1.32,1.93-2.91,3.03-4.28,1.56-1.89,3.31-3.61,5.2-5.11-.03.16-.06.32-.08.48Zm22.98-5.02c-.54-1-1.23-1.8-1.96-2.33,1.37.07,2.88.24,4.24.48,1.19.22,2.38.51,3.54.86-.72.87-1.73,2-2.36,2.68-.87.92-1.81,1.85-2.66,2.62.28-1.34,0-2.85-.8-4.31Z"/>
  <path class="uuid-7a84bb5f-ff2b-4ca4-be11-bfa71b8c79a9" d="m220.9,136.85c-.07-.02-.13-.04-.21-.07-.02-.12-.08-.28-.29-.38-11.66-5.87-26.11-4.1-36.8,4.51-2.72,2.18-5.15,4.79-7.22,7.74-.17.23-.13.42-.09.51.05.13.18.29.5.33.36.05,1.02-.07,1.26-.42,1.28-1.82,3.11-3.91,4.9-5.59,2.39-2.22,5.08-4.08,7.98-5.53-.5,4.76,1.64,9.58,5.4,12.16-2.74.58-5.52.88-8.25.88-.36,0-.73-.02-1.09-.03l-.36-.02c-2.81-.15-5.87-.6-8.22-1.19-.26-.06-.88.15-1.19.36-.16.11-.26.22-.28.33-.04.17.05.38.28.44,3.22.82,6.6,1.24,10.03,1.24,8.81,0,17.72-2.75,25.1-7.75,1.35-.92,2.61-1.93,3.56-2.71.42-.34.89-.65,1.32-.92l.18-.11c.11-.07.21-.14.32-.21.66-.44,1.31-.88,1.91-1.3l.44-.31s.09-.07.13-.1c.07-.05.14-.11.22-.15l.08-.05s.05-.04.09-.07c.02-.02.03-.03.05-.04.2-.02.44-.12.56-.32.04-.07.07-.15.07-.23.03-.09.03-.18,0-.27-.01-.04-.03-.08-.05-.11.04-.09.05-.18.03-.26-.03-.18-.17-.31-.35-.35Zm-6.23.96h0c-.23-.83-.64-1.63-1.19-2.33,1.74.47,3.42,1.1,5.01,1.85-.05.06-.11.14-.17.22l-.08.1c-.21.23-.46.48-.76.74-.35.31-.72.61-1.09.9-.31.25-.62.5-.93.76l-.68.59c.18-.94.15-1.91-.11-2.84Z"/>
  <path class="uuid-7a84bb5f-ff2b-4ca4-be11-bfa71b8c79a9" d="m220.2,146c-8.88,6.33-19.2,9.79-29.85,10-.1,0-.26.06-.37.17-.07.08-.11.17-.11.26,0,.14.1.34.38.34,10.88-.21,21.42-3.74,30.49-10.21.18-.13.2-.34.11-.48-.05-.08-.13-.13-.23-.15-.15-.04-.34.01-.43.07h0s0,0,0,0Z"/>
  <path class="uuid-7a84bb5f-ff2b-4ca4-be11-bfa71b8c79a9" d="m126.32,147.42c-.27-.13-.64.04-.8.17-.2.16-.21.33-.2.42,0,.07.05.24.25.34,3.79,1.77,6.36,6.16,7.03,12.03.65,5.71.18,11.68-.27,17.45l-.04.51c-.84,10.7-2.76,21.66-6.04,34.48-1.22,4.77-2.01,10.08,1.39,13.35.09.09.23.14.38.14.09,0,.19-.02.3-.05.15-.05.4-.18.46-.44.03-.15-.02-.29-.13-.39-3.05-2.93-2.34-7.81-1.25-12.2l.17-.7c1.34-5.38,2.73-10.95,3.72-16.57,1.04-5.89,1.8-11.9,2.26-17.88l.02-.21c.44-5.72.9-11.62.32-17.33-.65-6.41-3.41-11.19-7.57-13.13Z"/>
  <path class="uuid-7a84bb5f-ff2b-4ca4-be11-bfa71b8c79a9" d="m233.88,257.94c-.28.24-.26.54-.12.72.11.14.29.22.49.22.16,0,.32-.06.44-.16,2.99-2.64,3.06-6.88,2.12-9.95-1.08-3.54-3.65-6.35-8.09-8.86-1.65-.93-3.34-1.79-4.98-2.62-2.39-1.21-4.86-2.46-7.18-3.94-3.9-2.48-7.62-5.35-11.05-8.55-3.92-3.65-7.54-7.8-10.74-12.32-.08-.12-.21-.19-.36-.21-.2-.03-.44.04-.6.17-.23.19-.28.49-.12.72,5.28,7.45,11.62,13.83,18.84,18.96,3.37,2.39,7.05,4.55,11.25,6.6l.57.28c3.51,1.71,7.49,3.64,9.83,7.13,2.35,3.49,2.9,9-.29,11.81Z"/>
  <path class="uuid-7a84bb5f-ff2b-4ca4-be11-bfa71b8c79a9" d="m164.42,152.51l.02.04c.09.15.25.24.45.24.16,0,.33-.05.47-.14.3-.2.31-.5.2-.7-2.38-4.14-2.39-9.49-.03-13.64.15-.26.04-.49-.12-.6-.13-.09-.35-.11-.56-.06-.2.05-.37.16-.45.3-2.52,4.43-2.51,10.14.01,14.57Z"/>
  <path class="uuid-7a84bb5f-ff2b-4ca4-be11-bfa71b8c79a9" d="m225.34,326.09h0c-.2-.1-.53-.1-.74.07-16.64,12.9-37.24,19.05-58,17.32-5.79-.48-11.56-1.61-17.16-3.36-.16-.05-.36-.01-.55.09-.18.1-.3.24-.34.38-.05.19.03.45.33.54,7.73,2.41,15.88,3.64,24.23,3.64,12.73,0,25.48-2.89,36.89-8.36,5.4-2.59,10.57-5.79,15.36-9.5.22-.17.25-.35.24-.46,0-.07-.04-.25-.26-.36Z"/>
  <path class="uuid-7a84bb5f-ff2b-4ca4-be11-bfa71b8c79a9" d="m128.45,288.37c-.09-.12-.25-.18-.41-.15-.17.03-.3.14-.35.28-2.16,6.14-2.5,12.74-.99,19.08.03.14.14.25.27.29.05.01.09.02.12.02.06,0,.1-.01.13-.02.24-.07.38-.29.33-.51-1.48-6.2-1.15-12.63.95-18.61.05-.13.03-.28-.05-.38Z"/>
  <path class="uuid-7a84bb5f-ff2b-4ca4-be11-bfa71b8c79a9" d="m231.42,261.34c-.06-.08-.15-.13-.25-.14-.18-.01-.34.07-.41.14-.17.15-.16.37-.06.5,4.29,5.67,7.47,12.41,9.2,19.49.04.16.18.27.36.27.05,0,.1,0,.16-.02.29-.08.38-.31.33-.48-1.75-7.17-4.97-14-9.33-19.75Z"/>
  <path class="uuid-7a84bb5f-ff2b-4ca4-be11-bfa71b8c79a9" d="m123.24,260.54c.05,0,.1,0,.15-.01.25-.05.43-.2.5-.41,2.63-7.86,4.29-16.05,4.95-24.34.02-.18-.06-.36-.2-.46-.21-.16-.51-.13-.71-.03s-.33.28-.35.49c-.65,8.22-2.29,16.31-4.88,24.05-.09.26.02.44.07.51.1.13.27.21.47.21Z"/>
  <path class="uuid-7a84bb5f-ff2b-4ca4-be11-bfa71b8c79a9" d="m135.55,224.92h0c.47-.15,1.12.08,1.65.28l.05.02c.82.3,1.65.75,2.62,1.41.87.59,1.71,1.27,2.53,1.93,2.08,1.67,4.23,3.4,6.94,3.92.03,0,.07.01.11.01.32,0,.62-.25.67-.54.04-.22-.08-.49-.44-.56-2.46-.47-4.48-2.12-6.44-3.72-1.13-.92-2.3-1.87-3.56-2.61-1.07-.62-3.57-2.08-5.19-.79-.71.57-.91,1.43-.53,2.25.21.45.54.77.85,1.07.11.11.23.22.34.33.19.21.38.42.45.64.05.17.06.48-.04.64-.25.05-.47.24-.55.48-.06.17-.03.34.06.46.06.08.22.22.53.16.73-.14,1.2-.64,1.28-1.38.1-.93-.52-1.53-1.02-2.02l-.04-.04c-.12-.12-.24-.24-.35-.36-.31-.36-.48-.83-.4-1.14.05-.21.21-.36.48-.45Z"/>
  <path class="uuid-7a84bb5f-ff2b-4ca4-be11-bfa71b8c79a9" d="m229.48,139.96l.02-.21-.12-.12c-6.35-6.23-14.61-9.99-23.25-10.57-5.7-.39-11.55.72-16.96,3.17-.09-.08-.27-.18-.57-.09-1.38.44-2.76,1-4.08,1.67-.09,0-.19.01-.29.05-2.06.8-3.98,2.11-6.02,4.09-1.41,1.15-2.66,2.51-3.71,4.05l-.21.3s-.06.08-.11.14c-.06.07-.11.13-.15.19l-.52.64h.18c-.13.22-.26.45-.38.66l-.18.28c-.08.13-.17.25-.24.38-.1.17-.08.31-.06.39l-.07.13c-.11.2-.06.37-.03.43,0,0,0,.01,0,.02-.07.21.01.38.12.47.12.11.32.16.53.13.06.03.15.04.26.04.2,0,.58-.06.73-.28,2.52-3.67,5.61-6.84,9.17-9.41.07-.04.11-.07.13-.09,3.09-2.21,6.43-3.9,9.92-5.01,7.61-2.42,16.01-1.93,23.64,1.38,4.11,1.79,7.85,4.32,11.12,7.53.13.13.34.15.61.06.3-.1.47-.25.51-.43Z"/>
  <path class="uuid-7a84bb5f-ff2b-4ca4-be11-bfa71b8c79a9" d="m88.01,167.98c4.87-5.97,11.75-9.75,18.89-10.38.31-.03.64-.29.61-.61,0-.04-.02-.16-.12-.25-.1-.1-.25-.15-.45-.13-.62.06-1.23.14-1.88.25,0,0-.02-.02-.03-.02-.08-.07-.23-.15-.44-.13-1.98.18-3.96.59-5.87,1.23-.72.18-1.4.43-2.07.76-1.68.57-3.27,1.38-4.76,2.38-.09.02-.16.05-.21.09-2.58,1.78-4.71,4.28-6.16,7.23h0c-.04.05-.06.1-.06.11-.04.09-.08.19-.13.28l-.05.1c-.24.53-.49,1.07-.73,1.56l-.04.07c-.05.09-.11.18-.15.26-.1.19-.19.39-.29.61l-.04.12s-.02.04-.03.06c-.02.04-.05.08-.07.12l-.44.96c-.17.39-.35.78-.51,1.16-.23.5-.32.69-.35.76l-.03.06c-.06.12-.05.25.01.37.08.14.22.2.42.2h.16l.09-.13s.07-.08.09-.12c.77-.99,1.42-1.87,1.99-2.69.42-.61.77-1.23,1.11-1.83l.07-.12c.37-.65.77-1.32,1.2-1.97l.23-.35Zm-2.39.55s0,0,0,0h0s0,0,0,0Zm-1.42,3.03h0s0,0,0,0h0Z"/>
  <path class="uuid-7a84bb5f-ff2b-4ca4-be11-bfa71b8c79a9" d="m305.82,229.77l.02-.12c.01-.17-.05-.37-.27-.48-3.27-7.52-5-16.74-5.3-28.18-.11-4.1-.06-8.28-.02-12.32v-1.17c.11.13.2.25.3.38.12.16.33.23.58.19.21-.04.48-.17.57-.42.05-.15.02-.32-.08-.45-5.94-7.6-11.31-16.86-16.44-28.32-4.49-10.05-8.37-20.84-11.88-33-1.75-6.07-3.34-12.38-4.74-18.77l-.02-.06c-2.69-5.28-6.02-10.03-9.9-14.12-3.95-4.16-8.35-7.56-11.74-10.05-1.07-.79-2.15-1.57-3.22-2.36l-.27-.2c-7.34-5.33-14.93-10.85-21.04-18.12-4.81-5.72-8.96-12.63-12.35-20.55-.03-.08-.13-.25-.38-.28-.24-.03-.61.09-.77.31-.08.13-.1.28-.04.42,3,7.02,6.59,13.25,10.66,18.52,3.41,4.41,7.39,8.47,12.16,12.4,3.19,2.62,6.56,5.04,9.82,7.38l.04.03c4.89,3.51,9.95,7.14,14.39,11.46,4.61,4.49,8.47,9.74,11.45,15.6,5.69,25.91,13.32,47.27,23.34,65.3,2.65,4.75,5.46,9.15,8.36,13.07l-.02,1.69c-.16,14.25-.33,28.98,5.34,42.06-.01.04-.02.08-.02.11-1.12,11.55-4.5,23.7-10.33,37.14-.23.55-.48,1.09-.73,1.65-.37.83-.73,1.64-1.08,2.38-2.36,5.08-4.96,9.98-7.72,14.56-.36.08-.71.28-.71.64,0,.1,0,.21,0,.31v.19c-3.22,5.24-6.64,10.03-10.16,14.25-4.62,5.53-9.1,9.71-13.69,12.78-.21.14-.32.3-.31.49,0,.07.03.25.23.37.25.14.71.12.95-.05,8.24-5.49,15.7-13.81,23.47-26.16.02-.03.04-.04.93-1.52l.03-.05c2.57-4.17,4.95-8.51,7.11-12.91,1.23,19.86,3.9,47.18,7.52,77.03l.02.15.61-.07-6.46-80.63c2.95-6.39,5.46-12.95,7.45-19.51,2.01-6.59,3.35-12.68,4.09-18.59,1.5,2.96,3.3,5.65,5.35,7.99l.1.12.45-.44-.09-.11c-2.42-2.98-4.01-6.53-5.55-9.97Z"/>
  <path class="uuid-7a84bb5f-ff2b-4ca4-be11-bfa71b8c79a9" d="m93.61,328.24c-5.16-5.67-10.97-11.09-17.27-16.1-1.05-.84-2.13-1.66-3.18-2.46-2.78-2.12-5.66-4.3-8.14-6.86-7.05-7.3-11.82-18.66-13.42-31.99-.82-6.8-.78-13.85.13-20.94.74-5.84,2.05-11.67,3.33-17.33.2-.9.4-1.79.6-2.69.27-1.21.53-2.41.78-3.62.08.13.17.27.25.4,2.52,4.11,4.15,8.31,4.99,12.84.81,4.37.96,8.91,1.08,12.92.17,5.21.34,10.59,1.15,15.95.99,6.59,3.8,12.7,6.51,18.62l.32.68.03-.02s.09.04.15.05h.18s.1-.15.1-.15c.03-.05.05-.1.05-.15h.04s-.2-.44-.2-.44c-2.52-5.5-4.32-11.17-5.34-16.84-.94-5.22-1.23-10.54-1.38-14.59-.02-.68-.05-1.35-.07-2.04-.26-7.84-.53-15.95-3.91-23.23-2.27-4.9-5.53-9.27-8.69-13.49l-1.8-2.41c-3.05-4.09-6.21-8.32-8.78-12.87-5.68-10.09-7.57-22.14-5.46-34.84,1.98-11.93,7.21-23.63,16.44-36.84.18-.26.1-.51-.06-.64-.13-.11-.36-.15-.61-.11-.23.03-.52.14-.65.33-8.2,11.73-13.18,22.09-15.67,32.61-2.98,12.56-2.23,25.01,2.1,35.06,2.95,6.84,7.38,12.76,11.68,18.5,2.16,2.89,4.4,5.87,6.43,8.97-.5,2.4-1.05,4.84-1.58,7.2l-.03.14c-.97,4.3-1.97,8.75-2.74,13.19-1.25,7.22-1.7,14.23-1.34,20.83.56,10.06,3.15,24.43,12.32,35.71,2.74,3.37,6.16,5.99,9.47,8.53l.24.19c.52.4,1.05.8,1.56,1.21,6.33,4.93,11.7,9.74,16.44,14.68,7.48,7.8,14.64,17,21.89,28.11,1.01,1.54,2.02,3.13,3.09,4.83l.21.34h.02s.08.04.14.04l.22-.02.08-.17c.02-.05.04-.09.04-.14l.05-.02-1.22-1.95c-6.2-9.94-12.61-20.21-20.59-28.99Zm-22.91-40.99s0,0,0,0h0s0,0,0,0Z"/>
  <path class="uuid-7a84bb5f-ff2b-4ca4-be11-bfa71b8c79a9" d="m88,178.16l-.19.29,2.72,2.56c.07.06.16.1.26.1.15,0,.33-.08.43-.2l.18-.27-2.72-2.56c-.07-.07-.16-.1-.29-.1-.14,0-.3.09-.39.19Z"/>
  <path class="uuid-7a84bb5f-ff2b-4ca4-be11-bfa71b8c79a9" d="m241.75,141.22v-.05l-.23.04s-.03,0-.05,0c-4.16.75-8.3-.13-11.45-.98-.27-.07-.59-.02-.85.14-.1.06-.26.18-.3.36l-.05.32.28.08c2.48.72,5.24,1.1,7.98,1.1,1.57,0,3.07-.13,4.49-.38l.23-.04v-.03s.09-.08.12-.16l.06-.17-.11-.14s-.08-.08-.12-.1Z"/>
  <path class="uuid-7a84bb5f-ff2b-4ca4-be11-bfa71b8c79a9" d="m79.32,181.45l.12.13c.05.06.11.1.18.1v.02s.24-.05.24-.05c2.59-.63,4.97-2.01,6.89-3.98.1-.1.14-.24.11-.37-.03-.13-.13-.23-.26-.27-.15-.05-.36-.03-.49.11-1.94,1.99-4.14,3.33-6.39,3.88l-.37.09.07.07s-.03.06-.04.09l-.05.17Z"/>
  <path class="uuid-7a84bb5f-ff2b-4ca4-be11-bfa71b8c79a9" d="m192.82,293.09c-.7-.12-1.56.09-2.25.27-.27.07-.54.14-.79.18-1.28.23-2.6.48-3.93.74-2.59.51-5.19,1.06-7.71,1.63-5.18,1.17-10.47,2.55-15.72,4.09-.06.02-.12.05-.16.08-.07.03-.13.06-.17.1l-.1.09c-.14.12-.19.31-.15.49.05.18.18.31.37.34.11.02.23.03.35.03.61,0,1.27-.25,1.86-.47.27-.1.52-.19.74-.26,1.49-.42,2.94-.82,4.32-1.18,2.8-.74,5.65-1.44,8.47-2.09,2.89-.66,5.81-1.27,8.66-1.82,1.49-.29,2.97-.56,4.39-.81.1-.02.25-.03.41-.04.61-.04,1.44-.1,1.75-.68.07-.14.07-.29.01-.42-.06-.14-.19-.24-.34-.26Z"/>
  <path class="uuid-7a84bb5f-ff2b-4ca4-be11-bfa71b8c79a9" d="m40.49,138.16h.03c.32-.01.79-.17.78-.57-.38-13.38,1.35-26.75,5.16-39.76,3.73-12.76,9.3-24.68,16.54-35.43,7.45-11.05,16.49-20.51,26.89-28.11,10.53-7.7,22.19-13.4,34.64-16.96,12.46-3.56,25.14-4.8,37.71-3.68,1.51.13,3.05.3,4.7.53.19.02.64-.14.79-.35l.1-.18-.06-.16c-.04-.09-.12-.21-.34-.24-12.61-1.7-25.42-1.05-38.07,1.92-.91.22-1.83.44-2.75.69,3.95-1.56,7.93-3.05,11.86-4.45l.06-.02c1.49-.48,3-1,4.46-1.49l.41-.14c7.63-2.57,16.27-5.49,24.91-5.2,9.3.73,19.06,1.67,30.73,2.98,8.97,1,18.52,2.11,28.02,3.82l.96.2c2.19.44,4.45.9,6.46,1.63,1.31.42,2.53,1.2,3.72,1.96l.18.12c.17.11.34.22.5.32,10.39,7.42,20.08,16.34,29.47,24.97h0c-9.82-5.78-20.24-10.18-31-13.09-.19-.05-.47.01-.71.16-.2.12-.33.28-.37.45-.04.2.03.47.39.57,21.08,5.7,40.73,17.17,56.83,33.16,16.6,16.48,28.97,37.62,35.8,61.13,3.91,13.48,5.91,27.39,5.96,41.35,0,.34.26.57.64.57.35,0,.87-.22.87-.68-.05-15.55-2.5-30.94-7.26-45.78,4.69,8.75,10.19,14.85,16.37,18.14l.13.07.29-.55-.76-.54c-1.09-.77-2.22-1.58-3.19-2.53-1.78-1.5-3.51-3.56-4.98-5.37-4.81-6.25-9.09-13.88-13.48-24.02l-.08-.14h0c-1.68-3.79-3.48-7.45-5.34-10.86-11.18-20.46-27.32-37.73-46.67-49.94l.02-.02-.22-.21c-5.41-5.28-10.48-10.06-15.5-14.62-5.61-5.01-10.71-9.49-16.42-13.54-.21-.13-.42-.27-.63-.41-1.28-.84-2.6-1.71-4.07-2.21-2.88-1.04-6.09-1.63-9.22-2.2l-.96-.18c-8.57-1.49-17.33-2.54-25.57-3.49-11.32-1.23-21.4-2.16-30.79-2.86-3.55-.27-7.11.35-10.43,1.06-5.55,1.34-11.24,3.07-17.35,5.28-4.84.54-10.59,1.24-16.46,2.29-21.53,3.75-36.3,10.86-46.47,22.37-5.08,5.54-9.49,11.81-13.77,17.9l-.07.09c-.82,1.16-1.64,2.32-2.46,3.48l-.18.25.63.52.19-.27c.86-1.18,1.71-2.36,2.57-3.56,7.59-10.56,15.44-21.47,26.46-27.96,13.46-7.94,28.24-10.68,42.29-12.37-5.41,2.15-10.51,4.36-14.42,6.08l-.28.12.03.07c-8.49,2.92-16.61,6.86-24.14,11.7-11.11,7.14-20.84,16.2-28.92,26.93-7.99,10.6-14.28,22.55-18.68,35.53-4.43,13.05-6.76,26.54-6.92,40.11-.02,1.69,0,3.41.05,5.26,0,.17.13.37.44.37Z"/>
  <path class="uuid-7a84bb5f-ff2b-4ca4-be11-bfa71b8c79a9" d="m209.2,263.38c.61-.5,1.22-1.03,1.81-1.54l.14-.12c2.07-1.79,4.21-3.64,6.65-4.82.99-.05,1.83-.88,2.65-1.69.79-.78,1.61-1.6,2.44-1.5h.04c.22,0,.78-.22.8-.57,0-.04,0-.16-.08-.27-.07-.08-.17-.14-.31-.15-1.12-.13-2.13.83-3,1.67-.76.74-1.55,1.5-2.33,1.51-.1,0-.41,0-.87,0h-.92c-.17-.01-.35-.02-.54-.02h-.14c-.18,0-.36,0-.55,0l-1.22-.02c-.43,0-.88,0-1.37-.02-.16,0-.31,0-.48,0l-2.05-.03c-.68,0-1.36-.02-2.07-.04l-3.55-.05c-.39,0-.77-.01-1.17-.02-.37,0-.75-.01-1.13-.02-.2,0-.39,0-.59,0l-2.07-.04c-17.09-1.19-29.94-.37-41.68,2.66-4.55,1.16-8.97,2.72-13.15,4.62-.43.2-.38.48-.34.59.04.1.11.18.22.22.19.08.44.05.6-.02,13.27-6.04,28.76-8.39,48.75-7.43,3.1.15,6.39.38,10.29.71-3.69,1.05-7.23,2.67-10.5,4.28-2.22.74-4.41,1.61-6.54,2.44-2.28.9-4.63,1.83-7.02,2.6-4.46,1.45-9.23,2.61-14.18,3.44-1.93.32-3.96.57-5.75.79l-1.81.22c-.85.11-1.72.26-2.63.41-1.36.23-2.76.46-4.14.57h-.15c-2,.17-3.89.31-5.84,1.08-2.25.89-4.25,1.44-6.12,1.66-1.07.12-2.17.31-3.35.58.02-.06.04-.13.07-.2v-.04h.01c.03-.1.06-.19.08-.23.13-.28.29-.56.43-.81.07-.13.14-.26.21-.38.42-.76.87-1.54,1.37-2.38.94-1.57,1.96-3.13,3.03-4.64.05-.07.16-.21.13-.4-.01-.14-.09-.27-.21-.35-.09-.06-.2-.09-.33-.08-.18.02-.3.12-.39.2-.75.64-1.37,1.45-1.77,2-.37.51-.69,1.09-.96,1.6l-.03.06c-.16.29-.31.58-.48.86l-.32.54c-.65,1.11-1.39,2.37-2.32,3.25l-.11.13c-1.62,1.74-4.41,1.48-6.67,1.27-.4-.04-.79-.07-1.15-.1l-2.45-.16,2.33.8c.99.34,1.97.8,2.94,1.27.54.26,1.1.53,1.67.77.1.04.19.08.29.11l-1.08.39h1.96l.17-.07c.9.21,1.8.3,2.72.37,1.22.1,2.38.19,3.51.62h.04c1.91.75,3.96,1.45,6.28,2.17,4.7,1.48,8.95,2.43,13,2.92,2.08.25,4.14.38,6.13.38,1.15,0,2.3-.04,3.41-.13,2.07-.17,4.18-.54,6.29-1.11l.06-.02c.65-.17,1.34-.37,2.03-.61h.02s.06-.03.08-.04l.08-.03s.07-.03.1-.04l.05-.02c.07-.02.11-.04.13-.05.03,0,.06-.02.11-.03.03,0,.06-.02.14-.04.05-.02.1-.04.17-.06l.1-.03c.14-.05.3-.1.46-.16,1.67-.59,2.91-1.05,3.66-1.37.03,0,.05-.02.08-.04.08-.03.15-.06.22-.09l.28-.03v-.11c6.46-3.04,12.73-6.66,18.64-10.74,3.1-2.14,6.12-4.43,8.99-6.82Zm-33.3,19.35h0s0,0,0,0h0Zm10.97-17.29l.1.12c2.2-.86,4.48-1.75,6.77-2.51l.2-.08c.52-.24,1.95-.86,3.53-1.51l.21-.09c1.59-.66,3.88-1.57,5.73-2.15l.13-.03h0c.58-.17,1.17-.31,1.74-.46l.26-.05c2.21-.45,7.37-1.42,9.77-1.68-1.71,1.1-3.27,2.44-4.8,3.77-.5.43-1,.86-1.51,1.29-2.83,2.37-5.83,4.67-8.91,6.84-1.14.8-2.32,1.6-3.58,2.42l-21.38,11c-1.89.61-3.78,1.05-5.62,1.3-4.87.64-10.24.31-16.41-.99-4.22-.89-8.75-2.24-13.85-4.13l-2.13-.89-.35-.15c-.22-.13-.52-.33-.78-.6.59-.12,1.18-.23,1.71-.32l.3-.06c.36-.06.71-.12,1.07-.18,1.84-.3,3.59-.59,5.39-1.22.6-.22,1.18-.41,1.73-.6.92-.22,1.83-.46,2.67-.68h.08c.32-.06.62-.11.94-.13,1.79-.12,3.55-.39,5.26-.64l.25-.04c.41-.06.82-.12,1.23-.18,1.18-.17,2.39-.32,3.55-.46l.3-.04c1.08-.13,2.2-.27,3.29-.43,4.82-.68,9.65-1.75,14.37-3.16,2.98-.89,5.92-2.04,8.77-3.15l-.05-.14s0,0,0,0Z"/>
  <path class="uuid-7a84bb5f-ff2b-4ca4-be11-bfa71b8c79a9" d="m117.97,277.87l.59,3.11,1.04-14.59-.94,2.26c-1.09,2.61-1.33,5.89-.68,9.22Z"/>
  <path class="uuid-7a84bb5f-ff2b-4ca4-be11-bfa71b8c79a9" d="m171.97,157.79l-.42.7.24.17c5.24,3.94,11.14,6.66,17.07,7.88,2.28.47,4.57.71,6.82.71,4.12,0,8.01-.79,11.56-2.35l.26-.11-.24-.77-.28.08c-.39.11-1.1.31-1.78.51l-.41.12c-.46.13-.87.25-1.12.33-9.67,2.14-20.83-.39-31.44-7.11l-.26-.17Z"/>
  <path class="uuid-7a84bb5f-ff2b-4ca4-be11-bfa71b8c79a9" d="m125.01,175.18h0s.07-.13.07-.13c0,0,0-.01,0-.02l.05-.09h0c.71-1.39,1.25-2.85,1.58-4.34l.07-.3-.75-.23-.09.3c-3.51,11.71-17.19,16.92-27.17,19.82l-.29.08.18.81.3-.07c12.86-2.92,21.62-8.25,26.03-15.84Z"/>
  <path class="uuid-7a84bb5f-ff2b-4ca4-be11-bfa71b8c79a9" d="m116.1,174.32c3.47-1.59,7.05-3.24,9.71-6.22l.2-.23-.55-.59-.22.23c-2.65,2.76-6.17,4.35-9.59,5.88l-.28-.39.17.44c-.62.28-1.23.55-1.84.83-4.33,1.9-8.76,3.52-12.56,4.88l-.28.1.23.8.29-.09c3.97-1.24,8.13-2.77,12.72-4.7.62-.3,1.26-.59,1.89-.88h0s.11-.05.11-.05Z"/>
  <path class="uuid-7a84bb5f-ff2b-4ca4-be11-bfa71b8c79a9" d="m201.39,106.97h.16c2.04.06,4.35.12,6.56.12h.53c1.94.06,3.95.11,5.93.35l2.93.36-2.73-1.18c-1.9-.82-3.93-1.24-5.89-1.64l-.28-.06h0s-.29-.06-.29-.06h0c-6.77-1.2-13.22-1.71-19.73-1.55-.21.02-.41.03-.65.04-.91.06-1.84.12-2.87.39-3.26.9-6.14,2.65-8.92,4.35l-.35.21c-3.91,2.46-7.57,5.15-10.88,7.99l-2.3,1.99,2.72-1.27c2.46-1.15,4.98-2.49,7.21-3.68,4.27-2.27,8.68-4.62,13.19-6.07,5.13-.58,10.49-.44,15.66-.31Z"/>
  <path class="uuid-7a84bb5f-ff2b-4ca4-be11-bfa71b8c79a9" d="m335.92,176.42c-2.21-1.85-4.49-3.76-6.76-5.6-11.02-8.94-23.59-33.07-23.72-33.31l-.2-.38-1.46.88.19.37c.52,1.01,12.99,24.8,24.17,33.87,2.17,1.76,4.36,3.59,6.48,5.36l.34.28c8.96,7.5,18.22,15.26,26.1,17.96l.39.13.5-1.7-.38-.13c-7.58-2.6-16.73-10.25-25.57-17.66l-.07-.06Z"/>
  <path class="uuid-7a84bb5f-ff2b-4ca4-be11-bfa71b8c79a9" d="m324.88,212.96c-.77-.87-1.51-1.78-2.24-2.67l-.04-.05c-.4-.5-.81-1-1.2-1.46-.24-.35-.71-1.06-1.16-1.74l-.36-.55c-.33-.49-.61-.91-.76-1.13-5.71-9.71-8.06-22.02-6.43-33.76l.04-.31-.79-.13-.05.32c-1.9,12.07.31,24.71,6.08,34.68.14.21.42.65.76,1.17l.25.38c.53.82,1.07,1.66,1.31,2.01.39.48.79.98,1.18,1.47l.07.08c.73.92,1.49,1.88,2.27,2.77,6.68,7.69,13.78,17.11,15.7,28.62.85,4.61.94,9.44.96,14-.27,5.73-1.93,11.35-3.55,16.78l-.19.62c-.17.56-.33,1.12-.49,1.68-5.98,18.91-13.31,37.29-19.7,52.78-.37.82-.78,1.82-1.19,2.78l-.08.2c-1.06,2.52-2.26,5.38-3.33,7.22l-.16.27.66.47.17-.28c1.14-1.83,2.39-4.68,3.49-7.19l.12-.28c.44-1,.86-1.95,1.23-2.73,8.85-20.3,15.29-37.05,20.29-52.7.23-.77.46-1.54.7-2.33,1.67-5.55,3.39-11.3,3.68-17.26,0-4.61-.13-9.55-1.02-14.35-2.1-12.26-9.78-22.13-16.24-29.36Z"/>
  <path class="uuid-7a84bb5f-ff2b-4ca4-be11-bfa71b8c79a9" d="m351.2,202.81c-2.83-2.73-5.91-5.23-8.89-7.65-3.02-2.45-6.14-4.98-9.04-7.79l-.23-.22-.54.61.21.22c2.98,3.18,6.29,6.02,9.52,8.79,2.67,2.29,5.43,4.66,7.97,7.2,6.75,6.6,10.2,13.51,10.25,20.55.09,17.32-1.78,33.7-5.55,48.7l-.08.3.76.24.09-.31c4.33-14.57,6.44-30.59,6.45-48.98-.1-7.48-3.98-15.18-10.93-21.68Z"/>
  <path class="uuid-7a84bb5f-ff2b-4ca4-be11-bfa71b8c79a9" d="m181.11,44.51l-.67.44.14.27c9.94,18.58,25.73,33.81,44.43,42.88,1.54.81,3.5,1.57,5.38,2.3.99.39,1.88.74,2.67,1.07l.29.12.29-.78-.27-.13c-5.32-2.45-10.5-4.92-15.34-8.13-14.77-9.38-27.48-22.45-36.76-37.78l-.17-.27Z"/>
  <path class="uuid-7a84bb5f-ff2b-4ca4-be11-bfa71b8c79a9" d="m154.59,354.88c-16.98-8.44-31.41-19.32-42.9-32.34-10.71-12.13-19.92-27.13-28.16-45.85-4.2-9.57-8.14-19.98-12.42-32.76-.88-2.97-1.73-6.12-2.59-9.61-.93-18.3-2.3-37.75-4.31-61.22,13.88-10.97,26.59-22.71,37.78-34.91h.14c.1-.02.2-.02.31-.04.47-.06.95-.12,1.43-.18h.07c3.1-.38,6.3-.76,8.89-2.72l2.06-1.56-2.41.81c-2.37.79-4.93.72-7.43.65h-.28c6.97-7.82,13.43-15.94,19.21-24.14,1.25-1.76,2.78-4.18,4.13-6.31.71-1.12,1.6-2.52,2.35-3.66,8.09-13.63,16.58-28.25,23.65-43.83,14.12,13.38,29.65,23.78,46.17,30.91,12.83,5.88,26.27,12.48,37.23,22.63,21.27,19.5,29.5,42.43,38.21,66.72,2.65,6.76,6.4,15.51,11.87,23.33l.19.27.39-.31.32-.2-.24-.26c-5.37-7.78-9.03-16.49-11.62-23.21-1.31-3.41-2.58-6.92-3.8-10.32-1.7-4.72-3.46-9.61-5.39-14.33-6.53-16.33-16.54-31.14-28.96-42.83-9.6-9.01-20.99-15.14-31.86-20.43-1.98-.97-4.07-1.92-5.91-2.77l-.28-.13c-1.69-.78-3.43-1.58-5.13-2.39-14.23-6.93-27.79-16.55-40.31-28.58,1.09-2.47,2.1-4.85,3.01-7.08,1.42-3.69,2.89-7.5,3.79-11.53l.27-1.26-.78.71-.12-.02c-.4-.08-.5-.1-.69.08l-.05.07-.04.1c-1.11,4.58-3.02,9.11-4.86,13.49l-.18.42c-3.76,8.6-8.28,17.6-14.65,29.16l-.02.04c-7.6,13.55-15.46,27.57-25.06,39.86-4.06,5.24-8.48,10.55-13.15,15.79l-1.36-.03c-2.96-.08-6.29-.16-9.62-.1,14.41-16.53,25-32.91,32.38-50.09,1.6-3.93,2.98-7.85,4.08-11.65l.12-.41-1.63-.53-.11.41c-1.06,3.74-2.38,7.61-3.91,11.49-7.28,17.37-17.86,33.99-32.35,50.8-1.24.04-2.37.1-3.45.19-.74.05-2.14.27-2.81.41-4.5,1.1-8.34,5.08-9.79,10.15l-.75,2.62,1.47-2.26c3.11-4.79,7.23-7.44,11.6-7.44.14,0,.29,0,.45,0h.03c-4.05,4.53-8.37,9.06-12.82,13.45l-.22.22.53.63.23-.22c4.74-4.58,9.34-9.33,13.66-14.1.96-.02,1.91-.03,2.85-.04,2.86-.04,5.66-.08,8.48-.26-10.69,11.66-22.6,22.89-35.41,33.38-.34-3.97-.69-7.93-1.04-11.88,2.18-5.15,4.41-10.58,6.82-16.6.47-1.23.94-2.46,1.41-3.68l.27-.7c3.36-8.75,6.84-17.8,9.01-27.17l.36-2.35-.6-.13-.49,2.3c-2.45,8.58-5.77,17-8.98,25.14l-.12.3c-.75,1.9-1.49,3.79-2.23,5.69-1.93,4.94-4.35,10.99-6.68,16.85l-.21.53c-2.02,5.06-4.3,10.79-6.15,15.5l-.05.13.55.27.06-.14c2.09-4.53,4.2-9.28,6.43-14.51.19,3.48.4,7.18.66,11.28-4.57,3.71-9.33,7.39-14.14,10.94l-.25.18.44.7.26-.19c4.51-3.21,9.14-6.68,13.76-10.31.56,8.92,1.2,18.27,1.78,26.54v.11c.95,13.58,1.92,27.62,2.6,40.67.34,6.81,1.14,20.75,1.57,27.62v.15s.62-.03.62-.03v-.15c-.17-8.67-.46-17.55-.89-27.12.26.95.52,1.84.77,2.69,5.28,15.83,12.75,36.4,23.72,55.15,9.35,15.99,20.74,29.36,33.84,39.76,4.2,3.33,8.8,6.55,13.7,9.56,4.18,11.98,6.3,24.8,8.36,37.21.58,3.52,1.19,7.17,1.83,10.75.02.14.11.25.25.31.06.02.13.04.21.04.22,0,.48-.09.63-.23.18-.16.16-.34.15-.42-.66-3.67-1.29-7.44-1.84-10.8-1.98-11.92-4.02-24.24-7.9-35.84,3.58,2.13,7.28,4.16,11.02,6.02.23.1.58-.01.68-.05.12-.05.42-.19.51-.41.07-.18.03-.42-.22-.54Z"/>
  <path class="uuid-7a84bb5f-ff2b-4ca4-be11-bfa71b8c79a9" d="m79.47,126.1l-.18.23.57.57.21-.24c5.5-6.05,16.03-18.45,24.71-33.57,8.57-14.92,12.92-28.2,12.93-39.46v-.43h-1.29s-.02.41-.02.41c-.8,24.01-20.16,51.35-36.94,72.48Z"/>
</svg>