<?xml version="1.0" encoding="UTF-8" standalone="no"?>
<!DOCTYPE svg PUBLIC "-//W3C//DTD SVG 1.1//EN" "http://www.w3.org/Graphics/SVG/1.1/DTD/svg11.dtd">
<!-- Created with Vectornator (http://vectornator.io/) -->
<svg height="100%" stroke-miterlimit="10" style="fill-rule:nonzero;clip-rule:evenodd;stroke-linecap:round;stroke-linejoin:round;" version="1.1" viewBox="0 0 400 400" width="100%" xml:space="preserve" xmlns="http://www.w3.org/2000/svg" xmlns:vectornator="http://vectornator.io" xmlns:xlink="http://www.w3.org/1999/xlink">
<defs/>
<g id="Untitled" vectornator:layerName="Untitled">
<path d="M164.461 215.854C163.536 216.644 162.384 217.628 161.711 218.822C161.543 218.94 161.526 219.091 161.534 219.167C161.265 219.755 161.139 220.344 161.164 220.933L161.164 220.958L161.164 221.042C161.164 221.16 161.181 221.269 161.198 221.387C161.215 221.513 161.291 221.605 161.4 221.664C161.45 221.748 161.518 221.833 161.593 221.908C161.593 221.925 161.593 221.933 161.593 221.95C161.61 222.001 161.652 222.127 161.812 222.177C161.846 222.186 161.888 222.203 161.921 222.211L161.955 222.085L161.955 222.219C161.955 222.219 161.98 222.219 161.997 222.219C162.174 222.312 162.35 222.379 162.535 222.413C162.56 222.413 162.619 222.421 162.72 222.404C163.183 222.497 163.654 222.539 164.116 222.539C164.579 222.539 165.007 222.497 165.445 222.421C165.756 222.362 165.932 222.228 165.966 222.026C165.983 221.917 165.949 221.816 165.882 221.74C165.815 221.673 165.689 221.597 165.445 221.639C164.679 221.782 163.889 221.765 163.09 221.597C162.838 221.269 162.745 220.916 162.804 220.538C163.107 219.89 163.46 219.268 163.855 218.696C164.074 218.444 164.301 218.217 164.503 218.015L164.553 217.964C165.041 217.477 165.562 216.947 166.092 216.451L168.438 214.76C170.995 213.558 173.93 213.474 176.68 214.516C177.033 214.87 177.344 215.256 177.596 215.669C177.596 216.072 177.52 216.451 177.369 216.804C177.285 216.989 177.344 217.123 177.394 217.191C177.478 217.325 177.663 217.392 177.848 217.367C177.916 217.367 177.983 217.342 178.059 217.317C178.017 217.359 177.975 217.401 177.949 217.451C177.89 217.594 177.941 217.788 178.134 217.872C178.95 218.233 179.808 218.41 180.682 218.41C181.876 218.41 183.045 218.082 184.155 217.426C186.367 216.131 188.024 213.692 188.486 211.06C188.94 208.462 188.57 205.804 187.385 203.147L191.404 207.486C191.48 207.562 191.581 207.604 191.707 207.604L191.707 207.604C191.9 207.604 192.136 207.503 192.254 207.377C192.405 207.217 192.371 207.015 192.27 206.898L184.374 198.379C183.533 197.345 182.558 196.294 181.473 195.251C181.397 195.175 181.288 195.15 181.153 195.15C180.96 195.15 180.716 195.259 180.615 195.377C180.489 195.52 180.489 195.713 180.615 195.848L183.609 199.069C186.19 202.264 187.502 205.401 187.612 208.655C187.704 211.329 186.905 213.793 185.408 215.416C183.567 217.409 180.96 218.074 178.765 217.123C178.63 217.064 178.429 217.107 178.286 217.165C178.311 217.132 178.336 217.098 178.361 217.056C178.866 215.896 178.731 214.55 178 213.373C178 213.364 178 213.356 178 213.348C178 213.289 177.966 213.205 177.882 213.129C177.865 213.112 177.84 213.095 177.806 213.078C177.504 212.658 177.159 212.305 176.78 212.027C175.015 210.715 172.778 211.111 171.214 211.666C170.65 211.842 170.112 212.069 169.624 212.355C168.018 213.154 166.336 214.289 164.646 215.736L164.486 215.87L164.461 215.854Z" fill="#232a56" fill-rule="nonzero" opacity="1" stroke="none" vectornator:layerName="path"/>
<path d="M118.218 179.626L119.168 180.131L118.529 179.559C123.634 178.424 128.545 176.061 132.758 172.722L132.791 172.697C134.919 171.007 137.072 168.846 138.871 166.617C138.913 166.634 138.955 166.651 139.006 166.668C139.325 166.794 139.712 166.634 139.939 166.415C140.133 166.23 140.225 166.012 140.192 165.801C140.166 165.658 140.074 165.473 139.788 165.373C129.554 161.597 117.823 164.212 109.918 172.024C107.883 174.043 106.1 176.38 104.62 178.962C104.461 179.239 104.536 179.441 104.604 179.534C104.763 179.778 105.091 179.828 105.369 179.795C107.337 180.173 109.355 180.358 111.365 180.358C113.652 180.358 115.964 180.114 118.227 179.635L118.218 179.626ZM113.324 171.234C113.072 172.554 113.164 173.975 113.585 175.237C114.047 176.616 115.031 177.886 116.36 178.802C116.36 178.802 116.377 178.819 116.385 178.827C114.569 179.105 112.702 179.223 110.835 179.181C109.388 179.122 107.774 178.962 106.47 178.735C107.152 177.625 108.093 176.288 109.018 175.136C110.33 173.546 111.802 172.1 113.391 170.839C113.366 170.973 113.341 171.108 113.324 171.242L113.324 171.234ZM132.649 167.012C132.194 166.171 131.614 165.499 131 165.053C132.152 165.112 133.422 165.255 134.566 165.457C135.567 165.642 136.567 165.886 137.543 166.18C136.937 166.911 136.088 167.862 135.558 168.434C134.827 169.207 134.036 169.989 133.321 170.637C133.557 169.51 133.321 168.24 132.649 167.012Z" fill="#232a56" fill-rule="nonzero" opacity="1" stroke="none" vectornator:layerName="path"/>
<path d="M217.212 146.897C217.153 146.881 217.103 146.864 217.036 146.839C217.019 146.738 216.968 146.603 216.792 146.519C206.987 141.583 194.835 143.071 185.846 150.312C183.558 152.145 181.515 154.34 179.774 156.82C179.631 157.014 179.665 157.174 179.698 157.249C179.741 157.359 179.85 157.493 180.119 157.527C180.422 157.569 180.977 157.468 181.179 157.174C182.255 155.643 183.794 153.885 185.299 152.473C187.309 150.606 189.571 149.042 192.01 147.822C191.589 151.825 193.389 155.878 196.551 158.048C194.247 158.536 191.909 158.788 189.613 158.788C189.31 158.788 188.999 158.771 188.696 158.763L188.394 158.746C186.031 158.62 183.457 158.242 181.481 157.745C181.263 157.695 180.741 157.871 180.481 158.048C180.346 158.141 180.262 158.233 180.245 158.326C180.211 158.469 180.287 158.645 180.481 158.696C183.188 159.385 186.031 159.738 188.915 159.738C196.324 159.738 203.816 157.426 210.022 153.221C211.158 152.448 212.217 151.598 213.016 150.942C213.369 150.656 213.764 150.396 214.126 150.169L214.277 150.076C214.37 150.017 214.454 149.958 214.547 149.899C215.102 149.529 215.648 149.159 216.153 148.806L216.523 148.546C216.523 148.546 216.598 148.487 216.632 148.462C216.691 148.419 216.75 148.369 216.817 148.335L216.884 148.293C216.884 148.293 216.926 148.26 216.96 148.234C216.977 148.218 216.985 148.209 217.002 148.201C217.17 148.184 217.372 148.1 217.473 147.932C217.507 147.873 217.532 147.806 217.532 147.738C217.557 147.663 217.557 147.587 217.532 147.511C217.523 147.478 217.507 147.444 217.49 147.419C217.523 147.343 217.532 147.267 217.515 147.2C217.49 147.049 217.372 146.939 217.221 146.906L217.212 146.897ZM211.973 147.705L211.973 147.705C211.78 147.007 211.435 146.334 210.973 145.745C212.436 146.141 213.849 146.67 215.186 147.301C215.144 147.351 215.093 147.419 215.043 147.486L214.975 147.57C214.799 147.764 214.589 147.974 214.336 148.192C214.042 148.453 213.731 148.705 213.42 148.949C213.159 149.159 212.898 149.37 212.638 149.588L212.066 150.084C212.217 149.294 212.192 148.478 211.973 147.696L211.973 147.705Z" fill="#232a56" fill-rule="nonzero" opacity="1" stroke="none" vectornator:layerName="path"/>
<path d="M216.624 154.592C209.156 159.915 200.478 162.825 191.522 163.001C191.438 163.001 191.303 163.052 191.211 163.144C191.152 163.211 191.118 163.287 191.118 163.363C191.118 163.48 191.202 163.649 191.438 163.649C200.587 163.472 209.451 160.504 217.078 155.063C217.229 154.953 217.246 154.777 217.17 154.659C217.128 154.592 217.061 154.55 216.977 154.533C216.851 154.499 216.691 154.541 216.615 154.592L216.615 154.592L216.615 154.592L216.624 154.592Z" fill="#232a56" fill-rule="nonzero" opacity="1" stroke="none" vectornator:layerName="path"/>
<path d="M137.677 155.786C137.45 155.677 137.139 155.82 137.005 155.929C136.836 156.063 136.828 156.206 136.836 156.282C136.836 156.341 136.878 156.484 137.047 156.568C140.234 158.057 142.395 161.748 142.958 166.684C143.505 171.486 143.11 176.506 142.731 181.359L142.698 181.788C141.991 190.785 140.377 200.002 137.618 210.783C136.592 214.794 135.928 219.259 138.787 222.009C138.863 222.085 138.981 222.127 139.107 222.127C139.183 222.127 139.267 222.11 139.359 222.085C139.485 222.043 139.695 221.933 139.746 221.715C139.771 221.589 139.729 221.471 139.637 221.387C137.072 218.923 137.669 214.819 138.585 211.128L138.728 210.539C139.855 206.015 141.024 201.331 141.857 196.605C142.731 191.652 143.37 186.598 143.757 181.569L143.774 181.392C144.144 176.582 144.531 171.621 144.043 166.819C143.496 161.429 141.176 157.409 137.677 155.778L137.677 155.786Z" fill="#232a56" fill-rule="nonzero" opacity="1" stroke="none" vectornator:layerName="path"/>
<path d="M228.128 248.725C227.892 248.927 227.909 249.18 228.027 249.331C228.119 249.449 228.271 249.516 228.439 249.516C228.573 249.516 228.708 249.465 228.809 249.381C231.323 247.161 231.382 243.596 230.591 241.014C229.683 238.037 227.522 235.674 223.788 233.563C222.401 232.781 220.98 232.058 219.601 231.36C217.591 230.343 215.514 229.292 213.563 228.047C210.283 225.961 207.155 223.548 204.27 220.857C200.974 217.788 197.93 214.298 195.239 210.497C195.172 210.396 195.062 210.337 194.936 210.32C194.768 210.295 194.566 210.354 194.432 210.463C194.238 210.623 194.196 210.875 194.331 211.069C198.771 217.334 204.102 222.699 210.174 227.013C213.008 229.022 216.102 230.839 219.634 232.563L220.114 232.798C223.065 234.236 226.412 235.859 228.38 238.794C230.356 241.729 230.819 246.362 228.136 248.725L228.128 248.725Z" fill="#232a56" fill-rule="nonzero" opacity="1" stroke="none" vectornator:layerName="path"/>
<path d="M169.717 160.066L169.733 160.1C169.809 160.226 169.944 160.302 170.112 160.302C170.246 160.302 170.389 160.26 170.507 160.184C170.759 160.016 170.768 159.764 170.675 159.595C168.674 156.114 168.665 151.615 170.65 148.125C170.776 147.906 170.684 147.713 170.549 147.621C170.44 147.545 170.255 147.528 170.078 147.57C169.91 147.612 169.767 147.705 169.7 147.822C167.581 151.548 167.589 156.349 169.708 160.075L169.717 160.066Z" fill="#232a56" fill-rule="nonzero" opacity="1" stroke="none" vectornator:layerName="path"/>
<path d="M220.946 306.035L220.946 306.035C220.778 305.951 220.5 305.951 220.324 306.094C206.331 316.942 189.008 322.113 171.55 320.658C166.681 320.255 161.829 319.305 157.12 317.833C156.985 317.791 156.817 317.825 156.657 317.909C156.506 317.993 156.405 318.11 156.371 318.228C156.329 318.388 156.396 318.607 156.649 318.682C163.149 320.709 170.003 321.743 177.024 321.743C187.729 321.743 198.451 319.313 208.046 314.713C212.587 312.535 216.935 309.844 220.963 306.724C221.148 306.581 221.173 306.43 221.165 306.337C221.165 306.279 221.131 306.127 220.946 306.035Z" fill="#232a56" fill-rule="nonzero" opacity="1" stroke="none" vectornator:layerName="path"/>
<path d="M139.468 274.315C139.393 274.214 139.258 274.164 139.124 274.189C138.981 274.214 138.871 274.306 138.829 274.424C137.013 279.588 136.727 285.138 137.997 290.469C138.022 290.587 138.115 290.679 138.224 290.713C138.266 290.721 138.3 290.73 138.325 290.73C138.375 290.73 138.409 290.721 138.434 290.713C138.636 290.654 138.754 290.469 138.712 290.284C137.467 285.07 137.745 279.663 139.51 274.634C139.553 274.525 139.536 274.399 139.468 274.315Z" fill="#232a56" fill-rule="nonzero" opacity="1" stroke="none" vectornator:layerName="path"/>
<path d="M226.059 251.585C226.008 251.517 225.933 251.475 225.849 251.467C225.697 251.458 225.563 251.526 225.504 251.585C225.361 251.711 225.369 251.896 225.453 252.005C229.061 256.773 231.735 262.441 233.19 268.395C233.224 268.529 233.341 268.622 233.493 268.622C233.535 268.622 233.577 268.622 233.627 268.605C233.871 268.538 233.947 268.344 233.905 268.201C232.433 262.172 229.725 256.428 226.059 251.593L226.059 251.585Z" fill="#232a56" fill-rule="nonzero" opacity="1" stroke="none" vectornator:layerName="path"/>
<path d="M135.087 250.912C135.129 250.912 135.171 250.912 135.213 250.903C135.424 250.861 135.575 250.735 135.634 250.559C137.845 243.949 139.241 237.062 139.796 230.09C139.813 229.939 139.746 229.788 139.628 229.704C139.452 229.569 139.199 229.594 139.031 229.678C138.863 229.762 138.754 229.914 138.737 230.09C138.19 237.003 136.811 243.806 134.633 250.315C134.557 250.533 134.65 250.685 134.692 250.744C134.776 250.853 134.919 250.92 135.087 250.92L135.087 250.912Z" fill="#232a56" fill-rule="nonzero" opacity="1" stroke="none" vectornator:layerName="path"/>
<path d="M145.439 220.958L145.439 220.958C145.834 220.832 146.381 221.025 146.827 221.193L146.869 221.21C147.558 221.463 148.256 221.841 149.072 222.396C149.803 222.892 150.51 223.464 151.199 224.019C152.949 225.423 154.757 226.878 157.035 227.315C157.061 227.315 157.094 227.324 157.128 227.324C157.397 227.324 157.649 227.114 157.691 226.87C157.725 226.685 157.624 226.458 157.321 226.399C155.253 226.004 153.554 224.616 151.906 223.271C150.956 222.497 149.972 221.698 148.912 221.076C148.012 220.554 145.91 219.327 144.548 220.411C143.951 220.891 143.782 221.614 144.102 222.303C144.279 222.682 144.556 222.951 144.817 223.203C144.909 223.296 145.01 223.388 145.103 223.481C145.262 223.657 145.422 223.834 145.481 224.019C145.523 224.162 145.532 224.423 145.447 224.557C145.237 224.599 145.052 224.759 144.985 224.961C144.934 225.104 144.96 225.247 145.035 225.348C145.086 225.415 145.22 225.533 145.481 225.482C146.095 225.364 146.49 224.944 146.557 224.322C146.642 223.54 146.12 223.035 145.7 222.623L145.666 222.589C145.565 222.488 145.464 222.388 145.372 222.287C145.111 221.984 144.968 221.589 145.035 221.328C145.077 221.151 145.212 221.025 145.439 220.95L145.439 220.958Z" fill="#232a56" fill-rule="nonzero" opacity="1" stroke="none" vectornator:layerName="path"/>
<path d="M224.427 149.513L224.444 149.336L224.343 149.235C219.003 143.996 212.057 140.834 204.792 140.347C199.998 140.019 195.079 140.952 190.53 143.012C190.454 142.945 190.303 142.861 190.05 142.937C188.89 143.307 187.729 143.778 186.619 144.341C186.544 144.341 186.46 144.349 186.375 144.383C184.643 145.056 183.029 146.157 181.313 147.822C180.127 148.789 179.076 149.933 178.193 151.228L178.017 151.48C178.017 151.48 177.966 151.548 177.924 151.598C177.874 151.657 177.832 151.707 177.798 151.758L177.361 152.296L177.512 152.296C177.403 152.481 177.293 152.675 177.193 152.851L177.041 153.087C176.974 153.196 176.898 153.297 176.839 153.406C176.755 153.549 176.772 153.667 176.789 153.734L176.73 153.843C176.637 154.012 176.68 154.155 176.705 154.205C176.705 154.205 176.705 154.213 176.705 154.222C176.646 154.398 176.713 154.541 176.806 154.617C176.907 154.71 177.075 154.752 177.251 154.726C177.302 154.752 177.378 154.76 177.47 154.76C177.638 154.76 177.958 154.71 178.084 154.525C180.203 151.438 182.802 148.773 185.795 146.611C185.854 146.578 185.888 146.553 185.905 146.536C188.503 144.677 191.312 143.256 194.247 142.323C200.646 140.288 207.71 140.7 214.126 143.483C217.582 144.988 220.727 147.116 223.477 149.815C223.587 149.925 223.763 149.942 223.99 149.866C224.242 149.782 224.385 149.656 224.419 149.504L224.427 149.513Z" fill="#232a56" fill-rule="nonzero" opacity="1" stroke="none" vectornator:layerName="path"/>
<path d="M105.461 173.075C109.557 168.055 115.342 164.876 121.346 164.347C121.607 164.321 121.885 164.103 121.859 163.834C121.859 163.8 121.843 163.699 121.758 163.623C121.674 163.539 121.548 163.497 121.38 163.514C120.859 163.565 120.346 163.632 119.799 163.724C119.799 163.724 119.782 163.708 119.774 163.708C119.707 163.649 119.58 163.581 119.404 163.598C117.739 163.75 116.074 164.094 114.468 164.633C113.862 164.784 113.29 164.994 112.727 165.272C111.314 165.751 109.977 166.432 108.724 167.273C108.648 167.29 108.59 167.315 108.548 167.349C106.378 168.846 104.587 170.948 103.367 173.429L103.367 173.429C103.334 173.471 103.317 173.513 103.317 173.521C103.283 173.597 103.25 173.681 103.208 173.757L103.166 173.841C102.964 174.286 102.754 174.741 102.552 175.153L102.518 175.211C102.476 175.287 102.426 175.363 102.392 175.43C102.308 175.59 102.232 175.758 102.148 175.943L102.114 176.044C102.114 176.044 102.098 176.078 102.089 176.094C102.072 176.128 102.047 176.162 102.03 176.195L101.66 177.003C101.517 177.331 101.366 177.659 101.231 177.978C101.038 178.399 100.962 178.558 100.937 178.617L100.912 178.668C100.861 178.769 100.87 178.878 100.92 178.979C100.988 179.097 101.105 179.147 101.273 179.147L101.408 179.147L101.484 179.038C101.484 179.038 101.543 178.97 101.559 178.937C102.207 178.104 102.754 177.364 103.233 176.675C103.586 176.162 103.88 175.64 104.166 175.136L104.225 175.035C104.536 174.488 104.873 173.925 105.234 173.378L105.428 173.084L105.461 173.075Z" fill="#232a56" fill-rule="nonzero" opacity="1" stroke="none" vectornator:layerName="path"/>
<path d="M288.624 225.036L288.641 224.936C288.649 224.793 288.599 224.624 288.414 224.532C285.664 218.208 284.209 210.455 283.957 200.835C283.864 197.387 283.906 193.872 283.94 190.474L283.94 189.49C284.033 189.6 284.108 189.701 284.192 189.81C284.293 189.945 284.47 190.003 284.68 189.97C284.857 189.936 285.084 189.827 285.159 189.617C285.201 189.49 285.176 189.347 285.092 189.238C280.097 182.847 275.581 175.06 271.267 165.423C267.491 156.972 264.229 147.898 261.277 137.672C259.805 132.568 258.468 127.262 257.291 121.888L257.274 121.838C255.012 117.398 252.212 113.403 248.949 109.964C245.627 106.466 241.927 103.606 239.076 101.512C238.177 100.848 237.268 100.192 236.369 99.5279L236.142 99.3597C229.969 94.8775 223.587 90.2356 218.448 84.122C214.404 79.3119 210.914 73.5011 208.063 66.841C208.038 66.7737 207.954 66.6307 207.743 66.6055C207.542 66.5803 207.23 66.6812 207.096 66.8662C207.029 66.9755 207.012 67.1017 207.062 67.2194C209.585 73.1227 212.604 78.3617 216.027 82.7934C218.894 86.5019 222.241 89.916 226.252 93.2209C228.935 95.4241 231.769 97.4592 234.51 99.427L234.544 99.4522C238.656 102.404 242.911 105.456 246.645 109.089C250.521 112.865 253.767 117.28 256.273 122.208C261.058 143.996 267.475 161.958 275.901 177.12C278.129 181.115 280.492 184.815 282.931 188.111L282.914 189.532C282.78 201.516 282.637 213.903 287.405 224.902C287.396 224.936 287.388 224.969 287.388 224.994C286.446 234.707 283.604 244.924 278.701 256.227C278.508 256.689 278.297 257.143 278.087 257.614C277.776 258.312 277.473 258.993 277.179 259.615C275.194 263.887 273.008 268.008 270.687 271.859C270.384 271.927 270.09 272.095 270.09 272.398C270.09 272.482 270.09 272.574 270.09 272.658L270.09 272.818C267.382 277.225 264.506 281.253 261.546 284.801C257.661 289.452 253.894 292.967 250.034 295.548C249.857 295.666 249.765 295.801 249.773 295.96C249.773 296.019 249.798 296.171 249.966 296.272C250.177 296.389 250.564 296.372 250.765 296.229C257.695 291.613 263.968 284.616 270.502 274.231C270.519 274.206 270.536 274.197 271.284 272.953L271.309 272.911C273.47 269.404 275.472 265.754 277.288 262.054C278.323 278.755 280.568 301.729 283.612 326.831L283.629 326.957L284.142 326.898L278.709 259.094C281.19 253.721 283.301 248.204 284.974 242.688C286.665 237.146 287.791 232.025 288.414 227.055C289.675 229.544 291.189 231.806 292.913 233.774L292.997 233.875L293.375 233.505L293.3 233.412C291.264 230.906 289.927 227.921 288.632 225.028L288.624 225.036Z" fill="#232a56" fill-rule="nonzero" opacity="1" stroke="none" vectornator:layerName="path"/>
<path d="M110.17 307.843C105.831 303.075 100.946 298.517 95.6477 294.304C94.7647 293.597 93.8565 292.908 92.9735 292.235C90.6357 290.452 88.2138 288.619 86.1283 286.466C80.1998 280.328 76.1886 270.775 74.8431 259.565C74.1535 253.847 74.1872 247.918 74.9524 241.956C75.5747 237.045 76.6763 232.142 77.7527 227.383C77.9209 226.626 78.0891 225.877 78.2572 225.121C78.4843 224.103 78.7029 223.094 78.9132 222.076C78.9804 222.186 79.0561 222.303 79.1234 222.413C81.2425 225.869 82.6133 229.401 83.3196 233.21C84.0008 236.885 84.1269 240.703 84.2278 244.075C84.3708 248.456 84.5138 252.981 85.1949 257.488C86.0274 263.03 88.3904 268.168 90.6694 273.146L90.9385 273.718L90.9637 273.701C90.9637 273.701 91.0394 273.735 91.0898 273.743L91.2412 273.743L91.3253 273.617C91.3505 273.575 91.3673 273.533 91.3673 273.491L91.401 273.491L91.2328 273.121C89.1136 268.496 87.6 263.728 86.7422 258.96C85.9517 254.57 85.7079 250.096 85.5817 246.69C85.5649 246.119 85.5397 245.555 85.5229 244.975C85.3042 238.382 85.0772 231.562 82.2348 225.44C80.3259 221.32 77.5845 217.645 74.9272 214.096L73.4135 212.069C70.8487 208.63 68.1913 205.073 66.0301 201.247C61.2537 192.762 59.6643 182.628 61.4387 171.949C63.1037 161.916 67.5018 152.077 75.2635 140.969C75.4149 140.75 75.3476 140.54 75.2131 140.431C75.1038 140.338 74.9104 140.304 74.7001 140.338C74.5067 140.363 74.2628 140.456 74.1535 140.616C67.2579 150.48 63.0701 159.192 60.9762 168.038C58.4702 178.6 59.1009 189.07 62.7421 197.521C65.2229 203.273 68.9482 208.252 72.5642 213.078C74.3806 215.509 76.2642 218.015 77.9713 220.622C77.5509 222.64 77.0884 224.692 76.6427 226.676L76.6174 226.794C75.8017 230.41 74.9608 234.152 74.3133 237.886C73.2621 243.957 72.8837 249.852 73.1864 255.402C73.6574 263.862 75.8354 275.946 83.5467 285.432C85.8508 288.266 88.7268 290.469 91.5103 292.605L91.7121 292.765C92.1494 293.101 92.5951 293.438 93.024 293.782C98.347 297.928 102.863 301.973 106.849 306.127C113.139 312.686 119.16 320.423 125.257 329.766C126.106 331.061 126.955 332.398 127.855 333.827L128.032 334.113L128.049 334.113C128.049 334.113 128.116 334.147 128.166 334.147L128.351 334.13L128.419 333.987C128.435 333.945 128.452 333.912 128.452 333.869L128.494 333.853L127.468 332.213C122.255 323.854 116.864 315.218 110.154 307.834L110.17 307.843Z" fill="#232a56" fill-rule="nonzero" opacity="1" stroke="none" vectornator:layerName="path"/>
<path d="M105.453 181.636L105.293 181.88L107.58 184.033C107.639 184.083 107.715 184.117 107.799 184.117C107.925 184.117 108.077 184.05 108.161 183.949L108.312 183.722L106.025 181.569C105.966 181.51 105.89 181.485 105.781 181.485C105.663 181.485 105.529 181.56 105.453 181.645L105.453 181.636Z" fill="#232a56" fill-rule="nonzero" opacity="1" stroke="none" vectornator:layerName="path"/>
<path d="M234.746 150.572L234.746 150.53L234.552 150.564C234.552 150.564 234.527 150.564 234.51 150.564C231.012 151.195 227.531 150.455 224.882 149.74C224.655 149.681 224.385 149.723 224.167 149.857C224.083 149.908 223.948 150.009 223.915 150.16L223.872 150.429L224.108 150.497C226.193 151.102 228.514 151.422 230.819 151.422C232.139 151.422 233.4 151.312 234.594 151.102L234.788 151.068L234.788 151.043C234.788 151.043 234.863 150.976 234.889 150.909L234.939 150.766L234.847 150.648C234.847 150.648 234.779 150.581 234.746 150.564L234.746 150.572Z" fill="#232a56" fill-rule="nonzero" opacity="1" stroke="none" vectornator:layerName="path"/>
<path d="M98.1536 184.403L98.2545 184.512C98.2966 184.563 98.347 184.596 98.4059 184.596L98.4059 184.613L98.6077 184.571C100.786 184.041 102.787 182.881 104.402 181.224C104.486 181.14 104.519 181.022 104.494 180.913C104.469 180.804 104.385 180.72 104.276 180.686C104.149 180.644 103.973 180.661 103.864 180.778C102.232 182.452 100.382 183.579 98.49 184.041L98.1788 184.117L98.2377 184.176C98.2377 184.176 98.2125 184.226 98.2041 184.251L98.162 184.394L98.1536 184.403Z" fill="#232a56" fill-rule="nonzero" opacity="1" stroke="none" vectornator:layerName="path"/>
<path d="M193.599 278.284C193.01 278.183 192.287 278.36 191.707 278.511C191.48 278.57 191.253 278.629 191.043 278.662C189.966 278.856 188.856 279.066 187.738 279.285C185.56 279.714 183.373 280.176 181.254 280.655C176.898 281.639 172.45 282.8 168.035 284.095C167.984 284.112 167.934 284.137 167.9 284.162C167.841 284.187 167.791 284.213 167.757 284.246L167.673 284.322C167.555 284.423 167.513 284.583 167.547 284.734C167.589 284.885 167.698 284.995 167.858 285.02C167.951 285.037 168.052 285.045 168.153 285.045C168.665 285.045 169.221 284.835 169.717 284.65C169.944 284.566 170.154 284.49 170.339 284.431C171.592 284.078 172.811 283.742 173.972 283.439C176.326 282.817 178.723 282.228 181.094 281.681C183.525 281.126 185.98 280.613 188.377 280.151C189.63 279.907 190.874 279.68 192.069 279.47C192.153 279.453 192.279 279.445 192.413 279.436C192.926 279.403 193.624 279.352 193.885 278.864C193.944 278.747 193.944 278.62 193.893 278.511C193.843 278.393 193.734 278.309 193.607 278.292L193.599 278.284Z" fill="#232a56" fill-rule="nonzero" opacity="1" stroke="none" vectornator:layerName="path"/>
<path d="M65.5004 147.999L65.5256 147.999C65.7947 147.991 66.1899 147.856 66.1815 147.52C65.862 136.268 67.3168 125.025 70.5207 114.084C73.6574 103.354 78.3413 93.3302 84.4297 84.2902C90.6946 74.998 98.2966 67.0428 107.042 60.6517C115.897 54.1766 125.702 49.3833 136.172 46.3896C146.65 43.3959 157.313 42.3531 167.883 43.295C169.153 43.4043 170.448 43.5472 171.836 43.7407C171.996 43.7575 172.374 43.6229 172.5 43.4463L172.584 43.295L172.534 43.1604C172.5 43.0847 172.433 42.9838 172.248 42.9586C161.644 41.529 150.871 42.0756 140.234 44.5732C139.468 44.7582 138.695 44.9432 137.921 45.1534C141.243 43.8416 144.59 42.5886 147.895 41.4113L147.945 41.3945C149.198 40.9908 150.468 40.5535 151.696 40.1415L152.04 40.0237C158.457 37.8626 165.722 35.407 172.988 35.6509C180.809 36.2648 189.016 37.0553 198.83 38.1569C206.373 38.9978 214.404 39.9312 222.392 41.3692L223.2 41.5374C225.041 41.9074 226.942 42.2943 228.632 42.9081C229.734 43.2613 230.76 43.9172 231.76 44.5564L231.912 44.6573C232.055 44.7498 232.198 44.8423 232.332 44.9264C241.069 51.1661 249.218 58.6671 257.114 65.9244L257.114 65.9244C248.856 61.0638 240.094 57.3637 231.046 54.9166C230.886 54.8745 230.65 54.925 230.449 55.0511C230.28 55.1521 230.171 55.2866 230.137 55.4296C230.104 55.5977 230.163 55.8248 230.465 55.9089C248.192 60.7022 264.716 70.3476 278.255 83.7941C292.215 97.6526 302.617 115.43 308.361 135.2C311.649 146.536 313.33 158.233 313.373 169.972C313.373 170.258 313.591 170.452 313.911 170.452C314.205 170.452 314.642 170.267 314.642 169.88C314.6 156.804 312.54 143.862 308.537 131.382C312.481 138.74 317.106 143.87 322.303 146.637L322.412 146.696L322.656 146.233L322.017 145.779C321.101 145.131 320.15 144.45 319.335 143.651C317.838 142.39 316.383 140.658 315.147 139.136C311.102 133.88 307.503 127.464 303.811 118.936L303.744 118.819L303.744 118.819C302.331 115.632 300.817 112.554 299.253 109.686C289.852 92.4809 276.279 77.958 260.007 67.6903L260.024 67.6735L259.839 67.4969C255.29 63.0568 251.026 59.0371 246.805 55.2025C242.087 50.9895 237.798 47.2221 232.997 43.8163C232.82 43.707 232.643 43.5893 232.467 43.4716C231.39 42.7652 230.28 42.0336 229.044 41.6131C226.622 40.7385 223.923 40.2424 221.291 39.7631L220.484 39.6117C213.277 38.3587 205.91 37.4757 198.981 36.6769C189.462 35.6425 180.985 34.8604 173.089 34.2718C170.103 34.0447 167.11 34.5661 164.318 35.1632C159.651 36.29 154.866 37.7448 149.728 39.6033C145.658 40.0574 140.822 40.646 135.886 41.529C117.781 44.6825 105.36 50.6615 96.8081 60.3406C92.5362 64.9993 88.8277 70.272 85.2285 75.3932L85.1697 75.4689C84.4801 76.4444 83.7906 77.4198 83.101 78.3953L82.9496 78.6056L83.4794 79.0428L83.6392 78.8158C84.3624 77.8235 85.0772 76.8312 85.8004 75.8221C92.183 66.9419 98.7843 57.7673 108.051 52.3097C119.37 45.6327 131.799 43.3286 143.614 41.9074C139.065 43.7154 134.776 45.5739 131.488 47.0203L131.253 47.1212L131.278 47.1801C124.138 49.6356 117.31 52.9488 110.978 57.0189C101.635 63.0231 93.4528 70.642 86.6581 79.6651C79.9391 88.579 74.6497 98.6281 70.9496 109.543C67.2243 120.517 65.2649 131.862 65.1304 143.273C65.1135 144.694 65.1304 146.141 65.1724 147.696C65.1724 147.839 65.2817 148.007 65.5424 148.007L65.5004 147.999Z" fill="#232a56" fill-rule="nonzero" opacity="1" stroke="none" vectornator:layerName="path"/>
<path d="M207.373 253.3C207.886 252.88 208.399 252.434 208.896 252.005L209.013 251.904C210.754 250.399 212.554 248.843 214.605 247.851C215.438 247.809 216.144 247.111 216.834 246.43C217.498 245.774 218.188 245.084 218.886 245.168L218.919 245.168C219.104 245.168 219.575 244.983 219.592 244.689C219.592 244.655 219.592 244.554 219.525 244.462C219.466 244.395 219.382 244.344 219.264 244.336C218.322 244.226 217.473 245.034 216.741 245.74C216.102 246.362 215.438 247.002 214.782 247.01C214.698 247.01 214.437 247.01 214.05 247.01L213.277 247.01C213.134 247.002 212.982 246.993 212.823 246.993L212.705 246.993C212.554 246.993 212.402 246.993 212.242 246.993L211.216 246.976C210.855 246.976 210.476 246.976 210.064 246.959C209.93 246.959 209.804 246.959 209.661 246.959L207.937 246.934C207.365 246.934 206.793 246.917 206.196 246.901L203.211 246.859C202.883 246.859 202.563 246.85 202.227 246.842C201.916 246.842 201.596 246.833 201.277 246.825C201.109 246.825 200.949 246.825 200.781 246.825L199.04 246.791C184.668 245.791 173.862 246.48 163.99 249.028C160.164 250.004 156.447 251.315 152.932 252.913C152.57 253.081 152.612 253.317 152.646 253.409C152.679 253.493 152.738 253.561 152.831 253.594C152.991 253.662 153.201 253.636 153.335 253.578C164.494 248.498 177.52 246.522 194.331 247.329C196.938 247.456 199.704 247.649 202.984 247.927C199.881 248.81 196.904 250.172 194.154 251.526C192.287 252.148 190.446 252.88 188.654 253.578C186.737 254.334 184.761 255.116 182.751 255.764C179.001 256.983 174.989 257.959 170.827 258.657C169.204 258.926 167.497 259.136 165.991 259.321L164.469 259.506C163.754 259.599 163.023 259.725 162.258 259.851C161.114 260.044 159.937 260.238 158.776 260.33L158.65 260.33C156.968 260.473 155.379 260.591 153.739 261.238C151.847 261.987 150.165 262.449 148.593 262.634C147.693 262.735 146.768 262.895 145.775 263.122C145.792 263.072 145.809 263.013 145.834 262.954L145.834 262.92L145.843 262.92C145.868 262.836 145.893 262.761 145.91 262.727C146.019 262.491 146.154 262.256 146.272 262.046C146.33 261.936 146.389 261.827 146.448 261.726C146.801 261.087 147.18 260.431 147.6 259.725C148.391 258.405 149.248 257.093 150.148 255.823C150.19 255.764 150.283 255.646 150.258 255.486C150.249 255.369 150.182 255.259 150.081 255.192C150.005 255.142 149.913 255.116 149.803 255.125C149.652 255.142 149.551 255.226 149.476 255.293C148.845 255.831 148.323 256.512 147.987 256.975C147.676 257.404 147.407 257.892 147.18 258.32L147.155 258.371C147.02 258.615 146.894 258.859 146.751 259.094L146.482 259.548C145.935 260.482 145.313 261.541 144.531 262.281L144.438 262.391C143.076 263.854 140.73 263.635 138.829 263.459C138.493 263.425 138.165 263.4 137.862 263.374L135.802 263.24L137.761 263.913C138.594 264.199 139.418 264.585 140.234 264.981C140.688 265.199 141.159 265.426 141.638 265.628C141.722 265.662 141.798 265.695 141.882 265.721L140.974 266.049L142.622 266.049L142.765 265.99C143.522 266.166 144.279 266.242 145.052 266.301C146.078 266.385 147.054 266.461 148.004 266.822L148.038 266.822C149.644 267.453 151.368 268.042 153.319 268.647C157.271 269.892 160.845 270.69 164.251 271.103C166 271.313 167.732 271.422 169.406 271.422C170.373 271.422 171.34 271.388 172.273 271.313C174.014 271.17 175.788 270.859 177.563 270.379L177.613 270.363C178.16 270.22 178.74 270.051 179.32 269.85L179.337 269.85C179.337 269.85 179.387 269.824 179.404 269.816L179.471 269.791C179.471 269.791 179.53 269.765 179.556 269.757L179.598 269.74C179.656 269.723 179.69 269.707 179.707 269.698C179.732 269.698 179.757 269.681 179.799 269.673C179.825 269.673 179.85 269.656 179.917 269.639C179.959 269.623 180.001 269.606 180.06 269.589L180.144 269.564C180.262 269.522 180.396 269.48 180.531 269.429C181.935 268.933 182.978 268.546 183.609 268.277C183.634 268.277 183.651 268.26 183.676 268.243C183.743 268.218 183.802 268.193 183.861 268.168L184.097 268.142L184.097 268.05C189.529 265.494 194.802 262.449 199.771 259.018C202.378 257.219 204.918 255.293 207.331 253.283L207.373 253.3ZM188.596 255.032L188.68 255.133C190.53 254.41 192.447 253.662 194.373 253.023L194.541 252.955C194.978 252.753 196.181 252.232 197.509 251.686L197.686 251.61C199.023 251.055 200.949 250.29 202.504 249.802L202.614 249.777L202.614 249.777C203.102 249.634 203.598 249.516 204.077 249.39L204.296 249.348C206.154 248.969 210.493 248.154 212.512 247.935C211.074 248.86 209.762 249.987 208.475 251.105C208.055 251.467 207.634 251.828 207.205 252.19C204.825 254.183 202.303 256.117 199.713 257.942C198.754 258.615 197.762 259.287 196.702 259.977L178.723 269.227C177.134 269.74 175.544 270.11 173.997 270.32C169.902 270.859 165.386 270.581 160.197 269.488C156.649 268.74 152.839 267.604 148.55 266.015L146.759 265.266L146.465 265.14C146.28 265.031 146.028 264.863 145.809 264.636C146.305 264.535 146.801 264.442 147.247 264.367L147.499 264.316C147.802 264.266 148.096 264.215 148.399 264.165C149.946 263.913 151.418 263.669 152.932 263.139C153.436 262.954 153.924 262.794 154.387 262.634C155.16 262.449 155.925 262.248 156.632 262.063L156.699 262.063C156.968 262.012 157.22 261.97 157.49 261.953C158.995 261.852 160.475 261.625 161.913 261.415L162.123 261.381C162.468 261.331 162.813 261.28 163.157 261.23C164.15 261.087 165.167 260.961 166.143 260.843L166.395 260.81C167.303 260.7 168.245 260.583 169.162 260.448C173.215 259.876 177.277 258.976 181.246 257.791C183.752 257.042 186.224 256.075 188.621 255.142L188.579 255.024L188.579 255.024L188.596 255.032Z" fill="#232a56" fill-rule="nonzero" opacity="1" stroke="none" vectornator:layerName="path"/>
<path d="M130.656 265.485L131.152 268.1L132.026 255.831L131.236 257.732C130.319 259.927 130.117 262.685 130.664 265.485L130.656 265.485Z" fill="#232a56" fill-rule="nonzero" opacity="1" stroke="none" vectornator:layerName="path"/>
<path d="M176.066 164.506L175.712 165.095L175.914 165.238C180.321 168.551 185.282 170.839 190.269 171.865C192.186 172.26 194.112 172.462 196.004 172.462C199.469 172.462 202.74 171.797 205.725 170.485L205.944 170.393L205.742 169.745L205.507 169.813C205.179 169.905 204.582 170.073 204.01 170.242L203.665 170.342C203.278 170.452 202.933 170.553 202.723 170.62C194.591 172.42 185.207 170.292 176.284 164.641L176.066 164.498L176.066 164.506Z" fill="#232a56" fill-rule="nonzero" opacity="1" stroke="none" vectornator:layerName="path"/>
<path d="M136.576 179.13L136.576 179.13L136.635 179.021C136.635 179.021 136.635 179.012 136.635 179.004L136.677 178.928L136.677 178.928C137.274 177.759 137.728 176.532 138.005 175.279L138.064 175.026L137.433 174.833L137.358 175.085C134.406 184.933 122.902 189.314 114.51 191.753L114.266 191.82L114.417 192.501L114.669 192.442C125.484 189.987 132.85 185.504 136.559 179.122L136.576 179.13Z" fill="#232a56" fill-rule="nonzero" opacity="1" stroke="none" vectornator:layerName="path"/>
<path d="M129.083 178.407C132.001 177.07 135.012 175.682 137.248 173.176L137.417 172.983L136.954 172.487L136.769 172.68C134.541 175.001 131.581 176.338 128.705 177.625L128.469 177.297L128.612 177.667C128.091 177.902 127.578 178.129 127.065 178.365C123.424 179.963 119.698 181.325 116.503 182.469L116.267 182.553L116.461 183.225L116.705 183.15C120.043 182.107 123.541 180.82 127.401 179.197C127.922 178.945 128.461 178.701 128.99 178.457L128.99 178.457L129.083 178.415L129.083 178.407Z" fill="#232a56" fill-rule="nonzero" opacity="1" stroke="none" vectornator:layerName="path"/>
<path d="M200.806 121.77L200.94 121.77C202.656 121.821 204.598 121.871 206.457 121.871L206.903 121.871C208.534 121.922 210.224 121.964 211.889 122.166L214.353 122.468L212.057 121.476C210.46 120.787 208.753 120.433 207.104 120.097L206.869 120.047L206.869 120.047L206.625 119.996L206.625 119.996C200.932 118.987 195.508 118.558 190.033 118.693C189.857 118.709 189.689 118.718 189.487 118.726C188.722 118.777 187.94 118.827 187.073 119.054C184.332 119.811 181.91 121.283 179.572 122.712L179.278 122.889C175.99 124.958 172.912 127.22 170.129 129.608L168.195 131.281L170.482 130.213C172.551 129.246 174.67 128.119 176.545 127.119C180.136 125.21 183.844 123.234 187.637 122.014C191.951 121.527 196.458 121.644 200.806 121.754L200.806 121.77Z" fill="#232a56" fill-rule="nonzero" opacity="1" stroke="none" vectornator:layerName="path"/>
<path d="M313.936 180.173C312.077 178.617 310.16 177.011 308.251 175.464C298.984 167.946 288.414 147.654 288.304 147.452L288.136 147.133L286.908 147.873L287.068 148.184C287.506 149.033 297.992 169.039 307.394 176.666C309.218 178.146 311.06 179.685 312.843 181.174L313.129 181.409C320.663 187.716 328.45 194.242 335.077 196.512L335.405 196.621L335.825 195.192L335.506 195.083C329.132 192.896 321.437 186.463 314.003 180.232L313.944 180.181L313.936 180.173Z" fill="#232a56" fill-rule="nonzero" opacity="1" stroke="none" vectornator:layerName="path"/>
<path d="M304.652 210.9C304.005 210.169 303.382 209.404 302.768 208.655L302.735 208.613C302.398 208.193 302.054 207.772 301.726 207.385C301.524 207.091 301.129 206.494 300.75 205.922L300.447 205.46C300.17 205.048 299.934 204.694 299.808 204.509C295.007 196.344 293.03 185.992 294.401 176.12L294.435 175.859L293.77 175.75L293.728 176.019C292.131 186.169 293.989 196.798 298.841 205.182C298.959 205.359 299.194 205.729 299.48 206.166L299.691 206.486C300.136 207.175 300.59 207.882 300.792 208.176C301.12 208.579 301.457 209 301.785 209.412L301.843 209.479C302.457 210.253 303.096 211.06 303.752 211.809C309.37 218.275 315.34 226.197 316.955 235.876C317.67 239.753 317.745 243.814 317.762 247.649C317.535 252.468 316.139 257.194 314.777 261.76L314.617 262.281C314.474 262.752 314.34 263.223 314.205 263.694C309.176 279.596 303.012 295.052 297.639 308.078C297.328 308.768 296.983 309.609 296.638 310.416L296.571 310.584C295.679 312.703 294.67 315.108 293.77 316.656L293.636 316.883L294.191 317.278L294.334 317.042C295.293 315.504 296.344 313.107 297.269 310.996L297.37 310.761C297.74 309.92 298.093 309.121 298.404 308.465C305.846 291.394 311.262 277.309 315.466 264.148C315.66 263.501 315.853 262.853 316.055 262.189C317.459 257.522 318.906 252.686 319.15 247.674C319.15 243.798 319.04 239.643 318.292 235.607C316.526 225.297 310.068 216.997 304.635 210.917L304.652 210.9Z" fill="#232a56" fill-rule="nonzero" opacity="1" stroke="none" vectornator:layerName="path"/>
<path d="M326.785 202.365C324.405 200.069 321.815 197.967 319.309 195.932C316.77 193.872 314.146 191.744 311.707 189.381L311.514 189.196L311.06 189.709L311.237 189.894C313.743 192.568 316.526 194.956 319.242 197.286C321.487 199.212 323.808 201.205 325.944 203.341C331.621 208.891 334.522 214.701 334.564 220.622C334.64 235.186 333.067 248.961 329.897 261.575L329.829 261.827L330.469 262.029L330.544 261.768C334.185 249.516 335.96 236.044 335.968 220.58C335.884 214.289 332.621 207.814 326.777 202.348L326.785 202.365Z" fill="#232a56" fill-rule="nonzero" opacity="1" stroke="none" vectornator:layerName="path"/>
<path d="M183.752 69.246L183.188 69.616L183.306 69.8431C191.665 85.4675 204.943 98.2749 220.669 105.902C221.964 106.583 223.612 107.222 225.193 107.836C226.025 108.164 226.774 108.459 227.438 108.736L227.682 108.837L227.926 108.181L227.699 108.072C223.225 106.011 218.869 103.934 214.799 101.235C202.378 93.347 191.69 82.3561 183.886 69.4647L183.743 69.2376L183.752 69.246Z" fill="#232a56" fill-rule="nonzero" opacity="1" stroke="none" vectornator:layerName="path"/>
<path d="M161.45 330.245C147.171 323.148 135.037 313.998 125.374 303.049C116.368 292.849 108.623 280.235 101.694 264.493C98.162 256.445 94.8488 247.691 91.2496 236.944C90.5096 234.446 89.7948 231.798 89.0716 228.863C88.2895 213.474 87.1375 197.118 85.4472 177.381C97.1193 168.156 107.807 158.284 117.217 148.024L117.335 148.024C117.419 148.007 117.503 148.007 117.596 147.991C117.991 147.94 118.395 147.89 118.798 147.839L118.857 147.839C121.464 147.52 124.155 147.2 126.333 145.552L128.065 144.24L126.039 144.921C124.046 145.586 121.893 145.527 119.791 145.468L119.555 145.468C125.417 138.892 130.849 132.063 135.709 125.168C136.761 123.688 138.047 121.653 139.183 119.862C139.78 118.92 140.528 117.742 141.159 116.784C147.962 105.322 155.101 93.0275 161.047 79.9258C172.921 91.1774 185.98 99.9231 199.872 105.919C210.661 110.864 221.964 116.414 231.18 124.949C249.067 141.347 255.988 160.63 263.312 181.056C265.54 186.741 268.694 194.099 273.294 200.675L273.454 200.902L273.782 200.641L274.051 200.473L273.849 200.254C269.333 193.712 266.255 186.387 264.077 180.736C262.976 177.869 261.908 174.917 260.882 172.058C259.452 168.089 257.972 163.977 256.349 160.007C250.858 146.275 242.44 133.821 231.996 123.99C223.923 116.414 214.345 111.259 205.204 106.81C203.539 105.995 201.781 105.196 200.234 104.481L199.998 104.372C198.577 103.716 197.114 103.043 195.685 102.362C183.718 96.5342 172.315 88.4444 161.787 78.3281C162.703 76.251 163.553 74.2495 164.318 72.3743C165.512 69.2712 166.748 66.0673 167.505 62.6784L167.732 61.6188L167.076 62.2159L166.975 62.199C166.639 62.1318 166.555 62.1149 166.395 62.2663L166.353 62.3252L166.319 62.4093C165.386 66.2607 163.78 70.0701 162.232 73.7534L162.081 74.1066C158.919 81.3386 155.118 88.9069 149.761 98.6281L149.745 98.6617C143.354 110.056 136.744 121.846 128.671 132.181C125.257 136.588 121.54 141.053 117.613 145.459L116.469 145.434C113.98 145.367 111.18 145.3 108.379 145.35C120.497 131.45 129.403 117.675 135.609 103.228C136.954 99.9231 138.115 96.6267 139.04 93.4311L139.14 93.0863L137.77 92.6407L137.677 92.9854C136.786 96.1305 135.676 99.3849 134.389 102.648C128.267 117.255 119.37 131.231 107.185 145.367C106.142 145.401 105.192 145.451 104.284 145.527C103.662 145.569 102.484 145.754 101.921 145.871C98.1368 146.796 94.9076 150.143 93.6883 154.407L93.0576 156.61L94.2938 154.71C96.909 150.682 100.374 148.453 104.049 148.453C104.166 148.453 104.292 148.453 104.427 148.453L104.452 148.453C101.046 152.263 97.4136 156.072 93.6715 159.764L93.4865 159.949L93.9322 160.478L94.1256 160.293C98.1116 156.442 101.98 152.448 105.613 148.436C106.42 148.419 107.219 148.411 108.009 148.403C110.414 148.369 112.769 148.335 115.14 148.184C106.151 157.989 96.1354 167.433 85.3631 176.254C85.0772 172.916 84.7829 169.586 84.4885 166.264C86.3218 161.933 88.197 157.367 90.2237 152.305C90.6189 151.27 91.0141 150.236 91.4094 149.21L91.6364 148.621C94.4619 141.263 97.3884 133.653 99.2132 125.773L99.5159 123.797L99.0114 123.688L98.5993 125.622C96.539 132.837 93.7472 139.918 91.0478 146.763L90.9469 147.015C90.3162 148.613 89.6939 150.202 89.0716 151.8C87.4486 155.954 85.4136 161.042 83.4542 165.97L83.2776 166.415C81.5789 170.67 79.6616 175.489 78.1059 179.45L78.0638 179.559L78.5263 179.786L78.5768 179.668C80.3343 175.859 82.1087 171.865 83.984 167.466C84.1437 170.393 84.3203 173.504 84.539 176.952C80.6959 180.072 76.6931 183.167 72.6483 186.152L72.438 186.303L72.808 186.892L73.0267 186.732C76.8193 184.033 80.7128 181.115 84.5979 178.062C85.0688 185.563 85.607 193.426 86.0947 200.38L86.0947 200.473C86.8936 211.893 87.7093 223.699 88.2811 234.674C88.567 240.4 89.2398 252.123 89.6014 257.9L89.6014 258.026L90.1228 258.001L90.1228 257.875C89.9798 250.584 89.7359 243.116 89.3743 235.069C89.593 235.868 89.8116 236.616 90.0218 237.331C94.4619 250.643 100.744 267.941 109.969 283.708C117.831 297.155 127.41 308.398 138.426 317.143C141.958 319.944 145.826 322.651 149.946 325.183C153.462 335.257 155.244 346.038 156.977 356.474C157.464 359.434 157.977 362.503 158.515 365.514C158.532 365.631 158.608 365.724 158.726 365.774C158.776 365.791 158.835 365.808 158.902 365.808C159.087 365.808 159.306 365.732 159.432 365.615C159.583 365.48 159.567 365.329 159.558 365.261C159.003 362.175 158.473 359.005 158.011 356.179C156.346 346.155 154.63 335.795 151.368 326.04C154.378 327.832 157.49 329.539 160.635 331.103C160.828 331.187 161.122 331.094 161.206 331.061C161.307 331.019 161.56 330.901 161.635 330.716C161.694 330.565 161.661 330.363 161.45 330.262L161.45 330.245Z" fill="#232a56" fill-rule="nonzero" opacity="1" stroke="none" vectornator:layerName="path"/>
<path d="M98.2798 137.857L98.1284 138.051L98.6077 138.53L98.7843 138.328C103.409 133.241 112.264 122.813 119.564 110.098C126.77 97.5517 130.428 86.3841 130.437 76.9153L130.437 76.5537L129.352 76.5537L129.335 76.8985C128.663 97.0892 112.382 120.08 98.2714 137.849L98.2798 137.857Z" fill="#232a56" fill-rule="nonzero" opacity="1" stroke="none" vectornator:layerName="path"/>
</g>
</svg>
