<?xml version="1.0" encoding="UTF-8"?>
<svg id="Livello_23" data-name="Livello 23" xmlns="http://www.w3.org/2000/svg" viewBox="0 0 595.28 841.89">
  <defs>
    <style>
      .cls-1 {
        fill: #354f9d;
      }
    </style>
  </defs>
  <path class="cls-1" d="m215.5,429.78s0,.02,0,.03c.01.17.02.33.06.5.02.09.09.14.19.15.12.22.29.4.48.55-.05.06-.07.12.04.15.1.03.21.05.32.08.23.12.48.22.77.26.03,0,.12,0,.22-.02,1.41.26,2.87.27,4.29.03.12-.02.47-.09.49-.25.03-.16-.26-.13-.35-.12-1.35.23-2.73.19-4.06-.09-.6-.67-.76-1.38-.63-2.07.51-1.01,1.1-1.98,1.77-2.88.39-.41.79-.78,1.13-1.1.82-.78,1.65-1.55,2.51-2.3,1.27-.85,2.55-1.7,3.82-2.55,4.3-1.87,9.19-1.91,13.58-.34.63.57,1.19,1.21,1.65,1.94,0,0,0,0,0,0,.02.66-.09,1.33-.39,1.98-.19.4.66.34.8.05.83-1.8.42-3.7-.64-5.23.04-.04.04-.09,0-.13-.05-.04-.11-.07-.16-.11-.45-.58-.98-1.11-1.59-1.53-2.5-1.73-5.78-1.4-8.54-.48-.86.25-1.69.58-2.49,1-2.82,1.3-5.47,3.06-7.87,4.97-1.53,1.21-3.53,2.74-4.61,4.59-.1.05-.18.12-.18.21,0,.03,0,.07,0,.1-.41.8-.65,1.67-.59,2.59,0,0,0,.02,0,.02Zm21.71-12.53c.09.02.17.04.25.06.1.06.19.13.28.19.01.03.04.06.05.09-.31-.12-.61-.24-.93-.32.12,0,.23-.02.35-.02Zm-.21,1.2c.58.09,1.16.19,1.73.32.04.03.09.04.13.07-.7-.17-1.4-.31-2.11-.4.08,0,.17,0,.25.01Zm-2.32-.98c.25.03.5.06.75.11-.21-.02-.42-.02-.63-.04-.11-.01-.22-.03-.33-.04.07,0,.14-.02.21-.03Zm-3.03.69c.72.04,1.44.08,2.15.12-2.3.05-4.56.49-6.69,1.3,0,0,0,0,0-.01.02-.01.05-.02.07-.04,1.18-.51,2.39-.93,3.62-1.27.28-.03.56-.07.85-.09,0,0,0,0,0,0Zm-.13-1.42s-.02.05-.03.08c-.25.07-.5.13-.75.2.26-.1.52-.19.78-.28Zm-2.98,1.27c.16-.04.31-.08.47-.13-.28.13-.54.28-.81.42-.4.15-.79.32-1.18.5.5-.28,1.01-.54,1.52-.79Zm-7.39,4.77c.11,0,.22,0,.31-.02-.78.6-1.56,1.19-2.33,1.79-.07.06-.09.1-.09.13l-.72.57c.88-.93,1.92-1.76,2.83-2.47Z"/>
  <path class="cls-1" d="m169.44,357.7c3.51-2.6,6.99-5.86,9.83-9.18.16.05.33.09.49.15.74.26,1.99-.81.97-1.16-16.27-5.57-34.67-1.85-47.36,9.8-3.27,3.01-6.07,6.44-8.4,10.22-.32.52.28.71.84.62,15.28,2.73,31.17-1.25,43.63-10.45Zm3.17-10.84c1.83.32,3.64.74,5.42,1.26-.95,1.11-2.58,2.82-3.61,3.84-1.38,1.36-3.14,2.96-4.64,4.16.04-.13.06-.25.08-.37.81-1.95.33-4.13-.76-5.97-.87-1.47-2.12-2.81-3.65-3.36-.13-.07-.26-.15-.4-.21,2.35.01,5.22.28,7.55.66Zm-22.43,3.06s-.09.06-.14.08c0,0-.01-.01-.02-.01.06-.02.11-.05.16-.07Zm-5.42,17.1c.07.06.14.11.21.16-.09-.05-.2-.09-.3-.15.04,0,.07,0,.09-.01Zm-1.69-1.09c.08.06.15.12.22.16.05.04.09.07.14.11.02.02.04.06.06.09-.35-.25-.68-.52-1.01-.8.19.15.39.29.59.43Zm-3.43-4.55s.01.04.01.05c-.01-.02-.01-.04-.02-.05h.01Zm-8.3,0c2.41-2.72,5.13-5.13,8.11-7.2-.26.55-.41,1.14-.49,1.74-.39,1.91-.23,3.97.4,5.75.75,2.1,2.41,3.9,4.32,5.13.07.06.15.11.26.15.23.14.47.28.71.41-3.32.55-6.71.78-10.1.7-2.38-.08-5.28-.35-7.66-.77,1.23-1.95,2.94-4.17,4.45-5.91Z"/>
  <path class="cls-1" d="m304.66,320.08c-.19-.05-.35-.12-.51-.18-.02-.06-.05-.12-.08-.16.02-.09-.01-.19-.16-.26-15.84-7.41-35.19-4.8-49.08,5.6-3.65,2.73-6.88,5.96-9.63,9.59-.47.61,1.24.5,1.58.05,1.86-2.45,4.38-5.06,6.65-7.05,3.48-3,7.37-5.44,11.53-7.29-1.03,6.33,2.2,12.96,7.83,16.05.01.01.02.01.04.01-4,.87-8.1,1.32-12.22,1.32-.66,0-1.32-.04-1.98-.06-3.51-.18-7.7-.69-11.12-1.5-.37-.08-1.83.53-1.4.62,15.86,3.77,33.17.59,46.94-8.08,1.65-1.04,3.21-2.18,4.75-3.36.78-.59,1.64-1.06,2.48-1.57.86-.53,1.72-1.07,2.57-1.62.2-.13.39-.25.58-.38.17-.11.33-.27.53-.34.01,0,.04-.03.05-.03.07-.04.23-.2.31-.2.28-.01.61-.18.53-.37.12-.13-.01-.25-.19-.28,0-.04.01-.06.01-.09.16-.11.29-.34.01-.4Zm-11.32,7.57s.06-.05.09-.08c.02,0,.04,0,.06-.01-.05.04-.11.07-.15.09Zm8.13-6.68c-.33.34-.68.66-1.05.96-.88.73-1.83,1.37-2.72,2.08-.34.27-.67.54-1.01.81-.17.14-.33.27-.5.41-.08.06-.16.13-.24.19-.05.04-.21.13-.24.19.61-1.45.71-3.07.26-4.61-.44-1.47-1.33-2.75-2.48-3.75,2.98.66,5.92,1.62,8.77,2.93-.11-.05-.69.69-.79.79Z"/>
  <path class="cls-1" d="m304.04,331.46c-11.96,7.93-26.04,12.3-40.39,12.56-.11,0-.37.17-.14.16,14.49-.26,28.71-4.69,40.79-12.69.15-.1-.19-.08-.27-.03Z"/>
  <path class="cls-1" d="m183.8,393.5c1.4-7.37,2.41-14.82,3.03-22.3.6-7.18,1.23-14.66.45-21.85-.71-6.51-3.58-13.33-9.94-16.09-.27-.12-1.04.27-.67.42,6.09,2.64,8.93,9.11,9.7,15.36.91,7.38.21,15.15-.41,22.53-1.24,14.7-4.23,28.97-8.14,43.16-1.44,5.23-2.84,12.17,1.75,16.28.23.21,1.03-.12.79-.34-4.42-3.95-3.16-10.57-1.8-15.64,1.92-7.15,3.85-14.26,5.24-21.54Z"/>
  <path class="cls-1" d="m322.48,471.31c-.44.36.24.61.55.36,3.57-2.93,4.1-7.8,2.72-12-1.68-5.12-6.09-8.42-10.69-10.84-5.42-2.84-11.1-5.08-16.38-8.2-5.29-3.12-10.29-6.72-14.93-10.73-5.36-4.63-10.21-9.82-14.51-15.46-.22-.29-1.03.03-.78.36,7.02,9.21,15.57,17.22,25.25,23.6,4.8,3.16,9.85,5.85,15.08,8.22,5.08,2.31,10.77,4.71,14.15,9.39,3.15,4.36,4.13,11.54-.46,15.3Z"/>
  <path class="cls-1" d="m264.53,409.13c-4.22-4.23-8.44-8.45-12.66-12.68-1.45-1.66-3.02-3.2-4.61-4.61-.18-.16-.98.12-.79.31,1.6,1.6,3.2,3.21,4.8,4.81,3.57,4.11,6.29,8.89,6.5,14.49.14,3.75-.96,7.63-3.65,10.34-2.88,2.9-7.22,4.19-11.08,2.63-.22-.09-.99.25-.69.37,7.13,2.89,14.66-2.77,15.99-9.82.97-5.15-.52-9.87-3.14-14.05l8.52,8.54c.18.18.97-.13.79-.31Z"/>
  <path class="cls-1" d="m229.11,321.26c-3.31,5.41-3.29,12.45.05,17.83.16.26.98-.02.79-.34-3.26-5.26-3.27-12.19-.04-17.46.22-.35-.64-.29-.79-.04Z"/>
  <path class="cls-1" d="m309.97,556.57c-22.49,16.2-50.71,23.85-78.31,21.72-7.85-.61-15.61-2.02-23.17-4.21-.29-.09-1,.35-.51.49,26.89,7.79,56.39,5.49,81.93-5.89,7.25-3.23,14.15-7.19,20.59-11.83.47-.34-.25-.49-.54-.29Z"/>
  <path class="cls-1" d="m179.73,509.33c-2.86,7.54-3.32,15.8-1.31,23.61.04.14.38.05.34-.09-2-7.77-1.55-15.99,1.29-23.49.07-.17-.27-.15-.32-.03Z"/>
  <path class="cls-1" d="m318.25,475.63c5.85,7.18,10.1,15.54,12.45,24.5.02.08.36,0,.34-.09-2.35-8.97-6.61-17.34-12.47-24.53-.06-.07-.38.05-.32.12Z"/>
  <path class="cls-1" d="m173.85,473.58c3.52-9.78,5.75-19.96,6.64-30.32.04-.44-.83-.32-.86.07-.88,10.3-3.09,20.43-6.59,30.15-.16.46.68.45.81.1Z"/>
  <path class="cls-1" d="m189.81,429.35c.79-.24,1.8.12,2.56.38,1.28.44,2.47,1.08,3.61,1.81,4.1,2.61,7.62,6.37,12.58,7.25.39.07.87-.47.31-.57-5.34-.95-9-5.46-13.59-7.95-1.75-.95-4.66-2.4-6.52-1.01-.76.57-1.02,1.45-.6,2.31.34.7.99,1.12,1.52,1.65.27.27.57.59.7.95.11.34.16,1.23-.37,1.32-.44.08-.67.67-.09.56.74-.13,1.29-.58,1.39-1.37.15-1.24-1.06-1.93-1.79-2.7-.78-.83-1.12-2.21.29-2.64Z"/>
  <path class="cls-1" d="m284.86,310.35c-7.88-.49-15.8.98-23.02,4.1.09-.18-.06-.37-.41-.26-1.9.56-3.75,1.27-5.54,2.11-.1-.02-.21,0-.32.03-3.04,1.1-5.63,2.93-7.98,5.06-1.88,1.42-3.53,3.11-4.94,5.01-.01.01-.03.02-.04.04-.08.11-.15.22-.23.33-.12.14-.25.28-.37.43-.04.04-.08.08-.11.13,0,0,0,0,0,0-.02.02-.04.04-.06.07-.06.07-.05.13-.02.17v.02s-.04.06-.04.08c-.24.37-.48.73-.7,1.12,0,0,0,.01,0,.02-.18.27-.38.53-.56.81-.08.13-.03.2.08.23l-.24.41c-.09.16.01.23.18.25-.03.04-.07.08-.1.12-.33.39.48.42.69.18l.06-.07c-.06.08-.13.16-.19.24-.04.06.69.04.83-.16,3.44-4.66,7.68-8.68,12.48-11.88.05-.03.09-.05.12-.08,4.14-2.76,8.69-4.91,13.48-6.32,10.52-3.11,21.93-2.35,32.08,1.74,5.55,2.24,10.67,5.45,15.09,9.48.16.14.91-.18.8-.28-8.49-7.74-19.56-12.38-31.02-13.1Zm-39.8,15.77c.41-.48.81-.96,1.22-1.44.05-.05.07-.1.07-.14.12-.11.23-.22.35-.33.99-.88,1.98-1.76,2.98-2.65.68-.47,1.36-.94,2.04-1.41.2-.11.4-.24.61-.35.01,0,.02-.01.03-.02-2.63,1.87-5.07,4-7.29,6.33Zm9.26-7.67s-.07.05-.11.07c-.1-.02-.21-.02-.32.03-.29.11-.57.25-.85.37-.02,0-.04,0-.06-.01.7-.43,1.41-.83,2.13-1.21.86-.42,1.71-.84,2.57-1.26.31-.15.27-.32.11-.4.97-.4,1.95-.77,2.95-1.09-2.21,1.02-4.36,2.18-6.41,3.5Z"/>
  <path class="cls-1" d="m125.65,358.34c6.5-7.41,15.78-12.31,25.7-13.13.4-.04.71-.48.13-.43-.94.08-1.86.2-2.79.35-.01-.14-.12-.26-.36-.23-2.68.22-5.29.74-7.83,1.52-.95.22-1.86.54-2.75.94-2.25.71-4.38,1.71-6.37,2.97-.08.01-.16.04-.21.07-3.45,2.21-6.24,5.28-8.15,8.87l-.04.07s-.04.04-.05.07c-.08.15-.15.32-.23.48-.33.67-.67,1.33-1,2-.08.12-.17.25-.24.38-.13.23-.25.47-.36.71.01.02.01.03.02.04-.03.05-.06.09-.09.14-.04.08-.1.15-.13.23-.07.14-.14.28-.2.41-.13.26-.26.53-.39.79-.23.48-.47.96-.69,1.45,0,0-.47.94-.47.95l-.04.07c-.05.09.06.13.21.13l.04-.05s.06-.06.09-.12c.91-1.09,1.81-2.2,2.66-3.34.58-.77,1.06-1.58,1.56-2.41.51-.85,1.06-1.67,1.63-2.48.11-.15.22-.31.33-.46Zm17.12-11.9c.34-.08.69-.15,1.04-.22-.39.12-.77.26-1.16.39.06-.06.11-.11.12-.16Zm-7.11,3.22c-.15.08-.32.16-.47.26-.01-.01-.01-.04-.02-.05l.49-.21Zm-14.49,13.3l.33-.65c-.1.21-.21.42-.31.63,0,0,0,.01-.01.02Z"/>
  <path class="cls-1" d="m402.71,598.6c-.2.14-.4.27-.6.42.33-.08.67-.27.6-.42Z"/>
  <path class="cls-1" d="m418.59,435.62c.01-.14-.09-.21-.25-.23-5.15-10.93-6.91-23.59-7.25-35.54-.18-6-.06-12.02.01-18.04.37.47.74.94,1.11,1.39.21.26,1.03-.06.78-.35-9-10.7-16.12-22.91-22.17-35.48-6.4-13.32-11.62-27.19-16-41.3-2.4-7.75-4.52-15.57-6.38-23.46-3.55-6.47-7.97-12.38-13.25-17.55-4.81-4.71-10.21-8.73-15.74-12.51-11.62-7.95-23.54-15.36-33.08-25.89-6.92-7.64-12.37-16.43-16.68-25.79-.12-.27-.95,0-.84.23,3.79,8.24,8.47,16.07,14.28,23.05,4.81,5.78,10.34,10.87,16.29,15.44,10.68,8.16,22.65,14.56,32.65,23.6,6.25,5.65,11.47,12.26,15.52,19.64,6.67,28.26,16.41,56.54,31.37,81.54,3.42,5.7,7.16,11.21,11.32,16.41,0,0-.01,0-.01.01-.21,18.38-.8,37.82,7.21,54.82-.05.05-.08.09-.08.15-1.69,16.15-7.09,31.9-13.93,46.54-.32.69-.64,1.37-.98,2.06-.47.99-.96,2-1.46,2.98-3.16,6.31-6.66,12.47-10.51,18.39-.35.04-.8.2-.8.43,0,.25.01.5.01.75-4.18,6.31-8.74,12.35-13.78,17.96-5.47,6.07-11.55,11.73-18.51,16.05-.68.42.35.56.73.33,12.9-7.99,23.06-20.19,31.49-32.62.02-.02,1.23-1.87,1.25-1.91,3.71-5.61,7.14-11.44,10.23-17.42,2.42,37.34,8.12,82.8,9.94,96.72-4.26,2.95-8.45,6-12.54,9.19-4.6,3.58-9.09,7.3-13.46,11.18,8.42-6.85,17.32-13.2,26.13-19.28.05-.04.09-.07.14-.09l-.09-1.12-8.59-99.56c3.93-7.9,7.32-16.07,10.05-24.43,2.61-7.97,4.64-16.18,5.65-24.5.13.26.25.54.39.8,2,3.75,4.45,7.22,7.36,10.31-3.3-3.77-5.42-8.17-7.57-12.65.01-.08.02-.16.03-.25Z"/>
  <path class="cls-1" d="m102.86,507.49c.18.37.21.43,0,0h0Z"/>
  <path class="cls-1" d="m110.02,539.05c-5.13-3.78-10.66-7.24-15.27-11.68-10.81-10.39-16.29-25.63-18.18-40.21-1.13-8.72-1.02-17.57.17-26.27,1.16-8.47,3.31-16.75,5.29-25.05.43-1.81.85-3.63,1.27-5.44.3.43.6.86.88,1.3,3.29,4.98,5.6,10.33,6.77,16.19,1.06,5.33,1.28,10.79,1.47,16.21.23,6.65.47,13.3,1.54,19.88,1.35,8.31,5.18,15.97,8.9,23.51-3.32-6.73-5.81-13.82-7.24-21.19-1.17-6.03-1.62-12.16-1.86-18.29-.41-10.69-.41-21.62-5.31-31.42-3.27-6.54-8.06-12.31-12.61-17.99-4.65-5.81-9.43-11.56-13.29-17.94-8.04-13.26-10.11-28.65-7.4-43.81,3.07-17.13,11.84-32.46,22.19-46.21.33-.44-.86-.37-1.11-.05-9.19,12.22-17.2,25.68-21.01,40.61-3.66,14.34-3.5,29.95,2.81,43.54,5.98,12.88,16.33,22.9,24.43,34.4-1.93,8.61-4.27,17.13-5.89,25.8-1.6,8.55-2.31,17.24-1.79,25.94.95,15.93,5.81,32.2,16.48,44.38,4.31,4.93,9.84,8.53,15.11,12.35,7.79,5.64,15.25,11.68,22.17,18.38,11.01,10.67,20.7,22.65,29.5,35.18,1.41,2.01,2.8,4.04,4.18,6.09-8.97-13.35-17.71-26.64-28.98-38.15-7.17-7.32-14.94-13.99-23.19-20.07Z"/>
  <path class="cls-1" d="m162.19,597.27c.2.3.25.37,0,0h0Z"/>
  <path class="cls-1" d="m157.53,552c-15.92-16.75-28.09-36.59-37.95-57.4-6.31-13.36-11.73-27.11-16.73-40.99-1.28-4-2.43-8.04-3.5-12.11-1.7-31.13-4.39-62.4-7.36-93.11,3.15-6.91,6.21-13.85,9.22-20.83,5.28-12.91,10.97-25.78,14.35-39.34l.46-2.76s-.63,2.72-.63,2.72c-4.1,13.32-9.89,26.07-15.25,38.93-5.06,12.02-12.38,28.86-17.54,41.07,3.23-6.5,6.33-13.06,9.34-19.65,1.84,32.7,5.15,69.01,6.97,101.56.47,8.62,1.53,25.89,2.12,34.51-.26-12.42-.74-24.92-1.38-37.45.64,2.27,1.3,4.53,2.02,6.78,8.54,23.8,18.35,47.38,31.87,68.84,12.06,19.14,27.19,36.13,45.42,49.57,5.93,4.38,12.13,8.35,18.52,11.99,7.28,19.34,9.88,39.98,13.79,60.15.04.21.89.01.84-.23-3.85-19.85-6.43-40.17-13.46-59.25,5.14,2.88,10.39,5.56,15.76,8.04.3.13,1.39-.33.96-.53-21.55-9.95-41.45-23.25-57.84-40.5Z"/>
  <path class="cls-1" d="m126.28,371.62c1.12.98,2.24,1.96,3.37,2.94.08.07.39-.06.32-.12-1.12-.98-2.24-1.96-3.37-2.94-.08-.07-.39.06-.32.12Z"/>
  <path class="cls-1" d="m316.92,324.32c-.59-.15-1.15.3-1.02.34,5.17,1.39,11.31,1.77,16.6.89-5.21.87-10.45.05-15.58-1.23Z"/>
  <path class="cls-1" d="m332.49,325.55c.24-.04.15-.03,0,0h0Z"/>
  <path class="cls-1" d="m114.91,375.29c-.21.05-.21.05,0,0h0Z"/>
  <path class="cls-1" d="m123.7,370.34c-2.46,2.35-5.47,4.19-8.79,4.95,3.4-.77,6.55-2.46,9.07-4.87.15-.14-.18-.17-.28-.08Z"/>
  <path class="cls-1" d="m262.95,515.88c-1.76.29-3.53.6-5.29.92-3.46.63-6.92,1.31-10.36,2.03-7.09,1.5-14.14,3.2-21.13,5.1-.07.02-.09.05-.14.08-.06.02-.11.04-.14.07-.04.04-.09.07-.13.11-.13.11-.09.3.09.33,1.16.2,2.68-.57,3.8-.87,1.93-.51,3.87-1,5.81-1.48,3.79-.93,7.6-1.8,11.41-2.61,3.87-.82,7.76-1.58,11.66-2.28,1.97-.35,3.94-.69,5.91-1.01.65-.11,2.21.01,2.6-.69.07-.12,0-.25-.14-.27-1.19-.19-2.77.36-3.95.56Z"/>
  <path class="cls-1" d="m326.01,184.07c28.5,7.16,55.04,21.61,76.64,41.53,22.5,20.75,39.15,47.36,48.27,76.57,5.23,16.74,7.98,34.24,8.04,51.78,0,.53,1.19.29,1.19-.13-.08-21.32-4.11-42.54-11.69-62.43,5.69,11.34,13.72,22.17,24.55,27.53-1.76-1.18-3.62-2.33-5.19-3.76-2.42-1.9-4.73-4.46-6.76-6.77-7.51-9.06-13.23-19.45-18.18-30.1.02.06.04.11.06.17-2.24-4.73-4.68-9.37-7.34-13.89-15.21-25.85-37.16-47.42-63.06-62.51-14.3-8.33-29.75-14.65-45.8-18.69-.41-.1-1.4.51-.72.68Z"/>
  <path class="cls-1" d="m62.71,320.63c-.52-16.85,1.89-33.73,6.95-49.81,5-15.86,12.54-30.92,22.3-44.39,9.96-13.73,22.25-25.7,36.28-35.23,14.23-9.66,30.12-16.84,46.73-21.25,16.54-4.39,33.82-6.02,50.88-4.61,2.12.17,4.23.4,6.34.66.19.02.97-.3.55-.36-17-2.13-34.33-1.26-51.07,2.4-16.43,3.59-32.28,9.81-46.72,18.44-14.78,8.82-27.95,20.19-38.8,33.55-10.74,13.23-19.22,28.28-25.06,44.28-5.84,15.99-9.07,32.96-9.29,49.99-.03,2.19,0,4.37.06,6.56,0,.15.86.02.85-.23Z"/>
  <path class="cls-1" d="m288.75,477.48c3.78-2.89,7.35-6.24,11.74-8.18,2.51-.05,4.49-4.26,7-3.99.25.02,1-.39.53-.43-2.58-.28-4.59,3.94-7.13,3.99-.14,0-.55,0-1.17-.01h-1.24c-.49-.02-1.04-.02-1.65-.04l-1.64-.02c-.59,0-1.19-.01-1.84-.02-.22,0-.43,0-.66-.01-.88-.01-1.8-.02-2.75-.04-.91-.01-1.84-.02-2.79-.05l-2.17-.02c-.87-.01-1.74-.02-2.61-.04-1.03-.01-2.06-.04-3.08-.05-.27,0-.54,0-.81-.01l-1.1-.02-1.7-.02c-18.73-1.21-37.61-1.08-55.94,3.31-6.02,1.43-11.92,3.34-17.62,5.75-.55.23-.04.39.32.25,20.73-8.76,43.53-10.31,65.77-9.32,5.33.23,10.65.62,15.95,1.07l-.49.25c-5.4,1.24-10.52,3.39-15.63,5.72-6.15,1.91-12.08,4.45-18.25,6.31-6.25,1.9-12.68,3.31-19.14,4.32-3.37.53-6.78.87-10.17,1.26-3.04.37-6.07,1.02-9.13,1.23-2.77.2-5.31.36-7.95,1.32-2.69.99-5.47,1.78-8.33,2.1-1.79.19-3.56.5-5.31.9.18-.05.5-1.12.61-1.33.26-.53.59-1.02.88-1.52.6-1.01,1.22-2,1.85-2.98,1.29-2,2.66-3.94,4.1-5.83.05-.06.11-.13.09-.21-.01-.12-.14-.19-.26-.18-.12.01-.21.08-.3.16-.87.69-1.63,1.56-2.32,2.43-.76.96-1.3,2.1-1.97,3.13-1.03,1.6-2.13,3.5-3.58,4.78-.03.05-.07.08-.11.13-.02.02-.05.04-.07.06-2.71,2.71-7.46,1.8-10.85,1.58,2.14.68,4.14,1.72,6.23,2.56,3.36,1.34,6.88.6,10.16,1.77.02,0,.04.01.04.01h0c2.78.99,5.61,1.88,8.44,2.7,5.7,1.66,11.52,2.97,17.42,3.64,4.24.48,8.51.62,12.76.32,2.83-.21,5.63-.68,8.37-1.37h.03s.01-.02.06-.04c.9-.21,1.81-.47,2.7-.75l.06-.02s.02,0,.05-.01h.03c.07-.04.15-.06.25-.09.07-.02.16-.05.25-.08.09-.02.19-.06.29-.08.12-.05.25-.08.39-.13.19-.06.4-.13.61-.2,1.53-.5,3.63-1.21,4.93-1.71.04-.01.07-.04.11-.05.14-.05.26-.11.37-.15.01,0,.02,0,.02-.01.02,0,.03-.01.04-.03.01,0,.03,0,.03,0,8.74-3.82,17.16-8.31,25.19-13.47,4.14-2.66,8.17-5.49,12.07-8.5Zm-37.98,22.22l-2.91,1.02c.9-.34,1.79-.71,2.68-1.1.06.05.14.08.25.08h-.01Zm21.3-11.6l-7.57,3.63-3.25,1.55-17.93,8.57c-2.48.75-5.03,1.31-7.63,1.64-7.4.9-14.94.19-22.22-1.24-6.36-1.25-12.57-3.08-18.7-5.18l-3-1.16.03.12s-.02,0-.03-.01v-.11c-.13-.05-.25-.09-.37-.15-.6-.32-1.22-.77-1.6-1.37,1.14-.23,2.28-.42,3.38-.61,2.93-.47,5.76-.81,8.61-1.73.81-.27,1.59-.52,2.38-.76,1.21-.27,2.42-.56,3.63-.85.47-.07.92-.14,1.42-.16,3.06-.2,6.02-.67,9.05-1.07,3.21-.43,6.41-.74,9.61-1.16,6.5-.85,12.96-2.18,19.27-3.93,7.12-1.98,13.89-4.9,20.94-7.09,0,0,.01,0,.04-.01l.09-.04.12-.05c.63-.27,2.49-1.03,4.76-1.9.09-.04.18-.07.27-.11h.01c2.49-.96,5.43-2.02,7.8-2.72.01,0,.04,0,.05-.01.84-.21,1.69-.41,2.53-.61l.14-.02.15-.02c1.98-.37,13.55-2.46,14.88-2.15-3.62,1.86-6.67,4.59-9.88,7.08-3.87,3.02-7.89,5.88-12.02,8.57-1.62,1.05-3.24,2.07-4.89,3.07h-.04Z"/>
  <path class="cls-1" d="m185.67,496.23l-.32.11h.09c.11-.05.18-.08.22-.11Z"/>
  <path class="cls-1" d="m166.81,495.8c0,.05.02.09.02.09l.86-11.29c-1.56,3.48-1.66,7.51-.88,11.2Z"/>
  <polygon class="cls-1" points="167.69 484.6 167.69 484.6 167.69 484.6 167.69 484.6"/>
  <path class="cls-1" d="m286.16,354.25c-1.01.26-3.49.95-4.48,1.2-14.71,3.01-29.97-1.46-42.68-8.95,13.39,9.35,31.56,14.08,47.16,7.74Z"/>
  <path class="cls-1" d="m175.38,367.16c.96-1.71,1.69-3.53,2.16-5.43-4.76,14.75-23.24,21.43-36.92,25.12,12.76-2.69,27.6-8.1,34.77-19.69Z"/>
  <path class="cls-1" d="m143.81,373.03c5.77-1.67,11.44-3.66,17.04-5.84,5.41-2.41,11.39-4.45,15.58-8.82-4.33,4.19-10.24,6.22-15.69,8.55-5.56,2.26-11.24,4.21-16.93,6.11Z"/>
  <path class="cls-1" d="m145.35,320.79c4.61-.58,9.8-.76,13.73-3.53-4.44,1.38-9.22.72-13.82.79-7.01-.16-14.07-.39-21.12.11-.93.06-2.77.32-3.69.5-6.11,1.38-10.97,6.48-12.77,12.32,4.01-5.75,9.73-9.76,16.65-9.51,7-.16,14-.04,21.03-.68Z"/>
  <path class="cls-1" d="m287.55,281.98c2.92.07,5.83.11,8.75.44-2.75-1.1-5.69-1.61-8.58-2.16-8.75-1.45-17.5-2.14-26.42-1.93-1.51.11-2.99.13-4.64.53-4.5,1.15-8.39,3.41-12.33,5.64-5.09,2.97-9.96,6.26-14.57,9.94,9.24-4.01,18.01-9.38,27.61-12.23,9.91-1.05,20.18-.25,30.18-.23Z"/>
  <path class="cls-1" d="m450.05,362.56c-14.97-11.27-31.88-41.49-32.05-41.79l-1.02.57c.17.31,17.2,30.73,32.37,42.16,3.05,2.29,6.16,4.71,9.17,7.06,12.01,9.34,24.44,19.01,34.94,22.35l.35-1.12c-10.3-3.28-22.64-12.87-34.57-22.15-3.01-2.34-6.13-4.77-9.18-7.07Z"/>
  <path class="cls-1" d="m444.23,415.15c-1.66-1.72-3.14-3.52-4.72-5.28-.65-.87-2.48-3.49-3.09-4.31-7.91-12.5-10.91-27.94-8.73-42.54-2.48,14.65.21,30.28,8.09,42.95.55.76,2.55,3.69,3.09,4.4,1.57,1.79,3.09,3.67,4.71,5.39,9.61,10.27,18.71,21.88,21.26,36.02,1.13,5.73,1.27,11.76,1.3,17.62-.41,8.24-3.26,16.17-5.71,23.99-7.64,22.45-16.9,44.34-26.52,66.01-1.73,3.61-4.13,9.48-6.22,12.79,2.15-3.22,4.72-9.24,6.48-12.67,10.08-21.5,19.55-43.32,27.27-65.79,2.52-7.92,5.43-15.94,5.86-24.33,0-5.93-.2-11.99-1.37-17.83-2.64-14.29-11.9-26.22-21.71-36.42Z"/>
  <path class="cls-1" d="m494.21,429.21c-.15-10.67-6.76-19.95-14.52-26.7-7.7-6.89-16.46-12.38-24.13-19.3,7.33,7.27,16.02,12.99,23.52,19.97,7.46,6.77,13.89,15.65,13.96,26.07.11,20.51-2.11,41.15-7.48,61,6.3-19.68,8.64-40.41,8.65-61.04Z"/>
  <path class="cls-1" d="m234,153.85c13.8,1,27.59,2.29,41.36,3.72,12.61,1.3,25.24,2.69,37.74,4.78,3.24.62,6.92,1.24,10.03,2.29,2.18.66,4.11,1.92,6.07,3.06,15.35,10.18,29.33,22.41,43.33,34.36-6.84-6.2-13.77-12.3-20.84-18.25-7.11-5.9-14.27-11.76-22.01-16.87-2-1.2-3.99-2.52-6.22-3.23-4.26-1.43-9.18-2.19-13.61-2.95-11.41-1.84-22.89-3.14-34.37-4.37-13.79-1.38-27.59-2.62-41.41-3.56-4.68-.33-9.34.41-13.87,1.3-18.09,4.06-35.42,10.66-52.5,17.64,8.6-3.37,17.29-6.49,26.05-9.37,13.07-3.97,26.44-8.98,40.25-8.56Z"/>
  <path class="cls-1" d="m327.87,262.81c-7.65-.97-15.29-2.03-22.71-4.12-22.26-5.81-43.34-16.85-60.72-31.95,19.41,18.83,45.19,31.08,71.9,34.99,3.37.59,8.06.74,11.53,1.08Z"/>
</svg>