<?xml version="1.0" encoding="UTF-8"?>
<svg id="uuid-15c3935c-f247-4480-b6d9-b576f2245759" data-name="Livello 7" xmlns="http://www.w3.org/2000/svg" viewBox="0 0 400 400">
  <defs>
    <style>
      .uuid-f678da03-10b2-47a5-8ddc-8608fd10eedc {
        fill: #232a56;
      }
    </style>
  </defs>
  <path class="uuid-f678da03-10b2-47a5-8ddc-8608fd10eedc" d="m204.31,137.35l.02.13.07.02.06.1.21-.05c15.32-1.71,43.25-2.31,58.15,12.8l.28.29.29-.28c.13-.12.21-.2.21-.41l-.04-.17-.08-.08c-15.21-15.36-43.44-14.71-58.92-12.96l-.31.03.02.19-.16.02.2.35Z"/>
  <path class="uuid-f678da03-10b2-47a5-8ddc-8608fd10eedc" d="m207,123.05l.37.07.25-.9-.43-.09c-5.95-1.17-15.07,4.95-19.96,8.24l-.12.08h-.49l.6.9.46-.31c4.8-3.19,13.74-9.13,19.32-8Z"/>
  <path class="uuid-f678da03-10b2-47a5-8ddc-8608fd10eedc" d="m283.14,313.46c-1.3-.19-2.59-.04-3.72.43-.53.22-1.28.61-2.01.99l-.11.05c-.51.26-1.04.54-1.42.71h0c-.49.16-.87.3-1.21.44-1.69.67-3.26,1.54-4.67,2.6l-.23.17.42.65.25-.14c1.55-.89,3.12-1.6,4.66-2.12,2.92-1.06,6.88-1.22,8.99-1.22h.08c3.18-.07,6.17.72,8.64,2.29l.25.16.46-.63-.23-.18c-1.36-1.08-2.96-1.88-4.73-2.37-2.19-1-4.06-1.63-5.42-1.82Z"/>
  <path class="uuid-f678da03-10b2-47a5-8ddc-8608fd10eedc" d="m143.7,284.89l-.03-.16c-.47-2.58-.92-5.02-1.43-7.45-1.17-5.53-2.49-9.94-4.16-13.88.02-.04.02-.07.03-.08,1.86-7.17.85-14.97-2.78-21.4-.08-.16-.25-.25-.46-.26-.24,0-.66.13-.82.39l-.1.21.11.19c3.4,6.04,4.44,13.39,2.85,20.15-.1.08-.18.17-.21.28-2.48,7-11.48,6.82-14.18,6.59-3.32-.27-6.02-1.06-8.24-2.43-2.06-1.26-3.9-3.09-5.47-5.43-.05-.07-.11-.12-.15-.14-.12-.12-.24-.23-.34-.33-.04-.07-.1-.12-.18-.16-4.66-4.38-8.83-9.41-12.41-14.96-1.23-1.9-2.52-3.96-3.57-6.14-1.52-3.1-2.61-6.45-3.66-9.69l-.35-1.09c-.54-1.66-1.08-3.35-1.6-5l-.06-.2c-.72-2.26-1.53-4.82-2.36-7.26-.03-.08-.05-.17-.07-.27l-.03-.12c-.01-.05-.03-.11-.04-.18l-.08-.29c-.02-.07-.03-.14-.05-.21l-.1-.4c-.03-.1-.05-.2-.08-.31-.05-.2-.1-.39-.15-.6-.05-.19-.09-.36-.13-.54v-.07c-.07-.2-.11-.4-.16-.61l-.14-.62c-.02-.07-.03-.15-.05-.22l-.03-.13c-.02-.09-.04-.18-.06-.27-.02-.1-.04-.19-.06-.29l-.02-.08c-.02-.09-.04-.17-.05-.24-.02-.11-.04-.22-.07-.33l-.19-1.01c-.03-.17-.07-.35-.09-.55-.04-.2-.08-.41-.11-.62l-.18-1.25c0-.11-.02-.21-.04-.34l-.14-1.32c0-.08-.01-.16-.02-.25-.02-.2-.04-.39-.05-.63,0-.07-.01-.15-.01-.23l-.05-1.03c0-.21-.02-.42-.02-.62v-.95s.01-.4.01-.4c0-.17.01-.35.03-.54,0-.19.02-.37.03-.56v-.16c.02-.17.04-.33.06-.5l.07-.62c.02-.2.05-.4.08-.6.03-.2.06-.4.1-.6v-.05c.04-.18.08-.36.12-.56.04-.2.08-.39.12-.58l.07-.27c.03-.11.05-.21.08-.32.04-.14.08-.28.13-.44l.04-.14c.06-.19.12-.38.19-.58.05-.15.1-.29.17-.46l.08-.19c.06-.16.12-.31.19-.46.08-.18.16-.36.25-.56.08-.19.17-.36.27-.55.02-.05.05-.1.08-.16.03-.06.06-.12.1-.19.05-.09.1-.18.18-.28l.18-.26c.07-.09.14-.19.22-.3l.04-.05s.02-.03.03-.05c.07-.08.12-.16.18-.23l.07-.09c.09-.12.18-.23.28-.36l.1-.12c.11-.13.22-.26.36-.42l.13-.15c.21-.24.42-.47.64-.71.07-.08.14-.16.22-.26.12-.14.24-.28.38-.41,3.18-3.46,8.8-3.29,12.65-2.09,1.56.49,3.1,1.16,4.59,1.81h.03c1.15.52,2.35,1.04,3.57,1.48,3.06,1.09,6.31,2.01,9.66,2.73.3.06.91-.16,1.17-.33.17-.11.26-.23.29-.36,0-.01,0-.03,0-.06l.21-.15-.24-.05s-.02-.05-.04-.07c-.05-.07-.14-.17-.32-.21-3.92-.84-7.42-1.86-10.72-3.13-.87-.34-1.76-.72-2.62-1.1l-.04-.02c-1.94-.85-3.94-1.73-6.07-2.16-4.4-.88-10.34-.48-13.8,3.29l-.11.15c-.86-10.71-1.87-21.86-3.02-33.15-1.01-10.01-2.12-19.96-3.29-29.56,2.91-3.44,5.36-6.18,7.69-8.59,2.73-2.83,5.73-5.76,9.16-8.03.14-.09.22-.22.23-.39l.73-.49-.87.16-.1-.06c-.25-.12-.72,0-.87.09-2.7,1.79-5.13,3.96-7.26,6.06l-.05-.3-.21-.09c-.16-.06-.37-.03-.49.07-2.99,2.3-5.68,4.98-7.98,7.99l-.13.21.22.41.28.03c.08,0,.27-.02.4-.18,2.01-2.62,4.34-4.99,6.92-7.08-.29.29-.58.59-.85.87-2.15,2.21-4.38,4.68-6.99,7.74-.05-.43-.11-.86-.16-1.28l-.08-.64c.14,0,.26-.07.34-.18,3.57-4.64,7.85-8.66,12.71-11.93.21-.14.26-.41.12-.61-.07-.1-.18-.17-.3-.19-.12-.03-.25,0-.35.07-4.81,3.24-9.07,7.2-12.65,11.78l-.05-.4c-.06-.5-.12-1.01-.19-1.5-.83-6.6-1.71-13.07-2.6-19.22,3.48-14.06,9.61-27.9,18.22-41.13,2.26-3.47,4.64-6.79,7.09-9.87l.22-.29-.32-.63-.28-.03c-.16-.03-.8-.07-1.12.32-9.22,11.62-16.54,24.79-21.76,39.14-1.48,4.08-2.75,8.22-3.74,12.28-.06.13-.09.27-.07.42,1.56,10.74,3.02,22.11,4.49,34.75,1.38,11.98,2.63,24.11,3.72,36.04.55,5.91,1.08,12.17,1.64,19.13,0,.03,0,.06,0,.1,0,.29-.06.45-.08.48l-.02.03s-.06.09-.08.14l-.02.04c-4.77,7.32-3.08,17.19-.79,25.88.83,2.44,1.63,4.98,2.34,7.22l.24.76c.34,1.07.68,2.13,1.02,3.19l.38,1.19c1.03,3.22,2.09,6.55,3.5,9.7,1.92,4.32,4.74,8.78,8.87,14.02,2.37,3.01,5.02,5.9,7.89,8.6.69,7.79.89,14.06.64,19.72-.05,1.13-.19,2.26-.32,3.39-.22,1.87-.45,3.81-.3,5.75.24,2.95,1.25,5.86,2.91,8.41.26.4.83.21,1.06.06.29-.19.3-.47.18-.65-1.59-2.43-2.55-5.21-2.78-8.03-.15-1.84.07-3.72.29-5.54.13-1.07.28-2.29.33-3.48.23-5.27.08-10.91-.47-17.73,1.65,2.12,3.56,3.77,5.66,4.89,2.57,1.36,5.65,2.09,9.42,2.22,2.33.09,10.15-.08,13.54-5.83,2.63,6.58,3.94,13.7,5.2,20.6,1.64,8.93,3.33,18.17,7.94,26.38,2.2,3.91,4.91,7.2,8.08,9.78.09.07.21.11.34.11.28,0,.62-.17.75-.32.16-.19.14-.45-.05-.62-10.76-8.74-13.3-22.56-15.75-35.93Z"/>
  <path class="uuid-f678da03-10b2-47a5-8ddc-8608fd10eedc" d="m233.91,280.87h.02c.06,0,.27-.01.4-.18,6.23-7.88,12.06-16.23,17.32-24.8l.12-.21-.28-.41h-.17s-.1,0-.17,0c-.14.03-.25.1-.31.21-5.24,8.54-11.05,16.85-17.26,24.72l-.14.2.21.42.27.03Z"/>
  <path class="uuid-f678da03-10b2-47a5-8ddc-8608fd10eedc" d="m261.2,246.49h0c.1-.24.18-.42.11-.62l-.03-.06c-.09-.17-.27-.27-.47-.28-.21,0-.41.12-.52.3-2.29,3.83-1.64,9.03,1.57,12.64,1.44,1.62,2.87,2.48,4.5,2.71.04,0,.08,0,.13,0,.15,0,.43-.03.62-.24.05-.06.09-.12.12-.18.06-.06.1-.14.12-.23.04-.16,0-.32-.12-.45-.15-.18-.41-.31-.66-.42l-.05-.02c-.4-.2-.79-.45-1.12-.66-.87-.56-1.65-1.18-2.32-1.83-1.58-1.52-2.49-3.17-2.64-4.78-.08-.84.05-1.73.38-2.56l.17-.39c.07-.15.15-.32.2-.49.14-.44.06-.84-.01-1.19-.03-.15-.06-.3-.07-.44-.02-.29,0-.54.05-.74,0-.01.01-.03.03-.07Z"/>
  <path class="uuid-f678da03-10b2-47a5-8ddc-8608fd10eedc" d="m303.71,288.21c.05-.31.1-.7.08-1.08v-.08c-.04-.49-.14-.87-.3-1.22-.3-.65-.82-1.24-1.6-1.8-.21-.15-.44-.3-.76-.49-1.67-.98-3.61-2.01-5.48-1.77-.87.12-1.64.51-2.36.91-1.36.75-2.65,1.21-4.45.97-.73-.1-1.47-.24-2.18-.37l-.1-.02c-1.35-.26-2.75-.53-4.22-.53h-.16c-1.96.03-4.08.4-6.3,1.1-3.41,1.09-6.55,2.83-9.59,4.51-.87.48-1.72.95-2.56,1.4-4.01,2.15-8.35,4.23-12.92,4.93l-.2.02c-.34.03-.67.06-1.01.09-.83.07-2.04.15-3.3.2.17-.2.28-.5.13-.75-.06-.11-.25-.35-.72-.23-.11.03-.21.09-.3.14-.25.14-.5.29-.75.43-.42.24-.94.54-1.42.85-.52.33-1.01.72-1.48,1.09l-.14.11c-.16.13-.33.25-.51.39-.07.05-.22.18-.27.45-.01.15.04.3.15.42.24.25.65.26.97.02.89-.58,1.86-1.14,2.9-1.36.43-.09.87-.11,1.34-.13.13,0,.27,0,.4-.02.55-.02,1.11-.04,1.67-.06h.35c.51-.03,1.03-.04,1.55-.06,2.12-.06,4.32-.12,6.45-.44,2.61-.39,5.28-.52,7.87-.65.43-.03.86-.05,1.29-.07h.18c1.28-.07,2.57-.13,3.85-.2,6.02-.29,12.25-.58,18.34-1.2,4.88-.5,8.88-1.28,12.57-2.43l.04.08c.1.19.19.37.27.56.06.13.11.26.15.39.06.16.1.29.12.38v.06c.04.08.04.13.06.19,1.11,4.55-2.66,9.39-3.84,10.76-2.76,3.18-6.38,5.47-10.46,6.61-.09,0-.18,0-.27.03-4.13,1.15-8.54,1.28-12.75.39-.29-.07-.66.13-.8.29-.09.1-.14.23-.14.35l-.18.15.22.04c.05.1.15.23.38.28,1.91.41,3.88.61,5.88.61,2.13,0,4.26-.24,6.32-.7.08.01.18.02.29-.01,4.79-1.02,9.21-3.6,12.44-7.25,1.32-1.48,5.5-6.71,4.25-11.84l.03-.07s.02-.05.03-.1l.08-.23c.02-.06.03-.11.05-.17.09-.28.16-.51.21-.72.12-.41.22-.84.31-1.32h.07v-.02h.23s-.22-.33-.22-.33l.33-1.34-.17.17s0-.08.01-.11l.02-.17Zm-1.36,0c-.15.81-.55,1.42-1.13,1.75h-.03c-7.21,2.4-14.92,2.85-22.39,3.29l-1.82.11c-5,.31-9.91.56-14.49.79-.19-.02-1.03-.02-2.47,0h-.17c-1.07.03-2.18.08-3.38.14,3.48-1.27,6.79-3.08,10-4.83l.12-.07c1.26-.69,2.56-1.4,3.84-2.06,3.15-1.62,7.34-3.49,11.78-3.49.57,0,1.14.03,1.7.09.78.08,1.58.26,2.37.42,1.14.24,2.31.5,3.53.5h.07c.87,0,1.66-.15,2.35-.41.52-.19,1.01-.47,1.48-.74.42-.24.86-.5,1.31-.66,1.33-.48,2.68.17,3.99.8,1.07.52,2.02,1.02,2.72,1.79.55.6.79,1.62.62,2.58Z"/>
  <path class="uuid-f678da03-10b2-47a5-8ddc-8608fd10eedc" d="m288.94,281.76c.58,0,1.12-.19,1.56-.54.13-.11.2-.27.17-.43-.03-.16-.13-.29-.29-.35-.16-.06-.34-.03-.48.08-.32.26-.72.37-1.15.32-.58-.07-1.18-.43-1.56-.94-.78-1.03-.88-2.43-.96-3.67-.01-.16-.11-.3-.25-.37-.15-.08-.35-.06-.5.04-.14.09-.21.25-.2.4.1,1.43.22,3.21,1.39,4.46.59.63,1.44,1.01,2.26,1.01Z"/>
  <path class="uuid-f678da03-10b2-47a5-8ddc-8608fd10eedc" d="m209.7,195.3c.07.03.15.05.26.05.17,0,.49-.04.66-.16,1.17-.82,2.4-1.59,3.63-2.3,0,0,0,0,0,0,.3.19.91.2,1.25.01,7.5-3.98,15.96-6.16,24.47-6.31.29,0,.71-.2.95-.44.14-.14.21-.3.21-.45,0-.12-.06-.52-.72-.52-.44,0-.92.02-1.49.05-10.38.12-20.77,3.44-29.27,9.34-.12.08-.19.21-.19.36l-.65.45.79-.14.1.06Z"/>
  <path class="uuid-f678da03-10b2-47a5-8ddc-8608fd10eedc" d="m211.57,204.28c-.22.13-.34.32-.34.53,0,.19.11.36.29.46,4.34,2.46,9.33,3.66,15.23,3.66,6.33,0,12.65-1.34,18.76-2.65.11-.03.21-.08.29-.14.97-.25,1.71-.97,2.02-1.96.55-1.69-.43-3.26-1.35-4.45-2.13-2.75-4.47-5.59-7.5-7.38-2.64-1.57-5.9-2.12-10.25-1.73-3.48.31-6.77,1.14-9.77,2.47-3.53,1.55-6.47,3.74-8.75,6.5-.18.24-.1.51.07.65.27.21.87.13,1.09-.15.09-.11.19-.23.29-.34.29,2.09,1.23,4,2.68,5.49-.67-.3-1.33-.64-1.98-1.01-.27-.15-.58-.07-.78.05Zm18.43-5.95s0-.05,0-.07c0-.05,0-.1-.03-.15-.06-.49-.12-.87-.22-1.23-.28-1.1-.75-2.08-1.38-2.91-.57-.84-1.32-1.49-2.23-1.94.07-.01.13-.02.2-.03,1.69-.28,3.17-.42,4.5-.44.8.15,1.81.34,2.64.77.63.32,1.15.8,1.54,1.19,1.72,1.71,2.67,3.68,2.82,5.85.01.16.11.29.26.36.26.12.69,0,.88-.13.16-.11.24-.28.23-.45-.15-2.37-1.19-4.53-3.09-6.41-.19-.19-.42-.41-.68-.62.22.06.43.13.63.2,2.88,1.04,5.09,3.23,6.68,5.03,1.1,1.23,2.07,2.36,2.93,3.58.62.87.92,1.6.94,2.28.03.76-.37,1.66-1.07,1.87-.11-.03-.22-.02-.33,0l-.08.02c-6.64,1.41-14.14,3.01-21.2,2.48,3.86-1.33,6.42-5.2,6.05-9.27Z"/>
  <path class="uuid-f678da03-10b2-47a5-8ddc-8608fd10eedc" d="m309.32,212.24l-.16-.14c-.15-.13-.36-.13-.48-.09-2.83.96-5.87,1.04-8.77.24-.12-.03-.27,0-.39.06-.12.07-.2.17-.23.29l-.06.39.36.1c1.39.38,2.82.58,4.25.58,1.74,0,3.47-.29,5.14-.85.17-.05.28-.18.32-.36l.02-.23Z"/>
  <path class="uuid-f678da03-10b2-47a5-8ddc-8608fd10eedc" d="m302.26,182.59l1.26.04c.06.09.18.2.42.21,2.92.04,5.77,1.71,7.25,4.26.04.07.18.24.47.24.23,0,.47-.1.57-.16.14-.08.23-.19.27-.32.03-.11.01-.22-.05-.32-1.67-2.87-4.8-4.69-8.17-4.73-.12,0-.48.02-.67.24-.03.04-.07.08-.11.15l-1.24.41Z"/>
  <path class="uuid-f678da03-10b2-47a5-8ddc-8608fd10eedc" d="m251.13,208.26h0c-.04.1-.07.18-.08.22-.5,1.63-1.16,3.23-1.96,4.76-1.65,3.12-3.86,5.86-6.59,8.14l-.18.16.1.46.2.07c.05.02.11.03.17.03s.24-.01.36-.12c4.52-3.8,7.79-9.04,9.21-14.79l.04-.24-.17-.16c-.13-.11-.31-.14-.49-.07l-4.45,1.51c-.21.07-.29.23-.31.34l-.03.23.17.15c.14.12.34.13.48.08l3.01-1.03s.12-.05.21-.08l.04-.02c.2-.08.34-.14.44-.17-.04.11-.09.26-.17.46l-.02.05Z"/>
  <path class="uuid-f678da03-10b2-47a5-8ddc-8608fd10eedc" d="m222.51,217.2h0c.97.07,1.97.11,2.97.11,3.18,0,6.36-.37,9.46-1.11.18-.04.3-.16.36-.35l.04-.22-.14-.15c-.11-.12-.28-.17-.45-.12-3.95.94-8,1.27-12.04.98-.15-.03-.3.03-.4.1-.11.08-.17.2-.18.32,0,.11.03.22.1.3.07.08.18.13.3.14Z"/>
  <path class="uuid-f678da03-10b2-47a5-8ddc-8608fd10eedc" d="m312.91,141.77c-.11-.11-.28-.16-.45-.12-4.29,1.13-8.25,3.37-11.43,6.46-.17.17-.18.43-.02.6.08.09.2.14.33.14s.25-.05.34-.13c3.06-2.98,6.87-5.13,11-6.22.04-.01.09-.03.12-.05h.19l-.04-.14s.05-.08.06-.13c.04-.15,0-.3-.11-.41Z"/>
  <path class="uuid-f678da03-10b2-47a5-8ddc-8608fd10eedc" d="m200.97,85.6c10.77-1.08,21.05-.79,30.54.84,5.4.93,10.47,2.32,15.08,4.13h0s.42.17.42.17c.02,0,.04.01.06.02l.43.15c.83.3,1.7.56,2.59.78,3.42.9,6.92.84,10.12-.19l.27-.08.16-.22c1.96-2.75,3.77-5.87,5.53-9.52.75-1.56,1.46-3.19,2.12-4.85,5.84-4.08,9.95-10.42,11.29-17.39.02-.11,0-.23-.07-.32-.07-.09-.16-.16-.28-.18-.14-.03-.26,0-.37.08-.1.07-.17.17-.19.29-1.19,6.24-4.75,12.04-9.78,15.99,5.37-14.34,6.06-29.16,1.95-41.77-3.04-9.01-7.91-17.11-14.1-23.43l-.3-.3-1.07,1.14.27.28c10.15,10.49,16.1,24.56,16.32,38.6.01,14.17-4.4,28.44-12.42,40.2-.2.03-.4.05-.6.08l.09-.08.3-.15-.18-.23s.01-.09.04-.21c.05-.23.11-.52-.04-.76l-.05-.07c-3.23-3.89-7.27-7.07-11.19-10.14-2.37-1.86-4.81-3.78-7.05-5.84-7.32-6.75-12.64-13.22-16.27-19.79-2.41-4.36-4.02-8.81-4.79-13.2v-.37s-.58.1-.58.1l-.23.09v.26c.02.1,0,.23,0,.38-.01.17-.03.37,0,.58,1.31,7.61,5.13,15.32,11.35,22.91,2.45,3,5.31,6.08,8.75,9.43,2.74,2.67,5.78,5.08,8.71,7.41l1.05.84c3.18,2.53,6.78,5.4,9.61,8.81l.06.07c-1.16.16-2.3.26-3.36.26-1.38-.04-2.75-.27-4.01-.52-4.57-1.15-9.07-2.71-13.35-4.63-1.47-.83-3.08-1.62-4.93-2.4-4.54-2.41-8.84-5.26-12.77-8.46-9.07-7.38-16.45-16.92-21.33-27.59-2.88-6.29-4.9-12.94-6-19.76v-.35l-.86.14.05.31c.02.1,0,.23,0,.39-.01.17-.03.37,0,.57,1.98,12.26,6.93,24.01,14.31,33.97,5.01,6.77,11.13,12.67,18.19,17.56-3.25-1.15-6.61-2.25-10.25-3.35-1.85-.56-3.71-1.08-5.52-1.59-8.06-2.26-16.39-4.59-23.02-10-3.28-2.68-7.49-7.22-8.86-13.55v-.13s-.21-.21-.21-.21l-.08.02-.32-1.26-.02,1.33-.24.05.07.3c.02.09,0,.22,0,.35-.02.17-.04.39,0,.61,2.64,12.25,14.9,18.42,21.96,21.01,3.29,1.21,6.71,2.16,10.02,3.08l.29.08c1.4.39,2.84.79,4.25,1.21,4.21,1.24,8.41,2.61,12.48,4.07-3.27-.64-6.74-1.13-10.54-1.49-.89-.08-1.79-.16-2.68-.24l-.34-.03c-5.81-.51-11.81-1.04-17.42-2.87-4.56-1.49-7.96-3.97-9.84-7.18l-.09-.15h-.26l-.51.29.15.24s0,.08-.03.22c-.04.23-.1.51.05.77,4.03,6.91,12.66,8.63,20.44,9.7,2.85.39,5.84.66,8.5.89,3.78.34,7.69.69,11.5,1.38,1.45.26,2.91.57,4.36.93-3.2-.43-6.53-.72-9.94-.86-6.47-.27-13.08,0-19.67.77-4.8.53-10.05.19-16.05-1.06-6.01-1.25-11.45-3.13-16.18-5.61l-.27-.27-.31.6h-.03s0,.05,0,.05h0s.01.07.01.07c0,.02,0,.09-.03.29-.05.37-.11.75.22.92,4.8,2.52,10.33,4.44,16.43,5.7,2.04.42,3.94.74,5.79.96-.24.05-.48.1-.72.15-5.61,1.16-11,2.69-16.03,4.54-.08.03-.15.08-.2.15-2.58,1.05-5.34,2.31-8.69,3.96-4.38,2.11-13.14,6.78-19.53,10.18l-.11.06c-2.24,1.19-4.24,2.26-5.75,3.06l-.36.19.3.57v.57l.59-.31c1.19-.61,2.43-1.25,3.72-1.91l.08-.04c9.4-4.83,21.08-10.83,29.93-14.68v.04s.12-.04.12-.04l.73,1.72-.2-1.92c8.87-3.22,18.57-5.38,28.83-6.41Z"/>
  <path class="uuid-f678da03-10b2-47a5-8ddc-8608fd10eedc" d="m222.09,18.21c2.85,10.03,7.01,19.62,12.38,28.51,2.69,4.45,5.69,8.75,8.92,12.77,1.6,1.99,3.31,3.93,4.96,5.81l.05.05c1.54,1.76,3.14,3.57,4.64,5.42,4.17,5.15,6.52,9.45,7.62,13.95l.07.3.81-.2-.08-.29s0-.12-.01-.2c-1.9-7.8-7.25-13.84-12.42-19.68-1.25-1.41-2.54-2.87-3.76-4.33-6.59-7.92-12.11-16.71-16.4-26.15-2.38-5.23-4.4-10.72-5.99-16.33v-.37l-.61.18-.2.11v.19s-.02.14.01.26Z"/>
  <path class="uuid-f678da03-10b2-47a5-8ddc-8608fd10eedc" d="m261.39,80.03c-.9-6.62-4.88-11.81-8.73-16.83-2.81-3.67-5.72-7.46-7.39-11.77l-.08-.2h-.21l-.56.16.06.25c0,.06-.01.16.03.27,1.7,4.42,4.65,8.26,7.5,11.98,3.79,4.93,7.7,10.03,8.57,16.4v.35l.86-.11-.05-.3v-.03c0-.06,0-.12,0-.17Z"/>
  <path class="uuid-f678da03-10b2-47a5-8ddc-8608fd10eedc" d="m297.76,30.82c7.16,4.67,6.4,14.69,3.31,22.52-2.66,6.74-7.38,13.08-14.03,18.84-3.21,2.78-6.84,5.43-11.42,8.35-.11.07-.24.19-.28.4-.42.21-.69.35-.8.4l-.37.17.37.77.33-.16s.5-.25.87-.44l.17.27.34-.22c.95-.61,1.9-1.23,2.89-1.89,3-1.7,5.82-3.48,8.39-5.29,3.77-2.66,6.9-5.33,9.29-7.93,3.02-3.28,4.88-6.46,5.53-9.46l.09-.4-.83-.18-.09.4c-1.36,6.25-8.12,12.29-13.82,16.4,3.6-3.1,6.58-6.29,9.06-9.67,3.67-5.02,8-12.86,7.82-21.71-.11-5.38-2.35-9.89-6.16-12.38l-.34-.22-.25.38-.28.04-.04.29c-.07.4.1.6.26.7Z"/>
  <path class="uuid-f678da03-10b2-47a5-8ddc-8608fd10eedc" d="m135.93,210.96c-.87-7.35-5.51-14-12.09-17.38l-.28-.14-.27.52h-.02s0,.03,0,.03h0s.01.07.01.07c0,.01,0,.07-.03.29-.05.37-.11.75.22.92,6.35,3.25,10.81,9.66,11.65,16.72v.33l.54-.06.27-.07v-.27c-.02-.13,0-.28,0-.42,0-.16.02-.35,0-.54Z"/>
  <path class="uuid-f678da03-10b2-47a5-8ddc-8608fd10eedc" d="m144.25,196.84l-.09.21c-.18.42-.36.85-.53,1.27l-.13.32c-1.05,2.54-2.31,5.93-2.85,9.54-.03.2-.02.39,0,.58.01.16.02.28,0,.44v.26l.81.15v-.35c.58-3.91,2.1-7.6,3.58-11.16.76-1.84,1.55-3.75,2.21-5.69,1.63-4.79,2.15-10.27,1.55-16.29-.07-.7-.16-1.41-.24-2.12-.37-3.06-.75-6.23.18-9.24.07-.24.04-.47.01-.67,0-.08-.02-.15-.02-.2l.03-.41-.27-.08-.08-.81-.2.75h-.13s-.12.22-.12.22c-1.13,3.63-.68,7.43-.25,11.11.17,1.45.35,2.94.42,4.4.2,3.99-.27,7.8-1.4,11.33-.69,2.18-1.6,4.34-2.48,6.43Z"/>
  <path class="uuid-f678da03-10b2-47a5-8ddc-8608fd10eedc" d="m265.88,72.45h0c-.92-16.47-6.24-32.51-15.41-46.37-2.57-3.88-5.48-7.63-8.66-11.13l-.21-.23-.43.39-.08.02v.12c0,.08-.04.28.11.44,10.96,12.07,18.57,26.93,21.99,42.98.98,4.58,1.61,9.29,1.87,14.02l.02.31.81-.04-.02-.31s0-.02,0-.05c0-.05,0-.1,0-.14Z"/>
  <path class="uuid-f678da03-10b2-47a5-8ddc-8608fd10eedc" d="m162.9,22.93c-4.23,1.36-7.83,2.84-11,4.54l-.53.29.27.52c.1.2.31.33.55.33.13,0,.25-.03.3-.06l.05-.02c6.43-3.44,13.59-5.35,20.52-7.2,6.74-1.8,13.71-3.66,20.08-6.94,3.53-1.82,6.62-3.98,9.21-6.44l.25-.25-.17-.67-.33-.1c-.2-.05-.49-.02-.68.16-7.89,7.49-18.52,10.33-28.79,13.07-3.22.86-6.54,1.75-9.73,2.77Z"/>
  <path class="uuid-f678da03-10b2-47a5-8ddc-8608fd10eedc" d="m196.75,16.17c-1.32.48-2.45.97-3.44,1.5-.25.13-.28.39-.19.57.07.14.22.22.39.22.08,0,.17-.02.24-.05l.03-.02c.97-.52,2.04-1,3.26-1.47,1.13-.41,2.23-.75,3.24-1.05,1.37-.41,2.72-.78,3.75-1.06.6-.15,1.19-.3,1.79-.44l.58-.14c.66-.16,1.33-.33,1.98-.49.84-.21,1.69-.42,2.54-.64,4.67-1.17,9.5-2.37,14.09-4.08,2.17-.81,4.45-1.77,6.37-3.25l.19-.16-.08-.46-.21-.09c-.15-.06-.37-.03-.49.07-1.76,1.36-3.87,2.25-5.89,3.02-2.74,1.04-5.61,1.86-8.06,2.53-2.27.62-4.63,1.21-6.71,1.73l-.21.05c-1.77.44-3.97,1-6.04,1.56h-.04c-1.94.5-4.46,1.17-6.84,2.07l-.24.09Z"/>
  <path class="uuid-f678da03-10b2-47a5-8ddc-8608fd10eedc" d="m112.1,45.9c.11.06.25.09.4.09.32,0,.72-.15.89-.48,5.35-10.63,15.87-16.59,23.75-19.72,7.12-2.83,14.71-4.55,22.04-6.21l.58,1.06-.26-1.13c4.32-.98,8.79-1.99,13.12-3.22,7.33-2.08,13.12-4.44,18.19-7.45.43-.25.48-.68.31-.97-.1-.17-.26-.28-.47-.34-.27-.07-.58-.03-.8.1-9.48,5.6-20.37,8.07-30.89,10.46l-.13.03c-1.25.28-2.51.57-3.75.86-10.39,2.4-22.27,5.56-31.81,12.69-5.08,3.79-8.94,8.27-11.47,13.29-.09.17-.1.37-.05.55.06.17.18.31.35.39Z"/>
  <path class="uuid-f678da03-10b2-47a5-8ddc-8608fd10eedc" d="m206.84,16.1c-.33.04-.62.25-.75.55-.11.26-.08.55.08.76.03.04.27.37.77.3,14.02-1.69,25.42-4.81,34.87-9.52,2.99-1.49,5.59-3.09,7.95-4.88,10.18,5.27,18.64,13.31,24.47,23.25,7.46,12.73,9.62,26.35,5.93,37.38-1.83,5.47-5.13,10.29-9.27,13.55l-.26.14c-.11.06-.2.14-.25.25-.74.55-1.48,1.05-2.22,1.49-.18.11-.29.25-.3.4l-.62.37.73-.03s.07.07.12.1c.09.05.2.07.34.07s.33-.03.48-.11c.6-.35,1.19-.74,1.86-1.22l.07.13.36-.19c8.84-4.67,16.43-11.54,21.97-19.89,3.42-5.16,5.63-9.86,6.75-14.35.15-.59.27-1.17.36-1.71.3-1.57.37-2.95.2-4.22l-.03-.22c-.09-.82-.26-1.61-.51-2.41-1.75-5.62-6.03-9.34-9.31-11.48l-.34-.22-.25.38-.28.04-.05.3c-.07.4.1.6.26.7,3.8,2.47,6.63,5.62,8.18,9.12.56,1.27.93,2.51,1.11,3.7.15,1.26.09,2.6-.16,4.09-.17.91-.42,1.86-.81,3.08-2.23,7.1-6.67,14.29-12.6,20.46,2.76-3.71,4.79-7.97,5.92-12.45,2.28-9.07.52-18.91-4.84-26.98-2.95-4.45-6.91-8.19-11.44-10.79-.15-.09-.33-.11-.5-.06-.18.05-.34.17-.44.35l-.23.53.48.28c7.86,4.52,13.61,12.27,15.78,21.26,2.08,8.65.33,18.02-4.79,25.7-2.35,3.52-5.39,6.6-8.85,8.98.2-.26.39-.53.59-.8.2-.28.4-.57.59-.85l.14-.22c.06-.09.12-.18.17-.27,5.18-8.03,6.94-17.9,4.83-27.06v-.39l-.75.18c-2.11-10.69-7.66-21.05-15.88-29.53-4.71-4.85-10.13-8.86-16.11-11.91-.07-.21-.24-.38-.46-.47-.32-.13-.69-.08-.94.12-10.03,7.73-23.38,10.97-32.55,12.73-3.1.6-6.31,1.1-9.56,1.49Z"/>
  <path class="uuid-f678da03-10b2-47a5-8ddc-8608fd10eedc" d="m221.98,69.9l-.04-.05c-.18-.21-.49-.18-.67-.03-.18.15-.21.42-.06.6,6.64,8.01,15.35,14.08,25.19,17.57,2.7.96,5.53,1.72,8.42,2.27h.06c.2,0,.44-.13.48-.37.02-.09,0-.18-.04-.26.13.04.26.09.4.13h.11c.13.01.27-.04.37-.14l.17-.18-.14-.45-.21-.07c-10.5-3.31-20.08-9.26-27.71-17.21-.08-.08-.19-.13-.31-.13h0c-.14,0-.27.06-.38.17l-.25.3.25.27c7.29,7.6,16.35,13.39,26.31,16.84-12.47-2.64-23.79-9.44-31.96-19.26Z"/>
  <path class="uuid-f678da03-10b2-47a5-8ddc-8608fd10eedc" d="m302.62,61.95l.05-.09c.12-.21.04-.46-.16-.58-.19-.11-.51-.06-.65.18-4.81,8.54-11.07,16.05-18.6,22.33-.09.08-.15.18-.16.3,0,.11.02.21.09.29.08.11.21.17.36.17.12,0,.24-.04.32-.11,7.58-6.32,13.89-13.89,18.75-22.48Z"/>
  <path class="uuid-f678da03-10b2-47a5-8ddc-8608fd10eedc" d="m107.54,106.69c.98-.63,1.97-1.25,2.94-1.84.49-.3.99-.59,1.49-.88.07-.04.15-.09.23-.14.04-.01.08-.03.12-.05l.71-.42c.23-.14.26-.41.16-.58-.06-.1-.15-.17-.27-.2-.13-.03-.27-.01-.38.05-7.98,4.55-15.42,10.06-22.1,16.38-.17.17-.18.43-.02.6.08.09.2.13.33.13s.25-.05.34-.13c3.38-3.2,6.96-6.19,10.62-8.89,1.88-1.39,3.84-2.74,5.83-4.03Z"/>
  <path class="uuid-f678da03-10b2-47a5-8ddc-8608fd10eedc" d="m94.57,118.82s.09.02.14.02c.05,0,.23,0,.36-.13,7.11-6.59,15.05-12.26,23.58-16.85.15-.08.23-.22.23-.38v-.23s-.2-.12-.2-.12c-.16-.09-.36-.07-.49,0-8.61,4.64-16.61,10.36-23.79,17l-.18.17.12.46.21.07Z"/>
  <path class="uuid-f678da03-10b2-47a5-8ddc-8608fd10eedc" d="m105.9,114.9c.08.04.19.07.32.07.17,0,.41-.03.56-.13,9.33-5.94,19.29-11.01,29.6-15.06.2-.08.33-.18.39-.32.01-.03.02-.06.03-.09l.73-.37h-.84c-.05-.06-.11-.1-.18-.14-.21-.09-.46-.06-.63,0-10.44,4.1-20.52,9.23-29.97,15.25-.2.12-.24.28-.25.39l-.61.39.73-.07s.07.06.11.08Z"/>
  <path class="uuid-f678da03-10b2-47a5-8ddc-8608fd10eedc" d="m148.38,99.48h0c.04-.11.04-.23,0-.33-.1-.23-.38-.34-.61-.24-.85.36-1.7.74-2.55,1.12.03-.05.06-.11.07-.18.02-.16-.05-.31-.18-.41-.13-.1-.31-.12-.47-.06-8.57,3.66-16.95,7.98-24.89,12.84-.11.06-.18.17-.21.28-.03.11,0,.23.05.33.08.14.23.22.39.22.09,0,.17-.02.25-.07,6.34-3.88,12.96-7.41,19.73-10.53-5.85,2.81-11.57,5.92-17.08,9.3-.14.09-.22.24-.22.4,0,.16.09.3.23.37.07.04.14.06.22.06.09,0,.17-.02.25-.07,7.92-4.85,16.25-9.15,24.79-12.79.12-.05.2-.14.25-.25Z"/>
  <path class="uuid-f678da03-10b2-47a5-8ddc-8608fd10eedc" d="m94.39,213.69c-.24-.23-.61-.14-.72-.1-.27.08-.44.23-.5.44-1.92,7.82-4.81,19.65,2.24,27.84.1.12.26.18.44.18.21,0,.47-.09.62-.22.15-.12.18-.26.19-.35,0-.13-.03-.25-.12-.35-6.72-7.81-3.9-19.35-2.03-26.99.04-.17,0-.34-.13-.46Z"/>
  <path class="uuid-f678da03-10b2-47a5-8ddc-8608fd10eedc" d="m106.95,215.21h0c.05-.06.11-.11.19-.19.05-.04.1-.09.14-.12.12-.11.25-.21.4-.34,2.03-1.72,4.33-3.09,6.84-4.08,2.05,3.97,3.14,8.16,3.24,12.44h-.01l.02.42c0,.21,0,.42,0,.63,0,.19.09.36.25.46.24.16.58.1.8-.01.21-.11.33-.3.33-.5.02-1.57-.09-3.15-.32-4.68-.23-1.49-.58-2.99-1.04-4.46-.45-1.42-1.02-2.84-1.68-4.21-.65-1.34-1.41-2.66-2.25-3.93-.82-1.23-1.74-2.45-2.75-3.62-.98-1.14-2.05-2.25-3.17-3.29-1.11-1.03-2.29-2.02-3.53-2.94-1.22-.91-2.5-1.77-3.81-2.56-.38-.23-.79-.46-1.15-.65-.39-.22-.75-.41-1.09-.62l-.13-.08c-.85-.51-1.73-1.04-2.74-1.27-1.68-.37-3.55-.04-5.12.9-2.89,1.74-4.34,4.92-5.05,7.28-2.07,6.96.07,14.06,1.95,20.33.06.21.22.36.44.42.27.07.58-.02.76-.22.15-.16.2-.37.14-.57l-.26-.89c-.19-.84-1.81-8.33-1.03-14,.79-5.86,2.8-8.58,2.89-8.69.38-.53.83-1,1.34-1.39.61-.47,1.35-.83,2.19-1.07.39-.11.8-.2,1.23-.26l.16-.02c.34-.05.69-.09,1-.03.27.05.55.15.92.33.78.38,1.54.83,2.32,1.29l.13.07c.73.43,1.44.89,2.12,1.34,1.42.95,2.79,1.99,4.06,3.08,1.31,1.12,2.54,2.31,3.64,3.54,1.15,1.26,2.2,2.59,3.12,3.96.04.06.08.12.12.18-4.26.64-8.33,2.32-11.76,4.86-.31.23-.32.57-.17.78.2.27.71.34,1.02.12,3.36-2.49,7.31-4.09,11.44-4.63.06,0,.11-.03.16-.05.27.43.5.81.72,1.2-2.9,1.15-5.57,2.8-7.92,4.93-1.76,1.58-3.28,3.39-4.53,5.36-3.18,5.01-5.13,12.43-.19,16.85,1.97,1.75,4.67,2.77,8.5,3.19.03,0,.06,0,.09,0,.29,0,.52-.17.63-.32.13-.17.16-.37.08-.54-.05-.1-.17-.28-.49-.32-3.22-.35-5.53-1.13-7.28-2.46-2.14-1.63-3.3-4.29-3.18-7.31.17-4.54,2.89-9.63,7.26-13.61Z"/>
  <path class="uuid-f678da03-10b2-47a5-8ddc-8608fd10eedc" d="m122.36,230.88l-.04.11c-.52,1.52-1.05,3.08-.21,4.72.61,1.18,1.63,2.01,2.63,2.82h0c1.19.96,2.3,1.87,2.68,3.31.06.25.29.41.59.41.07,0,.15,0,.23-.03.39-.1.62-.41.53-.73-.44-1.73-1.73-2.77-2.98-3.78-.87-.71-1.78-1.45-2.33-2.4-.76-1.33-.27-2.77.21-4.17.14-.42.29-.85.41-1.29.56-2.1.5-4.36-.16-6.54-.1-.32-.45-.47-.85-.35-.16.05-.3.14-.39.25-.12.15-.15.32-.1.49.65,2.15.66,4.39.02,6.46-.07.24-.16.48-.24.72Z"/>
  <path class="uuid-f678da03-10b2-47a5-8ddc-8608fd10eedc" d="m113.16,240.11h0c.87.31,1.75.21,2.59.12.78-.08,1.58-.12,2.09.31.35.3.55.79.75,1.28.09.23.19.47.31.69.43.83.93,1.34,1.58,1.62.07.03.15.04.24.04.29,0,.67-.18.79-.44.05-.12.05-.25,0-.36-.05-.12-.15-.22-.28-.28-.62-.27-.97-.89-1.25-1.52-.04-.08-.08-.17-.12-.28l-.03-.07c-.26-.62-.54-1.27-1.17-1.7-.93-.64-1.95-.53-2.94-.44-.67.07-1.37.14-1.96-.07-.17-.06-.39-.04-.58.05-.19.09-.32.23-.38.39-.08.24,0,.54.35.66Z"/>
  <path class="uuid-f678da03-10b2-47a5-8ddc-8608fd10eedc" d="m198.33,175.49l.25-.17c2.76-1.83,5.76-3.38,8.93-4.62l.14.05.02.21.99-.13.12.32.3-.1c.52-.18,1.06-.34,1.61-.51l.11-.04c8.87-1.33,22.16-2.79,35.1-.19.17.06.33.12.5.18l.1.03c.3.11.6.21.9.32,3.99,1.53,7.75,3.49,11.18,5.82l.24.16.09-.11s.03.02.04.03l.23.18.51-.58-.12-.13c0-.07.02-.16.04-.23.05-.22.07-.4.03-.55-.01-.05-.05-.22-.16-.28-.14-.12-.27-.24-.41-.36l.22-.25-.09-.13c0-.07.03-.16.04-.2.06-.31.13-.67-.13-.88-.06-.05-.12-.1-.18-.15,0-.05.02-.12.03-.21.06-.33.12-.69-.17-.9-.22-.16-.45-.3-.67-.44l-.1-.06c.02-.19.03-.47-.21-.64-.24-.17-.49-.34-.74-.51,0-.18-.02-.39-.2-.53-.11-.08-.22-.16-.34-.25-.04-.03-.09-.06-.13-.09-.12-.17-.25-.34-.38-.51-.02-.08-.06-.15-.12-.22-.07-.08-.14-.15-.21-.22l-.03-.03c-.05-.05-.1-.11-.14-.14-1.93-2.39-4.16-4.49-6.62-6.24l-.23-.16-.2.24-.26.04.06.29s0,.05,0,.09c-1.24-.69-2.52-1.28-3.79-1.76l-.29-.11-.18.46-.06.02v.11s0,.04,0,.18c-1.37-.48-2.78-.85-4.22-1.12h-.26l-.03.16-.18.03.06.29s0,.18-.01.28v.05c-1.1-.25-2.21-.46-3.31-.61l-.29-.04-.04.2-.15.03.02.28s0,.15,0,.26v.04c-2.94-.53-5.91-.74-8.84-.61-.34,0-.4.24-.41.47h-.34c-1.99,0-3.83.13-5.62.4-.38.06-.37.37-.34.92-1.58.24-3.12.55-4.59.93-4.6,1.18-9.2,3-14.06,5.58-.33.17-.28.55-.22.92.02.12.03.2.03.24,0,0,0,.02,0,.03l-.03.12h.04s.03.06.03.06c-1.51.78-2.99,1.65-4.42,2.56-.32.19-.25.57-.19.94.02.12.03.18.04.22l-.04.11.36.55.26-.17c.25-.16.5-.32.75-.48,0,.11.03.22.05.34.02.11.03.18.04.23l-.05.11.38.56Z"/>
  <path class="uuid-f678da03-10b2-47a5-8ddc-8608fd10eedc" d="m326.03,164.88l-.02-.27-.04-.13h-.02c-.12-.5-.3-1-.51-1.36l-.15-.29-.23.13c-.03-.08-.06-.15-.1-.22,0-.11,0-.26,0-.44l.95-1.14-1.01.73c-.09-.44-.25-.81-.49-1.08l.07-.08-.54-.53c0-.06-.02-.12-.03-.18-.02-.11-.03-.18-.04-.23,0-.01,0-.03,0-.04l.02-.1-.16-.25-.16-.41-.27.28c-.38-9.64-.87-18.35-2.89-27.05-1.1-4.73-2.66-9.23-4.65-13.39-1.27-2.66-2.7-5.27-3.96-7.57l-.26-.47c-.68-1.25-1.39-2.55-2.06-3.83-2-3.82-4.18-8.42-5.26-13.5,3.43-6.28,5.54-13.35,6.09-20.44.02-.2.01-.39,0-.58,0-.13-.01-.26,0-.38l.05-.42-1.21-.1-.03.41c-.53,6.84-2.53,13.64-5.79,19.69-.73-1.05-1.66-1.92-2.4-2.57-1.42-1.23-2.77-2.16-4.12-2.83-1.41-.7-3.14-1.02-5.16-.97,10.59-5.77,19.3-14.82,24.56-25.51l.07-.14c1.21-2.46,3.03-6.18,1.03-8.83l-.19-.19-.49.37v.33s0,.06,0,.06c0,.04-.01.08-.02.11-.05.25-.11.56.08.81.87,1.15.47,2.39-.11,3.77-.55,1.32-1.22,2.69-2.12,4.33-1.49,2.76-3.24,5.44-5.21,7.96-3.9,5-8.56,9.3-13.83,12.78-.92.6-1.89,1.2-2.91,1.79,4.72-3.67,8.31-6.84,11.48-10.14,2.35-2.44,4.44-4.94,6.21-7.43,1.7-2.39,3.59-5.26,4.76-8.42,1-2.72,1.11-5.17.32-7.3l-.11-.28-.75.25.06.25c0,.06-.01.16.03.27,1.19,3.18-.2,6.49-1.54,9.03-1.25,2.36-2.79,4.75-4.57,7.08-3.09,4.06-6.96,8.03-11.82,12.16-1.81,1.53-3.75,3.09-6.06,4.85,6.92-7.69,13.96-15.68,18.77-24.98,1.35-2.6,3.2-6.17,3.4-9.69,0-.17,0-.38,0-.58,0-.13,0-.26,0-.35v-.31s-.79-.04-.79-.04l-.02.31c-.16,2.87-1.49,5.72-2.95,8.64-1.24,2.48-2.75,5.04-4.64,7.81-3.7,5.42-8,10.48-11.73,14.71-1.3,1.48-2.66,2.99-3.85,4.33l-.19.21c-.89.99-1.77,1.98-2.61,2.93-.01.01-.02.02-.04.03-.04,0-.07.02-.12.03-.37.1-.34.43-.3.94v.04c.01.09.03.24.03.25l-.05.14.11.03.13.44.3-.08c2.94-.81,7.22-1.7,10.5-.08,1.26.62,2.52,1.48,3.85,2.64.82.71,1.85,1.68,2.56,2.81,1.34,6.71,4.63,12.72,7.8,18.54l.03.05c.94,1.72,2.1,3.86,3.16,5.96,3.83,7.64,6.2,16.46,7.24,26.97.5,4.96.73,10.11.91,14.57-.11,0-.21.04-.3.09-.31.16-.63.34-.97.54-.24-.05-.59,0-.75.11-4.27,2.78-8.08,6.2-11.31,10.18-.09.12-.13.26-.1.39-.08.11-.15.21-.22.31-.53.66-.96,1.22-1.36,1.77-.06.1-.08.22-.05.33-.52.58-1.02,1.15-1.48,1.7-.14.12-.16.27-.17.33,0,.03,0,.07,0,.1l-.28.26h.3s.01.07.02.1v.05s0,0,0,0c0,.05.02.14.03.2l-.14.11.5.61.23-.16c4.11-2.74,8.46-5.06,12.93-6.9,1.08-.45,2.22-.88,3.38-1.29.11-.04.21-.07.32-.11.03,3.63-.7,7.24-2.13,10.44-1.05,2.36-2.58,4.47-4.07,6.5-.71.97-1.44,1.98-2.13,3.03-.49.75-.92,1.51-1.31,2.33,0,0-.01-.02-.02-.03.04-.06.07-.12.09-.18.07-.23-.03-.53-.39-.64-.21-.07-.42-.14-.64-.22,0-.11-.06-.21-.14-.3,0-.04,0-.07,0-.11,0-.14-.06-.34-.31-.51-2.22-1.49-4.84-2.27-7.55-2.27-.17,0-.34,0-.5,0h-.6s-.07-.08-.12-.11l.33-.25-.74.13c-.13-.1-.32-.14-.55-.1-.28.05-.57.1-.85.15l-.38.06c-.12.02-.23.04-.34.06l-.04-.04c-.21-.18-.58-.14-.75-.08-.1.03-.2.06-.31.09l-.15.05c-.16,0-.38.03-.49.08l-.27.11c-.2-.02-.42.02-.48.05-.23.08-.46.18-.66.27l-.16.07c-.19-.02-.4.03-.48.05h-.03c-.61.25-1.26.54-1.98.89-.07.03-.15.06-.25.1-.07.03-.14.05-.21.08-.12.01-.28.03-.38.08-1.7.85-3.2,1.99-4.48,3.39-.11.12-.22.23-.33.34.28-.7.65-1.37,1.11-1.99,1.79-2.42,4.41-4.13,7.17-5.82.24-.14.3-.31.31-.44l.38-.25-.45-.03c-.04-.06-.1-.11-.17-.15-.21-.11-.59-.1-.81.04-4.67,2.86-9.25,6.09-9.58,11.4-.18,2.89.85,5.67,1.85,8.36l.11.29c.07.2.15.4.22.6,1.16,3.16,2.42,6.26,3.75,9.23.81,1.83,1.74,3.79,2.92,6.15l.07.17c.05.12.1.24.16.36l.1.22c.17.37.33.71.5,1.03.12.24.26.46.38.66l.07.12c1.51,2.9,3.15,5.79,4.86,8.6.4.66.82,1.33,1.23,1.98,2.88,4.58,5.87,9.31,4.35,14.87-1.95,7.17-8.79,11.33-14.29,14.67-.24.15-.29.33-.29.46l-.29.21.36.03h0c.2.3.72.28.99.12,5.05-3.08,10.28-6.27,13.29-11.59,1.5-2.68,2.2-5.49,2.02-8.14-.22-3.21-1.76-6.12-3.39-8.78-2.03-3.31-4.37-7.17-6.5-11.02h.01s-.1-.25-.1-.25c-.33-.78-.69-1.6-.96-2.19l-.04-.1c-.33-.74-.67-1.5-.99-2.26-.28-.67-.55-1.36-.8-2.04l-.32-.84c-.07-.19-.15-.37-.22-.56l-.03-.07c-.2-.5-.4-1.01-.56-1.56-1.35-3.21-2.58-6.11-3.81-8.94.02,0,.04,0,.06,0,3.98,1.33,8.21,1.6,12.27.85-.2.04-.39.14-.51.3-.08.11-.12.24-.11.36l-.24.23h.33c.09.12.25.19.44.19.04,0,.09,0,.14-.01,2.43-.35,4.8-1.23,6.86-2.53.16-.1.25-.22.28-.36,0-.02,0-.04,0-.06l.14-.09c.16,2.84.49,5.68.83,8.45l.02.16c.58,4.86,1.34,9.77,2.09,14.53l.08.51c.43,6.19-.94,12.25-2.64,18.96-.15.59-.3,1.18-.46,1.78l-.1.38c-.63,2.44-1.29,4.97-1.75,7.52-.61,3.4-.96,6.87-1.02,10.32-.05,2.9.14,5.83.33,8.68v.05c.29,4.3.58,8.75.03,13.13-.69,5.49-2.81,10.74-4.86,15.82-.36.88-.71,1.76-1.06,2.64-2.35,5.95-4.84,12.92-4.5,20.3-.02.05-.04.11-.04.19-.1,6.84-.88,15.53-6.05,22.12-2.39,3.04-5.52,5.2-9.3,6.42-3.58,1.15-7.42,1.6-11.14,2.03l-.68.08c-4.01.46-8.74.82-13.47-.04-3.73-.68-7.34-1.85-11.01-3.1l.46-.92-.8.8-.89-.3c-8.15-2.77-16.1-6-24.21-9.35-4.43-1.83-8.86-3.66-13.29-5.49l-6.55-2.71c-2.56-1.06-5.12-2.11-7.67-3.17-.33-.13-.89.09-1.03.4-.05.11-.05.24,0,.36.04.08.11.2.28.27,4.76,1.97,9.52,3.94,14.29,5.9l11.53,4.76c7.63,3.15,16.28,6.72,25,9.74.64.22,1.28.44,1.92.66,1.49,12.29-5.65,23.43-11.94,33.25l-.32.5c-1.78,2.77-3.65,5.74-5.36,8.86-.08.14-.08.3,0,.44.06.11.2.24.49.24.1,0,.58-.03.77-.36,1.81-3.29,3.89-6.53,5.91-9.68,4.67-7.27,9.5-14.79,11.33-23.51.66-3.13.86-6.24.58-9.25,2.6.88,5.97,1.95,9.33,2.62,3.8.76,7.93.88,12.99.38l.59-.06c7.38-.73,15.74-1.56,21.41-7.06,7.12-6.92,8.11-17.41,8.22-24.71.06-.1.08-.2.06-.26-.37-6.69,1.71-13.11,3.78-18.5.55-1.45,1.15-2.92,1.68-4.22,1.83-4.52,3.73-9.19,4.62-14.07.94-5.16.61-10.36.29-15.39-.12-1.83-.25-3.9-.3-5.91-.11-3.69.12-7.42.68-11.08.49-3.24,1.32-6.47,2.13-9.59l.09-.34c1.74-6.76,3.53-13.74,3.04-20.81-.16-1.04-.33-2.09-.5-3.14l-.05-.32c-1.19-7.45-2.41-15.15-2.56-22.74-.08-4.49.79-8.04,2.74-11.15.78-1.25,1.66-2.45,2.53-3.63,1.36-1.86,2.77-3.78,3.8-5.94,1.73-3.66,2.6-7.77,2.51-11.9.07-.02.15-.05.25-.07l.05-.02c.4-.11.86-.24,1.21-.54.15-.13.27-.28.37-.45l.45,1.18-.26-1.69c.08-.36.08-.78,0-1.23Zm-15,36.74c-.24-.05-.55.02-.67.09-4.53,2.47-10.04,3.31-15.2,2.32.66-.21,1.3-.51,1.86-.88,2.43-1.26,4.06-3.85,4.23-6.77.14-2.22-.53-5.37-2.82-7.18l.66-.02c1.46-.03,2.92-.05,4.37-.07h.73c.46.05.86.12,1.2.2.33.08.65.15.98.23l.39.09c.33.08.67.16,1,.24.89.94,1.78,1.87,2.67,2.79.16.17.42.23.68.17.04-.01.12-.03.21-.08.21.11.42.21.62.29,0,0,0,0,0,0-.6,1.93-.91,3.93-.94,6.13-.01.78,0,1.6.02,2.45Zm-4.91,2.91c-.52.16-1.05.29-1.59.4.53-.12,1.07-.25,1.59-.4Zm4.78-1.59s0,0,0,0c-.04-.07-.14-.15-.28-.2.15-.08.3-.15.45-.23h0c0,.15.02.31.03.46l-.19-.02Z"/>
  <path class="uuid-f678da03-10b2-47a5-8ddc-8608fd10eedc" d="m289.17,253.73c-3.04-1.09-6.32-.86-9.12-.5-3.52.52-6.34,1.54-8.63,3.1-.46.32-.88.92-.67,1.67.19.37.45.68.74.92.8.69,2.02,1.04,3.61,1.04,1.29,0,2.6-.22,3.47-.37l.3-.05-.12-.79-.48.06c-1.83.21-3.9.45-5.53-.41,1.05-.73,2.13-1.37,3.21-1.88.6-.28,5.97-2.72,11.06-1.68,1.34.27,2.05.66,2.26,1.23.13.36-.02.83-.19,1.37l-.02.06s-.02.05-.03.09c-1.05.42-2.34.62-2.96.72l-.3.05.1.78.3-.03c.76-.07,1.53-.21,2.3-.41.3-.09.64-.19.98-.31.69-.25,1.66-.69,2.08-1.75.29-1.44-1.01-2.51-2.34-2.91Z"/>
</svg>