<?xml version="1.0" encoding="UTF-8"?>
<svg id="Livello_23" data-name="Livello 23" xmlns="http://www.w3.org/2000/svg" viewBox="0 0 595.28 841.89">
  <defs>
    <style>
      .cls-1 {
        fill: #354f9d;
      }
    </style>
  </defs>
  <path class="cls-1" d="m422.34,514.74s-.01.02-.01.02v.04s0-.02.01-.06Z"/>
  <path class="cls-1" d="m294.79,317.28c24.24-2.7,57.64-1.66,75.77,16.73,0,0,.11-.1.11-.1-18.23-18.4-51.58-19.38-75.87-16.63Z"/>
  <path class="cls-1" d="m298,298.49s.04-.14.04-.14c-7.6-1.51-19.5,6.59-25.72,10.77,6.23-4.14,18.13-12.14,25.68-10.62Z"/>
  <path class="cls-1" d="m379.79,552.78c1.96-1.12,4-2.07,6.11-2.78,3.36-1.22,7.98-1.62,11.91-1.61,4.05-.1,8.05.86,11.49,3.04-1.77-1.41-3.83-2.4-6.01-3-2.87-1.31-5.23-2.08-6.87-2.31-1.52-.22-3.12-.07-4.55.52-1.19.5-3.38,1.72-4.55,2.26.04,0,.09-.02.13-.03-.61.18-1.19.38-1.74.61-2.12.83-4.12,1.94-5.93,3.3Z"/>
  <path class="cls-1" d="m213.51,498.87c-1.31-6.21-2.98-12.36-5.5-18.2.08-.03.14-.07.15-.12,2.39-9.19,1.11-19.07-3.55-27.34-.09-.17-.77.1-.72.19,4.55,8.08,5.87,17.7,3.69,26.7-.11.05-.21.11-.24.2-2.74,7.74-11.66,9.47-18.9,8.88-3.82-.31-7.63-1.21-10.91-3.23-2.94-1.81-5.33-4.34-7.25-7.19-.02-.03-.05-.05-.08-.06-.19-.18-.37-.36-.56-.55,0-.03-.04-.05-.08-.06-6.19-5.81-11.62-12.4-16.22-19.53-1.67-2.58-3.31-5.23-4.66-8-2.2-4.49-3.68-9.29-5.23-14.03-1.76-5.37-3.39-10.79-5.21-16.14-.04-.12-.07-.25-.1-.38-.03-.12-.07-.25-.1-.38-.07-.26-.13-.51-.2-.77-.06-.26-.13-.52-.19-.78-.07-.26-.13-.52-.19-.78-.07-.27-.13-.53-.19-.79-.07-.27-.13-.53-.19-.8-.06-.27-.12-.53-.18-.8-.06-.27-.11-.54-.17-.81-.06-.27-.11-.54-.17-.81-.05-.27-.11-.54-.16-.81-.05-.27-.1-.55-.15-.82-.05-.27-.1-.54-.14-.82-.05-.27-.1-.55-.14-.82-.04-.28-.08-.55-.12-.83-.04-.27-.08-.55-.12-.82-.03-.28-.07-.55-.1-.83-.03-.27-.06-.55-.09-.83-.02-.27-.05-.55-.07-.82-.03-.28-.05-.55-.07-.83-.02-.27-.03-.55-.05-.83-.01-.27-.02-.55-.03-.82,0-.27-.02-.55-.02-.82v-.82c0-.28.01-.55.01-.82,0-.27.02-.55.04-.82.01-.27.03-.54.05-.81s.04-.54.07-.8c.03-.27.06-.54.09-.81.03-.26.07-.53.11-.79.04-.27.08-.53.13-.8.05-.26.1-.52.16-.78.05-.26.11-.52.17-.78.07-.26.13-.52.2-.77.07-.26.15-.51.23-.77.08-.25.16-.5.25-.75.08-.26.18-.51.27-.75.1-.25.2-.5.3-.74.11-.25.22-.49.33-.73.11-.25.23-.49.36-.72.07-.15.15-.29.22-.44.08-.14.16-.28.25-.41.09-.13.18-.26.28-.4.1-.13.2-.27.3-.41.03-.04.06-.07.08-.11.12-.13.22-.28.32-.41.12-.16.25-.32.38-.48.04-.05.09-.11.13-.16.21-.26.43-.5.65-.75.27-.31.55-.62.83-.93.26-.29.51-.61.78-.87,4.16-4.53,11.44-4.56,16.93-2.85,3.64,1.13,7.05,2.97,10.64,4.26,4.06,1.45,8.22,2.61,12.44,3.51.35.07,1.61-.48,1.19-.57-4.74-1.01-9.43-2.33-13.96-4.08-3.7-1.43-7.29-3.43-11.21-4.22-5.81-1.16-13.1-.57-17.34,4.05l-.03.04-.94,1.3c0-.06,0-.11-.02-.17-1.13-14.27-2.48-29.13-4.01-44.16-1.34-13.23-2.78-26.13-4.29-38.5,3.27-3.87,6.61-7.68,10.13-11.33,3.67-3.8,7.54-7.55,11.96-10.47.29-.19-.43-.1-.56-.01-4.35,2.88-8.18,6.54-11.8,10.28-3.41,3.51-6.64,7.18-9.8,10.91-.31-2.53-.62-5.04-.94-7.51-1.09-8.65-2.23-17.06-3.38-24.98,4.52-18.3,12.49-36.31,23.69-53.53,2.91-4.47,6-8.78,9.2-12.81l.09-.12-.14-.28-.14-.02c-.09-.01-.7-.03-.92.24-11.91,15.02-21.36,32.03-28.1,50.54-1.93,5.31-3.56,10.67-4.87,15.95-.04.08-.05.16-.04.24,2.02,13.93,3.92,28.65,5.81,45.02,1.75,15.25,3.38,30.96,4.82,46.68.78,8.39,1.48,16.7,2.12,24.74.01.07.01.14.01.21,0,.45-.1.74-.17.89-.01.02-.08.13-.13.22l.15-.21c-6.5,9.61-3.98,22.66-1.16,33.36,1.63,4.8,3.11,9.66,4.67,14.48,1.52,4.73,2.98,9.51,5,14.05,2.87,6.46,7.06,12.51,11.42,18.04,3.15,4,6.6,7.74,10.31,11.22.76,8.55,1.23,17.23.85,25.81-.18,3.92-1.12,7.83-.8,11.76.31,3.8,1.6,7.45,3.68,10.64.13.2.8-.08.73-.19-2.09-3.19-3.38-6.84-3.69-10.65-.32-3.92.63-7.83.8-11.75.36-8.24-.05-16.56-.76-24.77,2.14,3.14,4.89,5.9,8.26,7.7,3.66,1.94,7.86,2.67,11.97,2.81,6.73.24,14.5-1.81,17.58-8.26,8.34,19.88,6.71,42.77,17.42,61.81,2.67,4.76,6.09,9.06,10.33,12.51.15.12.78-.17.69-.25-16.83-13.66-18.33-37.03-22.47-56.67Z"/>
  <path class="cls-1" d="m332.87,502.84c8.09-10.24,15.57-20.94,22.39-32.06.01-.02-.12-.01-.14.02-6.82,11.11-14.3,21.81-22.38,32.04-.03.04.11.02.13,0Z"/>
  <path class="cls-1" d="m367.74,458.24c-.08-.14-.28-.08-.36.05-3.01,5.04-1.82,11.48,1.97,15.75,1.49,1.68,3.22,3.02,5.5,3.34.16.02.39,0,.51-.14.05-.06.07-.12.06-.18.15-.07.16-.16.08-.25-.15-.19-.63-.38-.74-.43-.52-.26-1.01-.57-1.5-.89-1.1-.71-2.14-1.52-3.08-2.43-1.8-1.74-3.34-3.96-3.58-6.52-.11-1.21.08-2.42.52-3.55.02-.06.05-.12.07-.18.02-.06.05-.12.08-.18.11-.25.24-.5.32-.76.21-.66-.09-1.26-.13-1.92-.02-.37,0-.76.08-1.13.02-.09.23-.52.2-.59Z"/>
  <path class="cls-1" d="m422.71,511.5v-.07c-.04-.49-.13-.96-.34-1.4-.41-.88-1.13-1.57-1.9-2.13-.3-.22-.62-.42-.94-.61-1.94-1.14-4.43-2.52-6.76-2.22-1.03.14-1.97.62-2.87,1.12-2.03,1.12-3.75,1.62-6.09,1.32-2.88-.38-5.6-1.23-8.54-1.19-2.72.04-5.42.58-8.01,1.4-5.58,1.78-10.52,4.88-15.65,7.62-5.27,2.82-10.96,5.53-16.93,6.45-.53.05-1.05.1-1.57.14-1.82.14-3.65.26-5.47.3.02,0,.12-.3.15-.35.12-.21.4-.35.57-.52.21-.21.28-.58-.18-.46-.1.03-.19.08-.28.13-.93.55-1.9,1.07-2.8,1.65-.94.6-1.81,1.34-2.7,2.01-.07.06-.15.13-.17.22-.01.13.13.24.27.24s.26-.07.37-.15c1.22-.79,2.5-1.53,3.93-1.83.77-.17,1.55-.16,2.34-.2.87-.04,1.75-.07,2.62-.1,3.43-.12,6.92-.12,10.31-.62,3.4-.51,6.81-.68,10.24-.85.64-.04,1.27-.07,1.91-.1,9.57-.48,19.18-.83,28.71-1.8,5.62-.58,11.19-1.53,16.58-3.25.1.16.19.33.27.48.15.27.27.52.37.76.09.2.16.38.21.54.08.22.14.41.17.55.01.01.01.03.01.04.05.17.06.27.06.27,1.23,5.06-1.86,10.65-5.09,14.4-3.66,4.22-8.54,7.27-13.91,8.75-.06-.02-.14-.02-.24,0-5.47,1.52-11.22,1.69-16.77.51-.23-.05-.85.31-.44.39,5.18,1.1,10.53,1.04,15.68-.14.07.02.16.04.27.01,6.1-1.3,11.7-4.56,15.83-9.23,3.44-3.88,6.71-9.72,5.36-15-.01-.04.05-.16.07-.2.02-.08.05-.15.08-.23.05-.15.09-.3.14-.45.1-.31.19-.61.27-.92.35-1.22.57-2.49.73-3.75.07-.51.16-1.02.13-1.54Zm-2.63,4.14s-.04,0-.06.01c-10.15,3.37-20.89,3.78-31.48,4.42-6.27.39-12.55.71-18.83,1.02.15.02-.55.06-3.09.15,1.02-.05,2.05-.1,3.07-.15-.38-.04-3.24,0-3.35,0-2.96.08-5.91.26-8.86.48,7.95-1.94,15.08-6.58,22.32-10.3,5.44-2.8,11.53-5.15,17.75-4.45,2.57.28,5.06,1.21,7.66,1.19.98-.01,1.96-.15,2.87-.5,1.27-.47,2.35-1.35,3.62-1.82,1.95-.71,3.84.22,5.57,1.06,1.32.64,2.68,1.33,3.68,2.43,1.55,1.7,1.36,5.31-.87,6.46Z"/>
  <path class="cls-1" d="m405.71,503.42c.09-.07-.05-.14-.12-.08-1.38,1.12-3.29.38-4.26-.9-1.09-1.44-1.23-3.3-1.35-5.04,0-.09-.18-.07-.18.01.13,1.9.29,3.99,1.66,5.46,1.07,1.15,2.94,1.6,4.24.55Z"/>
  <path class="cls-1" d="m302.27,392c8.49-5.91,18.3-9.69,28.49-11.08-8.01,1.28-15.79,3.88-22.99,7.7-.86.45.43.64.89.39,9.83-5.21,20.8-8.04,31.93-8.23.52,0,1.54-.8.57-.79-.64.01-1.29.03-1.93.06-13.39.15-26.6,4.35-37.61,12.01-.13.09.51.03.65-.07Z"/>
  <path class="cls-1" d="m304,405.03c13.48,7.64,29.36,4.3,43.64,1.26.12-.03.2-.09.24-.15,1.15-.25,2.02-1.07,2.39-2.23.63-1.93-.52-3.79-1.67-5.27-2.71-3.5-5.71-7.15-9.57-9.43-3.93-2.33-8.5-2.57-12.96-2.17-4.29.38-8.55,1.41-12.49,3.15-4.29,1.89-8.14,4.64-11.13,8.26-.18.23.54.16.67,0,.38-.47.79-.92,1.2-1.35.18,4.46,2.75,8.3,6.44,10.21-2.12-.68-4.19-1.56-6.21-2.71-.28-.16-.91.23-.55.43Zm13.24,3.51c6.13-.64,10.46-6.13,9.9-12.06,0-.02.01-.05.01-.07s-.01-.03-.02-.04c-.06-.54-.14-1.08-.28-1.61-.35-1.35-.93-2.57-1.72-3.61-.67-.99-1.59-1.8-2.73-2.35-.47-.26-.96-.47-1.49-.64.65-.14,1.29-.27,1.94-.37,1.95-.32,3.98-.55,6-.57,1.21.23,2.46.48,3.57,1.04.81.41,1.49,1,2.13,1.64,2.18,2.16,3.6,4.8,3.81,7.91.01.13.74,0,.72-.2-.2-3.13-1.65-5.78-3.85-7.96-.67-.66-1.37-1.27-2.22-1.68-.63-.31-1.29-.52-1.97-.69,1.6.13,3.18.43,4.68.96,3.56,1.28,6.4,3.88,8.87,6.66,1.33,1.5,2.68,3.04,3.83,4.68.67.95,1.27,2.06,1.31,3.24.04,1.22-.63,2.73-1.94,2.99-.07-.04-.16-.06-.29-.03-10.1,2.15-21.06,4.49-31.35,2.82.36,0,.73-.02,1.09-.06Zm-5.8-1.5s0,0,0,0c-.02,0-.03-.02-.04-.02.01,0,.03.01.05.01Z"/>
  <path class="cls-1" d="m423.2,406.11c3.08-.45,6.04-1.54,8.67-3.2.41-.26-.23-.31-.44-.18-2.47,1.57-5.23,2.6-8.12,3.02-.33.05-.62.43-.11.36Z"/>
  <path class="cls-1" d="m417.93,415.12c3.9,1.07,8.03.95,11.86-.34.12-.04,0-.08-.06-.05-3.76,1.27-7.83,1.38-11.66.32-.04-.01-.2.06-.14.07Z"/>
  <path class="cls-1" d="m423.44,375.9c4,.06,7.82,2.31,9.83,5.77.1.18.78-.09.72-.19-2.07-3.55-5.98-5.81-10.08-5.87-.14,0-.41.02-.51.14-.07.08-.14.15.04.16Z"/>
  <path class="cls-1" d="m352.87,416.05c-2.16,4.09-5.11,7.72-8.65,10.69-.04.03.12.02.16-.01,5.8-4.87,9.93-11.5,11.75-18.85.01-.04-.1,0-.12,0-1.92.65-3.84,1.31-5.76,1.96-.12.04,0,.06.06.04,1.3-.44,2.6-.88,3.9-1.33.34-.12,1.47-.71,1.68-.35.12.22-.36,1.32-.44,1.6-.66,2.16-1.52,4.26-2.58,6.25Z"/>
  <path class="cls-1" d="m333.95,419.12c.1-.02.08-.1-.02-.08-5.17,1.23-10.5,1.66-15.81,1.28-.05,0-.2.08-.11.09,5.35.39,10.72-.04,15.93-1.29Z"/>
  <path class="cls-1" d="m434.6,323.61c-5.48,1.45-10.51,4.29-14.57,8.24-.06.06.08.07.12.03,4.04-3.92,9.03-6.75,14.47-8.19.09-.02.07-.11-.02-.08Z"/>
  <path class="cls-1" d="m290.04,249.99c13.18-1.32,26.61-1.16,39.69,1.09,6.84,1.18,13.58,2.97,20.04,5.54h0c.07.04.15.06.22.08.08.03.16.06.23.09,0,0,0,0,0-.01,1.19.44,2.4.81,3.63,1.11,4.2,1.11,8.66,1.09,12.83-.25l.17-.05s.1-.13.1-.13c2.76-3.88,5.07-8,7.11-12.26,1-2.09,1.93-4.22,2.79-6.39,7.52-5.2,12.81-13.28,14.53-22.28.01-.06-.14-.04-.15.01-1.7,8.91-6.91,16.92-14.32,22.11,6.93-17.55,9.07-37.34,3.16-55.42-3.78-11.2-9.83-21.66-18.13-30.13l-.67.71c12.94,13.38,20.99,31.68,21.28,50.36.02,18.58-5.8,37.22-16.31,52.54-1.96.34-3.99.55-5.99.56-1.78-.05-3.55-.34-5.31-.69-5.98-1.51-11.81-3.53-17.42-6.04-2.05-1.16-4.19-2.18-6.37-3.1-5.87-3.12-11.45-6.8-16.63-11.01-11.87-9.66-21.4-22-27.76-35.91-3.75-8.19-6.38-16.87-7.81-25.77.07.4-.07.84,0,1.25,2.55,15.79,8.91,30.91,18.43,43.77,7.38,9.96,16.65,18.45,27.12,25.07-.26-.1-.52-.19-.78-.29-5.48-2.02-11.04-3.86-16.63-5.55-12.78-3.87-26.51-6.43-37.13-15.1-5.64-4.6-10.12-10.73-11.67-17.93.09.4-.09.85,0,1.25,2.98,13.82,15.66,22.26,28.11,26.83,6.16,2.26,12.54,3.79,18.83,5.64,5.48,1.62,10.92,3.39,16.3,5.31,2.55.91,5.13,1.85,7.68,2.87-7.07-1.96-14.32-3.12-21.67-3.82-8.91-.84-18.02-1.29-26.59-4.09-5.23-1.71-10.2-4.68-13.03-9.54.18.31-.18.94,0,1.25,5.21,8.93,16.69,11.01,26.08,12.31,8.62,1.19,17.34,1.4,25.92,2.95,4.96.9,9.83,2.18,14.58,3.83-7.2-1.57-14.58-2.4-21.92-2.7-8.46-.35-16.96,0-25.39,1-6.98.77-14.11.04-20.95-1.38-7.3-1.52-14.52-3.87-21.14-7.34.16.09-.18,1.16,0,1.25,6.62,3.47,13.84,5.82,21.14,7.34,3.67.76,7.42,1.33,11.19,1.57-1.54.28-3.08.57-4.61.89-7.02,1.46-13.95,3.38-20.68,5.85-.07.03-.04.31,0,.61-.09-.22-.19-.44-.19-.44-3.82,1.56-7.57,3.31-11.27,5.13-7.61,3.66-25.14,13.15-32.87,17.22,0,0,.2.39.2.39,12.85-6.58,31.04-16.08,44.16-21.75,0,.05-.01.09-.03.09,12.18-4.48,25.01-7.2,37.91-8.49Z"/>
  <path class="cls-1" d="m364.95,254.73c-6.69-8.06-15.91-13.59-23.56-20.65-8.12-7.49-15.81-16.06-21.18-25.76-2.99-5.41-5.21-11.23-6.26-17.33.07.4-.07.84,0,1.25,1.9,11.01,7.58,20.87,14.58,29.43,3.5,4.28,7.33,8.31,11.29,12.17,3.94,3.84,8.3,7.22,12.6,10.64,4.43,3.53,8.9,7.12,12.54,11.49-.2-.24.21-1,0-1.25Z"/>
  <path class="cls-1" d="m367.9,248.99c-3.03-12.46-12.93-21.39-20.84-30.89-8.58-10.31-15.76-21.77-21.31-33.98-3.13-6.88-5.73-14-7.8-21.28.02.08-.02.17,0,.25,3.67,12.91,9.04,25.3,15.98,36.79,3.46,5.74,7.31,11.25,11.51,16.48,4.01,5,8.46,9.62,12.49,14.6,4.41,5.44,8.3,11.39,9.97,18.27-.02-.08.02-.17,0-.25Z"/>
  <path class="cls-1" d="m367.81,243.37c-1.98-14.68-15.72-23.63-20.85-36.93.03.07-.03.18,0,.25,5.13,13.3,18.86,22.25,20.85,36.93-.01-.08.01-.17,0-.25Z"/>
  <path class="cls-1" d="m429.64,225.68c-4.47,5.87-9.77,11.07-15.39,15.83-3.2,2.71-6.5,5.29-9.86,7.8-.04.03.04.22,0,.25,6.59-4.93,13.02-10.14,18.74-16.08,2.88-2.99,5.58-6.17,7.99-9.56,2.37-3.34,4.68-6.93,6.11-10.78,1.09-2.93,1.53-6.1.41-9.08.03.07-.03.18,0,.25,1.54,4.12-.08,8.44-2.03,12.12-1.72,3.24-3.74,6.33-5.97,9.25Z"/>
  <path class="cls-1" d="m420.21,208.92c-3.48,8.81-9.64,17.08-18.32,24.6-4.18,3.62-8.9,7.07-14.86,10.86-.15.09-.13.26-.11.4-.83.43-1.32.67-1.34.68l.02.04s.51-.25,1.35-.68l.21.03.14.21c1.3-.83,2.55-1.65,3.76-2.47,2.98-1.69,6.85-4.02,10.81-6.82,4.85-3.43,8.87-6.86,11.95-10.2,3.84-4.17,6.21-8.21,7.04-12.01h-.05c-1.86,8.56-11.34,16.78-18.96,22.16-3.7,2.62-7.33,4.83-10.22,6.48,9.77-6.66,16.86-13.2,22.08-20.36,4.7-6.44,10.25-16.48,10.02-27.79-.14-6.79-2.96-12.48-7.74-15.6l-.17.26-.21.03c-.02.1-.05.28.11.38,9.53,6.22,8.57,19.47,4.49,29.8Z"/>
  <path class="cls-1" d="m205.34,414.16c-.05-.41.05-.84,0-1.25-1.11-9.35-6.99-17.8-15.38-22.09.16.08-.18,1.16,0,1.25,8.38,4.29,14.27,12.74,15.38,22.09Z"/>
  <path class="cls-1" d="m216.23,396.9c-1.66,4.02-3.1,8.12-3.74,12.44-.06.41.06.84,0,1.25,1.15-7.76,5.03-14.57,7.52-21.91,2.28-6.69,2.68-13.88,1.98-20.88-.5-4.97-1.58-10.02-.06-14.91.12-.38-.12-.87,0-1.25-2.02,6.47-.07,13.35.25,19.91.25,5.03-.3,10.06-1.84,14.86-1.14,3.59-2.68,7.02-4.12,10.49Z"/>
  <path class="cls-1" d="m373.62,233.76c0-.06,0-.17,0-.24-1.18-21.24-8.14-42.04-19.87-59.78-3.35-5.06-7.09-9.86-11.17-14.35.04.04-.04.2,0,.25,14.26,15.69,24.18,35.17,28.61,55.9,1.28,6,2.09,12.1,2.43,18.23Z"/>
  <path class="cls-1" d="m240.94,169.86c-5.44,1.74-10.07,3.65-14.15,5.83l-.23.13.12.22c.06.11.16.14.25.14.11,0,.21-.04.21-.05h0c8.38-4.48,17.67-6.96,26.65-9.36,8.71-2.33,17.72-4.73,25.92-8.96,4.52-2.33,8.49-5.1,11.79-8.24l.11-.11-.07-.29-.14-.04c-.09-.03-.27-.01-.37.08-10.31,9.79-24.13,13.48-37.5,17.05-4.17,1.11-8.49,2.26-12.59,3.58Z"/>
  <path class="cls-1" d="m280.49,163.04c1.38-.74,2.82-1.37,4.3-1.94-1.5.55-2.98,1.16-4.39,1.91-.09.05.05.05.09.03Z"/>
  <path class="cls-1" d="m321.02,150.85c2.82-1.05,5.69-2.26,8.09-4.11.06-.05-.08-.03-.11-.01-2.31,1.78-5.06,2.96-7.77,3.98-3.43,1.3-6.95,2.32-10.49,3.29-5.59,1.52-11.24,2.83-16.83,4.34,1.89-.48,3.79-.93,5.63-1.4,7.2-1.82,14.5-3.49,21.48-6.1Z"/>
  <path class="cls-1" d="m289.04,159.72c1.62-.49,3.24-.94,4.87-1.38-3.08.77-6.17,1.63-9.11,2.76,1.4-.51,2.83-.96,4.25-1.38Z"/>
  <path class="cls-1" d="m175.24,198.63c.08.04.18.06.28.06.27,0,.58-.12.68-.33h0c7.01-13.91,20.74-21.71,31.03-25.8,9.31-3.7,19.24-5.94,28.84-8.11,5.66-1.28,11.5-2.6,17.17-4.2,9.46-2.68,16.9-5.73,23.44-9.59.38-.22.25-.48.22-.53-.16-.27-.68-.27-.92-.12-12.35,7.3-26.56,10.52-40.3,13.64-1.63.37-3.27.74-4.89,1.12-13.4,3.1-28.72,7.17-41,16.34-6.52,4.86-11.46,10.59-14.71,17.02-.1.21-.04.42.16.51Z"/>
  <path class="cls-1" d="m297.75,161.03c-.24.03-.45.18-.55.4-.07.17-.06.34.04.47.05.07.17.18.41.18.03,0,.06,0,.1,0,18.09-2.18,32.8-6.2,44.98-12.28,3.97-1.98,7.4-4.1,10.48-6.46,13.35,6.83,24.62,17.53,32.2,30.47,8.4,14.34,13.15,32.62,7.73,48.84-2.32,6.95-6.5,13.33-12.25,17.85-.11.06-.23.13-.34.19-.08.04-.12.11-.13.18-.97.74-1.98,1.42-3.04,2.05-.42.24.24.25.43.14.98-.58,1.92-1.22,2.83-1.9h.03s.12.22.12.22c0,0,0,0,0,0,11.37-6,21.14-14.85,28.26-25.58,4.4-6.63,7.23-12.66,8.67-18.43.19-.76.34-1.49.46-2.19.33-1.73.49-3.53.26-5.3-.01-.1-.03-.19-.04-.29-.12-1.03-.33-2.03-.64-3.03-2.22-7.13-7.66-11.86-11.84-14.58l-.17.26-.21.03c-.02.1-.05.28.11.38,5.01,3.26,8.74,7.42,10.78,12.04.74,1.68,1.24,3.34,1.47,4.94.2,1.7.12,3.48-.21,5.46-.27,1.41-.66,2.78-1.06,4.05-3.34,10.63-10.39,21.31-19.86,30.06-4.27,3.95-8.99,7.4-14.05,10.29.88-.76,1.71-1.57,2.5-2.41l.02.04c.06.1.17.15.29.15.06,0,.12-.01.17-.04h0c10.52-5.9,18.27-16.1,21.27-28,2.92-11.6.66-24.19-6.19-34.52-3.78-5.7-8.85-10.48-14.65-13.81-.17-.1-.39,0-.47.13l-.11.25.22.12c10.31,5.93,17.85,16.08,20.68,27.87,2.73,11.35.44,23.63-6.28,33.7-3.72,5.58-8.69,10.23-14.36,13.51.05-.06.1-.13.16-.19.37-.41.72-.84,1.07-1.27.16-.2.33-.4.48-.6.37-.48.73-.96,1.08-1.46.26-.36.51-.72.75-1.09.14-.21.27-.42.41-.63,6.56-10.16,8.9-22.89,6.17-34.73.02.08-.02.17,0,.25,2.3,10.01.89,20.63-3.62,29.75,3.54-7.82,4.45-16.56,3.47-25.04-1.87-16.18-9.97-31.53-21.24-43.14-6.08-6.27-13.18-11.5-20.97-15.44,0-.04,0-.07,0-.1-.02-.16-.14-.3-.32-.37-.24-.1-.51-.06-.7.08-13.07,10.08-30.44,14.29-42.37,16.59-4.02.77-8.2,1.42-12.42,1.93Z"/>
  <path class="cls-1" d="m316.84,230.46s-.17.01-.13.06c8.52,10.27,19.81,18.13,32.39,22.59,3.52,1.25,7.13,2.22,10.8,2.92.05,0,.17-.06.09-.08-16.8-3.21-32.23-12.33-43.15-25.49Z"/>
  <path class="cls-1" d="m361.23,255.32c-13.69-4.32-26.16-12.06-36.11-22.42-.03-.03-.17.02-.14.05,9.95,10.36,22.43,18.11,36.12,22.43.04.01.17-.05.12-.07Z"/>
  <path class="cls-1" d="m421.33,219.51c.04-.06-.11-.05-.14,0-6.24,11.07-14.45,20.93-24.21,29.06-.06.05.08.06.12.03,9.76-8.14,17.98-18.01,24.23-29.09Z"/>
  <path class="cls-1" d="m132.64,298.39s.11.03.13,0c2.94-3.83,6.37-7.26,10.2-10.2.06-.05-.08-.04-.11-.01-3.84,2.94-7.28,6.38-10.22,10.22Z"/>
  <path class="cls-1" d="m148.19,282.02c-6.33,4.27-11.95,9.53-16.6,15.59-.06.07.08.1.12.05,4.65-6.04,10.25-11.3,16.58-15.56.08-.05-.04-.11-.1-.07Z"/>
  <path class="cls-1" d="m172.62,274.99c.64-.39,1.29-.77,1.94-1.15.11-.07.25-.15.38-.23.03,0,.05,0,.07,0,.3-.18.61-.36.91-.54.08-.05-.04-.07-.09-.04-10.31,5.88-19.89,12.98-28.52,21.13-.06.06.08.06.12.02,4.36-4.12,8.97-7.99,13.79-11.56,2.47-1.82,5-3.57,7.58-5.24,1.26-.81,2.53-1.61,3.82-2.38Z"/>
  <path class="cls-1" d="m152.59,293.01c9.25-8.56,19.55-15.93,30.64-21.9.08-.05-.05-.04-.08-.02-11.11,5.99-21.43,13.36-30.69,21.93-.03.03.1.02.13,0Z"/>
  <path class="cls-1" d="m167.83,287.94c12.15-7.73,25.02-14.28,38.42-19.55.48-.19.03-.32-.26-.21-13.51,5.31-26.48,11.91-38.72,19.7-.31.2.41.15.56.05Z"/>
  <path class="cls-1" d="m217.34,268.85c-11.11,4.74-21.87,10.29-32.17,16.6-.08.05,0,.14.07.09,10.3-6.31,21.05-11.86,32.17-16.6.09-.04.01-.13-.07-.09Z"/>
  <path class="cls-1" d="m221.39,268.24c-11.11,4.74-21.87,10.29-32.17,16.6-.08.05,0,.14.07.09,10.3-6.31,21.05-11.86,32.17-16.6.09-.04.01-.13-.07-.09Z"/>
  <path class="cls-1" d="m151,416.96c-2.84,11.59-5.82,25.58,2.79,35.59.15.17.84-.08.68-.27-8.56-9.95-5.56-23.89-2.74-35.42.06-.23-.67-.12-.72.1Z"/>
  <path class="cls-1" d="m167.95,417.98c.15-.15.31-.28.46-.42.17-.15.35-.3.53-.45,2.81-2.38,6.01-4.24,9.45-5.54,2.77,5.23,4.42,11.05,4.48,17.27,0,.02,0,.03,0,.03,0,.28,0,.55,0,.83,0,.34.73.21.73-.07.02-2-.11-4-.41-5.98-.29-1.93-.74-3.83-1.33-5.69-.58-1.84-1.3-3.64-2.15-5.38-.84-1.74-1.81-3.42-2.88-5.03-1.08-1.62-2.26-3.17-3.52-4.64-1.27-1.48-2.64-2.89-4.07-4.22-1.44-1.34-2.95-2.6-4.53-3.77-1.57-1.18-3.21-2.28-4.89-3.29-.95-.57-1.95-1.08-2.9-1.65-1.12-.67-2.28-1.39-3.56-1.68-2.12-.47-4.4,0-6.25,1.1-3.25,1.96-5.24,5.58-6.3,9.13-2.58,8.68.01,17.67,2.52,26.03.1.35.83.15.73-.19l-.33-1.11s-.01-.03-.02-.08c-.22-.98-2.37-10.79-1.34-18.32,1.08-7.95,3.83-11.49,3.83-11.49.41-.58,1.01-1.28,1.85-1.92.89-.68,1.93-1.17,3.01-1.48.54-.16,1.1-.27,1.66-.35.55-.07,1.11-.17,1.66-.07.46.09.9.27,1.32.47,1.08.52,2.13,1.15,3.16,1.76.95.57,1.89,1.16,2.81,1.78,1.85,1.24,3.62,2.58,5.31,4.03,1.68,1.44,3.28,2.99,4.77,4.63,1.48,1.63,2.85,3.36,4.09,5.18.24.35.48.71.71,1.07.57.87,1.1,1.77,1.59,2.69-3.92,1.47-7.54,3.69-10.65,6.5-2.22,2-4.17,4.3-5.77,6.83-3.89,6.13-6.62,15.53-.34,21.15,2.93,2.61,6.93,3.58,10.74,4,.33.04.75-.43.27-.48-3.39-.37-6.92-1.19-9.69-3.29-3.07-2.34-4.47-6.12-4.33-9.91.26-6.83,4.6-13.47,9.56-17.98Z"/>
  <path class="cls-1" d="m161.15,414.97c4.42-3.27,9.6-5.38,15.06-6.1.39-.05.56-.58.07-.51-5.65.74-11.02,2.91-15.6,6.29-.39.29.2.52.48.31Z"/>
  <path class="cls-1" d="m188.43,444.67c1.66,3.21,5.96,4.37,6.91,8.05.07.28.8.09.72-.19-.94-3.63-5.05-4.81-6.81-7.87-1.43-2.49.09-5,.74-7.46.71-2.7.6-5.52-.2-8.18-.08-.28-.81-.08-.72.19.86,2.84.9,5.83.03,8.68-.69,2.24-1.84,4.51-.66,6.79Z"/>
  <path class="cls-1" d="m176.54,450.11c1.02.36,2.08.24,3.13.13,1.03-.11,2.24-.2,3.1.52.8.67,1.04,1.82,1.5,2.71.41.78.94,1.49,1.78,1.85.24.11.9-.24.57-.38-.96-.42-1.48-1.32-1.9-2.24-.4-.88-.69-1.86-1.53-2.44-1.87-1.29-4.23.12-6.22-.59-.26-.09-.85.28-.43.43Z"/>
  <path class="cls-1" d="m302.71,359.96c15.14-2.27,30.64-3.26,45.72-.22.65.23,1.31.45,1.95.69,5.14,1.97,10.04,4.5,14.59,7.59-.05-.04-.06-.14-.05-.27.18.14.37.26.55.4-.03-.03-.04-.06-.05-.1-.02-.13.02-.35.06-.57.04-.19.07-.37.04-.49-.01-.04-.02-.07-.05-.09-.91-.81-1.84-1.59-2.79-2.35v-.03s0-.04,0-.06c.19.16.4.3.59.46-.08-.07-.05-.28-.01-.52.58.45,1.15.91,1.71,1.39-.2-.17.22-1.07,0-1.25-.19-.17-.4-.33-.6-.5.08.06.16.11.24.16-.18-.13.2-1.11,0-1.25-.41-.29-.84-.55-1.27-.83.05-.29.11-.58,0-.66-.38-.27-.77-.53-1.16-.79-.02-.03-.03-.06-.05-.09.03-.22.05-.42-.03-.48-.22-.17-.45-.32-.67-.48-.2-.28-.4-.55-.61-.82,0-.06-.02-.12-.05-.16-.16-.18-.34-.35-.5-.53-2.45-3.03-5.29-5.72-8.47-7.98.04.04-.01.56-.01.63,0,.06-.03.3-.02.47-1.78-1.04-3.64-1.94-5.57-2.66.1.04-.05.77-.04,1.1-1.93-.71-3.92-1.27-5.95-1.66.06.01-.05.94-.02,1.19-1.61-.39-3.23-.7-4.87-.93.04.01-.03.79-.02,1.11-3.92-.76-7.93-1.07-11.95-.9-.01,0-.01.3-.01.61h-.74c-2.48-.01-4.96.14-7.42.51-.06,0,.01.82.01,1.13-2.13.3-4.25.71-6.36,1.26-6.31,1.62-12.35,4.14-18.1,7.18-.18.09.16,1.16,0,1.25,6.24-3.3,12.9-6.01,19.8-7.6-2.25.54-4.47,1.18-6.65,1.94-.09.03-.01.52.02.88-.61.17-1.23.35-1.84.55-6.07,1.9-11.86,4.62-17.21,8.06-.2.12.18,1.13,0,1.25,1.91-1.23,3.88-2.36,5.89-3.39h0c1.63-.74,3.31-1.41,5-2.04-3.14,1.39-6.17,3.04-9.05,4.95-.2.13.19,1.12,0,1.25,3.9-2.59,8.07-4.69,12.42-6.32,0,.29.03.57,0,.57.43-.07.86-.13,1.29-.2.02.2.02.37-.02.38.77-.26,1.55-.5,2.32-.74Zm42.12-9.51s-.01.06-.01.09c-1.08-.37-2.17-.7-3.27-.99,1.11.25,2.2.55,3.28.9Zm-5.94-.3c-.23-.04-.47-.08-.7-.12-.16-.04-.33-.07-.49-.11.4.07.8.15,1.19.23Zm-4.7,3.56s.01.05.02.05c.64.13,1.27.29,1.9.43-1.6-.3-3.21-.54-4.83-.73.97.07,1.94.15,2.91.25Zm-4.34,2.82s.01.03.01.03c.17.02.35.04.52.05-4.82-.09-9.65.1-14.44.51,4.61-.6,9.27-.79,13.91-.59Zm-17.22-2.9v.14c-.85.12-1.7.26-2.54.42.84-.2,1.69-.39,2.54-.56Z"/>
  <path class="cls-1" d="m451.51,353.2v-.14s-.01.05-.01.08c-.14-.77-.42-1.52-.69-2,.18.31-.17.93,0,1.25.02.03.04.06.05.09v.08c-.04.09-.1.18-.14.27,0-.16,0-.31-.01-.46v-.1s0,.02-.01.02c-.01-.2-.06-.39-.16-.58-.02-.15-.03-.3.03-.41-.03.07-.08.13-.11.19-.06-.36-.17-.69-.33-.97.07-.92-.14-1.95-.78-2.47-.02-.14-.01-.27.05-.33-.07.07-.14.14-.21.21-.03-.02-.04-.04-.06-.05.02.01.03.04.03.07-.14.14-.29.27-.43.41-.01-.19-.06-.46-.09-.67.05-.04.1-.07.15-.1.19-.12-.18-1.14,0-1.25-.26.16-.51.33-.76.49-.46-11.85-1.03-24.05-3.77-35.86-1.41-6.07-3.42-11.87-5.98-17.23-1.59-3.32-3.38-6.6-5.12-9.78-.99-1.82-2.02-3.71-3-5.58-2.64-5.05-5.51-11.1-6.9-17.81,4.46-8.1,7.2-17.23,7.92-26.44.02-.22.01-.44,0-.66-.01-.19-.02-.39,0-.59l-.25-.02-.25-.02c-.72,9.24-3.48,18.39-7.99,26.49-.88-1.53-2.18-2.82-3.49-3.97-1.59-1.38-3.33-2.65-5.22-3.59-2.69-1.32-5.9-1.41-9-.99,14.57-7.3,26.68-19.36,33.88-34.01,1.47-3,3.92-7.83,1.51-11.02.2.26-.2.98,0,1.25,1.31,1.73.7,3.55-.07,5.4-.81,1.94-1.76,3.82-2.76,5.66-1.97,3.65-4.25,7.12-6.8,10.38-5.06,6.48-11.18,12.14-18.04,16.67-3.32,2.19-6.82,4.09-10.44,5.72,10.09-11.24,20.66-22.54,27.65-36.03,1.95-3.76,4.1-8.04,4.34-12.34.02-.37-.02-.91-.01-1.2-.22,3.96-2.12,7.89-3.88,11.39-1.76,3.54-3.83,6.92-6.05,10.18-4.59,6.73-9.85,12.99-15.23,19.1-2.87,3.26-5.79,6.48-8.68,9.73-.02,0-.03.04-.04.08-.11.04-.23.07-.35.1-.11.03.1,1.22,0,1.25,4.33-1.19,9.77-2.14,13.97-.07,1.84.91,3.55,2.15,5.1,3.49,1.29,1.12,2.57,2.37,3.47,3.84,1.71,8.64,5.96,16.43,10.07,23.96,1.39,2.55,2.82,5.18,4.13,7.79,4.98,9.94,8.07,21.42,9.43,35.11.69,6.81.98,13.77,1.22,20.03-2.76,1.76-5.44,3.68-8,5.76.24-.26.49-.51.74-.76.29-.2.57-.42.87-.61.18-.12.16-.22.07-.28.41-.38.84-.74,1.27-1.1.78-.53,1.57-1.03,2.39-1.49.25-.15.12-.21-.07-.21.76-.5,1.53-.97,2.34-1.39.43-.23.04-.65-.33-.45-.89.46-1.74.98-2.57,1.53.32-.21.63-.43.95-.64.32-.21-.41-.18-.57-.07-5.49,3.57-10.39,7.99-14.52,13.07-.07.09.01.13.14.14-.19.26-.37.51-.55.77-.59.73-1.17,1.47-1.72,2.23-.03.05.03.06.1.06-.01.01-.01.02-.02.02-.05.08-.02.13.03.16-.74.83-1.48,1.66-2.2,2.51-.03.02-.04.06-.05.12-.02.12.01.28.04.45.04.22.08.44.06.58-.01.04-.02.07-.05.1,5.3-3.54,10.93-6.56,16.83-8.98,1.45-.6,2.92-1.16,4.4-1.68.37-.13.74-.25,1.1-.37.15,4.96-.77,9.92-2.79,14.46-2.04,4.58-5.34,8.27-8.07,12.42-.98,1.49-1.75,3.02-2.37,4.59-.17-.09-.35-.19-.53-.28.24-.08.49-.3.25-.43-.37-.2-.71-.42-1.07-.63.16.06.31.13.46.19.07.03.15.02.24-.01.27-.01.67-.32.38-.46-.31-.15-.62-.31-.93-.46.15.03.29.06.44.09.28.07.87-.33.42-.47-.47-.15-.94-.32-1.4-.5.18-.1.3-.26.1-.36-.08-.04-.17-.08-.26-.12.21-.17.29-.38.03-.56-3.02-2.02-6.62-2.98-10.24-2.84-.1,0-.23.04-.35.09-.46-.02-.92-.01-1.39.04.03-.03.15-.08.42-.16.11-.04.38-.21.11-.22-.22-.01-.43,0-.64.01.04-.03.09-.07.13-.11.15-.13-.22-.1-.26-.09-.8.14-1.6.27-2.39.41-.06.01-.34.12-.41.19-.26.01-.56.02-.82.04.26-.08.46-.15.48-.18.18-.06.34-.12.41-.14.49-.16.02-.23-.25-.14-.22.07-.47.14-.71.21-.12-.02-.4.02-.49.06-.17.07-.35.14-.52.21,0-.07-.4-.03-.47,0-.42.15-.82.34-1.23.51.06-.1-.39-.04-.47-.01-.87.34-1.72.73-2.55,1.14-.22.09-.44.17-.66.26-.15.01-.34.04-.38.06-2.16,1.08-4.05,2.52-5.66,4.29-.34.34-.66.69-.96,1.06-.09.03-.18.07-.21.11-.27.37-.54.74-.79,1.12.3-1.77.98-3.49,2.18-5.11,2.44-3.29,6-5.57,9.44-7.68.42-.25-.22-.3-.43-.17-5.31,3.25-11.73,7.48-12.16,14.35-.26,4.05,1.43,8.03,2.8,11.76,1.48,4.02,3.09,8,4.84,11.92,1.19,2.69,2.47,5.34,3.78,7.97.1.23.19.45.29.67.25.54.49,1.08.77,1.6.18.35.39.68.59,1.01,1.97,3.77,4.07,7.48,6.28,11.11,4.15,6.83,9.6,13.75,7.29,22.23-2.51,9.25-11.04,14.63-18.73,19.3-.41.26.23.3.44.18,6.43-3.92,13.22-8.08,17.03-14.83,1.75-3.11,2.8-6.65,2.55-10.25-.28-4.05-2.23-7.73-4.31-11.13-2.97-4.85-5.89-9.68-8.62-14.64.01-.01.04-.02.05-.03-.83-1.98-1.76-3.91-2.58-5.89-.52-1.23-.98-2.49-1.46-3.74-.36-.93-.77-1.86-1.05-2.82-1.77-4.2-3.54-8.39-5.37-12.57.38.13.77.23,1.16.3,8.18,2.74,17.35,1.94,24.95-2.22.42-.22-.25-.19-.42-.09-6.89,3.76-15.06,4.59-22.55,2.47,1.69-.06,3.35-.59,4.78-1.53,3.03-1.57,4.98-4.76,5.2-8.33.24-3.83-1.4-8.14-4.9-9.74.88-.01,1.75-.05,2.62-.08,2.23-.04,4.45-.07,6.68-.1.54.08,1.07.17,1.6.28,1.08.25,2.15.51,3.22.76,1.19,1.25,2.38,2.49,3.57,3.73.18.19.64.04.7-.16.36.21.74.4,1.13.56h.01s.04.03.07.04c.09.04.25.01.38-.06-.91,2.66-1.36,5.45-1.4,8.42-.08,5.39.58,10.83,1.22,16.18.78,6.52,1.8,13.02,2.81,19.51.58,8.33-1.4,16.7-3.43,24.72-1.05,4.15-2.22,8.28-2.98,12.5-.79,4.38-1.23,8.83-1.31,13.28-.16,9.49,1.65,18.89.46,28.37-1.06,8.41-4.61,16.23-7.69,24.04-3.32,8.39-6.24,17.09-5.78,26.23-.03.04-.06.07-.06.12-.15,10.1-1.51,20.76-7.94,28.96-3.19,4.06-7.4,6.91-12.3,8.49-4.96,1.6-10.25,2.15-15.41,2.75-5.86.68-11.77,1.01-17.6-.05-5.43-.99-10.72-2.8-15.93-4.58-10.62-3.61-21.01-7.84-31.38-12.12-11.88-4.9-23.75-9.81-35.63-14.71-.22-.09-.88.23-.57.36,11.13,4.6,22.27,9.2,33.4,13.8,10.7,4.42,21.43,8.83,32.37,12.62.94.32,1.88.64,2.82.97,0,.01-.01.02-.01.04,2.13,16.49-7.46,31.12-15.93,44.34-2.41,3.76-4.79,7.54-6.93,11.46-.09.15.6.09.71-.11,7.72-14.08,18.89-26.76,22.27-42.85.88-4.16,1.14-8.41.65-12.63,4.2,1.43,8.46,2.77,12.8,3.64,5.51,1.11,11.09,1.04,16.66.48,9.75-.97,20.77-1.89,28.18-9.07,8.49-8.25,10.33-20.51,10.49-31.81.05-.04.08-.08.07-.12-.46-8.39,1.95-16.43,4.93-24.17,2.96-7.73,6.63-15.39,8.13-23.59,1.67-9.17.22-18.27-.03-27.47-.14-4.83.16-9.66.89-14.44.65-4.28,1.73-8.45,2.81-12.64,2.25-8.75,4.63-17.89,4-27-1.75-11.22-3.81-22.62-4.03-34-.1-5.27.8-10.22,3.63-14.73,2.62-4.2,6.01-7.84,8.16-12.34,2.3-4.85,3.37-10.2,3.19-15.56.1-.03.2-.07.3-.1.59-.2,1.36-.32,1.85-.74.64-.54.71-1.49.55-2.42Zm-21.3,8.34c.13-.19.26-.37.39-.55.17-.21.35-.4.52-.6.05.02.11.03.17.03-.36.37-.72.74-1.08,1.12Zm2.47-2.5c.48-.57.96-1.13,1.46-1.67.03.04.12.05.23.05-.57.53-1.13,1.07-1.69,1.62Zm-12.63,22.31c-.29,0-.58,0-.87-.01.34-.08.68-.14.96-.11.11.01-.05.04-.09.12Zm22.61-32.08c-.84.64-1.64,1.31-2.4,2.03-.67.51-1.32,1.05-1.95,1.61-.89.67-1.74,1.38-2.57,2.12,2.16-2.09,4.48-4.02,6.92-5.76Zm-6.95,6.92c.57-.66,1.17-1.3,1.78-1.91-.27.33-.53.66-.78,1.01-.34.29-.67.6-1,.9Zm3.87-1.03c-.84.55-1.68,1.09-2.52,1.65.26-.22.52-.44.78-.65.1-.03.19-.08.26-.14.37-.33.74-.64,1.11-.95,2.43-1.92,4.96-3.7,7.6-5.34-2.54,1.63-4.96,3.45-7.23,5.43Zm7.24-2.35s0,0,0,.01c-.31.15-.62.31-.93.47.98-.69,1.97-1.37,2.94-2.07-.55.66-1.23,1.21-2,1.59Zm3.13-2.55l-.03-.03s.02.03.02.05c-.04.12-.1.24-.16.35,0,.01-.01.02-.01.03v-.69c0-.05-.02-.15-.01-.19-.02.05-.05.1-.08.14-.02-.13-.04-.25-.04-.35.09.13.18.27.29.44.03.04.05.07.06.1-.01.05-.03.1-.04.15Zm.46,4.39c.31-.3.51-.7.55-1.16.02-.24.03-.5.03-.76.16.31.3.62.4.95-.18.48-.53.77-.98.97Z"/>
  <path class="cls-1" d="m404.13,468.75c-3.71-1.33-7.74-1.12-11.57-.62-3.84.57-7.68,1.69-10.95,3.92-.44.31-.86.89-.71,1.48.22.42.51.77.84,1.04,2.13,1.83,6.29,1.16,8.74.74-2.77.32-5.9.74-8.32-.93-.03-.02-.06-.04-.09-.06,1.93-1.42,3.65-2.36,4.88-2.95.36-.17,7.72-3.64,14.65-2.21,1.96.4,2.98,1.01,3.31,1.93.24.66-.01,1.39-.27,2.21-.04.11-.07.22-.11.33-1.43.61-3.25.91-4.18,1.06.96-.09,1.92-.26,2.85-.5.4-.12.84-.25,1.27-.4.99-.35,1.95-.87,2.35-1.88.34-1.66-1.36-2.77-2.69-3.16Z"/>
</svg>