<?xml version="1.0" encoding="UTF-8"?>
<svg id="uuid-10cffd8f-b504-46bc-aa00-11a9e3d014ca" data-name="Livello 7" xmlns="http://www.w3.org/2000/svg" viewBox="0 0 400 400">
  <defs>
    <style>
      .uuid-bdf97552-8f27-40f4-b188-89b0ad4f7b75 {
        fill: #232a56;
      }
    </style>
  </defs>
  <path class="uuid-bdf97552-8f27-40f4-b188-89b0ad4f7b75" d="m62.23,342.52s0,0,0,.01c.01,0,.02.01.03.02l-.03-.03Z"/>
  <path class="uuid-bdf97552-8f27-40f4-b188-89b0ad4f7b75" d="m62.25,342.55s.02-.02.02-.03c-.02,0-.03,0-.05,0,0,0,.03.03.03.03Z"/>
  <g>
    <path class="uuid-bdf97552-8f27-40f4-b188-89b0ad4f7b75" d="m236.61,373.92c.03.14-.08.42.08.46-.02-.14-.04-.28-.07-.42,0-.01,0-.03,0-.04Z"/>
    <path class="uuid-bdf97552-8f27-40f4-b188-89b0ad4f7b75" d="m55.65,224.07c.35.8.83,1.36,1.74,1.47-8-32.27-20.74-77.09,19.59-92.39-9.13.71-15.26,7.6-20.83,13.9-3.41,3.05-4.5,7.38-6.25,11.34-1.25,1.18-1.59,2.74-1.78,4.36.05.37.02.72-.36.93-.05.43-.09.85-.14,1.28.03.63.26,1.28-.25,1.84-.04,1.45-.08,2.89-.12,4.34-.71.52-.48,1.21-.33,1.88-.04.69-.09,1.37-.13,2.06.54.27.45.84.61,1.29-.27.32-.59.54-1.02.54-.04,3.02-.36,6.23,1.45,8.9.25,12.93,2.57,26.23,7.81,38.25Z"/>
    <path class="uuid-bdf97552-8f27-40f4-b188-89b0ad4f7b75" d="m231.6,182.68c-.49-.67-.85-1.39-.88-2.24-1.33-1.53-2.23-3.49-4.23-4.37-1.21.21-.96,1.93-2.18,2.13-.64-1.39-1-3.09-2.32-3.96-2.33.24-4.43-.7-6.57-1.27-.75-.03-1.41-.12-1.87-.83-1.81-.57-2.83-2.13-4.06-3.35-2.98-2.9-2.02,2.13-7.38-.59-.28,0-.55-.02-.82-.03h-.01c-.73-.19-1.46-.38-2.2-.57-1.16-.65-3.27-.72-3.96.6-1.03-.05-2.06-.1-3.09-.14-.92-.69-2.1-.6-3.09-1.06-2.27.56-4.71-.22-7.05-.23-1.37-.08-2.73-.01-4.11.22-2.48.31-4.96.63-7.44.94-.8-.02-1.58.12-2.27.52-1.35.65-.67,1.48.61,1.7.58.01,1.16.02,1.73.03.62.76,1.37.32,2.08.24,1.74.39,3.59.03,5.37.12,9.89-1.52,18.03,5.54,27.24,7.81,1.75.39,3.08,1.98,5,2.11.33.93,2.73-.1,3.66.79.84,0,1.46.5,2.11.93.88.06,1.04,1.08,1.77,1.33,4.52-.21,6.49,5.73,7.66,2.23.38,0,.75,0,1.13.01-.18,3.43,5.86-1.29,4,3.95-.28.11-.36.26-.08.47-.04,1.46-.07,2.92-.1,4.38-.05.19-.1.38-.14.58.37.95-.85,2.54,1.14,2.83.05-2.01.1-4.03.15-6.04-.06-.49-.27-1.02.32-1.35.11-.75.68-1.06,1.29-1.33.45-2.13-1-4.44-1.41-6.56Zm-18.01-5.28c.45.44.92.86,1.39,1.29-.49-.43-.98-.86-1.39-1.29Zm4.03,4.85c-.1-.52-.31-.98-.59-1.42.21.3.41.6.59.93v.49Z"/>
    <path class="uuid-bdf97552-8f27-40f4-b188-89b0ad4f7b75" d="m274.35,328.39c.74-1.13,1.52-2.24,2.33-3.32.7-.94,1.85-1.85,1.96-3.09-1.78.34-4.31,4.9-5.56,6.44-3.28,5.83-7.12,12.57-5.16,19.45,1.26,7.05,6.26,12.18,12.08,15.96.89.63,1.83,1.2,2.84,1.61.35-.02,3.25,1.27,2.74.17-13.19-8-21.36-23.36-11.23-37.21Z"/>
    <path class="uuid-bdf97552-8f27-40f4-b188-89b0ad4f7b75" d="m190.71,258.65c.34-.03.67-.08.84-.43-.28.14-.56.29-.84.43,0,0,0,0,0,0-2.94.5-5.79,1.72-8.68,2.6-7.9,3.84-22.8,5.38-27.89,12,2.37-.24,3.65-1.96,5.44-2.72,10.09-3.19,19.78-7.25,29.77-10.64.63-.14,1.29-.39,1.36-1.22Z"/>
    <path class="uuid-bdf97552-8f27-40f4-b188-89b0ad4f7b75" d="m264.53,77.95c-.26.68-.8,1.12-1.35,1.54-.33.5-.67,1.01-1,1.51-1.47,3.23-3.53,6.2-4.42,9.72.19.78.37,1.57.56,2.35.14-.34.29-.68.43-1.02-.12-.37-.17-.73.29-.92.18-1.74.8-3.6,1.74-4.9,5.26-11.97,17.81-19.45,30.57-20.36,0,0,.13-.05.13-.05l.08.11c3.07-.88,6.36-.4,9.51-.31,4.77.41,9.54.74,14.21,1.87.06-1.13-1.16-.59-1.84-1.56-.21-.11-.42-.23-.63-.34-1.6.08-3.14-.25-4.67-.64-2.63.39-5.17-.33-7.75-.58-2.1-.2-4.21-.22-6.32-.31-1.34.19-2.67.6-4.03.56-2.95-.12-5.78.33-8.39,1.78-.56.24-1.15.2-1.74.12-.68-.14-.96.39-1.32.8-2.99,1.65-6.37,2.65-8.72,5.34-.25.51-.64.86-1.18,1.05-.73.92-1.5,1.78-2.47,2.46-.14.18-.28.36-.42.54-.42.41-.84.83-1.26,1.24Z"/>
    <path class="uuid-bdf97552-8f27-40f4-b188-89b0ad4f7b75" d="m266.22,76.18h0s0-.01.01-.02v.02Z"/>
    <path class="uuid-bdf97552-8f27-40f4-b188-89b0ad4f7b75" d="m210.91,256.7c1.6.23,2.91,1.29,4.49,1.45.32-.07.46-.47.37-.79-1.36-2.66-5.57-2.13-8.12-2.34-7.89.16-8.33,1.28-10.26,8.59-2.39,9.18,8.15,13.92,15.61,14.98.38.08.91.08,1.02-.3-6.8-2.28-17.23-4.81-15.59-14.14.46-2.48.81-5.07,2.42-6.91,2.87-1.62,6.91-.87,10.06-.54Z"/>
    <path class="uuid-bdf97552-8f27-40f4-b188-89b0ad4f7b75" d="m202.15,272.85s-.1.05-.1.05c0,.05.07-.03.1-.05Z"/>
    <path class="uuid-bdf97552-8f27-40f4-b188-89b0ad4f7b75" d="m318.72,103.06c-.03.12-.04.25-.04.37-.79.06-1.58.12-2.37.17-.29.35-.68.4-1.09.31-.57.09-1.14.17-1.7.26-.42.34-.91.32-1.4.27-7.62,2.56-15.72,5.41-21.73,10.91.04.04.08.08.12.12-.66-.48-.6.87-1.74,1.42-.39.77-1.09,1.23-1.78,1.68,0,.98-1.12,1.57-.91,2.63,1.02.2,1.07-.19,1.66-.9.57-1.43,1.29-2.73,2.67-3.55.17-.28.35-.57.52-.85,0,0,0,0,0,0,0,0,0,0,0,0,11.39-7.31,25.5-14.58,39.3-10.89,1.99-.49,3.42.62,4.87,1.69,5.09,2.31,9.98,4.89,14.11,8.79.51.11,1.22.76,1.27-.44-3.01-1.58-5.1-4.3-7.91-6.15-.63,0-1.22-.17-1.75-.51-2.32-1.4-4.87-2.35-7.06-3.97-1.21-.81-2.86-.08-3.99-.87,0,0,0,0,0,0-3.65-.74-7.36-.35-11.03-.5Z"/>
    <path class="uuid-bdf97552-8f27-40f4-b188-89b0ad4f7b75" d="m194.49,218.6c7.3-.2,15.46,1,21.69-3.71-7.32-.42-14.67,3.71-22.05,2.48-1.18.08-7.71-3.42-5.32-.11,1.46,1.54,3.73,1.41,5.69,1.33Z"/>
    <path class="uuid-bdf97552-8f27-40f4-b188-89b0ad4f7b75" d="m351.33,91.68s0,0,0,0c0,0,0,0,0,0,0,0,0,0,0-.01Z"/>
    <path class="uuid-bdf97552-8f27-40f4-b188-89b0ad4f7b75" d="m360,274.98c.06-.22-.03-.33-.25-.36.08.12.15.23.23.35-.3-.27-.6-.47-.91-.57.22.05.44.11.66.18.26-.97-.33-1.49-.83-2.24-.03-1.71-2.2-2.22-2.22-3.94-.48-.33-.85-.72-.79-1.36-.06-.13-.1-.26-.09-.4-1.18-.61-1.33-2.21-2.64-2.69.03-.3.05-.59.08-.89-1.3-1.94-1.16-3.8.14-5.75.08-.44.16-.88.24-1.31,1.15-1.44,1.58-3.2,2.17-4.88.39-.7.85-1.37,1.16-2.1,3.47-9.11,9.91-16.44,14.81-24.71,6.94-13.27,5.47-29.76,1.23-43.67-3.49-7.39-.07-13.79.92-21,.74-7.01,3.39-14.51.75-21.37-.63-2.87-2.91-5.31-5.35-7.27-.53-.75-.4-1.97-1.59-2.27-1.17-4.17-2.82-8.17-3.65-12.44-2.42-7.77-6.96-14.65-10.1-22.01-1.64-9.42-8.13-17.2-12.29-25.63-1.28-.98-2.23-2.64-3.77-3.14-.07-.14-.13-.27-.2-.41-2.45-2.16-3.76-5.73-5.78-8.39-1.64-3.51-4.3-6.38-6.13-9.77-4.28-5.82-8.75-9.7-16.28-10.65-.19-1.95-1.21-2.27-2.82-1.43-1.3-.11-2.59-.32-3.89-.08.03-.08.04-.15.05-.23-1.71.02-2.27-1.45-3.19-2.45-1.07-.75-1.97-1.65-2.56-2.83-.43-.39-.84-.78-.01-1.18.77.09,1.73-.37,2.31.28.61,0,1.16.19,1.66.52.48-.02.97-.04,1.37.31,1.53-.08,2.75,1.13,4.31,1.15-.05-.72-.54-.93-1.02-1.09-3.09-1.01-6.08-2.43-9.41-2.55-2.4-.15-2.26-3.88-4.49-4.94-1.32-2.52-3.48-4.19-5.77-5.73-.31-.79-.96-.95-1.72-.93-.5-.25-.85-.63-.96-1.2-.67-.15-1.25-.46-1.74-.95-1.17-.46-2.33-.92-3.5-1.38-.43-.61-1.06-.81-1.77-.86-.21-.35-.53-.44-.91-.35-.8-.05-1.58-.13-2.29-.55-3.24-1.9-6.83-2.02-10.45-1.99-.53-.06-.88.25-.82.71.07.49.45.44.76.12,5.25-.26,9.79,2.39,14.46,4.42,4.12,2.91,8.24,5.82,12.36,8.73.45.98.83,1.98,1.14,3.03-.11,1.24-1.09.92-1.82.98-19.73-2.32-38.28,18.3-37.21,32.08.89-.39,1.34-3.58,1.72-4.62,3.2-14.01,15.48-24.46,29.67-25.96h0c2.96.11,5.92.33,8.88.02,3.59,2.64,3.51,7.91,9.67,9.83,13.67.87,20.65,11.48,28.25,21.29,2.78,5.47,8.69,8.01,11.92,13.2,2.81,4.6,10.38,15,9.63,20.01.01-.01.02-.02.03-.04.26-.12.58-.22.66.14.11.5-.33.46-.65.5-.2-.2-.21-.39-.05-.59-2.81-2.38-5.29-5.21-7.01-8.46-1.87-4.23-4.98-7.6-7.8-11.17-4.1-9.77-15.25-22.17-24.8-26.87-2.81-2.04-6.12-4.29-9.74-3-14.23-2.97-31.58.31-41.12,12.18-2.69,3.7-4.95,7.6-7.09,11.61-.39,1.33-1.24,1.3-1.57-.15-1.6-5.41-5.1-17.5-10.18-19.73.37.04.75.07,1.13.11-.15-3.08-2.73-3.99-4.78-5.39-.04-.8-.58-1.35-1.1-1.83-10.85-9.32-25.61-9.49-39.08-8.12-3.88-.18-7.44,1.11-10.96,2.72-3.02,1.65-8.99.67-10.63,2.97,4.06-.31,8.15-.52,11.88-2.42,5.18-1.76,10.52-2.3,15.96-2.27,9-1.38,13.02-.33,21.55,1.93,1.61.51,3.06,1.32,4.49,2.18,1.43.85,2.84,1.75,4.36,2.44,1.2.29,2.29,3.57,3.53,2.41-.09.12-.18.24-.27.36,1.22,1.7,2.28,3.52,3.88,4.91,7.06,10.91,10.99,21.33,9.65,34.55-.02.93.06,1.94-.73,2.68-.88-.19-1.03-.69-1.03-1.25,0-.42.09-.87,0-1.25-.14-.56.23-1.58-.79-1.42-.87.13-.56,1.07-.44,1.65.29,1.33.57,2.7,1.83,3.55.06-.16.11-.32.16-.47-.28,1.39.23,2.87.31,4.3-.11.22-.25.48-.39.65.27.64.18,1.38.28,2.07-.77.01-1.53.02-2.3.03-2.85-3.08-7.15-5.11-8.55-9.25-5.23-13.6-12.73-29.23-26.78-35.34-12.97-7.55-28.3-6.77-42.79-6.7-.07-1.07-1.35-1.01-1.3.07-.61.09-1.23.19-1.85.28.03-.69.06-1.38.09-2.07,1.49-.28,2.98-.55,4.47-.83,1.95-.23,4.45,0,5.66-1.78-2.27.05-4.53.15-6.58,1.32-3.22-.62-6.56.87-9.73-.59-2.61-2.43-7.15-2.15-10.22-4.16-.03,0-.11.1-.33.33,1.3.93,2.52,1.93,3.87,2.72,1.26.75.97,1.37.17,2.21-1.21,1.29-2.78.56-4.17.82-1.14-.49-2.29-.97-3.43-1.45-.19-1.44-1.06-2.37-2.28-3.04-.06-.59.37-1.5-.63-1.56-.73-.04-.65.84-.87,1.35-.5,2.59,3.31,4.67,5.12,5.89.93.58,1.15,1.03.34,1.81-1.81-.82-3.77-1.04-5.7-1.25-1.47-.15-2.74-1.54-4.36-.7,5.6,2.58,11.46,3.45,17.57,2.67.76.14,1.53.19,2.29.19,1.04,0,2.07-.1,3.1-.27,6.04-.19,12.29-.54,18.54-.54,11.48,0,22.94,1.19,33.04,6.79,9.96,7.73,18.38,17.66,23.15,29.39.48.89,1.53,2.08-.65,2.58-1.9.53,2.26,2.58,3.08,5.8-.47.17-.94.35-1.41.52,0,.06.01.11.02.17-.25-.47-1.17-.54-1.63-.83-1.14-1.53-3.17-1.68-4.42-3.04-3.48-4.54-6.33-9.57-10.12-13.84-2.51-3.02-6.42-3.98-9.35-6.4-.09-.23-.25-.29-.46-.14-.2-.03-.39-.05-.58-.07-.5-.47-1-.94-1.64-.94-.26,0-.53.08-.84.26-1.71-.88-3.2-2.27-5.29-2.22-1.42-.64-2.88-1.73-4.41-1.73-.74,0-1.49.25-2.27.93-1.05.25-4.23-1.36-4.4.04.01-.15.03-.31.07-.48-4.16.01-8.27-.92-12.4-1.35-1.18-.4-2.36-.81-3.57-.12-.99-.06-1.97-.11-2.96-.17-1.33-.5-2.67-.93-4.05-.17-2.72-.28-5.4.12-8.08.41-1.62.18-3.12-.98-4.75-.35-3.95-.1-7.76-.94-11.46-2.31-.61-.41-1.22-.82-1.83-1.23-.19-2.02-2.03-1.25-3.08-1.82-1.1-1.04-2.58-1.33-3.91-1.89-5.08-1.98.06-6.49.85-9.67-2.2-.09-2.6,3.92-3.95,5.3-1.44.29-2.63-.62-3.96-.84-1.06.63-2.08.09-3.12-.09-.32-.42-.75-.44-1.17-.24-1.57.76-1.96-.05-1.95-1.42-.57.14-1.14.29-1.71.43-.93.79-1.65.45-2.27-.43-1.05-.12-2.03.17-3.03.44-.42.71-1.48.17-1.86.96-1.4-.1-3.52,1.74-3.79-1.4-.71-.78-.89-.05-1.17.41.8,2.72-2.05,1.95-3.79,2.94-.28.06-.57.13-.86.19-.47.48-1.12.38-1.7.53-1.34-.26-.83.31-1.84.33,0,.14,0,.28-.01.42-6.62-.42-13.21,2.14-17.32,7.41-4.28,3.72-6.74,8.8-9.83,13.39-1.05,1.55-2.24,3.19-2.3,5.28-.07,2.5-.29,5-.07,7.5-.16,4.53,5.75,7.22,10.61,7,.42.03.84.07,1.26.1,1.28-.55,2.84-.3,4.06-.61-.19.42.38,1.52.45,2.07-1.26.78-2.51,1.61-4.07,1.65-3.85,1.89-7.75,3.78-10.47,7.24-2.19,2.77-4.87,5.31-5.42,9.09-.53.3-.99.65-.79,1.37-.12.41.08.83.09,1.22-1.72.58-2.22,2.15-2.81,3.62-4.59,9.24-8.32,19.52-7.47,29.97,1.09-4.68.76-9.64,2.23-14.21,1.68-3.88,2.3-8.13,4.34-11.91.6-1.11,1.48-2.38,1.26-3.88.64,0,1.29,0,1.93-.02-1.74,6.04,1.43,11.6,6.53,14.83,1.65,1.43,4.06,1.74,5.28,3.75.24.29.47.51.85.53,6.21,6.04-13.06,13.25.6,20.45,1.48.52,1.16,1.46-.13,1.91-3.83,1.32-5.99,4.83-7.97,8.02-4.93,7.17-6.66,16.23-8.03,24.73-.11,1.58.03,3.36-.81,4.88-.9.19-1.8.38-2.7.57-.09-.2-.23-.37-.34-.56.05-.86-.28-1.82.09-2.63-.27-9.45,3.18-19.15,7.4-27.68,1.6-2.26,2.57-5.17,5.87-5.65.62-.09.67-.49.47-.95-.31-.73-.85-.77-1.4-.33-7.38,5.23-14.77,23.8-13.61,32.84.31,2.38-.68,1.41-.56,2.87-.01,5.72.78,11.3,3.13,16.58.25,1.63.37,3.15.81,4.81.77,3.32-.44,6.64-.06,9.95.29,2.53-.33,4.77-1.52,6.93-.84,2.7-4.74,7.34-2.76,9.88,1.5-2.93,1.94-6.33,3.99-9.01,2.05-.26.58,1.96,1.81,2.48,2.1-3.28-.45-3.6.05-5.6.44-1.43,1.04-2.88,1.14-4.37,0,.13.02.27.02.43.47-.35.86-.45,1.51-.23,1.25.44,1.31-.26.81-1.18-.53-3.44,4.18-7.91,6.6-11.38-.06.1-.12.21-.19.31.63.02,1.26.04,1.89.06.04,3.25.12,6.5.1,9.75-1.51,2.14-3.33,4.12-4.43,6.45-3.4,5.49-8.5,9.45-11.61,15.16.26-.07.61-.08.76-.25,5.34-6.59,10.87-12.67,15.77-19.71,1.49,6.15,1.73,12.28,2.65,18.5.19-.02.38-.04.57-.07.56-5.46-.37-10.8-1.41-16.16-.37-2.63-.53-5.39,1.38-7.65,1.37-2.07,6.17-8.38,5.25-10.48-1.99,3.25-3.99,6.51-5.98,9.77-.59.13-1.14.15-1.48-.48-.04.04-.07.09-.1.14.41-1.61.29-3.3.17-4.99.7-7.65,6.91-12.5,12.43-17.22.3.15.6.3.9.45-.81,3.79-6.41,10.51-5.61,13.45,3.24-4.28,4.4-9.75,7.83-13.89.7-.23,1.39-.45,2.56-.83-5.56-2.2,1.34-6.58.6.05.45,3.64.17,7.29.35,10.93l-.14-.02c-.24.22-.29.5-.29.8,0,.33.06.67-.01.99-.12.08-.14.2-.13.32,0-.02,0-.04-.01-.06-2.37,2.61-4.94,5.07-6.47,8.35,2.12-1.75,3.76-3.96,5.84-5.75,1.43-1.21,1.13-.11,1.21.68-1.86,4.02-2.5,8.34-3.14,12.66-6.14,20.29-22.68,34.83-40.99,44.41-3.71,1.42-.52-5.64-.46-7.19,1.17-4.86,2.43-9.68,5.73-13.65.37-.2.93-.51.68-.9-.61-.95-1.37.25-2.08.01.29-1.63,2.96-4.41,1.31-5.69-.42,1.87-2.23,3.17-2.14,5.25-1.62.68.48,1.94-.33,2.04-.29-.14-.4.01-.44.28-.35,2.15-2.15,3.6-2.73,5.64-2.95,2.31-4.67,5.64-6.45,8.74-2.27,3.93-4.88,7.81-5.8,12.42.97-.22,1.11-1.12,1.42-1.82,1.2-2.57,9.28-18.85,11.69-17.97-.64,2.07-1.53,4.1-1.88,6.22-.37,2.34-1.9,4.49-1.15,7-.62,1.81-2.22,2.69-3.65,3.63-2.54,1.66-4.32,4.07-6.48,6.1-4.74,7.63-6.96,16.47-7.55,25.44-.23,7.99-.21,16.21,1.28,24.06-.18,2.33.45,4.49,1.4,6.58-.56,2.17.73,3.99,1.32,5.88.35,1.11.05,3.04,1.77,3.44-.36-2.85-.49-5.76-1.79-8.41-.1-2.61-.82-5.09-1.75-7.51-.42-3.1.23-6.2-.25-9.3.01-.89.01-1.78.03-2.67-.08.08-.13.16-.17.24,1.51-14.44.24-32.14,12.66-42.37,2.06.1.03,4.25,1.91,5.47-.15-2.13.89-4.25-.07-6.32,3.54-3.38,8.5-5.83,12.97-8.22,6.26-3.43,11.74-7.88,16.58-12.93,4.96-5.18,9-11.2,12.45-17.55,1.28-.47,1.11,1.21,1.99,1.34-.18,1.73-.98,3.36-.84,5.15-.57.66-.72,1.5-.96,2.3-.96.23-.74,1.21-1.15,1.79-2.6,3.42-4.55,7.31-7.71,10.32-13.42,15.83-37.31,24.8-40.54,47.4-2.4,11.37-2.09,22.89-.68,34.38.3.1.6.2.9.31-2.21-18.9-1.46-41.73,12.8-55.96,9.61-8.36,19.92-15.96,28.53-25.44,2.68-3.16,4.84-6.71,7.24-10.09.34-.02.61.08.78.39.04,1.61-1.11,3.21-.04,4.82-.03.2-.07.4-.11.6.03,0,.06,0,.09-.01-.25.16-.28.54-.68.55.11.07.22.13.33.2.6,7.95-.69,15.98.56,23.95-1.16,1.66-.38,3.51-.51,5.27-.06,1.47-.11,2.94-.17,4.42.09.67.13,1.33-.3,1.92-.29,1.42-.18,2.94-.91,4.26-.19.72-.38,1.45-.57,2.18-2.89,13.18-7.67,22.72-17.5,32.12-4.73,4.85-9.14,10.05-11.48,16.62-.31.88-.84,1.71-1.41,2.45-2.9,3.7-6.6,7.05-10.17,9.78-.28.32-.55.63-.82.94-1.14.14-1.92.87-2.69,1.63-5.45,3.68-12.07,5.94-18.22,8.53-.88.38-2.39.93-1.94,1.95.45,2.05,7.99-3.69,9.93-3.61,3.37-.69,6.11-2.68,8.96-4.49,1.36-.31,2.2-1.52,3.32-2.24.73.06,1.2-.29,1.51-.92.75.02,1.07-.61,1.58-.99,2.73-2.03,5.12-4.51,8.14-6.15.85,2.89-.18,6.02,1.09,8.85-.17.64-.2,1.23.01,1.92,3.09,8.06,16.39,11.48,22.4,18.85,4.71,4.58,7.78,10.67,11.04,16.4.24.51.24,1.52,1.18,1.2.8-.28.45-1.15.42-1.74-.15-2.94-1.75-5.33-3.08-7.82-.29-.71-.6-1.4-1.29-1.83-1.67-3.37-3.94-6.57-6.4-9.4-3.76-4.12-9.05-6.71-13.59-9.93.01.01.02.01.03.01-.53-1.69-2.44-1.34-3.43-2.34-2.25-1.25-3.7-3.74-4.51-6.17-.7-2.47-.1-5.01-.42-7.5-.4-1.74.75-2.99,1.4-4.39,1.04.05,1.74-.63,2.5-1.16,11.66-7.52,22.35-16.18,28.52-28.87,3.61-6.9,7.11-13.81,8.19-21.67.13-2.79,1.12-6.47,3.55-7.27,6.43-1.3,12.1-4.34,17.56-7.82.41-.26.79-.66.59-1.27-5.63,3.6-11.73,6.37-18.13,8.51-1.06-.33-1.48-1.32-2.11-2.08-1.88-2.11,1.45-2.64,2.75-3.67,9.18-3.42,21.38-7.03,23.79-17.84.24-1.12.86-2.12,1.55-3.05,3.3.69-4.78,14.72-6.27,16.4-.3.39-.71.7-.67,1.25,5.25-4.37,7.61-12.29,9.46-18.88-1.93.44-2.15-.58-2.06-2.08.27-4.49.89-8.99.05-13.49-.76-9.73-4.86-18.89-5.72-28.69.09-.85-.2-1.57-.82-2.49-.02,1.84,0,2.95.16,4.6-.44,3.47.97,6.78,1.22,10.19-.07.66-.32,1.36.42,1.83.14.7-.3,1.61.64,1.84-.04,2.71,1.6,4.94,2.11,7.48-.27,2.04,0,4.03.19,6.05-.11,2.55,1.02,4.98.8,7.54-.23,2.68-.46,5.35-.69,8.03-1.96,5.15-4.05,10.78-9.3,13.31-5.98,3.27-12.24,5.85-18.57,8.37-.07-.42-.24-.77-.68-.92.58-1.32.06-2.44-.68-3.51.39-2.11.31-4.12-1.24-5.81-.06-1.94-.72-3.82-.48-5.78.2-1.7-.21-3.29-.96-4.81-1.08-2.4-1.11-5.31-.54-7.83.15-.54.03-1.11-.53-1.28-1.65-.48-1.97,5.53-.93,6.49-1.65,5.18.79,10.27.05,15.45.1,2.46.42,4.97.31,7.53-.55.66-.59,1.41-.42,2.21-.04,9.09-3.56,17.23-6.88,25.45,4.91-5.47,6-12.5,7.79-19.25,1.41-.06,2.66-1.5,4.2-.47-.82,1.86-.81,3.81-.6,5.78-1.83,10.18-7.14,19.33-12.48,28.01-5.73,10.67-16.85,15.99-25.63,23.64-2.99-.73,4.46-8,5.06-9.59,4.65-6.87,10.07-13.19,15.34-19.53.3-.21.21-.45.02-.64.01-.01.02-.03.02-.04.71.46.89-.24,1.23-.57,3.03-3.04,5.09-6.25,4.82-7.74-2.13,2.03-3.13,4.99-5.74,6.37-1.45-1.02,1.93-3.74,2.1-5.08,2.94-7.7,5.23-15.67,6.42-23.82,3.59-10.44,1.68-21.29,2.03-32.14l.18-1.74c.77-.72,2.41-.76,1.99-2.41-.29-1.13-1.34-.53-2.02-.76-.07-7.4,1.93-14.75,1.47-22.08.12-1.3.1-2.63.38-3.89.77-3.34,1.37-6.69,1.63-10.11.84-.99.36-2.12.34-3.21-.12-1.12.36-2.09.81-3.06-.02,0-.03-.01-.04-.01,1.71-.63,2.47-2.38,3.73-3.52-.13-.01-.27-.03-.41-.04,3.73-1.07,12.61-18.09,12.73-12.95,0,.57-.22,1.25.43,1.86.77-1.31.75-2.63,1.05-3.86.23-.9-.37-.94-.96-1.04,1.23-3.9,3.5-7.45,5.12-11.22.77.85,1.54,1.71,2.7,2.06.02-.09.04-.17.07-.26-.07.37-.03.76.03,1.14.08,1.44-.17,2.87-.24,4.31-.45.22-.92.44-.28.97-.2,2.39-2.68,4.29-.53,6.67.01.43.01.85.01,1.27-.45.3-.98,1.01-.66,1.2,1.89,1.12.46,2.35.41,3.62-.06,1.51-1.13,2.63-1.02,4.18.17,2.47.09,4.95.11,7.43-2.14,20.67-1.86,34.72-20.76,46.52,2.3-1.37,4.7-2.54,6.95-3.96,7.29-5.1,10.65-14.1,12.45-22.47.87-6.26,1.5-12.8,2.58-18.86-.11-2.24-.03-4.17-.05-6.66,3.64,2.36,2.48,5.7,2.76,8.64.55-1.19,1.14-2.31.81-3.55-.58-2.17-.56-4.44-1.44-6.61-.59-1.46-.74-3.58-.1-4.95.94-2.01.3-3.62-.09-5.41,1.73-4.63.19-9.63,2.11-14.13-.06-1.33-.07-2.65.09-3.98.21-1.03.57-2.03.48-3.09-.35-.7.48-1.12.42-1.75-.35-1.64,1.1-3.12.82-4.64.05.13.09.27.13.41,1.39-1.71.24-2.77,1.12-3.33.16.02.32.04.49.06.15-.44.44-.74.87-.92.23-.44.27-1.09.64-1.43.92-1.69,2.16-3.24,2.56-5.19.29-.44.57-.88.85-1.32,2.11-1.56,3.08-4.13,5.05-5.82.07-.54.34-.97.7-1.37-.03-.04-.05-.09-.06-.14.14-.2.28-.41.42-.61,1.07-.06,1.29-1.2,2.08-1.61,2.01-2.49,4.37-4.64,6.66-6.85.25-.9,1.07-1.21,1.7-1.78,2.9-3,6.16-5.84,9.76-8.06.7-1.17,2.21-1.89,3.19-2.88.57-.33.97-.96,1.72-.96.34-.79,1.06-.87,1.77-.98,5-5.39,12.4-7.71,18.13-12.25,4.43-1.87,9.39-2.64,13.87-4.61,1.43-.71,3.33-.38,4.69-1.57.33-.8.89-1.65.14-2.44-.42-.44-1.22-.41-1.66-.08-4.33,2.81-10.26,2.21-13.96,6.2-.64.81-2.08.71-2.63,1.81-.6,1.34-1.21-.24-4,1.96-7.4,4.7-15.45,8.69-21.59,15.08-1.49.79-2.86,1.73-4.19,2.78-2.26.79-13.07,14.75-13.45,10.5,1.27-.59,2.02-1.58,2.62-3.29-1.64.87-2.75,1.57-2.69,3.22-2.38,1.46-4.45,3.13-4.25,6.33-1.33,2.31-2.42,4.8-4.87,6.25-.88-.05-1.58-.46-2.19-1.07,12.93-31.38,47.33-56.4,81.98-52.19.47.3.94.6,1.41.9,5.27.12,10.75-1.28,15.81.54,6.69,1.13,13.57,1.93,19.8,4.87,2.56,1.14,2.51,1.23,3.18-1.38-.01-1.9-.52-3.89-1.92-5.08.17.1.33.2.5.3.13-1.18-.01-2.5,1.57-2.88.12.23.28.45.43.67-.04-.04-.07-.09-.11-.13.2.92-.73,2.19.81,2.71,1.02,1.28,1.77,2.69,2.05,4.33,4.64,2.58-1.72-8.01-2.3-9.11-.49-.47-.73-1.41-1.46-1.44.11-.22.22-.45.33-.67-.19-.1-.05-.22,0-.36-.14-.09-.28-.18-.42-.27.07-1.73-.13-3.54.17-5.3.69-3.6-.38-7.37,1.1-10.88.15-1.13-.45-2.34.28-3.37,1.62-2.59,2.54-5.64,4.6-7.94h-.03c.06-.56.35-.99.76-1.34,2.4-3.38,4.7-7.28,8.63-9.05,1.27-.92,2.61-1.7,4.17-2,.98-.78,2.08-1.2,3.33-1.23,1.07-.74,2.37-.68,3.51-1.17,1.14-.22,2.22-.78,3.43-.63.28-.27.6-.33.97-.24,1.31-.22,2.62-.44,3.93-.67.91-.18,1.86-.41,2.75-.01,1.03-.32,2.08-.38,3.14-.14.68.07,1.41-.05,1.95.53,1.29.19,2.68.02,3.9.52,2.31-.12,4.48.6,6.48,1.57,2.54,1.24,5.45,1.7,7.67,3.53,8.92,7.36,16.49,16.45,22.37,26.29.51.31.76.78.84,1.36,1.4,2.12,3.36,3.59,4.03,6.43-2.45-.45-4.02-2.35-6.25-2.55-4.26-1.09-8.53.14-12.8.02-.57.07-1.14.14-1.71.21-.41.34-.9.32-1.38.31-.41.06-.82.13-1.23.2-.66.62-1.45.75-2.31.6-9.52,3.71-18.81,8.15-27.32,13.81-.54.67-1.68.76-1.78,1.85-1.24.87-2.41,1.85-3.61,2.78-1.2.93-2.44,1.79-3.83,2.42-.31.97-1,.54-1.04,1.77,1.83.36,1.79-1.53,2.71-2.26,2.59-.76,4.62-2.34,6.37-4.35,3.34-3.04,7.77-4.34,11.33-7.04.64-.49,1.33-.89,2.17-.95.56-.35,1.12-.69,1.68-1.04.45-.62,1.05-.89,1.81-.81,3.87-1.62,7.6-3.62,11.87-4.06.77-.4,1.53-.8,2.29-1.2.99-.15,1.99-.29,2.98-.44.61-.57,1.27-.49,1.96-.14,4.76.32,9.81-.5,14.06,2.36.6.26,1.2.52,1.79.78.56.22,1.06.73,1.68.65.65.55,1.29,1.09,1.94,1.64.97.11,1.41,1.17,2.11,1.76.89.6,1.67,1.3,2.16,2.28.49.31.73.78.91,1.3,1.17,1.34,2.34,2.67,3.52,4.01-.28,1.58-1.23,2.36-2.82,2.36-1.87-2.55-4.98-3.48-7.77-4.6-.9-1.19-2.49-.52-3.53-1.33-1.48-.19-2.95-.46-4.41-.81-3.04-.84-6.04-1.79-9.28-1.46-.92-.29-1.85-.74-2.75.06-1.02-.25-2.07.29-3.04-.27-1.44.14-2.88.29-4.31.43-5.55,1.58-11.83,2.13-16.02,6.53,7.43-2.9,15.86-5.97,24.38-5.98.3.01.62.04.9-.03-.01.02-.03.03-.05.05.9.1,1.77.36,2.66.53,1.87-.2,3.43,1.19,5.29,1.05,1.6.38,3.2.76,4.81,1.11.25,1,1.46.2,1.83.98,1.15.41,2.26.92,3.49.98.01.56,1.72.78,2.29,1.59,1.03.72,2.06,1.44,3.1,2.16,5.39,2.91,8.98,7.52,12.24,12.59,1.98,3.89,3.33,7.94,4.07,12.26.48.85.65,1.78.79,2.72.2.91.84,1.9.65,2.8.41.46.09,1.07.24,1.63l.11-.03c-.1.52.03.97.35,1.38.06.73.04,1.47.35,2.16.08,1.64.14,3.28.24,4.92-.01.49-.01.97.11,1.44-.03-.06-.06-.13-.09-.19-.07.6-.15,1.2-.22,1.8.21.57.34,1.13.3,1.74-.26.86,1.09,2.28-.1,2.45-1.45.26-.8-2.75-1.07-3.73-1.07-2.77-1.78-5.72-3.09-8.39-.48-.3-.81-.72-.94-1.28-.99-1.36-1.97-2.71-2.96-4.06-.44-.87-.81-1.79-1.83-2.17-.63-.95-1.39-1.77-2.26-2.5-1.33-1.12-2.65-2.26-4.34-2.83-.79-.72-1.57-1.43-2.36-2.14-2.72-.36-5.62-.69-8.19-1.9-4.26-2.51-9.34-.11-13.97-1.1-.91-.14-1.83-.29-2.74-.43-.63-.6-1.5-.74-2.28-1.05-2.31.03-4.41-1.21-6.73-1.11-1.44-.11-2.88-.22-4.31-.33-1.19.05-.69.53-1.32.48-1.93.18-3.85.36-5.69,1.04l.02-.04c-.69.43-1.5.6-2.26.89-1.44,1.11-3.21,1.6-4.79,2.42-.82.25-1.59.62-2.46.7-.32.34-.65.68-.97,1.01.95.37,1.81.21,2.75-.19,6.03-2.56,12.69-5.44,19.34-4.12,1.65,1.38,5.01-.25,6.21,1.92-1.24.55-2.54.7-3.84.79-1.31.09-2.63.13-3.9.46-3.55,1.58-7.43,2.19-11.01,3.65-.22.54-1.01,1.38.56.88,2.51-.81,5.05-1.52,7.58-2.27,2.85-1.29,5.97-1.53,9.04-1.67.58.75,2.46-.26,2.2,1.62-3.85,1.24-7.92,1.89-11.46,4.02-.46.35-1.29.67-1.32,1.05-.16,2.09-1.42,3.35-2.9,4.58-.52.43-.19,1,.53.92.49-.06.95-.34,1.43-.52,6.15-4.97,13.49-7.53,21.18-8.82,1.21-.44,2.45-.57,3.52.22.01.14.03.28.06.42.83.51,1.3,1.33,1.74,2.16,1.32.7,2.48,1.13,3,2.65,7.38,8.78,15.42,17.18,20.02,27.85-.24,1.04.47,1.6,1.12,2.19,1.05.96,1.81,2.09,2.03,3.53-.01,1.59.98,2.91,1.19,4.43.18.42.36.83.54,1.24,1.1,1.81,1.31,3.96,2.37,5.77.41.48.71,1,.79,1.63.87,1.61,1.61,3.2,1.7,5.04.78.89,1.61,1.77,1.2,3.12.23.4.13.86.11,1.31.5.5.43,1.15.45,1.78.33,1.78.66,3.56.99,5.33.19,0,.37-.01.56-.01-.19.01-.38.03-.56.01-.05.29-.1.57-.14.85.03.52.05,1.04.08,1.55,1.35,2.22.38,4.78.55,7.21-.09.02-.19.04-.28.07.02,1.03.53,2.29-.28,3.14-.41,1.58-.47,3.25-.74,4.86.09.69-.71,4,.25,3.84.59-.05.52-1,.79-1.41-.38-3.87,1.84-7.44,1.4-11.28.12-.06.25-.12.38-.18-.07-.88.25-1.8-.27-2.64.11-1.86.22-3.73.32-5.6-.17-.29-.41-.41-.69-.45.09,0,.18,0,.27-.01.25-7.28-2.12-14.27-4.02-21.19,2.58.4,2.64,4.39,3.57,6.36,3.1,7.69,5.24,16.12,5.48,24.22-.04-.03-.09-.06-.15-.1-.76,6.99-.13,14.7-4.29,20.85-2.12,3.34-3.6,7.13-6.16,10.16-2.98,4.23-5.09,9.13-7.22,13.73-.27,1.02-.55,2.18-1.31,3.02-.07.24-.15.49-.22.73-.55-.1-.79,2.21-1.5,2.82-.18.43-.36.86-.54,1.29-.75.76-.29,2.32-1.74,2.62.06-.52-.03-.97-.44-1.33-.8-.93-.9-2.11-1.15-3.24-.11-.4-.21-.8-.31-1.2.08,0,.14.03.2.09-.11-.42-.22-.85-.33-1.27-.51-.84-.83-1.74-.77-2.74-.28-.98-.57-1.95-.85-2.93-.12-.36-.23-.72-.34-1.08-.27-.73-.95-1.3-.8-2.18-.16-.82-.15-1.61.52-2.24-.08-.71-.19-1.42.72-1.7.38-.52.14-1.13.89-1.34.06-.53.23-.96.8-1.13-.12-.28-.06-.5.17-.68-.07-.73.06-1.35.8-1.69.07-.87.62-1.54.99-2.29-.08-.28.09-.37.32-.41.13-.3,0-.72.44-.87.05-.31.09-.62.13-.92-.08-.27.04-.37.3-.33.84-2.53,2.11-4.93,2.58-7.56.33-1.03.69-2.05.6-3.15-.07-.48.38-.25.75-1.12-.2-.1-.06-.25-.02-.4-.31-.27-.43-.51.08-.67-.14-1.09.61-2.04.52-3.11-.48-1.4.72-2.29.89-3.55.6-2.16.63-4.44.97-6.64.38-.95.19-2.01.29-3.01.31-.72.44-1.46.26-2.24.05-1.1.03-2.2.15-3.29.28-2.66-.89-5.17-.75-7.81-.18-1.32-.37-2.64-.56-3.96.32-1.27-.34-2.51-.54-3.77-.95-1.4-.81-3.07-1.18-4.61-.42-.69-1.11-1.25-.95-2.18-1.51-2.12-.36-6.75-4.46-7.84-.93-1.8-1.76-3.98-2.68-5.86-1.13-1.26-2.61-2.26-3.03-4.01-.79-2.04-2.89-2.98-3.98-4.78-.57-.28-.9-.74-1.06-1.34-1.87-1.74-3.74-3.49-5.6-5.23-3.25-.81-5.76-3.14-8.76-4.51-.89.04-1.79.08-2.68.12-1.72-.12-3.43-.55-5.14-.55-.91,0-1.81.12-2.72.47-1.14-.33-2.3.09-3.42.35-.7.21-1.42.54-.58,1.44,2.24-1.25,4.82-1.18,7.35-1.24,1.04.46,2.21,0,3.22.6.88.15,1.76.3,2.64.44.15.17.3.33.45.5.58-.02,1.04.23,1.42.65.43.16.87.32,1.31.48,9.08,4.79,16.47,12.92,19.85,22.75,1.07,1.95,2.25,3.79,2.68,6.11,1.04,5.23,2.56,10.58,1.21,15.97-6.66,14.4-10.37,30.15-11.34,45.98-4.4,17.25-8.18,35.32-7.11,53.17,1.43,11.7,6.5,22.11,11.51,32.53.38.14.42.46.4.8,2.17,3.77,4.74,7.27,7.41,10.74,1.49,2.64,2.98,5.27,4.47,7.91.57,1.93,2.53,3.16,2.66,5.31.52,1.35.86,2.77,1.68,4,2.36,3.94,3.68,8.25,4.47,12.74.11.63-.03,1.62.76,1.57.87-.05.81-1.11.73-1.75.25-9.99-9.2-16.31-2-24.17,3.1-4.9-.89-2.8.13-6.85,7.03-23.88-5.57-37.82-15.07-56.51.16-.37.43-.62.93-.64,1.23,1.84,2.89,3.28,4.35,4.92.37.99,1.13,1.7,1.81,2.47,6.44,6.52,10.43,15.11,11.24,24.25,1.64,5.94,1.88,19.34-1,24.9-.51.81-.6,2.36,1.01,2.88.57,1.16-.35,2.56.59,3.65.87-1.23.43-2.57.28-3.88,1.29-5.62,3.89-11.13,4.31-16.75.58-11.02-1.16-22.27-8.52-31.01-1.37-1.37-2.95-5.02-4.64-6.54ZM112.63,45.53c1.31.19,2.63.29,3.88-.35,2.63.13,5.25.13,7.86-.34.83.52,1.96.62,3,.83,1.04.21,1.99.53,2.48,1.5,1.28,2.78,4.3,3.42,6.22,5.4.89.92,2.12,1.25,3.44,1.01,1.36.73,2.8,1.24,4.33,1.48,2.37,1.61,14.15,3.55,21.09,3.55,2.44,0,4.28-.24,4.9-.82-.02.19-.12.39-.33.61,5.77,1.4,11.76,1.16,17.68,1.34,10.65,1.24,21.33,3.94,29.97,10.7-.99,3.32-5.52-1.21-7.82-1-1.26-1.29-7.1-1.36-8.94-1.07-.69-.04-1.38-.05-2.06-.05-6.54,0-12.95,1.51-19.5,2.16-1.41.05-3.36.03-4.2,1.23.06-.13.12-.25.18-.38-1.17.18-2.33.36-3.49.54-.64-.17-1.24-.13-1.76.34-4.18.45-8.23,1.57-12.37,2.27-1.38.08-3.37-.06-4.21,1.13.07-.13.13-.26.2-.39-.52.02-1.02.1-1.51.25.07-.03.13-.07.19-.11-1.05-.06-2.11-.29-3.08.35-.84.21-1.67.41-2.5.62-.3-.17-.52-.09-.7.18-13.48,2.15-17.93,2.56-30.02-4.73,4.41,4.81,12.3,7.69,18.73,7.44,5.59-.31,10.79-1.84,16.24-2.64.14.17.27.17.38-.04.6-.14,1.21-.29,1.82-.44,3.65-.37,7.28-1.02,10.88-1.71s7.17-1.43,10.7-1.99h0c1.58.1,3.02-.58,4.54-.8,2.19-.17,4.38-.52,6.51-.89,2.98-.52,5.98.13,8.9-.59,1.96.86.71,1.5-.2,2-2.28,1.25-4.6,2.43-6.9,3.63-8.87,5.25-19.21,7.33-28.29,12.23-2.48.65-4.61,2.01-6.82,3.26-2.3,1.4-5.01,2.17-6.83,4.33-4.52,2.42-8.83,5.28-13.69,6.92-.63.15-1.31,0-1.76.59-3.52.87-6.96,2.26-10.54,2.79-.56-.34-1.13-.62-1.81-.58-1-2.1-1.16-2.12-2.65-.42-13.35-7.74-14.2-25.35-12.4-38.88.58-2.64,1.17-5.28,1.75-7.92.39-.86,1.55-1.57.51-2.7.06-.92.72-1.51,1.15-2.25.95-1.64,2.69-2.99,2.29-5.23.85-2.09,2.46-2.65,4.56-2.36Zm101.45,28.88c-.19,1.22-1.16.75-1.86.86-1.43.22-2.98-.52-4.32.5-3.81-.08-7.62-.25-11.43.07-1.13-1.19-2.85-.88-4.15-1.64.37-.21.71-.45,1.03-.72,1.05-1.03,2.74-1.15,3.57-2.51,5.71-1.9,12.1.66,17.16,3.44Zm-113.43,87.45c.06-.57-.06-1.27.22-1.69,2.78-4.04,3.34-8.91,5.1-13.33,3.59-9.42,7.65-18.67,13.68-26.86,6.04-7.04,11.99-14.76,20.15-19.34,1.47-.84,2.74.5.99,1.58-18.44,15.93-31.96,35.34-35.7,59.7-1.48-.02-2.96-.04-4.44-.06Zm-2.11,7.61c-.53-.03-1.05-.07-1.58-.11.9-2.41,1.31-5.22,4.57-5.75.44.6,1.64.07,1.75,1.05.25,1.66-3.58,3.56-4.74,4.81Zm-14.67-83.53c-.66-.63-1.43-.93-2.35-.74-.24-.04-.48-.07-.71-.1-.35-.6-.95-.65-1.5-.56-1.54.26-2.75-.32-3.83-1.33-.35-1.04-.75-2.06-1.73-2.7-.57-1.49-.82-2.99-.82-4.5,0-7.68,6.58-15.39,11.08-20.92,2.81-3,6.28-4.82,10.14-6.12,1.34-.81,5.95-.3,6.46-1.64-.02.14-.03.27-.05.41.92-.18,1.83-.36,2.75-.54,1.44-.06,3.62-1.7,4.46.73-1.67,2.48-3.28,5.02-4.99,7.47-1.84,1.17-3.11,2.67-3.55,4.89-3.89,5.42-7.01,12.36-5.37,19.12-.21.98.13,1.92.23,2.88.72,1.07.07,2.14,0,3.22-.33.4-.66.81-.99,1.22-1.33-1.17-2.9-.93-4.46-.78-1.59.13-3.18-.65-4.77,0Zm-9.08,81.67c.53-.99.1-2.08.33-3.09-.87-3.02.32-5.88,2.95-7.55.87-.88,1.84-1.49,3.15-1.2,1.33-.01,2.65-.02,3.98-.01.7-.06,3.94.45,2.39-.89-3.33-1.04-6.23-3.14-9.09-5.1-2.16-1.34-.86-1.8-1.69-2.93-.3.01-.36-.16-.3-.41-.23-1.5.58-2.58,1.43-3.65.59-1.34,1.3-2.6,2.33-3.66.87-1.45,1.44-3.05,2.13-4.59.68-1.94-1-2.6-1.97-3.65-.75-1.14-1.9-1.86-3.04-2.42-3.01-1.5-5.15-3.96-7.41-6.29-2.9-3.3-1.7-7.71-2.06-11.59,1.09-1.47.4-3.48,1.52-4.94.76-1.53,1.61-3.05,2.67-4.4,2.07-2.29,3.83-5.13,6.79-6.41,2.16-1.57,4.53-2.73,7.09-3.48,1.93-.83,3.64-2.15,5.76-2.54-.02-.11-.02-.21-.02-.31.79-.08,1.54-.19,2.21-.63,1.25-.94,2.97-1.97,2.75-3.8.02-.15.04-.3.06-.45-1.28-.76-.54-1.78-1.22-2.63l.08-.03c-.2-.74-.42-1.46-.73-2.16-.71-.45-.28-1.18-.45-1.76.78-.85-.34-1.96.39-2.81.19-1.94-.03-3.96,1.21-5.67,1.01-1.95,1.63-4.1,3.11-5.77.44-1.06.35-2.48,1.43-3.09-.05-1.08.73-1.67,1.38-2.31,1.04-1.02,1.61-.63,1.82.67-.99.4-.74,1.53-1.29,2.19-.23.87-.52,1.74-.64,2.61-.1,1.04-.21,2.07-.32,3.11-1.06,3-.66,6.21-1.27,9.27.29,1.04.25,2.09-.01,3.13.21.6.17,1.17-.04,1.77.31-.01.45.08.33.4.01.3.02.6.03.9.08,5.89,1.53,11.54,4.12,16.79,2.52,4.22,6.86,6.52,10.98,8.81,5.12.26,10.28-.57,14.97-2.73,2.29.73.31,1.55.04,2.33-3.17,1.97-5.27,5.06-7.92,7.58-.15.41-.42.69-.83.83-1.59,1.82-2.76,3.98-4.51,5.68-2.8,3.24-4.55,7.19-6.95,10.69-.41.98-.78,1.99-1.62,2.7-.38,1.14-.76,2.28-1.14,3.42-.77.02-.71.78-.9,1.36.1.02.25-.01.34-.05-1.57,2.73-2.7,5.69-2.78,8.9.17-.33.37-.6.63-.77-.9.72-1.83,3.55-2.19,4.72.19,1.25-.75,2.12-1.17,3.2h.05c-.26.74-.51,1.46-.75,2.19-.17.57-.1,1.32-1,1.34.06,3.69-3.53,4.67-6.35,5.61-.26.03-.51.05-.77.08-1.17,1.76-3.26,2.18-4.87,3.29-1.28.88-2.47,1.86-3.61,2.9-.64.55-.93,1.41-1.79,1.72-1.01,1.04-2.03,2.07-3.05,3.11-1.23,1.47-2.02,3.29-3.5,4.57-1.16-1.52-1.03-3.28-.93-5.03-.16-1.47-.32-2.95-.48-4.42.15-.88.41-1.75.21-2.65Zm-9.82,35.43c-.65-.31-.39-1.5-1.34-1.49l-.09.1c.21-7.86,1.98-15.44,3.22-23.16.72-5.46,3.01-10.29,5.29-15.17.93-.89,1.6-1.16,1.59.59-.01,1.38.07,2.76.11,4.14.47,4.43.17,8.93,1.35,13.28-4.66,7.06-8.76,15.2-10.24,23.39-.74-.52.14-.64.11-1.68Zm13.02-2.79c-.74,1.62-1.48,3.24-2.22,4.86-.69.27-.93.89-1.24,1.49-2.5,3.2-4.96,6.44-7.47,9.62-.68.15-1.35.3-2.03.44-.01-.43-.02-.87-.03-1.31.36-.32.32-.62-.04-.91,2.23-9.02,4.65-18.34,8.63-26.72,5.25-8.71,12.92-19.45,23.08-22.56-1.65,7.25-6.94,12.99-10.23,19.55-2.96,3.17-4.66,7.1-6.56,10.9-.74,1.48-1.96,2.81-1.89,4.64Zm17.29-16.7c-.25-1.73.86-3.25.92-5.54-1.01,1.74-1.42,3.01-1.33,4.43-.7.82-.91,1.79-.85,2.85.04.66.01,1.25-.52,1.81-3.2,3.43-6.58,6.69-10.15,9.71-1.02.85-1.69,2.45-3.41,2.34,0-.22-.08-.5.02-.65,2.22-3.41,2.68-7.89,6.38-10.43.73-.51,1.38-1.3,1.6-2.29,1.62-4.4,5.24-7.84,6.93-12.09-.28,1.2,3.14,2.15,1.75.52.68-2.22,2.74-3.49,4-5.3.15-.03.33,0,.5-.01.15,1.28-.2,2.5-.79,3.67,1.16-.82,2.16-1.69,2.03-3.26,1.44-1.56,2.59-3.32,3.6-5.18,2.87-3.09,6.35-5.59,8.83-9.06.85.58.88,1.46.85,2.36-2.84,10.77-9.98,19.37-18.44,26.44-.73.68-1.51,1.11-1.92-.32Zm32.53-27.95c-.17-.36-.28-.74-.13-1.18.05-.05.09-.1.13-.15-.18.37-.21.76,0,1.33Zm1.01-2.84c.37-.67.68-1.36.93-2.09-.26.93-.61,1.58-.93,2.09Zm108.67-57.8c-1.35-.49-2.73-.2-4.09-.11-2.32-.36-4.63-.71-6.95-1.06-1.51-.82-3.19-.59-4.69-.34-2.99.49-5.97.25-8.96.35-1.26-1.88-3.23-2.36-5.28-2.67-1-.61-2.05-.49-3.11-.19-.6,0-1.2,0-1.8,0-31.93,3.45-60.79,25.91-74.22,54.84-7.14,19.03-14.9,38.18-28.03,53.99-.63.64-1.26,1.29-1.9,1.93-.34-.01-.67-.02-1.01-.04-.16-1.75-.17-3.69-.35-5.31-.06-1.19.34-3.91-1.36-3.91.15-.02.31-.03.46-.05-.08-1.48.07-2.96.12-4.44,1.87-.79,3.71-1.6,3.29-4.2,5.49-4.98,10.93-10.36,14.26-17.08.71-1.62.2-3.49,1.26-5.04.84-1.23,1.05-2.72,1.11-4.2.29-.67.37-1.2.37-1.66,0-1.42-.73-2.26,1.62-4.7,10.9-12.37,18.9-27.15,23.05-43.13-5.62,10.25-7.72,22.1-15.16,31.39-5.33,7.48-11.48,14.28-17.78,20.95-.38.4-.69,1.13-1.39.72-.73-.43-.21-1.09-.04-1.58,1.34-3.8,2.77-7.58,4.1-11.38,6.29-21.27,21.33-40.62,40.41-51.9,6.37-2.48,12.49-5.52,18.36-9.03,15.88-9.55,36.37-11.63,53.61-4.91,2.78,1.22,5.31,2.81,7.43,5.01.58.9,1.15,1.79,1.73,2.68,1.29,1.84,1.25-.43,1.89-.61,1.89,1.01,3.35,2.56,4.93,3.95.09,1.12-.77,2-1.88,1.72Zm5.36-5.56c.7.56,1.21,1.31,1.73,2.05-.54-.73-1.07-1.48-1.73-2.05Zm119.8,74.02c-.3-.57-.65-1.06-1.28-1.3-5.89-6.71-8.25-16.01-14.25-22.87-4.77-5.91-10.94-10.28-15.97-15.88-.23-.35-.52-.63-.84-.86.08.05.17.1.26.15.18-.74.37-1.48.55-2.22.53-.33,1.14-.02,1.71.02,4.64,1.11,9.42,1.71,13.46,4.58.45.32,1.08.38,1.63.56,1.94,1.73,3.51,3.86,5.68,5.36.24.38.6.42.97.42.13,0,.26,0,.39,0,.38,4.99,4.4,8.2,6.28,12.45.61,2.48,1.22,4.94,2.76,7.07.47,3.47,2.05,6.86,2.53,10.39-.12,1.49.3,2.75,1.56,3.84.29-1.49-.06-2.64-.79-3.7.08-3.17-.35-6.26-1.31-9.28.73-1.95.64-3.88-.15-5.79-.03-.43.07-.93-.11-1.29.03.02.06.04.09.05-.11-.64-.07-1.32-.24-1.95.02.06.04.11.06.17.2-.18.02-.34-.05-.53.02-.31-.12-.7.07-.95-.42-.76-.71-1.54-.54-2.42.35-2.61-.36-5.1-.86-7.62.71-.55,0-1.61.75-2.15,1.17,2.08,3.06,3.49,4.68,5.16,1.92,1.98,2.79,4.6,3.85,7.08,0,.92-.34,1.89.34,2.73-.01.44-.02.87-.03,1.31-.38.27-.41.58-.07.91-.1,8.39-3.22,16.48-4.27,24.9-2.33-2.9-4.19-5.95-6.86-8.34Zm-8.02,19.23c.05-.04.14-.1.14-.13-.29-.95-.18-1.99-.3-2.97.34-.48.67-.96,1.01-1.44.79,1.09,1.28,2.29,1.29,3.66,2.34,18.96-1.65,38-10.8,54.85-1.28-2.48-.52-4.87-.89-7.08.18-.48.21-.96-.04-1.43.01-.36-.06-.72-.13-1.07.03.08.06.17.09.25.33-.88.3-1.79.13-2.7-.01-2.37.68-4.62,1.53-6.76,4.59-11.23,7.73-23.01,7.97-35.18Zm-5.62,10.42c.38-1.54.65-3.17,1.53-4.56,2.05-2.94-.71,9.78-.87,10.55-.9,3.71-1.65,7.44-3.16,10.97-.57.37-1.19.55-1.87.45.45-6.05,2.96-11.6,4.37-17.41Zm-6.07,38.45c.28,1.36,1.45,10.85-.38,10.58-.53.01-.73-.43-.78-.89-.3-3.31.4-6.5,1.16-9.69Zm10.37,52.56c6.7,11.29,13.77,23.44,11.1,37.03-.04,2.41-.48,4.82-1.09,7.12,1.77,3.5-1.3,5.84-2.1,8.72-.15.53-.33,1.28-1.06,1.23-.64-.04-.53-.79-.7-1.23-1.72-2.94-2.95-6.17-4.87-9.04-1.46-3.21-3.26-6.24-5.14-9.21-8.19-13.56-16.2-29.06-14.46-45.32.48-1.69.04-3.64.02-5.47.98-5.94-.21-12.56,3.62-17.62.42,0,.83,0,1.25.01.05-.48.1-.95.15-1.43-.01.29-.02.58-.02.88,0,10.76,7.83,25.26,13.3,34.33Zm.38-14.01c-.11-.1-.15-.23-.11-.37-.71-.45-1.77-.56-2.18-1.34-1.65-1.4-.62-3.85-2.26-5.25-.2-1.25-.55-2.35-2.15-2.24-.42-1.24-.88-2.45-2.11-3.16-1.57-2.57-1.5-5.63-2.5-8.37-.24-1.87-.52-3.72.41-5.53,2.28-4.03,2.32,5.11,3.9,6.93-.03-.02-.06-.04-.09-.06-.26,1.06.34,1.69,1.12,2.23,1.19,4.09,1.68,8.45,4.56,11.89.53,1.6,1.52,3.09,1.33,4.89h.44c-.12.13-.24.25-.36.38Z"/>
    <path class="uuid-bdf97552-8f27-40f4-b188-89b0ad4f7b75" d="m100.15,279.45h0c-.06,0-.11-.02-.17-.02.15-.03.3-.08.44-.15-.09.06-.18.12-.27.17Z"/>
    <path class="uuid-bdf97552-8f27-40f4-b188-89b0ad4f7b75" d="m161.62,40.91c-.3-.08-.69-.08-1.01-.15.32.07.71.07,1.01.15h0Z"/>
    <path class="uuid-bdf97552-8f27-40f4-b188-89b0ad4f7b75" d="m64.46,221.76c0-.09,0-.17-.02-.26.07-.08.13-.16.2-.24-.1.17-.15.32-.18.5Z"/>
    <polygon class="uuid-bdf97552-8f27-40f4-b188-89b0ad4f7b75" points="90.13 248.96 90.13 248.96 90.13 248.96 90.13 248.96"/>
    <path class="uuid-bdf97552-8f27-40f4-b188-89b0ad4f7b75" d="m67.63,363.72c-.38-.07-.75-.14-1.11-.24.36.1.73.18,1.11.24Z"/>
    <path class="uuid-bdf97552-8f27-40f4-b188-89b0ad4f7b75" d="m98.56,279.72c.3-.11.61-.22.92-.27-.31.05-.62.16-.92.27Z"/>
    <path class="uuid-bdf97552-8f27-40f4-b188-89b0ad4f7b75" d="m223.87,79.59c-.15.13-.26.27-.34.41.08-.14.19-.28.34-.41Z"/>
    <path class="uuid-bdf97552-8f27-40f4-b188-89b0ad4f7b75" d="m151.12,75.68s0,0,0,0c-.26.06-.53.08-.8.07.27,0,.54-.01.8-.07Z"/>
    <path class="uuid-bdf97552-8f27-40f4-b188-89b0ad4f7b75" d="m78.59,200.31c.2.01.38.02.56,0-.17.03-.36.02-.56,0Z"/>
    <path class="uuid-bdf97552-8f27-40f4-b188-89b0ad4f7b75" d="m234.41,95.17c.34.06.68.08,1.02.08-.34,0-.68-.02-1.02-.08Z"/>
    <path class="uuid-bdf97552-8f27-40f4-b188-89b0ad4f7b75" d="m251.79,88.47c.09,0,.17,0,.26.01h0c.07,0,.13,0,.2.01-.15-.01-.3-.02-.46-.03Z"/>
    <path class="uuid-bdf97552-8f27-40f4-b188-89b0ad4f7b75" d="m319.7,119.14c-.06.08-.11.16-.17.24h0c-.11,0-.23.01-.34.02.23-.05.38-.13.51-.27Z"/>
    <path class="uuid-bdf97552-8f27-40f4-b188-89b0ad4f7b75" d="m323.54,122.46c.25-.15.52-.26.74-.46-.22.2-.49.31-.74.46Z"/>
    <path class="uuid-bdf97552-8f27-40f4-b188-89b0ad4f7b75" d="m331.5,119.02c.05.04.1.08.15.12-.14-.08-.28-.15-.43-.21.09.03.18.06.27.09Z"/>
    <path class="uuid-bdf97552-8f27-40f4-b188-89b0ad4f7b75" d="m344.88,225.26c-.07.25-.1.5-.11.75,0-.25.02-.5.11-.75Z"/>
    <path class="uuid-bdf97552-8f27-40f4-b188-89b0ad4f7b75" d="m344.57,229.3c-.1-.08-.17-.17-.17-.27,0,.1.07.19.17.27Z"/>
    <path class="uuid-bdf97552-8f27-40f4-b188-89b0ad4f7b75" d="m242.32,21.66c-1.55-.88-2.49-2.72-4.51-2.87-3-2.46-6.21-4.52-10.1-5.27-.65-.45-1.24-.97-2.06-1.19-3.56-.99-7.11-2.04-10.67-3.06-2.59-.6-5.18-1.31-7.87-1.45-.53-1.28-2.2.18-2.72-1.12-.76.26-1.85-.4-2.25.83-4.59.23-9.05,1.5-13.64,1.11-1.3-.2-2.65.15-3.98.07-5.56-2.06-9.78.8-12.42,6.1-1.09,2.1-1.59,4.49-3.6,6.7,3.02-.67,3.23-2.98,3.92-4.7.77-1.87,1.6-3.59,3.15-4.91.98.16,1.95.21,2.92-.07,2.15-.02,4.05-1.14,6.15-1.39,19.45-2.34,41.22-1.12,56.91,11.97.54.58,1.6-.18.77-.75Z"/>
    <path class="uuid-bdf97552-8f27-40f4-b188-89b0ad4f7b75" d="m185.93,333.99c-4.25-2.12-7.86-5.01-11.7-7.75-1.3-.68-1.33.8-.29,1.37.65,1.14,13.39,9.64,12.98,7.25-.2-.34-.64-.7-.99-.87Z"/>
    <path class="uuid-bdf97552-8f27-40f4-b188-89b0ad4f7b75" d="m346.61,168.01c.27-1.58-.57-2.93-.91-4.38-1.22-4.4-4.43-7.33-7.58-10.39-.64-.06-.85-.51-.94-1.06-2.34-1.6-4.63-3.28-7.01-4.81-6.61-3.42-14.13-3.94-21.41-3.12-1,.5-1.74.06-2.35,1.21.46.14.92.27,1.38.41,12.8-2.2,25.88,4.86,32.84,15.52.96,1.55,1.68,3.23,1.98,5.17.2,1.35.72,2.68,1.49,3.86.25,2.6.51,5.19.77,7.79-1.47,2.44.28,5.44-.95,8.01-.98-.52-.31-1.53-.67-2.24.56-2.55-.15-5.07-.19-7.61-.08-11.12-7.71-19.76-17.23-24.45-2.4-2.55-5.46-3.31-8.81-3.26.13.27.26.55.38.83,1.05.21,2.09.41,3.14.62.65.37,1.44.45,2.15.72.01.44.02.89.02,1.33-.18,0-.3.07-.38.18.01-.03.02-.06.02-.09-.34,0-.41.11-.14.36.01-.02.02-.03.03-.05-.07.29-.03.65-.05.92-.47.41-.66.97-.83,1.54-.67-.23-.89-.41-1.38.22.58.87,1.52,1.6,1.88,2.56.91-.09,1.54.44,2.16.97.12.53.23,1.06.32,1.58-.01-.07-.03-.14-.05-.21-.14.3-.06.54.14.75.09.57.14,1.13.14,1.71.72,2.1,1.18,4.27,1.48,6.46.62,3.13,1.02,6.29.94,9.49.12-.19.2-.5.23-1.12.67-.16.75.52,1.13.78-.2,1.77.25,3.82-.58,5.42.16.39.05.8.02,1.21-.71.59-.28,2.19-1.66,2.19-.12-.07-.22-.16-.32-.24-.14,2.17-.37,4.35-.69,6.51-.02.12-.27.31-.49.43.08,2.18-.07,4.45-.95,6.37.01.16.02.32.04.48.01.11-.18.25-.38.37,0,.27-.02.53-.05.79-.02.72-.07,1.44-.21,2.16-.01.08-.13.19-.27.29-.1.46-.22.92-.37,1.37-.04.13-.51.47-.72.54.08.91-.43,1.71-.91,2.53-1.14,1.09-.43,2.28-.33,3.52-.82.29-1.72-.29-2.57-.38-.18-.25-.36-.51-.54-.77-1.45-1.25-1.48-.8-3.07-1.46-.48-.16-.94-.5-1.43-.5.05-.01.11-.02.15-.03-.03-.68-.06-1.36-.09-2.04-1.34-1.29-1.72-1.66-3.45-.88-.3,0-.61-.01-.91-.01-.28.34-.74.6-.92.98,0-.03.01-.06.01-.09-.42-.04-.85-.08-1.27-.12.23-1.47.19-3.28-1.8-3,.09.78-.35,1.29-.88,1.76-1.27-.22-1.08-1.59-1.77-2.27-2.22-.02-4.45-.23-6.63.37-.01-.25-.02-.51-.03-.76.48-.6.5-1.51,1.32-1.82.22-.69-.3-.76-.81-.93-.73.75-1.57,1.2-2.65,1.01-.09.2-.15.42-.45.31-.59.02-1.19.05-1.78.07-2.08-.23-3.68,1.56-5.76,1.34.01-1.77.21-1.74,1.3-3.05-1.28-.83-2.07.33-3.04.75-1.47.06-1.36.82-2.63,1.04-.33-.21-.45-.53-.46-.91-.63,0-1.24-.13-1.78-.49-.42.36-.66.83-.89,1.33-.74.38-1.17.97-1.23,1.81l-1.89.03c-.14-.4-.49-.47-.84-.54-.4.48-.79.97-1.19,1.45-.16.5-.37.96-.94,1.1-.18.05-.41.83-.54.99-1.25,1.02-2.25,2.35-3.78,2.97-17.86,10.46-14.35,28.48-14.28,46.08.24,1.42.07,21.79,2.3,17.78-.95-14.76-2.36-29.81-.74-44.6.34-2.17.91-4.31,1.84-6.31,1.54-3.36,7.72-11.19,11.46-11.57.24.19.34.41.25.74-1,4.28-4.88,4.88-7.12,7.96,1.46.48,2.62-1.93,3.98-.17-.06.55-.13,1.09-.19,1.64-1.02,1.22-2.04,2.44-3.05,3.65.76.93,1.21-.32,1.8-.05v.02c2.71-1.85,5.82-2.83,8.88-3.92.8.48.21,1.43.21,2.19-.93,1.81-.72,1.71-.18,3.52.33.41.58.88.83,1.35-.15.19-.3.38-.45.56-1.82-.04-3.79-4.37-5.29-2.77,9.99,12.26,24.97,12,39.49,11.59,1.13,0,2.43-.09,3.08-1.01.19-.26.33-.59.62-.71.44-.18.93.27.99.74.18.79-1.45,3.21.26,2.98.5-.16.45-.78.59-1.19.43-1.28.73-2.61,1.08-3.92-.27-4.53,2.13-8.61,2.23-13.11-.62,3.14-2.75,5.75-2.96,9-1.42.48-2.52-1.06-3.86-1.36-3.06-2.04-7.76-1.2-7.54-6.08-.1-.99-.8-1.63-1.56-1.94-1.43-.57-3-.26-4.51-.37-.2-.26-.39-.52-.58-.78-1.13-4.51-6.73,1.24-9.59-2.11-.29-.1-.59-.2-.88-.3-2.24-2.78-2.38-2.26-5.75-2.23-.49-.95-1.85-1.93-1.53-2.92.29-1.03,1.31.18,2.06.01,1.56-.5,2.28-2.09,3.37-3.19.31.03.62.05.92.08l-.05.09c.04.84.87.81.93-.01.76.02,1.06-.78,1.7-.97,2.25-.15.7,2.8,3.14,1.51.31-.07.61-.15.91-.22-.17.32.31.4.43.1.81-.26,1.45.32,2.19.42,2.97,1.51,6.57.99,9.32,2.77.63.56,1.38.97,2.2.74,2.62-.73,4.51,2.11,7.11,1.43.14-.03.58.37.56.53-.26,1.96,1.67,2.51,2.44,3.8.29.48.76,1.42,1.39,1.18.72-.29.91-1.22.8-2.06.32-.33.64-.67.96-1.01,3.37.16.43,5.03,3.02,7.16.21-3.16-.77-6.56,1.84-9.26,1.31-.79.75-2.04.77-3.15.12-.91,1.02-1.74.82-2.65.01.03.03.05.04.08.23-.63.5-1.27.96-1.77.38.15.75.31,1.13.46.03.43.05.86.08,1.29-.41.46-.4.91.04,1.35.79,3.23,1.8,6.29.23,9.64-2.19,4.59-4.32,9.23-5.94,14.11-2.08,6.94-4.64,14.15-5.09,21.31.15,1.2-.29,2.37-.02,3.58-.05.28-.1.56-.16.84-1.11.45-1.67,1.51-2.49,2.28-.11.09-.16.21-.16.35-3.12,1.46-6.32,7.64-8.39,10.6-.18.18-.55.28-.31.66-.05.13.01.19.1.26-1-.19-1-.18-1.11,1.31-2.83,4.12-4.77,8.82-6.05,13.66-.31.91-.94,1.7-.97,2.71h.42c-1.34.43-2.24,5.87-2.6,7.09-1.1.14-4.61.51-4.48,1.86,2.3,0,1.47,1.94,1.91,3.1-.21.2-.42.4-.62.62-2.48,2.73-3.23,6.47-4.99,9.62-.46,1.07-1.58,1.45-2.45,2.13-.68.58-1.32,1.19-1.89,1.88-.31.38-2.6,3.49-1.59,3.58.54.05,1.32-.47,1.15.42-.52,1.2-1.16,2.36-1.63,3.59-3.67,5.56-6.11,15.74-4.16,22.2.03.22.31.28.43.08.06-4.55-.01-9.2,1.26-13.65.86-3.02,1.85-6.04,3.17-8.9.49-.85,1.05-1.64,1.56-2.47.72-.93.82-2.55,2.01-2.98-.09.01.57-1.31.7-1.44.41-.37,1.6-1.03,1.82-.26.82,4.28.1,8.91,2.46,12.8,1.25,2.78,2.87,5.34,4.85,7.66,5.39,6.67,10.61,13.58,14.86,21.04.39.76.75,1.54,1.09,2.33.17.41.59,2.12,1.27,1.72.27-.16-1.1-3.61-1.24-3.97-5.11-10.49-13.03-19.38-19.54-29-2.24-3.82-2.31-8.35-2.91-12.63.28-1.23,1.39-2.12,1.43-3.45-.6-1.45.04-2.69.83-3.78.54-.75.78-1.49.83-2.36.72-.11,1-1.21,1.92-.87.03,2.04.05,4.08.08,6.12.85,24.26,32.41,18.66,25.62,41.18.82,5.32-1.46,11.53-2.71,16.74.18.14.36.27.54.41,1.47-3.41,2.36-7.01,2.79-10.66.23-1.91,1.66-3.71.69-5.76.34-1.89.97-3.73,1.08-5.64-.06-2.39-.06-5.18-1.38-7.09-.3-.62-.6-1.23-.9-1.84.04-1.28-1.19-1.89-1.56-2.95-1.3-1.48-3.24-2.01-4.77-3.15-2.58-1.47-5.26-2.79-7.46-4.83-.66-.14-1.27-.38-1.78-.84-1.36-.32-2.32-1.18-3.1-2.29-.79-.51-1.17-1.29-1.44-2.15-.59-.48-.94-1.13-1.24-1.82-.53-.41-.79-.98-.89-1.64-.5-1.05-.93-2.13-1.31-3.23-.43-.36-.41-.86-.43-1.35-.67-2.01-.9-4.02-.68-6.15-.21-1.18-.11-2.38-.13-3.58.15-.14.3-.28.45-.42,0-.6.01-1.19.01-1.78-.03-.17-.06-.33-.09-.5,1.04-1.27,1.03-2.89,1.47-4.36.42-2.82,1.52-5.53,2.05-8.37.43-.86,1.01-1.67.86-2.71.87-2.05,1.74-4.11,2.6-6.16.01-.54.09-1.04.54-1.42.84-1.76,2.24-3.24,2.66-5.22.17-.27.34-.54.51-.81.2-.12.42-.24.3-.54,0,0-.03-.11-.04-.11.13-.18.15-.36.09-.51h0s-.01-.02-.02-.03h0c.13.13.28.19.54.09.11-.53.39-.95.81-1.28.69-1.64,2.01-2.84,2.95-4.31.67-1.33,1.74-2.32,2.76-3.36.31-.58.38-1.32,1.1-1.6.04-.41.6-.69.34-1.18.58.41.73-.27,1.06-.48.81-.24,1.56-.76,2.47-.45.36,2.79.4,5.66.97,8.42-.01-.01-.01-.02-.02-.02-.2.57-.39,1.15-.59,1.72-.9.31-.81,1.41-1.51,1.88-1.95,3.07-3.47,6.35-4.93,9.67-1.03,6.33-1.68,12.67-2.01,19.07-.22,1.77.4,3.48.1,5.22-.2,2.71,1.08,5.25.9,7.96,1.11,3.61,2.26,7.22,4.05,10.57,1.98,3.04,4.03,6.02,5.57,9.32.54,1.22,2.32,1.9,1.67,3.6,2.42,1.3,2.93,5.45,3.69,7.88,1.15,1.97.79,4.39.98,6.61-.04,1.33-.07,2.66-.11,4,.08.49.09.97-.2,1.41-.54,3.21-1.05,6.41-1.86,9.56.25.02.5.03.74.04,2.54-6.33,2.83-13.13,2.54-19.87.55-14.02-15.52-24.86-15.83-45.48-.03-2.5-.42-5.08-.09-7.54.38-1.16-.4-2.36-.11-3.41,1.54-4.86,1.79-17.01,7.62-18.37-.21,7.23,3.93,13.64,6.84,20,.21.6,1.04.85.89,1.64.46.39.77.86.84,1.47,2.48,3.46,3.47,7.72,6.16,11.06.4,1.68,1.68,2.86,2.66,4.13,2,2.58,3.58,5.59,6.55,7.32.09-.19.33-.47.27-.57-4.4-8.85-9.4-17.36-14.24-26.02-16.87-35.5-7.73-56.34,9.79-88.6,2.2-4.14,4.42-8.26,6.45-12.51,2.1-4.4,1.42-9.36,3.5-13.67-.14-3.36.6-6.92-.78-10.21Zm-62.01,63.24c2.56-.68,4.04-2.48,4.34-5.17.57-.29.48-1.55,1.57-1.08.11.04.21.09.31.14.01.01.09,1.03.15,1.17.64,1.36,2.36,1.24,3.39,2.19.44.4.82.97,1.41,1.15,2.04.19,3.38,1.68,4.38,3.36.24.41.98,2.5-.1,2.49-6.99.37-13.98.13-20.6-2.27-1.62-.33-2.8-1.42-4.01-2.42.03-.35.08-.68.43-.86,2.6,2.5,5.68,2.12,8.73,1.3Zm49.51-68.47c1.42,2.65,5.38,6.55,4.08,9.68-.58,1.23-1.63,2.17-2.03,3.54-.35,1.2-1.3,1.17-2.29.76-.04.12-.07.25-.11.37.12-.66.06-1.32-.03-2.01.03-.59.07-1.18.1-1.77.55-1.49.47-3.05.08-4.5-.23-.99-1.47-6.23.2-6.07Zm6.42,24.52c-1.84,9.93-7.47,18.62-11.35,27.84-2.78-.96-1.15-6.12-.65-8.16.66-1.43.21-3.15,1.16-4.5,1.19-.07,3.45-.33,2.44-1.55-1.75-2.1-.24-2.67.7-3.77,2.05-2.4,2.08-5.32.08-7.02,1.05-1.49.96-3.17.82-4.86.13-1.18.27-2.36.4-3.54.08-.43.16-.86.24-1.29.63-.24.71-.84.94-1.37.91-2.04,2.22-3.81,3.74-5.44,1.6,1.16,1.09,3.01,1.45,4.56.69,3.02.7,6.22.03,9.1Z"/>
    <path class="uuid-bdf97552-8f27-40f4-b188-89b0ad4f7b75" d="m280.77,319.55c.1-.02.2-.06.29-.14-.08.08-.19.12-.29.14Z"/>
    <path class="uuid-bdf97552-8f27-40f4-b188-89b0ad4f7b75" d="m330.9,193.82c.02.1.03.2.04.3-.04-.15-.11-.29-.22-.44.06.05.12.09.18.14Z"/>
    <path class="uuid-bdf97552-8f27-40f4-b188-89b0ad4f7b75" d="m320.13,339.22l.11.12c.04-.07.05-.13.07-.2-.03-.05-.15.07-.18.08Z"/>
    <path class="uuid-bdf97552-8f27-40f4-b188-89b0ad4f7b75" d="m309.46,134.05c.42-.29.82-.6,1.25-.86,3.97-2.39,8.52-3.11,12.85-4.47-1.14-2.46-19.02,4.09-14.11,5.33Z"/>
    <path class="uuid-bdf97552-8f27-40f4-b188-89b0ad4f7b75" d="m271.03,86.77c-2.83,5.01-7.06,9.45-8.79,14.93.27-.01.54-.02.82-.04,3.06-6.1,7.09-11.63,10.35-17.62-.99.77-1.73,1.68-2.38,2.73Z"/>
    <path class="uuid-bdf97552-8f27-40f4-b188-89b0ad4f7b75" d="m353.61,269.7s-.02,0-.02,0c0,0,0,0,0,0,0,0,.02,0,.02.01,0,0,0-.01,0-.02Z"/>
    <polygon class="uuid-bdf97552-8f27-40f4-b188-89b0ad4f7b75" points="188.07 215.8 188.08 215.8 188.08 215.8 188.07 215.8"/>
    <path class="uuid-bdf97552-8f27-40f4-b188-89b0ad4f7b75" d="m230.82,200.02c-.22,2.32-1.18,3.35-3.52,2.07-.22-.12-.55-.03-.83-.02-.42-1.16-.83-2.33-1.24-3.49.92-.24,1.78.83,2.94.02-1.23-.57-.85-2.2-2.11-2.73-.53-.93-1.45-.83-2.31-.86-.59-.02-1.38-.02-1.44.63-.1,1,.89.65,1.44.81.05.98.07,1.96-.06,2.93-.82.03-1.64.15-2.45-.06.01-2.9-3.59-11.97-7.84-11.39-3.89-.03-6.93-2.89-10.56-3.7-1.12-.15-2.32.03-3.3-.64-.79-.53-.92-1.63-2.14-1.35-.73-.02-1.34.26-1.84.78-.25-.04-.5-.08-.75-.11-.22-.71-1.04-.68-1.43-1.17.28-1.06-.22-2.04-.49-3.04-.38-.22-.76-.49-1.25-.33-.07,1.26-.12,2.52-.11,3.78-1.2-.06-2.32.42-3.48.64.17-.68-2.78-1.56-3.44-1.37-1.11-.23-2.11,0-3.17.35.89.81,2,.32,2.99.48.13.66-.03,1.45.07,2.13-1.75-.03-3.64,1.3-5.21-.53-.51-.97-1.77-1.59-1.42-2.97-.09-.11-.18-.23-.27-.34-.42-.54.31-2.03-.99-1.69-1.07.27-.28,1.32-.14,2.03.16,1.32,1.47,2.56-.35,3.55h-.01c-1.07-.38-1.93-.96-2.24-2.14-.66-.13-.91.28-1.08.8.18.78,1,1.51.48,2.34-.4.62-1.01.04-1.52-.07-.15,1.43-1.41.87-1.4,1.93-1.78.14-2.09-2.35-3.91-1.95-.26.84.36,1.35.74,1.94.98,1.51.58,2.15-1.2,1.93-.6-.58-1.45-.34-2.16-.37.15,1.74,4.71,2.58,6.04,3.51.75.52,1.43,1.15,2.28,1.49,5.47.87,4.72,3.26,8.1,6.17-.19-.61.49-1.18,1.12-1.17s1.18.39,1.73.7c1.58.89,3.41,1.36,5.23,1.32.23.77.81,1.53.76,2.35-.3.84-1.39.56-1.97.17-2.22-1.22-4.44-2.43-6.67-3.65.16.09.41,1.08.57,1.32,1.44,1.69,3.53,2.74,5.53,3.61,6.4,2.65,13.69,3.28,20.56,3.39,3.24.05,7.65-1.09,10.64.31,1.73.66,1.68,4.59,3.34,2.95.9-1.14.91-.72,1.9-1.26.18-.18.24-.47.46-.57,3.36.33-1.3-3.96-1.27-6.91.1.03.29.03.39,0,1.98.09,1.57-.84,3.9-.48.88,1.79,2.52,1.25,3.97,1.29.6-1.06.32-2.23.39-3.36Zm-44.62-.17c-3.18-1.63-6.84-2.58-8.68-6.11,2.22-.86,4.65-1.09,6.96-1.68.06.48.06.99.64,1.19-.53,2.29,1.59,4.25,1.08,6.6Zm4.88-2.19c-.57-.31-1.18-.71-1.72.09-2.06-.52-3.06-1.8-2.14-3.66.22-2.27.47-3.59,3.09-2.97,1.16.25.24,1.2.39,1.82.49,1.99,1.06,3.92,2.93,5.11-.89.12-1.74.07-2.55-.39Zm24.15,6.13c-.36.07-.59.28-.72.61-4.41-.05-8.83-.1-13.24-.15-.51-.35-.39-.94-.52-1.43-.41.06-.82.11-1.23.17,1.66-.28,3.1-1.58,4.12-3.22,1.03-1.65,1.64-3.64,1.64-5.3,0-.42,0-.99.53-1.05.26-.04.62.31.86.55,1.56,1.87,3.6,3.2,5.18,5.05.44.73,1.08,1.26,1.76,1.75.34.77,2.03,2.38,1.62,3.02Z"/>
    <path class="uuid-bdf97552-8f27-40f4-b188-89b0ad4f7b75" d="m256.11,279.86c-.74,3.41,1.46,7.9-2.24,10.19-.02.3-.04.61-.05.91,5.69-2.73,4.06-14.45,2.29-11.1Z"/>
    <path class="uuid-bdf97552-8f27-40f4-b188-89b0ad4f7b75" d="m302.39,270.58c-.32.19-.41.49-.42.83.36-.17.42-.49.43-.83.74.03.94-.56,1.19-1.07,5.05-8.71,7.18-18.58,8.09-28.51.08-.42.6-1.69-.87-1.29.25,1.51-.21,2.94-.57,4.37-.37,2.89-.89,5.83-1.43,8.72-.12.58.03.95.17,1.41-.76.34-1.24,1.1-1.13,1.75.32,1.99-.97,3.46-1.38,5.19-.8,3.4-3.2,6.09-4.08,9.44Z"/>
    <path class="uuid-bdf97552-8f27-40f4-b188-89b0ad4f7b75" d="m281.99,92.02c1.85-2.32,4.54-3.66,6.26-6.11-1.87-.22-3.04,2.06-4.69,2.68-2.07,1.65-3.38,4.13-5.84,5.35-1.72,1.48-3.81,2.61-5.06,4.54-2.2,2.87-5.64,4.73-6.85,8.4.87.21.9-.07,1.38-.71.11-.13.22-.26.33-.39.27-.73.97-1.06,1.47-1.57,4.26-4.15,7.93-8.98,12.99-12.19Z"/>
    <path class="uuid-bdf97552-8f27-40f4-b188-89b0ad4f7b75" d="m145.95,287.96c.67-.17,1-.58,1.22-1.04,1.89-3.96,3.76-7.93,5.62-11.9.21-.45.25-.87-.46-.86-2.82,4.16-4.18,9.17-6.38,13.8Z"/>
    <path class="uuid-bdf97552-8f27-40f4-b188-89b0ad4f7b75" d="m285.03,109.2c.49-.64,1.06-1.16,1.89-1.32.24-.5.64-.76,1.17-.88.39-.47.87-.79,1.47-.92,1.64-2.13,4.82-1.81,6.67-4.25-5.09,1.46-8.86,4.23-12.77,7.12.19,2.24,1.12-.35,1.57.24Z"/>
    <path class="uuid-bdf97552-8f27-40f4-b188-89b0ad4f7b75" d="m220.23,218.22c-2.31,2.28-4.37,4.8-6.34,7.37-.53.69-1.62,1.52-1.74,2.4,1.1.01,2.09-1.5,2.73-2.25.93-1.1,2.18-2.18,3.24-3.38,1.08-1.22,1.97-2.56,2.11-4.14Z"/>
    <path class="uuid-bdf97552-8f27-40f4-b188-89b0ad4f7b75" d="m317.01,148.64v.02s0,0,0,0c0,0,0-.01,0-.02Z"/>
    <path class="uuid-bdf97552-8f27-40f4-b188-89b0ad4f7b75" d="m263.07,209.45c2.09-3.11,4.41-5.36,6.79-8.58-1.99.22-2.02,2.07-3.25,2.53-2.21,2.21-4.28,4.47-5.27,7.52.97-.02,1.3-.82,1.73-1.47Z"/>
    <path class="uuid-bdf97552-8f27-40f4-b188-89b0ad4f7b75" d="m207.4,98.53c.55-.5,1.01-1.34,1.89-.46,1.12.07,2.26.31,3.2-.6-1.95-1.58-4.23-.3-6.33-.68-.31-.06-.98.05-1.03.58-.07.67.56.94,1.02,1.27.42-.04.83-.07,1.25-.11Z"/>
    <path class="uuid-bdf97552-8f27-40f4-b188-89b0ad4f7b75" d="m138.41,36.38c3.27-3.88,5.04-9.21,9.21-12,5.51-5.73,11.41-4.88,18.56-3.09-4.95-5.25-17.14-2.19-20.74,3.79-.1.16-.04.43-.06.64-3.83,2.6-5.54,6.75-7.69,10.57-2.53,2.75-2.28-1.27-4.65-1.56.19,1.19.24,1.79,1.17,2.51.83.32,1.62,1.33,1.82,2.17.87.06,1.74-.09,2.61-.18l.02.03s.02,0,.03,0c-.24-.4-.37-.92-.58-1.37-.58-.53.15-.37.31-1.51Z"/>
    <path class="uuid-bdf97552-8f27-40f4-b188-89b0ad4f7b75" d="m226.73,297.25c5.48,1.6,12.59,2.35,17.46-1.15-1.23-1.03-5.05.98-6.44,1.22-3.77,1.03-7.59-.85-11.4-1.14-.33-.04-1.37-.48-1.35.04.02.54,1.34.91,1.72,1.02Z"/>
    <path class="uuid-bdf97552-8f27-40f4-b188-89b0ad4f7b75" d="m193.92,338.52c8.14,3.35,17.42,4.86,26.07,2.83,1.25-.34,5.34-1.27,5.12-3.16-5.01,2.21-10.42,3.59-15.88,2.43-1.33-.13-2.62.13-3.93.04-1.84-.12-3.49-1.02-5.3-1.26-1.21-.61-2.56-.71-3.8-1.17-1.44-.53-2.8-1.37-4.24-1.94-.15,1.16,1.02,1.87,1.97,2.23Z"/>
    <path class="uuid-bdf97552-8f27-40f4-b188-89b0ad4f7b75" d="m218.05,3.67c.01-.14.01-.28,0-.43-2.93-.48-5.8-.62-8.35,1.32.62.99,6.24-1.36,8.35-.89Z"/>
    <path class="uuid-bdf97552-8f27-40f4-b188-89b0ad4f7b75" d="m278.98,107.04c-1.17.97-2.54,1.79-2.87,3.45,1.41-.62,2.28-1.96,3.46-2.89,1.7-1.23,3.49-2.34,5.14-3.64.1-.19.06-.33-.03-.46.04.04.08.08.11.11.69-.56,1.38-1.11,2.08-1.67.1-.48.5-.64.86-.85,2.22-1.82,4.5-3.56,6.55-5.58-.42-1.07-.89-.15-1.17.05-3.17,2.24-6.07,4.82-8.95,7.42.07.07.14.14.2.21-.07-.07-.15-.13-.2-.21-1.76,1.31-3.64,2.46-5.18,4.05Z"/>
    <path class="uuid-bdf97552-8f27-40f4-b188-89b0ad4f7b75" d="m294.9,247.13c-2.89-.34-5.62.73-8.44.94-3.75-1.15-8-1.27-11.04-3.98v.03c-.92-.4-1.71-.95-2.29-1.77-.77-.21-.9-1.86-2.16-.94.2,1.1,1.2,1.81,1.88,2.59,2.04,2.18,4.95,2.99,7.68,3.91,6.35,2.44,8.63-.05,14.33-.33.02-.15.03-.3.05-.45Z"/>
    <path class="uuid-bdf97552-8f27-40f4-b188-89b0ad4f7b75" d="m321.77,371.33c-.1,1.83-1.22,1.74-1.32,2.65.21.36.55.44.93.43,2.09-1.4,1.26-3.91,2.18-5.76-.25-.01-.49-.03-.74-.04-.35.91-.7,1.82-1.05,2.72Z"/>
    <path class="uuid-bdf97552-8f27-40f4-b188-89b0ad4f7b75" d="m288.91,301.07c-.76-.23-1.05.44-1.5.92-.08,2.16-2.24,3.5-2.22,5.7-1.06.19-1.22,1.36-1.99,1.85-.2.57-.53,1.04-1.06,1.36-1.08,1.72-2.99,2.93-3.15,5.21,2.31-2.64,4.82-5.12,6.21-8.43,0,0,0,0,0,0,2.13-1.71,2.74-4.26,3.72-6.62Z"/>
    <path class="uuid-bdf97552-8f27-40f4-b188-89b0ad4f7b75" d="m258.08,291.65c-1.75.12.03,3.97.15,5.04.82-1.05.42-2.19.26-3.33-.08-.62.74-1.73-.41-1.72Z"/>
    <path class="uuid-bdf97552-8f27-40f4-b188-89b0ad4f7b75" d="m221.29,4.75c.56.46.62,1.76,1.66,1.35.83-.36.28-1.66.42-2.42-.89-.1-1.78-.12-2.68-.07-.08.5.25.83.6,1.14Z"/>
    <path class="uuid-bdf97552-8f27-40f4-b188-89b0ad4f7b75" d="m155.82,296.95c-.88,1.66-.59,3.21.65,4.64-.37-1.52-.06-3.1-.65-4.64Z"/>
    <path class="uuid-bdf97552-8f27-40f4-b188-89b0ad4f7b75" d="m259.01,307.9c-1.03.6-1.58,2.21-1.63,3.32.76-.31,3.15-2.87,1.63-3.32Z"/>
    <path class="uuid-bdf97552-8f27-40f4-b188-89b0ad4f7b75" d="m151.42,366.46s0,0-.02-.01c0,0,0,.02,0,.03h0s.01,0,.02,0c0-.01,0-.02-.01-.01h0Z"/>
    <path class="uuid-bdf97552-8f27-40f4-b188-89b0ad4f7b75" d="m366.07,217.13c-1.27-2.76-2.01,6.72-2.69,7.37,1.83.61,1.76-3.24,1.6-4.37.42-.99,1.23-1.87,1.09-2.99Z"/>
    <path class="uuid-bdf97552-8f27-40f4-b188-89b0ad4f7b75" d="m211.88,228.18c-.21.06-.42.12-.63.19.18.01.36.02.54.04,0-.09.04-.16.09-.22Z"/>
    <path class="uuid-bdf97552-8f27-40f4-b188-89b0ad4f7b75" d="m257.21,311.81c.05-.19.1-.38.14-.56-.19.15-.54.25-.14.56Z"/>
    <path class="uuid-bdf97552-8f27-40f4-b188-89b0ad4f7b75" d="m257.37,311.22s-.01.02-.02.03c0,0,.01,0,.02-.01h0s0-.01,0-.02Z"/>
    <path class="uuid-bdf97552-8f27-40f4-b188-89b0ad4f7b75" d="m307.43,295.95s0,.08,0,.08c0,0,0-.08,0-.08Z"/>
    <path class="uuid-bdf97552-8f27-40f4-b188-89b0ad4f7b75" d="m230.45,3.91c.06.49-.08,1.31.46,1.32,2.91.2,6.93,3.53,8.8-.27,5.54,2.35,10.47,5.78,15.64,8.88-1.01-2.85-3.24-4.82-5.55-6.46-.44-.17-.86-.36-.97-.89-.38-.02-.78-.15-1.16-.21-.02-.28-.54-.57.03-.83-1.17-1.75-3.18-1.94-4.9-2.65-.47.04-.84.21-.94.72-4.41-1.65-9-1.84-13.61-1.12-.52.59-1.14.48-1.78.26-1.12.13-2.47-.17-3.08,1.02l.17.05c2.28.38,4.6.07,6.9.18Z"/>
    <path class="uuid-bdf97552-8f27-40f4-b188-89b0ad4f7b75" d="m111.47,193.92c-3.08,6.06-7.75,10.91-12.62,15.54-.33.27-.6.74-.24,1.15.34.38.66.05.91-.21,6.17-6.31,12-12.32,14.48-21.3-1.93,1.47-1.82,3.35-2.53,4.82Z"/>
    <path class="uuid-bdf97552-8f27-40f4-b188-89b0ad4f7b75" d="m115.7,196.51c-1.59.99-2.86,2.26-4.04,4.19,2.93-1.34,3.73-2.22,4.04-4.19Z"/>
    <path class="uuid-bdf97552-8f27-40f4-b188-89b0ad4f7b75" d="m126.99,182.62c-.33,1-1.52,4.4-.29,4.56,1.36.08.81-1.39.85-2.22.04-.67.28-1.44-.57-2.34Z"/>
    <path class="uuid-bdf97552-8f27-40f4-b188-89b0ad4f7b75" d="m107.09,204.46c1.61-.37,2.81-1.18,3.26-2.8-1.39.6-2.63,1.37-3.26,2.8Z"/>
    <path class="uuid-bdf97552-8f27-40f4-b188-89b0ad4f7b75" d="m110.34,201.66s.03,0,.02-.02c0,0,0,0-.01,0,0,0,0,.01,0,.02Z"/>
    <path class="uuid-bdf97552-8f27-40f4-b188-89b0ad4f7b75" d="m110.37,201.64c.34-.03.68-.05.68-.52,0-.05-.09-.14-.14-.14-.48-.03-.49.34-.54.66Z"/>
    <path class="uuid-bdf97552-8f27-40f4-b188-89b0ad4f7b75" d="m122.75,275.42c.37.07.64-.08.82-.4-.36-.05-.65.07-.82.4Z"/>
    <path class="uuid-bdf97552-8f27-40f4-b188-89b0ad4f7b75" d="m122.71,275.43h0s0,.01,0,.02c0,0,0,0,.01,0,0-.01.02-.01.02-.02-.01,0-.02,0-.04,0h0Z"/>
    <path class="uuid-bdf97552-8f27-40f4-b188-89b0ad4f7b75" d="m123.62,275.01s0-.03,0-.05c-.02.02-.04.03-.05.05.02,0,.03,0,.05,0Z"/>
    <path class="uuid-bdf97552-8f27-40f4-b188-89b0ad4f7b75" d="m320.48,224.15s0,.03,0,.04c.05.02.09.05.14.07-.04-.03-.08-.06-.12-.09,0,0-.01-.01-.02-.02Z"/>
    <path class="uuid-bdf97552-8f27-40f4-b188-89b0ad4f7b75" d="m151.2,124.55c-.09.05-.18.11-.26.16-1.36,1.32-2.57,2.77-3.6,4.36,0,0,0,0,0,0-.14.15-.29.3-.43.44-.51.12-.94.34-1.05.9-.05.25.11.42.36.36.45-.06,1.04-.82.76-1.19.04.04.07.07.11.11,1.81-1.3,3.54-2.5,3.96-4.87,0,0-.05-.05-.08-.08.03.03.08.08.08.08.05-.09.1-.18.15-.27Z"/>
    <path class="uuid-bdf97552-8f27-40f4-b188-89b0ad4f7b75" d="m228.29,195.28c1.46-.76-1.67-3.94-2.11-4.98-.18.05-.35.11-.53.16.43,1.36.86,2.72,1.31,4.08.21.63.67,1.07,1.33.74Z"/>
    <path class="uuid-bdf97552-8f27-40f4-b188-89b0ad4f7b75" d="m123.28,158.78c.12-.27.24-.54.36-.81-.3.19-.44.45-.36.81Z"/>
    <path class="uuid-bdf97552-8f27-40f4-b188-89b0ad4f7b75" d="m200.36,91.11c.18-.04.36-.08.54-.11-.22-.17-.39-.07-.54.11Z"/>
    <path class="uuid-bdf97552-8f27-40f4-b188-89b0ad4f7b75" d="m88.33,214.63c.09-2.4-5.7,4.34-5.37,5.55-.05.07-.11.15-.16.22.07-.06.15-.11.22-.17,2.09-1.56,3.33-3.94,5.31-5.61Z"/>
    <path class="uuid-bdf97552-8f27-40f4-b188-89b0ad4f7b75" d="m58.97,242.09c.05-.08.11-.15.16-.23-.12.04-.22.07-.16.23Z"/>
    <path class="uuid-bdf97552-8f27-40f4-b188-89b0ad4f7b75" d="m97.83,136.12c1.1.39,9.37-.13,8.96-1.6-.56,0-1.13-.01-1.69-.02-.49.61-1.18.39-1.81.42-.58,0-1.16.02-1.75.03-.5.58-1.17.36-1.79.39-.91.05-1.81.1-2.72.15h0c-2.62-.52-5.37.21-7.9-.9-2.23-.03-3.71-1.28-4.9-3.01-4.57-4.1-5.49-10.68-5.15-16.53.43-4.64,1.34-9.34,3.02-13.72-.04-.46.09-.98-.44-1.27-2.68,6.94-4.19,14.52-3.15,21.98.19,1.22.83,2.52.17,3.81.48.12.98.11,1.21.74,2.88,8.59,9.63,10.37,17.92,9.53Z"/>
    <path class="uuid-bdf97552-8f27-40f4-b188-89b0ad4f7b75" d="m103.48,146.67s0-.08,0-.08c0,0,0,.08,0,.08Z"/>
    <path class="uuid-bdf97552-8f27-40f4-b188-89b0ad4f7b75" d="m124.18,147.28c-1.61,6.19-5.3,11.36-8.05,17.02,3.39-5.32,7.61-10.27,8.05-17.02Z"/>
    <path class="uuid-bdf97552-8f27-40f4-b188-89b0ad4f7b75" d="m112.41,64.41c-.12-.34-.49-.65-.87-.43-1.03.31,2.16,4.66,2.44,5.56.12-1.92-.99-3.43-1.58-5.13Z"/>
    <path class="uuid-bdf97552-8f27-40f4-b188-89b0ad4f7b75" d="m222.74,106.48c-19.74-4.49-40.92,5.35-56.04,18.54.1-.12.19-.24.28-.36-.36.31-.71.63-1.06.96,1.03-1.33,1.92-2.76,2.64-4.27-1.92.14-3.39,1.71-4.66,3.17-17.66,19.68-35.5,42.8-34.7,70.59.48,3.56,1.4,7.04,2.02,10.57.33,6.86,2.76,13.24,4.3,19.86,5.19,24.3.22,65.28-31.86,64.57,14.45,26.42,29.35,53.05,48.95,76.23-16.13-22.3-34.09-48.39-45.86-73.09-.63-1.16-.35-2.12,1.03-2.05,26.47-2.48,32.75-34.98,29.89-56.91-1.26-7.62-.15-15.86-2.89-23.12-.72-1.53-1.28-2.95-1.48-4.65-.41-3.44.29-6.93,1.03-10.29,3.13-13.12,5.36-26.49,9.06-39.46,14.42-28.54,46.46-53.18,79.64-49.52.02-.31-.09-.56-.29-.77Zm-86.31,77.46c-.46,2.66-1.6,5.2-1.49,7.97-.75,1.19-1.62,2.33-2.01,3.72-.2.73-.64.85-1.28.62-.41-1.94,1.19-.82.6-3.5,0-.26,0-.52-.01-.78-1.27-9.65,3.58-19.28,6.14-28.61.37-.93.33-2.13,1.12-2.81.69.25.88.87,1.08,1.47-1.98,7.19-2.89,14.59-4.15,21.92Z"/>
    <path class="uuid-bdf97552-8f27-40f4-b188-89b0ad4f7b75" d="m274.75,321.35c.88-.88,1.82-1.88,1.86-3.12-.05,1.41-5.38,5.14-6.48,6.11-6.99,6.17-14.52,11.69-21.83,17.47-12.13,9.01-21.08,20.46-31.18,31.5-19.6,18.82-42.15,12.56-61.6-2.75,30.96,29.11,55.02,16.17,78.59-12.9,3.27-4.08,7.61-6.96,11.8-10.01-6.44,15.46-7.69,32.64-2.43,48.63,0,0,1.29,1.73,1.29,1.73-4.8-16.9-4.46-35.74,3.48-51.62,8.45-8.63,18.16-16.21,26.5-25.03Z"/>
    <path class="uuid-bdf97552-8f27-40f4-b188-89b0ad4f7b75" d="m177.63,279.8c-1.66-1.05-3.29-2.14-4.89-3.27-.16-.1-.31-.28-.51-.25-.18,0-.5.21-.29.38,3.2,2.26,6.51,4.38,9.91,6.34.69.27,2.84,1.93,3.35,1.56.09-.07.19-.22.05-.3-.86-.47-1.72-.94-2.57-1.43-1.7-.97-3.38-1.99-5.04-3.04Z"/>
    <path class="uuid-bdf97552-8f27-40f4-b188-89b0ad4f7b75" d="m210.44,327.24c-.09.06-.24.1-.34.08-3.25-.82-6.48-1.68-9.67-2.7-5.12-1.55-10.05-3.69-14.62-6.44-1.93-1.2-3.82-2.46-5.59-3.89-.06-.05.03-.13.16-.18-.27-.26-4.18-3.12-2.46-2.8,3.78,3.14,7.88,6,12.33,8.16.01-.02.01-.05.02-.08.22-.59.51-1.15.79-1.72.29-.59.58-1.18.92-1.74.31-.54.67-1.05.99-1.58.02-.02.03-.04.04-.07l.05.55c-.14.3-.29.6-.45.9-.48.92-.99,1.84-1.48,2.75-.16.3-.4.66-.26,1.01.1.26.33.32.55.45.87.52,1.83.88,2.77,1.27,1.01.42,2.03.84,3.05,1.23,2.03.79,4.08,1.52,6.14,2.21s4.13,1.33,6.19,1.98c.11.04.02.14-.03.18.31.08.62.17.93.26.11.03.02.13-.03.17Z"/>
    <path class="uuid-bdf97552-8f27-40f4-b188-89b0ad4f7b75" d="m228.79,326.78c.15-.17-.1-.3-.26-.23-2.79.69-5.67,1.07-8.55,1.09-.81-.07-1.62.02-2.43-.06-.2,0-.49-.08-.61.14-.05.11.04.2.15.2.86.04,1.68.05,2.49.26,2.86.36,5.94.21,8.56-1.07.17-.21.45-.17.65-.33Z"/>
    <path class="uuid-bdf97552-8f27-40f4-b188-89b0ad4f7b75" d="m249.52,308.95c.13-.1-.04-.15-.13-.13-.88.01-1.75,0-2.62-.06-1.81-.04-3.58-.49-5.38-.58-.81-.04-1.69-.45-2.47-.2-3.67-.69-7.17-1.99-10.9-2.39-3.78-.41-7.66-.38-11.32-1.5-.53-.16-1.08-.35-1.62-.27.81.56,1.62,1.13,2.52,1.52,2.63,1.14,5.56.77,8.34.97,2.85.21,5.56,1.08,8.32,1.79,2.67.69,5.29.64,7.96,1.13,1.03.19,3.03,1.48,1.2,2.19-1.56.61-3.4.67-5.04.96-1.92.34-3.79.53-5.73.57-4.99.11-9.79-.5-14.64-1.57-5.19-1.23-10.24-2.94-15.26-4.71-5.87-1.99-9.74-7.93-15.67-10.48-2.99-1.38-6.24-2.25-8.79-4.42-2.06-1.17-4.33-2.01-6.13-3.6-2.83-2.69-5.44-3.33-9.17-3.87-1.99-.4-3.95-.94-5.81-1.74-1.78-.76-3.39.81-4.81,1.71-.42.24.23,2.03.1,2.56.03,1.85-.56,3.65-.43,5.5,0,.87.09,1.7.62,2.4.1.24.12.83.51.68.11-.03.29-.11.21-.25.2-.08.02-.24.09-.38-.11-1.14-.21-2.3-.09-3.46.14-1.43.51-2.85,1.33-4.04.76-.93,1.35-2.02,2.28-2.81,4.44,8.86,8.54,18.35,17.3,23.97.22.13.43.38.7.23.34-.12.04-.25-.11-.39-.1-.28-.56-.47-.78-.71.1-.07.24-.26.11-.37-4.78-3.65-10.25-10.7-11.13-16.87-1.52-7.08,6.53-1.82,9.25-.24,3.79,2.61,7.91,5.02,11.71,7.54,1.74,1.13,3.46,2.28,5.13,3.5,8.31,6.82,18.61,11,29.33,12.66.07-.02.13-.03.13.03.18,2.44-.74,4.78-1.01,7.18,0,.07.21-.13.23-.15.08-.12.13-.3.18-.44.11-.31.21-.62.29-.93.16-.65.27-1.31.38-1.97.05-.31.61-3.6.63-3.59,1.29.19,2.6.33,3.9.45.32.03.64.05.96.08.16.01.33.02.49.03.1,0,.2.02.3.03s.18-.02.25.08c.1.13.15.31.16.47.02.34-.07.69-.12,1.02-.12.81-.37,1.58-.68,2.34-.49,1.2-1.08,2.37-1.33,3.65.86-1.03,1.38-2.31,1.78-3.59.4-1.29.69-2.61,1.16-3.87.16-.06.34-.05.51-.04,1.77.09,3.54.06,5.3,0,.21,0,.42-.01.64-.02.11,0,.53-.08.61-.02.17.14.03.96,0,1.17-.08.81-.31,1.58-.5,2.37-.04.14-.08.28-.09.42-.02.3.1.6.15.89-.02-.11.14-.48.16-.6.05-.28.1-.56.15-.83.13-.73.27-1.45.4-2.18.02-.12.16-1.29.29-1.3,2.54-.17,5.06-.46,7.53-.9,5.59-.57-1.17,6.32-2.7,7.55-1.34,1.2-3.65,2.29-4.58,3.64,6.63-2.72,11.47-8.78,14.95-14.82.15,0,.31-.11.36-.24.2-.08.27-.37.03-.44,0-.02-.01-.05-.03-.07.13-.02.41-.22.12-.24Z"/>
    <path class="uuid-bdf97552-8f27-40f4-b188-89b0ad4f7b75" d="m153.02,285.15s0-.01,0-.02c.02,0,.02-.04.04-.05-.01.02-.02.05-.03.07Z"/>
    <path class="uuid-bdf97552-8f27-40f4-b188-89b0ad4f7b75" d="m166.12,299.01c.04.06.07.11.11.16-.05-.06-.09-.1-.13-.16h.02Z"/>
    <path class="uuid-bdf97552-8f27-40f4-b188-89b0ad4f7b75" d="m185.21,296.94c-.11-.07-.23-.15-.35-.23.13.07.25.14.37.21l-.02.02Z"/>
    <path class="uuid-bdf97552-8f27-40f4-b188-89b0ad4f7b75" d="m244.22,314.09s-.01-.07-.02-.11c.02.01.05.02.07.03,0,.03-.03.05-.05.08Z"/>
    <path class="uuid-bdf97552-8f27-40f4-b188-89b0ad4f7b75" d="m246.78,311.4h-.02s.05-.05.08-.08c-.02.03-.04.05-.06.08Z"/>
    <path class="uuid-bdf97552-8f27-40f4-b188-89b0ad4f7b75" d="m246.87,312.63c.01-.1.08-.17.15-.25-.05.09-.1.17-.15.25Z"/>
    <path class="uuid-bdf97552-8f27-40f4-b188-89b0ad4f7b75" d="m248.71,309.38s-.04-.06-.07-.08c.05-.01.1-.01.14-.02-.02.03-.05.07-.07.1Z"/>
  </g>
</svg>