<?xml version="1.0" encoding="UTF-8" standalone="no"?>
<!DOCTYPE svg PUBLIC "-//W3C//DTD SVG 1.1//EN" "http://www.w3.org/Graphics/SVG/1.1/DTD/svg11.dtd">
<!-- Created with Vectornator (http://vectornator.io/) -->
<svg height="100%" stroke-miterlimit="10" style="fill-rule:nonzero;clip-rule:evenodd;stroke-linecap:round;stroke-linejoin:round;" version="1.1" viewBox="0 0 400 400" width="100%" xml:space="preserve" xmlns="http://www.w3.org/2000/svg" xmlns:vectornator="http://vectornator.io" xmlns:xlink="http://www.w3.org/1999/xlink">
<defs/>
<g id="Untitled" vectornator:layerName="Untitled">
<path d="M228.475 264.074L228.475 264.074C227.419 261.517 225.604 259.701 223.362 258.951C223.205 258.895 223.019 258.923 222.853 259.007C222.686 259.09 222.565 259.229 222.519 259.377C222.445 259.6 222.547 259.877 222.862 259.979C224.9 260.656 226.576 262.425 227.456 264.852C227.688 265.5 227.883 266.204 228.003 266.955C228.17 267.9 228.253 268.937 228.262 270.141C228.262 270.771 228.262 271.299 228.244 271.781C228.244 272.05 228.225 272.327 228.216 272.605C228.216 272.689 228.216 272.772 228.198 272.856C228.179 273.059 228.17 273.254 228.179 273.448L228.383 276.496L228.911 273.495C228.966 273.17 229.022 272.846 229.068 272.522L229.217 271.549C229.226 271.475 229.235 271.392 229.244 271.299C229.254 271.179 229.272 271.049 229.309 270.901C229.383 270.41 229.448 269.928 229.467 269.447C229.467 269.308 229.467 269.169 229.467 269.03C229.448 268.418 229.374 267.825 229.309 267.307C229.152 266.13 228.874 265.046 228.475 264.074Z" fill="#232a56" fill-rule="nonzero" opacity="1" stroke="none" vectornator:layerName="path"/>
<path d="M221.213 258.803C220.815 258.59 220.425 258.608 220.055 258.618L218.953 258.655C218.313 258.682 217.656 258.71 216.979 258.673C215.951 258.627 214.849 258.543 213.617 258.432C212.552 258.321 211.449 258.201 210.245 258.062L209.911 258.025C208.892 257.904 207.883 257.784 206.864 257.673C205.928 257.571 204.696 257.45 203.464 257.349C202.139 257.256 201.065 257.21 200.064 257.191L199.787 257.191C198.675 257.191 197.656 257.228 196.665 257.311C195.525 257.404 194.377 257.571 193.256 257.793C191.709 258.117 190.199 258.673 188.726 259.22C188.263 259.396 187.809 259.562 187.346 259.729C185.122 260.517 182.946 260.887 180.472 260.887C180.176 260.887 179.879 260.887 179.583 260.887L179.287 260.887C177.684 260.869 175.878 260.85 174.099 261.184C172.524 261.48 170.912 262.082 169.152 263.046C165.938 264.796 163.242 267.149 160.306 269.817C159.889 270.188 159.472 270.762 159.046 271.522C158.898 271.79 158.768 272.059 158.685 272.263C158.601 272.327 158.546 272.411 158.527 272.504L158.36 272.587L158.518 272.67C158.546 272.8 158.629 272.911 158.759 272.976C159.018 273.096 159.277 273.217 159.546 273.346L159.704 273.421C159.759 273.495 159.833 273.56 159.935 273.606C163.826 275.449 168.235 277.534 172.876 278.247C173.877 278.404 174.896 278.478 175.989 278.478C178.897 278.478 181.76 277.941 184.52 277.422C185.215 277.293 185.901 277.163 186.595 277.043C188.485 276.709 190.467 276.57 192.394 276.44C194.932 276.264 197.563 276.079 200.092 275.44C204.474 274.338 207.605 271.383 209.847 268.946C210.31 268.446 210.773 267.918 211.227 267.409L211.31 267.316C211.94 266.612 212.589 265.88 213.228 265.195L215.136 263.388L215.182 263.351C215.377 263.166 215.581 262.99 215.775 262.823C216.553 262.165 217.387 261.582 218.258 261.082C218.564 260.906 218.86 260.739 219.166 260.591C219.657 260.35 220.148 260.128 220.639 259.952C220.694 259.933 220.74 259.914 220.805 259.896L220.842 259.877C220.944 259.84 221.037 259.813 221.12 259.776L221.167 259.757C221.25 259.72 221.38 259.664 221.472 259.544C221.546 259.451 221.574 259.331 221.556 259.22L222.454 258.923L221.398 258.951C221.333 258.895 221.25 258.858 221.194 258.831L221.213 258.803ZM161.667 272.346C161.936 272.281 162.205 272.216 162.483 272.151L162.594 272.124C163.113 271.994 163.65 271.864 164.178 271.725C164.308 271.688 164.437 271.651 164.502 271.633C164.567 271.633 164.632 271.605 164.66 271.596C164.956 271.531 165.262 271.447 165.623 271.327L165.78 271.262L165.78 271.281L166.068 271.207C166.142 271.188 166.207 271.17 166.281 271.142C166.41 271.105 166.531 271.068 166.614 271.031L168.217 270.41C168.596 270.271 169.004 270.123 169.412 270.03C170.181 269.845 170.949 269.613 171.69 269.4C172.747 269.095 173.84 268.77 174.923 268.557C176.007 268.409 177.174 268.289 178.481 268.187C178.508 268.187 178.545 268.187 178.592 268.187L178.638 268.187C178.721 268.187 178.796 268.187 178.86 268.159L179.111 268.14C179.194 268.14 179.277 268.113 179.342 268.076C179.713 268.039 179.935 267.724 179.916 267.446C179.898 267.205 179.703 266.964 179.351 266.964L179.277 266.964C177.591 267.084 175.683 267.214 173.793 267.529C172.747 267.696 171.672 267.955 170.31 268.363C170.023 268.437 169.717 268.511 169.421 268.594C168.411 268.891 167.327 269.187 166.244 269.354C165.641 269.447 165.03 269.465 164.419 269.474C163.993 269.474 163.474 269.493 162.964 269.548C162.603 269.586 162.26 269.678 161.927 269.78C163.928 267.983 166.077 266.13 168.448 264.639C170.319 263.453 172.033 262.675 173.691 262.277C175.451 261.851 177.369 261.869 179.055 261.888L179.277 261.888C179.62 261.888 179.953 261.897 180.287 261.888C182.557 261.888 184.391 261.665 186.049 261.184C187.096 260.878 188.105 260.498 189.097 260.128C189.977 259.794 190.884 259.451 191.801 259.173C196.257 257.821 201.167 258.164 205.419 258.59C206.53 258.701 207.67 258.831 208.781 258.96L208.846 258.96C210.291 259.136 211.773 259.303 213.274 259.442C208.939 260.063 204.742 261.489 200.676 262.879C199.008 263.453 197.119 264.092 195.257 264.657C192.959 265.324 191.023 265.788 189.189 266.13C187.392 266.436 185.725 266.584 184.104 266.584L184.002 266.584C183.724 266.584 183.307 266.834 183.307 267.177C183.307 267.39 183.464 267.612 183.816 267.612L183.872 267.612C189.763 267.612 195.349 265.713 200.741 263.87L200.944 263.805C201.602 263.583 202.251 263.36 202.899 263.147C206.929 261.869 210.338 260.906 213.867 260.378C214.219 260.331 214.59 260.294 214.96 260.266C215.516 260.22 216.016 260.192 216.516 260.174L216.85 260.174C217.044 260.155 217.239 260.146 217.433 260.146L217.452 260.146C217.452 260.146 217.396 260.174 217.378 260.192C216.933 260.461 216.479 260.767 216.044 261.091C215.84 261.248 215.627 261.406 215.414 261.582C215.312 261.665 215.21 261.749 215.108 261.841C215.071 261.869 215.034 261.906 214.997 261.943C214.969 261.971 214.914 262.027 214.895 262.036C214.849 262.054 214.803 262.091 214.747 262.147L214.747 262.147C213.237 263.49 211.866 265.028 210.541 266.529C208.077 269.308 205.521 272.189 202.038 273.661C199.157 274.875 195.97 275.079 192.885 275.273C191.653 275.347 190.254 275.44 188.939 275.597C187.318 275.792 185.706 276.107 184.15 276.403L184.076 276.403C181.093 276.996 178.008 277.589 174.933 277.367C172.793 277.209 170.56 276.718 168.096 275.857C166.735 275.264 165.364 274.671 163.993 274.078L163.131 273.708L160.621 272.624C160.778 272.587 160.945 272.541 161.102 272.504C161.288 272.457 161.482 272.411 161.667 272.365L161.667 272.346Z" fill="#232a56" fill-rule="nonzero" opacity="1" stroke="none" vectornator:layerName="path"/>
<path d="M153.738 275.996L153.738 275.996C153.534 275.894 153.265 275.922 153.052 276.07C152.876 276.19 152.775 276.376 152.784 276.57C152.988 279.822 154.062 282.971 155.887 285.685C155.989 285.834 156.156 285.917 156.35 285.917C156.498 285.917 156.656 285.871 156.776 285.787C156.906 285.695 156.999 285.574 157.026 285.435C157.054 285.306 157.026 285.176 156.952 285.065C155.229 282.499 154.21 279.497 154.016 276.394C154.007 276.227 153.905 276.079 153.756 275.996L153.738 275.996Z" fill="#232a56" fill-rule="nonzero" opacity="1" stroke="none" vectornator:layerName="path"/>
<path d="M157.647 234.069C158.203 236.747 159.917 238.97 162.733 240.674C162.807 240.721 162.909 240.748 163.011 240.748C163.233 240.748 163.529 240.637 163.659 240.424C163.77 240.239 163.752 239.961 163.502 239.813C160.926 238.257 159.37 236.228 158.861 233.801C158.277 231.013 159.379 228.224 160.593 225.834C160.667 226.084 160.75 226.325 160.843 226.566C160.889 226.686 160.982 226.788 161.102 226.844C161.251 226.918 161.464 226.918 161.649 226.844C161.788 226.798 161.89 226.714 161.964 226.612C162.047 226.483 162.075 226.325 162.019 226.186C160.296 221.601 162.131 216.673 163.613 212.717C163.659 212.606 163.65 212.476 163.613 212.374C163.566 212.273 163.474 212.189 163.353 212.143C163.187 212.078 162.964 212.097 162.77 212.18C162.612 212.254 162.501 212.365 162.446 212.504C160.908 216.636 159.676 220.36 160.25 224.176C160.195 224.222 160.139 224.278 160.111 224.334C159.018 226.372 157.832 228.743 157.564 231.272C157.49 231.253 157.416 231.253 157.332 231.263C157.23 231.281 156.878 231.346 156.758 231.633C153.321 239.915 151.237 248.659 150.551 257.608C150.542 257.775 150.616 257.923 150.755 258.025C150.848 258.09 150.959 258.117 151.089 258.117C151.218 258.117 151.348 258.09 151.45 258.034C151.644 257.941 151.765 257.784 151.774 257.599C152.423 249.104 154.349 240.785 157.527 232.856C157.554 233.282 157.601 233.69 157.693 234.088L157.647 234.069Z" fill="#232a56" fill-rule="nonzero" opacity="1" stroke="none" vectornator:layerName="path"/>
<path d="M198.758 235.672C198.629 235.774 198.564 235.904 198.573 236.043L198.212 236.339L198.684 236.302C198.768 236.395 198.897 236.432 199.064 236.432C199.24 236.432 199.481 236.376 199.601 236.274C203.121 233.402 204.752 228.576 203.649 224.278C202.547 219.98 198.823 216.543 194.367 215.719C194.164 215.691 193.663 215.82 193.534 216.145L193.117 216.33L193.543 216.413C193.599 216.534 193.7 216.617 193.849 216.645C197.878 217.386 201.306 220.489 202.399 224.371C203.538 228.428 202.075 232.967 198.768 235.672L198.758 235.672Z" fill="#232a56" fill-rule="nonzero" opacity="1" stroke="none" vectornator:layerName="path"/>
<path d="M186.688 236.2L186.577 236.33L186.577 236.33C186.531 236.422 186.503 236.515 186.512 236.608C186.521 236.774 186.623 236.876 186.651 236.904C186.651 236.904 186.669 236.923 186.679 236.923L186.679 239.109L187.16 237.034C187.29 237.015 187.475 236.969 187.614 236.811C189.263 234.968 190.977 233.069 193.237 232.115C193.756 231.893 195.488 231.272 196.165 232.374C196.794 233.384 196.072 234.616 195.359 235.691C195.266 235.83 195.266 235.959 195.284 236.043C195.303 236.154 195.377 236.256 195.47 236.32C195.655 236.45 195.914 236.404 195.989 236.395C196.1 236.376 196.313 236.311 196.424 236.135C197.063 235.181 198.258 233.393 197.239 231.8C196.303 230.336 194.303 230.735 193.71 230.892C190.773 231.679 188.606 234.088 186.688 236.219L186.688 236.2Z" fill="#232a56" fill-rule="nonzero" opacity="1" stroke="none" vectornator:layerName="path"/>
<path d="M164.474 237.247L164.474 237.247C164.687 237.312 165.021 237.275 165.206 237.108C166.197 236.191 167.652 237.219 168.356 237.96C168.643 238.266 168.921 238.609 169.208 238.961C169.801 239.702 170.421 240.47 171.292 241.008C171.376 241.054 171.468 241.082 171.579 241.082C171.709 241.082 171.857 241.045 171.987 240.971C172.228 240.841 172.283 240.656 172.293 240.526C172.293 240.369 172.209 240.22 172.061 240.137C171.32 239.683 170.764 238.979 170.218 238.294C169.727 237.673 169.217 237.034 168.55 236.543C167.364 235.654 165.53 235.339 164.317 236.478C164.132 236.654 164.132 236.83 164.159 236.932C164.178 237.006 164.243 237.182 164.474 237.256L164.474 237.247Z" fill="#232a56" fill-rule="nonzero" opacity="1" stroke="none" vectornator:layerName="path"/>
<path d="M218.638 240.943C218.767 240.943 218.916 240.906 219.036 240.841C219.231 240.739 219.295 240.6 219.314 240.526C219.351 240.415 219.342 240.294 219.286 240.193C215.655 233.347 211.032 227.113 205.558 221.666C205.465 221.564 205.326 221.517 205.159 221.517C204.956 221.517 204.724 221.61 204.594 221.74C204.502 221.832 204.446 221.953 204.446 222.073C204.446 222.194 204.492 222.305 204.585 222.388C210.004 227.789 214.562 233.94 218.147 240.684C218.239 240.86 218.415 240.952 218.638 240.952L218.638 240.943Z" fill="#232a56" fill-rule="nonzero" opacity="1" stroke="none" vectornator:layerName="path"/>
<path d="M285.612 296.125L285.64 296.329L285.788 296.329C285.788 296.329 285.816 296.348 285.835 296.357L286.066 296.477L286.298 296.338C286.298 296.338 286.316 296.338 286.316 296.32L286.52 296.32L286.52 295.931L287.687 295.44L286.492 295.477C286.168 285.593 285.14 270.929 282.129 257.006C281.388 253.578 280.536 250.077 279.591 246.575C279.536 246.371 279.378 246.214 279.165 246.158C278.906 246.093 278.591 246.177 278.396 246.362C278.239 246.52 278.183 246.733 278.239 246.936C278.257 247.02 278.276 247.094 278.304 247.196L278.35 247.372C278.257 247.455 278.22 247.557 278.202 247.622C274.506 263.388 266.78 278.108 255.867 290.178C252.857 293.504 249.578 296.653 246.104 299.544C245.872 299.729 245.891 300.025 246.039 300.21C246.122 300.303 246.233 300.368 246.391 300.377L246.678 300.739L246.678 300.368C246.836 300.34 247.012 300.294 247.123 300.201C259.628 289.808 269.42 276.264 275.423 261.045C276.831 257.469 278.044 253.726 279.026 249.928C281.851 260.998 283.76 272.346 284.705 283.657C284.769 284.416 284.844 285.241 284.918 286.13L284.918 286.195C285.196 289.252 285.492 292.716 285.603 295.505L285.603 295.505L285.603 295.727L284.593 296.153L285.631 296.116L285.612 296.125Z" fill="#232a56" fill-rule="nonzero" opacity="1" stroke="none" vectornator:layerName="path"/>
<path d="M200.898 286.269L189.838 288.853C189.467 288.937 189.319 289.243 189.374 289.483C189.43 289.715 189.643 289.872 189.912 289.872C189.967 289.872 190.023 289.872 190.078 289.854L201.13 287.269C201.361 287.214 201.519 287.075 201.584 286.88C201.63 286.714 201.584 286.538 201.472 286.417C201.334 286.269 201.12 286.213 200.889 286.269L200.898 286.269Z" fill="#232a56" fill-rule="nonzero" opacity="1" stroke="none" vectornator:layerName="path"/>
<path d="M139.602 186.641L139.843 186.409L139.343 186.529L139.343 186.529C139.343 186.529 139.305 186.511 139.259 186.492L139.176 186.474C136.878 185.909 134.84 185.918 133.127 186.483L133.127 186.465L132.765 186.594C132.423 186.715 132.071 186.863 131.682 187.048L131.682 187.048C131.635 187.048 131.589 187.057 131.561 187.067C131.506 187.085 131.45 187.104 131.394 187.141C131.394 187.02 131.394 186.909 131.404 186.798C131.404 186.576 131.246 186.409 131.015 186.4C130.95 186.4 130.866 186.418 130.792 186.446C130.737 186.307 130.607 186.196 130.413 186.196C130.162 186.196 129.885 186.39 129.885 186.659C129.885 186.742 129.885 186.817 129.885 186.9C129.829 186.9 129.773 186.9 129.718 186.9C129.597 186.928 129.486 186.983 129.412 187.076C129.384 187.076 129.347 187.076 129.31 187.076C129.236 187.094 129.171 187.113 129.116 187.15L129.051 187.122C128.838 187.048 128.615 187.169 128.532 187.243C128.458 187.308 128.402 187.391 128.384 187.484C128.282 187.484 128.171 187.493 128.106 187.53C127.958 187.604 127.856 187.734 127.837 187.882C127.828 187.882 127.81 187.882 127.8 187.882C127.615 187.854 127.43 187.937 127.319 188.104C127.254 188.197 127.226 188.317 127.244 188.419C127.133 188.419 126.994 188.456 126.902 188.53C126.809 188.604 126.744 188.706 126.735 188.818C126.624 188.818 126.513 188.855 126.42 188.929C126.327 189.003 126.263 189.114 126.244 189.225C126.161 189.17 126.049 189.142 125.938 189.151C125.799 189.17 125.67 189.244 125.577 189.346C125.549 189.383 125.521 189.42 125.512 189.466C125.457 189.429 125.401 189.392 125.345 189.355C125.281 189.308 125.114 189.225 124.892 189.336C124.808 189.373 124.614 189.484 124.586 189.744C124.521 189.707 124.465 189.67 124.41 189.623C124.317 189.559 124.206 189.531 124.076 189.549C123.928 189.577 123.789 189.66 123.706 189.781C123.669 189.836 123.65 189.892 123.632 189.948C123.567 189.948 123.502 189.975 123.437 190.012C123.27 190.105 123.169 190.244 123.169 190.402C123.169 190.541 123.233 190.67 123.354 190.744C123.493 190.828 123.641 190.911 123.789 190.994C123.771 191.004 123.761 191.022 123.752 191.031L122.928 191.031L123.613 191.374C123.613 191.374 123.613 191.374 123.613 191.383C123.502 191.467 123.437 191.587 123.428 191.717C123.354 191.735 123.289 191.763 123.215 191.8C123.159 191.837 123.113 191.874 123.076 191.921L122.548 191.995L122.993 192.217C122.993 192.217 122.993 192.254 122.993 192.273L123.048 192.477L123.233 192.551C123.233 192.551 123.27 192.56 123.289 192.569C123.233 192.643 123.206 192.727 123.196 192.81L123.011 192.94L123.233 193.005C123.27 193.106 123.345 193.181 123.446 193.227C123.419 193.227 123.382 193.227 123.354 193.227C123.178 193.199 122.946 193.282 122.844 193.486C122.835 193.505 122.826 193.533 122.817 193.56L122.066 193.875L122.863 193.94C122.863 193.94 122.891 193.977 122.909 193.996C122.863 194.051 122.835 194.116 122.817 194.19C122.789 194.329 122.817 194.468 122.909 194.57C123.002 194.672 123.159 194.728 123.289 194.718C123.363 194.718 123.446 194.7 123.521 194.691C122.715 195.95 121.955 197.34 121.251 198.831L121.131 199.091L121.788 199.415L121.918 199.165C122.946 197.201 124.039 195.459 125.169 193.996C125.29 193.931 125.373 193.82 125.41 193.69C126.568 192.245 127.8 191.022 129.088 190.068C128.736 190.754 128.504 191.485 128.384 192.236C128.069 194.264 128.643 196.376 129.959 198.025C129.986 198.099 130.033 198.174 130.098 198.248L130.45 198.581C130.524 198.655 130.626 198.711 130.746 198.729C130.792 198.748 130.839 198.757 130.857 198.757C131.052 198.831 131.302 198.794 131.478 198.674C131.617 198.581 131.7 198.433 131.709 198.303C131.728 198.248 131.737 198.192 131.737 198.109C131.728 197.933 131.756 197.803 131.821 197.72C131.858 197.683 131.885 197.646 131.904 197.599C132.108 197.368 132.358 197.182 132.599 197.062C133.238 196.886 134.044 197.099 134.692 197.627C135.35 198.164 135.785 198.942 136.063 199.517C134.794 200.286 133.238 201.221 131.561 201.823C131.413 201.879 131.265 201.925 131.117 201.972L130.811 201.508L130.811 202.055C128.801 202.602 126.689 202.5 124.706 201.74L125.494 200.527L124.326 201.583C123.715 201.323 123.113 200.99 122.539 200.61C122.233 200.406 121.723 200.601 121.575 200.832C121.446 201.027 121.492 201.277 121.686 201.416C121.844 201.518 122.001 201.629 122.177 201.731C122.075 201.796 121.974 201.86 121.881 201.925C121.76 202.009 121.696 202.148 121.696 202.287C121.696 202.426 121.76 202.555 121.872 202.629C121.946 202.685 122.029 202.713 122.103 202.722C122.048 202.805 122.02 202.907 122.029 203.018L121.473 203.565L122.224 203.333C122.224 203.333 122.27 203.361 122.298 203.37C122.353 203.398 122.418 203.407 122.474 203.407C122.455 203.472 122.455 203.537 122.465 203.602C122.483 203.713 122.557 203.824 122.65 203.88C122.715 203.926 122.789 203.954 122.872 203.954L122.798 204.13L122.918 204.306C123.011 204.445 123.187 204.51 123.363 204.482C123.382 204.482 123.4 204.482 123.419 204.482L123.419 204.482C123.53 204.649 123.715 204.677 123.808 204.667L123.808 204.667C123.9 204.806 124.049 204.853 124.169 204.853L124.188 204.853C124.123 205.01 124.067 205.167 124.021 205.325C123.956 205.538 124.067 205.751 124.271 205.816C124.401 205.862 124.558 205.853 124.697 205.779C124.716 205.77 124.734 205.76 124.753 205.742C124.799 205.779 124.854 205.807 124.91 205.825C124.947 205.834 124.993 205.844 125.04 205.844C125.234 205.844 125.484 205.733 125.549 205.492C125.568 205.427 125.586 205.353 125.605 205.288L125.623 205.306C125.744 205.418 125.92 205.445 126.105 205.399C126.355 205.325 126.42 205.149 126.439 205.075C126.457 205.01 126.476 204.945 126.485 204.88C126.522 204.899 126.568 204.917 126.624 204.927C126.744 204.954 126.874 204.927 126.985 204.862C127.096 204.797 127.17 204.704 127.207 204.584C127.291 204.658 127.402 204.695 127.532 204.695C127.643 204.695 127.754 204.658 127.837 204.584C127.93 204.658 128.05 204.695 128.162 204.686C128.254 204.686 128.393 204.639 128.495 204.538C128.597 204.704 128.81 204.788 129.023 204.732C129.134 204.704 129.227 204.639 129.292 204.556C129.403 204.649 129.56 204.686 129.727 204.649C129.801 204.63 129.903 204.584 129.977 204.501C130.144 204.621 130.375 204.602 130.552 204.501C130.644 204.445 130.709 204.371 130.746 204.278C130.839 204.26 130.941 204.223 131.015 204.149L131.07 204.306L131.181 204.149C131.246 204.139 131.311 204.111 131.376 204.084C131.422 204.056 131.469 204.019 131.506 203.982C131.552 204.047 131.608 204.102 131.663 204.167C131.858 204.389 132.21 204.306 132.367 204.167C132.497 204.056 132.543 203.88 132.488 203.732C132.58 203.704 132.654 203.648 132.701 203.602C132.775 203.528 132.821 203.426 132.821 203.324C132.821 203.222 132.784 203.13 132.71 203.055C132.627 202.972 132.552 202.889 132.478 202.805C132.543 202.805 132.599 202.787 132.654 202.759C132.691 202.74 132.812 202.685 132.877 202.546C132.914 202.472 132.932 202.398 132.923 202.324C133.229 202.194 133.507 202.073 133.794 201.935C134.878 201.397 135.906 200.777 136.795 200.239L136.953 200.193L136.971 200.156C137.916 199.665 144.891 196.154 150.95 195.154C152.524 194.987 154.173 194.95 155.859 195.024C156.1 195.024 156.415 194.867 156.489 194.663C156.563 194.552 156.573 194.431 156.526 194.301L156.406 194.116L156.35 194.098C156.35 194.098 156.304 194.07 156.285 194.061C151.441 191.346 145.938 188.892 139.954 186.761C139.843 186.705 139.722 186.659 139.602 186.604L139.602 186.641ZM153.849 194.024C150.449 194.088 147.133 194.653 143.965 195.71C144.474 194.042 144.4 192.143 143.77 190.337C143.613 189.892 143.409 189.494 143.122 189.114C146.948 190.624 150.551 192.273 153.849 194.024Z" fill="#232a56" fill-rule="nonzero" opacity="1" stroke="none" vectornator:layerName="path"/>
<path d="M143.418 202.954L143.363 202.972C138.472 205.158 133.747 207.817 129.319 210.865L129.134 211.003L129.19 211.42L129.366 211.504C129.421 211.531 129.486 211.55 129.56 211.55C129.653 211.55 129.746 211.522 129.82 211.476C134.183 208.475 138.852 205.853 143.696 203.685C143.928 203.574 143.984 203.343 143.909 203.167C143.826 202.981 143.613 202.898 143.409 202.954L143.418 202.954Z" fill="#232a56" fill-rule="nonzero" opacity="1" stroke="none" vectornator:layerName="path"/>
<path d="M212.589 190.985L212.589 190.985C209.152 190.439 205.641 190.151 202.167 190.124C202.01 190.124 201.862 190.207 201.778 190.374L201.695 190.568L201.787 190.744C201.862 190.865 201.991 190.939 202.13 190.939C205.576 190.967 209.041 191.254 212.459 191.8L212.515 191.8C212.718 191.8 212.904 191.652 212.941 191.448C212.978 191.235 212.829 191.031 212.607 190.994L212.589 190.985Z" fill="#232a56" fill-rule="nonzero" opacity="1" stroke="none" vectornator:layerName="path"/>
<path d="M243.232 185.195C238.304 183.241 232.764 182.907 227.642 184.269C227.494 184.306 227.382 184.417 227.345 184.566C227.308 184.705 227.345 184.843 227.447 184.945C227.475 184.973 227.512 185.001 227.549 185.019L228.049 186.974L228.049 185.001C232.94 183.75 238.211 184.084 242.899 185.946C242.991 185.992 243.112 185.992 243.223 185.946C243.334 185.9 243.427 185.816 243.473 185.714C243.556 185.51 243.454 185.288 243.241 185.205L243.232 185.195Z" fill="#232a56" fill-rule="nonzero" opacity="1" stroke="none" vectornator:layerName="path"/>
<path d="M232.681 186.15C232.533 186.159 232.394 186.252 232.329 186.39C232.264 186.52 232.283 186.668 232.366 186.789C232.44 186.891 232.57 186.956 232.718 186.956L232.737 186.956C235.321 186.742 237.906 187.484 240.008 189.031C240.083 189.086 240.166 189.114 240.259 189.114C240.323 189.114 240.388 189.105 240.435 189.077C240.573 189.012 240.675 188.892 240.685 188.743C240.703 188.604 240.638 188.465 240.527 188.382C238.276 186.724 235.488 185.937 232.69 186.15L232.681 186.15Z" fill="#232a56" fill-rule="nonzero" opacity="1" stroke="none" vectornator:layerName="path"/>
<path d="M167.642 78.3601L167.642 78.6473C167.652 78.7307 167.642 78.8511 167.642 78.9808C167.642 79.1383 167.642 79.305 167.642 79.444C168.031 89.995 170.514 101.019 175.248 113.144C179.648 124.418 185.484 135.275 192.617 145.428C196.461 150.902 200.555 155.951 204.789 160.416L204.983 160.62L205.836 159.814L205.419 159.814C205.465 159.582 205.521 159.286 205.317 159.073C197.776 151.115 190.912 141.667 184.919 130.986C178.638 119.796 174.034 108.522 171.227 97.4984C169.56 90.9306 168.596 84.5759 168.374 78.6195L168.374 78.3231L167.624 78.3509L167.642 78.3601Z" fill="#232a56" fill-rule="nonzero" opacity="1" stroke="none" vectornator:layerName="path"/>
<path d="M179.805 67.5404C179.564 67.4015 179.277 67.3737 179.009 67.4478C178.74 67.5219 178.527 67.7072 178.388 67.948C178.258 68.1889 178.23 68.4668 178.305 68.7354C183.455 85.9469 190.718 101.519 199.888 115.006C206.169 124.381 214.395 132.672 224.353 139.666C233.607 146.159 244.094 151.365 255.534 155.154C261.602 157.257 268.225 159.128 276.367 161.046L276.645 161.111L276.803 160.434L276.479 160.305L276.386 160.286L276.386 160.286C268.419 158.415 261.87 156.544 255.793 154.404C240.101 149.105 218.304 138.508 203.585 118.082C193.441 104.187 185.604 87.392 180.296 68.1796C180.222 67.911 180.046 67.6794 179.805 67.5404Z" fill="#232a56" fill-rule="nonzero" opacity="1" stroke="none" vectornator:layerName="path"/>
<path d="M240.657 133.468C250.467 140.268 260.962 145.196 271.856 148.123L272.134 148.197L272.329 147.484L272.051 147.41C251.106 141.685 231.319 128.105 216.322 109.152C201.797 91.9033 190.884 70.9957 184.752 48.68C184.706 48.504 184.594 48.3651 184.437 48.2724C184.28 48.1798 184.104 48.1613 183.927 48.2076C183.751 48.2539 183.613 48.3651 183.529 48.5226C183.437 48.68 183.418 48.856 183.464 49.032C189.736 71.4959 200.824 92.5147 215.516 109.81C222.899 119.064 231.356 127.021 240.657 133.468Z" fill="#232a56" fill-rule="nonzero" opacity="1" stroke="none" vectornator:layerName="path"/>
<path d="M142.511 90.5323C132.691 102.195 126.031 117.211 123.252 133.969C122.242 140.092 121.723 146.511 121.705 153.061L121.705 153.338L122.437 153.338L122.446 153.07C122.742 145.474 123.335 139.462 124.336 134.154C127.504 115.775 135.887 98.9065 147.967 86.5768C147.541 87.9015 147.189 89.2262 146.846 90.523C146.077 93.6448 145.493 96.8222 145.123 99.9903C142.955 117.952 146.651 137.257 155.813 155.803L155.98 156.127L156.443 155.904L156.637 155.904L156.61 155.83L156.684 155.793L156.526 155.46C145.086 131.44 142.77 106.262 149.995 84.5574C150.005 84.5481 150.023 84.5296 150.042 84.5203L152.274 82.399L150.347 83.5106C150.551 82.9177 150.755 82.3619 150.959 81.8061L152.08 78.814L150.31 81.4634C149.736 82.3249 149.217 83.3161 148.736 84.4925C146.392 86.0858 144.437 88.3276 142.557 90.4952L142.52 90.5323L142.511 90.5323Z" fill="#232a56" fill-rule="nonzero" opacity="1" stroke="none" vectornator:layerName="path"/>
<path d="M159.731 88.5592C159.805 91.7643 160.074 94.9973 160.537 98.1469C163.14 116.053 171.746 133.719 185.428 149.226L185.669 149.503L185.854 149.346L186.503 149.29L186.021 148.716C168.152 127.864 159.176 102.473 161.408 79.0641L161.714 75.8775L160.695 78.9067C159.694 81.871 159.713 85.1873 159.741 88.3924L159.741 88.5499L159.731 88.5592Z" fill="#232a56" fill-rule="nonzero" opacity="1" stroke="none" vectornator:layerName="path"/>
<path d="M254.441 195.821L254.441 195.821C256.321 191.902 256.627 187.484 256.933 183.213L256.933 183.083C257.109 179.61 256.877 175.96 256.201 171.254C258.526 170.819 260.055 170.485 260.777 170.254C262.315 173.894 266.187 172.857 269.939 171.838L269.994 171.819C272.996 171.013 276.219 170.124 279.48 169.151C279.962 169.003 280.805 168.827 281.796 168.623C283.991 168.151 286.965 167.521 288.428 166.715C290.531 180.026 289.901 194.598 286.613 208.864C283.787 223.009 279.285 236.302 273.236 248.381L273.107 248.641L273.57 248.872L273.922 248.872L273.922 248.65C280.064 236.552 284.649 223.24 287.567 209.077C293.403 184.464 291.263 160.073 281.546 140.397C273.811 123.316 259.573 111.023 245.798 99.1288L245.742 99.0825C241.991 95.8403 238.1 92.4869 234.441 89.1057C222.547 78.2768 213.978 67.7905 208.244 57.0357C208.114 56.7856 207.892 56.6095 207.623 56.5262C207.355 56.4521 207.077 56.4799 206.836 56.6095C206.595 56.7392 206.419 56.9616 206.345 57.2209C206.271 57.4896 206.299 57.7675 206.428 58.0083C212.348 68.9299 221.111 79.5458 233.228 90.4397C236.989 93.8764 240.944 97.2483 244.77 100.509C258.433 112.162 272.56 124.205 280.286 141C283.519 147.438 285.955 154.459 287.53 161.879C285.205 161.694 278.85 162.407 276.099 162.713L275.895 162.732C275.358 162.787 274.969 162.834 274.82 162.843C274.052 162.898 273.283 162.963 272.514 163.019L271.041 163.13C269.374 163.26 267.308 163.426 265.325 163.556C263.269 163.704 261.722 164.019 260.851 165.066C260.323 165.705 260.11 166.539 260.175 167.623C260.101 167.632 260.036 167.651 259.971 167.678C259.462 167.864 258.044 168.169 255.756 168.595C255.126 165.335 254.033 161.212 251.189 157.952C248.336 155.367 244.446 154.83 240.685 154.302C239.971 154.2 239.286 154.107 238.591 153.996C226.123 152.736 212.246 156.479 198.434 164.825C195.183 166.789 192.644 168.577 190.449 170.43C187.781 172.523 184.131 175.385 183.381 179.239C182.714 179.313 182.084 179.387 181.519 179.461C180.268 179.582 179.083 179.517 177.823 179.443C177.545 179.424 177.267 179.406 176.943 179.397C172.691 179.73 168.689 180.527 164.252 181.472C163.483 181.796 162.27 182.333 160.621 183.056C160.213 181.833 159.694 180.703 159.064 179.674C157.054 176.849 153.377 175.96 150.412 175.247L150.125 175.172C148.569 174.783 146.225 174.218 143.909 173.913C129.931 172.116 117.194 173.653 107.032 178.359C106.226 160.453 109.134 140.963 115.674 120.425C118.704 111.319 121.557 103.158 125.753 95.4975C127.495 92.1349 129.764 89.3095 132.163 86.3174C132.599 85.7709 133.034 85.2336 133.469 84.6778L133.673 84.4277L132.784 83.4921L132.525 83.6588C130.552 84.9557 129.106 86.7899 127.68 88.7074C121.14 97.9338 117.573 108.846 114.118 119.397L113.961 119.888C107.55 140.99 104.92 160.805 106.124 178.776C104.392 179.619 102.715 180.573 101.122 181.601C100.64 181.963 100.13 182.333 99.6301 182.685L99.4819 182.796C98.5463 183.463 97.481 184.223 96.4898 185.038C95.8414 183.148 95.1466 181.045 94.3685 178.628C91.4412 169.355 88.8289 160.972 86.5686 152.375C82.1963 136.062 81.9369 117.961 85.8183 100.055L86.0592 99.5178C86.1796 99.2399 86.3093 98.9528 86.439 98.6749L86.5964 98.3414L86.2074 98.1561C86.1796 97.8782 85.985 97.6281 85.7071 97.5447C85.5126 97.4892 85.3088 97.5169 85.1421 97.6188L84.7345 97.415L84.577 97.7578C79.5006 108.513 75.1098 120.574 71.1543 134.654C64.4938 158.841 61.511 182.472 62.2984 204.927C59.0469 183.167 58.0094 165.075 59.0099 148.151C59.0099 148.105 59.0099 148.068 59.0191 147.993L59.7602 140.194C60.5661 133.959 61.9001 127.651 63.7157 121.454C69.8666 100.453 81.5479 80.2962 97.5088 63.1588C104.382 55.5906 110.468 49.6898 117.814 45.4471C125.429 41.0099 133.738 38.4254 143.02 35.7297C143.289 35.6556 143.511 35.4796 143.65 35.2295C143.78 34.9887 143.817 34.7108 143.733 34.4514C143.659 34.1827 143.483 33.9604 143.233 33.8307C142.992 33.6918 142.705 33.664 142.446 33.7474C133.025 36.5264 124.595 39.2035 116.832 43.7889C108.801 48.4855 102.15 55.2941 96.1656 61.9546C80.0935 79.3606 68.3567 99.7865 62.2336 121.037C61.0478 125.122 60.0659 129.3 59.3063 133.478L59.2693 133.691C58.3892 138.554 57.8149 143.399 57.574 148.086C57.5555 148.475 57.537 148.855 57.5185 149.244L57.4814 150.272L57.4351 150.634C55.9066 163.686 54.3226 177.183 54.5171 188.299C54.7024 205.482 58.6023 230.373 64.6976 253.263C71.812 279.988 81.0198 300.952 90.6075 312.29C99.5189 323.091 112.173 331.984 130.431 340.275C132.691 341.331 134.989 342.294 137.212 343.23L137.277 343.258C139.935 344.369 142.687 345.527 145.327 346.815C151.014 349.677 154.924 353.04 157.277 357.079L157.277 357.496L157.99 357.079L157.99 356.838L157.953 356.773C155.554 352.549 151.552 349.038 145.707 346.046C143.057 344.731 140.287 343.545 137.61 342.396L137.536 342.368C135.322 341.424 133.043 340.442 130.829 339.395C119.482 334.142 103.058 325.527 91.608 311.447C82.2148 300.173 73.2571 279.331 66.3836 252.745C60.492 229.956 56.7959 205.251 56.7403 188.271C56.6662 181.925 56.87 175.284 57.3702 167.549C57.8427 182.018 59.612 197.581 62.9098 216.219C62.9191 216.311 62.9561 216.404 63.0024 216.478C63.4934 221.684 64.1974 226.862 65.1052 231.846C71.3395 266.343 87.5228 296.524 110.681 316.811C119.222 324.323 128.847 330.678 139.268 335.68C149.643 340.655 160.611 344.203 171.866 346.213C175.257 346.796 178.082 347.148 180.769 347.334C182.529 351.595 184.381 356.208 186.799 362.276C189.689 369.557 192.58 376.986 195.025 383.304C195.09 383.489 195.247 383.619 195.451 383.656C195.488 383.656 195.535 383.665 195.572 383.665C195.785 383.665 195.989 383.572 196.109 383.424C196.229 383.276 196.257 383.091 196.192 382.924C191.727 371.391 187.327 360.099 182.677 348.751C182.436 348.167 182.195 347.584 181.954 347L181.908 346.889C179.676 341.461 176.683 334.328 173.358 327.325C171.941 324.333 170.477 321.433 169.023 318.71C168.93 318.543 168.754 318.441 168.532 318.441C168.291 318.441 168.059 318.571 167.939 318.756C167.846 318.923 167.837 319.117 167.939 319.275L167.957 319.312C148.8 317.227 135.841 302.165 129.81 293.356C119.778 278.673 113.646 261.582 108.977 246.797C106.467 238.831 104.16 230.661 101.927 222.759L101.733 222.083C102.15 222.648 102.585 223.194 103.03 223.731C108.699 230.271 120.51 231.578 129.088 230.021C144.808 226.529 154.322 219.313 158.166 207.956C160.519 200.378 162.51 192.421 161.214 185.529L161.63 185.362C161.834 185.279 162.019 185.205 162.149 185.158L162.353 185.075C162.835 191.559 162.89 198.155 162.538 204.677C162.52 204.973 162.742 205.195 163.094 205.214C163.409 205.214 163.742 205.01 163.761 204.677C164.122 198.109 164.057 191.43 163.566 184.834C163.566 184.751 163.529 184.677 163.483 184.603L165.197 183.889C165.716 183.825 166.772 183.63 167.883 183.417L168.106 183.38C169.106 183.195 170.245 182.982 171.051 182.852L171.765 182.731C173.515 182.426 175.331 182.111 176.98 181.99C177.193 181.99 177.415 182.009 177.638 182.027L177.684 182.027C178.453 182.074 179.324 182.12 180.111 182.055C181.056 182 182.047 181.879 183.251 181.703C183.918 188.771 188.078 194.561 192.052 199.285C194.59 202.37 197.721 205.853 201.639 208.28C207.095 211.661 213.885 213.282 220.759 212.865C231.319 212.236 238.925 209.883 245.409 205.251C249.707 202.268 252.653 199.174 254.422 195.811L254.441 195.821ZM188.235 180.851L188.402 180.814C188.837 180.731 189.337 180.629 189.726 180.471C190.282 180.249 190.412 179.702 190.301 179.285C190.19 178.869 189.801 178.461 189.208 178.535L188.958 178.572C188.04 178.693 186.92 178.832 186.095 178.933C186.364 178.007 186.818 177.201 187.438 176.534C190.94 172.949 195.423 169.494 200.481 166.456C198.99 167.632 197.6 168.818 196.387 169.864L196.127 170.096L196.943 171.171L197.23 170.985C197.962 170.513 198.693 170.031 199.435 169.55C201.917 167.919 204.483 166.233 207.132 164.825C215.655 160.147 223.223 160.027 230.94 164.445C233.339 165.816 235.479 167.669 237.294 169.948L237.507 170.207L238.628 169.475L238.461 169.17C234.673 162.417 226.641 158.081 218.638 158.359C221.148 157.6 223.584 157.016 225.909 156.618C231.051 155.71 236.433 155.645 241.491 156.423L242 156.507C244.761 156.951 247.892 157.461 249.902 159.276C251.782 161.249 253.274 164.473 254.348 168.855C250.476 169.55 246.428 170.189 246.391 170.189C245.668 170.309 245.168 170.995 245.279 171.726C245.39 172.375 245.946 172.847 246.595 172.847C246.669 172.847 246.752 172.847 246.808 172.829C247.586 172.708 251.449 172.097 254.913 171.476C255.608 175.247 255.942 179.443 255.84 183.009C255.58 186.956 255.145 191.476 253.237 195.154C248.966 202.398 240.027 206.937 233.089 208.771C217.591 212.31 205.873 210.133 198.267 202.277C195.377 199.369 192.607 196.043 190.236 192.662C188.92 190.689 185.882 185.659 185.799 181.259L186.382 181.157C186.91 181.064 187.429 180.971 187.966 180.879C188.05 180.86 188.133 180.842 188.226 180.823L188.235 180.851ZM81.8628 113.385L81.835 113.589C81.5108 115.97 81.1773 118.434 80.7605 120.861C77.7406 141.407 76.981 164.047 78.4168 190.059C79.6952 219.424 84.7901 244 93.9887 265.195C99.065 276.894 105.512 287.677 113.136 297.255C121.214 307.38 130.894 316.505 141.908 324.36L142.14 324.527L142.575 323.925L142.344 323.758C102.066 294.856 82.1222 252.356 79.584 190.003C78.2779 165.14 78.9819 143.408 81.7239 123.649C81.5849 133.709 82.7706 143.491 85.2625 152.755C88.375 164.214 91.7932 175.404 95.4152 186.011C93.7663 187.53 92.6918 189.031 92.0433 190.754C90.941 195.219 91.8488 199.508 92.9975 203.482C94.7483 209.521 96.8974 214.561 99.5838 218.896C99.5838 218.933 99.5838 218.979 99.6023 219.007C100.075 220.665 100.538 222.323 101.02 224.028C105.29 239.155 109.699 254.801 115.878 269.558C119.602 278.469 123.363 285.806 127.374 291.985C132.441 299.794 137.953 305.898 144.215 310.632C151.783 316.357 160.204 319.775 168.596 320.516C170.968 325.027 173.33 329.992 176.026 336.125C177.619 339.765 179.166 343.462 180.472 346.611C177.962 346.417 175.275 346.055 172.024 345.49C149.421 341.359 128.458 331.178 111.413 316.051C88.551 295.838 72.6364 265.862 66.5966 231.633C59.927 192.551 65.661 148.401 82.7521 107.197C82.4094 109.282 82.1314 111.366 81.8535 113.394L81.8628 113.385ZM94.3499 203.12C93.4699 199.48 92.7288 195.237 93.8034 191.319C94.2203 190.198 94.9613 189.132 96.11 188.002C98.185 193.987 100.232 199.526 102.354 204.936L102.483 205.288L103.715 204.806L103.576 204.463C101.362 198.813 99.2133 192.949 97.1846 187.039C97.8886 186.446 98.6297 185.89 99.3522 185.344L99.7505 185.047C101.751 183.574 103.956 182.24 106.309 181.064C106.485 183.111 106.707 185.131 106.967 187.067L107.004 187.345L107.736 187.261L107.699 186.974C107.486 185.094 107.319 183.083 107.161 180.647C109.19 179.693 111.246 178.896 113.275 178.276C122.094 175.552 132.275 174.941 143.548 176.46C145.707 176.775 147.782 177.266 149.523 177.692L149.699 177.738C151.663 178.202 153.516 178.646 155.081 179.517C156.535 180.286 157.536 181.62 158.157 183.602C158.194 183.713 158.221 183.825 158.258 183.936L158.277 184.001C156.915 184.39 155.331 184.732 153.793 185.066C153.127 185.214 152.478 185.353 151.876 185.492C151.348 185.603 150.996 186.094 151.061 186.631C151.098 186.9 151.237 187.15 151.459 187.317C151.672 187.484 151.959 187.558 152.219 187.53C153.386 187.372 154.553 187.187 155.554 187.03L155.878 186.974C156.841 186.807 157.832 186.631 158.824 186.39C159.713 191.55 158.768 196.867 157.721 201.407C154.979 216.098 146.327 224.213 128.81 228.548C120.343 230.253 109.07 228.9 103.919 223.037C102.826 221.74 101.788 220.322 100.853 218.868C100.834 218.813 100.816 218.757 100.797 218.674C100.76 218.544 100.668 218.433 100.547 218.368C97.8423 214.005 95.758 208.882 94.3592 203.13L94.3499 203.12Z" fill="#232a56" fill-rule="nonzero" opacity="1" stroke="none" vectornator:layerName="path"/>
<path d="M328.808 174.126L328.558 173.468C328.067 172.162 327.613 170.939 327.224 169.902C326.844 167.901 326.464 165.9 326.084 163.899L326.038 163.676C325.593 161.351 325.149 159.026 324.713 156.71C323.787 151.791 322.536 146.993 321.555 143.362C319.294 134.886 317.145 126.224 314.996 116.878C314.44 114.543 313.875 111.959 313.273 109.207C311.874 102.816 310.29 95.5809 308.502 90.2915C307.131 86.3637 304.584 82.4546 300.953 78.6936C298.535 76.211 295.7 74.1916 292.958 72.237L292.884 72.1814C291.986 71.5422 291.05 70.8753 290.151 70.2083C282.407 64.3631 276.154 57.8416 271.56 50.8292C262.852 34.1086 246.743 25.6789 234.756 21.5474C219.694 16.3599 202.26 14.9333 186.901 17.629C177.712 19.2871 169.069 23.3074 161.89 29.2546C161.64 29.4584 161.491 29.7455 161.464 30.0698C161.436 30.394 161.528 30.6997 161.732 30.9498C162.158 31.45 162.909 31.5241 163.427 31.098C170.236 25.3361 178.49 21.4084 187.299 19.7225C210.754 15.415 243.075 20.2227 262.417 40.6764C265.705 43.9279 268.095 48.0131 270.198 51.6258C272.82 55.7758 276.08 59.3515 278.915 62.3066C282.009 65.5395 285.492 68.5872 289.271 71.3662C290.207 72.0517 291.161 72.7279 292.013 73.3301L292.134 73.4134C294.83 75.3125 297.618 77.2856 299.952 79.657C301.453 81.167 302.926 82.9548 304.213 84.826C306.798 88.4573 308.03 92.7555 309.16 97.202C309.947 100.222 311.337 106.326 312.458 111.236L312.513 111.477C312.986 113.552 313.477 115.683 313.81 117.118C314.19 118.804 314.579 120.555 314.978 122.334C317.006 131.458 319.313 141.796 321.425 150.383C323.435 159.962 325.427 170.291 327.872 183.862C332.81 211.707 336.209 241.378 327.77 269.687C321.045 292.772 306.501 314.374 285.714 332.16L285.436 332.401L286.113 333.216L286.4 332.985C306.325 316.848 321.805 294.541 328.863 271.799C333.236 257.904 335.107 242.777 334.598 225.566C334.153 210.503 331.902 195.765 329.688 183.167C330.021 184.158 330.336 185.131 330.633 186.02L330.661 186.103C331.244 187.863 331.846 189.688 332.504 191.606C341.619 217.423 345.074 238.386 343.389 257.589C343.296 259.433 342.962 261.869 342.666 264.018C342.546 264.907 342.425 265.75 342.332 266.482L341.703 269.669C341.434 271.031 341.165 272.411 341.026 273.096C337.719 286.871 332.578 301.795 319.507 308.084L319.248 308.205L319.989 309.77L319.989 308.677C333.365 302.369 338.785 287.306 342.323 273.402C342.434 272.893 342.62 272.022 342.814 271.058L343.194 269.271C343.407 268.242 343.611 267.288 343.731 266.714C343.833 265.982 343.954 265.148 344.093 264.268L344.12 264.074C344.445 261.943 344.815 259.535 344.926 257.71C346.899 238.284 343.703 217.025 334.857 190.791C333.449 186.511 330.874 179.619 328.799 174.07L328.808 174.126Z" fill="#232a56" fill-rule="nonzero" opacity="1" stroke="none" vectornator:layerName="path"/>
<path d="M115.86 197.655C117.462 194.505 119.38 191.782 121.557 189.568C127.763 183.195 136.165 180.471 143.493 182.472C144.984 182.852 146.485 183.426 148.069 184.241L148.365 184.399L149.097 183.269L148.828 183.065C143.724 179.156 137.406 178.146 131.033 180.23C123.298 182.759 116.832 189.392 114.563 197.136L114.461 197.46L115.702 197.961C115.702 197.961 115.86 197.655 115.86 197.655Z" fill="#232a56" fill-rule="nonzero" opacity="1" stroke="none" vectornator:layerName="path"/>
<path d="M196.452 183.185C196.646 183.185 196.915 183.12 197.072 182.917C200.787 177.785 204.622 172.486 210.143 169.179C211.19 168.549 212.32 168.012 213.487 167.586C212.2 168.947 211.458 170.68 211.384 172.514C211.273 174.978 212.459 177.461 214.478 178.998L215.201 179.545L215.256 179.61C211.56 180.064 207.874 180.619 204.298 181.277C204.122 181.305 203.835 181.435 203.751 181.657C203.705 181.796 203.723 181.944 203.816 182.046C203.983 182.24 204.233 182.185 204.326 182.166C207.586 181.583 210.995 181.064 214.756 180.601L214.821 180.601C215.432 180.536 216.035 180.471 216.646 180.406C217.257 180.341 217.878 180.286 218.489 180.221C218.665 180.202 218.832 180.184 219.008 180.165L218.489 180.962L219.36 180.341C219.314 180.425 219.258 180.508 219.203 180.592L219.073 180.805L219.203 180.999C219.332 181.194 219.555 181.194 219.666 181.166C219.684 181.166 219.721 181.166 219.759 181.147L219.796 181.203C219.833 181.268 219.953 181.407 220.24 181.379C220.416 181.351 220.555 181.268 220.629 181.138C220.648 181.11 220.657 181.083 220.676 181.064C220.768 181.12 220.889 181.138 221.018 181.11C221.037 181.11 221.065 181.101 221.083 181.092C221.157 181.147 221.278 181.194 221.444 181.157C221.519 181.147 221.583 181.12 221.639 181.101C221.676 181.138 221.722 181.157 221.769 181.175C221.889 181.221 222.065 181.212 222.195 181.138C222.269 181.101 222.324 181.055 222.371 180.999C222.454 181.073 222.575 181.12 222.723 181.129C222.871 181.129 223.001 181.055 223.084 180.944C223.112 180.999 223.158 181.045 223.214 181.083C223.381 181.194 223.584 181.166 223.714 181.11C223.844 181.045 223.936 180.934 223.964 180.795C224.047 180.805 224.122 180.795 224.168 180.786C224.205 180.777 224.251 180.758 224.288 180.74C224.325 180.814 224.39 180.879 224.455 180.916L224.677 182.342L224.909 180.925C224.909 180.925 224.983 180.888 225.011 180.86C225.066 180.823 225.104 180.768 225.131 180.712L225.15 180.749C225.205 180.897 225.344 181.008 225.502 181.027C225.687 181.055 225.872 180.99 225.974 180.851C225.993 180.823 226.011 180.805 226.021 180.777C226.067 180.86 226.104 180.944 226.141 181.036C226.206 181.166 226.336 181.259 226.502 181.268C226.558 181.268 226.845 181.259 226.984 181.064C227.049 181.184 227.114 181.305 227.169 181.425C227.234 181.564 227.373 181.657 227.54 181.675C227.697 181.675 227.901 181.629 228.012 181.462C228.012 181.462 228.012 181.453 228.022 181.444C228.059 181.462 228.086 181.481 228.133 181.49C228.262 181.527 228.42 181.509 228.559 181.435C228.809 181.305 228.846 181.055 228.753 180.879C228.688 180.768 228.633 180.656 228.559 180.545C228.661 180.508 228.781 180.434 228.846 180.295C229.04 180.499 229.365 180.425 229.531 180.295C229.55 180.277 229.559 180.267 229.578 180.249C229.652 180.295 229.763 180.341 229.93 180.323C230.004 180.314 230.254 180.249 230.337 180.026C230.374 179.915 230.365 179.804 230.31 179.702C230.356 179.702 230.393 179.684 230.439 179.656C230.541 179.6 230.671 179.489 230.699 179.304C230.708 179.211 230.699 179.119 230.652 179.035C230.689 179.063 230.726 179.091 230.763 179.109C231.004 179.276 231.319 179.174 231.458 178.97C231.56 178.822 231.56 178.637 231.468 178.498C231.606 178.544 231.773 178.526 231.912 178.424C231.986 178.368 232.042 178.303 232.07 178.229C232.153 178.248 232.246 178.248 232.338 178.22C232.468 178.183 232.579 178.09 232.635 177.97C232.635 177.97 232.635 177.961 232.635 177.951L232.7 177.989C232.959 178.118 233.246 177.979 233.357 177.757C233.357 177.738 233.376 177.729 233.376 177.711L233.394 177.711C233.515 177.729 233.644 177.701 233.756 177.627C233.848 177.572 233.913 177.488 233.95 177.386L234.033 177.349C234.145 177.368 234.265 177.34 234.376 177.275C234.487 177.201 234.552 177.099 234.58 176.988L234.673 176.932C234.904 176.979 235.127 176.849 235.219 176.673C235.228 176.655 235.238 176.627 235.247 176.599L235.479 176.497L235.256 176.386C235.256 176.386 235.256 176.358 235.247 176.34C235.21 176.228 235.127 176.136 235.015 176.08C234.904 176.025 234.784 175.969 234.663 175.923C234.775 175.839 234.886 175.756 234.997 175.673C235.145 175.562 235.284 175.441 235.432 175.321L235.599 175.172L235.645 175.219C235.747 175.321 235.858 175.432 235.97 175.524C236.164 175.691 236.377 175.839 236.59 175.988C236.998 176.256 237.424 176.46 237.822 176.636C237.98 176.71 238.146 176.784 238.304 176.868C238.508 176.96 238.702 177.053 238.897 177.146C242.75 178.878 246.873 179.925 251.115 180.925L251.393 180.99L251.569 180.277L251.291 180.202C247.104 179.119 243.028 178.007 239.323 176.247L238.989 176.071C237.998 175.562 236.979 175.033 236.331 174.292C236.312 174.255 236.285 174.218 236.247 174.172L236.229 174.144C234.849 172.041 233.015 170.179 230.921 168.744C231.06 168.66 231.208 168.586 231.356 168.512L231.532 168.401L231.532 168.216C231.551 168.132 231.532 167.965 231.347 167.817C231.403 167.752 231.43 167.669 231.44 167.576C231.44 167.382 231.301 167.224 231.171 167.15C230.986 167.039 230.81 167.058 230.717 167.123C230.643 167.16 230.578 167.197 230.513 167.243C230.495 167.197 230.467 167.141 230.43 167.104C230.356 167.011 230.245 166.946 230.134 166.919C230.115 166.891 230.097 166.854 230.069 166.826C230.022 166.77 229.967 166.724 229.911 166.687L229.911 166.622C229.865 166.4 229.661 166.27 229.541 166.224C229.448 166.187 229.355 166.187 229.263 166.215C229.226 166.113 229.152 166.039 229.078 165.983C228.939 165.881 228.772 165.863 228.633 165.918C228.605 165.816 228.531 165.724 228.438 165.659C228.253 165.529 228.031 165.538 227.873 165.659C227.808 165.529 227.697 165.446 227.614 165.409C227.503 165.362 227.373 165.353 227.271 165.39C227.216 165.298 227.132 165.223 227.03 165.186C226.919 165.14 226.799 165.14 226.688 165.186C226.688 165.085 226.66 164.973 226.595 164.881C226.512 164.77 226.382 164.686 226.243 164.668C226.197 164.668 226.15 164.668 226.104 164.668C226.104 164.603 226.113 164.538 226.123 164.473C226.123 164.399 226.123 164.214 225.919 164.047C225.724 163.908 225.548 163.927 225.418 163.982C225.418 163.908 225.428 163.834 225.437 163.769C225.446 163.649 225.409 163.538 225.335 163.445C225.242 163.334 225.094 163.25 224.928 163.241C224.881 163.241 224.826 163.241 224.779 163.269C224.77 163.25 224.752 163.241 224.742 163.223C224.64 163.111 224.483 163.037 224.335 163.028C224.112 163.028 223.946 163.186 223.936 163.408C223.936 163.575 223.936 163.741 223.936 163.908C223.788 163.853 223.64 163.862 223.51 163.945C223.381 163.89 223.251 163.89 223.121 163.945C223.056 163.871 222.991 163.825 222.954 163.806C222.788 163.714 222.602 163.714 222.436 163.834L222.287 163.982L222.315 164.177C222.315 164.177 222.315 164.214 222.324 164.232C222.25 164.223 222.176 164.232 222.102 164.26L221.843 164.112L221.908 164.39C221.843 164.473 221.806 164.575 221.815 164.686C221.796 164.658 221.787 164.621 221.769 164.594C221.685 164.399 221.5 164.288 221.287 164.288C221.278 164.288 221.25 164.288 221.231 164.288L220.564 163.741L220.916 164.519C220.916 164.519 220.898 164.566 220.889 164.584C220.815 164.575 220.74 164.575 220.676 164.594C220.546 164.631 220.435 164.733 220.388 164.862C220.342 164.992 220.361 165.149 220.444 165.27C220.463 165.298 220.481 165.325 220.509 165.362C220.472 165.362 220.435 165.362 220.388 165.362C220.259 165.362 220.138 165.362 220.009 165.362C212.7 165.362 206.984 169.596 203.483 173.153C200.685 175.988 198.323 179.239 196.035 182.389L195.961 182.5C195.803 182.731 195.887 182.991 196.053 183.111C196.165 183.195 196.303 183.213 196.405 183.213L196.452 183.185ZM219.351 178.229C219.351 178.581 219.277 178.887 219.147 178.989C218.953 179.137 218.656 179.193 218.378 179.239L218.184 179.267C217.906 179.295 217.628 179.322 217.341 179.36C216.85 179.415 216.34 179.471 215.849 179.536L215.849 179.536L215.664 179.008C215.59 178.785 215.553 178.554 215.553 178.322C215.553 178.192 215.562 178.072 215.59 177.951L215.59 177.951C215.757 177.034 216.516 176.33 217.424 176.238C218.1 176.238 218.758 176.627 219.11 177.229C219.268 177.498 219.36 177.859 219.369 178.229L219.351 178.229ZM227.614 177.442C228.726 176.349 229.467 174.941 229.698 173.514C229.819 173.153 229.902 172.838 229.958 172.542C230.18 171.393 230.097 170.272 229.735 169.281C231.782 170.606 233.589 172.375 234.988 174.404C233.895 175.432 232.616 176.247 231.097 176.905C230.967 176.905 230.856 176.96 230.773 177.044C230.374 177.21 229.939 177.368 229.55 177.498C229.513 177.498 229.448 177.516 229.402 177.535C228.661 177.766 227.864 177.979 226.984 178.155C227.03 178.109 227.077 178.072 227.123 178.026C227.216 177.979 227.29 177.914 227.345 177.831C227.382 177.766 227.429 177.701 227.475 177.637L227.549 177.525C227.549 177.525 227.568 177.507 227.595 177.47C227.605 177.451 227.623 177.442 227.614 177.442C227.614 177.442 227.614 177.442 227.614 177.442Z" fill="#232a56" fill-rule="nonzero" opacity="1" stroke="none" vectornator:layerName="path"/>
<path d="M152.395 197.006C142.362 199.646 132.469 205.343 123.78 213.468L123.567 213.662L124.067 214.199L124.28 214.005C132.803 206.242 142.594 200.61 152.589 197.72L152.858 197.646L152.663 196.942L152.385 197.016L152.395 197.006Z" fill="#232a56" fill-rule="nonzero" opacity="1" stroke="none" vectornator:layerName="path"/>
<path d="M132.367 51.5054C132.589 51.2738 132.543 51.0052 132.376 50.8477C132.154 50.6346 131.663 50.6717 131.441 50.9033C124.058 58.6753 117.62 67.3737 112.33 76.7576C107.059 86.0951 102.928 96.0441 100.056 106.326C98.4259 112.162 97.1938 118.193 96.3879 124.233C96.3694 124.399 96.4342 124.557 96.5639 124.659C96.6565 124.733 96.777 124.77 96.9159 124.77C97.0178 124.77 97.1382 124.751 97.2401 124.705C97.4532 124.622 97.5829 124.464 97.6014 124.279C98.9817 113.821 101.659 103.52 105.549 93.6356C109.477 83.6681 114.618 74.1916 120.825 65.4839C124.317 60.5836 128.199 55.8685 132.358 51.4961L132.367 51.5054Z" fill="#232a56" fill-rule="nonzero" opacity="1" stroke="none" vectornator:layerName="path"/>
<path d="M108.708 117.693L108.708 117.693C108.708 117.693 108.764 117.693 108.792 117.693C109.088 117.693 109.431 117.517 109.477 117.193C111.812 100.166 117.824 83.3994 126.855 68.7169C129.431 64.5205 132.312 60.4261 135.406 56.5262C135.526 56.378 135.535 56.239 135.526 56.1556C135.517 56.0352 135.452 55.9241 135.359 55.8499C135.239 55.7573 135.054 55.711 134.878 55.7295C134.692 55.748 134.535 55.8314 134.442 55.9611C123.641 69.5413 115.61 85.5949 111.191 102.399C109.931 107.197 108.94 112.162 108.254 117.146C108.217 117.424 108.403 117.656 108.699 117.693L108.708 117.693Z" fill="#232a56" fill-rule="nonzero" opacity="1" stroke="none" vectornator:layerName="path"/>
<path d="M272.217 79.4532L272.273 79.4532C272.569 79.4532 273.116 79.2124 273.301 78.9623C273.44 78.7677 273.385 78.5824 273.348 78.5176C273.273 78.3601 273.116 78.2675 272.884 78.2397C256.47 76.7483 240.351 71.3755 226.271 62.7234C223.334 60.9171 220.435 58.9347 217.665 56.8319L217.433 56.5262C217.276 56.3224 217.054 56.1834 216.785 56.1371L216.739 56.1001C216.127 55.6276 215.497 55.1459 214.886 54.6457C214.515 54.34 213.728 54.5901 213.469 54.9143C213.385 55.0162 213.339 55.1459 213.357 55.2663C213.367 55.3868 213.432 55.4979 213.524 55.572C214.145 56.0815 214.821 56.6095 215.581 57.1931C215.581 57.4062 215.664 57.61 215.794 57.7767C227.345 72.7372 240.731 84.0942 255.58 91.542C257.859 92.6814 260.231 93.793 262.324 94.775L262.417 94.8213C270.485 98.61 278.832 102.519 285.372 108.865C293.885 116.646 300.239 126.576 303.741 137.6C308.428 151.773 308.104 167.243 307.159 180.499C306.14 196.247 303.917 212.143 301.759 227.548C298.776 248.909 295.682 271.003 295.774 293.004L295.774 293.291L296.515 293.291L296.515 293.004C296.451 271.031 299.582 248.947 302.611 227.594C304.788 212.217 307.048 196.312 308.095 180.564C309.104 166.418 309.41 151.384 304.816 137.257C301.305 126.03 294.894 115.877 286.27 107.911C279.684 101.454 271.291 97.4243 263.186 93.5244L263.121 93.4873C260.87 92.4035 258.545 91.2826 256.303 90.134C243.371 83.5013 231.542 73.7655 221.157 61.2042C232.283 68.7076 245.029 74.2286 258.072 77.2022C262.704 78.2582 267.465 79.0086 272.227 79.444L272.217 79.4532Z" fill="#232a56" fill-rule="nonzero" opacity="1" stroke="none" vectornator:layerName="path"/>
</g>
</svg>
