<?xml version="1.0" encoding="UTF-8"?>
<svg id="Livello_23" data-name="Livello 23" xmlns="http://www.w3.org/2000/svg" viewBox="0 0 595.28 841.89">
  <defs>
    <style>
      .cls-1 {
        fill: #354f9d;
      }
    </style>
  </defs>
  <path class="cls-1" d="m344.85,495.47c-1.37-3.33-3.87-6.24-7.36-7.4-.31-.1-.85.35-.42.49,3.55,1.17,6.03,4.26,7.28,7.69.39,1.06.66,2.15.86,3.26.28,1.62.38,3.26.4,4.9,0,.83,0,1.66-.03,2.49-.01.42-.03.83-.05,1.25-.02.4-.07.82-.05,1.22.11-.64.21-1.28.31-1.92.05-.33.1-.66.15-1,.05-.31.06-.67.14-.97.1-.71.2-1.42.23-2.14,0-.2,0-.4,0-.6-.02-.85-.12-1.7-.24-2.54-.22-1.62-.6-3.22-1.23-4.73Z"/>
  <path class="cls-1" d="m334.17,487.8c-.47-.25-.95-.23-1.47-.21-.54.02-1.07.04-1.61.06-1.03.04-2.04.08-3.07.03-1.7-.08-3.4-.21-5.1-.37-1.7-.17-3.4-.36-5.09-.56-1.7-.2-3.4-.4-5.1-.59-1.7-.18-3.4-.35-5.1-.48-1.7-.12-3.39-.21-5.09-.23-1.7-.01-3.4.04-5.08.18-1.71.14-3.4.38-5.07.72-3.04.63-5.91,1.86-8.83,2.9-3.47,1.23-6.86,1.77-10.54,1.77-3.17,0-6.38-.16-9.51.44-2.56.48-5.01,1.5-7.29,2.74-4.9,2.67-9.11,6.39-13.23,10.13-.71.64-1.33,1.61-1.78,2.42-.28.52-.49.97-.59,1.22-.13.07-.2.15-.09.2.53.25,1.07.5,1.61.75,0,.07.05.14.16.19,6.19,2.93,12.53,5.9,19.36,6.95,6.96,1.07,13.68-.62,20.5-1.82,6.71-1.17,13.68-.73,20.3-2.41,5.92-1.49,10.39-5.22,14.43-9.63,1.69-1.85,3.36-3.81,5.12-5.68l2.9-2.75.05-.04c.3-.28.61-.55.92-.81,1.19-1,2.47-1.9,3.82-2.69.46-.27.92-.52,1.4-.75.74-.37,1.49-.7,2.27-.99.24-.09.49-.16.72-.26.09-.04.23-.09.29-.17.1-.13-.1-.2-.21-.26Zm-1.96.44c-1.35-.02-2.69.02-4.02.11-11.41.2-21.92,5.04-32.73,8.3-3.05.88-6.11,1.66-9.21,2.24-2.6.44-5.22.7-7.9.69-.29,0-.77.44-.28.44,9.98.02,19.24-3.59,28.59-6.72,5.48-1.74,10.99-3.35,16.63-4.19.56-.07,1.12-.12,1.67-.17.79-.07,1.58-.12,2.37-.14.95-.03,1.96-.13,2.89.12.11.03.23.08.35.04-.53.31-1.1.57-1.63.9-.68.41-1.33.86-1.97,1.33-.32.24-.63.48-.94.73-.15.12-.31.25-.46.38-.13.11-.28.3-.43.37-.02.01-.04.02-.06.04-.01.01-.01.02-.02.03-6.51,5.71-11.11,13.99-19.34,17.46-6.27,2.65-13.28,2.15-19.9,2.96-7.07.86-14.02,3.17-21.22,2.67-3.61-.26-7.09-1.13-10.49-2.32-4.25-1.85-8.52-3.69-12.78-5.54.25.09,1.08-.27,1.34-.33.62-.15,1.24-.31,1.85-.46,1.26-.31,2.52-.6,3.77-.93.19-.05.37-.1.56-.16.07,0,.14-.03.2-.05.47-.1.92-.23,1.38-.38-.34.1-.71.19-1.11.3,1.01-.28,2-.59,2.99-.93,1.29-.43,2.55-1.02,3.86-1.34,2.8-.69,5.52-1.67,8.36-2.23,1.8-.25,3.61-.43,5.44-.57.11,0,.22-.01.33-.01.05,0,.11-.01.16-.03.13-.01.26-.02.4-.03.09-.01.18-.04.24-.09.04-.01.07-.01.11-.01.42-.03.55-.59.05-.56-2.76.19-5.53.39-8.26.84-1.77.29-3.49.74-5.2,1.25-.44.11-.88.22-1.32.35-1.6.47-3.22.91-4.87,1.16-1.65.25-3.31.13-4.97.29-1.26.13-2.37.73-3.62.88.06-.09.44-.54.56-.54,3.48-3.15,7.01-6.27,10.98-8.78,2.49-1.58,5.18-2.93,8.07-3.63,3.29-.8,6.72-.58,10.08-.59,2.9,0,5.73-.23,8.53-1.04,2.94-.85,5.74-2.13,8.67-3.02,6.66-2.03,13.92-1.59,20.75-.9,7.28.73,14.55,1.88,21.89,1.68-.12.04-.24.09-.35.13Z"/>
  <path class="cls-1" d="m231.83,514.04c.31,4.81,1.9,9.46,4.58,13.46.17.25.87-.01.67-.31-2.66-3.97-4.22-8.58-4.52-13.35-.02-.31-.75-.14-.72.19Z"/>
  <path class="cls-1" d="m237.71,446.54c-5.15,12.41-8.29,25.58-9.31,38.97-.02.3.71.16.73-.09,1.02-13.4,4.16-26.56,9.31-38.97.1-.24-.62-.16-.73.09Z"/>
  <path class="cls-1" d="m239.15,449.91c.89,4.26,3.76,7.38,7.4,9.59.2.12.87-.17.58-.35-3.59-2.17-6.38-5.25-7.26-9.43-1-4.8,1.1-9.5,3.33-13.69.17.83.4,1.65.71,2.47.11.28.83.08.72-.19-2.61-6.92-.05-14.14,2.4-20.7.1-.27-.63-.19-.73.08-2.1,5.63-4.25,11.74-3.22,17.74-.15.02-.29.09-.34.17-2.35,4.37-4.66,9.28-3.6,14.32Z"/>
  <path class="cls-1" d="m300.92,452.87c-.29.24.42.16.56.05,5.07-4.13,7.55-11.12,5.92-17.51-1.63-6.35-7.14-11.31-13.55-12.49-.18-.03-.81.26-.59.3,6.23,1.15,11.6,5.91,13.32,12.04,1.77,6.34-.58,13.47-5.66,17.62Z"/>
  <path class="cls-1" d="m282.74,453.67c-.29.32.41.33.59.14,2.51-2.8,5.16-5.76,8.7-7.25,1.59-.67,4.01-1.17,5.11.61,1.16,1.88-.19,4.04-1.23,5.61-.19.29.54.24.68.03,1.11-1.67,2.49-3.95,1.23-5.93-.99-1.56-3.11-1.55-4.7-1.12-4.29,1.14-7.51,4.75-10.36,7.92Z"/>
  <path class="cls-1" d="m249.61,454.18c1.76-1.63,4.22-.09,5.54,1.32,1.43,1.52,2.49,3.38,4.31,4.5.21.13.88-.17.57-.36-2.22-1.36-3.29-3.9-5.34-5.45-1.63-1.23-4.06-1.63-5.67-.13-.31.29.4.3.58.13Z"/>
  <path class="cls-1" d="m331.01,459.52c-5.44-10.24-12.38-19.62-20.59-27.8-.19-.19-.88.09-.67.29,8.19,8.16,15.12,17.5,20.54,27.71.14.26.84.03.72-.19Z"/>
  <path class="cls-1" d="m432.02,543.07s0,.04,0,.06v.19h0c0,.08.02.09.06.11l.06.03.06-.04s.05-.03.05-.11h0v-.21s0-.03,0-.05c-.48-14.95-2.01-37.2-6.57-58.33-1.12-5.17-2.4-10.45-3.82-15.69-.03-.12-.12-.21-.26-.24-.2-.05-.47.02-.61.17-.1.1-.13.21-.1.33.06.21.11.41.16.62.04.15.08.3.12.45-.15.04-.29.12-.32.24-5.6,23.86-17.28,46.13-33.8,64.4-4.55,5.03-9.53,9.8-14.78,14.17-.08.07-.08.16-.03.21.04.05.13.06.23.06.22,0,.53-.08.61-.15,18.78-15.61,33.48-35.94,42.49-58.81,2.38-6.03,4.38-12.35,5.95-18.81,4.57,17.39,7.64,35.24,9.13,53.05.1,1.16.21,2.42.32,3.73.42,4.84.91,10.32,1.04,14.59,0,0,0,.01,0,.02Z"/>
  <path class="cls-1" d="m303.93,529.24c-5.55,1.3-11.11,2.6-16.66,3.89-.45.1-.33.53.11.42,5.55-1.3,11.11-2.6,16.66-3.89.45-.1.33-.53-.11-.42Z"/>
  <path class="cls-1" d="m247.3,405.72c.54-9.94.44-19.91-.29-29.84-.02-.31-.75-.14-.72.19.73,9.89.82,19.81.28,29.71-.02.36.71.24.73-.06Z"/>
  <path class="cls-1" d="m236.4,390.32s-.04-.04-.08-.05c-7.84-4.39-16.16-7.99-24.62-11-.32-.15-.63-.28-.94-.41-.04-.01-.09-.02-.13-.03-4.19-1.02-7.22-.63-9.33.2,0,0,0-.02,0-.02-.61.22-1.19.47-1.77.74,0,0,0-.02-.02-.02-.03-.01-.07,0-.11,0-.04.01-.08.04-.11.06-.02.02-.04.05-.04.08,0,0,0,0,0,0-.25.12-.5.24-.75.37-.04-.5-.06-.99-.03-1.49,0-.07-.29.04-.3.11-.03.51-.01,1.03.03,1.54-.14.08-.27.16-.41.24-.05-.23-.09-.47-.12-.71-.06-.49-.09-.98-.09-1.48,0-.1-.3.01-.3.11,0,.42.02.85.06,1.27.02.21.05.41.08.62.02.1.03.2.05.3,0,.02,0,.04.01.07-.12.07-.24.14-.36.21-.07-.2-.14-.41-.2-.61-.08-.29-.15-.58-.21-.87-.03-.16-.34-.04-.31.09.06.3.13.6.21.9.06.23.15.45.22.68-.11.07-.22.15-.32.22-.21-.55-.38-1.1-.49-1.68,0-.05-.31.06-.3.14.12.59.29,1.16.51,1.73-.11.08-.22.15-.33.23-.03-.09-.07-.17-.11-.26-.07-.19-.14-.38-.21-.57-.13-.39-.22-.79-.3-1.2-.01-.08-.32.03-.3.14.08.4.18.8.3,1.2.06.2.13.4.21.59.04.09.06.2.12.28,0,0,0,0,0,.01-.12.09-.24.19-.36.28-.17-.29-.33-.59-.47-.89-.14-.33-.25-.67-.34-1.01-.02-.08-.15-.06-.2-.04-.07.03-.12.1-.1.18.09.34.2.68.34,1.01.14.33.31.64.49.95,0,0,.01,0,.01,0-.11.08-.21.16-.32.25-.21-.25-.42-.51-.6-.79-.19-.31-.36-.64-.52-.97-.07-.14-.37,0-.3.14.17.34.34.68.54,1,.18.29.4.56.62.82-.32.27-.63.55-.94.83-.54-.41-1.03-.87-1.46-1.4-.09-.12-.37.06-.26.19.43.53.93,1,1.48,1.41-.07.06-.13.13-.19.19,0,0,0,0,0,0-.77-.34-1.5-.77-2.15-1.29-.12-.09-.39.09-.26.19.67.53,1.41.98,2.19,1.32-.07.07-.15.15-.22.22,0,0,0-.02-.01-.02-1.1-.34-2.14-.86-3.08-1.53-.08-.05-.35.12-.27.17.95.68,2.01,1.19,3.13,1.54.02,0,.05,0,.09-.01-.11.11-.23.22-.34.34-1.44-.25-2.82-.8-4.03-1.64-.09-.06-.36.11-.27.18,1.23.85,2.63,1.42,4.11,1.67-.08.09-.16.18-.24.27-1.52-.2-2.99-.7-4.29-1.51-.09-.06-.36.12-.27.17,1.33.82,2.83,1.34,4.38,1.53-.1.11-.19.21-.29.32-1.07-.05-2.14-.26-3.15-.63-.07-.02-.15.01-.2.05-.02.01-.13.1-.07.12,1.05.38,2.14.6,3.25.65-.11.13-.22.26-.33.4-1-.07-1.98-.27-2.92-.61-.07-.02-.15.01-.2.05-.02.01-.13.1-.07.12.98.36,2,.56,3.04.63-.14.17-.28.33-.41.5-1.03-.07-2.04-.27-3-.62-.07-.02-.15.01-.2.05-.02.01-.13.1-.07.12,1,.37,2.06.58,3.12.64-.13.17-.26.34-.38.51-.74-.03-1.48-.14-2.2-.34-.15-.04-.33.2-.14.25.7.2,1.42.3,2.15.34-.16.21-.31.41-.47.62-.71.1-1.44.13-2.16.07-.08,0-.17.02-.21.1-.03.06,0,.15.07.15.71.06,1.41.03,2.11-.06-.07.1-.14.2-.2.3,0,0-.02,0-.03,0-.57.21-1.16.34-1.76.39-.08,0-.17.05-.18.14-.02.08.05.13.12.12.56-.05,1.11-.17,1.64-.35-1.6,2.35-2.97,4.85-4.15,7.35,1.43-2.73,3.1-5.49,5.06-8,0,0,.01,0,.02,0,.07-.01.16-.09.15-.16,0-.01-.01-.01-.02-.02,2.25-2.85,4.89-5.38,7.97-7.18-.13.18-.22.32-.27.39-.03.04-.04.06-.04.06-1.07,1.41-1.8,3.06-2.08,4.82-.47,2.99.44,6.07,2.34,8.4,0,.06.02.11.08.17.18.17.36.35.54.52.05.05.13.07.2.07h.01s.1.05.16.05c.23.11.62-.01.6-.28.02-.03.03-.07.03-.11-.02-.38.05-.7.28-1.01.03-.03.04-.06.05-.09.38-.44.84-.79,1.37-1.04,1.22-.35,2.61.1,3.66.95,1.09.89,1.8,2.13,2.38,3.39.02.05.07.06.12.07-2.38,1.45-4.76,2.89-7.38,3.82-4.77,1.71-9.92.94-14.1-1.88-.21-.14-.86.15-.67.28.52.35,1.06.66,1.6.95-.45.2-.89.44-1.3.73-.06.04-.08.13-.01.17.07.05.17.03.23-.02.42-.3.88-.54,1.35-.74.2.1.39.19.59.28-.6.4-1.17.84-1.68,1.36-.05.06-.02.14.04.16.08.03.17,0,.23-.06.5-.51,1.07-.96,1.67-1.34.13.06.25.12.38.17-.63.57-1.2,1.21-1.67,1.92-.11.17.18.23.27.1.46-.7,1.01-1.34,1.64-1.89,0,0,0-.02.01-.02.2.08.39.14.59.21-.76.74-1.42,1.58-1.94,2.51-.03.06.11.05.13.05.06,0,.15-.04.18-.1.49-.88,1.12-1.68,1.83-2.39.19.06.37.11.56.17-.77.74-1.43,1.59-1.96,2.52-.03.06.11.05.13.05.06,0,.15-.04.18-.1.5-.89,1.13-1.7,1.86-2.41.16.04.31.09.47.13-.81.76-1.5,1.64-2.04,2.61-.03.06.11.05.13.05.06,0,.15-.04.18-.1.52-.93,1.19-1.77,1.96-2.51.13.03.27.06.4.08-1.03,1.15-1.81,2.5-2.28,3.97-.03.1.29.06.32-.04.46-1.43,1.22-2.75,2.22-3.87.12.02.24.04.35.06-.92,1.13-1.6,2.44-1.96,3.86-.03.11.29.07.32-.04.36-1.38,1.02-2.67,1.92-3.78.15.02.29.04.44.06-.6.97-1.05,2.03-1.33,3.14-.02.09.29.04.32-.05.27-1.08.7-2.11,1.28-3.06.11.01.21.01.32.02-.34.74-.6,1.51-.75,2.3-.03.16.29.13.32-.02.15-.78.41-1.54.74-2.26.1,0,.2.01.3.02-.13.63-.2,1.27-.18,1.91,0,.17.33.13.32-.02-.02-.63.05-1.26.17-1.88.19,0,.38,0,.57,0-.01.02-.03.03-.04.05-.11.61-.15,1.23-.1,1.84,0,.08.07.12.15.11.06,0,.18-.05.17-.13-.05-.62-.01-1.24.1-1.84,0-.02,0-.02-.01-.03.15,0,.29-.01.44-.02,0,.32.01.63.06.94.06.37.15.74.24,1.11.04.15.36.07.32-.09-.09-.35-.18-.71-.23-1.07-.05-.3-.06-.61-.06-.92.14-.01.27-.02.41-.03.06.33.13.67.23.99.11.34.25.67.4.99.03.07.11.09.19.07.05-.01.16-.08.13-.16-.15-.32-.29-.65-.4-.99-.1-.31-.16-.63-.22-.94.15-.02.3-.04.45-.06,0,0,0,.02,0,.02.01.09.06.2.09.29.07.2.14.39.22.59.16.38.35.75.55,1.1.06.1.36-.02.32-.09-.21-.36-.39-.72-.55-1.1-.08-.19-.15-.38-.22-.57-.03-.09-.06-.19-.09-.29.13-.02.26-.04.39-.07.21.58.45,1.14.76,1.68.04.08.34-.04.32-.09-.3-.53-.55-1.09-.75-1.66.13-.03.25-.05.38-.08.11.25.2.51.32.77.13.28.27.55.42.82.07.12.37,0,.29-.14-.15-.26-.29-.52-.41-.8-.11-.24-.2-.48-.3-.73.13-.03.25-.07.38-.1,0,0,0,0,0,0,0,.02.02.05.04.07.03.05.05.1.08.15.05.09.1.17.15.26.11.18.22.35.34.52.24.35.5.68.78,1,.06.07.36-.04.3-.12-.32-.37-.62-.77-.9-1.18-.13-.2-.26-.41-.37-.61-.03-.05-.06-.13-.1-.19.14-.04.27-.07.41-.12.34.5.72.97,1.14,1.41.06.06.35-.06.3-.11-.42-.43-.8-.9-1.13-1.4.24-.08.48-.15.72-.24.03.03.07.07.1.11.06.06.11.12.17.18.02.02.06.03.09.03.04,0,.09,0,.13-.02.03-.01.07-.03.08-.07.01-.02.02-.05,0-.07-.07-.07-.14-.15-.21-.22-.02-.02-.04-.04-.06-.06.64-.24,1.27-.51,1.9-.82,1.58-.78,3.08-1.68,4.59-2.59h.02s0-.02.02-.02c.02,0,.04-.02.06-.03,1.14-.59,11.89-6.08,21.36-7.65,2.47-.26,4.97-.32,7.45-.2.18.01.45-.15.48-.27.02-.03.03-.05,0-.06h-.01Zm-36.12,11.76s-.05,0-.03,0c0,0,0,0,0,0,.01,0,.02,0,.03,0Zm9.97-23.05s-.05-.02-.08-.02l.13-.03s-.04.03-.05.05Zm1.1,16.57s.03-.02.04-.03c.03-.01.07-.02.1-.03-.05.02-.09.04-.14.06Zm5.71-2.48c1.2-2.81,1.12-5.93.1-8.83-.53-1.53-1.58-2.65-2.85-3.55,7.14,2.69,14.13,5.81,20.79,9.49-6.14-.16-12.28.81-18.04,2.89Z"/>
  <path class="cls-1" d="m217.3,403.66c-7.37,3.29-14.41,7.25-21.06,11.83-.06.04.08.04.11.02,6.63-4.56,13.65-8.51,21-11.79.09-.04,0-.08-.06-.05Z"/>
  <path class="cls-1" d="m305.71,384.33c-.07,0-.15.1-.05.1,5.24.04,10.46.48,15.63,1.3.07.01.15-.08.05-.1-5.17-.82-10.39-1.25-15.63-1.3Z"/>
  <path class="cls-1" d="m344.25,375.5c-.09.02-.06.12.03.1,7.62-2.03,15.72-1.54,23.05,1.37.06.02.17-.06.08-.1-7.36-2.93-15.5-3.41-23.16-1.37Z"/>
  <path class="cls-1" d="m351.75,378.34c-.08,0-.11.11-.01.1,4.04-.32,8.08.84,11.34,3.24.05.04.18-.03.11-.08-3.29-2.42-7.37-3.58-11.44-3.26Z"/>
  <path class="cls-1" d="m254.24,216.92c.64,17.37,5.13,34.48,11.42,50.62,6.69,17.15,15.54,33.49,26.12,48.55,5.56,7.92,11.64,15.5,18.3,22.53-.2-.21.21-1.03,0-1.25-12.05-12.72-22.26-27.19-30.83-42.45-8.93-15.91-16.19-32.91-20.69-50.62-2.38-9.35-3.96-18.93-4.31-28.59.01.3-.02.83,0,1.21Z"/>
  <path class="cls-1" d="m270.96,199.4c-.53.16-.83.71-.67,1.24,7.36,24.61,18.01,48.35,32.46,69.6,19.62,29.28,50.48,49.34,83.59,60.29,10.21,3.54,20.78,6.37,31.35,8.86-10.58-2.49-21.07-5.35-31.32-8.94-30.77-10.38-59.78-28.33-78.97-54.94-16.42-22.51-27.8-48.65-35.19-75.41-.14-.54-.71-.86-1.25-.7Z"/>
  <path class="cls-1" d="m410.9,319.92c-33.67-9.2-62.78-30.67-84.28-57.84-22.33-26.51-38.52-57.98-47.7-91.37-.07-.24-.32-.38-.56-.31-.24.07-.38.32-.31.56,9.34,33.44,25.73,64.94,48.22,91.41,21.64,27.11,50.9,48.5,84.63,57.56Z"/>
  <path class="cls-1" d="m187.32,299.21c-1.57,9.48-2.3,19.09-2.32,28.68.36-9.42,1.09-19.2,2.86-28.59,4.77-27.64,17.38-54.05,37.5-73.75-1.02,2.67-1.77,5.5-2.48,8.2-1.16,4.68-2.02,9.43-2.59,14.21-3.47,28.77,3.32,58.03,16.06,83.81,0,0,.06-.03.06-.03-15.78-33.14-21.59-72.15-9.86-107.38.07-.07.13-.14.2-.2-.06.03-.12.08-.17.11.45-1.34.91-2.67,1.41-4-.95,1.42-1.72,2.98-2.38,4.62-3.56,2.38-6.58,5.87-9.39,9.1-15.53,18.45-24.98,41.53-28.9,65.2Z"/>
  <path class="cls-1" d="m243.52,245.06c4.16,28.67,18.36,55.15,37.39,76.71,0,0,.05-.04.05-.04-24.81-28.95-40.91-66.83-37.24-105.4-1.5,4.46-1.45,9.6-1.41,14.34.1,4.82.51,9.63,1.21,14.39Z"/>
  <path class="cls-1" d="m384.01,392.13c2.81-5.86,3.26-12.59,3.71-18.98.29-6.11-.3-12.21-1.19-18.25,3.38-.62,6.36-1.23,7.48-1.63.13-.04.24-.11.35-.18,1.98,5.71,7.69,4.14,13.44,2.59,4.78-1.29,9.54-2.6,14.28-4.02,2.67-.79,11.73-2.16,14.06-4.08,3.5,21.33,2.26,43.5-2.6,64.58-4.13,20.67-10.76,40.84-20.21,59.71,9.56-18.81,16.32-38.98,20.57-59.63,8.1-34.18,6.7-71.29-9.04-103.16-14.82-32.74-45.24-53.48-70.87-77.13-15.48-14.09-29.72-29.95-39.61-48.49-.26-.49-.88-.68-1.37-.41-.48.26-.66.87-.39,1.36,10.14,18.72,24.55,34.59,40.28,48.74,25.69,23.47,56.08,43.83,71.06,76.37,5.18,10.32,8.82,21.21,11.13,32.38-2.96-.68-18.4,1.25-19.82,1.36-4.77.36-9.54.76-14.31,1.09-4.34.31-7.79,1.08-7.19,6.07,0,.02.01.03.01.05-.24-.04-.5-.03-.74.05-.95.34-3.71.9-6.99,1.5-1.08-5.82-2.87-11.76-6.82-16.28-4.98-4.51-12.38-4.8-18.68-5.82-21.22-2.15-42.27,5.42-60.19,16.25-4.17,2.52-8.27,5.27-11.98,8.41-4.31,3.38-9.63,7.62-10.53,13.35-1.15.13-2.25.26-3.22.38-2.33.23-4.56.02-6.91-.1-6.45.51-12.66,1.76-18.96,3.08-1.53.65-4.01,1.74-6.03,2.63-.59-1.94-1.39-3.8-2.45-5.53-3-4.22-8.62-5.46-13.16-6.56-3.01-.76-6.18-1.47-9.3-1.88-18.75-2.41-38.82-1.21-56.03,7.01-1.47-29.9,3.96-59.91,13.02-88.36,4.27-12.82,8.73-25.79,15.23-37.66,3.13-6.05,7.49-11.09,11.69-16.4l-.68-.72c-2.93,1.93-5.1,4.71-7.15,7.47-9.95,14.04-15.3,30.64-20.6,46.84-8.71,28.69-13.84,58.95-11.76,88.95-2.67,1.28-5.27,2.73-7.79,4.37-2.45,1.83-5.17,3.6-7.59,5.67-1.19-3.47-2.34-6.95-3.47-10.44-4.14-13.12-8.26-26.29-11.76-39.6-6.92-25.81-6.76-53.18-1.1-79.23.31-.69.61-1.39.93-2.08,0,0-.19-.09-.43-.21.01-.04.01-.08.02-.12h0c.06-.26-.09-.52-.34-.6-.24-.07-.48.05-.58.26l-.46-.23c-8.45,17.88-14.87,36.54-20.2,55.53-10.41,37.78-15.56,77.43-12.76,116.57-5.25-31.84-8.56-64.13-6.65-96.39,0-.15.02-.3.03-.45.36-3.86.74-7.72,1.1-11.59,1.24-9.58,3.26-19.07,5.98-28.33,9.64-32.93,27.73-63.04,51.06-88.09,9.2-10.12,18.92-19.98,30.74-26.81,11.82-6.88,25.04-10.91,38.13-14.71.54-.15.85-.71.69-1.24-.15-.53-.71-.84-1.24-.68-13.21,3.9-26.54,8.03-38.49,15.08-12,7.01-21.82,17.04-31.02,27.28-23.35,25.29-41.46,55.67-51.03,88.83-1.81,6.24-3.29,12.57-4.45,18.97,0,0,0-.08,0-.08,0,.04,0,.09-.01.14-1.29,7.15-2.17,14.38-2.55,21.63-.06,1.11-.1,2.22-.15,3.32-2.28,19.41-4.76,40.37-4.46,57.25.54,49.88,22.26,148.7,54.27,186.55,15.75,19.09,37.59,31.93,59.84,42.04,7.41,3.47,15.13,6.27,22.47,9.86,7.25,3.66,14.17,8.64,18.3,15.79-4.08-7.19-10.98-12.24-18.22-15.95-7.33-3.65-15.01-6.5-22.4-10.02-22.13-10.24-43.76-23.15-59.31-42.27-31.6-37.92-52.51-136.61-52.68-186.03-.16-14.66.68-29.18,1.88-43.7-.06,28.76,3.55,57.48,8.54,85.76.01.09.06.16.13.21.73,7.8,1.78,15.58,3.18,23.31,8.72,48.25,31.3,95.14,68.52,127.75,25.86,22.75,58.06,38.13,91.95,44.19,4.54.78,9.11,1.41,13.71,1.71,3.13,7.59,6.19,15.22,9.22,22.85,4.19,10.55,8.31,21.13,12.41,31.71.12.33.84.13.72-.19-6.67-17.22-13.37-34.43-20.37-51.51-.38-.94-.77-1.87-1.16-2.8-4.08-9.92-8.28-19.79-12.87-29.47-2.07-4.37-4.24-8.7-6.52-12.96-.16-.29-.85-.02-.66.32.17.32.33.65.5.97-24.94-2.3-45.25-19.48-58.93-39.47-14.55-21.28-23.76-45.89-31.48-70.32-4.22-13.38-7.98-26.89-11.79-40.38,1.17,1.74,2.44,3.44,3.79,5.07,8.61,9.92,26.48,11.53,38.74,9.31,19.24-4.28,36.72-13.12,43.42-32.88,3.06-9.87,6.72-23,4.49-33.99.73-.29,1.46-.59,1.83-.73l4.67-1.94c1.43-.17,6.29-1.16,8.87-1.57,2.96-.51,6.12-1.1,9.05-1.31,1.48.06,3.17.21,4.67.09,1.74-.11,3.51-.34,5.28-.62.02.2.02.39.04.59.96,10.2,6.81,18.68,13.14,26.2,4.14,5.03,8.69,9.96,14.31,13.44,8.46,5.24,18.62,7.44,28.49,6.83,13.34-.8,25.81-3.48,36.87-11.38,5.33-3.7,10.35-8.2,13.4-14.02Zm-207.86,111.17c9.6,22.97,22.32,46.39,42.54,61.69,10.67,8.08,23.35,13.7,36.77,14.81,4.11,7.79,7.82,15.77,11.36,23.83,2.42,5.52,4.75,11.08,7.06,16.65-4.6-.31-9.17-.97-13.7-1.77-33.8-6.18-65.92-21.69-91.63-44.5-36.95-32.66-59.25-79.46-67.73-127.57-11.05-64.71.55-132.58,26.39-192.63-.19.9-.37,1.79-.54,2.69-1.35,7.65-2.11,15.3-3.42,22.96-5.06,34.47-5.45,69.47-3.53,104.2,3.52,80.9,27.12,153.25,95.48,202.01-68.17-48.92-91.54-121.17-94.84-202.04-1.82-34.7-1.34-69.63,3.8-104.04.36-2.08.68-4.18.99-6.28-1.31,18.12.15,36.43,4.87,54,4.61,16.97,9.72,33.8,15.42,50.44-2.21,1.99-4.1,4.27-5.19,7.12-1.6,6.49-.3,12.89,1.43,18.9,2.35,8.12,5.5,16.09,9.97,23.26-.02.04-.03.09-.01.14,7.27,25.64,14.2,51.5,24.51,76.13Zm63.11-102.41c-4.66,24.95-20.53,35.55-44.02,41.36-11.82,2.38-29.63,1.1-38.06-8.5-1.72-2.05-3.29-4.21-4.72-6.45-.04-.11-.07-.22-.1-.33-.03-.1-.12-.15-.22-.17-4.46-7.13-7.51-15.11-9.5-23.29-1.42-5.9-2.45-12.17-.81-18.11.83-2.24,2.42-4.13,4.25-5.81,3.06,8.84,6.27,17.62,9.68,26.33l.81-.32c-3.45-8.81-6.7-17.69-9.77-26.64,1.36-1.17,2.82-2.24,4.19-3.27,3.34-2.46,6.95-4.6,10.71-6.42.27,3.29.62,6.57,1.06,9.84-.37-3.31-.63-6.63-.84-9.94,3.13-1.49,6.35-2.76,9.63-3.76,14.76-4.56,30.63-4.81,45.88-2.76,3.06.45,5.99,1.11,9.06,1.87,3.02.72,6.02,1.41,8.51,2.8,2.6,1.37,4.05,3.72,4.91,6.48.12.38.22.77.33,1.15-3.11.94-7.09,1.69-10.22,2.41-.51.11-.85.59-.79,1.1.07.55.58.94,1.12.87,1.68-.22,3.33-.48,5-.75,1.83-.32,3.65-.62,5.47-1.11,1.48,7.72.21,15.78-1.56,23.42Zm113.19,11.58c-18.34,4.19-39,4.53-53.02-9.94-4.41-4.44-8.58-9.44-12.17-14.57-2.97-4.47-6.86-11.72-6.78-17.96,1.25-.22,2.49-.45,3.71-.65.77-.17,1.82-.33,2.56-.62,1.02-.41.58-1.99-.5-1.84l-.38.05c-1.49.2-3.3.42-5.13.64.36-1.71,1.1-3.3,2.36-4.66,7.56-7.72,17.72-14.69,28.59-20.09-5.13,3.1-9.86,6.98-14.32,10.85l.6.8c4.98-3.22,9.83-6.59,14.97-9.31,12.41-6.81,23.97-7.7,36.43-.57,3.76,2.15,7.01,5.02,9.73,8.43,0,0,.84-.55.84-.55-5.99-10.68-19.03-17.04-31.19-15.89-1.52.18-2.99.46-4.44.82,5.79-2.11,11.58-3.72,17.11-4.66,7.77-1.37,15.87-1.49,23.67-.29,4.47.73,9.62,1.41,12.99,4.47,3.3,3.47,5.54,9.15,6.98,15.27-4.58.83-9.86,1.69-12.59,2.12-.8.13-1.34.88-1.22,1.67.12.72.74,1.23,1.44,1.23.08,0,.16,0,.23-.02,1.1-.17,7.28-1.15,12.75-2.14,1.24,6.49,1.65,13.17,1.51,18.07-.41,6.25-1.09,12.95-4,18.55-6.19,10.5-19.21,17.75-30.72,20.79Z"/>
  <path class="cls-1" d="m251.14,505.46c.34-.1.61-.18.77-.24h-.02c-.25.09-.5.17-.75.24Z"/>
  <path class="cls-1" d="m505.21,385.04c-2.7-8.2-8.28-22.86-11.53-31.64-.58-3.06-1.16-6.11-1.75-9.16-.69-3.58-1.37-7.16-2.04-10.72-1.4-7.4-3.28-14.62-4.76-20.07-3.4-12.74-6.64-25.81-9.89-39.94-.83-3.47-1.69-7.4-2.6-11.55-2.11-9.64-4.49-20.56-7.17-28.47-2.04-5.85-5.83-11.66-11.26-17.28-3.61-3.71-7.86-6.74-11.98-9.67-1.4-1-2.85-2.03-4.25-3.07-11.73-8.85-21.21-18.75-28.18-29.4-13.04-25.04-37.19-37.68-55.16-43.87-22.6-7.79-48.79-9.94-71.84-5.89-13.75,2.48-26.7,8.5-37.44,17.41-.53.44-.6,1.23-.16,1.76.44.53,1.23.6,1.76.16,10.34-8.74,22.87-14.71,36.24-17.27,35.5-6.52,84.43.76,113.72,31.74,5.01,4.95,8.62,11.14,11.81,16.61,3.93,6.22,8.82,11.58,13.07,16.01,4.65,4.85,9.88,9.42,15.54,13.6,1.41,1.04,2.87,2.07,4.28,3.06,4.09,2.89,8.33,5.88,11.89,9.5,2.28,2.3,4.52,5.02,6.48,7.87,3.96,5.55,5.83,12.08,7.54,18.84,1.19,4.57,3.3,13.85,5,21.31.79,3.46,1.5,6.58,2.01,8.74.57,2.54,1.16,5.17,1.75,7.87,3.07,13.76,6.54,29.35,9.71,42.29,3.03,14.42,6.03,29.99,9.72,50.48,7.45,42.05,12.59,86.85-.17,129.63-10.16,34.91-32.14,67.56-63.57,94.44l.32.38c29.96-24.26,53.22-57.78,63.82-91.96,14.43-45.87,8.47-93.61-.05-140.41,2.34,6.53,4.22,12.62,6.6,19.52,11.23,31.82,19.42,65.72,16.44,99.67-.19,3.91-1.11,9.54-1.6,13.48-.42,2.13-1.57,7.96-1.97,10-4.86,20.27-12.61,43.44-32.73,53.11,20.33-9.43,28.45-32.63,33.61-52.91.44-2.04,1.67-7.95,2.12-10.03.53-3.93,1.57-9.63,1.8-13.55,3.47-34.16-4.29-68.43-15.16-100.64Z"/>
  <path class="cls-1" d="m217.41,371.71c2.41.61,4.75,1.56,7.02,2.72,0,0,.54-.84.54-.84-18.74-14.37-44.72.25-50.78,20.92l.93.37c2.32-4.56,5.18-8.77,8.68-12.33,8.6-8.84,21.33-14.19,33.6-10.84Z"/>
  <path class="cls-1" d="m356.79,360.17c-.04-.07-.09-.13-.14-.2-2.25-3.42-5.18-6.29-8.56-8.45.45-.31.92-.59,1.41-.83.06-.03-.17-.24-.24-.21-.51.24-.99.53-1.45.85-.13-.08-.26-.15-.38-.23.03-.03.07-.07.09-.09.18-.16.37-.3.56-.45.4-.29.82-.56,1.25-.79.09-.05-.16-.26-.24-.21-.37.2-.73.43-1.08.67-.17.12-.34.24-.5.37-.08.06-.16.13-.23.19-.04.04-.09.07-.13.11,0,0-.01.01-.02.02-.12-.07-.23-.14-.35-.21.18-.19.34-.38.53-.56.21-.21.43-.41.66-.6.12-.1-.13-.32-.23-.23-.23.2-.46.4-.68.62-.2.2-.38.41-.57.61-.11-.06-.23-.12-.35-.18.4-.48.83-.92,1.3-1.33.04-.03-.2-.25-.27-.19-.49.41-.93.87-1.33,1.36-.12-.06-.24-.13-.36-.19h0s.04-.04.06-.06c.07-.08.12-.16.19-.24.13-.16.26-.31.4-.46.28-.3.58-.58.9-.84.06-.05-.18-.26-.27-.19-.32.26-.62.54-.9.84-.14.15-.28.31-.41.47-.06.07-.15.15-.19.24,0,0,0,.01-.01.02,0,0-.01,0-.01,0-.02.02-.03.03-.04.06,0,0,0,0,0,.01-.14-.07-.27-.13-.41-.19,0,0,.01,0,.02,0,.18-.31.37-.61.59-.89.22-.28.46-.54.72-.79.06-.06-.02-.16-.07-.19-.06-.05-.15-.05-.2,0-.25.25-.5.51-.72.79-.22.28-.41.58-.59.89-.02.03-.01.06,0,.09-.13-.06-.26-.12-.39-.17.12-.33.26-.65.43-.96.18-.32.38-.62.59-.92.09-.13-.18-.32-.27-.19-.22.31-.43.62-.61.95-.17.32-.31.65-.44.99-.38-.16-.77-.31-1.16-.46.09-.67.26-1.33.51-1.96.06-.14-.23-.29-.3-.13-.26.63-.43,1.3-.52,1.98-.09-.03-.17-.07-.26-.1-.08-.83-.05-1.67.08-2.49.02-.15-.27-.3-.3-.13-.14.83-.17,1.67-.09,2.51-.1-.03-.19-.06-.29-.09-.23-1.12-.28-2.27-.16-3.41.01-.09-.27-.25-.28-.16-.13,1.16-.07,2.34.17,3.48,0,0,0,0,0,0-.14-.05-.29-.09-.43-.13-.46-1.37-.64-2.81-.5-4.25.01-.11-.27-.26-.28-.15-.15,1.46.04,2.93.51,4.31-.12-.04-.24-.08-.37-.11-.54-1.39-.79-2.88-.72-4.37,0-.11-.28-.25-.28-.15-.07,1.52.19,3.04.74,4.46-.14-.04-.29-.07-.43-.1-.44-.93-.76-1.92-.92-2.94-.01-.07-.08-.12-.14-.15-.02,0-.15-.07-.14,0,.17,1.05.49,2.07.95,3.03-.17-.04-.35-.09-.52-.13-.38-.86-.66-1.77-.81-2.7-.01-.07-.08-.12-.14-.15-.02,0-.15-.07-.14,0,.15.97.44,1.91.84,2.8-.21-.04-.42-.07-.64-.11-.4-.88-.69-1.81-.84-2.76-.01-.07-.08-.12-.14-.15-.02,0-.15-.07-.14,0,.16,1,.46,1.96.88,2.88-.21-.04-.43-.08-.64-.11-.29-.61-.53-1.25-.68-1.9-.04-.15-.33-.2-.29,0,.15.64.39,1.26.66,1.85-.27-.04-.54-.06-.81-.09-.38-.53-.72-1.08-.98-1.67-.03-.07-.11-.14-.19-.13-.07,0-.13.07-.1.14.26.58.58,1.11.94,1.63-.14-.01-.28-.04-.42-.05-.38-.35-.73-.74-1.02-1.17-.04-.06-.13-.12-.21-.1-.07.02-.09.11-.05.17.27.39.58.75.91,1.08-.49-.04-.97-.07-1.46-.08-9.78-.2-18.39,4.78-25.09,11.57-4.23,4.28-7.76,9.16-11.28,14.01-.19.27.53.23.68.03,5.64-7.79,11.49-15.84,19.87-20.87,2.46-1.48,5.09-2.57,7.8-3.29-2.94,1.96-4.94,5.25-5.09,8.81-.16,3.62,1.58,7.13,4.44,9.31l.43.32.41.32s-.03-.06-.04-.09c.03.02.05.04.08.06.01.01.02.01.03.02-.13-.38-.2-.79-.2-1.21,0-.23.02-.45.06-.66.29-1.62,1.64-2.88,3.29-3.04h.03c1.24,0,2.41.71,3.02,1.78.3.52.45,1.18.47,1.77.01.53-.09,1.26-.52,1.6-.43.34-1.02.42-1.54.51-.48.05-.97.1-1.45.16,0,0-.02,0-.03,0-.81.09-1.63.19-2.44.29-5.75.69-11.48,1.55-17.19,2.59-.28.05-.65.35-.14.25,5.24-.94,10.49-1.71,15.76-2.37h.1c1.84-.2,3.68-.38,5.52-.57.54-.06,1.09-.12,1.63-.19-.05.08-.1.16-.15.24-.02.02-.01.05,0,.07.02.02.06.03.09.03.08,0,.16-.03.21-.09.05-.07.09-.13.13-.2.02-.03.04-.06.06-.09.19-.02.38-.04.56-.07-.25.6-.56,1.17-.92,1.71-.03.05.12.03.13.03.06-.01.15-.03.19-.09.36-.53.66-1.1.91-1.68l.62-.08s-.02.07-.03.1c-.08.23-.17.47-.27.69-.19.45-.41.89-.66,1.31-.03.06.11.05.13.05.07,0,.15-.04.18-.1.21-.36.41-.73.58-1.12.08-.19.16-.38.24-.57.04-.09.07-.19.1-.28.01-.03.02-.08.03-.13l.27-.04c-.06.28-.11.57-.18.85-.07.29-.16.57-.26.85-.06.17.26.15.3.03.1-.29.19-.58.27-.88.08-.29.12-.59.19-.89,0,0,0,0,0,0l.33-.04s.06,0,.09-.01c-.09.67-.25,1.33-.47,1.97-.02.05.11.03.13.03.05,0,.17-.03.19-.09.22-.64.37-1.29.47-1.95.04,0,.07,0,.11-.01l.48-.06s-.01.04-.02.06c-.01.1-.02.19-.04.29-.03.2-.07.4-.11.6-.09.4-.2.79-.34,1.18-.03.09.28.05.32-.05.14-.41.26-.82.35-1.24.04-.2.08-.41.11-.62,0-.06.02-.11.02-.17,0-.03,0-.06,0-.08,0-.01,0-.01,0-.02l.46-.06s-.09.01-.13.01c.08-.01.15-.02.23-.03,0,0,0,0,0,0h-.1s.07,0,.1,0c0,.34,0,.68-.05,1.02-.04.35-.12.7-.21,1.04-.02.08.09.11.15.11.08,0,.15-.05.17-.13.09-.34.17-.69.21-1.04.04-.34.05-.69.05-1.04.17-.02.35-.04.53-.06,0,.01-.01.02-.01.03.07.36.12.72.13,1.09.01.37,0,.73-.04,1.1-.01.17.31.13.32-.02.03-.38.05-.75.03-1.13-.01-.37-.06-.74-.13-1.1.06,0,.12-.01.18-.02.21.57.36,1.16.42,1.76,0,.08.13.09.19.07.08-.02.14-.08.13-.16-.06-.59-.2-1.16-.41-1.71.17-.02.33-.04.5-.06,0,.02-.02.04-.01.07.28.65.48,1.33.59,2.03.02.15.34.07.32-.09-.11-.7-.31-1.38-.59-2.03,0-.01-.02-.01-.03-.02.14-.02.29-.04.43-.06-.02.03-.02.07,0,.1.5.68.91,1.42,1.21,2.2.06.15.38.06.32-.09-.31-.8-.73-1.56-1.24-2.26,0,0,0,0,0,0,.19-.03.38-.05.56-.08.76.84,1.39,1.79,1.86,2.82.04.09.35-.01.32-.09-.46-1.02-1.08-1.96-1.83-2.79.1-.02.21-.03.31-.05,1.16.95,2.1,2.15,2.74,3.51.05.11.36,0,.32-.09-.63-1.35-1.56-2.54-2.7-3.49.18-.03.35-.07.53-.1,1.2.93,2.2,2.1,2.92,3.43.05.1.36,0,.32-.09-.71-1.33-1.7-2.49-2.88-3.42.08-.02.16-.03.24-.05.93.6,1.76,1.33,2.47,2.17.06.07.36-.04.3-.12-.69-.83-1.5-1.54-2.4-2.13.28-.06.57-.12.85-.18.93.6,1.76,1.33,2.47,2.18.06.07.36-.04.3-.12-.69-.83-1.51-1.55-2.42-2.14.19-.04.38-.09.58-.14.97.61,1.84,1.37,2.57,2.24.06.07.36-.04.3-.12-.72-.86-1.57-1.61-2.52-2.21.13-.03.27-.06.41-.1.12-.03.24-.08.37-.11,0,0,0,0,0,0,.72.43,1.38.96,1.97,1.56.06.06.15.06.22.03.05-.03.13-.11.07-.17-.57-.59-1.21-1.1-1.9-1.53.24-.07.47-.14.71-.21.77.29,1.5.67,2.18,1.15.12.09.4-.08.24-.19-.63-.44-1.31-.79-2.02-1.08.3-.1.59-.21.89-.32.02.02.04.03.07.04.6.11,1.17.29,1.72.55.14.07.37-.14.18-.22-.51-.24-1.04-.4-1.58-.52.23-.09.46-.17.69-.26.54.14,1.07.34,1.56.59.14.07.36-.13.18-.22-.43-.22-.89-.38-1.35-.52.18-.08.34-.17.52-.25.02.02.04.04.08.05.58.14,1.14.35,1.67.62.14.07.36-.13.18-.22-.52-.26-1.06-.45-1.62-.6.2-.1.41-.19.61-.29,0,0,0,0,.01,0,.58.14,1.14.35,1.67.62.14.07.36-.13.18-.22-.49-.24-1-.43-1.52-.57.21-.11.41-.23.62-.35.58.14,1.13.35,1.66.62.14.07.36-.13.18-.22-.49-.25-1.01-.43-1.54-.58.25-.14.5-.28.74-.44.57.14,1.12.35,1.64.61.14.07.36-.13.18-.22-.48-.24-.99-.43-1.51-.57.01,0,.03-.02.04-.02.46-.3.91-.63,1.34-.97.22-.17.43-.34.64-.52.11-.09.21-.19.32-.28.08-.07.2-.28.33-.23.04.01.07.04.1.07.26.24.51.52.78.75.28.24.58.45.88.65.57.36,1.17.66,1.78.94.54.25,1.08.51,1.63.76,5.85,2.63,12.1,4.19,18.32,5.66-6.17-1.59-12.39-3.27-18.16-6.01-1.63-.85-3.51-1.73-4.73-3.14Zm-19.7,7.26s0,0,0,0c.18-.02.35-.05.53-.07,0,0,0,0,0,0l-.53.07Zm.83-.11s0,0,0,0c.06,0,.12-.02.18-.02,0,0,0,0,0,0l-.18.02Zm.51-.07c.18-.02.36-.05.53-.07,0,0,0,0,0,0l-.53.07s0,0,0,0Zm.76-.1s0,0,0,0c.17-.02.33-.04.5-.06,0,0,0,0,0,0l-.49.07Zm.72-.1s0,0,0,0c.05,0,.09-.01.14-.02.15-.02.3-.04.45-.06,0,0,0,0,0,0l-.59.08Zm.94-.13h0c.11-.01.21-.03.32-.04h0l-.32.04Zm8.54-2.52s-.02,0-.03-.01c-.09-.02-.17.04-.19.1-.7.29-1.4.54-2.12.78-.04,0-.07.01-.1.03-1.55.49-3.14.86-4.76,1.16-.06-.03-.17,0-.24.04-.51.09-1.02.18-1.53.25.04-.04.08-.08.13-.11.11.01.24-.01.33-.07.14-.09.27-.19.4-.29h.01c.07-.02.13-.03.15-.05.58-.32,1.1-.73,1.56-1.19.08-.03.15-.07.19-.13.1-.15.21-.31.32-.47.05-.07.1-.12.15-.19,1.57-1.54,2.66-3.54,3.02-5.72.15-.45.28-.91.37-1.39.41-2.16.11-4.49-1.18-6.3,4.05,2.24,7.48,5.44,10.04,9.29-1.93,1.9-4.14,3.26-6.51,4.26Z"/>
  <path class="cls-1" d="m230.83,394.7c-16.13,4.25-30.78,13.34-42.89,24.67,12.27-11.17,26.9-20.04,42.89-24.67Z"/>
  <path class="cls-1" d="m200.1,174.45c.3-.31-.41-.32-.59-.14-11.13,11.71-20.79,24.8-28.73,38.87-7.91,14-14.12,28.96-18.45,44.45-2.47,8.83-4.3,17.83-5.51,26.92-.04.3.69.18.73-.08,2.1-15.86,6.15-31.44,12.02-46.32,5.93-15.05,13.7-29.38,23.09-42.56,5.31-7.45,11.14-14.51,17.44-21.14Z"/>
  <path class="cls-1" d="m165.44,273.78c3.56-25.92,12.57-51,26.28-73.28,3.94-6.4,8.26-12.55,12.93-18.43.28-.35-.41-.39-.59-.17-16.32,20.52-28.28,44.43-34.94,69.8-1.91,7.29-3.38,14.69-4.41,22.16-.04.33.69.21.73-.07Z"/>
  <path class="cls-1" d="m411.36,216.4c.4.04,1.68-.64.91-.71-24.9-2.27-49.2-10.38-70.51-23.47-4.5-2.77-8.87-5.76-13.08-8.96-.13-.17-.27-.34-.4-.52-.18-.25-.46-.37-.75-.38-1-.78-2.01-1.55-3-2.35-.36-.29-1.69.27-1.35.54,1.1.89,2.21,1.76,3.32,2.62-.05.27,0,.56.18.79,16.08,20.83,36.17,38.9,59.78,50.73,15.55,7.78,32.35,13.9,45.03,26.2,12.88,11.77,22.56,26.92,27.85,43.55,6.89,20.86,6.72,43.19,5.19,64.88-3.68,56.72-17.39,112.54-17.16,169.56-.17-57.02,13.68-112.82,17.44-169.54,1.56-21.74,1.9-44.11-4.92-65.07-5.23-16.76-14.91-32.08-27.81-44-12.66-12.4-29.58-18.74-45.05-26.68-21.77-11.17-40.42-27.7-55.62-46.78,17.58,12.49,37.62,21.45,58.66,26.24,7.01,1.6,14.11,2.72,21.27,3.37Z"/>
  <path class="cls-1" d="m192.51,382.02c.37.5.79.95,1.28,1.33.12.1.39-.09.26-.2-.48-.39-.91-.84-1.28-1.33-.05-.06-.17-.02-.22.01-.06.05-.09.12-.04.18Z"/>
  <path class="cls-1" d="m343.5,348.95c.11-.61.29-1.2.55-1.76.03-.07-.06-.16-.12-.19-.07-.03-.15-.02-.18.05-.26.56-.44,1.15-.55,1.76-.03.15.27.3.3.13Z"/>
</svg>