<?xml version="1.0" encoding="UTF-8"?>
<svg id="uuid-e28ccc75-2a39-415e-a0bd-8e1219931ef1" data-name="Livello 7" xmlns="http://www.w3.org/2000/svg" viewBox="0 0 400 400">
  <defs>
    <style>
      .uuid-e1762001-7aed-4624-9d6d-68a5ed88ae0a {
        fill: #232a56;
      }
    </style>
  </defs>
  <path class="uuid-e1762001-7aed-4624-9d6d-68a5ed88ae0a" d="m230.74,269.17h0c-1.14-2.76-3.1-4.72-5.52-5.53-.17-.06-.37-.03-.55.06-.18.09-.31.24-.36.4-.08.24.03.54.37.65,2.2.73,4.01,2.64,4.96,5.26.25.7.46,1.46.59,2.27.18,1.02.27,2.14.28,3.44,0,.68,0,1.25-.02,1.77,0,.29-.02.59-.03.89,0,.09,0,.18-.02.27-.02.22-.03.43-.02.64l.22,3.29.57-3.24c.06-.35.12-.7.17-1.05l.16-1.05c.01-.08.02-.17.03-.27.01-.13.03-.27.07-.43.08-.53.15-1.05.17-1.57,0-.15,0-.3,0-.45-.02-.66-.1-1.3-.17-1.86-.17-1.27-.47-2.44-.9-3.49Z"/>
  <path class="uuid-e1762001-7aed-4624-9d6d-68a5ed88ae0a" d="m222.9,263.48c-.43-.23-.85-.21-1.25-.2l-1.19.04c-.69.03-1.4.06-2.13.02-1.11-.05-2.3-.14-3.63-.26-1.15-.12-2.34-.25-3.64-.4l-.36-.04c-1.1-.13-2.19-.26-3.29-.38-1.01-.11-2.34-.24-3.67-.35-1.43-.1-2.59-.15-3.67-.17h-.3c-1.2,0-2.3.04-3.37.13-1.23.1-2.47.28-3.68.52-1.67.35-3.3.95-4.89,1.54-.5.19-.99.37-1.49.55-2.4.85-4.75,1.25-7.42,1.25-.32,0-.64,0-.96,0h-.32c-1.73-.02-3.68-.04-5.6.32-1.7.32-3.44.97-5.34,2.01-3.47,1.89-6.38,4.43-9.55,7.31-.45.4-.9,1.02-1.36,1.84-.16.29-.3.58-.39.8-.09.07-.15.16-.17.26l-.18.09.17.09c.03.14.12.26.26.33.28.13.56.26.85.4l.17.08c.06.08.14.15.25.2,4.2,1.99,8.96,4.24,13.97,5.01,1.08.17,2.18.25,3.36.25,3.14,0,6.23-.58,9.21-1.14.75-.14,1.49-.28,2.24-.41,2.04-.36,4.18-.51,6.26-.65,2.74-.19,5.58-.39,8.31-1.08,4.73-1.19,8.11-4.38,10.53-7.01.5-.54,1-1.11,1.49-1.66l.09-.1c.68-.76,1.38-1.55,2.07-2.29l2.06-1.95.05-.04c.21-.2.43-.39.64-.57.84-.71,1.74-1.34,2.68-1.88.33-.19.65-.37.98-.53.53-.26,1.06-.5,1.59-.69.06-.02.11-.04.18-.06l.04-.02c.11-.04.21-.07.3-.11l.05-.02c.09-.04.23-.1.33-.23.08-.1.11-.23.09-.35l.97-.32-1.14.03c-.07-.06-.16-.1-.22-.13Zm-64.28,14.62c.29-.07.58-.14.88-.21l.12-.03c.56-.14,1.14-.28,1.71-.43.14-.04.28-.08.35-.1.07,0,.14-.03.17-.04.32-.07.65-.16,1.04-.29l.17-.07v.02s.31-.08.31-.08c.08-.02.15-.04.23-.07.14-.04.27-.08.36-.12l1.73-.67c.41-.15.85-.31,1.29-.41.83-.2,1.66-.45,2.46-.68,1.14-.33,2.32-.68,3.49-.91,1.17-.16,2.43-.29,3.84-.4.03,0,.07,0,.12,0h.05c.09,0,.17,0,.24-.03l.27-.02c.09,0,.18-.03.25-.07.4-.04.64-.38.62-.68-.02-.26-.23-.52-.61-.52h-.08c-1.82.13-3.88.27-5.92.61-1.13.18-2.29.46-3.76.9-.31.08-.64.16-.96.25-1.09.32-2.26.64-3.43.82-.65.1-1.31.12-1.97.13-.46,0-1.02.02-1.57.08-.39.04-.76.14-1.12.25,2.16-1.94,4.48-3.94,7.04-5.55,2.02-1.28,3.87-2.12,5.66-2.55,1.9-.46,3.97-.44,5.79-.42h.24c.37,0,.73.01,1.09,0,2.45,0,4.43-.24,6.22-.76,1.13-.33,2.22-.74,3.29-1.14.95-.36,1.93-.73,2.92-1.03,4.81-1.46,10.11-1.09,14.7-.63,1.2.12,2.43.26,3.63.4h.07c1.56.19,3.16.37,4.78.52-4.68.67-9.21,2.21-13.6,3.71-1.8.62-3.84,1.31-5.85,1.92-2.48.72-4.57,1.22-6.55,1.59-1.94.33-3.74.49-5.49.49h-.11c-.3,0-.75.27-.75.64,0,.23.17.47.55.47h.06c6.36,0,12.39-2.05,18.21-4.04l.22-.07c.71-.24,1.41-.48,2.11-.71,4.35-1.38,8.03-2.42,11.84-2.99.38-.05.78-.09,1.18-.12.6-.05,1.14-.08,1.68-.1h.36c.21-.02.42-.03.63-.03h.02s-.06.03-.08.05c-.48.29-.97.62-1.44.97-.22.17-.45.34-.68.53-.11.09-.22.18-.33.28-.04.03-.08.07-.12.11-.03.03-.09.09-.11.1-.05.02-.1.06-.16.12h0c-1.63,1.45-3.11,3.11-4.54,4.73-2.66,3-5.42,6.11-9.18,7.7-3.11,1.31-6.55,1.53-9.88,1.74-1.33.08-2.84.18-4.26.35-1.75.21-3.49.55-5.17.87h-.08c-3.22.64-6.55,1.28-9.87,1.04-2.31-.17-4.72-.7-7.38-1.63-1.47-.64-2.95-1.28-4.43-1.92l-.93-.4-2.71-1.17c.17-.04.35-.09.52-.13.2-.05.41-.1.61-.15Z"/>
  <path class="uuid-e1762001-7aed-4624-9d6d-68a5ed88ae0a" d="m150.06,282.04h0c-.22-.11-.51-.08-.74.08-.19.13-.3.33-.29.54.22,3.51,1.38,6.91,3.35,9.84.11.16.29.25.5.25.16,0,.33-.05.46-.14.14-.1.24-.23.27-.38.03-.14,0-.28-.08-.4-1.86-2.77-2.96-6.01-3.17-9.36-.01-.18-.12-.34-.28-.43Z"/>
  <path class="uuid-e1762001-7aed-4624-9d6d-68a5ed88ae0a" d="m154.28,236.78c.6,2.89,2.45,5.29,5.49,7.13.08.05.19.08.3.08.24,0,.56-.12.7-.35.12-.2.1-.5-.17-.66-2.78-1.68-4.46-3.87-5.01-6.49-.63-3.01.56-6.02,1.87-8.6.08.27.17.53.27.79.05.13.15.24.28.3.16.08.39.08.59,0,.15-.05.26-.14.34-.25.09-.14.12-.31.06-.46-1.86-4.95.12-10.27,1.72-14.54.05-.12.04-.26,0-.37-.05-.11-.15-.2-.28-.25-.18-.07-.42-.05-.63.04-.17.08-.29.2-.35.35-1.66,4.46-2.99,8.48-2.37,12.6-.06.05-.12.11-.15.17-1.18,2.2-2.46,4.76-2.75,7.49-.08-.02-.16-.02-.25-.01-.11.02-.49.09-.62.4-3.71,8.94-5.96,18.38-6.7,28.04-.01.18.07.34.22.45.1.07.22.1.36.1s.28-.03.39-.09c.21-.1.34-.27.35-.47.7-9.17,2.78-18.15,6.21-26.71.03.46.08.9.18,1.33Z"/>
  <path class="uuid-e1762001-7aed-4624-9d6d-68a5ed88ae0a" d="m198.66,238.51c-.14.11-.21.25-.2.4l-.39.32.51-.04c.09.1.23.14.41.14.19,0,.45-.06.58-.17,3.8-3.1,5.56-8.31,4.37-12.95-1.19-4.64-5.21-8.35-10.02-9.24-.22-.03-.76.11-.9.46l-.45.2.46.09c.06.13.17.22.33.25,4.35.8,8.05,4.15,9.23,8.34,1.23,4.38-.35,9.28-3.92,12.2Z"/>
  <path class="uuid-e1762001-7aed-4624-9d6d-68a5ed88ae0a" d="m185.63,239.08l-.12.14h0c-.05.1-.08.2-.07.3.01.18.12.29.15.32,0,0,.02.02.03.02v2.36l.52-2.24c.14-.02.34-.07.49-.24,1.78-1.99,3.63-4.04,6.07-5.07.56-.24,2.43-.91,3.16.28.68,1.09-.1,2.42-.87,3.58-.1.15-.1.29-.08.38.02.12.1.23.2.3.2.14.48.09.56.08.12-.02.35-.09.47-.28.69-1.03,1.98-2.96.88-4.68-1.01-1.58-3.17-1.15-3.81-.98-3.17.85-5.51,3.45-7.58,5.75Z"/>
  <path class="uuid-e1762001-7aed-4624-9d6d-68a5ed88ae0a" d="m161.65,240.21h0c.23.07.59.03.79-.15,1.07-.99,2.64.12,3.4.92.31.33.61.7.92,1.08.64.8,1.31,1.63,2.25,2.21.09.05.19.08.31.08.14,0,.3-.04.44-.12.26-.14.32-.34.33-.48,0-.17-.09-.33-.25-.42-.8-.49-1.4-1.25-1.99-1.99-.53-.67-1.08-1.36-1.8-1.89-1.28-.96-3.26-1.3-4.57-.07-.2.19-.2.38-.17.49.02.08.09.27.34.35Z"/>
  <path class="uuid-e1762001-7aed-4624-9d6d-68a5ed88ae0a" d="m220.12,244.2c.14,0,.3-.04.43-.11.21-.11.28-.26.3-.34.04-.12.03-.25-.03-.36-3.92-7.39-8.91-14.12-14.82-20-.1-.11-.25-.16-.43-.16-.22,0-.47.1-.61.24-.1.1-.16.23-.16.36s.05.25.15.34c5.85,5.83,10.77,12.47,14.64,19.75.1.19.29.29.53.29Z"/>
  <path class="uuid-e1762001-7aed-4624-9d6d-68a5ed88ae0a" d="m292.42,303.77l.03.22h.16s.03.02.05.03l.25.13.25-.15s.02,0,.02-.02h.22v-.42s1.26-.53,1.26-.53l-1.29.04c-.35-10.67-1.46-26.5-4.71-41.53-.8-3.7-1.72-7.48-2.74-11.26-.06-.22-.23-.39-.46-.45-.28-.07-.62.02-.83.22-.17.17-.23.4-.17.62.02.09.04.17.07.28l.05.19c-.1.09-.14.2-.16.27-3.99,17.02-12.33,32.91-24.11,45.94-3.25,3.59-6.79,6.99-10.54,10.11-.25.2-.23.52-.07.72.09.1.21.17.38.18l.31.39v-.4c.17-.03.36-.08.48-.18,13.5-11.22,24.07-25.84,30.55-42.27,1.52-3.86,2.83-7.9,3.89-12,3.05,11.95,5.11,24.2,6.13,36.41.07.82.15,1.71.23,2.67v.07c.3,3.3.62,7.04.74,10.05h0v.24s-1.09.46-1.09.46l1.12-.04Z"/>
  <path class="uuid-e1762001-7aed-4624-9d6d-68a5ed88ae0a" d="m200.97,293.13l-11.94,2.79c-.4.09-.56.42-.5.68.06.25.29.42.58.42.06,0,.12,0,.18-.02l11.93-2.79c.25-.06.42-.21.49-.42.05-.18,0-.37-.12-.5-.15-.16-.38-.22-.63-.16Z"/>
  <path class="uuid-e1762001-7aed-4624-9d6d-68a5ed88ae0a" d="m134.8,185.58l.26-.25-.54.13h0s-.04-.02-.09-.04l-.09-.02c-2.48-.61-4.68-.6-6.53.01v-.02s-.39.14-.39.14c-.37.13-.75.29-1.17.49h0c-.05,0-.1.01-.13.02-.06.02-.12.04-.18.08,0-.13,0-.25.01-.37,0-.24-.17-.42-.42-.43-.07,0-.16.02-.24.05-.06-.15-.2-.27-.41-.27-.27,0-.57.21-.57.5,0,.09,0,.17,0,.26-.06,0-.12,0-.18,0-.13.03-.25.09-.33.19-.03,0-.07,0-.11,0-.08.02-.15.04-.21.08l-.07-.03c-.23-.08-.47.05-.56.13-.08.07-.14.16-.16.26-.11,0-.23.01-.3.05-.16.08-.27.22-.29.38-.01,0-.03,0-.04,0-.2-.03-.4.06-.52.24-.07.1-.1.23-.08.34-.12,0-.27.04-.37.12-.1.08-.17.19-.18.31-.12,0-.24.04-.34.12-.1.08-.17.2-.19.32-.09-.06-.21-.09-.33-.08-.15.02-.29.1-.39.21-.03.04-.06.08-.07.13-.06-.04-.12-.08-.18-.12-.07-.05-.25-.14-.49-.02-.09.04-.3.16-.33.44-.07-.04-.13-.08-.19-.13-.1-.07-.22-.1-.36-.08-.16.03-.31.12-.4.25-.04.06-.06.12-.08.18-.07,0-.14.03-.21.07-.18.1-.29.25-.29.42,0,.15.07.29.2.37.15.09.31.18.47.27-.02.01-.03.03-.04.04h-.89l.74.37s0,0,0,.01c-.12.09-.19.22-.2.36-.08.02-.15.05-.23.09-.06.04-.11.08-.15.13l-.57.08.48.24s0,.04,0,.06l.06.22.2.08s.04.01.06.02c-.06.08-.09.17-.1.26l-.2.14.24.07c.04.11.12.19.23.24-.03,0-.07,0-.1,0-.19-.03-.44.06-.55.28-.01.02-.02.05-.03.08l-.81.34.86.07s.03.04.05.06c-.05.06-.08.13-.1.21-.03.15,0,.3.1.41.1.11.27.17.41.16.08,0,.17-.02.25-.03-.87,1.36-1.69,2.86-2.45,4.47l-.13.28.71.35.14-.27c1.11-2.12,2.29-4,3.51-5.58.13-.07.22-.19.26-.33,1.25-1.56,2.58-2.88,3.97-3.91-.38.74-.63,1.53-.76,2.34-.34,2.19.28,4.47,1.7,6.25.03.08.08.16.15.24l.38.36c.08.08.19.14.32.16.05.02.1.03.12.03.21.08.48.04.67-.09.15-.1.24-.26.25-.4.02-.06.03-.12.03-.21-.01-.19.02-.33.09-.42.04-.04.07-.08.09-.13.22-.25.49-.45.75-.58.69-.19,1.56.04,2.26.61.71.58,1.18,1.42,1.48,2.04-1.37.83-3.05,1.84-4.86,2.49-.16.06-.32.11-.48.16l-.33-.5v.59c-2.17.59-4.45.48-6.59-.34l.85-1.31-1.26,1.14c-.66-.28-1.31-.64-1.93-1.05-.33-.22-.88-.01-1.04.24-.14.21-.09.48.12.63.17.11.34.23.53.34-.11.07-.22.14-.32.21-.13.09-.2.24-.2.39s.07.29.19.37c.08.06.17.09.25.1-.06.09-.09.2-.08.32l-.6.59.81-.25s.05.03.08.04c.06.03.13.04.19.04-.02.07-.02.14-.01.21.02.12.1.24.2.3.07.05.15.08.24.08l-.08.19.13.19c.1.15.29.22.48.19.02,0,.04,0,.06,0h0c.12.18.32.21.42.2h0c.1.15.26.2.39.2,0,0,.02,0,.02,0-.07.17-.13.34-.18.51-.07.23.05.46.27.53.14.05.31.04.46-.04.02-.01.04-.02.06-.04.05.04.11.07.17.09.04.01.09.02.14.02.21,0,.48-.12.55-.38.02-.07.04-.15.06-.22l.02.02c.13.12.32.15.52.1.27-.08.34-.27.36-.35.02-.07.04-.14.05-.21.04.02.09.04.15.05.13.03.27,0,.39-.07.12-.07.2-.17.24-.3.09.08.21.12.35.12.12,0,.24-.04.33-.12.1.08.23.12.35.11.1,0,.25-.05.36-.16.11.18.34.27.57.21.12-.03.22-.1.29-.19.12.1.29.14.47.1.08-.02.19-.07.27-.16.18.13.43.11.62,0,.1-.06.17-.14.21-.24.1-.02.21-.06.29-.14l.06.17.12-.17c.07-.01.14-.04.21-.07.05-.03.1-.07.14-.11.05.07.11.13.17.2.21.24.59.15.76,0,.14-.12.19-.31.13-.47.1-.03.18-.09.23-.14.08-.08.13-.19.13-.3,0-.11-.04-.21-.12-.29-.09-.09-.17-.18-.25-.27.07,0,.13-.02.19-.05.04-.02.17-.08.24-.23.04-.08.06-.16.05-.24.33-.14.63-.27.94-.42,1.17-.58,2.28-1.25,3.24-1.83l.17-.05.02-.04c1.02-.53,8.55-4.32,15.09-5.4,1.7-.18,3.48-.22,5.3-.14.26,0,.6-.17.68-.39.08-.12.09-.25.04-.39l-.13-.2-.06-.02s-.05-.03-.07-.04c-5.23-2.93-11.17-5.58-17.63-7.88-.12-.06-.25-.11-.38-.17Zm15.38,7.97c-3.67.07-7.25.68-10.67,1.82.55-1.8.47-3.85-.21-5.8-.17-.48-.39-.91-.7-1.32,4.13,1.63,8.02,3.41,11.58,5.3Z"/>
  <path class="uuid-e1762001-7aed-4624-9d6d-68a5ed88ae0a" d="m138.92,203.19l-.06.02c-5.28,2.36-10.38,5.23-15.16,8.52l-.2.15.06.45.19.09c.06.03.13.05.21.05.1,0,.2-.03.28-.08,4.71-3.24,9.75-6.07,14.98-8.41.25-.12.31-.37.23-.56-.09-.2-.32-.29-.54-.23Z"/>
  <path class="uuid-e1762001-7aed-4624-9d6d-68a5ed88ae0a" d="m213.59,190.27h0c-3.71-.59-7.5-.9-11.25-.93-.17,0-.33.09-.42.27l-.09.21.1.19c.08.13.22.21.37.21,3.72.03,7.46.34,11.15.93h.06c.22,0,.42-.16.46-.38.04-.23-.12-.45-.36-.49Z"/>
  <path class="uuid-e1762001-7aed-4624-9d6d-68a5ed88ae0a" d="m246.67,184.02c-5.32-2.11-11.3-2.47-16.83-1-.16.04-.28.16-.32.32-.04.15,0,.3.11.41.03.03.07.06.11.08l.54,2.11v-2.13c5.28-1.35,10.97-.99,16.03,1.02.1.05.23.05.35,0,.12-.05.22-.14.27-.25.09-.22-.02-.46-.25-.55Z"/>
  <path class="uuid-e1762001-7aed-4624-9d6d-68a5ed88ae0a" d="m235.28,185.05c-.16.01-.31.11-.38.26-.07.14-.05.3.04.43.08.11.22.18.38.18h.02c2.79-.23,5.58.57,7.85,2.24.08.06.17.09.27.09.07,0,.14-.01.19-.04.15-.07.26-.2.27-.36.02-.15-.05-.3-.17-.39-2.43-1.79-5.44-2.64-8.46-2.41Z"/>
  <path class="uuid-e1762001-7aed-4624-9d6d-68a5ed88ae0a" d="m165.07,68.69v.31c.01.09,0,.22,0,.36,0,.17,0,.35,0,.5.42,11.39,3.1,23.29,8.21,36.38,4.75,12.17,11.05,23.89,18.75,34.85,4.15,5.91,8.57,11.36,13.14,16.18l.21.22.92-.87h-.45c.05-.25.11-.57-.11-.8-8.14-8.59-15.55-18.79-22.02-30.32-6.78-12.08-11.75-24.25-14.78-36.15-1.8-7.09-2.84-13.95-3.08-20.38v-.32l-.81.03Z"/>
  <path class="uuid-e1762001-7aed-4624-9d6d-68a5ed88ae0a" d="m178.2,57.01c-.26-.15-.57-.18-.86-.1-.29.08-.52.28-.67.54-.14.26-.17.56-.09.85,5.56,18.58,13.4,35.39,23.3,49.95,6.78,10.12,15.66,19.07,26.41,26.62,9.99,7.01,21.31,12.63,33.66,16.72,6.55,2.27,13.7,4.29,22.49,6.36l.3.07.17-.73-.35-.14-.1-.02h0c-8.6-2.02-15.67-4.04-22.23-6.35-16.94-5.72-40.47-17.16-56.36-39.21-10.95-15-19.41-33.13-25.14-53.87-.08-.29-.27-.54-.53-.69Z"/>
  <path class="uuid-e1762001-7aed-4624-9d6d-68a5ed88ae0a" d="m243.89,128.18c10.59,7.34,21.92,12.66,33.68,15.82l.3.08.21-.77-.3-.08c-22.61-6.18-43.97-20.84-60.16-41.3-15.68-18.62-27.46-41.19-34.08-65.28-.05-.19-.17-.34-.34-.44-.17-.1-.36-.12-.55-.07-.19.05-.34.17-.43.34-.1.17-.12.36-.07.55,6.77,24.25,18.74,46.94,34.6,65.61,7.97,9.99,17.1,18.58,27.14,25.54Z"/>
  <path class="uuid-e1762001-7aed-4624-9d6d-68a5ed88ae0a" d="m137.94,81.83c-10.6,12.59-17.79,28.8-20.79,46.89-1.09,6.61-1.65,13.54-1.67,20.61v.3h.79s.01-.29.01-.29c.32-8.2.96-14.69,2.04-20.42,3.42-19.84,12.47-38.05,25.51-51.36-.46,1.43-.84,2.86-1.21,4.26-.83,3.37-1.46,6.8-1.86,10.22-2.34,19.39,1.65,40.23,11.54,60.25l.18.35.5-.24h.21s-.03-.08-.03-.08l.08-.04-.17-.36c-12.35-25.93-14.85-53.11-7.05-76.54.01-.01.03-.03.05-.04l2.41-2.29-2.08,1.2c.22-.64.44-1.24.66-1.84l1.21-3.23-1.91,2.86c-.62.93-1.18,2-1.7,3.27-2.53,1.72-4.64,4.14-6.67,6.48l-.04.04Z"/>
  <path class="uuid-e1762001-7aed-4624-9d6d-68a5ed88ae0a" d="m156.53,79.7c.08,3.46.37,6.95.87,10.35,2.81,19.33,12.1,38.4,26.87,55.14l.26.3.2-.17.7-.06-.52-.62c-19.29-22.51-28.98-49.92-26.57-75.19l.33-3.44-1.1,3.27c-1.08,3.2-1.06,6.78-1.03,10.24v.17Z"/>
  <path class="uuid-e1762001-7aed-4624-9d6d-68a5ed88ae0a" d="m258.77,195.49h0c2.03-4.23,2.36-9,2.69-13.61v-.14c.19-3.75-.06-7.69-.79-12.77,2.51-.47,4.16-.83,4.94-1.08,1.66,3.93,5.84,2.81,9.89,1.71l.06-.02c3.24-.87,6.72-1.83,10.24-2.88.52-.16,1.43-.35,2.5-.57,2.37-.51,5.58-1.19,7.16-2.06,2.27,14.37,1.59,30.1-1.96,45.5-3.05,15.27-7.91,29.62-14.44,42.66l-.14.28.5.25h.38v-.24c6.63-13.06,11.58-27.43,14.73-42.72,6.3-26.57,3.99-52.9-6.5-74.14-8.35-18.44-23.72-31.71-38.59-44.55l-.06-.05c-4.05-3.5-8.25-7.12-12.2-10.77-12.84-11.69-22.09-23.01-28.28-34.62-.14-.27-.38-.46-.67-.55-.29-.08-.59-.05-.85.09-.26.14-.45.38-.53.66-.08.29-.05.59.09.85,6.39,11.79,15.85,23.25,28.93,35.01,4.06,3.71,8.33,7.35,12.46,10.87,14.75,12.58,30,25.58,38.34,43.71,3.49,6.95,6.12,14.53,7.82,22.54-2.51-.2-9.37.57-12.34.9l-.22.02c-.58.06-1,.11-1.16.12-.83.06-1.66.13-2.49.19l-1.59.12c-1.8.14-4.03.32-6.17.46-2.22.16-3.89.5-4.83,1.63-.57.69-.8,1.59-.73,2.76-.08.01-.15.03-.22.06-.55.2-2.08.53-4.55.99-.68-3.52-1.86-7.97-4.93-11.49-3.08-2.79-7.28-3.37-11.34-3.94-.77-.11-1.51-.21-2.26-.33-13.46-1.36-28.44,2.68-43.35,11.69-3.51,2.12-6.25,4.05-8.62,6.05-2.88,2.26-6.82,5.35-7.63,9.51-.72.08-1.4.16-2.01.24-1.35.13-2.63.06-3.99-.02-.3-.02-.6-.04-.95-.05-4.59.36-8.91,1.22-13.7,2.24-.83.35-2.14.93-3.92,1.71-.44-1.32-1-2.54-1.68-3.65-2.17-3.05-6.14-4.01-9.34-4.78l-.31-.08c-1.68-.42-4.21-1.03-6.71-1.36-15.09-1.94-28.84-.28-39.81,4.8-.87-19.33,2.27-40.37,9.33-62.54,3.27-9.83,6.35-18.64,10.88-26.91,1.88-3.63,4.33-6.68,6.92-9.91.47-.59.94-1.17,1.41-1.77l.22-.27-.96-1.01-.28.18c-2.13,1.4-3.69,3.38-5.23,5.45-7.06,9.96-10.91,21.74-14.64,33.13l-.17.53c-6.92,22.78-9.76,44.17-8.46,63.57-1.87.91-3.68,1.94-5.4,3.05-.52.39-1.07.79-1.61,1.17l-.16.12c-1.01.72-2.16,1.54-3.23,2.42-.7-2.04-1.45-4.31-2.29-6.92-3.16-10.01-5.98-19.06-8.42-28.34-4.72-17.61-5-37.15-.81-56.48l.26-.58c.13-.3.27-.61.41-.91l.17-.36-.42-.2c-.03-.3-.24-.57-.54-.66-.21-.06-.43-.03-.61.08l-.44-.22-.17.37c-5.48,11.61-10.22,24.63-14.49,39.83-7.19,26.11-10.41,51.62-9.56,75.86-3.51-23.49-4.63-43.02-3.55-61.29,0-.05,0-.09.01-.17l.8-8.42c.87-6.73,2.31-13.54,4.27-20.23,6.64-22.67,19.25-44.43,36.48-62.93,7.42-8.17,13.99-14.54,21.92-19.12,8.22-4.79,17.19-7.58,27.21-10.49.29-.08.53-.27.68-.54.14-.26.18-.56.09-.84-.08-.29-.27-.53-.54-.67-.26-.15-.57-.18-.85-.09-10.17,3-19.27,5.89-27.65,10.84-8.67,5.07-15.85,12.42-22.31,19.61-17.35,18.79-30.02,40.84-36.63,63.78-1.28,4.41-2.34,8.92-3.16,13.43l-.04.23c-.95,5.25-1.57,10.48-1.83,15.54-.02.42-.04.83-.06,1.25l-.04,1.11-.05.39c-1.65,14.09-3.36,28.66-3.15,40.66.2,18.55,4.41,45.42,10.99,70.13,7.68,28.85,17.62,51.48,27.97,63.72,9.62,11.66,23.28,21.26,42.99,30.21,2.44,1.14,4.92,2.18,7.32,3.19l.07.03c2.87,1.2,5.84,2.45,8.69,3.84,6.14,3.09,10.36,6.72,12.9,11.08v.45l.77-.45v-.26l-.04-.07c-2.59-4.56-6.91-8.35-13.22-11.58-2.86-1.42-5.85-2.7-8.74-3.94l-.08-.03c-2.39-1.02-4.85-2.08-7.24-3.21-12.25-5.67-29.98-14.97-42.34-30.17-10.14-12.17-19.81-34.67-27.23-63.37-6.36-24.6-10.35-51.27-10.41-69.6-.08-6.85.14-14.02.68-22.37.51,15.62,2.42,32.42,5.98,52.54.01.1.05.2.1.28.53,5.62,1.29,11.21,2.27,16.59,6.73,37.24,24.2,69.82,49.2,91.72,9.22,8.11,19.61,14.97,30.86,20.37,11.2,5.37,23.04,9.2,35.19,11.37,3.66.63,6.71,1.01,9.61,1.21,1.9,4.6,3.9,9.58,6.51,16.13,3.12,7.86,6.24,15.88,8.88,22.7.07.2.24.34.46.38.04,0,.09.01.13.01.23,0,.45-.1.58-.26.13-.16.16-.36.09-.54-4.82-12.45-9.57-24.64-14.59-36.89-.26-.63-.52-1.26-.78-1.89l-.05-.12c-2.41-5.86-5.64-13.56-9.23-21.12-1.53-3.23-3.11-6.36-4.68-9.3-.1-.18-.29-.29-.53-.29-.26,0-.51.14-.64.34-.1.18-.11.39,0,.56l.02.04c-20.68-2.25-34.67-18.51-41.18-28.02-10.83-15.85-17.45-34.3-22.49-50.26-2.71-8.6-5.2-17.42-7.61-25.95l-.21-.73c.45.61.92,1.2,1.4,1.78,6.12,7.06,18.87,8.47,28.13,6.79,16.97-3.77,27.24-11.56,31.39-23.82,2.54-8.18,4.69-16.77,3.29-24.21l.45-.18c.22-.09.42-.17.56-.22l.22-.09c.52,7,.58,14.12.2,21.16-.02.32.22.56.6.58.34,0,.7-.22.72-.58.39-7.09.32-14.3-.21-21.42,0-.09-.04-.17-.09-.25l1.85-.77c.56-.07,1.7-.28,2.9-.51l.24-.04c1.08-.2,2.31-.43,3.18-.57l.77-.13c1.89-.33,3.85-.67,5.63-.8.23,0,.47.02.71.04h.05c.83.05,1.77.1,2.62.03,1.02-.06,2.09-.19,3.39-.38.72,7.63,5.21,13.88,9.5,18.98,2.74,3.33,6.12,7.09,10.35,9.71,5.89,3.65,13.22,5.4,20.64,4.95,11.4-.68,19.61-3.22,26.61-8.22,4.64-3.22,7.82-6.56,9.73-10.19Zm-71.47-16.16l.18-.04c.47-.09,1.01-.2,1.43-.37.6-.24.74-.83.62-1.28-.12-.45-.54-.89-1.18-.81l-.27.04c-.99.13-2.2.28-3.09.39.29-1,.78-1.87,1.45-2.59,3.78-3.87,8.62-7.6,14.08-10.88-1.61,1.27-3.11,2.55-4.42,3.68l-.28.25.88,1.16.31-.2c.79-.51,1.58-1.03,2.38-1.55,2.68-1.76,5.45-3.58,8.31-5.1,9.2-5.05,17.37-5.18,25.7-.41,2.59,1.48,4.9,3.48,6.86,5.94l.23.28,1.21-.79-.18-.33c-4.09-7.29-12.76-11.97-21.4-11.67,2.71-.82,5.34-1.45,7.85-1.88,5.55-.98,11.36-1.05,16.82-.21l.55.09c2.98.48,6.36,1.03,8.53,2.99,2.03,2.13,3.64,5.61,4.8,10.34-4.18.75-8.55,1.44-8.59,1.44-.78.13-1.32.87-1.2,1.66.12.7.72,1.21,1.42,1.21.08,0,.17,0,.23-.02.84-.13,5.01-.79,8.75-1.46.75,4.07,1.11,8.6,1,12.45-.28,4.26-.75,9.14-2.81,13.11-4.61,7.82-14.26,12.72-21.75,14.7-16.73,3.82-29.38,1.47-37.59-7.01-3.12-3.14-6.11-6.73-8.67-10.38-1.42-2.13-4.7-7.56-4.79-12.31l.63-.11c.57-.1,1.13-.2,1.71-.3.09-.02.18-.04.28-.06Zm-114.83-72.83l-.03.22c-.35,2.57-.71,5.23-1.16,7.85-3.26,22.18-4.08,46.62-2.53,74.7,1.38,31.7,6.88,58.23,16.81,81.11,5.48,12.63,12.44,24.27,20.67,34.61,8.72,10.93,19.17,20.78,31.06,29.26l.25.18.47-.65-.25-.18c-43.48-31.2-65.01-77.08-67.75-144.39-1.41-26.84-.65-50.3,2.31-71.63-.15,10.86,1.13,21.42,3.82,31.42,3.36,12.37,7.05,24.45,10.96,35.9-1.78,1.64-2.94,3.26-3.64,5.12-1.19,4.82-.21,9.45,1.03,13.74,1.89,6.52,4.21,11.96,7.11,16.64,0,.04,0,.09.02.12.51,1.79,1.01,3.58,1.53,5.42,4.61,16.33,9.37,33.22,16.04,49.15,4.02,9.62,8.08,17.54,12.41,24.21,5.47,8.43,11.42,15.02,18.18,20.13,8.17,6.18,17.26,9.87,26.32,10.67,2.56,4.87,5.11,10.23,8.02,16.85,1.72,3.93,3.39,7.92,4.8,11.32-2.71-.21-5.61-.6-9.12-1.21-24.4-4.46-47.03-15.45-65.43-31.78-24.68-21.82-41.86-54.18-48.38-91.13-7.2-42.19-1.01-89.85,17.44-134.33-.37,2.25-.67,4.5-.97,6.69Zm13.48,96.87c-.95-3.93-1.75-8.51-.59-12.74.45-1.21,1.25-2.36,2.49-3.58,2.24,6.46,4.45,12.44,6.74,18.28l.14.38,1.33-.52-.15-.37c-2.39-6.1-4.71-12.43-6.9-18.81.76-.64,1.56-1.24,2.34-1.83l.43-.32c2.16-1.59,4.54-3.03,7.08-4.3.19,2.21.43,4.39.71,6.48l.04.3.79-.09-.04-.31c-.23-2.03-.41-4.2-.58-6.83,2.19-1.03,4.41-1.89,6.6-2.56,9.52-2.94,20.51-3.6,32.68-1.96,2.33.34,4.57.87,6.45,1.33l.19.05c2.12.5,4.12.98,5.81,1.92,1.57.83,2.65,2.27,3.32,4.41.04.12.07.24.11.36l.02.07c-1.47.42-3.18.79-4.84,1.15-.72.16-1.42.31-2.07.46-.57.12-.95.65-.88,1.23.04.29.19.56.43.74.23.18.54.26.82.23,1.26-.17,2.52-.37,3.6-.54l.35-.06c1.04-.18,2.11-.37,3.18-.63.96,5.57-.06,11.31-1.19,16.21-2.96,15.86-12.3,24.62-31.21,29.3-9.14,1.84-21.31.38-26.87-5.95-1.18-1.4-2.3-2.93-3.31-4.5-.02-.06-.04-.12-.06-.21-.04-.14-.14-.26-.27-.33-2.92-4.71-5.17-10.24-6.68-16.45Z"/>
  <path class="uuid-e1762001-7aed-4624-9d6d-68a5ed88ae0a" d="m339.05,172.07l-.27-.71c-.53-1.41-1.02-2.73-1.44-3.85-.41-2.16-.82-4.32-1.23-6.48l-.05-.24c-.48-2.51-.96-5.02-1.43-7.52-1-5.31-2.35-10.49-3.41-14.41-2.44-9.15-4.76-18.5-7.08-28.59-.6-2.52-1.21-5.31-1.86-8.28-1.51-6.9-3.22-14.71-5.15-20.42-1.48-4.24-4.23-8.46-8.15-12.52-2.61-2.68-5.67-4.86-8.63-6.97l-.08-.06c-.97-.69-1.98-1.41-2.95-2.13-8.36-6.31-15.11-13.35-20.07-20.92-9.4-18.05-26.79-27.15-39.73-31.61C221.26,1.76,202.44.22,185.86,3.13c-9.92,1.79-19.25,6.13-27,12.55-.27.22-.43.53-.46.88-.03.35.07.68.29.95.46.54,1.27.62,1.83.16,7.35-6.22,16.26-10.46,25.77-12.28,25.32-4.65,60.21.54,81.09,22.62,3.55,3.51,6.13,7.92,8.4,11.82,2.83,4.48,6.35,8.34,9.41,11.53,3.34,3.49,7.1,6.78,11.18,9.78,1.01.74,2.04,1.47,2.96,2.12l.13.09c2.91,2.05,5.92,4.18,8.44,6.74,1.62,1.63,3.21,3.56,4.6,5.58,2.79,3.92,4.12,8.56,5.34,13.36.85,3.26,2.35,9.85,3.56,15.15l.06.26c.51,2.24,1.04,4.54,1.4,6.09.41,1.82.83,3.71,1.26,5.63,2.19,9.85,4.68,21.01,6.96,30.28,2.17,10.34,4.32,21.49,6.96,36.14,5.33,30.06,9,62.09-.11,92.65-7.26,24.92-22.96,48.24-45.4,67.44l-.3.26.73.88.31-.25c21.51-17.42,38.22-41.5,45.84-66.05,4.72-15,6.74-31.33,6.19-49.91-.48-16.26-2.91-32.17-5.3-45.77.36,1.07.7,2.12,1.02,3.08l.03.09c.63,1.9,1.28,3.87,1.99,5.94,9.84,27.87,13.57,50.5,11.75,71.23-.1,1.99-.46,4.62-.78,6.94-.13.96-.26,1.87-.36,2.66l-.68,3.44c-.29,1.47-.58,2.96-.73,3.7-3.57,14.87-9.12,30.98-23.23,37.77l-.28.13.8,1.69v-1.18c14.44-6.81,20.29-23.07,24.11-38.08.12-.55.32-1.49.53-2.53l.41-1.93c.23-1.11.45-2.14.58-2.76.11-.79.24-1.69.39-2.64l.03-.21c.35-2.3.75-4.9.87-6.87,2.13-20.97-1.32-43.92-10.87-72.24-1.52-4.62-4.3-12.06-6.54-18.05Z"/>
  <path class="uuid-e1762001-7aed-4624-9d6d-68a5ed88ae0a" d="m109.17,197.47c1.73-3.4,3.8-6.34,6.15-8.73,6.7-6.88,15.77-9.82,23.68-7.66,1.61.41,3.23,1.03,4.94,1.91l.32.17.79-1.22-.29-.22c-5.51-4.22-12.33-5.31-19.21-3.06-8.35,2.73-15.33,9.89-17.78,18.25l-.11.35,1.34.54.17-.33Z"/>
  <path class="uuid-e1762001-7aed-4624-9d6d-68a5ed88ae0a" d="m196.17,181.85c.21,0,.5-.07.67-.29,4.01-5.54,8.15-11.26,14.11-14.83,1.13-.68,2.35-1.26,3.61-1.72-1.39,1.47-2.19,3.34-2.27,5.32-.12,2.66,1.16,5.34,3.34,7l.78.59.06.07c-3.99.49-7.97,1.09-11.83,1.8-.19.03-.5.17-.59.41-.05.15-.03.31.07.42.18.21.45.15.55.13,3.52-.63,7.2-1.19,11.26-1.69h.07c.66-.07,1.31-.14,1.97-.21.66-.07,1.33-.13,1.99-.2.19-.02.37-.04.56-.06l-.56.86.94-.67c-.05.09-.11.18-.17.27l-.14.23.14.21c.14.21.38.21.5.18.02,0,.06,0,.1-.02l.04.06c.04.07.17.22.48.19.19-.03.34-.12.42-.26.02-.03.03-.06.05-.08.1.06.23.08.37.05.02,0,.05-.01.07-.02.08.06.21.11.39.07.08-.01.15-.04.21-.06.04.04.09.06.14.08.13.05.32.04.46-.04.08-.04.14-.09.19-.15.09.08.22.13.38.14.16,0,.3-.08.39-.2.03.06.08.11.14.15.18.12.4.09.54.03.14-.07.24-.19.27-.34.09.01.17,0,.22-.01.04-.01.09-.03.13-.05.04.08.11.15.18.19l.24,1.54.25-1.53s.08-.04.11-.07c.06-.04.1-.1.13-.16l.02.04c.06.16.21.28.38.3.2.03.4-.04.51-.19.02-.03.04-.05.05-.08.05.09.09.18.13.28.07.14.21.24.39.25.06,0,.37-.01.52-.22.07.13.14.26.2.39.07.15.22.25.4.27.17,0,.39-.05.51-.23,0,0,0-.01.01-.02.04.02.07.04.12.05.14.04.31.02.46-.06.27-.14.31-.41.21-.6-.07-.12-.13-.24-.21-.36.11-.04.24-.12.31-.27.21.22.56.14.74,0,.02-.02.03-.03.05-.05.08.05.2.1.38.08.08-.01.35-.08.44-.32.04-.12.03-.24-.03-.35.05,0,.09-.02.14-.05.11-.06.25-.18.28-.38.01-.1,0-.2-.05-.29.04.03.08.06.12.08.26.18.6.07.75-.15.11-.16.11-.36.01-.51.15.05.33.03.48-.08.08-.06.14-.13.17-.21.09.02.19.02.29-.01.14-.04.26-.14.32-.27,0,0,0-.01,0-.02l.07.04c.28.14.59-.01.71-.25,0-.02.02-.03.02-.05h.02c.13.02.27-.01.39-.09.1-.06.17-.15.21-.26l.09-.04c.12.02.25-.01.37-.08.12-.08.19-.19.22-.31l.1-.06c.25.05.49-.09.59-.28.01-.02.02-.05.03-.08l.25-.11-.24-.12s0-.03-.01-.05c-.04-.12-.13-.22-.25-.28s-.25-.12-.38-.17c.12-.09.24-.18.36-.27.16-.12.31-.25.47-.38l.18-.16.05.05c.11.11.23.23.35.33.21.18.44.34.67.5.44.29.9.51,1.33.7.17.08.35.16.52.25.22.1.43.2.64.3,4.16,1.87,8.61,3,13.19,4.08l.3.07.19-.77-.3-.08c-4.52-1.17-8.92-2.37-12.92-4.27l-.36-.19c-1.07-.55-2.17-1.12-2.87-1.92-.02-.04-.05-.08-.09-.13l-.02-.03c-1.49-2.27-3.47-4.28-5.73-5.83.15-.09.31-.17.47-.25l.19-.12v-.2c.02-.09,0-.27-.2-.43.06-.07.09-.16.1-.26,0-.21-.15-.38-.29-.46-.2-.12-.39-.1-.49-.03-.08.04-.15.08-.22.13-.02-.05-.05-.11-.09-.15-.08-.1-.2-.17-.32-.2-.02-.03-.04-.07-.07-.1-.05-.06-.11-.11-.17-.15v-.07c-.05-.24-.27-.38-.4-.43-.1-.04-.2-.04-.3-.01-.04-.11-.12-.19-.2-.25-.15-.11-.33-.13-.48-.07-.03-.11-.11-.21-.21-.28-.2-.14-.44-.13-.61,0-.07-.14-.19-.23-.28-.27-.12-.05-.26-.06-.37-.02-.06-.1-.15-.18-.26-.22-.12-.05-.25-.05-.37,0,0-.11-.03-.23-.1-.33-.09-.12-.23-.21-.38-.23-.05,0-.1,0-.15,0,0-.07.01-.14.02-.21,0-.08,0-.28-.22-.46-.21-.15-.4-.13-.54-.07,0-.08.01-.16.02-.23.01-.13-.03-.25-.11-.35-.1-.12-.26-.21-.44-.22-.05,0-.11,0-.16.03-.01-.02-.03-.03-.04-.05-.11-.12-.28-.2-.44-.21-.24,0-.42.17-.43.41,0,.18,0,.36,0,.54-.16-.06-.32-.05-.46.04-.14-.06-.28-.06-.42,0-.07-.08-.14-.13-.18-.15-.18-.1-.38-.1-.56.03l-.16.16.03.21s0,.04.01.06c-.08-.01-.16,0-.24.03l-.28-.16.07.3c-.07.09-.11.2-.1.32-.02-.03-.03-.07-.05-.1-.09-.21-.29-.33-.52-.33-.01,0-.04,0-.06,0l-.72-.59.38.84s-.02.05-.03.07c-.08-.01-.16-.01-.23.01-.14.04-.26.15-.31.29-.05.14-.03.31.06.44.02.03.04.06.07.1-.04,0-.08,0-.13,0-.14,0-.27,0-.41,0-7.89,0-14.06,4.57-17.84,8.41-3.02,3.06-5.57,6.57-8.04,9.97l-.08.12c-.17.25-.08.53.1.66.12.09.27.11.38.11Zm24.72-5.35c0,.38-.08.71-.22.82-.21.16-.53.22-.83.27l-.21.03c-.3.03-.6.06-.91.1-.53.06-1.08.12-1.61.19h0s-.2-.57-.2-.57c-.08-.24-.12-.49-.12-.74,0-.14.01-.27.04-.4h0c.18-.99,1-1.75,1.98-1.85.73,0,1.44.42,1.82,1.07.17.29.27.68.28,1.08Zm8.92-.85c1.2-1.18,2-2.7,2.25-4.24.13-.39.22-.73.28-1.05.24-1.24.15-2.45-.24-3.52,2.21,1.43,4.16,3.34,5.67,5.53-1.18,1.11-2.56,1.99-4.2,2.7-.14,0-.26.06-.35.15-.43.18-.9.35-1.32.49-.04,0-.11.02-.16.04-.8.25-1.66.48-2.61.67.05-.05.1-.09.15-.14.1-.05.18-.12.24-.21.04-.07.09-.14.14-.21l.08-.12s.02-.02.05-.06c.01-.02.03-.03.02-.03,0,0,0,0,0,0Z"/>
  <path class="uuid-e1762001-7aed-4624-9d6d-68a5ed88ae0a" d="m148.61,196.77c-10.83,2.85-21.51,9-30.89,17.77l-.23.21.54.58.23-.21c9.2-8.38,19.77-14.46,30.56-17.58l.29-.08-.21-.76-.3.08Z"/>
  <path class="uuid-e1762001-7aed-4624-9d6d-68a5ed88ae0a" d="m126.99,39.7c.24-.25.19-.54.01-.71-.24-.23-.77-.19-1.01.06-7.97,8.39-14.92,17.78-20.63,27.91-5.69,10.08-10.15,20.82-13.25,31.92-1.76,6.3-3.09,12.81-3.96,19.33-.02.18.05.35.19.46.1.08.23.12.38.12.11,0,.24-.02.35-.07.23-.09.37-.26.39-.46,1.49-11.29,4.38-22.41,8.58-33.08,4.24-10.76,9.79-20.99,16.49-30.39,3.77-5.29,7.96-10.38,12.45-15.1Z"/>
  <path class="uuid-e1762001-7aed-4624-9d6d-68a5ed88ae0a" d="m101.45,111.15h0s.06,0,.09,0c.32,0,.69-.19.74-.54,2.52-18.38,9.01-36.48,18.76-52.33,2.78-4.53,5.89-8.95,9.23-13.16.13-.16.14-.31.13-.4-.01-.13-.08-.25-.18-.33-.13-.1-.33-.15-.52-.13-.2.02-.37.11-.47.25-11.66,14.66-20.33,31.99-25.1,50.13-1.36,5.18-2.43,10.54-3.17,15.92-.04.3.16.55.48.59Z"/>
  <path class="uuid-e1762001-7aed-4624-9d6d-68a5ed88ae0a" d="m277.96,69.87h.06c.32,0,.91-.26,1.11-.53.15-.21.09-.41.05-.48-.08-.17-.25-.27-.5-.3-17.72-1.61-35.12-7.41-50.32-16.75-3.17-1.95-6.3-4.09-9.29-6.36l-.25-.33c-.17-.22-.41-.37-.7-.42l-.05-.04c-.66-.51-1.34-1.03-2-1.57-.4-.33-1.25-.06-1.53.29-.09.11-.14.25-.12.38.01.13.08.25.18.33.67.55,1.4,1.12,2.22,1.75,0,.23.09.45.23.63,12.47,16.15,26.92,28.41,42.95,36.45,2.46,1.23,5.02,2.43,7.28,3.49l.1.05c8.71,4.09,17.72,8.31,24.78,15.16,9.19,8.4,16.05,19.12,19.83,31.02,5.06,15.3,4.71,32,3.69,46.31-1.1,17-3.5,34.16-5.83,50.79-3.22,23.06-6.56,46.91-6.46,70.66v.31h.8s0-.31,0-.31c-.07-23.72,3.31-47.56,6.58-70.61,2.35-16.6,4.79-33.77,5.92-50.77,1.09-15.27,1.42-31.5-3.54-46.75-3.79-12.12-10.71-23.08-20.02-31.68-7.11-6.97-16.17-11.32-24.92-15.53l-.07-.04c-2.43-1.17-4.94-2.38-7.36-3.62-13.96-7.16-26.73-17.67-37.94-31.23,12.01,8.1,25.77,14.06,39.85,17.27,5,1.14,10.14,1.95,15.28,2.42Z"/>
</svg>