<?xml version="1.0" encoding="UTF-8"?>
<svg id="uuid-7c6b54d8-084b-42a1-b707-ff8386c4e7a8" data-name="Livello 7" xmlns="http://www.w3.org/2000/svg" viewBox="0 0 400 400">
  <defs>
    <style>
      .uuid-e5c46609-47c1-41cc-9a56-5119e782ea3f {
        fill: #232a56;
      }
    </style>
  </defs>
  <path class="uuid-e5c46609-47c1-41cc-9a56-5119e782ea3f" d="m189.83,167.5c4.03,1.69,8.38,2.74,12.74,3.59,1.85.36,3.79-.12,5.55.73,5.07,2.48,10.53,3.59,16.03,4.44,2.69.42,5.55.6,7.95-1.31.43-.34.52-.76.35-1.26.01-.3.03-.6.04-.9.2-.68-.03-1.25-.63-1.52-2.17-.99-4-2.65-6.47-3.08-2.44-.43-4.87-1.12-7.03-2.36-4.18-2.39-8.57-4.05-13.42-4.17-2.9-.07-5.71-1.46-8.66-.57-1.5.27-3.08-.29-4.55.4-.74-.04-1.49-.08-2.23-.12h0c-3.58-1.39-7.03.45-10.56.43-4.32-.01-8.46,1.06-12.63,1.99-2.97.66-6.03.98-8.82,2.3,2.88.25,5.63-.18,8.32-1.06,3.55,0,7.1.11,10.65-.03,4.67-.18,9,.66,13.38,2.5Zm4.17-3.79c.92.03,1.84.12,2.75.22-.91-.11-1.83-.19-2.75-.22-.9.1-1.84.2-2.76.22.92-.02,1.86-.12,2.76-.22Z"/>
  <path class="uuid-e5c46609-47c1-41cc-9a56-5119e782ea3f" d="m189.02,10.46c3.19-.12,6.42-.41,9.25-1.9,5.77-3.02,11.63-3.54,17.99-2.16,6.19,1.35,12.55,1.9,18.28,4.98,2.33,1.25,4.89,1.95,7.38,2.83,7.44,2.64,15.54,2.16,22.9,5.05.19-.52.3-.92.36-1.25-.06.33-.18.73-.36,1.25.63.26,1.26.53,1.89.79,1.31.88,2.63,1.73,3.92,2.65,3.62,2.57,7.58,4.69,10.77,7.82,4.36,4.28,8.9,8.35,13.59,12.25,1.38,2.39,3.66,3.87,5.67,5.61.17.41.26.89.53,1.22,3.54,4.16,6.58,8.66,9.56,13.22,1.24,2.23,2.27,4.63,3.77,6.67,3.21,4.34,5.72,8.9,6.81,14.29.51,2.54,1.89,4.9,4.33,6.4,1.43.88,1.9.35,2.06-1.01.05-.44.02-.91-.04-1.35-.84-6.38-3.66-12.07-6.19-17.86-.17-.39-.54-.73-.88-1.02-1.88-1.59-3.13-3.64-4.17-5.83-.62-1.29-1.12-2.66-2.39-3.5l.03-.12s-.12.03-.12.03c-.11-.14-.23-.28-.34-.42-1.51-2.81-3.64-5.17-5.62-7.63-.58-1.33-1.46-2.42-2.66-3.24-.6-.45-1.2-.9-1.8-1.35-.36-.87-.88-1.56-1.86-1.77-1.4-1.7-2.94-3.24-4.51-4.79-3.04-2.97-6.13-5.91-9.12-8.93-3.83-3.86-7.95-7.37-13.01-9.58-.43-.52-.77-1.19-1.32-1.54-5.04-3.3-10.02-6.61-16.38-7.05-4.2-.29-8.37-1.16-12.35-2.7-3.46-1.34-6.93-2.68-10.39-4.03-1.28-.64-2.72-1.05-4.05-1.57-1.17-.45-2.46-1.21-3.73-1.24-1-.02-1.99.15-2.99.02-.98-.13-1.94-.42-2.88-.7-1.9-.57-3.87-1.24-5.88-.97-2.4.31-4.8-.03-7.18.35-1.64.26-3.06.9-4.61,1.38-1.34.41-2.61,1.02-3.88,1.6-2.49,1.14-5.06,2.27-7.86,2.18-1.2-.04-2.09,1.46-3.43,1.62,0,.29,0,.58,0,.87.31.14.62.27.93.41Zm108.92,32.88c-.64-.62-1.37-1.04-2.46-.73,1.09-.3,1.82.12,2.46.73ZM218.56,2.82c-.21-.04-.41-.08-.62-.12-.18-.06-.36-.11-.54-.16.39.09.77.18,1.16.28Z"/>
  <path class="uuid-e5c46609-47c1-41cc-9a56-5119e782ea3f" d="m82.65,90.45c.83.6,1.59.19,2.32-.2.88-.47,1.25-1.29,1.36-2.23.22-1.89.87-3.66,1.53-5.43,1.39-3.72,2.95-7.43,3.03-11.45.05-2.72.69-5.25,2-7.51,2.08-3.58,4.39-7.04,6.72-10.47,1.82-2.69,3.94-5.08,6.57-7.1,4.6-3.55,9.58-6.55,14.16-10.11,4.54-2.68,9.65-4.33,13.9-7.51,2.03-1.52,4.17-2.66,6.64-3.19,2.27.02,4.61.1,6.55-1.26,5.47-3.83,11.21-6.97,17.77-8.6,1.37-.34,3.55-.65,3.64-2.99-.41-.27-.89-.4-1.37-.54.47.14.95.27,1.37.54.34-1.18.23-2.4.07-3.57-.17-1.27-.74-2.26-2.22-1.08-1.99,1.06-3.98,2.11-6.02,3.07-1.84.86-3.95,1.64-4.86,3.8-1.85.87-3.5,2.02-4.97,3.46-1.34,1.31-2.84,2.46-4.22,3.73-1.89,1.73-4.39,1.74-6.63,2.45-1.27-.26-2.14.58-3.06,1.18-3.96,2.6-7.97,5.11-12.35,6.98-1.73.74-3.47,1.45-4.79,2.86-6.73,4.24-13.5,8.4-19.43,13.8-7.35,6.68-12.53,14.53-14.26,24.45-.63,2.35-1.26,4.69-1.89,7.04.47-.5.86-1.03,1.15-1.58-.3.55-.68,1.08-1.15,1.58-.28,2.73-1.59,5.17-2.14,7.83-.16.77-.11,1.52.61,2.04Z"/>
  <path class="uuid-e5c46609-47c1-41cc-9a56-5119e782ea3f" d="m221.69,328.65c.16.02.33.03.49.05,2.41.02,4.81.03,7.22.05.17,0,.34.01.51.02,5.39.14,10.7,1.3,16.1,1.29q4.48,1.61,6.64-1.4c.42-.18.83-.35,1.25-.53,2.56-.12,2.58-2.88,4.17-4.01.38-.02.72-.11.94-.46,0,0,0,0,0,0h0c3.31-1.39,5.78-4.03,8.75-5.94-.46-.14-.93-.27-1.39-.41-1.84,1.37-3.71,2.71-5.51,4.12-.85.66-1.68,1.22-2.82.99-.05-.15-.16-.22-.31-.23-.2-.13-.39-.25-.59-.38-2.57-.91-5.09-.43-7.6.26-1.7.29-3.38.41-5.12.17-4.38-.62-8.79-.77-13.22-.55-2.09.1-4.21.17-6.26-.45-.39,1.37-1.76,2.03-2.35,3.25,0,0,0,0,0,0-.75.82-1.63,1.47-2.65,1.91-1.32,2.23.91,1.7,1.75,2.25Zm37.31-4.99h0c-.05-.12-.13-.22-.23-.31.1.09.18.19.23.31Z"/>
  <path class="uuid-e5c46609-47c1-41cc-9a56-5119e782ea3f" d="m199.92,196.84c.13.03.27.07.4.1.31.12.62.25.94.37.13-.07.27-.13.42-.17.21.3.42.59.62.89,0,0,.06.06.06.06.24.18.48.36.72.54,2.49.24,4.92.26,6.79-1.82,1.22.05,2.06-.77,3.04-1.3,1.26-.68,1.85-2.23,3.37-2.53,1.04.43,2.08.87,3.12,1.3.19.05.37.11.56.16,0,0,.07,0,.07,0,.56.05,1.13.11,1.69.16,1.18-.53,1.58-1.58,1.79-2.75-2.07.05-3.7-.47-4.64-2.63-.91-2.11-3.08-2-4.98-2.22-1.45.45-2.9.9-4.4.18-1.1-.02-2.2-.03-3.29-.05-.89.07-1.78.13-2.66.2-1.81-.09-3.66.12-5.42-.51-.64-.98-1.19.16-1.79.08-.03.13-.05.27-.06.4-.62.05-1.25.09-1.87.14-.28.02-.56.04-.85.06-.28.27-.59.29-.93.19.34.1.66.07.93-.19-.38-.19-.71-.12-1,.17-1.02-.09-2.04-.18-3.06-.27-.57.82-1.01,1.25-1.46,1.29.45-.04.88-.47,1.46-1.29-1.07-.26-2.15-.23-3.23-.08-1.5.04-3.01.09-4.51.13-.2.06-.4.12-.6.19-2.13.32-4.44-.25-6.31,1.34-.64.88-2.5,1.15-2.08,2.34.36,1.02,2.03.47,3.1.68.5.1,1.09.11,1.57-.05,4.56-1.47,9.22-.2,13.82-.56.98-.08,1.63.23,2.25,1.07,1.61,2.18,3.74,3.71,6.42,4.37Zm9.95-2.27c.08-.14.09-.29.05-.44h0c.5-.52.52-1.16.47-1.82.14-.45.28-.9.42-1.35-.3-.36-.65-.63-1.04-.84.38.21.74.48,1.04.84,2.47-.94,3.07-.68,4.27,1.8-1.12.44-1.98,1.23-2.87,2.02-.72.64-1.73,1.58-2.34-.21-.58.28-.79.56-.79.85,0-.28.21-.56.79-.85Zm-1.1-1.83c-.35.29-.59.73-.71,1.33-1.12.44-2.11,1.21-3.23,1.67,1.12-.45,2.11-1.23,3.23-1.67.12-.6.36-1.04.71-1.33Zm-5.19-2.61c.59-.05,1.19-.09,1.78-.14,0-.17.03-.37.07-.58-.04.2-.06.4-.07.58.14.06.28.08.42.06h0c.45.32.9.65,1.35.97-.53,1.74-1.9,2.08-3.31,1.53-1.15-.45-.91-1.53-.25-2.42Z"/>
  <path class="uuid-e5c46609-47c1-41cc-9a56-5119e782ea3f" d="m288.55,181.73c0-.4-.02-.79-.02-1.19,2.38-.07,4.59-.83,6.81-1.6-2.21.77-4.43,1.53-6.81,1.6,0,.4.02.79.02,1.19Z"/>
  <path class="uuid-e5c46609-47c1-41cc-9a56-5119e782ea3f" d="m337.49,151.43c.81,4.32-1.16,8.14-2.27,12.09-1.16,4.08-2.07,8.19-2.72,12.37-.29,1.9-.83,3.7-2.3,5.07-1.07,1-1.75,2.26-2.3,3.59-.45,3.11-1.43,6.07-2.34,9.06-.09.31-.15.62-.23.93-.38.89-.73,1.78-1.07,2.68-.26-.05-.52-.1-.77-.16.26.06.47.12.52.15.34.19.28.46.17.78-.15.46-.32.91-.48,1.37-.31.92-.63,1.84-.94,2.76-.63,1.85-1.23,3.7-1.8,5.57-1.13,3.71-2.12,7.47-2.79,11.29-.66,3.79-1,7.65-.85,11.51.16,4.32.94,8.66.37,12.95-.82,6.25-4.39,11.72-7.28,17.31-5.83,11.27-9.09,23.66-13.39,35.6-4.3,11.93-9.9,23.83-19.29,32.36-4.49,4.08-9.76,7.31-13.84,11.81-3.35,3.69-5.88,8.21-9.96,11.07-.84-4.19.59-8.76,3.66-11.73-1.87,2.53-2.58,5.87-1.92,8.94,3.99-9.66,14.27-14.83,21.86-22.02,7.79-7.38,12.88-17.18,16.72-27.2,3.85-10.02,6.59-20.44,10.51-30.43,1.76-4.48,3.76-8.86,5.91-13.16,1.96-3.92,4.08-7.85,4.85-12.16.65-3.63.31-7.35.21-11.04-.34-12.26,1.95-24.59,6.69-35.91.01-.02.15,0,.34.03-.19-.04-.38-.08-.56-.12.4-1.32.79-2.64,1.2-3.96.57-1.49,1.14-2.99,1.69-4.49.27-.74.87-1.62.22-2.32-.74-.8-1.69-.08-2.54.07-.51.09-1,.25-1.51.38-.18.08-.36.16-.53.24-1.08.68-2.29.44-3.28.06-3.42-1.34-6.93-1.06-10.45-.91-3.45.14-3.5.08-2.74-3.08l-.17.04-.16-.06c-1.79-.11-3.43.54-5,1.22-4.59,1.99-9.63,2.59-14.6,2.36-.1,0-.2-.01-.29-.06-.97-.59-1.44-.88-2.67-.47-2.78.94-4.87,2.78-6.94,4.7-2.33,3.04-5.22,5.62-7.18,8.98-.78,1.33-1.44,2.62-1.5,4.18-.05,1.77.11,3.58-.19,5.32-.81,4.67.42,9.03,1.72,13.4.4,1.33.39,2.66.38,4.01-.3-.17-.6-.34-.91-.51-1.96-3.24-3.36-7.33-3.63-11.1-.17-2.42.1-4.84.5-7.22.36-2.14.89-4.2,1.14-6.37.25-2.17,2.69-4.66,4.05-6.29.85-1.02,1.74-1.99,2.69-2.9.8-.77,2.31-1.58,2.89-2.49,1.77-2.77,4.85-3.55,7.53-4.95.12-2.2,1.66-3.24,3.39-4.11.73-.37,1.48-.69,2.22-1.03.75-.8,1.7-1.29,2.65-1.79.34-.85,1.17-1,1.9-1.3.47.13,1.04-.02,1.4.47.94.1,1.81-.22,2.69-.46.01-.42.03-.84.04-1.26,1.38-.08,2.76-.09,4.09.37,1.21-.17,2.42-.13,3.62.08,3.57.17,6.85,1.48,10.14,2.69.56.21,1.07.44,1.67.47-.04.86-.63,1.64-.35,2.54.87.12,1.75.24,2.63.36.5-1.42-1.22-1.81-1.36-2.94,4.3.19,7.26,1.74,6.65,5.05.08.03.13.09.15.18.32-.03.63-.06.95-.08.3-.2.59-.4.89-.59.97-1.76,2.82-3.05,2.88-5.31.06-.21.13-.42.19-.63.05-.29.1-.58.15-.88,1.24-2.03,1.29-4.34,1.56-6.6.51-3.77,1.07-7.52,3.38-10.72.45-.63.54-1.38.44-2.15-.27-.07-.43-.22-.36-.52.02-.16.03-.31.05-.46v-1.35c-.01-.15-.03-.3-.04-.45.15-4.54.31-9.09.46-13.64.02-.45.04-.91.06-1.36.03-1.07.07-2.13.1-3.2.04-.18.08-.37.13-.56-.01-.22-.01-.43-.01-.65-.26-.24-.27-.49-.02-.75-.28-2.47-.56-4.94-.84-7.41-.22-1.96-.42-4.01-1.44-5.67-3.2-5.18-3.85-11.03-4.86-16.81-.28-1.63-.81-3.22-1.17-4.84-.15-.68-.11-1.46.75-1.64.77-.17,1.01.56,1.22,1.1,1.09,2.89,2.09,5.8,2.43,8.91.31,2.87,1.26,5.53,2.8,8.05,2.39,3.88,3.28,8.34,3.38,12.77.15,7.07,1.54,14.08,1.05,21.17-.04.6-.06,1.21-.09,1.81Z"/>
  <path class="uuid-e5c46609-47c1-41cc-9a56-5119e782ea3f" d="m225.21,99.36c-1.41-.37-2.49-1.57-4.03-1.65-.28-.11-.56-.23-.84-.34-1.53-1.08-3.54-1.32-4.82-2.88-.29-.35-.99-.32-1.39.21-1.27,1-2.36,2.21-4,2.97,2.18,2.03,4.5,3.29,6.66,4.77,2,1.37,4.12,2.1,6.6,1.48,1.27-.32,2.48.06,3.7.63,2.49,1.17,5.04,2.71,7.67.13.3-.29,1-.16,1.52-.23,2.05.99,4.26.65,5.46-.91.43-.55.97-1.85-.03-1.69-2.82.47-4.47-1.3-6.41-2.61-1.13-1.27-2.23-2.58-3.4-3.81-1.43-1.5-2.91-2.01-4.27.12-.1.23-.23.39-.51.21-.16.06-.32.13-.49.19-.03.49-.05.98-.08,1.46,0,0,.08.09.08.09.13.11.26.23.39.34.12.06.2.16.23.29,1.13,1.15,1.53,2.67,2.37,4.38-.89-.33-1.41-.52-1.93-.71-.19-.11-.38-.21-.57-.32-.1-.06-.2-.12-.31-.16.12-1.2-1.19-1.23-1.62-1.97Z"/>
  <path class="uuid-e5c46609-47c1-41cc-9a56-5119e782ea3f" d="m109.76,176.05c.68-4.31-.22-8.55-1.04-12.41-.15-.71-.29-1.22-.9-1.33-.19,0-.3.14-.52.58-.1.19-.2.39-.34.56l-.12.15c-.53.68-1.14,1.45-2.28,1.53h-.15s-.12-.08-.12-.08c-.69-.5-1.43-1.51-.98-3.48.18-.77.09-1.47-.01-2.21-.04-.32-.08-.64-.1-.96v-.29c-.02-.63-.08-.67-.29-.67h-.03c-.49.03-.64.34-.67,1.39-.06,1.4-.19,2.61-.39,3.71-.49,2.79-1.56,5.69-3.35,9.11-.11.21-.21.42-.21.61,0,.17.04.25.09.27.21,0,.6-.19.91-.44,1.07-.87,1.81-2.43,2.05-4.36.03-.27.07-.57.22-.86.09-.18.37-.72.89-.72,1.15,0,1.52,2.84,1.53,2.87.06.86.01,1.71-.03,2.54l-.04.9c-.13,3.4-.34,9.09-3.88,11.78-.67.5-1.39.87-2.1,1.24-.77.4-1.56.81-2.25,1.37-1.29,1.06-2.44,2.32-3.55,3.53l-.66.72c-.55.58-1.12,1.12-1.67,1.63-1.93,1.81-3.6,3.37-3.67,6.36-.05,3.22,1.55,6.56,4.08,8.52,2.46,1.9,5.44,3.55,9.38,5.2,1.36.58,2.74,1.11,4.12,1.64l.92.35c.5.19.99.43,1.47.67.27.14.55.27.83.4.18.08.41.17.66.26-.71-.7-1.47-1.41-2.3-2.13-.31-.26-.7-.54-1.11-.83-.96-.68-2.06-1.45-2.53-2.37-.21-.4-.27-.83-.33-1.25l-.06-.39c-.27-1.79-1.27-2.9-2.66-4.28-.46-.46-1-.82-1.58-1.21-.59-.4-1.2-.8-1.73-1.33-.88-.88-2.93-3.17-2.81-5.54.06-1.12.58-2.1,1.57-2.89,1.11-.9,2.35-1.64,3.55-2.36,1.51-.9,3.07-1.83,4.33-3.07,1.13-1.09,1.83-2.39,1.97-3.65.09-.9.41-1.29,1.28-1.54,3.38-.92,4.15-4.08,4.64-7.23Z"/>
  <path class="uuid-e5c46609-47c1-41cc-9a56-5119e782ea3f" d="m118.34,215.89c.91.58,1.76-.02,2.54-.45,1.85-1.04,1.65-2.93,1.73-4.62.31-6.7-.04-13.39-.45-20.08-.13-2.06-.21-4.19-1.31-6.15-.86.77-1.18,1.68-1.49,2.6-2.02,5.97-2.01,12.12-1.6,18.3.03,1.98.07,3.96.1,5.94-.11.67-.29,1.33-.33,2.01-.05.91-.05,1.9.82,2.45Z"/>
  <path class="uuid-e5c46609-47c1-41cc-9a56-5119e782ea3f" d="m200.43,301.91c3.44.23,6.89.06,10.33.18,4.06.14,8.15.61,12.15,1.33,2.76.47,5.57.74,8.31,1.3,4.75.86,9.44,2.38,13.97,4.01,1.43.51,2.77,1.12,4.29,1.24,1.46.12,2.91-.1,4.3-.53.93-.29,1.84-.66,2.73-1.07.41-.19,2.05-1.3,2.43-1.18,2.85.87,5.73,1.67,8.74,1.6.58.15,1.15.35,1.73.4,1.36.13,4.31.56,4.49-1.46.09-.98-.17-2.2-.79-2.99-.1-.12-.2-.24-.32-.36-.57-.59-1.29-1.05-1.9-1.6-1.04-.94-1.93-2.03-2.99-2.96-1.15-1.01-2.51-1.71-3.68-2.67-1.07-.88-1.96-1.97-3.15-2.72-1.17-.73-3.23-1.91-4.62-1.16-.03,0-.05,0-.08,0-.57.11-1.14.35-1.69.57-.34.12-.67.25-1,.38-1.29.36-2.51,1.07-3.61,1.86-.31.2-.61.4-.91.61,0,0-.01.02-.02.03-.26.15-.5.32-.72.52-.38.12-.8.2-.49.8.33.64.95.27,1.4.05,2.05-1,4.18-1.73,6.47-1.91,1.49.71,3.45.82,4.36,2.2,1.38,2.09,3.44,3.38,5.07,5.11.65.35,1.33.64,1.94,1.02.55.35,1.36.67,1.18,1.42-.18.8-1.15.33-1.69.62-.76-.2-1.6-.15-2.24-.73-.25-.04-.51-.07-.76-.11-.22.02-.44.04-.64.05-.29,0-.58.02-.85.02-.55,0-1.06.23-1.6.24-.79.02-.6-.87-.44-1.39.04-.12.09-.2.02-.33-.36-.64-.8-1.21-1.52-1.47-.34-.12-.7-.18-1.05-.22-.56-.06-1.13-.05-1.69-.13-.52-.07-.95-.35-1.45-.47-.42-.1-.87-.1-1.29,0-.39.09-.73.2-1.14.17-.4-.03-.79-.1-1.19-.11-3.64-.09-7.29-.16-10.91-.24-.48-.11-.94.05-1.38.24-.17.04-.34.08-.51.13-.52.14-1.04.31-1.58.37-1.12-.28-2.23-.55-3.36-.84-.18-.07-.36-.13-.56-.2-.17,0-.36,0-.54,0-.06-.01-.12-.02-.18-.02-.14-.01-.28-.02-.43-.04-.29-.02-.58-.04-.87-.06-.47-.03-.94-.05-1.41-.06-.05-.02-.09-.05-.14-.07-.29.04-.58.05-.89.07-.29-.02-.6-.04-.89-.05l-.22.05h-.22c-1.06.45-2.08-.84-3.16-.44-.78-.04-1.57.03-2.35,0,0,0-.01,0-.02-.01-.42-.05-.84-.13-1.25-.18-.35,0-.69.02-1.04.02-.87-.07-1.73-.16-2.6-.24-.01.01-.03.03-.04.04-.21-.02-.42-.02-.63,0-.1,0-.2.01-.29.02-.02-.02-.04-.03-.06-.05-.29.05-.6.09-.89.15-1.05.36-1.98.45-2.11-1.05,1.02-.33,2.04-.67,3.05-1.02,3.91-1.98,8.29-2.64,12.32-4.29,2.82-1.18,5.54-1,8.31.13,2.93,1.2,5.98,1.98,9.11,2.53,1.09.2,1.54,0,1.65-1.05-4.07-1.71-8.2-3.22-12.63-3.6-.82-.09-1.67-.02-2.4-.53-.45-.02-.89-.02-1.35-.04-.15.02-.31.04-.47.05-4.69,2.31-9.94,3.13-14.7,5.14-5.91,2.49-11.71,1.64-17.59.75-1.6-.25-2.56.93-3.02,1.84-.82,1.59,5.04,2.32,5.87,2.38Zm68.71-.55c.06.07.12.14.18.2-.07-.07-.14-.15-.22-.22,0-.01-.02-.02-.02-.03-.03-.04-.06-.08-.08-.12.05.06.1.11.15.17Z"/>
  <path class="uuid-e5c46609-47c1-41cc-9a56-5119e782ea3f" d="m92.71,157.28c-.09-.12-.18-.23-.27-.33-1.55-1.8-3.75-2.17-6.04-1.99-.56.04-4.35.41-2.58,1.47.38.23.83.29,1.27.35,1.57.22,3.12.56,4.65.95-.01,0,3.87.76,2.97-.44Z"/>
  <path class="uuid-e5c46609-47c1-41cc-9a56-5119e782ea3f" d="m110.99,234.06c-.33.78-.33,1.65-.4,2.49-.09,1.16-.29,2.31-.58,3.44-.05.24-.13.47-.31.6-.2.13-.44.11-.65.07-4.62-.58-8.98-2.76-12.43-5.87-3.11-2.8-5.56-6.34-7.23-10.18-1.69-3.91-2.85-8.02-5.58-11.38-2.6-3.22-5.73-6-7.96-9.49-3.05-4.74-5.47-9.91-6.43-15.5-.93-5.54-.62-11.31-.13-16.81.36-3.89,1.56-7.03,3.65-9.51-2.27,2.51-3.85,5.54-4.73,8.82-.96,3.71-.76,7.69-.93,11.51-.13,2.8-.47,5.54-.04,8.31.84,5.47,3.29,10.61,5.87,15.45,1.87,3.53,4.51,5.89,7.05,8.87,1.84,2.14,3.22,4.62,4.45,7.13,1.82,3.67,3.34,7.52,5.63,10.91,3.13,4.6,7.65,8.22,12.81,10.25,1.36.55,2.84.96,4.27.93.62-.02,1.2-.11,1.78-.31,2.02-.71,3.44-2.67,3.96-4.74.51-2.09.27-4.29-.18-6.38-.84-.04-1.58.65-1.91,1.42Z"/>
  <path class="uuid-e5c46609-47c1-41cc-9a56-5119e782ea3f" d="m73.48,189.68c.08.83.16,1.67.24,2.5,1.22,1.38,1.35,3.24,2.16,4.8,1.43-.59,1.14-1.74.98-2.88-.3-2.09-1.43-3.99-1.38-6.17.16-6.17.19-12.33,1.71-18.38,1.09-4.31,4.2-6.58,8.63-6,.82.11,1.63.3,2.44.48.63.14,1.18.08,1.64-.46.56-.66.3-1.28-.05-1.88-.55-.96-1.27-1.49-2.48-1.67-4.41-.67-7.45,1.55-9.76,4.79-3.12,4.37-3.57,9.61-4.03,14.78-.05.05-.14.1-.14.14.01.12.07.24.1.36-.06.54-.12,1.09-.18,1.63-.04.21-.07.42-.11.63.04,2.25.07,4.5.11,6.75.04.2.08.39.12.59Z"/>
  <path class="uuid-e5c46609-47c1-41cc-9a56-5119e782ea3f" d="m237.16,258.7c-1.36,1.12-3.05.89-4.62,1.16-.06.44-.41.55-.77.65-.16.16-.31.32-.47.48-.25,1.02.59,1.46,1.21,1.64,3.77,1.05,7.3,2.75,10.95,4.07,3.43,1.24,5.18-.63,4.64-4.21-.26-1.74-3.33-4.24-5.34-4.31-1.89-.06-3.77,0-5.6.51Z"/>
  <path class="uuid-e5c46609-47c1-41cc-9a56-5119e782ea3f" d="m329.91,131.65c-2.32-2.32-4.11-5.14-6.83-7.07-1.2-2.34-3.32-2.37-5.52-2.21-.16.44-.33.88-.49,1.31-.14.15-.28.3-.43.44-1.24,1.14-1.62.06-1.98-.82-.78-1.92-.74-3.98-.89-6,.25-1.3-.78-2.35-.74-3.61-.74.01-1.49.02-2.23.04-.1.33-.39.69-.62.71.23-.02.52-.39.62-.71.74-.01,1.49-.02,2.23-.04q-.18-4.72-4.08-4.49c-.63.01-1.25.03-1.88.04-1.81,0-3.61,0-5.42.01-4.16-1.17-6.41-.6-7.87,2.01-.46.25-.99.42-1.36.76-.51.48-1.56.85-1.23,1.67.33.82,1.35.48,2.05.36,2.95-.48,5.91-.46,8.89-.39,5.24.11,5.23.02,3.37,5.05-.44,1.2-.43,2.13,1.31,1.85.73-.12,1.52.05,2.13-.53.63.38.82.95.92,1.67.58,4.1,3.04,5.58,6.83,4.16,3.11,1.46,4.65,4.75,7.33,6.54,2.08,1.38,2.43,2.84,2.18,4.91-.04.05-.11.1-.11.14.02.11.08.21.12.32.02.3.04.6.06.9-.24,2.59-.7,5.19.19,7.75h0c-.11,1.16-.22,2.33-.33,3.49-.94.74-1.2,1.87-1.69,2.88-1.75,3.59-1.23,7.51-1.78,11.27.23.19.24.4.02.6.66,2.83-.29,5.8.78,8.6.56,2.31,1.78,1.94,3.2.8.76-1.6.13-3.36.6-5-.01-2.09-.03-4.18-.04-6.27.01-.17.03-.34.04-.51.07-.44.13-.89.2-1.33-.03-.12-.07-.24-.07-.37,0-.05.07-.1.11-.16.11-2.78.51-5.55,1.48-8.14,1.06-2.84.94-5.69.77-8.58.16-2.2-.31-4.32-.78-6.45.4-.96.84-1.91,1.17-2.9.3-.91.63-1.87-.22-2.72Z"/>
  <path class="uuid-e5c46609-47c1-41cc-9a56-5119e782ea3f" d="m245.42,112.91c-.68,1.01-.67,1.71.8,1.69,2.33-.03,3.79-1.32,4.62-3.38,2.03-5.03,3.99-10.07,6.02-15.1.39-.96.41-1.91.1-2.78-3.37,2.89-5.85,6.64-7.46,10.99-1.08.36-1.43-.3-1.41-1.15.1-3.17-.63-6.31-.27-9.49.3-2.63.24-5.27-.55-8.14-1.78,1.97-.89,4.01-1.07,5.87.1.43-.06.74-.45.93,0,.46.02.91.03,1.37.84,1.96.86,3.93.04,5.91-.06,1.51-.12,3.01-.18,4.52.2.81.46,1.63-.14,2.4,0,.54,0,1.07,0,1.61.39.6.73,1.23.62,1.99,0,0,.12.02.12.02l.06-.1c-.17.77.14,1.64-.51,2.3-.12.19-.25.37-.37.56Z"/>
  <path class="uuid-e5c46609-47c1-41cc-9a56-5119e782ea3f" d="m150.33,135.53c-.37-1.69-1.51-2.24-3.09-2.01-1.09.16-2.15.45-3.23.69-.78,1.17-1.64,2.22-3.23,2.22-.5.46-.35.75-.09,1.01.02.02.04.04.06.06-.02-.02-.04-.04-.06-.06-.26-.26-.41-.54.09-1.01.06-.11.1-.23.13-.36.13-.18.26-.36.39-.54.71-.8,1.41-1.6,2.12-2.41.62-.85,1.22-1.72,1.88-2.53,1.47-1.82,2.77-3.75,3.81-5.85.31-.62.66-1.36.1-1.88-.59-.55-1.05.21-1.53.51-4.3,2.65-7.77,6.15-10.59,10.31-1.29,1.24-3.14,2.34-1.02,4.41.16.16-.06.71-.1,1.08-.37.64-.94,1.35-.18,2,.64.56,1.42.24,2.12-.07,1.41-.63,2.48-1.65,3.38-2.87,1.05-.7,2.03-1.55,3.17-2.06,2.1-.94,3.54-.06,3.67,2.08-1.08,1.05-2.08,2.2-3.25,3.13-3.08,2.42-5.99,4.92-7,8.95-.17.68-.82,1.28-.16,2.02.65.73,1.3.24,2.01.08,2.59-.58,3.56-3.15,5.56-4.42,1.81-1.16,3.51-2.33,2.86-4.94-.08-.32.29-.82.55-1.16,1.44-1.9,2-4.01,1.65-6.36Z"/>
  <path class="uuid-e5c46609-47c1-41cc-9a56-5119e782ea3f" d="m295.08,302.28s.03-.06.04-.09c0-.03.02-.07.02-.09.01-.03.02-.06.04-.09-.1.22-.2.44-.3.65.07-.13.14-.25.2-.38Z"/>
  <path class="uuid-e5c46609-47c1-41cc-9a56-5119e782ea3f" d="m295.9,300.3c.03-.12.06-.24.09-.36-.04.14-.07.28-.11.41,0-.02.01-.03.02-.05Z"/>
  <path class="uuid-e5c46609-47c1-41cc-9a56-5119e782ea3f" d="m296.15,299.34c-.04.17-.08.34-.13.5.06-.23.12-.46.19-.69-.01.03-.03.07-.04.1,0,.03-.01.06-.02.08Z"/>
  <path class="uuid-e5c46609-47c1-41cc-9a56-5119e782ea3f" d="m277.67,255.54c.98-1.25.55-2.12.23-3.06-1.96-5.72-4.4-11.23-7.07-16.65-.67-1.36-1.25-2.72-.9-4.33.25-1.2-.33-1.97-1.61-2.24.15.03-.25,4.85-.25,5.32,0,1.75.34,3.37.82,5.04,1,3.51,2.49,7.24,4.83,10.06.51.62,4.56,5.07,3.95,5.85Z"/>
  <path class="uuid-e5c46609-47c1-41cc-9a56-5119e782ea3f" d="m126.15,170.2c-.7,1.43.18,3.01-.57,4.38-.34.62-.26,1.3.36,1.54.71.27.98-.41,1.18-.99.15-.43.31-.85.46-1.27,1.88-5.17,2.56-10.98,7.77-14.34.6-2.07,2.85-2.41,4.23-3.76-1.05-.83-1.94-1.52-3.2-1.04-.64.71-1.27,1.42-1.91,2.14-4.16,3.87-8.53,7.53-11.87,12.21.2.19.39.38.59.57.64-.16,1.27-.39,1.93-.46.66-.06,1.39.26,1.03,1.01Z"/>
  <path class="uuid-e5c46609-47c1-41cc-9a56-5119e782ea3f" d="m75.87,134.28c-.06,2.26-.11,4.52-.17,6.78.24.23.31.76.57.96-.26-.2-.33-.73-.57-.96-.84.41-.54.97-.14,1.46.55.67.6,1.35.24,2.09.29,0,.58,0,.87,0-.39-.98.66-1.76.38-2.73.33-4.25,1.01-8.51-1.12-12.57-1.48-2.8-.13-5.53,1.36-7.61,1.08-1.51,2.09-2.73,2.07-4.62,0-.27.17-.64.38-.8,1.53-1.11,1.63-2.78,1.79-4.42.56-2.47,1.73-4.74,3.25-6.65,1.6-2.01,1.38-3.9.5-5.84-.31-.7-.04-1.42-.65-2.34-1.08,3.13-3.71,4.54-5.88,6.41-.32.28-.49.72-.73,1.09-.34,1.22-.69,2.44-.6,3.73.19,2.38.91,4.75.21,7.16-.86,2.97-1.49,6.01-2.73,8.86-.83,1.9-1.06,3.84.02,5.65.83,1.39,1,2.82.96,4.34Zm3.2-26.43h0c-.34-.04-.67-.03-.99.06.31-.09.64-.1.99-.06Z"/>
  <path class="uuid-e5c46609-47c1-41cc-9a56-5119e782ea3f" d="m204.95,358.51c-1.03-.33-2.01-.82-2.91-1.43-2-1.69-4.44-2.75-6.75-3.96-1.32-.69-2.63-1.42-3.77-2.38-1.06-.9-1.85-2.36-3.07-3.03-1.29-.7-2.03-.08-3.39-.08-1.32,0-2.43-1-3.19-2.08-5.3-7.45-12.33-12.64-19.64-18.01-4.79-3.52-10.01-6.37-15.27-9.12-2.42-1.27-4.2-1.98-5.97-4.04-1.37-1.59-2.92-3.02-4.61-4.26-1.12-1.34-2.2-2.71-3.22-4.13.33-.42.29-1.02.23-1.56-1.21-10.93-.93-22.02.83-32.87-2.77,2.67-2.94,6.98-2.93,10.83.03,7.66.06,15.32.08,22.99,0-.73-2.07-2.45-2.51-2.93-1.26-1.35-2.52-2.7-3.78-4.05-.22-.24-.45-.5-.47-.82-.03-.48.39-.84.7-1.21,1.08-1.27.95-3.14.84-4.81-.81-12.28,2.9-24.37,6.8-36.04-.77-.12-1.26.79-1.5,1.53-2.41,7.43-4.81,14.85-7.22,22.28-.94-.15-1.24-1.34-1.27-2.29-.2-5.89,2.14-11.56,2.84-17.42.05-.43.09-.88-.09-1.28-.18-.39-.65-.69-1.05-.52-.4.17-.52.67-.58,1.1-.89,5.97-1.79,11.94-2.68,17.9-.2,1.33-.08,3.16,1.24,3.42.61.12,1.33-.18,1.82.2.41.31.44.9.43,1.41-.07,4.16-.19,8.32-.35,12.48-.02.61-.33,1.45-.92,1.29-.26-.07-.42-.33-.55-.57-2.42-4.37-5.05-8.79-6.08-13.74-.79-3.8-.4-7.75-.52-11.61-.14-4.32-.46-8.64-.95-12.93-.25-2.19-.58-4.44-1.75-6.3.96,9.75-.37,19.68,1.32,29.34.99,5.64,3.04,11.09,5.97,16.01,2.11,4.42,5.56,7.95,9.09,11.3,1.78,1.69,3.56,3.39,5.23,5.2.16.2.29.42.45.63.63.78,1.34,1.5,2.08,2.19.93,1.02,1.94,1.95,3.15,2.67.19.26.44.49.72.67,4.67,3.2,9.72,5.86,14.41,9.05,4.91,3.34,9.66,6.92,14.18,10.77,8.15,6.96,16.37,14.87,26.12,19.55,4.01,1.93,8.97,3.58,13.46,2.83.75-.12,1.55-.33,1.8-1.08-.04-.02-.09-.04-.14-.06-1.78-.81-4.36-.93-6.65-1.07Z"/>
  <path class="uuid-e5c46609-47c1-41cc-9a56-5119e782ea3f" d="m240.18,184.95c1.22-.34,1.03-1.5,1.02-2.8-.29-2.79-.91-5.79-2.98-8.29-.56-.68-1.25-1.12-2.17-.67-.65.31-1.2.74-.94,1.57.93,2.93,1.36,6.05,3.07,8.69.47.72.87,1.82,1.99,1.5Z"/>
  <path class="uuid-e5c46609-47c1-41cc-9a56-5119e782ea3f" d="m265.49,97.2c.76-.21.98-.88,1.19-1.49.03-.46-.16-.77-.52-.95-.67-.33-1.22.05-1.65.43-3.18,2.8-6.29,5.67-7.38,10.01-.23.9-1.05,2.05.28,2.55,1.02.38,1.85-.61,2.31-1.45,1.05-1.92,2.07-3.87,2.88-5.9.59-1.48,1.24-2.74,2.89-3.19Z"/>
  <path class="uuid-e5c46609-47c1-41cc-9a56-5119e782ea3f" d="m258.84,278.75c.76-.5.99.37,1.3.81,1.15,1.64,2.57,3.08,3.34,5.03.33.84.82,2.46,2.54,1.76-1.13-2.34-2.25-4.68-3.38-7.02-.38-.79-.66-1.72-1.84-1.63-.3.02-.6.04-.9.06-2.44.42-3.41,1.5-1.79,3.84.28.41.25,1.02.47,1.49,1.2,2.54,1.9,5.35,3.98,7.41.44,1.04.84,2.1,1.34,3.11.23.46.73.96,1.27.68.67-.34.24-.97-.02-1.36-.67-1-1.42-1.94-2.14-2.91-.05-.33-.11-.66-.16-.99-.36-1.65-.81-3.24-1.5-4.83-.63-1.44-1.58-2.51-2.51-3.67-.44-.55-.71-1.32,0-1.78Z"/>
  <path class="uuid-e5c46609-47c1-41cc-9a56-5119e782ea3f" d="m198.46,305.55c7.04,3.37,12.53,8.56,19.56,11.29-.96-3.28-14.97-11.65-19.56-11.29Z"/>
  <path class="uuid-e5c46609-47c1-41cc-9a56-5119e782ea3f" d="m265.77,105.95c1.71.07,3.4-.06,5.03-.62.74-.24,1.48-.49,2.22-.73,3.5-1.69,6.86-3.67,10.59-4.84.26-.08.65-.23.5-.6-.09-.23-.4-.49-.64-.51-.51-.04-1.15-.12-1.54.13-3.02,1.93-6.77,1.95-9.8,3.82-1.5-.58-2.9-.85-3.59,1.14-.66.01-1.32.02-1.98.04-.58-1.15-.44-2.27.01-3.43.16-.4.63-1.11-.06-1.35-.71-.24-1.01.47-1.14,1.06-.3,1.38-.54,2.77-.8,4.15-.4,1.13.03,1.69,1.21,1.74Z"/>
  <path class="uuid-e5c46609-47c1-41cc-9a56-5119e782ea3f" d="m145.35,116.85c.43-.09.89-.12,1.29-.29.52-.22,1.67.01,1.27-1-.3-.74-1.21-1.15-2.08-.56-.36.24-.6.64-.9.96-.13.06-.28.11-.4.19-3.74,2.78-6.79,6.17-9.02,10.26-.5.93-2.45,1.79-1.5,2.55.98.79,2.09-.94,2.87-1.85,2.88-3.38,5.66-6.84,8.48-10.27Z"/>
  <path class="uuid-e5c46609-47c1-41cc-9a56-5119e782ea3f" d="m174.25,12.57c.49.21.84-.29,1.05-.65,1.01-1.81,2.63-1.96,4.45-1.85,2.76.17,5.52.58,8.3.37.32,0,.65.01.97.02-.31-.14-.62-.27-.93-.4,0-.29,0-.58,0-.87-3.13-.58-6.26-1.2-9.4-1.71-.61-.1-1.3.24-1.95.38-1.54.63-2.69,1.61-2.97,3.35-.09.55-.05,1.14.5,1.37Z"/>
  <path class="uuid-e5c46609-47c1-41cc-9a56-5119e782ea3f" d="m259.32,269.02c-.5.63.17.58.53.6.76.05,1.54.04,2.12-.52,2.04-1.97,4.56-3.45,6.06-5.96.14-.88.28-1.76.42-2.63-.44.05-.96-.04-1.29.17-3.33,2.11-5.46,5.35-7.85,8.35Z"/>
  <path class="uuid-e5c46609-47c1-41cc-9a56-5119e782ea3f" d="m270.8,110.71c3.04.72,6.05-.13,9.07-.26,2.25.22,4.24-.87,6.36-1.29,5-1,9.98-2.13,14.97-3.2,1.39.16,2.73-.12,4.09-.35.63.16,1.25.35,1.89.48.74.15,1.68.77,2.05-.39.3-.97-.12-1.74-1.24-1.93-.46-.02-.97.12-1.3-.37-.29-.11-.57-.22-.86-.34-.17.26-.34.51-.52.77-.3.01-.6.02-.91.03-.65.45-1.37.3-2.08.3.71,0,1.43.15,2.08-.3-1.37-.04-2.74-.08-4.12-.11.02.14.03.27.02.41.44.02.87.05,1.31.07.12.49.03.92-.18,1.32.2-.41.3-.84.18-1.32-.44-.02-.87-.05-1.31-.07,0-.14,0-.27-.02-.41-1.24.03-2.57-.23-3.32,1.17-2.95.64-6.12.23-8.86,1.86h0c-.23-1.46-1.45-1.18-2.41-1.36-2.46,1.02-5.02.02-7.51.4-.21.48-.43.97-.64,1.45,0,0,0,0,0,0-2.1.24-4.17.86-6.32.5-.34.15-.78.21-.99.46-.49.6-1.68.85-1.42,1.76.22.78,1.3.55,1.99.71Zm30.64-5.14c-.03.06-.07.13-.11.19.04-.06.07-.13.11-.19Zm-20.66,1.79h.9c-.3,0-.6,0-.9,0,0,.15-.03.27-.07.38.04-.11.06-.24.07-.38Zm-2.92.44c-.09-.15-.18-.31-.27-.46.09.15.18.31.27.46Z"/>
  <path class="uuid-e5c46609-47c1-41cc-9a56-5119e782ea3f" d="m138.69,292.57c-.96,2.63-.88,5.42-.12,8.2.77,2.81,1.21,5.73,2.78,8.27.22,1.48.22,3.02,1.22,4.31.36-1.7-.41-3.22-.76-4.8-1.24-5.34-1.23-10.92-3.13-15.98Z"/>
  <path class="uuid-e5c46609-47c1-41cc-9a56-5119e782ea3f" d="m296.26,217.35c-.57.02-1.04.43-.87,1.07.19.72.79.44,1.31.41,5.12-.25,9.63-2.34,14.06-4.65.63-.33,1.45-.56,1.47-1.58-.21-.05-.47-.21-.61-.14-4.86,2.45-9.8,4.65-15.37,4.89Z"/>
  <path class="uuid-e5c46609-47c1-41cc-9a56-5119e782ea3f" d="m215.84,356.88c-.02.31-.06.62-.02.93,0,.07.03.15.05.22.44,1.31,2.06,1.77,3.32,1.57.71-.11,1.15-.59,1.05-1.32-.19-1.36-1.1-2.58-1.8-3.72-.59-.94-1.18-1.88-1.78-2.81-.22-.34-.51-1.05-.84-1.27-.4-.26-1.12-.07-1.58-.23.27,1.15.58,2.3.92,3.43.32,1.06.76,2.06.69,3.19Z"/>
  <path class="uuid-e5c46609-47c1-41cc-9a56-5119e782ea3f" d="m167.6,92.27c1.26.28,1.73,1.93,2.42,3.07.95.6,1.89,1.19,2.84,1.79.95.6,1.69.5,2.1-.65-2.09-1.38-4.46-2.45-5.41-5.06-.08-.21-.49-.3-.75-.44-2.28-1.15-5.21-1.07-6.79-3.58-.06-.1-.43,0-.65,0,0,.27,0,.54,0,.81.11.18.22.36.33.54.04.12.08.24.11.37,1.98.95,3.5,2.62,5.8,3.14Z"/>
  <path class="uuid-e5c46609-47c1-41cc-9a56-5119e782ea3f" d="m123.5,243.98c-3.45,3.08-6.29,17.66-3.95,19.4-.94-3.35.45-6.42,1-9.56.55-3.19,1.63-6.24,2.96-9.84Z"/>
  <path class="uuid-e5c46609-47c1-41cc-9a56-5119e782ea3f" d="m228.86,241.99c2.45.52,5.1.2,7.32,1.72.26.18.61.19.79-.11.26-.45.01-.84-.23-1.24-1.66-2.72-4.08-3.36-7.87-2.08-5.11,1.39-7.78,5.1-9.36,9.84-2.17,5.02-2.14,10.7.35,12.51-1.22-3.83-1.09-7.39.31-10.89,1.14-4.81,3.86-8.22,8.69-9.75Z"/>
  <path class="uuid-e5c46609-47c1-41cc-9a56-5119e782ea3f" d="m276.37,311.9c-2.03.68-4.42-.32-6.17,1.4-1.32,1.3-2.56,2.68-3.84,4.03.46.14.92.27,1.39.41,3.04-1.68,6.2-3.18,8.62-5.83Z"/>
  <path class="uuid-e5c46609-47c1-41cc-9a56-5119e782ea3f" d="m194.23,198.47c-3.1-1.3-6.18-2.66-9.31-3.88-.89-.34-2.41-1.36-2.76-.38-.42,1.21,1.26,1.91,2.35,2.22,3.23.94,6.51,1.7,9.77,2.53-.02-.17-.04-.33-.06-.5Z"/>
  <path class="uuid-e5c46609-47c1-41cc-9a56-5119e782ea3f" d="m125.56,252.13c.31-1.09.52-2.22.95-3.25,1.11-2.65,1.88-5.4,2.65-8.16.29-1.04.22-2.29-.68-2.49-.89-.2-1.03,1.13-1.04,1.92-.03,2.76-.59,5.34-1.77,7.86-.59,1.25-.66,2.76-.96,4.14.28,0,.57-.01.85-.02Z"/>
  <path class="uuid-e5c46609-47c1-41cc-9a56-5119e782ea3f" d="m115.45,192.56c1.45-.01,1.81-2.14,1.77-3.53-.12-4.21.78-8.38.47-12.59.98-.1,1.6-.7,2.22-1.41,1.41-1.62,2.31-3.52,3.28-5.39-.2-.19-.39-.38-.59-.57-.24.17-.48.34-.72.51-.09.29-.18.58-.26.87-.08.19-.16.38-.24.57-.55.88-1.07,1.79-1.65,2.64-.29.42-.69.94-1.26.65-.33-.17-.52-.67-.71-1.06-.36-.75.36-2.26-.68-2.26-.96,0-1.61,1.37-2.17,2.31-.29.49-.29,1.14-.42,1.72.27.12.48.18.67.2-.18-.02-.4-.08-.67-.2-1.01,1.01-.82,2.33-.88,3.57-.16,3.54.22,7.07.53,10.59.11,1.23-.28,3.38,1.31,3.36Z"/>
  <path class="uuid-e5c46609-47c1-41cc-9a56-5119e782ea3f" d="m236.7,284.56c1.44.18,1.69-1.04,2.16-1.92,1.23-2.31.88-4.92,1.45-7.43-.71.09-1.26.24-1.68.68-.75,2.9-.99,5.96-2.73,8.55h0c.27.05.53.09.8.13Z"/>
  <path class="uuid-e5c46609-47c1-41cc-9a56-5119e782ea3f" d="m90.91,239.58c-1.97.13-1.3,8.63-1.24,9.97.2,4.9.07,9.81-.41,14.69-2.02,20.5-10.75,39.32-20.11,57.4-2.1,4.05-4.23,8.07-6.36,12.1-.06.1-.11.21-.17.31-.14.27-.28.55-.3.85-.03.59.48,1.1,1.05,1.24,4.28,1.08,7.11-7.21,8.36-10.03,4.37-9.82,8.2-19.89,11.46-30.13,2.75-8.65,5.18-17.65,6.79-26.68,1.54-8.67,3.39-18.8,2.08-27.6-.2-1.32-.55-2.17-1.15-2.13Z"/>
  <path class="uuid-e5c46609-47c1-41cc-9a56-5119e782ea3f" d="m161.53,186.88c-.08.34-.06.78.1,1.08.33.61.92.4,1.4.21,1.44-.59,2.95-.5,4.46-.53,1.73-.03,3.47-.09,5.06-.91,0,0,.05-.12.05-.12-3.28-.16-6.57-.31-9.85-.47-.59-.03-1.08.14-1.23.74Z"/>
  <path class="uuid-e5c46609-47c1-41cc-9a56-5119e782ea3f" d="m219.89,323.58c.11-.1.21-.23.34-.28.73-.32,2.01,0,1.65-1.53-.32-1.35-1.04-1.46-2.17-.91-.6.3-1.18.06-1.61-.47-.7-.17-1.56-.75-2.05.07-.45.77.42,1.36.86,1.91.74.93,1.72,1.47,2.98,1.21Z"/>
  <path class="uuid-e5c46609-47c1-41cc-9a56-5119e782ea3f" d="m277.63,258.74c.19-1.29-.43-1.58-1.41-.97-1.11.69-.86,1.77-.51,2.83.24.72.28,1.48-.03,2.21-.15.36-.25.8.13,1.01.5.28.82-.15,1.11-.49.83-.97.5-2.15.57-3.53.02-.17.07-.62.13-1.06Z"/>
  <path class="uuid-e5c46609-47c1-41cc-9a56-5119e782ea3f" d="m235.85,275.55c-1.7,2.23-2.32,4.95-3.26,7.52-.11.31.38.34.69.26,1.09-2.82,2.98-5.28,3.77-8.23-.49-.08-.93.11-1.2.46Z"/>
  <path class="uuid-e5c46609-47c1-41cc-9a56-5119e782ea3f" d="m226.8,285.62c1.83-2.58,3.44-5.28,4.65-8.5-2.02,1.49-4.3,5.63-4.65,8.5Z"/>
  <path class="uuid-e5c46609-47c1-41cc-9a56-5119e782ea3f" d="m222.84,278.81c-1.91,2.82-2.8,5.66-4.46,8.08,2.01-.98,4.45-5.3,4.46-8.08Z"/>
  <path class="uuid-e5c46609-47c1-41cc-9a56-5119e782ea3f" d="m167.08,83.58c-.98.62-.02,1.91.14,2.9.43.45.87.9,1.3,1.35,1.59,3.01,3.91,5.16,7.15,6.33.74.27,1.41.87,1.58,1.78.42.03.85.06,1.27.09,1.52-1,3.17-1.57,5.02-1.4,0-.16,0-.32,0-.47-.11-.16-.21-.32-.32-.48-.07-.29-.13-.57-.2-.86-1.27-.71-2.95-.73-3.77-2.21.38-.34.76-.67,1.14-1.01-2.24-.34-3.67-2.46-5.95-2.73-.15.45-.3.9-.46,1.35h0c-.9-.31-1.92-.29-2.67-1.01-.62-.71-1.25-1.41-1.87-2.12-.97-.29-1.22-2.24-2.38-1.51Z"/>
  <path class="uuid-e5c46609-47c1-41cc-9a56-5119e782ea3f" d="m279.25,201.24c.59-.57,1.22-1.12,1.03-2.08-1.96.81-3.28,2.34-4.55,3.95-.32.17-.74.26-.93.53-.7.95-1.92,2.18-1.08,3.14.89,1,1.93-.49,2.87-.95,3.36-1.66,6.7-3.37,10.05-5.06.84.1,1.87.03,1.27,1.42-2.33,1.68-2.43,2.25-.66,4.48.56.7,1.23,1.32,1.85,1.98.1,1.4-.89,1.65-1.73,1.18-1.44-.82-2.8-.43-4.18-.17-.76.14-1.81.2-1.75,1.37.05.97.93,1.07,1.65,1.27,3.92,1.1,7.91,1.13,11.93.76,6.96-.63,13.15-4.03,19.87-5.51,1.35-.3,1.49-1.29,1.34-2.44-.16-1.22-1.04-1.34-1.99-1.37-.83-.02-1.68.11-2.39-.47.39-.47.78-.94,1.18-1.41.71-.7,1.07-3.92.38-4.39-.69-.47-1.32-.29-1.29.76-.87.31-1.01-.38-1.24-.92-.23-.53-.58-.94-1.2-.8-.73.17-.5.82-.52,1.31-.05,1.28-.08,2.57-.11,3.85-1.09-.13-1.89-.8-2.75-1.39-1.93-1.31-3.96-2.41-6.44-2.06-.11-.09-.23-.13-.37-.14-.96.13-1.92.39-2.81-.25-1.53.15-3.06.3-4.59.45-.89-.03-1.79-.12-2.64.26-.23-.17-.35-.05-.42.17-1.23.17-2.46.34-3.7.51-2.43,1.45-4.73,3.12-7.36,4.23-.82.94-1.47.89-2.01.05.54.84,1.19.89,2.01-.06-.07-1.03.65-1.6,1.28-2.22Zm22.17,1.64c.04-.87.5-1.3,1.33-.69,2.08,1.53,4.35,2.7,6.64,3.87.52.27,1.13.62,1.03,1.34-.08.62-.74.76-1.2.88-3.19.87-6.37,1.86-9.75,1.13-.99.47-2.02,2.18-2.98,1.02-.98-1.18.94-1.66,1.6-2.43.24-.28.54-.49.81-.74,1.25-1.22,2.44-2.47,2.52-4.38Zm-7.93-.13c1.83-.57,3.74-.24,5.6-.42,1.25-.12,1.19.49.64,1.34-1.43,2.25-3.53,2.23-5.78,1.79-.29-.3-.57-.6-.86-.9h0c.08-.15.08-.29-.03-.43.2-.44-.16-1.06.42-1.38Zm-.96-2.18c.1.39.42.69.67,1.01-.25-.32-.57-.62-.67-1.01-.95-.26-1.75-.08-2.49.28.74-.36,1.54-.54,2.49-.28Z"/>
  <path class="uuid-e5c46609-47c1-41cc-9a56-5119e782ea3f" d="m212.45,180.9c-.15-.52-.63-1.43-1.43-.89-.51.34-.39,1.26.1,1.6,1.37.95,1.79,2.76,3.31,3.53.56-.76.31-1.49-.07-2.22-.92-.4-1.6-.96-1.9-2.02Z"/>
  <path class="uuid-e5c46609-47c1-41cc-9a56-5119e782ea3f" d="m146.01,313.91c1.04-2.6.91-5.04-.4-6.41-.07,2.19-.64,4.22.4,6.41Z"/>
  <path class="uuid-e5c46609-47c1-41cc-9a56-5119e782ea3f" d="m219.83,197.2c-2.16.65-4.04,1.85-5.89,3.08-2.1,1.01-4.25,1.94-6.3,3.05-1.98,1.07-4.73.4-6.67,2.94,5.23-.57,9.39-2.3,13.11-5.15,2.13-1.16,4.38-2.12,6.19-3.8-.15-.04-.3-.08-.44-.12Z"/>
  <path class="uuid-e5c46609-47c1-41cc-9a56-5119e782ea3f" d="m212.75,288.43c1.5-1.94,3.07-3.04,3.23-5.28-1.45,1.45-3.52,2.22-3.23,5.28Z"/>
  <path class="uuid-e5c46609-47c1-41cc-9a56-5119e782ea3f" d="m317.55,122.37s.01,0,.02,0c0,0,0-.02,0-.02,0,0-.02.02-.02.02Z"/>
  <path class="uuid-e5c46609-47c1-41cc-9a56-5119e782ea3f" d="m322.33,113.72c-2.29.47-2.79,2.76-4.33,3.98-2.32,1.8-2.43,2.89-.45,4.63.11-1.33-.06-2.71.55-3.97,1.22-1.7,3.63-2.38,4.22-4.64Z"/>
  <path class="uuid-e5c46609-47c1-41cc-9a56-5119e782ea3f" d="m317.55,122.37s.02-.02.02-.02c0,0-.01-.01-.02-.02,0,.01,0,.03,0,.05Z"/>
  <path class="uuid-e5c46609-47c1-41cc-9a56-5119e782ea3f" d="m158.12,103.73c.14-.06.28-.13.42-.19.16-.09.33-.18.49-.27,2.91-.62,5.26-2.31,7.81-3.69,1.69-.92,1.92-1.62,1.6-3.11-.66-.35-.76-1.3-1.56-1.51,0,0,0,0,0,0-1.08-2.91-4.19-2.86-6.3-4.26-.6-.4-.72.49-.85.98-.67-.1-1.33-.2-2-.3h0c-.47-1.57,1.22-1.03,1.66-1.7-1.93-1.36-3.05-.23-4.04,1.3-.59.28-.83.78-.83,1.41-1.45,1.99-1.33,2.34.96,2.9.65.16,1.28.39,1.92.59.26,1.56-.22,2.58-1.9,2.97-.62.14-1.15.67-1.72,1.03-1.6.36-3.06,1.01-4.38,1.99-.28.11-.57.21-.85.32-.12.07-.23.14-.35.21-1.43,1.16-2.85,2.32-4.28,3.48-2.46,1.58-4.93,3.14-7.62,4.34-1.63.73-4.04.42-4.43,3.03-.03.19-.46.41-.74.46-.74.13-1.23.53-.82,1.21.49.82,1.04.03,1.51-.22,4.12-2.19,8.28-4.31,12.6-6.1.3-.16.6-.32.9-.48.19-.09.38-.17.57-.26,2.86-.63,5.76-1.07,8.47-2.24,1.67.21,3.06-.13,3.73-1.89Zm-1.83-3.52c1.42-.06,2.75-.47,4.2-.91-1.45.45-2.78.85-4.2.91-.47.64-1.14,1.12-1.83,1.21.69-.09,1.36-.57,1.83-1.21Z"/>
  <path class="uuid-e5c46609-47c1-41cc-9a56-5119e782ea3f" d="m255.34,352.68c-1.19.56-1.8,1.86-2.82,2.65-.1.08-.21.15-.32.22-1.38.86-2.92,1.48-4.38,2.19-1.38.67-2.65.93-4.19.89-1.96-.06-3.65.14-5.47.87-.75.3-1.5.61-2.25.91-1.48.59-2.99,1.11-4.58,1.3-2.08.25-4.17.03-6.25-.04-2.1-.07-4.19.18-6.29.06-.48-.03-1.19-.15-1.65.05-.34.15-.62.55-.91.79-.49.41-1.68,1.16-1.35,1.95.22.52.76.61,1.38.56,1.76.02,3.51-.02,5.27-.08,1.56,0,3.11-.09,4.66-.26.82-.06,1.64-.09,2.45-.16,2.06-.19,4.11-.43,6.15-.72.74-.11,2.49-.66,3,.05.28.38.05,1.03-.28,1.65-1.4,1.88-2.38,4.05-3.19,6.24-1.15,3.12-2.06,6.32-2.88,9.54-1.38,5.45-2.41,10.97-3.4,16.5.17.09.37.15.66.15,1.16,0,2.64-.02,3.28-1.31.78-6.28,1.7-12.56,3.31-18.69.81-3.08,1.74-6.18,2.98-9.11.6-1.43,1.32-2.84,2.21-4.12.29-.71.57-1.42.87-2.12.47-1.11,1.36-1.5,2.44-1.77,3.51-.87,6.47-2.78,9.25-5,1.41-.94,2.72-1.98,3.53-3.53-.07.14-1.04.25-1.24.34Z"/>
  <path class="uuid-e5c46609-47c1-41cc-9a56-5119e782ea3f" d="m126.35,179.83c1.1-1.03.22-1.87-.53-3.27-.27,1.44-1.58,2.12-.47,3.27.31.32.71.27,1,0Z"/>
  <path class="uuid-e5c46609-47c1-41cc-9a56-5119e782ea3f" d="m105.22,194.37c-1.37.17-2.13.68-2.18,1.96-1.41,4.07-.28,7.98.89,11.85.36,1.19,1.19,3.41,2,3,1.36-.69.55-2.71-.1-3.84-1.83-3.17-2.05-6.56-1.9-10.05.53-.85,1.09-1.7,1.29-2.92Z"/>
  <path class="uuid-e5c46609-47c1-41cc-9a56-5119e782ea3f" d="m189.68,343.21c-.7.14-.68.68-.52,1.24.75.6,1.65,1.76,1.69-.43-.17-.58-.58-.92-1.17-.81Z"/>
  <path class="uuid-e5c46609-47c1-41cc-9a56-5119e782ea3f" d="m220.18,263.49s-.04.13-.06.2c.11,0,.22,0,.33,0-.03-.07-.06-.13-.08-.2-.07,0-.16-.03-.19,0Z"/>
  <path class="uuid-e5c46609-47c1-41cc-9a56-5119e782ea3f" d="m243.22,101.01c0,.14,0,.28,0,.42.04,0,.09,0,.13,0,0-.14,0-.28,0-.42,0,0-.12,0-.12,0Z"/>
  <path class="uuid-e5c46609-47c1-41cc-9a56-5119e782ea3f" d="m254.37,278.62c.31-.98.63-1.96.92-2.95.15-.52.75-1.2-.09-1.52-.73-.27-.63.61-.88.99-.27.41-.38,1.07-1.05.97-.6-.09-.73-.66-.89-1.16-.11-.35-.24-.68-.36-1.02.03-.09,0-.17-.07-.23-.01-.5-.34-.54-.72-.5-.15,0-.3.02-.45.03-.19.11-.39.23-.58.34-2.22,1.12-2.45,3.26-2.58,5.35-.28,4.47,1.18,8.75,1.8,13.18.21-4.96,1.14-9.82,1.4-14.75.15-.17.3-.35.45-.52.12-.11.24-.21.36-.32h0c1.5-.09,1.44.99,1.43,1.97-.02,1.73,0,3.45.62,5.1-.03.15-.11.3-.09.44.09.73-.52,1.48.05,2.15.1.12.68.07.8-.09.58-.74.34-1.55.05-2.34-.03-.07-.08-.13-.12-.19-.04-.88-.07-1.76-.11-2.64-.01-.3-.03-.6-.04-.9.02-.3.04-.61.06-.91.03-.16.06-.32.09-.47Z"/>
  <path class="uuid-e5c46609-47c1-41cc-9a56-5119e782ea3f" d="m202.65,94.22c-1.8.83-3.67.34-5.52.31-2.73-.07-5.44.17-8.13.66-1.1-.25-2.16-.09-3.19.35-1.48.44-2.94,1.1-4.45,1.25-1.27.13-2.09.55-2.66,1.61-.35,1.14.28,1.34,1.18,1.17,2.58-.47,5.16-.96,7.74-1.45,5.1-.26,10.22-.42,15.31-.84,2.29-.19,4.58-.75,6.75-1.64.81-.33,1.26-.91,1.06-1.76-.24-.98-1.07-.53-1.7-.54-1.24,0-2.49-.02-3.73-.03-.3.24-.6.48-.91.72-.44.05-.89.11-1.33.16l-.1.03c.05-.01.1-.03.1-.03-.15-.22-.29-.21-.41.02Z"/>
</svg>