<?xml version="1.0" encoding="UTF-8" standalone="no"?>
<!DOCTYPE svg PUBLIC "-//W3C//DTD SVG 1.1//EN" "http://www.w3.org/Graphics/SVG/1.1/DTD/svg11.dtd">
<!-- Created with Vectornator (http://vectornator.io/) -->
<svg height="100%" stroke-miterlimit="10" style="fill-rule:nonzero;clip-rule:evenodd;stroke-linecap:round;stroke-linejoin:round;" version="1.1" viewBox="0 0 400 400" width="100%" xml:space="preserve" xmlns="http://www.w3.org/2000/svg" xmlns:vectornator="http://vectornator.io" xmlns:xlink="http://www.w3.org/1999/xlink">
<defs/>
<path d="M0 0L400 0L400 400L0 400L0 0Z" fill="#f5f5f5" fill-rule="nonzero" opacity="1" stroke="none" vectornator:artboardBackground="true"/>
<g id="Layer-1" vectornator:layerName="Layer 1">
<g opacity="0.889952" vectornator:layerName="Curve 1">
<path d="M211.406 24.9688C203.684 24.8672 195.954 25.4714 188.344 26.7812C184.161 27.5011 180.028 28.4971 175.938 29.625C171.882 30.7433 167.869 32.0336 163.938 33.5312C161.071 34.6233 158.241 35.8116 155.469 37.125C153.235 38.183 151.024 39.3416 148.875 40.5625C138.228 46.612 127.027 55.8606 124.594 68.5312C124.23 70.4278 124.098 72.323 124.125 74.25C124.11 74.9745 124.682 75.5785 125.406 75.5938C126.131 75.609 126.735 75.037 126.75 74.3125C126.851 72.5812 127.079 70.8659 127.531 69.1875C130.804 57.0326 143.202 49.1775 154 44.375C156.155 43.4167 158.343 42.5463 160.562 41.75C163.328 40.7579 166.139 39.8549 168.969 39.0625C172.347 38.1165 175.75 37.3221 179.188 36.625C184.101 35.6286 189.079 34.8581 194.062 34.3125C212.126 32.3349 231.705 32.296 247.031 43.5C249.536 45.3314 251.844 47.4314 253.906 49.75C256.776 52.9758 259.178 56.6203 261.125 60.4688C265.75 69.609 268.031 79.8394 269.562 89.9062C271.015 99.4533 271.477 109.258 269.844 118.812C269.111 123.099 267.966 127.319 266.312 131.344C259.936 146.867 246.915 157.921 234.062 168.062C217.391 181.218 199.57 193.92 187.156 211.469C180.473 220.917 177.376 232.234 176.219 243.625C174.72 258.374 176.367 273.234 177.562 287.938C177.957 292.792 178.319 297.663 178.469 302.531C178.827 284.016 176.461 265.426 178.844 246.969C180.179 236.625 183.044 226.258 189.094 217.625C192.672 212.518 197.292 208.11 201.75 203.781C204.755 200.863 207.75 197.918 210.875 195.125C215.95 190.589 221.236 186.32 226.594 182.125C244.491 168.112 264.648 154.583 273.344 132.594C275.37 127.471 276.716 122.111 277.469 116.656C278.984 105.682 278.119 94.5355 276.281 83.6562C274.4 72.5233 271.391 61.3387 265.406 51.6562C263.271 48.2018 260.761 44.9833 257.906 42.0938C255.658 39.8185 253.219 37.7643 250.594 35.9375C245.29 32.2466 239.287 29.4214 233.062 27.6875C226.031 25.7287 218.684 25.0644 211.406 24.9688Z" fill="#3640e5" stroke="none"/>
</g>
<g opacity="0.889952" vectornator:layerName="Curve 2">
<path d="M184.75 348.531C184.107 348.298 183.41 348.611 183.125 349.219C183.291 348.826 183.82 348.607 183.281 348.75C183.201 348.771 183.112 348.79 183.031 348.812C182.931 348.84 182.85 348.847 182.75 348.875C182.492 348.948 182.258 349.017 182 349.094C178.55 350.121 175.003 351.523 172.188 353.812C170.854 354.897 169.875 356.51 169.188 358.062C168.805 358.928 168.502 359.847 168.344 360.781C167.419 366.24 171.103 370.37 175.625 372.781C176.906 373.464 178.248 374.116 179.688 374.375C186.316 375.567 191.524 369.03 193.719 363.625C194.913 360.684 195.322 357.863 193.844 354.969C193.16 353.629 192.077 352.419 190.844 351.562C189.971 350.956 188.993 350.502 187.969 350.219C187.344 350.046 186.708 349.933 186.062 349.875C185.855 349.856 185.646 349.883 185.438 349.875C185.458 349.565 185.549 349.251 185.344 348.969C185.239 348.825 185.081 348.729 184.938 348.625C184.884 348.586 184.933 348.611 184.75 348.531ZM183.062 349.562C183.042 349.703 183.07 349.833 183.094 349.969C183.088 349.983 183.095 349.989 183.094 350C183.1 350.031 183.085 350.063 183.094 350.094C183.102 350.124 183.083 350.158 183.094 350.188C183.081 350.154 183.041 350.128 183.031 350.094C183.022 350.063 183.007 350.031 183 350C182.962 349.841 183.033 349.71 183.062 349.562ZM183.188 350.406C183.337 350.658 183.548 350.892 183.844 351C183.823 351.058 183.738 350.974 183.688 350.938C183.544 350.834 183.385 350.737 183.281 350.594C183.242 350.539 183.22 350.466 183.188 350.406ZM184.938 350.906C185.36 351.071 185.761 351.245 186.156 351.469C186.812 351.84 187.424 352.29 187.938 352.844C188.548 353.503 189.007 354.284 189.219 355.156C189.559 356.553 188.841 357.557 188.469 358.875C187.771 361.344 186.73 363.663 184.875 365.5C184.068 366.299 182.807 367.389 181.562 367.25C181.131 367.202 180.729 366.873 180.375 366.656C179.844 366.331 179.34 366.001 178.844 365.625C178.384 365.277 177.929 364.887 177.531 364.469C177.132 364.048 176.729 363.567 176.562 363C176.259 361.968 177.129 360.935 177.656 360.156C178.057 359.564 178.403 358.917 178.781 358.312C180.033 356.309 181.544 354.472 183.156 352.75C183.6 352.276 184.037 351.83 184.5 351.375C184.621 351.256 184.765 351.061 184.938 350.906Z" fill="#3640e5" stroke="none"/>
</g>
</g>
</svg>
