<svg width="39" height="34" viewBox="0 0 39 34" fill="none" xmlns="http://www.w3.org/2000/svg">
<path d="M14.656 33.632H0.448V19.424C0.448 16.864 0.704 14.4747 1.216 12.256C1.81333 9.952 2.66667 7.94666 3.776 6.24C4.97067 4.53333 6.464 3.16799 8.256 2.144C10.048 1.12 12.1387 0.607994 14.528 0.607994V7.008C13.0773 7.008 11.8827 7.392 10.944 8.16C10.0053 8.84266 9.23733 9.78133 8.64 10.976C8.04267 12.1707 7.616 13.536 7.36 15.072C7.18933 16.5227 7.104 17.9733 7.104 19.424H14.656V33.632ZM38.08 33.632H23.872V19.424C23.872 16.864 24.128 14.4747 24.64 12.256C25.2373 9.952 26.0907 7.94666 27.2 6.24C28.3947 4.53333 29.888 3.16799 31.68 2.144C33.472 1.12 35.5627 0.607994 37.952 0.607994V7.008C36.5013 7.008 35.3067 7.392 34.368 8.16C33.4293 8.84266 32.6613 9.78133 32.064 10.976C31.4667 12.1707 31.04 13.536 30.784 15.072C30.6133 16.5227 30.528 17.9733 30.528 19.424H38.08V33.632Z" fill="#0038FF"/>
</svg>
